G04 #@! TF.GenerationSoftware,KiCad,Pcbnew,(6.0.6-69-g6d26e8e3e8)*
G04 #@! TF.CreationDate,2022-07-20T16:26:27-04:00*
G04 #@! TF.ProjectId,bottom,626f7474-6f6d-42e6-9b69-6361645f7063,rev?*
G04 #@! TF.SameCoordinates,Original*
G04 #@! TF.FileFunction,Profile,NP*
%FSLAX46Y46*%
G04 Gerber Fmt 4.6, Leading zero omitted, Abs format (unit mm)*
G04 Created by KiCad (PCBNEW (6.0.6-69-g6d26e8e3e8)) date 2022-07-20 16:26:27*
%MOMM*%
%LPD*%
G01*
G04 APERTURE LIST*
G04 #@! TA.AperFunction,Profile*
%ADD10C,0.200000*%
G04 #@! TD*
G04 APERTURE END LIST*
D10*
X40556971Y-199074845D02*
X40543389Y-199108667D01*
X39049535Y-201957841D02*
X38930884Y-201835018D01*
X354731888Y-114686689D02*
X354783852Y-114852222D01*
X183692534Y-211603902D02*
X183670704Y-211574716D01*
X350605335Y-113918668D02*
X350569491Y-113925274D01*
X351210856Y-113997941D02*
X351177398Y-113983484D01*
X362405544Y-199044092D02*
X362390797Y-199077423D01*
X182458129Y-213195858D02*
X182492294Y-213208555D01*
X225410523Y-126846843D02*
X225376584Y-126833555D01*
X40474567Y-199464744D02*
X40474567Y-199501191D01*
X224029792Y-128192086D02*
X224043374Y-128225909D01*
X40859617Y-200295711D02*
X40888226Y-200318295D01*
X364286657Y-198995106D02*
X364269076Y-198963179D01*
X41107905Y-198519108D02*
X41074704Y-198534144D01*
X362353613Y-199790890D02*
X362364815Y-199825573D01*
X363512583Y-198446953D02*
X363476444Y-198442221D01*
X179900292Y-128283640D02*
X179910284Y-128318691D01*
X362975434Y-200463280D02*
X363009599Y-200475977D01*
X180742555Y-129049105D02*
X180778607Y-129054463D01*
X363044184Y-198483612D02*
X363009599Y-198495115D01*
X222466963Y-211350818D02*
X222497421Y-211330799D01*
X224006189Y-128123129D02*
X224017392Y-128157813D01*
X363403782Y-198436535D02*
X363367347Y-198435586D01*
X52629315Y-115340437D02*
X52636852Y-115376097D01*
X53991629Y-114144849D02*
X53956850Y-114133947D01*
X225019923Y-128867746D02*
X225056359Y-128866797D01*
X105491458Y-111309890D02*
X105635977Y-111328943D01*
X225129021Y-128861110D02*
X225165160Y-128856379D01*
X351039164Y-115971348D02*
X351074300Y-115961660D01*
X53053427Y-114284278D02*
X53024052Y-114305854D01*
X37727526Y-199605197D02*
X37689987Y-199438600D01*
X53956850Y-114133947D02*
X53921713Y-114124260D01*
X350006802Y-115667335D02*
X350032009Y-115693660D01*
X181698047Y-127313926D02*
X181673301Y-127287167D01*
X223962234Y-127872435D02*
X223964763Y-127908795D01*
X362353613Y-199180202D02*
X362343620Y-199215253D01*
X53560152Y-114095962D02*
X53523936Y-114100065D01*
X224073421Y-212488417D02*
X224063429Y-212523468D01*
X181798669Y-212090865D02*
X181794881Y-212127115D01*
X180369005Y-128910281D02*
X180400463Y-128928687D01*
X41316213Y-200512120D02*
X41352057Y-200518726D01*
X53083533Y-114263734D02*
X53053427Y-114284278D01*
X349727844Y-114972650D02*
X349729109Y-115009076D01*
X180600855Y-129015281D02*
X180635818Y-129025577D01*
X362475815Y-198916480D02*
X362456596Y-198947449D01*
X53145793Y-114225841D02*
X53114334Y-114244247D01*
X226055123Y-127708635D02*
X226050705Y-127672456D01*
X180278723Y-127178020D02*
X180250115Y-127200603D01*
X40543389Y-199108667D02*
X40530990Y-199142941D01*
X225541063Y-126911512D02*
X225509290Y-126893654D01*
X363584260Y-200510930D02*
X363619712Y-200502468D01*
X351688611Y-111564943D02*
X351850720Y-111626765D01*
X362334851Y-199250630D02*
X362327314Y-199286290D01*
X351787456Y-115242288D02*
X351796839Y-115207069D01*
X351536081Y-115680607D02*
X351560827Y-115653848D01*
X364357405Y-199162812D02*
X364345602Y-199128329D01*
X41957578Y-198526482D02*
X41924121Y-198512025D01*
X362377215Y-199859847D02*
X362390797Y-199893669D01*
X181647641Y-128765411D02*
X181673301Y-128739527D01*
X180222308Y-128802528D02*
X180250115Y-128826091D01*
X182886477Y-211169112D02*
X182850041Y-211168164D01*
X223049695Y-213268085D02*
X223013260Y-213267136D01*
X182070045Y-211505216D02*
X182045767Y-211532400D01*
X181033116Y-126970022D02*
X180996834Y-126966548D01*
X52723441Y-115615434D02*
X52740465Y-115647661D01*
X350200984Y-115831874D02*
X350231785Y-115851361D01*
X362539752Y-198827833D02*
X362517418Y-198856636D01*
X41460661Y-200531031D02*
X41497075Y-200532612D01*
X181413385Y-128937478D02*
X181445158Y-128919621D01*
X53277435Y-114163447D02*
X53243732Y-114177322D01*
X354212564Y-113592076D02*
X354302820Y-113740250D01*
X222560328Y-211293993D02*
X222592702Y-211277249D01*
X222868505Y-211185513D02*
X222904459Y-211179531D01*
X182022447Y-212875837D02*
X182045767Y-212903848D01*
X53705783Y-114092170D02*
X53669348Y-114091221D01*
X181875115Y-128438199D02*
X181889281Y-128404618D01*
X38145705Y-200722108D02*
X38069781Y-200569141D01*
X182850041Y-211168164D02*
X182813595Y-211168480D01*
X350112895Y-114141683D02*
X350085088Y-114165245D01*
X363330900Y-198435902D02*
X363294487Y-198437483D01*
X351428271Y-115778586D02*
X351456483Y-115755510D01*
X183647873Y-212889944D02*
X183670704Y-212861533D01*
X208779482Y-127425885D02*
X208838388Y-127423278D01*
X41316213Y-198453815D02*
X41280620Y-198461661D01*
X181647641Y-127261283D02*
X181621097Y-127236305D01*
X362612558Y-198746313D02*
X362587350Y-198772638D01*
X181766511Y-127399125D02*
X181744681Y-127369938D01*
X222797330Y-213235046D02*
X222762193Y-213225358D01*
X54026008Y-114156951D02*
X53991629Y-114144849D01*
X224239927Y-128530694D02*
X224265134Y-128557019D01*
X224628011Y-128795520D02*
X224662176Y-128808216D01*
X41141609Y-200460702D02*
X41175773Y-200473399D01*
X52623021Y-115304538D02*
X52629315Y-115340437D01*
X225056359Y-128866797D02*
X225092739Y-128864584D01*
X224561106Y-128766609D02*
X224594308Y-128781645D01*
X181939291Y-212756221D02*
X181958510Y-212787190D01*
X54281825Y-115987424D02*
X54310821Y-115965341D01*
X364008820Y-198661387D02*
X363979824Y-198639303D01*
X40778732Y-200222201D02*
X40804837Y-200247636D01*
X52655614Y-115446525D02*
X52666816Y-115481208D01*
X181924676Y-128301209D02*
X181934059Y-128265989D01*
X350932035Y-113915833D02*
X350895896Y-113911102D01*
X222207202Y-212832346D02*
X222186397Y-212802420D01*
X222098599Y-212642977D02*
X222084432Y-212609395D01*
X37819555Y-199934061D02*
X37770732Y-199770415D01*
X180778607Y-126972231D02*
X180742555Y-126977589D01*
X53991629Y-116137514D02*
X54026008Y-116125412D01*
X41642618Y-198439643D02*
X41606336Y-198436169D01*
X224838460Y-126782027D02*
X224802616Y-126788633D01*
X182922857Y-213264923D02*
X182959139Y-213261449D01*
X105635977Y-111328943D02*
X105779880Y-111352203D01*
X181942213Y-128230466D02*
X181949130Y-128194680D01*
X183462518Y-211371881D02*
X183432774Y-211350818D01*
X181673301Y-127287167D02*
X181647641Y-127261283D01*
X52623021Y-114977825D02*
X52617976Y-115013922D01*
X223996197Y-127547493D02*
X223987427Y-127582870D01*
X180706711Y-129042499D02*
X180742555Y-129049105D01*
X181593703Y-127212264D02*
X181565491Y-127189187D01*
X52463659Y-111776676D02*
X52620652Y-111704231D01*
X351737895Y-115379279D02*
X351752061Y-115345697D01*
X53632902Y-114091537D02*
X53596488Y-114093118D01*
X224017392Y-127477759D02*
X224006189Y-127512442D01*
X180013268Y-128551444D02*
X180032487Y-128582413D01*
X350859614Y-113907628D02*
X350823234Y-113905415D01*
X183868236Y-212435243D02*
X183875153Y-212399458D01*
X181348076Y-127056862D02*
X181314618Y-127042404D01*
X182391224Y-211269301D02*
X182358564Y-211285480D01*
X351850720Y-111626765D02*
X352010587Y-111694174D01*
X350394886Y-115932161D02*
X350429051Y-115944857D01*
X181506751Y-127146041D02*
X181476293Y-127126022D01*
X224464910Y-128714720D02*
X224496368Y-128733126D01*
X54700129Y-115286511D02*
X54704547Y-115250332D01*
X222039655Y-211965482D02*
X222049037Y-211930262D01*
X53452040Y-114112029D02*
X53416447Y-114119875D01*
X42116253Y-200350274D02*
X42145998Y-200329210D01*
X179995136Y-127506867D02*
X179978111Y-127539094D01*
X351210856Y-115910912D02*
X351243791Y-115895302D01*
X54532645Y-114556886D02*
X54511841Y-114526959D01*
X181744681Y-128656755D02*
X181766511Y-128627569D01*
X351817580Y-114809097D02*
X351811910Y-114773093D01*
X41533521Y-200532928D02*
X41569956Y-200531979D01*
X350327981Y-114005603D02*
X350295322Y-114021783D01*
X351722571Y-115412349D02*
X351737895Y-115379279D01*
X50832605Y-113035057D02*
X50947063Y-112905464D01*
X181825748Y-127490980D02*
X181807069Y-127459682D01*
X183599324Y-212944304D02*
X183624070Y-212917545D01*
X224215649Y-127132062D02*
X224192329Y-127160073D01*
X52617976Y-115268441D02*
X52623021Y-115304538D01*
X181794881Y-212127115D02*
X181792352Y-212163475D01*
X351039164Y-113937505D02*
X351003712Y-113929043D01*
X37999124Y-200413669D02*
X37933818Y-200255876D01*
X363654848Y-200492780D02*
X363689627Y-200481879D01*
X351607461Y-114311018D02*
X351584630Y-114282607D01*
X181280679Y-128997578D02*
X181314618Y-128984290D01*
X182176138Y-213030868D02*
X182204746Y-213053451D01*
X224029792Y-127443485D02*
X224017392Y-127477759D01*
X40831810Y-200272149D02*
X40859617Y-200295711D01*
X349988151Y-111266980D02*
X350161622Y-111269981D01*
X362308393Y-199503770D02*
X362309658Y-199540196D01*
X182526878Y-213220058D02*
X182561841Y-213230354D01*
X183692534Y-212832346D02*
X183713339Y-212802420D01*
X223158891Y-213263343D02*
X223122554Y-213266187D01*
X40571718Y-199924422D02*
X40587614Y-199957220D01*
X366933510Y-200297987D02*
X366865313Y-200458631D01*
X225955696Y-127359863D02*
X225939234Y-127327345D01*
X363757946Y-198514603D02*
X363724007Y-198501315D01*
X362941731Y-198521687D02*
X362908529Y-198536723D01*
X222659095Y-211247181D02*
X222693034Y-211233893D01*
X351650096Y-114370131D02*
X351629291Y-114340205D01*
X54310821Y-114317022D02*
X54281825Y-114294939D01*
X223441607Y-211240390D02*
X223475311Y-211254265D01*
X53956850Y-116148415D02*
X53991629Y-116137514D01*
X42307550Y-198783546D02*
X42282803Y-198756788D01*
X224107384Y-212272774D02*
X224104856Y-212309133D01*
X41107905Y-200446827D02*
X41141609Y-200460702D01*
X223267002Y-211188972D02*
X223302596Y-211196817D01*
X53346185Y-116143116D02*
X53381148Y-116153412D01*
X299154006Y-111301097D02*
X299299373Y-111286168D01*
X196887088Y-127425905D02*
X196945366Y-127426754D01*
X181140932Y-129038731D02*
X181176384Y-129030268D01*
X181033116Y-129056672D02*
X181069255Y-129051940D01*
X224039827Y-211843824D02*
X224052226Y-211878097D01*
X364165178Y-198813727D02*
X364141376Y-198786125D01*
X181069255Y-126974753D02*
X181033116Y-126970022D01*
X222275666Y-211518703D02*
X222300413Y-211491944D01*
X183137543Y-211210890D02*
X183102406Y-211201203D01*
X182886477Y-213267136D02*
X182922857Y-213264923D01*
X180996834Y-126966548D02*
X180960454Y-126964335D01*
X362312186Y-199394537D02*
X362309658Y-199430897D01*
X181381011Y-127072472D02*
X181348076Y-127056862D01*
X350361183Y-115918286D02*
X350394886Y-115932161D01*
X223960969Y-127799562D02*
X223960969Y-127836009D01*
X226050705Y-127963115D02*
X226055123Y-127926936D01*
X362364815Y-199145519D02*
X362353613Y-199180202D01*
X182000113Y-212847034D02*
X182022447Y-212875837D01*
X40475832Y-199428318D02*
X40474567Y-199464744D01*
X222229033Y-212861533D02*
X222207202Y-212832346D01*
X224074016Y-128292038D02*
X224091041Y-128324266D01*
X40705926Y-198825255D02*
X40683592Y-198854058D01*
X350394886Y-113976692D02*
X350361183Y-113990567D01*
X180096424Y-127355634D02*
X180074090Y-127384437D01*
X223337895Y-211205894D02*
X223372858Y-211216190D01*
X54443377Y-115840603D02*
X54467179Y-115813001D01*
X181698047Y-128712768D02*
X181721850Y-128685166D01*
X180119744Y-127327623D02*
X180096424Y-127355634D01*
X351752061Y-115345697D02*
X351765054Y-115311644D01*
X183573663Y-212970188D02*
X183599324Y-212944304D01*
X364408234Y-199485546D02*
X364407602Y-199449104D01*
X363584260Y-198460162D02*
X363548536Y-198452935D01*
X40641989Y-198913902D02*
X40622770Y-198944870D01*
X40947706Y-198605520D02*
X40917600Y-198626064D01*
X350032009Y-114215193D02*
X350006802Y-114241518D01*
X180144022Y-127300439D02*
X180119744Y-127327623D01*
X40474567Y-199501191D02*
X40475832Y-199537617D01*
X222940598Y-213261449D02*
X222904459Y-213256718D01*
X363009599Y-200475977D02*
X363044184Y-200487480D01*
X40519787Y-199177624D02*
X40509795Y-199212675D01*
X42230600Y-200260009D02*
X42257143Y-200235032D01*
X222352616Y-211441082D02*
X222380010Y-211417041D01*
X352010587Y-111694174D02*
X352168019Y-111767089D01*
X349784267Y-114614399D02*
X349773064Y-114649083D01*
X42230600Y-198705926D02*
X42203206Y-198681884D01*
X41750434Y-200508352D02*
X41785886Y-200499889D01*
X225572198Y-128705110D02*
X225602656Y-128685092D01*
X350533898Y-113933120D02*
X350498598Y-113942196D01*
X364230644Y-200069842D02*
X364250398Y-200039211D01*
X363221935Y-198444430D02*
X363185883Y-198449788D01*
X351109079Y-113958094D02*
X351074300Y-113947193D01*
X223978578Y-212724604D02*
X223960445Y-212756221D01*
X54059948Y-114170238D02*
X54026008Y-114156951D01*
X367270264Y-198947648D02*
X367248984Y-199120865D01*
X196770731Y-127419115D02*
X196828860Y-127423358D01*
X41401656Y-203280781D02*
X41236455Y-203237510D01*
X40487194Y-199319612D02*
X40482149Y-199355708D01*
X42244474Y-203411361D02*
X42074322Y-203396795D01*
X54670006Y-114853320D02*
X54659407Y-114818447D01*
X224063429Y-212523468D02*
X224052226Y-212558151D01*
X225921653Y-128340153D02*
X225939234Y-128308226D01*
X362665636Y-200274728D02*
X362693443Y-200298290D01*
X54687542Y-115358300D02*
X54694459Y-115322515D01*
X225342204Y-128814118D02*
X225376584Y-128802016D01*
X235195727Y-214789093D02*
X229917935Y-215718124D01*
X351607461Y-115597835D02*
X351629291Y-115568649D01*
X40587614Y-199957220D02*
X40604638Y-199989448D01*
X52889352Y-115854089D02*
X52914559Y-115880415D01*
X224947064Y-128865849D02*
X224983477Y-128867430D01*
X351796839Y-115207069D02*
X351804993Y-115171545D01*
X222300413Y-212944304D02*
X222275666Y-212917545D01*
X350605335Y-115990185D02*
X350641387Y-115995542D01*
X37597280Y-198762327D02*
X37588601Y-198591774D01*
X351339073Y-115841751D02*
X351369531Y-115821733D01*
X40978507Y-198586033D02*
X40947706Y-198605520D01*
X222009440Y-212254566D02*
X222008807Y-212218124D01*
X366442760Y-201220879D02*
X366342656Y-201363835D01*
X51189074Y-112658534D02*
X51316338Y-112541492D01*
X179921487Y-127673320D02*
X179910284Y-127708003D01*
X351177398Y-113983484D02*
X351143459Y-113970196D01*
X222352616Y-212995166D02*
X222326073Y-212970188D01*
X50245789Y-113888353D02*
X50331095Y-113737961D01*
X183828297Y-212575342D02*
X183840100Y-212540858D01*
X363185883Y-198449788D02*
X363150039Y-198456394D01*
X41855802Y-198486635D02*
X41821023Y-198475734D01*
X180278723Y-128848674D02*
X180308098Y-128870250D01*
X54694459Y-115322515D02*
X54700129Y-115286511D01*
X50617467Y-113305722D02*
X50722696Y-113168529D01*
X42523580Y-199160234D02*
X42511777Y-199125750D01*
X349754302Y-114719511D02*
X349746766Y-114755170D01*
X224192329Y-127160073D02*
X224169995Y-127188876D01*
X223995602Y-211743871D02*
X224011497Y-211776670D01*
X208720524Y-127426754D02*
X208779482Y-127425885D01*
X182632734Y-211188972D02*
X182597141Y-211196817D01*
X196945366Y-127426754D02*
X208720524Y-127426754D01*
X353051089Y-112314844D02*
X353186359Y-112423487D01*
X363258151Y-200530765D02*
X363294487Y-200533609D01*
X181978792Y-211618775D02*
X181958510Y-211649058D01*
X182045767Y-212903848D02*
X182070045Y-212931032D01*
X54571077Y-114618814D02*
X54552399Y-114587516D01*
X40571718Y-199041514D02*
X40556971Y-199074845D01*
X223541172Y-211285480D02*
X223573250Y-211302784D01*
X183890296Y-212181682D02*
X183888399Y-212145284D01*
X362665636Y-198696365D02*
X362638663Y-198720878D01*
X49724445Y-115347956D02*
X49759596Y-115178666D01*
X40662271Y-200082317D02*
X40683592Y-200111878D01*
X52723441Y-114666929D02*
X52707545Y-114699728D01*
X182391224Y-213166947D02*
X182424426Y-213181983D01*
X41388109Y-200524084D02*
X41424325Y-200528187D01*
X52655614Y-114835838D02*
X52645621Y-114870889D01*
X222049037Y-211930262D02*
X222059636Y-211895390D01*
X224192329Y-128475499D02*
X224215649Y-128503509D01*
X350161622Y-111269981D02*
X350334885Y-111278999D01*
X222868505Y-213250735D02*
X222832781Y-213243508D01*
X53416447Y-114119875D02*
X53381148Y-114128951D01*
X181859791Y-127555425D02*
X181843329Y-127522907D01*
X181314618Y-127042404D02*
X181280679Y-127029116D01*
X54511841Y-115755403D02*
X54532645Y-115725477D01*
X181413385Y-127089216D02*
X181381011Y-127072472D01*
X104909674Y-111276012D02*
X105055428Y-111278114D01*
X224910728Y-128863005D02*
X224947064Y-128865849D01*
X225939234Y-128308226D02*
X225955696Y-128275708D01*
X180851159Y-129061410D02*
X180887572Y-129062991D01*
X41568238Y-203318386D02*
X41401656Y-203280781D01*
X224074016Y-127343533D02*
X224058121Y-127376332D01*
X364392458Y-199666880D02*
X364398128Y-199630876D01*
X53381148Y-114128951D02*
X53346185Y-114139247D01*
X41924121Y-198512025D02*
X41890182Y-198498737D01*
X105201060Y-111284465D02*
X105346444Y-111295060D01*
X351143459Y-115938657D02*
X351177398Y-115925370D01*
X183519726Y-213019207D02*
X183547120Y-212995166D01*
X52679216Y-115515482D02*
X52692798Y-115549304D01*
X209072478Y-127395543D02*
X298864892Y-111343665D01*
X225272289Y-126800864D02*
X225236837Y-126792402D01*
X366712316Y-200772292D02*
X366627703Y-200924927D01*
X182561841Y-211205894D02*
X182526878Y-211216190D01*
X349796667Y-114580126D02*
X349784267Y-114614399D01*
X182597141Y-211196817D02*
X182561841Y-211205894D01*
X222071439Y-211860906D02*
X222084432Y-211826853D01*
X351109079Y-115950759D02*
X351143459Y-115938657D01*
X183888399Y-212290964D02*
X183890296Y-212254566D01*
X41009966Y-200398308D02*
X41042044Y-200415611D01*
X180119744Y-128699071D02*
X180144022Y-128726255D01*
X226009982Y-128140520D02*
X226020581Y-128105647D01*
X351307938Y-114048153D02*
X351276165Y-114030295D01*
X363258151Y-198440327D02*
X363221935Y-198444430D01*
X40482149Y-199610227D02*
X40487194Y-199646324D01*
X225019923Y-126767825D02*
X224983477Y-126768141D01*
X181873491Y-211810001D02*
X181859910Y-211843824D01*
X183769352Y-212708564D02*
X183785814Y-212676046D01*
X353568435Y-112776634D02*
X353687371Y-112902949D01*
X349746766Y-114755170D02*
X349740471Y-114791070D01*
X351358448Y-111458353D02*
X351524454Y-111508783D01*
X182045767Y-211532400D02*
X182022447Y-211560411D01*
X363294487Y-198437483D02*
X363258151Y-198440327D01*
X41736007Y-203350280D02*
X41568238Y-203318386D01*
X41042044Y-198550324D02*
X41009966Y-198567627D01*
X350263243Y-114039086D02*
X350231785Y-114057492D01*
X182704629Y-211177008D02*
X182668578Y-211182366D01*
X42585773Y-203423025D02*
X42415024Y-203420107D01*
X351243791Y-114013551D02*
X351210856Y-113997941D01*
X41352057Y-198447209D02*
X41316213Y-198453815D01*
X224104856Y-212309133D02*
X224101067Y-212345383D01*
X362722051Y-198650219D02*
X362693443Y-198672802D01*
X224291240Y-127053117D02*
X224265134Y-127078552D01*
X54679388Y-115393824D02*
X54687542Y-115358300D01*
X40482149Y-199355708D02*
X40478360Y-199391958D01*
X352912131Y-112210960D02*
X353051089Y-112314844D01*
X351584630Y-114282607D02*
X351560827Y-114255005D01*
X50517045Y-113446471D02*
X50617467Y-113305722D01*
X225902974Y-128371451D02*
X225921653Y-128340153D01*
X224374628Y-128653113D02*
X224404003Y-128674689D01*
X181921158Y-211711644D02*
X181904134Y-211743871D01*
X51447572Y-112428920D02*
X51582620Y-112320953D01*
X224011497Y-211776670D02*
X224026245Y-211810001D01*
X53776257Y-111354327D02*
X53947067Y-111327518D01*
X224043374Y-128225909D02*
X224058121Y-128259239D01*
X362438464Y-199992026D02*
X362456596Y-200023643D01*
X181921158Y-212724604D02*
X181939291Y-212756221D01*
X224082191Y-212453040D02*
X224073421Y-212488417D01*
X54339033Y-114340098D02*
X54310821Y-114317022D01*
X37585751Y-198421024D02*
X49695169Y-115518361D01*
X350141503Y-115789753D02*
X350170878Y-115811330D01*
X54634611Y-114749911D02*
X54620444Y-114716329D01*
X54704547Y-115032031D02*
X54700129Y-114995852D01*
X53886261Y-116166565D02*
X53921713Y-116158103D01*
X42534179Y-199770829D02*
X42543561Y-199735610D01*
X183339408Y-211293993D02*
X183307034Y-211277249D01*
X180250115Y-128826091D02*
X180278723Y-128848674D01*
X363919621Y-198598221D02*
X363888487Y-198579272D01*
X38069781Y-200569141D02*
X37999124Y-200413669D01*
X349936870Y-115583336D02*
X349959204Y-115612140D01*
X222625638Y-213174609D02*
X222592702Y-213158999D01*
X196597429Y-127396257D02*
X196654966Y-127405559D01*
X196654966Y-127405559D02*
X196712749Y-127413181D01*
X53053427Y-115998085D02*
X53083533Y-116018629D01*
X42376014Y-200097190D02*
X42396818Y-200067263D01*
X42307550Y-200182389D02*
X42331353Y-200154787D01*
X182234121Y-213075028D02*
X182264227Y-213095572D01*
X181445158Y-127107073D02*
X181413385Y-127089216D01*
X224108649Y-212199900D02*
X224108649Y-212236348D01*
X182148331Y-213007306D02*
X182176138Y-213030868D01*
X41424325Y-198437748D02*
X41388109Y-198441852D01*
X40437848Y-202938145D02*
X40284910Y-202862160D01*
X52798098Y-115740530D02*
X52819419Y-115770091D01*
X40604638Y-198976488D02*
X40587614Y-199008715D01*
X222832781Y-213243508D02*
X222797330Y-213235046D01*
X350823234Y-113905415D02*
X350786798Y-113904466D01*
X181978792Y-212817473D02*
X182000113Y-212847034D01*
X41074704Y-198534144D02*
X41042044Y-198550324D01*
X52692798Y-115549304D02*
X52707545Y-115582635D01*
X222408222Y-211393965D02*
X222437218Y-211371881D01*
X54659407Y-115463915D02*
X54670006Y-115429043D01*
X363440162Y-198438747D02*
X363403782Y-198436535D01*
X350112895Y-115767170D02*
X350141503Y-115789753D01*
X222011337Y-212290964D02*
X222009440Y-212254566D01*
X351276165Y-114030295D02*
X351243791Y-114013551D01*
X53416447Y-116162488D02*
X53452040Y-116170334D01*
X223122554Y-213266187D02*
X223086141Y-213267768D01*
X226009982Y-127495052D02*
X225998179Y-127460568D01*
X42174994Y-198658808D02*
X42145998Y-198636725D01*
X180498403Y-127049488D02*
X180465201Y-127064524D01*
X38706505Y-201577579D02*
X38601040Y-201443263D01*
X226038118Y-127600667D02*
X226029964Y-127565143D01*
X182850041Y-213268085D02*
X182886477Y-213267136D01*
X350533898Y-115975733D02*
X350569491Y-115983579D01*
X41245321Y-198470737D02*
X41210358Y-198481033D01*
X223751406Y-213007306D02*
X223723599Y-213030868D01*
X183599324Y-211491944D02*
X183573663Y-211466060D01*
X364402546Y-199376395D02*
X364398128Y-199340217D01*
X351688528Y-115476794D02*
X351706109Y-115444867D01*
X222014496Y-212108973D02*
X222018913Y-212072795D01*
X349824996Y-114512973D02*
X349810249Y-114546303D01*
X181593703Y-128814430D02*
X181621097Y-128790389D01*
X364064426Y-200262588D02*
X364090969Y-200237610D01*
X223694990Y-213053451D02*
X223665616Y-213075028D01*
X54418630Y-114415001D02*
X54392970Y-114389117D01*
X180222308Y-127224165D02*
X180195335Y-127248679D01*
X223441607Y-213195858D02*
X223407443Y-213208555D01*
X40478360Y-199573977D02*
X40482149Y-199610227D01*
X40753525Y-198770060D02*
X40729246Y-198797244D01*
X181791087Y-212199900D02*
X181791087Y-212236348D01*
X54707706Y-115214022D02*
X54709603Y-115177623D01*
X183880823Y-212072795D02*
X183875153Y-212036791D01*
X181565491Y-127189187D02*
X181536496Y-127167104D01*
X350231785Y-114057492D02*
X350200984Y-114076979D01*
X350463635Y-115956361D02*
X350498598Y-115966657D01*
X183307034Y-213158999D02*
X183339408Y-213142255D01*
X52620652Y-111704231D02*
X52780055Y-111637257D01*
X225998179Y-127460568D02*
X225985187Y-127426515D01*
X364331299Y-202992596D02*
X364170654Y-203060790D01*
X351560827Y-115653848D02*
X351584630Y-115626246D01*
X42331353Y-200154787D02*
X42354183Y-200126376D01*
X183875153Y-212399458D02*
X183880823Y-212363454D01*
X183102406Y-211201203D02*
X183066955Y-211192740D01*
X350058115Y-114189758D02*
X350032009Y-114215193D01*
X52798098Y-114541832D02*
X52777816Y-114572115D01*
X362908529Y-198536723D02*
X362875870Y-198552902D01*
X40705926Y-200140681D02*
X40729246Y-200168691D01*
X181939291Y-211680027D02*
X181921158Y-211711644D01*
X363824339Y-200426421D02*
X363856713Y-200409678D01*
X226045035Y-127636452D02*
X226038118Y-127600667D01*
X299299373Y-111286168D02*
X299445114Y-111275494D01*
X364209840Y-200099768D02*
X364230644Y-200069842D01*
X354117222Y-113447124D02*
X354212564Y-113592076D01*
X40729246Y-198797244D02*
X40705926Y-198825255D01*
X179978111Y-128487600D02*
X179995136Y-128519827D01*
X41245321Y-200495198D02*
X41280620Y-200504274D01*
X224011497Y-212659578D02*
X223995602Y-212692377D01*
X350295322Y-115887070D02*
X350327981Y-115903250D01*
X363979824Y-200331789D02*
X364008820Y-200309706D01*
X222497421Y-213105449D02*
X222466963Y-213085430D01*
X183307034Y-211277249D02*
X183274099Y-211261639D01*
X181791087Y-212236348D02*
X181792352Y-212272774D01*
X362751426Y-198628643D02*
X362722051Y-198650219D01*
X40978507Y-200379902D02*
X41009966Y-200398308D01*
X53277435Y-116118916D02*
X53311600Y-116131612D01*
X42085795Y-198595643D02*
X42054661Y-198576694D01*
X179877691Y-127849991D02*
X179872647Y-127886088D01*
X180960454Y-129062359D02*
X180996834Y-129060146D01*
X224101067Y-212090865D02*
X224104856Y-212127115D01*
X222326073Y-211466060D02*
X222352616Y-211441082D01*
X42435250Y-198960600D02*
X42416572Y-198929303D01*
X223475311Y-213181983D02*
X223441607Y-213195858D01*
X224109173Y-127279688D02*
X224091041Y-127311306D01*
X183274099Y-213174609D02*
X183307034Y-213158999D01*
X42282803Y-200209148D02*
X42307550Y-200182389D01*
X363919621Y-200372871D02*
X363950079Y-200352852D01*
X222229033Y-211574716D02*
X222251863Y-211546305D01*
X42074322Y-203396795D02*
X41904768Y-203376426D01*
X349840891Y-114480174D02*
X349824996Y-114512973D01*
X183733092Y-211664459D02*
X183713339Y-211633829D01*
X224291240Y-128582454D02*
X224318213Y-128606967D01*
X183868236Y-212001005D02*
X183860082Y-211965482D01*
X42543561Y-199230325D02*
X42534179Y-199195106D01*
X41009966Y-198567627D02*
X40978507Y-198586033D01*
X364398128Y-199630876D02*
X364402546Y-199594697D01*
X181825748Y-128535714D02*
X181843329Y-128503787D01*
X350231785Y-115851361D02*
X350263243Y-115869767D01*
X181246299Y-127017014D02*
X181211520Y-127006113D01*
X349915549Y-114355078D02*
X349895267Y-114385361D01*
X181836307Y-212523468D02*
X181847510Y-212558151D01*
X224169995Y-127188876D02*
X224148674Y-127218437D01*
X181964274Y-127976905D02*
X181962377Y-127940507D01*
X222625638Y-211261639D02*
X222659095Y-211247181D01*
X49695169Y-115518361D02*
X49724445Y-115347956D01*
X226050705Y-127672456D02*
X226045035Y-127636452D01*
X362612558Y-200224780D02*
X362638663Y-200250214D01*
X351510421Y-114202362D02*
X351483877Y-114177385D01*
X180338204Y-127135899D02*
X180308098Y-127156443D01*
X182526878Y-211216190D02*
X182492294Y-211227693D01*
X54467179Y-114469362D02*
X54443377Y-114441760D01*
X54093405Y-114184696D02*
X54059948Y-114170238D01*
X53177871Y-114208538D02*
X53145793Y-114225841D01*
X364303119Y-199943468D02*
X364318443Y-199910399D01*
X362812333Y-200382481D02*
X362843791Y-200400887D01*
X179910284Y-127708003D02*
X179900292Y-127743054D01*
X362587350Y-200198454D02*
X362612558Y-200224780D01*
X223122554Y-211170061D02*
X223158891Y-211172905D01*
X351190791Y-111413713D02*
X351358448Y-111458353D01*
X225921653Y-127295418D02*
X225902974Y-127264121D01*
X225817755Y-128489605D02*
X225840586Y-128461194D01*
X222940598Y-211174799D02*
X222976879Y-211171325D01*
X363791404Y-198529061D02*
X363757946Y-198514603D01*
X53705783Y-116190193D02*
X53742163Y-116187980D01*
X41890182Y-200467198D02*
X41924121Y-200453911D01*
X42558632Y-199664301D02*
X42564303Y-199628297D01*
X351825157Y-114881586D02*
X351821997Y-114845276D01*
X53024052Y-114305854D02*
X52995444Y-114328438D01*
X350295322Y-114021783D02*
X350263243Y-114039086D01*
X351706109Y-115444867D02*
X351722571Y-115412349D01*
X364392458Y-199304213D02*
X364385541Y-199268427D01*
X183102406Y-213235046D02*
X183137543Y-213225358D01*
X351177398Y-115925370D02*
X351210856Y-115910912D01*
X351399276Y-114108184D02*
X351369531Y-114087120D01*
X354302820Y-113740250D02*
X354387879Y-113891465D01*
X42523580Y-199805702D02*
X42534179Y-199770829D01*
X222693034Y-213202355D02*
X222659095Y-213189067D01*
X364037032Y-198684463D02*
X364008820Y-198661387D01*
X182204746Y-213053451D02*
X182234121Y-213075028D01*
X364230644Y-198901251D02*
X364209840Y-198871324D01*
X179910284Y-128318691D02*
X179921487Y-128353374D01*
X224802616Y-128846938D02*
X224838460Y-128853544D01*
X225689608Y-127016702D02*
X225661396Y-126993626D01*
X364007728Y-203123336D02*
X363842718Y-203180159D01*
X53452040Y-116170334D02*
X53487884Y-116176940D01*
X362781532Y-200362994D02*
X362812333Y-200382481D01*
X182358564Y-213150768D02*
X182391224Y-213166947D01*
X223541172Y-213150768D02*
X223508512Y-213166947D01*
X222437218Y-213064367D02*
X222408222Y-213042284D01*
X364286657Y-199975986D02*
X364303119Y-199943468D01*
X351804993Y-114737308D02*
X351796839Y-114701784D01*
X181934059Y-127760704D02*
X181924676Y-127725485D01*
X362456596Y-200023643D02*
X362475815Y-200054612D01*
X349936870Y-114325517D02*
X349915549Y-114355078D01*
X362646454Y-203412737D02*
X362472174Y-203421879D01*
X183547120Y-212995166D02*
X183573663Y-212970188D01*
X351456483Y-115755510D02*
X351483877Y-115731468D01*
X223829691Y-212931032D02*
X223804484Y-212957358D01*
X224838460Y-128853544D02*
X224874512Y-128858902D01*
X362587350Y-198772638D02*
X362563072Y-198799823D01*
X363512583Y-200524140D02*
X363548536Y-200518157D01*
X362364815Y-199825573D02*
X362377215Y-199859847D01*
X50421549Y-113590608D02*
X50517045Y-113446471D01*
X182264227Y-211340677D02*
X182234121Y-211361221D01*
X351369531Y-115821733D02*
X351399276Y-115800669D01*
X364318443Y-199910399D02*
X364332610Y-199876817D01*
X351307938Y-115860701D02*
X351339073Y-115841751D01*
X39299070Y-202190979D02*
X39172311Y-202076541D01*
X222528555Y-211311850D02*
X222560328Y-211293993D01*
X40917600Y-200339871D02*
X40947706Y-200360415D01*
X223635510Y-211340677D02*
X223665616Y-211361221D01*
X52865073Y-115826905D02*
X52889352Y-115854089D01*
X362315975Y-199612806D02*
X362321020Y-199648902D01*
X362563072Y-198799823D02*
X362539752Y-198827833D01*
X54490010Y-114497773D02*
X54467179Y-114469362D01*
X353317778Y-112536759D02*
X353445188Y-112654521D01*
X52740465Y-114634701D02*
X52723441Y-114666929D01*
X41750434Y-198457584D02*
X41714711Y-198450357D01*
X223604709Y-211321190D02*
X223635510Y-211340677D01*
X225056359Y-126768774D02*
X225019923Y-126767825D01*
X54552399Y-114587516D02*
X54532645Y-114556886D01*
X179868858Y-128104356D02*
X179872647Y-128140606D01*
X226060811Y-127817786D02*
X226060179Y-127781344D01*
X53632902Y-116190826D02*
X53669348Y-116191142D01*
X351483877Y-115731468D02*
X351510421Y-115706491D01*
X349959204Y-114296713D02*
X349936870Y-114325517D01*
X349729109Y-114899777D02*
X349727844Y-114936203D01*
X349763072Y-115224719D02*
X349773064Y-115259770D01*
X181843329Y-128503787D02*
X181859791Y-128471269D01*
X366996059Y-200135062D02*
X366933510Y-200297987D01*
X53947067Y-111327518D02*
X54118702Y-111306631D01*
X349735427Y-115081686D02*
X349740471Y-115117783D01*
X223195107Y-211177008D02*
X223231158Y-211182366D01*
X54647604Y-114783964D02*
X54634611Y-114749911D01*
X351560827Y-114255005D02*
X351536081Y-114228246D01*
X299737221Y-111266942D02*
X349988151Y-111266980D01*
X222976879Y-211171325D02*
X223013260Y-211169112D01*
X53742163Y-114094383D02*
X53705783Y-114092170D01*
X52707545Y-114699728D02*
X52692798Y-114733058D01*
X52666816Y-115481208D02*
X52679216Y-115515482D01*
X362309658Y-199430897D02*
X362308393Y-199467322D01*
X224108649Y-212236348D02*
X224107384Y-212272774D01*
X353801853Y-113033315D02*
X353911743Y-113167575D01*
X367297690Y-198425020D02*
X367294631Y-198599513D01*
X183785814Y-211760202D02*
X183769352Y-211727684D01*
X365093556Y-202570057D02*
X364947192Y-202665109D01*
X363507254Y-203276363D02*
X363337208Y-203315628D01*
X350361183Y-113990567D02*
X350327981Y-114005603D01*
X364332610Y-199094275D02*
X364318443Y-199060694D01*
X349784267Y-115294454D02*
X349796667Y-115328727D01*
X183491514Y-211393965D02*
X183462518Y-211371881D01*
X349857916Y-115460907D02*
X349876048Y-115492524D01*
X367103918Y-199803161D02*
X367052885Y-199970053D01*
X179947469Y-127605224D02*
X179933887Y-127639046D01*
X364318443Y-199060694D02*
X364303119Y-199027624D01*
X349727844Y-114936203D02*
X349727844Y-114972650D01*
X223573250Y-211302784D02*
X223604709Y-211321190D01*
X180960454Y-126964335D02*
X180924018Y-126963386D01*
X225793952Y-127118364D02*
X225769206Y-127091605D01*
X224802616Y-126788633D02*
X224767023Y-126796479D01*
X224528447Y-126885142D02*
X224496368Y-126902445D01*
X362875870Y-200418190D02*
X362908529Y-200434369D01*
X41074704Y-200431791D02*
X41107905Y-200446827D01*
X183751771Y-212740491D02*
X183769352Y-212708564D01*
X179883986Y-127814091D02*
X179877691Y-127849991D01*
X223694990Y-211382797D02*
X223723599Y-211405380D01*
X42085795Y-200370292D02*
X42116253Y-200350274D01*
X54059948Y-116112124D02*
X54093405Y-116097667D01*
X362563072Y-200171270D02*
X362587350Y-200198454D01*
X183432774Y-211350818D02*
X183402316Y-211330799D01*
X364170654Y-203060790D02*
X364007728Y-203123336D01*
X352322826Y-111845423D02*
X352474822Y-111929080D01*
X42435250Y-200005335D02*
X42452831Y-199973408D01*
X351765054Y-115311644D02*
X351776857Y-115277161D01*
X179877691Y-128176703D02*
X179883986Y-128212603D01*
X52889352Y-114428273D02*
X52865073Y-114455458D01*
X42574409Y-199482968D02*
X42573776Y-199446526D01*
X52009010Y-112025943D02*
X52157656Y-111937628D01*
X182148331Y-211428943D02*
X182121358Y-211453456D01*
X183880823Y-212363454D02*
X183885240Y-212327275D01*
X52666816Y-114801154D02*
X52655614Y-114835838D01*
X52841753Y-115798894D02*
X52865073Y-115826905D01*
X351811910Y-115135760D02*
X351817580Y-115099756D01*
X364269076Y-200007913D02*
X364286657Y-199975986D01*
X183402316Y-213105449D02*
X183432774Y-213085430D01*
X54392970Y-115893245D02*
X54418630Y-115867362D01*
X40501025Y-199717884D02*
X40509795Y-199753260D01*
X41388109Y-198441852D02*
X41352057Y-198447209D01*
X52614187Y-115050172D02*
X52611659Y-115086532D01*
X181904134Y-211743871D02*
X181888239Y-211776670D01*
X181889281Y-127622076D02*
X181875115Y-127588494D01*
X196828860Y-127423358D02*
X196887088Y-127425905D01*
X54511841Y-114526959D02*
X54490010Y-114497773D01*
X225092739Y-128864584D02*
X225129021Y-128861110D01*
X349796667Y-115328727D02*
X349810249Y-115362550D01*
X42415024Y-203420107D02*
X42244474Y-203411361D01*
X181176384Y-129030268D02*
X181211520Y-129020581D01*
X354904878Y-115358234D02*
X354933437Y-115529365D01*
X182597141Y-213239431D02*
X182632734Y-213247277D01*
X42257143Y-200235032D02*
X42282803Y-200209148D01*
X350641387Y-115995542D02*
X350677602Y-115999646D01*
X183850699Y-211930262D02*
X183840100Y-211895390D01*
X41821023Y-198475734D02*
X41785886Y-198466046D01*
X363689627Y-200481879D02*
X363724007Y-200469777D01*
X364377387Y-199738189D02*
X364385541Y-199702665D01*
X225862416Y-128432008D02*
X225883221Y-128402081D01*
X354387879Y-113891465D02*
X354467642Y-114045541D01*
X180074090Y-127384437D02*
X180052769Y-127413998D01*
X183031231Y-211185513D02*
X182995278Y-211179531D01*
X181314618Y-128984290D02*
X181348076Y-128969832D01*
X38404171Y-201164222D02*
X38312998Y-201019823D01*
X181536496Y-127167104D02*
X181506751Y-127146041D01*
X223973596Y-127981142D02*
X223979891Y-128017042D01*
X223723599Y-211405380D02*
X223751406Y-211428943D01*
X180074090Y-128642257D02*
X180096424Y-128671060D01*
X351510421Y-115706491D02*
X351536081Y-115680607D01*
X299591105Y-111269083D02*
X299737221Y-111266942D01*
X350032009Y-115693660D02*
X350058115Y-115719095D01*
X182121358Y-211453456D02*
X182095252Y-211478891D01*
X224043374Y-127409663D02*
X224029792Y-127443485D01*
X180566271Y-127022916D02*
X180532106Y-127035613D01*
X182121358Y-212982792D02*
X182148331Y-213007306D01*
X222408222Y-213042284D02*
X222380010Y-213019207D01*
X37611779Y-198932485D02*
X37597280Y-198762327D01*
X223920945Y-212817473D02*
X223899624Y-212847034D01*
X222251863Y-212889944D02*
X222229033Y-212861533D01*
X41042044Y-200415611D02*
X41074704Y-200431791D01*
X180338204Y-128890794D02*
X180369005Y-128910281D01*
X222008807Y-212218124D02*
X222009440Y-212181682D01*
X182777182Y-211170061D02*
X182740845Y-211172905D01*
X181817545Y-211983208D02*
X181810009Y-212018868D01*
X349982524Y-114268703D02*
X349959204Y-114296713D01*
X350786798Y-113904466D02*
X350750352Y-113904782D01*
X349857916Y-114447946D02*
X349840891Y-114480174D01*
X183885240Y-212108973D02*
X183880823Y-212072795D01*
X183875153Y-212036791D02*
X183868236Y-212001005D01*
X364368005Y-199197685D02*
X364357405Y-199162812D01*
X224947064Y-126769722D02*
X224910728Y-126772566D01*
X54636501Y-111279714D02*
X104909674Y-111276012D01*
X53210531Y-116090005D02*
X53243732Y-116105041D01*
X182234121Y-211361221D02*
X182204746Y-211382797D01*
X51863507Y-112119343D02*
X52009010Y-112025943D01*
X181954800Y-127868017D02*
X181949130Y-127832013D01*
X183885240Y-212327275D02*
X183888399Y-212290964D01*
X226029964Y-127565143D02*
X226020581Y-127529924D01*
X179866329Y-127958697D02*
X179865064Y-127995123D01*
X42376014Y-198868746D02*
X42354183Y-198839559D01*
X354830040Y-115019459D02*
X354870399Y-115188197D01*
X367221673Y-199293234D02*
X367188363Y-199464546D01*
X181962377Y-128086187D02*
X181964274Y-128049789D01*
X181962377Y-127940507D02*
X181959217Y-127904196D01*
X225661396Y-126993626D02*
X225632401Y-126971543D01*
X182492294Y-213208555D02*
X182526878Y-213220058D01*
X183371181Y-213124398D02*
X183402316Y-213105449D01*
X366013296Y-201770546D02*
X365894272Y-201898180D01*
X183274099Y-211261639D02*
X183240641Y-211247181D01*
X181766511Y-128627569D02*
X181787316Y-128597642D01*
X222275666Y-212917545D02*
X222251863Y-212889944D01*
X38930884Y-201835018D02*
X38816496Y-201708214D01*
X223086141Y-211168480D02*
X223122554Y-211170061D01*
X225902974Y-127264121D02*
X225883221Y-127233490D01*
X225955696Y-128275708D02*
X225971020Y-128242638D01*
X224594308Y-128781645D02*
X224628011Y-128795520D01*
X223964763Y-127726776D02*
X223962234Y-127763136D01*
X42145998Y-198636725D02*
X42116253Y-198615661D01*
X367052885Y-199970053D02*
X366996059Y-200135062D01*
X183402316Y-211330799D02*
X183371181Y-211311850D01*
X365375891Y-202364928D02*
X365236514Y-202469956D01*
X226055123Y-127926936D02*
X226058282Y-127890626D01*
X225817755Y-127145966D02*
X225793952Y-127118364D01*
X183206702Y-213202355D02*
X183240641Y-213189067D01*
X180013268Y-127475250D02*
X179995136Y-127506867D01*
X180144022Y-128726255D02*
X180169229Y-128752580D01*
X350851339Y-111342011D02*
X351021687Y-111374917D01*
X224265134Y-127078552D02*
X224239927Y-127104878D01*
X224983477Y-128867430D02*
X225019923Y-128867746D01*
X349754302Y-115189342D02*
X349763072Y-115224719D01*
X224404003Y-126960882D02*
X224374628Y-126982459D01*
X362539752Y-200143259D02*
X362563072Y-200171270D01*
X225443981Y-128774271D02*
X225476916Y-128758661D01*
X180096424Y-128671060D02*
X180119744Y-128699071D01*
X224089728Y-212018868D02*
X224096022Y-212054768D01*
X181904134Y-212692377D02*
X181921158Y-212724604D01*
X363337208Y-203315628D02*
X363165896Y-203348934D01*
X181621097Y-128790389D02*
X181647641Y-128765411D01*
X363114446Y-200506853D02*
X363150039Y-200514699D01*
X54467179Y-115813001D02*
X54490010Y-115784590D01*
X41714711Y-198450357D02*
X41678757Y-198444374D01*
X41678757Y-200521561D02*
X41714711Y-200515579D01*
X223231158Y-213253882D02*
X223195107Y-213259240D01*
X42452831Y-198992527D02*
X42435250Y-198960600D01*
X299009138Y-111320268D02*
X299154006Y-111301097D01*
X350334885Y-111278999D02*
X350507731Y-111294024D01*
X363440162Y-200532345D02*
X363476444Y-200528871D01*
X363842718Y-203180159D02*
X363675825Y-203231188D01*
X51721320Y-112217719D02*
X51863507Y-112119343D01*
X52841753Y-114483468D02*
X52819419Y-114512271D01*
X363888487Y-200391820D02*
X363919621Y-200372871D01*
X53814584Y-114102588D02*
X53778445Y-114097857D01*
X40530990Y-199142941D02*
X40519787Y-199177624D01*
X350085088Y-115743608D02*
X350112895Y-115767170D01*
X54709603Y-115177623D02*
X54710236Y-115141181D01*
X224073421Y-211947831D02*
X224082191Y-211983208D01*
X222018913Y-212072795D02*
X222024584Y-212036791D01*
X363950079Y-200352852D02*
X363979824Y-200331789D01*
X37689987Y-199438600D02*
X37658160Y-199270818D01*
X41352057Y-200518726D02*
X41388109Y-200524084D01*
X42571879Y-199410127D02*
X42568720Y-199373817D01*
X354467642Y-114045541D02*
X354542010Y-114202292D01*
X180887572Y-129062991D02*
X180924018Y-129063307D01*
X223899624Y-212847034D02*
X223877290Y-212875837D01*
X50947063Y-112905464D02*
X51065933Y-112779907D01*
X180924018Y-126963386D02*
X180887572Y-126963703D01*
X226058282Y-127744945D02*
X226055123Y-127708635D01*
X183339408Y-213142255D02*
X183371181Y-213124398D01*
X363079147Y-198473316D02*
X363044184Y-198483612D01*
X37632080Y-199102047D02*
X37611779Y-198932485D01*
X364405705Y-199558386D02*
X364407602Y-199521988D01*
X54659407Y-114818447D02*
X54647604Y-114783964D01*
X222186397Y-212802420D02*
X222166644Y-212771789D01*
X182995278Y-211179531D02*
X182959139Y-211174799D01*
X349740471Y-114791070D02*
X349735427Y-114827167D01*
X180532106Y-127035613D02*
X180498403Y-127049488D01*
X364209840Y-198871324D02*
X364188009Y-198842138D01*
X182959139Y-213261449D02*
X182995278Y-213256718D01*
X183828297Y-211860906D02*
X183815304Y-211826853D01*
X174961691Y-215718124D02*
X105543947Y-203498734D01*
X39701735Y-202507412D02*
X39563936Y-202406540D01*
X225165160Y-126779192D02*
X225129021Y-126774461D01*
X222762193Y-213225358D02*
X222727414Y-213214457D01*
X349982524Y-115640150D02*
X350006802Y-115667335D01*
X181959217Y-128122498D02*
X181962377Y-128086187D01*
X225840586Y-127174377D02*
X225817755Y-127145966D01*
X349915549Y-115553776D02*
X349936870Y-115583336D01*
X51065933Y-112779907D02*
X51189074Y-112658534D01*
X364269076Y-198963179D02*
X364250398Y-198931881D01*
X181673301Y-128739527D02*
X181698047Y-128712768D01*
X224091041Y-127311306D02*
X224074016Y-127343533D01*
X222018913Y-212363454D02*
X222014496Y-212327275D01*
X179947469Y-128421470D02*
X179962216Y-128454801D01*
X40509795Y-199753260D02*
X40519787Y-199788312D01*
X183172322Y-213214457D02*
X183206702Y-213202355D01*
X180671118Y-129034654D02*
X180706711Y-129042499D01*
X180308098Y-128870250D02*
X180338204Y-128890794D01*
X54221622Y-114253857D02*
X54190488Y-114234907D01*
X42354183Y-198839559D02*
X42331353Y-198811148D01*
X181836307Y-211912780D02*
X181826315Y-211947831D01*
X362315975Y-199358287D02*
X362312186Y-199394537D01*
X182358564Y-211285480D02*
X182326486Y-211302784D01*
X366791552Y-200616796D02*
X366712316Y-200772292D01*
X50165734Y-114041605D02*
X50245789Y-113888353D01*
X225307425Y-128825020D02*
X225342204Y-128814118D01*
X353445188Y-112654521D02*
X353568435Y-112776634D01*
X351669849Y-115508091D02*
X351688528Y-115476794D01*
X53243732Y-116105041D02*
X53277435Y-116118916D01*
X350141503Y-114119100D02*
X350112895Y-114141683D01*
X363654848Y-198478312D02*
X363619712Y-198468625D01*
X183547120Y-211441082D02*
X183519726Y-211417041D01*
X41175773Y-200473399D02*
X41210358Y-200484902D01*
X350263243Y-115869767D02*
X350295322Y-115887070D01*
X351074300Y-113947193D02*
X351039164Y-113937505D01*
X37588601Y-198591774D02*
X37585751Y-198421024D01*
X52940664Y-114376513D02*
X52914559Y-114401948D01*
X349735427Y-114827167D02*
X349731638Y-114863417D01*
X299445114Y-111275494D02*
X299591105Y-111269083D01*
X180465201Y-127064524D02*
X180432542Y-127080703D01*
X42564303Y-199337638D02*
X42558632Y-199301634D01*
X351243791Y-115895302D02*
X351276165Y-115878558D01*
X350170878Y-115811330D02*
X350200984Y-115831874D01*
X182424426Y-211254265D02*
X182391224Y-211269301D01*
X222380010Y-211417041D02*
X222408222Y-211393965D01*
X42498784Y-199091697D02*
X42484617Y-199058115D01*
X224404003Y-128674689D02*
X224434109Y-128695233D01*
X54158714Y-116065313D02*
X54190488Y-116047455D01*
X40831810Y-198693786D02*
X40804837Y-198718300D01*
X41280620Y-200504274D02*
X41316213Y-200512120D01*
X54588658Y-114650741D02*
X54571077Y-114618814D01*
X363079147Y-200497776D02*
X363114446Y-200506853D01*
X40662271Y-198883619D02*
X40641989Y-198913902D01*
X223475311Y-211254265D02*
X223508512Y-211269301D01*
X181476293Y-127126022D02*
X181445158Y-127107073D01*
X38226809Y-200872394D02*
X38145705Y-200722108D01*
X180814822Y-126968128D02*
X180778607Y-126972231D01*
X362421440Y-199959799D02*
X362438464Y-199992026D01*
X354542010Y-114202292D02*
X354610894Y-114361528D01*
X225476916Y-128758661D02*
X225509290Y-128741917D01*
X225985187Y-127426515D02*
X225971020Y-127392933D01*
X181792352Y-212272774D02*
X181794881Y-212309133D01*
X54710236Y-115141181D02*
X54709603Y-115104739D01*
X225201113Y-128850396D02*
X225236837Y-128843170D01*
X351825157Y-115027267D02*
X351827054Y-114990869D01*
X42396818Y-200067263D02*
X42416572Y-200036633D01*
X179868858Y-127922338D02*
X179866329Y-127958697D01*
X226020581Y-127529924D02*
X226009982Y-127495052D01*
X183890296Y-212254566D02*
X183890929Y-212218124D01*
X41678757Y-198444374D02*
X41642618Y-198439643D01*
X180432542Y-127080703D02*
X180400463Y-127098006D01*
X54694459Y-114959848D02*
X54687542Y-114924063D01*
X105346444Y-111295060D02*
X105491458Y-111309890D01*
X350713939Y-116002490D02*
X350750352Y-116004071D01*
X223960445Y-212756221D02*
X223941227Y-212787190D01*
X222904459Y-211179531D02*
X222940598Y-211174799D01*
X180369005Y-127116412D02*
X180338204Y-127135899D01*
X223960969Y-127836009D02*
X223962234Y-127872435D01*
X349895267Y-115523492D02*
X349915549Y-115553776D01*
X223195107Y-213259240D02*
X223158891Y-213263343D01*
X179865064Y-128031571D02*
X179866329Y-128067996D01*
X223086141Y-213267768D02*
X223049695Y-213268085D01*
X362975434Y-198507812D02*
X362941731Y-198521687D01*
X54605120Y-114683259D02*
X54588658Y-114650741D01*
X42551716Y-199700086D02*
X42558632Y-199664301D01*
X182704629Y-213259240D02*
X182740845Y-213263343D01*
X42568720Y-199592118D02*
X42571879Y-199555808D01*
X224148674Y-128417135D02*
X224169995Y-128446696D01*
X225165160Y-128856379D02*
X225201113Y-128850396D01*
X351003712Y-113929043D02*
X350967988Y-113921816D01*
X364489466Y-202918838D02*
X364331299Y-202992596D01*
X362421440Y-199011294D02*
X362405544Y-199044092D01*
X222049037Y-212505986D02*
X222039655Y-212470767D01*
X42573776Y-199519410D02*
X42574409Y-199482968D01*
X42551716Y-199265849D02*
X42543561Y-199230325D01*
X42257143Y-198730904D02*
X42230600Y-198705926D01*
X225342204Y-126821453D02*
X225307425Y-126810552D01*
X42511777Y-199125750D02*
X42498784Y-199091697D01*
X362993526Y-203376242D02*
X362820308Y-203397518D01*
X42416572Y-200036633D02*
X42435250Y-200005335D01*
X181810009Y-212018868D02*
X181803714Y-212054768D01*
X53487884Y-114105423D02*
X53452040Y-114112029D01*
X40493488Y-199682224D02*
X40501025Y-199717884D01*
X364250398Y-200039211D02*
X364269076Y-200007913D01*
X54490010Y-115784590D02*
X54511841Y-115755403D01*
X362843791Y-198570206D02*
X362812333Y-198588612D01*
X51582620Y-112320953D02*
X51721320Y-112217719D01*
X223604709Y-213115059D02*
X223573250Y-213133465D01*
X223920945Y-211618775D02*
X223941227Y-211649058D01*
X181888239Y-211776670D02*
X181873491Y-211810001D01*
X223968552Y-127690526D02*
X223964763Y-127726776D01*
X352623823Y-112017961D02*
X352769652Y-112111959D01*
X229917935Y-215718124D02*
X174961691Y-215718124D01*
X350895896Y-113911102D02*
X350859614Y-113907628D01*
X53381148Y-116153412D02*
X53416447Y-116162488D01*
X41990514Y-200423843D02*
X42022888Y-200407099D01*
X41855802Y-200479300D02*
X41890182Y-200467198D01*
X42469293Y-199940890D02*
X42484617Y-199907820D01*
X225985187Y-128209056D02*
X225998179Y-128175003D01*
X226029964Y-128070428D02*
X226038118Y-128034904D01*
X52967637Y-114352000D02*
X52940664Y-114376513D01*
X40487194Y-199646324D02*
X40493488Y-199682224D01*
X180032487Y-127444281D02*
X180013268Y-127475250D01*
X349729109Y-115009076D02*
X349731638Y-115045436D01*
X37658160Y-199270818D02*
X37632080Y-199102047D01*
X365511519Y-202255099D02*
X365375891Y-202364928D01*
X53523936Y-114100065D02*
X53487884Y-114105423D01*
X366537814Y-201074517D02*
X366442760Y-201220879D01*
X223899624Y-211589214D02*
X223920945Y-211618775D01*
X224089728Y-212417380D02*
X224082191Y-212453040D01*
X223372858Y-213220058D02*
X223337895Y-213230354D01*
X363619712Y-200502468D02*
X363654848Y-200492780D01*
X37933818Y-200255876D02*
X37873938Y-200095944D01*
X222059636Y-211895390D02*
X222071439Y-211860906D01*
X183890929Y-212218124D02*
X183890296Y-212181682D01*
X364797601Y-202754995D02*
X364644963Y-202839605D01*
X42484617Y-199907820D02*
X42498784Y-199874238D01*
X366865313Y-200458631D02*
X366791552Y-200616796D01*
X224696760Y-128819720D02*
X224731724Y-128830016D01*
X225793952Y-128517207D02*
X225817755Y-128489605D01*
X105543947Y-203498734D02*
X104677140Y-203423025D01*
X222130385Y-212708564D02*
X222113922Y-212676046D01*
X42054661Y-198576694D02*
X42022888Y-198558836D01*
X364165178Y-200157366D02*
X364188009Y-200128955D01*
X224910728Y-126772566D02*
X224874512Y-126776670D01*
X180671118Y-126992040D02*
X180635818Y-127001117D01*
X53145793Y-116056522D02*
X53177871Y-116073825D01*
X222024584Y-212036791D02*
X222031500Y-212001005D01*
X183888399Y-212145284D02*
X183885240Y-212108973D01*
X364188009Y-198842138D02*
X364165178Y-198813727D01*
X53311600Y-114150751D02*
X53277435Y-114163447D01*
X225689608Y-128618869D02*
X225717002Y-128594827D01*
X222437218Y-211371881D02*
X222466963Y-211350818D01*
X182959139Y-211174799D02*
X182922857Y-211171325D01*
X363548536Y-198452935D02*
X363512583Y-198446953D01*
X54620444Y-114716329D02*
X54605120Y-114683259D01*
X182176138Y-211405380D02*
X182148331Y-211428943D01*
X363009599Y-198495115D02*
X362975434Y-198507812D01*
X181246299Y-129009679D02*
X181280679Y-128997578D01*
X350498598Y-115966657D02*
X350533898Y-115975733D01*
X40683592Y-200111878D02*
X40705926Y-200140681D01*
X362472174Y-203421879D02*
X362297681Y-203424934D01*
X52819419Y-114512271D02*
X52798098Y-114541832D01*
X41904768Y-203376426D02*
X41736007Y-203350280D01*
X363150039Y-200514699D02*
X363185883Y-200521304D01*
X42203206Y-198681884D02*
X42174994Y-198658808D01*
X181105208Y-129045958D02*
X181140932Y-129038731D01*
X181843329Y-127522907D02*
X181825748Y-127490980D01*
X223995602Y-212692377D02*
X223978578Y-212724604D01*
X349810249Y-115362550D02*
X349824996Y-115395880D01*
X52610394Y-115159405D02*
X52611659Y-115195831D01*
X54552399Y-115694846D02*
X54571077Y-115663549D01*
X179872647Y-128140606D02*
X179877691Y-128176703D01*
X41606336Y-200529767D02*
X41642618Y-200526292D01*
X350750352Y-113904782D02*
X350713939Y-113906363D01*
X54620444Y-115566034D02*
X54634611Y-115532452D01*
X52645621Y-115411474D02*
X52655614Y-115446525D01*
X223302596Y-213239431D02*
X223267002Y-213247277D01*
X181949130Y-128194680D02*
X181954800Y-128158676D01*
X351765054Y-114597209D02*
X351752061Y-114563156D01*
X364116629Y-198759366D02*
X364090969Y-198733482D01*
X350823234Y-116003438D02*
X350859614Y-116001225D01*
X223407443Y-213208555D02*
X223372858Y-213220058D01*
X225743546Y-127065722D02*
X225717002Y-127040744D01*
X181211520Y-129020581D02*
X181246299Y-129009679D01*
X349763072Y-114684134D02*
X349754302Y-114719511D01*
X183670704Y-212861533D02*
X183692534Y-212832346D01*
X41785886Y-200499889D02*
X41821023Y-200490202D01*
X53114334Y-116038116D02*
X53145793Y-116056522D01*
X223158891Y-211172905D02*
X223195107Y-211177008D01*
X362820308Y-203397518D02*
X362646454Y-203412737D01*
X222014496Y-212327275D02*
X222011337Y-212290964D01*
X349824996Y-115395880D02*
X349840891Y-115428679D01*
X222147966Y-211695757D02*
X222166644Y-211664459D01*
X225443981Y-126861300D02*
X225410523Y-126846843D01*
X351787456Y-114666565D02*
X351776857Y-114631692D01*
X364368005Y-199773408D02*
X364377387Y-199738189D01*
X179962216Y-128454801D02*
X179978111Y-128487600D01*
X364037032Y-200286629D02*
X364064426Y-200262588D01*
X54588658Y-115631622D02*
X54605120Y-115599104D01*
X183815304Y-211826853D02*
X183801138Y-211793272D01*
X364345602Y-199842764D02*
X364357405Y-199808280D01*
X42174994Y-200307127D02*
X42203206Y-200284051D01*
X349959204Y-115612140D02*
X349982524Y-115640150D01*
X181348076Y-128969832D02*
X181381011Y-128954222D01*
X179978111Y-127539094D02*
X179962216Y-127571893D01*
X224082191Y-211983208D02*
X224089728Y-212018868D01*
X351821997Y-115063577D02*
X351825157Y-115027267D01*
X183733092Y-212771789D02*
X183751771Y-212740491D01*
X41714711Y-200515579D02*
X41750434Y-200508352D01*
X225236837Y-128843170D02*
X225272289Y-128834707D01*
X52611659Y-115086532D02*
X52610394Y-115122958D01*
X183624070Y-212917545D02*
X183647873Y-212889944D01*
X364407602Y-199449104D02*
X364405705Y-199412706D01*
X364332610Y-199876817D02*
X364345602Y-199842764D01*
X222528555Y-213124398D02*
X222497421Y-213105449D01*
X53886261Y-114115797D02*
X53850537Y-114108571D01*
X181536496Y-128859590D02*
X181565491Y-128837506D01*
X42054661Y-200389242D02*
X42085795Y-200370292D01*
X365770867Y-202021583D02*
X365643231Y-202140604D01*
X54463625Y-111282715D02*
X54636501Y-111279714D01*
X225717002Y-128594827D02*
X225743546Y-128569850D01*
X224063429Y-211912780D02*
X224073421Y-211947831D01*
X223829691Y-211505216D02*
X223853969Y-211532400D01*
X367294631Y-198599513D02*
X367285486Y-198773793D01*
X54221622Y-116028506D02*
X54252080Y-116008488D01*
X362327314Y-199684802D02*
X362334851Y-199720462D01*
X42571879Y-199555808D02*
X42573776Y-199519410D01*
X364141376Y-198786125D02*
X364116629Y-198759366D01*
X53778445Y-114097857D02*
X53742163Y-114094383D01*
X54026008Y-116125412D02*
X54059948Y-116112124D01*
X53596488Y-114093118D02*
X53560152Y-114095962D01*
X224058121Y-128259239D02*
X224074016Y-128292038D01*
X224731724Y-126805555D02*
X224696760Y-126815851D01*
X354610894Y-114361528D02*
X354674213Y-114523059D01*
X350463635Y-113952492D02*
X350429051Y-113963996D01*
X40641989Y-200052034D02*
X40662271Y-200082317D01*
X53105329Y-111520036D02*
X53270811Y-111469930D01*
X53606476Y-111387026D02*
X53776257Y-111354327D01*
X179883986Y-128212603D02*
X179891522Y-128248263D01*
X54679388Y-114888539D02*
X54670006Y-114853320D01*
X52995444Y-114328438D02*
X52967637Y-114352000D01*
X349876048Y-115492524D02*
X349895267Y-115523492D01*
X224318213Y-128606967D02*
X224346020Y-128630529D01*
X223804484Y-211478891D02*
X223829691Y-211505216D01*
X54670006Y-115429043D02*
X54679388Y-115393824D01*
X179866329Y-128067996D02*
X179868858Y-128104356D01*
X363294487Y-200533609D02*
X363330900Y-200535190D01*
X181859910Y-211843824D02*
X181847510Y-211878097D01*
X223372858Y-211216190D02*
X223407443Y-211227693D01*
X53669348Y-116191142D02*
X53705783Y-116190193D01*
X53742163Y-116187980D02*
X53778445Y-116184506D01*
X40804837Y-198718300D02*
X40778732Y-198743734D01*
X222166644Y-211664459D02*
X222186397Y-211633829D01*
X225602656Y-128685092D02*
X225632401Y-128664028D01*
X351796839Y-114701784D02*
X351787456Y-114666565D01*
X363185883Y-200521304D02*
X363221935Y-200526662D01*
X300202335Y-203425020D02*
X299335673Y-203500703D01*
X224628011Y-126840051D02*
X224594308Y-126853926D01*
X222011337Y-212145284D02*
X222014496Y-212108973D01*
X181949130Y-127832013D02*
X181942213Y-127796228D01*
X224983477Y-126768141D02*
X224947064Y-126769722D01*
X351536081Y-114228246D02*
X351510421Y-114202362D01*
X183031231Y-213250735D02*
X183066955Y-213243508D01*
X49957999Y-114516669D02*
X50021753Y-114355950D01*
X362309658Y-199540196D02*
X362312186Y-199576555D01*
X350932035Y-115993020D02*
X350967988Y-115987037D01*
X52617976Y-115013922D02*
X52614187Y-115050172D01*
X366627703Y-200924927D02*
X366537814Y-201074517D01*
X363165896Y-203348934D02*
X362993526Y-203376242D01*
X351369531Y-114087120D02*
X351339073Y-114067102D01*
X41785886Y-198466046D02*
X41750434Y-198457584D01*
X181959217Y-127904196D02*
X181954800Y-127868017D01*
X350677602Y-113909207D02*
X350641387Y-113913311D01*
X349731638Y-114863417D02*
X349729109Y-114899777D01*
X180635818Y-127001117D02*
X180600855Y-127011413D01*
X54418630Y-115867362D02*
X54443377Y-115840603D01*
X183713339Y-211633829D02*
X183692534Y-211603902D01*
X179921487Y-128353374D02*
X179933887Y-128387647D01*
X224696760Y-126815851D02*
X224662176Y-126827355D01*
X182777182Y-213266187D02*
X182813595Y-213267768D01*
X183240641Y-213189067D02*
X183274099Y-213174609D01*
X363824339Y-198544671D02*
X363791404Y-198529061D01*
X225971020Y-127392933D02*
X225955696Y-127359863D01*
X349876048Y-114416329D02*
X349857916Y-114447946D01*
X224434109Y-126940338D02*
X224404003Y-126960882D01*
X224346020Y-127005042D02*
X224318213Y-127028604D01*
X222113922Y-211760202D02*
X222130385Y-211727684D01*
X223979891Y-127618530D02*
X223973596Y-127654429D01*
X181847510Y-212558151D02*
X181859910Y-212592425D01*
X222071439Y-212575342D02*
X222059636Y-212540858D01*
X350786798Y-116004387D02*
X350823234Y-116003438D01*
X222031500Y-212001005D02*
X222039655Y-211965482D01*
X183670704Y-211574716D02*
X183647873Y-211546305D01*
X349810249Y-114546303D02*
X349796667Y-114580126D01*
X53210531Y-114192358D02*
X53177871Y-114208538D01*
X181445158Y-128919621D02*
X181476293Y-128900672D01*
X40622770Y-200021065D02*
X40641989Y-200052034D01*
X362297681Y-203424934D02*
X300202335Y-203425020D01*
X350679951Y-111315036D02*
X350851339Y-111342011D01*
X182424426Y-213181983D02*
X182458129Y-213195858D01*
X225129021Y-126774461D02*
X225092739Y-126770987D01*
X40753525Y-200195876D02*
X40778732Y-200222201D01*
X42498784Y-199874238D02*
X42511777Y-199840185D01*
X349731638Y-115045436D02*
X349735427Y-115081686D01*
X222592702Y-213158999D02*
X222560328Y-213142255D01*
X224096022Y-212054768D02*
X224101067Y-212090865D01*
X53346185Y-114139247D02*
X53311600Y-114150751D01*
X41460661Y-198434905D02*
X41424325Y-198437748D01*
X180052769Y-128612696D02*
X180074090Y-128642257D01*
X366237625Y-201503211D02*
X366127793Y-201638836D01*
X181176384Y-126996425D02*
X181140932Y-126987963D01*
X222693034Y-211233893D02*
X222727414Y-211221792D01*
X223941227Y-212787190D02*
X223920945Y-212817473D01*
X363724007Y-198501315D02*
X363689627Y-198489214D01*
X362812333Y-198588612D02*
X362781532Y-198608099D01*
X52614187Y-115232191D02*
X52617976Y-115268441D01*
X183840100Y-211895390D02*
X183828297Y-211860906D01*
X351003712Y-115979811D02*
X351039164Y-115971348D01*
X179865064Y-127995123D02*
X179865064Y-128031571D01*
X181565491Y-128837506D02*
X181593703Y-128814430D01*
X181787316Y-128597642D02*
X181807069Y-128567012D01*
X42534179Y-199195106D02*
X42523580Y-199160234D01*
X351811910Y-114773093D02*
X351804993Y-114737308D01*
X54709603Y-115104739D02*
X54707706Y-115068341D01*
X349895267Y-114385361D02*
X349876048Y-114416329D01*
X362908529Y-200434369D02*
X362941731Y-200449406D01*
X54126341Y-116082057D02*
X54158714Y-116065313D01*
X364405705Y-199412706D02*
X364402546Y-199376395D01*
X183491514Y-213042284D02*
X183519726Y-213019207D01*
X363330900Y-200535190D02*
X363367347Y-200535507D01*
X367285486Y-198773793D02*
X367270264Y-198947648D01*
X180887572Y-126963703D02*
X180851159Y-126965284D01*
X223960445Y-211680027D02*
X223978578Y-211711644D01*
X222497421Y-211330799D02*
X222528555Y-211311850D01*
X183860082Y-212470767D02*
X183868236Y-212435243D01*
X225236837Y-126792402D02*
X225201113Y-126785175D01*
X225376584Y-126833555D02*
X225342204Y-126821453D01*
X183624070Y-211518703D02*
X183599324Y-211491944D01*
X362438464Y-198979066D02*
X362421440Y-199011294D01*
X350967988Y-115987037D02*
X351003712Y-115979811D01*
X182095252Y-211478891D02*
X182070045Y-211505216D01*
X363689627Y-198489214D02*
X363654848Y-198478312D01*
X181803714Y-212054768D02*
X181798669Y-212090865D01*
X362751426Y-200342450D02*
X362781532Y-200362994D01*
X52707545Y-115582635D02*
X52723441Y-115615434D01*
X181859910Y-212592425D02*
X181873491Y-212626247D01*
X353186359Y-112423487D02*
X353317778Y-112536759D01*
X40284910Y-202862160D02*
X40134656Y-202780997D01*
X363476444Y-198442221D02*
X363440162Y-198438747D01*
X222380010Y-213019207D02*
X222352616Y-212995166D01*
X350429051Y-115944857D02*
X350463635Y-115956361D01*
X222059636Y-212540858D02*
X222049037Y-212505986D01*
X351817580Y-115099756D02*
X351821997Y-115063577D01*
X42511777Y-199840185D02*
X42523580Y-199805702D01*
X224874512Y-128858902D02*
X224910728Y-128863005D01*
X225971020Y-128242638D02*
X225985187Y-128209056D01*
X225840586Y-128461194D02*
X225862416Y-128432008D01*
X224528447Y-128750429D02*
X224561106Y-128766609D01*
X52777816Y-114572115D02*
X52758597Y-114603084D01*
X182813595Y-213267768D02*
X182850041Y-213268085D01*
X224101067Y-212345383D02*
X224096022Y-212381480D01*
X224434109Y-128695233D02*
X224464910Y-128714720D01*
X362693443Y-200298290D02*
X362722051Y-200320873D01*
X224096022Y-212381480D02*
X224089728Y-212417380D01*
X39563936Y-202406540D02*
X39429662Y-202301022D01*
X182561841Y-213230354D02*
X182597141Y-213239431D01*
X40543389Y-199857268D02*
X40556971Y-199891091D01*
X42416572Y-198929303D02*
X42396818Y-198898672D01*
X362496097Y-200084895D02*
X362517418Y-200114456D01*
X54700129Y-114995852D02*
X54694459Y-114959848D01*
X223013260Y-211169112D02*
X223049695Y-211168164D01*
X367149096Y-199634590D02*
X367103918Y-199803161D01*
X222098599Y-211793272D02*
X222113922Y-211760202D01*
X181924676Y-127725485D02*
X181914077Y-127690613D01*
X351428271Y-114130267D02*
X351399276Y-114108184D01*
X350170878Y-114097523D02*
X350141503Y-114119100D01*
X50091025Y-114197533D02*
X50165734Y-114041605D01*
X224052226Y-211878097D02*
X224063429Y-211912780D01*
X351827054Y-114917984D02*
X351825157Y-114881586D01*
X40478360Y-199391958D02*
X40475832Y-199428318D01*
X363403782Y-200534558D02*
X363440162Y-200532345D01*
X52995444Y-115953925D02*
X53024052Y-115976508D01*
X224006189Y-127512442D02*
X223996197Y-127547493D01*
X351776857Y-115277161D02*
X351787456Y-115242288D01*
X362517418Y-200114456D02*
X362539752Y-200143259D01*
X182740845Y-211172905D02*
X182704629Y-211177008D01*
X41497075Y-198433324D02*
X41460661Y-198434905D01*
X363548536Y-200518157D02*
X363584260Y-200510930D01*
X41606336Y-198436169D02*
X41569956Y-198433956D01*
X224148674Y-127218437D02*
X224128392Y-127248720D01*
X224128392Y-128386852D02*
X224148674Y-128417135D01*
X180432542Y-128945991D02*
X180465201Y-128962170D01*
X223804484Y-212957358D02*
X223778378Y-212982792D01*
X52940664Y-115905849D02*
X52967637Y-115930363D01*
X224731724Y-128830016D02*
X224767023Y-128839092D01*
X354870399Y-115188197D02*
X354904878Y-115358234D01*
X52636852Y-114906265D02*
X52629315Y-114941925D01*
X54093405Y-116097667D02*
X54126341Y-116082057D01*
X182922857Y-211171325D02*
X182886477Y-211169112D01*
X42543561Y-199735610D02*
X42551716Y-199700086D01*
X52819419Y-115770091D02*
X52841753Y-115798894D01*
X208838388Y-127423278D02*
X208897192Y-127418936D01*
X364064426Y-198708504D02*
X364037032Y-198684463D01*
X180742555Y-126977589D02*
X180706711Y-126984194D01*
X224058121Y-127376332D02*
X224043374Y-127409663D01*
X223778378Y-212982792D02*
X223751406Y-213007306D01*
X223013260Y-213267136D02*
X222976879Y-213264923D01*
X365643231Y-202140604D02*
X365511519Y-202255099D01*
X349746766Y-115153683D02*
X349754302Y-115189342D01*
X363856713Y-198561415D02*
X363824339Y-198544671D01*
X52941678Y-111575834D02*
X53105329Y-111520036D01*
X362517418Y-198856636D02*
X362496097Y-198886197D01*
X362390797Y-199893669D02*
X362405544Y-199927000D01*
X353687371Y-112902949D02*
X353801853Y-113033315D01*
X181888239Y-212659578D02*
X181904134Y-212692377D01*
X181803714Y-212381480D02*
X181810009Y-212417380D01*
X53921713Y-114124260D02*
X53886261Y-114115797D01*
X224091041Y-128324266D02*
X224109173Y-128355883D01*
X350895896Y-115997751D02*
X350932035Y-115993020D01*
X225092739Y-126770987D02*
X225056359Y-126768774D01*
X223407443Y-211227693D02*
X223441607Y-211240390D01*
X222762193Y-211210890D02*
X222797330Y-211201203D01*
X363619712Y-198468625D02*
X363584260Y-198460162D01*
X225939234Y-127327345D02*
X225921653Y-127295418D01*
X226060179Y-127781344D02*
X226058282Y-127744945D01*
X54647604Y-115498399D02*
X54659407Y-115463915D01*
X222300413Y-211491944D02*
X222326073Y-211466060D01*
X40509795Y-199212675D02*
X40501025Y-199248052D01*
X181792352Y-212163475D02*
X181791087Y-212199900D01*
X354016908Y-113305566D02*
X354117222Y-113447124D01*
X179891522Y-128248263D02*
X179900292Y-128283640D01*
X50722696Y-113168529D02*
X50832605Y-113035057D01*
X351276165Y-115878558D02*
X351307938Y-115860701D01*
X225376584Y-128802016D02*
X225410523Y-128788729D01*
X224104856Y-212127115D02*
X224107384Y-212163475D01*
X208955842Y-127412862D02*
X209014288Y-127405062D01*
X105055428Y-111278114D02*
X105201060Y-111284465D01*
X225743546Y-128569850D02*
X225769206Y-128543966D01*
X53114334Y-114244247D02*
X53083533Y-114263734D01*
X52610394Y-115122958D02*
X52610394Y-115159405D01*
X183751771Y-211695757D02*
X183733092Y-211664459D01*
X181280679Y-127029116D02*
X181246299Y-127017014D01*
X54281825Y-114294939D02*
X54252080Y-114273875D01*
X364116629Y-200211726D02*
X364141376Y-200184967D01*
X179891522Y-127778431D02*
X179883986Y-127814091D01*
X182095252Y-212957358D02*
X182121358Y-212982792D01*
X352769652Y-112111959D02*
X352912131Y-112210960D01*
X40729246Y-200168691D02*
X40753525Y-200195876D01*
X183840100Y-212540858D02*
X183850699Y-212505986D01*
X182295027Y-211321190D02*
X182264227Y-211340677D01*
X225572198Y-126930461D02*
X225541063Y-126911512D01*
X179962216Y-127571893D02*
X179947469Y-127605224D01*
X181140932Y-126987963D02*
X181105208Y-126980736D01*
X364385541Y-199702665D02*
X364392458Y-199666880D01*
X363114446Y-198464240D02*
X363079147Y-198473316D01*
X181958510Y-211649058D02*
X181939291Y-211680027D01*
X180032487Y-128582413D02*
X180052769Y-128612696D01*
X351021687Y-111374917D02*
X351190791Y-111413713D01*
X54707706Y-115068341D02*
X54704547Y-115032031D01*
X181875115Y-127588494D02*
X181859791Y-127555425D01*
X362321020Y-199322190D02*
X362315975Y-199358287D01*
X54687542Y-114924063D02*
X54679388Y-114888539D01*
X181902274Y-128370565D02*
X181914077Y-128336081D01*
X183850699Y-212505986D02*
X183860082Y-212470767D01*
X40888226Y-200318295D02*
X40917600Y-200339871D01*
X350569491Y-113925274D02*
X350533898Y-113933120D01*
X181807069Y-128567012D02*
X181825748Y-128535714D01*
X183801138Y-211793272D02*
X183785814Y-211760202D01*
X182740845Y-213263343D02*
X182777182Y-213266187D01*
X224107384Y-212163475D02*
X224108649Y-212199900D01*
X54290957Y-111291690D02*
X54463625Y-111282715D01*
X223941227Y-211649058D02*
X223960445Y-211680027D01*
X223853969Y-211532400D02*
X223877290Y-211560411D01*
X54190488Y-116047455D02*
X54221622Y-116028506D01*
X42568720Y-199373817D02*
X42564303Y-199337638D01*
X182492294Y-211227693D02*
X182458129Y-211240390D01*
X39987262Y-202694749D02*
X39842899Y-202603519D01*
X40778732Y-198743734D02*
X40753525Y-198770060D01*
X54252080Y-114273875D02*
X54221622Y-114253857D01*
X350006802Y-114241518D02*
X349982524Y-114268703D01*
X182813595Y-211168480D02*
X182777182Y-211170061D01*
X53560152Y-116186401D02*
X53596488Y-116189245D01*
X351821997Y-114845276D02*
X351817580Y-114809097D01*
X364141376Y-200184967D02*
X364165178Y-200157366D01*
X362843791Y-200400887D02*
X362875870Y-200418190D01*
X183137543Y-213225358D02*
X183172322Y-213214457D01*
X349773064Y-115259770D02*
X349784267Y-115294454D01*
X362941731Y-200449406D02*
X362975434Y-200463280D01*
X54126341Y-114200306D02*
X54093405Y-114184696D01*
X181069255Y-129051940D02*
X181105208Y-129045958D01*
X225883221Y-128402081D02*
X225902974Y-128371451D01*
X53921713Y-116158103D02*
X53956850Y-116148415D01*
X350713939Y-113906363D02*
X350677602Y-113909207D01*
X354933437Y-115529365D02*
X367297690Y-198425020D01*
X224662176Y-128808216D02*
X224696760Y-128819720D01*
X364377387Y-199232904D02*
X364368005Y-199197685D01*
X180532106Y-128991081D02*
X180566271Y-129003778D01*
X225272289Y-128834707D02*
X225307425Y-128825020D01*
X183769352Y-211727684D02*
X183751771Y-211695757D01*
X222727414Y-211221792D02*
X222762193Y-211210890D01*
X40888226Y-198647641D02*
X40859617Y-198670224D01*
X351339073Y-114067102D02*
X351307938Y-114048153D01*
X52629315Y-114941925D02*
X52623021Y-114977825D01*
X362405544Y-199927000D02*
X362421440Y-199959799D01*
X53850537Y-116173792D02*
X53886261Y-116166565D01*
X49899840Y-114679495D02*
X49957999Y-114516669D01*
X40556971Y-199891091D02*
X40571718Y-199924422D01*
X105779880Y-111352203D02*
X196597429Y-127396257D01*
X350085088Y-114165245D02*
X350058115Y-114189758D01*
X350507731Y-111294024D02*
X350679951Y-111315036D01*
X52914559Y-114401948D02*
X52889352Y-114428273D01*
X225769206Y-127091605D02*
X225743546Y-127065722D01*
X40683592Y-198854058D02*
X40662271Y-198883619D01*
X54704547Y-115250332D02*
X54707706Y-115214022D01*
X181810009Y-212417380D02*
X181817545Y-212453040D01*
X226038118Y-128034904D02*
X226045035Y-127999119D01*
X53669348Y-114091221D02*
X53632902Y-114091537D01*
X364385541Y-199268427D02*
X364377387Y-199232904D01*
X42022888Y-198558836D02*
X41990514Y-198542092D01*
X41175773Y-198492537D02*
X41141609Y-198505234D01*
X225883221Y-127233490D02*
X225862416Y-127203564D01*
X223267002Y-213247277D02*
X223231158Y-213253882D01*
X53596488Y-116189245D02*
X53632902Y-116190826D01*
X181954800Y-128158676D02*
X181959217Y-128122498D01*
X54366427Y-114364140D02*
X54339033Y-114340098D01*
X39842899Y-202603519D02*
X39701735Y-202507412D01*
X225307425Y-126810552D02*
X225272289Y-126800864D01*
X363221935Y-200526662D02*
X363258151Y-200530765D01*
X223968552Y-127945045D02*
X223973596Y-127981142D01*
X40859617Y-198670224D02*
X40831810Y-198693786D01*
X181958510Y-212787190D02*
X181978792Y-212817473D01*
X182668578Y-211182366D02*
X182632734Y-211188972D01*
X181859791Y-128471269D02*
X181875115Y-128438199D01*
X351650096Y-115538722D02*
X351669849Y-115508091D01*
X54634611Y-115532452D02*
X54647604Y-115498399D01*
X223987427Y-127582870D02*
X223979891Y-127618530D01*
X222207202Y-211603902D02*
X222229033Y-211574716D01*
X225509290Y-126893654D02*
X225476916Y-126876910D01*
X41210358Y-198481033D02*
X41175773Y-198492537D01*
X224464910Y-126920851D02*
X224434109Y-126940338D01*
X181476293Y-128900672D02*
X181506751Y-128880653D01*
X364398128Y-199340217D02*
X364392458Y-199304213D01*
X223665616Y-213075028D02*
X223635510Y-213095572D01*
X351399276Y-115800669D02*
X351428271Y-115778586D01*
X183432774Y-213085430D02*
X183462518Y-213064367D01*
X222832781Y-211192740D02*
X222868505Y-211185513D01*
X182668578Y-213253882D02*
X182704629Y-213259240D01*
X41424325Y-200528187D02*
X41460661Y-200531031D01*
X222592702Y-211277249D02*
X222625638Y-211261639D01*
X183462518Y-213064367D02*
X183491514Y-213042284D01*
X40917600Y-198626064D02*
X40888226Y-198647641D01*
X362875870Y-198552902D02*
X362843791Y-198570206D01*
X351074300Y-115961660D02*
X351109079Y-115950759D01*
X182995278Y-213256718D02*
X183031231Y-213250735D01*
X53814584Y-116179775D02*
X53850537Y-116173792D01*
X222727414Y-213214457D02*
X222693034Y-213202355D01*
X223987427Y-128052702D02*
X223996197Y-128088078D01*
X183801138Y-212642977D02*
X183815304Y-212609395D01*
X52780055Y-111637257D02*
X52941678Y-111575834D01*
X183573663Y-211466060D02*
X183547120Y-211441082D01*
X224874512Y-126776670D02*
X224838460Y-126782027D01*
X362334851Y-199720462D02*
X362343620Y-199755839D01*
X180400463Y-128928687D02*
X180432542Y-128945991D01*
X183240641Y-211247181D02*
X183206702Y-211233893D01*
X180566271Y-129003778D02*
X180600855Y-129015281D01*
X222084432Y-212609395D02*
X222071439Y-212575342D01*
X364303119Y-199027624D02*
X364286657Y-198995106D01*
X224662176Y-126827355D02*
X224628011Y-126840051D01*
X52611659Y-115195831D02*
X52614187Y-115232191D01*
X40804837Y-200247636D02*
X40831810Y-200272149D01*
X180851159Y-126965284D02*
X180814822Y-126968128D01*
X182000113Y-211589214D02*
X181978792Y-211618775D01*
X42452831Y-199973408D02*
X42469293Y-199940890D01*
X351483877Y-114177385D02*
X351456483Y-114153343D01*
X183371181Y-211311850D02*
X183339408Y-211293993D01*
X54532645Y-115725477D02*
X54552399Y-115694846D01*
X182070045Y-212931032D02*
X182095252Y-212957358D01*
X183860082Y-211965482D02*
X183850699Y-211930262D01*
X180400463Y-127098006D02*
X180369005Y-127116412D01*
X362722051Y-200320873D02*
X362751426Y-200342450D01*
X351804993Y-115171545D02*
X351811910Y-115135760D01*
X223635510Y-213095572D02*
X223604709Y-213115059D01*
X224026245Y-211810001D02*
X224039827Y-211843824D01*
X42331353Y-198811148D02*
X42307550Y-198783546D01*
X181934059Y-128265989D02*
X181942213Y-128230466D01*
X179933887Y-127639046D02*
X179921487Y-127673320D01*
X351827054Y-114990869D02*
X351827686Y-114954427D01*
X351722571Y-114496504D02*
X351706109Y-114463986D01*
X225201113Y-126785175D02*
X225165160Y-126779192D01*
X182326486Y-213133465D02*
X182358564Y-213150768D01*
X182204746Y-211382797D02*
X182176138Y-211405380D01*
X181817545Y-212453040D02*
X181826315Y-212488417D01*
X362475815Y-200054612D02*
X362496097Y-200084895D01*
X222113922Y-212676046D02*
X222098599Y-212642977D01*
X182022447Y-211560411D02*
X182000113Y-211589214D01*
X222659095Y-213189067D02*
X222625638Y-213174609D01*
X180250115Y-127200603D02*
X180222308Y-127224165D01*
X180195335Y-128778015D02*
X180222308Y-128802528D01*
X52758597Y-114603084D02*
X52740465Y-114634701D01*
X41210358Y-200484902D02*
X41245321Y-200495198D01*
X42282803Y-198756788D02*
X42257143Y-198730904D01*
X42116253Y-198615661D02*
X42085795Y-198595643D01*
X53437926Y-111425576D02*
X53606476Y-111387026D01*
X363367347Y-198435586D02*
X363330900Y-198435902D01*
X350058115Y-115719095D02*
X350085088Y-115743608D01*
X224109173Y-128355883D02*
X224128392Y-128386852D01*
X363757946Y-200456489D02*
X363791404Y-200442032D01*
X364357405Y-199808280D02*
X364368005Y-199773408D01*
X362390797Y-199077423D02*
X362377215Y-199111246D01*
X223973596Y-127654429D02*
X223968552Y-127690526D01*
X180706711Y-126984194D02*
X180671118Y-126992040D01*
X362327314Y-199286290D02*
X362321020Y-199322190D01*
X51316338Y-112541492D02*
X51447572Y-112428920D01*
X183066955Y-213243508D02*
X183102406Y-213235046D01*
X53850537Y-114108571D02*
X53814584Y-114102588D01*
X224052226Y-212558151D02*
X224039827Y-212592425D01*
X224346020Y-128630529D02*
X224374628Y-128653113D01*
X42022888Y-200407099D02*
X42054661Y-200389242D01*
X354674213Y-114523059D02*
X354731888Y-114686689D01*
X225602656Y-126950479D02*
X225572198Y-126930461D01*
X181721850Y-128685166D02*
X181744681Y-128656755D01*
X224767023Y-126796479D02*
X224731724Y-126805555D01*
X183066955Y-211192740D02*
X183031231Y-211185513D01*
X181794881Y-212309133D02*
X181798669Y-212345383D01*
X40501025Y-199248052D02*
X40493488Y-199283712D01*
X224265134Y-128557019D02*
X224291240Y-128582454D01*
X222147966Y-212740491D02*
X222130385Y-212708564D01*
X183206702Y-211233893D02*
X183172322Y-211221792D01*
X222466963Y-213085430D02*
X222437218Y-213064367D01*
X180778607Y-129054463D02*
X180814822Y-129058566D01*
X222024584Y-212399458D02*
X222018913Y-212363454D01*
X52967637Y-115930363D02*
X52995444Y-115953925D01*
X52914559Y-115880415D02*
X52940664Y-115905849D01*
X54605120Y-115599104D02*
X54620444Y-115566034D01*
X183785814Y-212676046D02*
X183801138Y-212642977D01*
X226058282Y-127890626D02*
X226060179Y-127854228D01*
X222186397Y-211633829D02*
X222207202Y-211603902D01*
X180600855Y-127011413D02*
X180566271Y-127022916D01*
X225476916Y-126876910D02*
X225443981Y-126861300D01*
X41280620Y-198461661D02*
X41245321Y-198470737D01*
X183519726Y-211417041D02*
X183491514Y-211393965D01*
X351752061Y-114563156D02*
X351737895Y-114529574D01*
X52692798Y-114733058D02*
X52679216Y-114766881D01*
X40593291Y-203008863D02*
X40437848Y-202938145D01*
X182295027Y-213115059D02*
X182326486Y-213133465D01*
X53778445Y-116184506D02*
X53814584Y-116179775D01*
X352168019Y-111767089D02*
X352322826Y-111845423D01*
X363888487Y-198579272D02*
X363856713Y-198561415D01*
X225862416Y-127203564D02*
X225840586Y-127174377D01*
X350429051Y-113963996D02*
X350394886Y-113976692D01*
X351456483Y-114153343D02*
X351428271Y-114130267D01*
X362377215Y-199111246D02*
X362364815Y-199145519D01*
X222797330Y-211201203D02*
X222832781Y-211192740D01*
X224026245Y-212626247D02*
X224011497Y-212659578D01*
X180465201Y-128962170D02*
X180498403Y-128977206D01*
X222084432Y-211826853D02*
X222098599Y-211793272D01*
X183647873Y-211546305D02*
X183624070Y-211518703D01*
X180052769Y-127413998D02*
X180032487Y-127444281D01*
X366342656Y-201363835D02*
X366237625Y-201503211D01*
X223877290Y-211560411D02*
X223899624Y-211589214D01*
X181506751Y-128880653D02*
X181536496Y-128859590D01*
X224496368Y-128733126D02*
X224528447Y-128750429D01*
X181798669Y-212345383D02*
X181803714Y-212381480D01*
X54190488Y-114234907D02*
X54158714Y-114217050D01*
X49759596Y-115178666D02*
X49800580Y-115010692D01*
X181942213Y-127796228D02*
X181934059Y-127760704D01*
X52636852Y-115376097D02*
X52645621Y-115411474D01*
X52865073Y-114455458D02*
X52841753Y-114483468D01*
X41533521Y-198433007D02*
X41497075Y-198433324D01*
X223751406Y-211428943D02*
X223778378Y-211453456D01*
X42145998Y-200329210D02*
X42174994Y-200307127D01*
X42484617Y-199058115D02*
X42469293Y-199025045D01*
X49800580Y-115010692D02*
X49847346Y-114844235D01*
X225769206Y-128543966D02*
X225793952Y-128517207D01*
X209014288Y-127405062D02*
X209072478Y-127395543D01*
X364947192Y-202665109D02*
X364797601Y-202754995D01*
X351584630Y-115626246D02*
X351607461Y-115597835D01*
X41990514Y-198542092D02*
X41957578Y-198526482D01*
X362312186Y-199576555D02*
X362315975Y-199612806D01*
X54443377Y-114441760D02*
X54418630Y-114415001D01*
X351776857Y-114631692D02*
X351765054Y-114597209D01*
X222560328Y-213142255D02*
X222528555Y-213124398D01*
X364090969Y-200237610D02*
X364116629Y-200211726D01*
X350967988Y-113921816D02*
X350932035Y-113915833D01*
X362693443Y-198672802D02*
X362665636Y-198696365D01*
X223573250Y-213133465D02*
X223541172Y-213150768D01*
X181873491Y-212626247D02*
X181888239Y-212659578D01*
X181744681Y-127369938D02*
X181721850Y-127341527D01*
X363724007Y-200469777D02*
X363757946Y-200456489D01*
X351629291Y-115568649D02*
X351650096Y-115538722D01*
X224039827Y-212592425D02*
X224026245Y-212626247D01*
X223778378Y-211453456D02*
X223804484Y-211478891D01*
X224169995Y-128446696D02*
X224192329Y-128475499D01*
X39429662Y-202301022D02*
X39299070Y-202190979D01*
X181807069Y-127459682D02*
X181787316Y-127429051D01*
X363367347Y-200535507D02*
X363403782Y-200534558D01*
X224017392Y-128157813D02*
X224029792Y-128192086D01*
X52679216Y-114766881D02*
X52666816Y-114801154D01*
X180308098Y-127156443D02*
X180278723Y-127178020D01*
X223996197Y-128088078D02*
X224006189Y-128123129D01*
X363950079Y-198618240D02*
X363919621Y-198598221D01*
X38312998Y-201019823D02*
X38226809Y-200872394D01*
X362638663Y-200250214D02*
X362665636Y-200274728D01*
X351827686Y-114954427D02*
X351827054Y-114917984D01*
X181889281Y-128404618D02*
X181902274Y-128370565D01*
X222326073Y-212970188D02*
X222300413Y-212944304D01*
X40947706Y-200360415D02*
X40978507Y-200379902D01*
X40587614Y-199008715D02*
X40571718Y-199041514D01*
X365894272Y-201898180D02*
X365770867Y-202021583D01*
X180635818Y-129025577D02*
X180671118Y-129034654D01*
X363476444Y-200528871D02*
X363512583Y-200524140D01*
X363856713Y-200409678D02*
X363888487Y-200391820D01*
X223723599Y-213030868D02*
X223694990Y-213053451D01*
X41497075Y-200532612D02*
X41533521Y-200532928D01*
X225632401Y-128664028D02*
X225661396Y-128641945D01*
X363675825Y-203231188D02*
X363507254Y-203276363D01*
X223877290Y-212875837D02*
X223853969Y-212903848D01*
X362308393Y-199467322D02*
X362308393Y-199503770D01*
X53311600Y-116131612D02*
X53346185Y-116143116D01*
X54366427Y-115918223D02*
X54392970Y-115893245D01*
X52645621Y-114870889D02*
X52636852Y-114906265D01*
X52777816Y-115710247D02*
X52798098Y-115740530D01*
X38500223Y-201305424D02*
X38404171Y-201164222D01*
X40530990Y-199822995D02*
X40543389Y-199857268D01*
X223231158Y-211182366D02*
X223267002Y-211188972D01*
X364407602Y-199521988D02*
X364408234Y-199485546D01*
X351706109Y-114463986D02*
X351688528Y-114432059D01*
X223508512Y-213166947D02*
X223475311Y-213181983D01*
X49847346Y-114844235D02*
X49899840Y-114679495D01*
X37770732Y-199770415D02*
X37727526Y-199605197D01*
X40751059Y-203074232D02*
X40593291Y-203008863D01*
X363979824Y-198639303D02*
X363950079Y-198618240D01*
X222904459Y-213256718D02*
X222868505Y-213250735D01*
X104677140Y-203423025D02*
X42585773Y-203423025D01*
X42469293Y-199025045D02*
X42452831Y-198992527D01*
X351669849Y-114400762D02*
X351650096Y-114370131D01*
X41924121Y-200453911D02*
X41957578Y-200439453D01*
X181787316Y-127429051D02*
X181766511Y-127399125D01*
X222031500Y-212435243D02*
X222024584Y-212399458D01*
X350498598Y-113942196D02*
X350463635Y-113952492D01*
X225717002Y-127040744D02*
X225689608Y-127016702D01*
X181964274Y-128049789D02*
X181964906Y-128013347D01*
X182458129Y-211240390D02*
X182424426Y-211254265D01*
X54571077Y-115663549D02*
X54588658Y-115631622D01*
X225410523Y-128788729D02*
X225443981Y-128774271D01*
X40134656Y-202780997D02*
X39987262Y-202694749D01*
X362343620Y-199215253D02*
X362334851Y-199250630D01*
X52309266Y-111854506D02*
X52463659Y-111776676D01*
X363150039Y-198456394D02*
X363114446Y-198464240D01*
X42558632Y-199301634D02*
X42551716Y-199265849D01*
X40493488Y-199283712D02*
X40487194Y-199319612D01*
X181914077Y-127690613D02*
X181902274Y-127656129D01*
X40622770Y-198944870D02*
X40604638Y-198976488D01*
X299335673Y-203500703D02*
X235195727Y-214789093D01*
X182326486Y-211302784D02*
X182295027Y-211321190D01*
X181826315Y-212488417D02*
X181836307Y-212523468D01*
X226045035Y-127999119D02*
X226050705Y-127963115D01*
X208897192Y-127418936D02*
X208955842Y-127412862D01*
X362638663Y-198720878D02*
X362612558Y-198746313D01*
X364345602Y-199128329D02*
X364332610Y-199094275D01*
X182264227Y-213095572D02*
X182295027Y-213115059D01*
X179933887Y-128387647D02*
X179947469Y-128421470D01*
X52740465Y-115647661D02*
X52758597Y-115679279D01*
X179995136Y-128519827D02*
X180013268Y-128551444D01*
X224239927Y-127104878D02*
X224215649Y-127132062D01*
X179900292Y-127743054D02*
X179891522Y-127778431D01*
X223508512Y-211269301D02*
X223541172Y-211285480D01*
X350327981Y-115903250D02*
X350361183Y-115918286D01*
X226020581Y-128105647D02*
X226029964Y-128070428D01*
X351688528Y-114432059D02*
X351669849Y-114400762D01*
X180996834Y-129060146D02*
X181033116Y-129056672D01*
X364008820Y-200309706D02*
X364037032Y-200286629D01*
X181721850Y-127341527D02*
X181698047Y-127313926D01*
X40475832Y-199537617D02*
X40478360Y-199573977D01*
X41642618Y-200526292D02*
X41678757Y-200521561D01*
X362781532Y-198608099D02*
X362751426Y-198628643D01*
X53024052Y-115976508D02*
X53053427Y-115998085D01*
X53083533Y-116018629D02*
X53114334Y-116038116D01*
X354783852Y-114852222D02*
X354830040Y-115019459D01*
X54118702Y-111306631D02*
X54290957Y-111291690D01*
X351524454Y-111508783D02*
X351688611Y-111564943D01*
X54158714Y-114217050D02*
X54126341Y-114200306D01*
X41072829Y-203188622D02*
X40910967Y-203134175D01*
X225509290Y-128741917D02*
X225541063Y-128724060D01*
X224767023Y-128839092D02*
X224802616Y-128846938D01*
X183172322Y-211221792D02*
X183137543Y-211210890D01*
X181211520Y-127006113D02*
X181176384Y-126996425D01*
X225661396Y-128641945D02*
X225689608Y-128618869D01*
X38601040Y-201443263D02*
X38500223Y-201305424D01*
X52157656Y-111937628D02*
X52309266Y-111854506D01*
X180169229Y-127274113D02*
X180144022Y-127300439D01*
X50021753Y-114355950D02*
X50091025Y-114197533D01*
X41821023Y-200490202D02*
X41855802Y-200479300D01*
X223665616Y-211361221D02*
X223694990Y-211382797D01*
X41236455Y-203237510D02*
X41072829Y-203188622D01*
X226060179Y-127854228D02*
X226060811Y-127817786D01*
X350641387Y-113913311D02*
X350605335Y-113918668D01*
X362496097Y-198886197D02*
X362475815Y-198916480D01*
X223964763Y-127908795D02*
X223968552Y-127945045D01*
X222039655Y-212470767D02*
X222031500Y-212435243D01*
X225541063Y-128724060D02*
X225572198Y-128705110D01*
X223337895Y-213230354D02*
X223302596Y-213239431D01*
X364402546Y-199594697D02*
X364405705Y-199558386D01*
X223049695Y-211168164D02*
X223086141Y-211168480D01*
X350200984Y-114076979D02*
X350170878Y-114097523D01*
X224374628Y-126982459D02*
X224346020Y-127005042D01*
X38816496Y-201708214D02*
X38706505Y-201577579D01*
X41890182Y-198498737D02*
X41855802Y-198486635D01*
X180814822Y-129058566D02*
X180851159Y-129061410D01*
X223853969Y-212903848D02*
X223829691Y-212931032D01*
X224215649Y-128503509D02*
X224239927Y-128530694D01*
X181105208Y-126980736D02*
X181069255Y-126974753D01*
X222130385Y-211727684D02*
X222147966Y-211695757D01*
X365236514Y-202469956D02*
X365093556Y-202570057D01*
X52758597Y-115679279D02*
X52777816Y-115710247D01*
X40604638Y-199989448D02*
X40622770Y-200021065D01*
X37873938Y-200095944D02*
X37819555Y-199934061D01*
X367248984Y-199120865D02*
X367221673Y-199293234D01*
X181964906Y-128013347D02*
X181964274Y-127976905D01*
X180169229Y-128752580D02*
X180195335Y-128778015D01*
X41957578Y-200439453D02*
X41990514Y-200423843D01*
X42396818Y-198898672D02*
X42376014Y-198868746D01*
X181621097Y-127236305D02*
X181593703Y-127212264D01*
X362321020Y-199648902D02*
X362327314Y-199684802D01*
X224318213Y-127028604D02*
X224291240Y-127053117D01*
X350750352Y-116004071D02*
X350786798Y-116004387D01*
X53243732Y-114177322D02*
X53210531Y-114192358D01*
X364090969Y-198733482D02*
X364064426Y-198708504D01*
X222009440Y-212181682D02*
X222011337Y-212145284D01*
X196712749Y-127413181D02*
X196770731Y-127419115D01*
X351737895Y-114529574D02*
X351722571Y-114496504D01*
X349840891Y-115428679D02*
X349857916Y-115460907D01*
X183713339Y-212802420D02*
X183733092Y-212771789D01*
X223962234Y-127763136D02*
X223960969Y-127799562D01*
X54392970Y-114389117D02*
X54366427Y-114364140D01*
X350677602Y-115999646D02*
X350713939Y-116002490D01*
X41141609Y-198505234D02*
X41107905Y-198519108D01*
X351629291Y-114340205D02*
X351607461Y-114311018D01*
X182632734Y-213247277D02*
X182668578Y-213253882D01*
X222251863Y-211546305D02*
X222275666Y-211518703D01*
X225998179Y-128175003D02*
X226009982Y-128140520D01*
X181914077Y-128336081D02*
X181924676Y-128301209D01*
X353911743Y-113167575D02*
X354016908Y-113305566D01*
X223978578Y-211711644D02*
X223995602Y-211743871D01*
X179872647Y-127886088D02*
X179868858Y-127922338D01*
X366127793Y-201638836D02*
X366013296Y-201770546D01*
X53523936Y-116182297D02*
X53560152Y-116186401D01*
X298864892Y-111343665D02*
X299009138Y-111320268D01*
X180498403Y-128977206D02*
X180532106Y-128991081D01*
X352474822Y-111929080D02*
X352623823Y-112017961D01*
X224594308Y-126853926D02*
X224561106Y-126868962D01*
X362456596Y-198947449D02*
X362438464Y-198979066D01*
X183815304Y-212609395D02*
X183828297Y-212575342D01*
X364644963Y-202839605D02*
X364489466Y-202918838D01*
X181381011Y-128954222D02*
X181413385Y-128937478D01*
X224561106Y-126868962D02*
X224528447Y-126885142D01*
X181826315Y-211947831D02*
X181817545Y-211983208D01*
X225632401Y-126971543D02*
X225602656Y-126950479D01*
X42203206Y-200284051D02*
X42230600Y-200260009D01*
X40519787Y-199788312D02*
X40530990Y-199822995D01*
X54310821Y-115965341D02*
X54339033Y-115942265D01*
X42564303Y-199628297D02*
X42568720Y-199592118D01*
X222166644Y-212771789D02*
X222147966Y-212740491D01*
X349773064Y-114649083D02*
X349763072Y-114684134D01*
X223302596Y-211196817D02*
X223337895Y-211205894D01*
X41569956Y-198433956D02*
X41533521Y-198433007D01*
X54339033Y-115942265D02*
X54366427Y-115918223D01*
X54252080Y-116008488D02*
X54281825Y-115987424D01*
X180924018Y-129063307D02*
X180960454Y-129062359D01*
X41569956Y-200531979D02*
X41606336Y-200529767D01*
X53487884Y-116176940D02*
X53523936Y-116182297D01*
X350569491Y-115983579D02*
X350605335Y-115990185D01*
X223979891Y-128017042D02*
X223987427Y-128052702D01*
X39172311Y-202076541D02*
X39049535Y-201957841D01*
X180195335Y-127248679D02*
X180169229Y-127274113D01*
X349740471Y-115117783D02*
X349746766Y-115153683D01*
X53270811Y-111469930D02*
X53437926Y-111425576D01*
X363044184Y-200487480D02*
X363079147Y-200497776D01*
X53177871Y-116073825D02*
X53210531Y-116090005D01*
X362343620Y-199755839D02*
X362353613Y-199790890D01*
X40910967Y-203134175D02*
X40751059Y-203074232D01*
X224128392Y-127248720D02*
X224109173Y-127279688D01*
X222976879Y-213264923D02*
X222940598Y-213261449D01*
X224496368Y-126902445D02*
X224464910Y-126920851D01*
X42354183Y-200126376D02*
X42376014Y-200097190D01*
X364250398Y-198931881D02*
X364230644Y-198901251D01*
X181902274Y-127656129D02*
X181889281Y-127622076D01*
X50331095Y-113737961D02*
X50421549Y-113590608D01*
X364188009Y-200128955D02*
X364209840Y-200099768D01*
X42573776Y-199446526D02*
X42571879Y-199410127D01*
X181847510Y-211878097D02*
X181836307Y-211912780D01*
X350859614Y-116001225D02*
X350895896Y-115997751D01*
X363791404Y-200442032D02*
X363824339Y-200426421D01*
X367188363Y-199464546D02*
X367149096Y-199634590D01*
X351143459Y-113970196D02*
X351109079Y-113958094D01*
M02*
