G04 #@! TF.GenerationSoftware,KiCad,Pcbnew,(6.0.6-69-g6d26e8e3e8)*
G04 #@! TF.CreationDate,2022-07-20T16:26:27-04:00*
G04 #@! TF.ProjectId,bottom,626f7474-6f6d-42e6-9b69-6361645f7063,rev?*
G04 #@! TF.SameCoordinates,Original*
G04 #@! TF.FileFunction,Legend,Top*
G04 #@! TF.FilePolarity,Positive*
%FSLAX46Y46*%
G04 Gerber Fmt 4.6, Leading zero omitted, Abs format (unit mm)*
G04 Created by KiCad (PCBNEW (6.0.6-69-g6d26e8e3e8)) date 2022-07-20 16:26:27*
%MOMM*%
%LPD*%
G01*
G04 APERTURE LIST*
%ADD10C,0.300000*%
G04 APERTURE END LIST*
D10*
X197271428Y-160528571D02*
X197271428Y-161600000D01*
X197200000Y-161814285D01*
X197057142Y-161957142D01*
X196842857Y-162028571D01*
X196700000Y-162028571D01*
X198700000Y-162028571D02*
X197985714Y-162028571D01*
X197985714Y-160528571D01*
X200057142Y-161885714D02*
X199985714Y-161957142D01*
X199771428Y-162028571D01*
X199628571Y-162028571D01*
X199414285Y-161957142D01*
X199271428Y-161814285D01*
X199200000Y-161671428D01*
X199128571Y-161385714D01*
X199128571Y-161171428D01*
X199200000Y-160885714D01*
X199271428Y-160742857D01*
X199414285Y-160600000D01*
X199628571Y-160528571D01*
X199771428Y-160528571D01*
X199985714Y-160600000D01*
X200057142Y-160671428D01*
X201128571Y-160528571D02*
X201128571Y-161600000D01*
X201057142Y-161814285D01*
X200914285Y-161957142D01*
X200700000Y-162028571D01*
X200557142Y-162028571D01*
X202557142Y-162028571D02*
X201842857Y-162028571D01*
X201842857Y-160528571D01*
X203914285Y-161885714D02*
X203842857Y-161957142D01*
X203628571Y-162028571D01*
X203485714Y-162028571D01*
X203271428Y-161957142D01*
X203128571Y-161814285D01*
X203057142Y-161671428D01*
X202985714Y-161385714D01*
X202985714Y-161171428D01*
X203057142Y-160885714D01*
X203128571Y-160742857D01*
X203271428Y-160600000D01*
X203485714Y-160528571D01*
X203628571Y-160528571D01*
X203842857Y-160600000D01*
X203914285Y-160671428D01*
X204985714Y-160528571D02*
X204985714Y-161600000D01*
X204914285Y-161814285D01*
X204771428Y-161957142D01*
X204557142Y-162028571D01*
X204414285Y-162028571D01*
X206414285Y-162028571D02*
X205700000Y-162028571D01*
X205700000Y-160528571D01*
X207771428Y-161885714D02*
X207700000Y-161957142D01*
X207485714Y-162028571D01*
X207342857Y-162028571D01*
X207128571Y-161957142D01*
X206985714Y-161814285D01*
X206914285Y-161671428D01*
X206842857Y-161385714D01*
X206842857Y-161171428D01*
X206914285Y-160885714D01*
X206985714Y-160742857D01*
X207128571Y-160600000D01*
X207342857Y-160528571D01*
X207485714Y-160528571D01*
X207700000Y-160600000D01*
X207771428Y-160671428D01*
X208842857Y-160528571D02*
X208842857Y-161600000D01*
X208771428Y-161814285D01*
X208628571Y-161957142D01*
X208414285Y-162028571D01*
X208271428Y-162028571D01*
X210271428Y-162028571D02*
X209557142Y-162028571D01*
X209557142Y-160528571D01*
X211628571Y-161885714D02*
X211557142Y-161957142D01*
X211342857Y-162028571D01*
X211200000Y-162028571D01*
X210985714Y-161957142D01*
X210842857Y-161814285D01*
X210771428Y-161671428D01*
X210700000Y-161385714D01*
X210700000Y-161171428D01*
X210771428Y-160885714D01*
X210842857Y-160742857D01*
X210985714Y-160600000D01*
X211200000Y-160528571D01*
X211342857Y-160528571D01*
X211557142Y-160600000D01*
X211628571Y-160671428D01*
%LPC*%
M02*
