  0
SECTION
  2
HEADER
  9
$ANGBASE
  50
0.0
  9
$ANGDIR
  70
1
  9
$MEASUREMENT
  70
1
  0
ENDSEC
  0
SECTION
  2
TABLES
  0
TABLE
  2
LTYPE
  70
4
  0
LTYPE
  5
40F
  2
CONTINUOUS
  70
0
  3
Solid line
  72
65
  73
0
  40
0.0
  0
LTYPE
  5
410
  2
DASHDOT
 70
0
  3
Dash Dot ____ _ ____ _
 72
65
 73
4
 40
2.0
 49
1.25
 49
-0.25
 49
0.25
 49
-0.25
  0
LTYPE
  5
411
  2
DASHED
 70
0
  3
Dashed __ __ __ __ __
 72
65
 73
2
 40
0.75
 49
0.5
 49
-0.25
  0
LTYPE
  5
43B
  2
DOTTED
 70
0
  3
Dotted .  .  .  .
 72
65
 73
2
 40
0.2
 49
0.0
 49
-0.2
  0
ENDTAB
  0
TABLE
  2
STYLE
  70
4
  0
STYLE
  2
KICAD
  70
0
  40
0
  41
1
  42
1
  50
0
  71
0
  3
isocp.shx
  0
STYLE
  2
KICADB
  70
0
  40
0
  41
1
  42
1
  50
0
  71
0
  3
isocp.shx
  0
STYLE
  2
KICADI
  70
0
  40
0
  41
1
  42
1
  50
15
  71
0
  3
isocp.shx
  0
STYLE
  2
KICADBI
  70
0
  40
0
  41
1
  42
1
  50
15
  71
0
  3
isocp.shx
  0
ENDTAB
  0
TABLE
  2
LAYER
  70
1
  0
LAYER
  2
BLACK
  70
0
  62
7
  6
CONTINUOUS
  0
ENDTAB
  0
ENDSEC
  0
SECTION
  2
ENTITIES
0
LINE
8
BLACK
6
CONTINUOUS
10
40.557
20
-199.075
11
40.5434
21
-199.109
0
LINE
8
BLACK
6
CONTINUOUS
10
39.0495
20
-201.958
11
38.9309
21
-201.835
0
LINE
8
BLACK
6
CONTINUOUS
10
354.732
20
-114.687
11
354.784
21
-114.852
0
LINE
8
BLACK
6
CONTINUOUS
10
183.693
20
-211.604
11
183.671
21
-211.575
0
LINE
8
BLACK
6
CONTINUOUS
10
350.605
20
-113.919
11
350.569
21
-113.925
0
LINE
8
BLACK
6
CONTINUOUS
10
351.211
20
-113.998
11
351.177
21
-113.983
0
LINE
8
BLACK
6
CONTINUOUS
10
362.406
20
-199.044
11
362.391
21
-199.077
0
LINE
8
BLACK
6
CONTINUOUS
10
182.458
20
-213.196
11
182.492
21
-213.209
0
LINE
8
BLACK
6
CONTINUOUS
10
225.411
20
-126.847
11
225.377
21
-126.834
0
LINE
8
BLACK
6
CONTINUOUS
10
40.4746
20
-199.465
11
40.4746
21
-199.501
0
LINE
8
BLACK
6
CONTINUOUS
10
224.03
20
-128.192
11
224.043
21
-128.226
0
LINE
8
BLACK
6
CONTINUOUS
10
40.8596
20
-200.296
11
40.8882
21
-200.318
0
LINE
8
BLACK
6
CONTINUOUS
10
364.287
20
-198.995
11
364.269
21
-198.963
0
LINE
8
BLACK
6
CONTINUOUS
10
41.1079
20
-198.519
11
41.0747
21
-198.534
0
LINE
8
BLACK
6
CONTINUOUS
10
362.354
20
-199.791
11
362.365
21
-199.826
0
LINE
8
BLACK
6
CONTINUOUS
10
363.513
20
-198.447
11
363.476
21
-198.442
0
LINE
8
BLACK
6
CONTINUOUS
10
179.9
20
-128.284
11
179.91
21
-128.319
0
LINE
8
BLACK
6
CONTINUOUS
10
362.975
20
-200.463
11
363.01
21
-200.476
0
LINE
8
BLACK
6
CONTINUOUS
10
180.743
20
-129.049
11
180.779
21
-129.054
0
LINE
8
BLACK
6
CONTINUOUS
10
363.044
20
-198.484
11
363.01
21
-198.495
0
LINE
8
BLACK
6
CONTINUOUS
10
222.467
20
-211.351
11
222.497
21
-211.331
0
LINE
8
BLACK
6
CONTINUOUS
10
224.006
20
-128.123
11
224.017
21
-128.158
0
LINE
8
BLACK
6
CONTINUOUS
10
363.404
20
-198.437
11
363.367
21
-198.436
0
LINE
8
BLACK
6
CONTINUOUS
10
52.6293
20
-115.34
11
52.6369
21
-115.376
0
LINE
8
BLACK
6
CONTINUOUS
10
53.9916
20
-114.145
11
53.9568
21
-114.134
0
LINE
8
BLACK
6
CONTINUOUS
10
225.02
20
-128.868
11
225.056
21
-128.867
0
LINE
8
BLACK
6
CONTINUOUS
10
105.491
20
-111.31
11
105.636
21
-111.329
0
LINE
8
BLACK
6
CONTINUOUS
10
225.129
20
-128.861
11
225.165
21
-128.856
0
LINE
8
BLACK
6
CONTINUOUS
10
351.039
20
-115.971
11
351.074
21
-115.962
0
LINE
8
BLACK
6
CONTINUOUS
10
53.0534
20
-114.284
11
53.0241
21
-114.306
0
LINE
8
BLACK
6
CONTINUOUS
10
37.7275
20
-199.605
11
37.69
21
-199.439
0
LINE
8
BLACK
6
CONTINUOUS
10
53.9568
20
-114.134
11
53.9217
21
-114.124
0
LINE
8
BLACK
6
CONTINUOUS
10
350.007
20
-115.667
11
350.032
21
-115.694
0
LINE
8
BLACK
6
CONTINUOUS
10
181.698
20
-127.314
11
181.673
21
-127.287
0
LINE
8
BLACK
6
CONTINUOUS
10
223.962
20
-127.872
11
223.965
21
-127.909
0
LINE
8
BLACK
6
CONTINUOUS
10
362.354
20
-199.18
11
362.344
21
-199.215
0
LINE
8
BLACK
6
CONTINUOUS
10
53.5602
20
-114.096
11
53.5239
21
-114.1
0
LINE
8
BLACK
6
CONTINUOUS
10
224.073
20
-212.488
11
224.063
21
-212.523
0
LINE
8
BLACK
6
CONTINUOUS
10
181.799
20
-212.091
11
181.795
21
-212.127
0
LINE
8
BLACK
6
CONTINUOUS
10
180.369
20
-128.91
11
180.4
21
-128.929
0
LINE
8
BLACK
6
CONTINUOUS
10
41.3162
20
-200.512
11
41.3521
21
-200.519
0
LINE
8
BLACK
6
CONTINUOUS
10
53.0835
20
-114.264
11
53.0534
21
-114.284
0
LINE
8
BLACK
6
CONTINUOUS
10
349.728
20
-114.973
11
349.729
21
-115.009
0
LINE
8
BLACK
6
CONTINUOUS
10
180.601
20
-129.015
11
180.636
21
-129.026
0
LINE
8
BLACK
6
CONTINUOUS
10
362.476
20
-198.916
11
362.457
21
-198.947
0
LINE
8
BLACK
6
CONTINUOUS
10
53.1458
20
-114.226
11
53.1143
21
-114.244
0
LINE
8
BLACK
6
CONTINUOUS
10
226.055
20
-127.709
11
226.051
21
-127.672
0
LINE
8
BLACK
6
CONTINUOUS
10
180.279
20
-127.178
11
180.25
21
-127.201
0
LINE
8
BLACK
6
CONTINUOUS
10
40.5434
20
-199.109
11
40.531
21
-199.143
0
LINE
8
BLACK
6
CONTINUOUS
10
225.541
20
-126.912
11
225.509
21
-126.894
0
LINE
8
BLACK
6
CONTINUOUS
10
363.584
20
-200.511
11
363.62
21
-200.502
0
LINE
8
BLACK
6
CONTINUOUS
10
351.689
20
-111.565
11
351.851
21
-111.627
0
LINE
8
BLACK
6
CONTINUOUS
10
362.335
20
-199.251
11
362.327
21
-199.286
0
LINE
8
BLACK
6
CONTINUOUS
10
351.787
20
-115.242
11
351.797
21
-115.207
0
LINE
8
BLACK
6
CONTINUOUS
10
351.536
20
-115.681
11
351.561
21
-115.654
0
LINE
8
BLACK
6
CONTINUOUS
10
364.357
20
-199.163
11
364.346
21
-199.128
0
LINE
8
BLACK
6
CONTINUOUS
10
41.9576
20
-198.526
11
41.9241
21
-198.512
0
LINE
8
BLACK
6
CONTINUOUS
10
362.377
20
-199.86
11
362.391
21
-199.894
0
LINE
8
BLACK
6
CONTINUOUS
10
181.648
20
-128.765
11
181.673
21
-128.74
0
LINE
8
BLACK
6
CONTINUOUS
10
180.222
20
-128.803
11
180.25
21
-128.826
0
LINE
8
BLACK
6
CONTINUOUS
10
182.886
20
-211.169
11
182.85
21
-211.168
0
LINE
8
BLACK
6
CONTINUOUS
10
223.05
20
-213.268
11
223.013
21
-213.267
0
LINE
8
BLACK
6
CONTINUOUS
10
182.07
20
-211.505
11
182.046
21
-211.532
0
LINE
8
BLACK
6
CONTINUOUS
10
181.033
20
-126.97
11
180.997
21
-126.967
0
LINE
8
BLACK
6
CONTINUOUS
10
52.7234
20
-115.615
11
52.7405
21
-115.648
0
LINE
8
BLACK
6
CONTINUOUS
10
350.201
20
-115.832
11
350.232
21
-115.851
0
LINE
8
BLACK
6
CONTINUOUS
10
362.54
20
-198.828
11
362.517
21
-198.857
0
LINE
8
BLACK
6
CONTINUOUS
10
41.4607
20
-200.531
11
41.4971
21
-200.533
0
LINE
8
BLACK
6
CONTINUOUS
10
181.413
20
-128.937
11
181.445
21
-128.92
0
LINE
8
BLACK
6
CONTINUOUS
10
53.2774
20
-114.163
11
53.2437
21
-114.177
0
LINE
8
BLACK
6
CONTINUOUS
10
354.213
20
-113.592
11
354.303
21
-113.74
0
LINE
8
BLACK
6
CONTINUOUS
10
222.56
20
-211.294
11
222.593
21
-211.277
0
LINE
8
BLACK
6
CONTINUOUS
10
222.869
20
-211.186
11
222.904
21
-211.18
0
LINE
8
BLACK
6
CONTINUOUS
10
182.022
20
-212.876
11
182.046
21
-212.904
0
LINE
8
BLACK
6
CONTINUOUS
10
53.7058
20
-114.092
11
53.6693
21
-114.091
0
LINE
8
BLACK
6
CONTINUOUS
10
181.875
20
-128.438
11
181.889
21
-128.405
0
LINE
8
BLACK
6
CONTINUOUS
10
38.1457
20
-200.722
11
38.0698
21
-200.569
0
LINE
8
BLACK
6
CONTINUOUS
10
182.85
20
-211.168
11
182.814
21
-211.168
0
LINE
8
BLACK
6
CONTINUOUS
10
350.113
20
-114.142
11
350.085
21
-114.165
0
LINE
8
BLACK
6
CONTINUOUS
10
363.331
20
-198.436
11
363.294
21
-198.437
0
LINE
8
BLACK
6
CONTINUOUS
10
351.428
20
-115.779
11
351.456
21
-115.756
0
LINE
8
BLACK
6
CONTINUOUS
10
183.648
20
-212.89
11
183.671
21
-212.862
0
LINE
8
BLACK
6
CONTINUOUS
10
208.779
20
-127.426
11
208.838
21
-127.423
0
LINE
8
BLACK
6
CONTINUOUS
10
41.3162
20
-198.454
11
41.2806
21
-198.462
0
LINE
8
BLACK
6
CONTINUOUS
10
181.648
20
-127.261
11
181.621
21
-127.236
0
LINE
8
BLACK
6
CONTINUOUS
10
362.613
20
-198.746
11
362.587
21
-198.773
0
LINE
8
BLACK
6
CONTINUOUS
10
181.767
20
-127.399
11
181.745
21
-127.37
0
LINE
8
BLACK
6
CONTINUOUS
10
222.797
20
-213.235
11
222.762
21
-213.225
0
LINE
8
BLACK
6
CONTINUOUS
10
54.026
20
-114.157
11
53.9916
21
-114.145
0
LINE
8
BLACK
6
CONTINUOUS
10
224.24
20
-128.531
11
224.265
21
-128.557
0
LINE
8
BLACK
6
CONTINUOUS
10
224.628
20
-128.796
11
224.662
21
-128.808
0
LINE
8
BLACK
6
CONTINUOUS
10
41.1416
20
-200.461
11
41.1758
21
-200.473
0
LINE
8
BLACK
6
CONTINUOUS
10
52.623
20
-115.305
11
52.6293
21
-115.34
0
LINE
8
BLACK
6
CONTINUOUS
10
225.056
20
-128.867
11
225.093
21
-128.865
0
LINE
8
BLACK
6
CONTINUOUS
10
224.561
20
-128.767
11
224.594
21
-128.782
0
LINE
8
BLACK
6
CONTINUOUS
10
181.939
20
-212.756
11
181.959
21
-212.787
0
LINE
8
BLACK
6
CONTINUOUS
10
54.2818
20
-115.987
11
54.3108
21
-115.965
0
LINE
8
BLACK
6
CONTINUOUS
10
364.009
20
-198.661
11
363.98
21
-198.639
0
LINE
8
BLACK
6
CONTINUOUS
10
40.7787
20
-200.222
11
40.8048
21
-200.248
0
LINE
8
BLACK
6
CONTINUOUS
10
52.6556
20
-115.447
11
52.6668
21
-115.481
0
LINE
8
BLACK
6
CONTINUOUS
10
181.925
20
-128.301
11
181.934
21
-128.266
0
LINE
8
BLACK
6
CONTINUOUS
10
350.932
20
-113.916
11
350.896
21
-113.911
0
LINE
8
BLACK
6
CONTINUOUS
10
222.207
20
-212.832
11
222.186
21
-212.802
0
LINE
8
BLACK
6
CONTINUOUS
10
222.099
20
-212.643
11
222.084
21
-212.609
0
LINE
8
BLACK
6
CONTINUOUS
10
37.8196
20
-199.934
11
37.7707
21
-199.77
0
LINE
8
BLACK
6
CONTINUOUS
10
180.779
20
-126.972
11
180.743
21
-126.978
0
LINE
8
BLACK
6
CONTINUOUS
10
53.9916
20
-116.138
11
54.026
21
-116.125
0
LINE
8
BLACK
6
CONTINUOUS
10
41.6426
20
-198.44
11
41.6063
21
-198.436
0
LINE
8
BLACK
6
CONTINUOUS
10
224.838
20
-126.782
11
224.803
21
-126.789
0
LINE
8
BLACK
6
CONTINUOUS
10
182.923
20
-213.265
11
182.959
21
-213.261
0
LINE
8
BLACK
6
CONTINUOUS
10
105.636
20
-111.329
11
105.78
21
-111.352
0
LINE
8
BLACK
6
CONTINUOUS
10
181.942
20
-128.23
11
181.949
21
-128.195
0
LINE
8
BLACK
6
CONTINUOUS
10
183.463
20
-211.372
11
183.433
21
-211.351
0
LINE
8
BLACK
6
CONTINUOUS
10
181.673
20
-127.287
11
181.648
21
-127.261
0
LINE
8
BLACK
6
CONTINUOUS
10
52.623
20
-114.978
11
52.618
21
-115.014
0
LINE
8
BLACK
6
CONTINUOUS
10
223.996
20
-127.547
11
223.987
21
-127.583
0
LINE
8
BLACK
6
CONTINUOUS
10
180.707
20
-129.042
11
180.743
21
-129.049
0
LINE
8
BLACK
6
CONTINUOUS
10
181.594
20
-127.212
11
181.565
21
-127.189
0
LINE
8
BLACK
6
CONTINUOUS
10
52.4637
20
-111.777
11
52.6207
21
-111.704
0
LINE
8
BLACK
6
CONTINUOUS
10
351.738
20
-115.379
11
351.752
21
-115.346
0
LINE
8
BLACK
6
CONTINUOUS
10
53.6329
20
-114.092
11
53.5965
21
-114.093
0
LINE
8
BLACK
6
CONTINUOUS
10
224.017
20
-127.478
11
224.006
21
-127.512
0
LINE
8
BLACK
6
CONTINUOUS
10
180.013
20
-128.551
11
180.032
21
-128.582
0
LINE
8
BLACK
6
CONTINUOUS
10
350.86
20
-113.908
11
350.823
21
-113.905
0
LINE
8
BLACK
6
CONTINUOUS
10
183.868
20
-212.435
11
183.875
21
-212.399
0
LINE
8
BLACK
6
CONTINUOUS
10
181.348
20
-127.057
11
181.315
21
-127.042
0
LINE
8
BLACK
6
CONTINUOUS
10
182.391
20
-211.269
11
182.359
21
-211.285
0
LINE
8
BLACK
6
CONTINUOUS
10
351.851
20
-111.627
11
352.011
21
-111.694
0
LINE
8
BLACK
6
CONTINUOUS
10
350.395
20
-115.932
11
350.429
21
-115.945
0
LINE
8
BLACK
6
CONTINUOUS
10
181.507
20
-127.146
11
181.476
21
-127.126
0
LINE
8
BLACK
6
CONTINUOUS
10
224.465
20
-128.715
11
224.496
21
-128.733
0
LINE
8
BLACK
6
CONTINUOUS
10
54.7001
20
-115.287
11
54.7045
21
-115.25
0
LINE
8
BLACK
6
CONTINUOUS
10
222.04
20
-211.965
11
222.049
21
-211.93
0
LINE
8
BLACK
6
CONTINUOUS
10
53.452
20
-114.112
11
53.4164
21
-114.12
0
LINE
8
BLACK
6
CONTINUOUS
10
42.1163
20
-200.35
11
42.146
21
-200.329
0
LINE
8
BLACK
6
CONTINUOUS
10
179.995
20
-127.507
11
179.978
21
-127.539
0
LINE
8
BLACK
6
CONTINUOUS
10
351.211
20
-115.911
11
351.244
21
-115.895
0
LINE
8
BLACK
6
CONTINUOUS
10
54.5326
20
-114.557
11
54.5118
21
-114.527
0
LINE
8
BLACK
6
CONTINUOUS
10
181.745
20
-128.657
11
181.767
21
-128.628
0
LINE
8
BLACK
6
CONTINUOUS
10
351.818
20
-114.809
11
351.812
21
-114.773
0
LINE
8
BLACK
6
CONTINUOUS
10
41.5335
20
-200.533
11
41.57
21
-200.532
0
LINE
8
BLACK
6
CONTINUOUS
10
350.328
20
-114.006
11
350.295
21
-114.022
0
LINE
8
BLACK
6
CONTINUOUS
10
351.723
20
-115.412
11
351.738
21
-115.379
0
LINE
8
BLACK
6
CONTINUOUS
10
50.8326
20
-113.035
11
50.9471
21
-112.905
0
LINE
8
BLACK
6
CONTINUOUS
10
181.826
20
-127.491
11
181.807
21
-127.46
0
LINE
8
BLACK
6
CONTINUOUS
10
183.599
20
-212.944
11
183.624
21
-212.918
0
LINE
8
BLACK
6
CONTINUOUS
10
224.216
20
-127.132
11
224.192
21
-127.16
0
LINE
8
BLACK
6
CONTINUOUS
10
52.618
20
-115.268
11
52.623
21
-115.305
0
LINE
8
BLACK
6
CONTINUOUS
10
181.795
20
-212.127
11
181.792
21
-212.163
0
LINE
8
BLACK
6
CONTINUOUS
10
351.039
20
-113.938
11
351.004
21
-113.929
0
LINE
8
BLACK
6
CONTINUOUS
10
37.9991
20
-200.414
11
37.9338
21
-200.256
0
LINE
8
BLACK
6
CONTINUOUS
10
363.655
20
-200.493
11
363.69
21
-200.482
0
LINE
8
BLACK
6
CONTINUOUS
10
351.607
20
-114.311
11
351.585
21
-114.283
0
LINE
8
BLACK
6
CONTINUOUS
10
181.281
20
-128.998
11
181.315
21
-128.984
0
LINE
8
BLACK
6
CONTINUOUS
10
182.176
20
-213.031
11
182.205
21
-213.053
0
LINE
8
BLACK
6
CONTINUOUS
10
224.03
20
-127.443
11
224.017
21
-127.478
0
LINE
8
BLACK
6
CONTINUOUS
10
40.8318
20
-200.272
11
40.8596
21
-200.296
0
LINE
8
BLACK
6
CONTINUOUS
10
349.988
20
-111.267
11
350.162
21
-111.27
0
LINE
8
BLACK
6
CONTINUOUS
10
362.308
20
-199.504
11
362.31
21
-199.54
0
LINE
8
BLACK
6
CONTINUOUS
10
182.527
20
-213.22
11
182.562
21
-213.23
0
LINE
8
BLACK
6
CONTINUOUS
10
183.693
20
-212.832
11
183.713
21
-212.802
0
LINE
8
BLACK
6
CONTINUOUS
10
223.159
20
-213.263
11
223.123
21
-213.266
0
LINE
8
BLACK
6
CONTINUOUS
10
40.5717
20
-199.924
11
40.5876
21
-199.957
0
LINE
8
BLACK
6
CONTINUOUS
10
366.934
20
-200.298
11
366.865
21
-200.459
0
LINE
8
BLACK
6
CONTINUOUS
10
225.956
20
-127.36
11
225.939
21
-127.327
0
LINE
8
BLACK
6
CONTINUOUS
10
363.758
20
-198.515
11
363.724
21
-198.501
0
LINE
8
BLACK
6
CONTINUOUS
10
362.942
20
-198.522
11
362.909
21
-198.537
0
LINE
8
BLACK
6
CONTINUOUS
10
222.659
20
-211.247
11
222.693
21
-211.234
0
LINE
8
BLACK
6
CONTINUOUS
10
351.65
20
-114.37
11
351.629
21
-114.34
0
LINE
8
BLACK
6
CONTINUOUS
10
54.3108
20
-114.317
11
54.2818
21
-114.295
0
LINE
8
BLACK
6
CONTINUOUS
10
223.442
20
-211.24
11
223.475
21
-211.254
0
LINE
8
BLACK
6
CONTINUOUS
10
53.9568
20
-116.148
11
53.9916
21
-116.138
0
LINE
8
BLACK
6
CONTINUOUS
10
42.3075
20
-198.784
11
42.2828
21
-198.757
0
LINE
8
BLACK
6
CONTINUOUS
10
224.107
20
-212.273
11
224.105
21
-212.309
0
LINE
8
BLACK
6
CONTINUOUS
10
41.1079
20
-200.447
11
41.1416
21
-200.461
0
LINE
8
BLACK
6
CONTINUOUS
10
223.267
20
-211.189
11
223.303
21
-211.197
0
LINE
8
BLACK
6
CONTINUOUS
10
53.3462
20
-116.143
11
53.3811
21
-116.153
0
LINE
8
BLACK
6
CONTINUOUS
10
299.154
20
-111.301
11
299.299
21
-111.286
0
LINE
8
BLACK
6
CONTINUOUS
10
196.887
20
-127.426
11
196.945
21
-127.427
0
LINE
8
BLACK
6
CONTINUOUS
10
181.141
20
-129.039
11
181.176
21
-129.03
0
LINE
8
BLACK
6
CONTINUOUS
10
181.033
20
-129.057
11
181.069
21
-129.052
0
LINE
8
BLACK
6
CONTINUOUS
10
224.04
20
-211.844
11
224.052
21
-211.878
0
LINE
8
BLACK
6
CONTINUOUS
10
364.165
20
-198.814
11
364.141
21
-198.786
0
LINE
8
BLACK
6
CONTINUOUS
10
181.069
20
-126.975
11
181.033
21
-126.97
0
LINE
8
BLACK
6
CONTINUOUS
10
222.276
20
-211.519
11
222.3
21
-211.492
0
LINE
8
BLACK
6
CONTINUOUS
10
183.138
20
-211.211
11
183.102
21
-211.201
0
LINE
8
BLACK
6
CONTINUOUS
10
182.886
20
-213.267
11
182.923
21
-213.265
0
LINE
8
BLACK
6
CONTINUOUS
10
180.997
20
-126.967
11
180.96
21
-126.964
0
LINE
8
BLACK
6
CONTINUOUS
10
362.312
20
-199.395
11
362.31
21
-199.431
0
LINE
8
BLACK
6
CONTINUOUS
10
181.381
20
-127.072
11
181.348
21
-127.057
0
LINE
8
BLACK
6
CONTINUOUS
10
350.361
20
-115.918
11
350.395
21
-115.932
0
LINE
8
BLACK
6
CONTINUOUS
10
223.961
20
-127.8
11
223.961
21
-127.836
0
LINE
8
BLACK
6
CONTINUOUS
10
226.051
20
-127.963
11
226.055
21
-127.927
0
LINE
8
BLACK
6
CONTINUOUS
10
362.365
20
-199.146
11
362.354
21
-199.18
0
LINE
8
BLACK
6
CONTINUOUS
10
182
20
-212.847
11
182.022
21
-212.876
0
LINE
8
BLACK
6
CONTINUOUS
10
40.4758
20
-199.428
11
40.4746
21
-199.465
0
LINE
8
BLACK
6
CONTINUOUS
10
222.229
20
-212.862
11
222.207
21
-212.832
0
LINE
8
BLACK
6
CONTINUOUS
10
224.074
20
-128.292
11
224.091
21
-128.324
0
LINE
8
BLACK
6
CONTINUOUS
10
40.7059
20
-198.825
11
40.6836
21
-198.854
0
LINE
8
BLACK
6
CONTINUOUS
10
350.395
20
-113.977
11
350.361
21
-113.991
0
LINE
8
BLACK
6
CONTINUOUS
10
180.096
20
-127.356
11
180.074
21
-127.384
0
LINE
8
BLACK
6
CONTINUOUS
10
223.338
20
-211.206
11
223.373
21
-211.216
0
LINE
8
BLACK
6
CONTINUOUS
10
54.4434
20
-115.841
11
54.4672
21
-115.813
0
LINE
8
BLACK
6
CONTINUOUS
10
181.698
20
-128.713
11
181.722
21
-128.685
0
LINE
8
BLACK
6
CONTINUOUS
10
180.12
20
-127.328
11
180.096
21
-127.356
0
LINE
8
BLACK
6
CONTINUOUS
10
351.752
20
-115.346
11
351.765
21
-115.312
0
LINE
8
BLACK
6
CONTINUOUS
10
183.574
20
-212.97
11
183.599
21
-212.944
0
LINE
8
BLACK
6
CONTINUOUS
10
364.408
20
-199.486
11
364.408
21
-199.449
0
LINE
8
BLACK
6
CONTINUOUS
10
363.584
20
-198.46
11
363.549
21
-198.453
0
LINE
8
BLACK
6
CONTINUOUS
10
40.642
20
-198.914
11
40.6228
21
-198.945
0
LINE
8
BLACK
6
CONTINUOUS
10
40.9477
20
-198.606
11
40.9176
21
-198.626
0
LINE
8
BLACK
6
CONTINUOUS
10
350.032
20
-114.215
11
350.007
21
-114.242
0
LINE
8
BLACK
6
CONTINUOUS
10
180.144
20
-127.3
11
180.12
21
-127.328
0
LINE
8
BLACK
6
CONTINUOUS
10
40.4746
20
-199.501
11
40.4758
21
-199.538
0
LINE
8
BLACK
6
CONTINUOUS
10
222.941
20
-213.261
11
222.904
21
-213.257
0
LINE
8
BLACK
6
CONTINUOUS
10
363.01
20
-200.476
11
363.044
21
-200.487
0
LINE
8
BLACK
6
CONTINUOUS
10
40.5198
20
-199.178
11
40.5098
21
-199.213
0
LINE
8
BLACK
6
CONTINUOUS
10
42.2306
20
-200.26
11
42.2571
21
-200.235
0
LINE
8
BLACK
6
CONTINUOUS
10
222.353
20
-211.441
11
222.38
21
-211.417
0
LINE
8
BLACK
6
CONTINUOUS
10
352.011
20
-111.694
11
352.168
21
-111.767
0
LINE
8
BLACK
6
CONTINUOUS
10
349.784
20
-114.614
11
349.773
21
-114.649
0
LINE
8
BLACK
6
CONTINUOUS
10
42.2306
20
-198.706
11
42.2032
21
-198.682
0
LINE
8
BLACK
6
CONTINUOUS
10
41.7504
20
-200.508
11
41.7859
21
-200.5
0
LINE
8
BLACK
6
CONTINUOUS
10
225.572
20
-128.705
11
225.603
21
-128.685
0
LINE
8
BLACK
6
CONTINUOUS
10
350.534
20
-113.933
11
350.499
21
-113.942
0
LINE
8
BLACK
6
CONTINUOUS
10
364.231
20
-200.07
11
364.25
21
-200.039
0
LINE
8
BLACK
6
CONTINUOUS
10
363.222
20
-198.444
11
363.186
21
-198.45
0
LINE
8
BLACK
6
CONTINUOUS
10
351.109
20
-113.958
11
351.074
21
-113.947
0
LINE
8
BLACK
6
CONTINUOUS
10
223.979
20
-212.725
11
223.96
21
-212.756
0
LINE
8
BLACK
6
CONTINUOUS
10
54.0599
20
-114.17
11
54.026
21
-114.157
0
LINE
8
BLACK
6
CONTINUOUS
10
367.27
20
-198.948
11
367.249
21
-199.121
0
LINE
8
BLACK
6
CONTINUOUS
10
196.771
20
-127.419
11
196.829
21
-127.423
0
LINE
8
BLACK
6
CONTINUOUS
10
41.4017
20
-203.281
11
41.2365
21
-203.238
0
LINE
8
BLACK
6
CONTINUOUS
10
40.4872
20
-199.32
11
40.4821
21
-199.356
0
LINE
8
BLACK
6
CONTINUOUS
10
42.2445
20
-203.411
11
42.0743
21
-203.397
0
LINE
8
BLACK
6
CONTINUOUS
10
54.67
20
-114.853
11
54.6594
21
-114.818
0
LINE
8
BLACK
6
CONTINUOUS
10
224.063
20
-212.523
11
224.052
21
-212.558
0
LINE
8
BLACK
6
CONTINUOUS
10
225.922
20
-128.34
11
225.939
21
-128.308
0
LINE
8
BLACK
6
CONTINUOUS
10
362.666
20
-200.275
11
362.693
21
-200.298
0
LINE
8
BLACK
6
CONTINUOUS
10
54.6875
20
-115.358
11
54.6945
21
-115.323
0
LINE
8
BLACK
6
CONTINUOUS
10
225.342
20
-128.814
11
225.377
21
-128.802
0
LINE
8
BLACK
6
CONTINUOUS
10
235.196
20
-214.789
11
229.918
21
-215.718
0
LINE
8
BLACK
6
CONTINUOUS
10
351.607
20
-115.598
11
351.629
21
-115.569
0
LINE
8
BLACK
6
CONTINUOUS
10
40.5876
20
-199.957
11
40.6046
21
-199.989
0
LINE
8
BLACK
6
CONTINUOUS
10
52.8894
20
-115.854
11
52.9146
21
-115.88
0
LINE
8
BLACK
6
CONTINUOUS
10
224.947
20
-128.866
11
224.983
21
-128.867
0
LINE
8
BLACK
6
CONTINUOUS
10
351.797
20
-115.207
11
351.805
21
-115.172
0
LINE
8
BLACK
6
CONTINUOUS
10
222.3
20
-212.944
11
222.276
21
-212.918
0
LINE
8
BLACK
6
CONTINUOUS
10
350.605
20
-115.99
11
350.641
21
-115.996
0
LINE
8
BLACK
6
CONTINUOUS
10
37.5973
20
-198.762
11
37.5886
21
-198.592
0
LINE
8
BLACK
6
CONTINUOUS
10
351.339
20
-115.842
11
351.37
21
-115.822
0
LINE
8
BLACK
6
CONTINUOUS
10
40.9785
20
-198.586
11
40.9477
21
-198.606
0
LINE
8
BLACK
6
CONTINUOUS
10
222.009
20
-212.255
11
222.009
21
-212.218
0
LINE
8
BLACK
6
CONTINUOUS
10
366.443
20
-201.221
11
366.343
21
-201.364
0
LINE
8
BLACK
6
CONTINUOUS
10
51.1891
20
-112.659
11
51.3163
21
-112.541
0
LINE
8
BLACK
6
CONTINUOUS
10
179.921
20
-127.673
11
179.91
21
-127.708
0
LINE
8
BLACK
6
CONTINUOUS
10
351.177
20
-113.983
11
351.143
21
-113.97
0
LINE
8
BLACK
6
CONTINUOUS
10
222.353
20
-212.995
11
222.326
21
-212.97
0
LINE
8
BLACK
6
CONTINUOUS
10
50.2458
20
-113.888
11
50.3311
21
-113.738
0
LINE
8
BLACK
6
CONTINUOUS
10
183.828
20
-212.575
11
183.84
21
-212.541
0
LINE
8
BLACK
6
CONTINUOUS
10
363.186
20
-198.45
11
363.15
21
-198.456
0
LINE
8
BLACK
6
CONTINUOUS
10
41.8558
20
-198.487
11
41.821
21
-198.476
0
LINE
8
BLACK
6
CONTINUOUS
10
180.279
20
-128.849
11
180.308
21
-128.87
0
LINE
8
BLACK
6
CONTINUOUS
10
54.6945
20
-115.323
11
54.7001
21
-115.287
0
LINE
8
BLACK
6
CONTINUOUS
10
50.6175
20
-113.306
11
50.7227
21
-113.169
0
LINE
8
BLACK
6
CONTINUOUS
10
42.5236
20
-199.16
11
42.5118
21
-199.126
0
LINE
8
BLACK
6
CONTINUOUS
10
349.754
20
-114.72
11
349.747
21
-114.755
0
LINE
8
BLACK
6
CONTINUOUS
10
224.192
20
-127.16
11
224.17
21
-127.189
0
LINE
8
BLACK
6
CONTINUOUS
10
223.996
20
-211.744
11
224.011
21
-211.777
0
LINE
8
BLACK
6
CONTINUOUS
10
208.721
20
-127.427
11
208.779
21
-127.426
0
LINE
8
BLACK
6
CONTINUOUS
10
182.633
20
-211.189
11
182.597
21
-211.197
0
LINE
8
BLACK
6
CONTINUOUS
10
196.945
20
-127.427
11
208.721
21
-127.427
0
LINE
8
BLACK
6
CONTINUOUS
10
353.051
20
-112.315
11
353.186
21
-112.423
0
LINE
8
BLACK
6
CONTINUOUS
10
363.258
20
-200.531
11
363.294
21
-200.534
0
LINE
8
BLACK
6
CONTINUOUS
10
181.979
20
-211.619
11
181.959
21
-211.649
0
LINE
8
BLACK
6
CONTINUOUS
10
182.046
20
-212.904
11
182.07
21
-212.931
0
LINE
8
BLACK
6
CONTINUOUS
10
54.5711
20
-114.619
11
54.5524
21
-114.588
0
LINE
8
BLACK
6
CONTINUOUS
10
40.5717
20
-199.042
11
40.557
21
-199.075
0
LINE
8
BLACK
6
CONTINUOUS
10
223.541
20
-211.285
11
223.573
21
-211.303
0
LINE
8
BLACK
6
CONTINUOUS
10
183.89
20
-212.182
11
183.888
21
-212.145
0
LINE
8
BLACK
6
CONTINUOUS
10
362.666
20
-198.696
11
362.639
21
-198.721
0
LINE
8
BLACK
6
CONTINUOUS
10
49.7244
20
-115.348
11
49.7596
21
-115.179
0
LINE
8
BLACK
6
CONTINUOUS
10
40.6623
20
-200.082
11
40.6836
21
-200.112
0
LINE
8
BLACK
6
CONTINUOUS
10
52.7234
20
-114.667
11
52.7075
21
-114.7
0
LINE
8
BLACK
6
CONTINUOUS
10
182.391
20
-213.167
11
182.424
21
-213.182
0
LINE
8
BLACK
6
CONTINUOUS
10
41.3881
20
-200.524
11
41.4243
21
-200.528
0
LINE
8
BLACK
6
CONTINUOUS
10
52.6556
20
-114.836
11
52.6456
21
-114.871
0
LINE
8
BLACK
6
CONTINUOUS
10
222.049
20
-211.93
11
222.06
21
-211.895
0
LINE
8
BLACK
6
CONTINUOUS
10
224.192
20
-128.475
11
224.216
21
-128.504
0
LINE
8
BLACK
6
CONTINUOUS
10
350.162
20
-111.27
11
350.335
21
-111.279
0
LINE
8
BLACK
6
CONTINUOUS
10
222.869
20
-213.251
11
222.833
21
-213.244
0
LINE
8
BLACK
6
CONTINUOUS
10
53.4164
20
-114.12
11
53.3811
21
-114.129
0
LINE
8
BLACK
6
CONTINUOUS
10
181.86
20
-127.555
11
181.843
21
-127.523
0
LINE
8
BLACK
6
CONTINUOUS
10
181.315
20
-127.042
11
181.281
21
-127.029
0
LINE
8
BLACK
6
CONTINUOUS
10
54.5118
20
-115.755
11
54.5326
21
-115.725
0
LINE
8
BLACK
6
CONTINUOUS
10
181.413
20
-127.089
11
181.381
21
-127.072
0
LINE
8
BLACK
6
CONTINUOUS
10
104.91
20
-111.276
11
105.055
21
-111.278
0
LINE
8
BLACK
6
CONTINUOUS
10
224.911
20
-128.863
11
224.947
21
-128.866
0
LINE
8
BLACK
6
CONTINUOUS
10
225.939
20
-128.308
11
225.956
21
-128.276
0
LINE
8
BLACK
6
CONTINUOUS
10
180.851
20
-129.061
11
180.888
21
-129.063
0
LINE
8
BLACK
6
CONTINUOUS
10
41.5682
20
-203.318
11
41.4017
21
-203.281
0
LINE
8
BLACK
6
CONTINUOUS
10
224.074
20
-127.344
11
224.058
21
-127.376
0
LINE
8
BLACK
6
CONTINUOUS
10
364.392
20
-199.667
11
364.398
21
-199.631
0
LINE
8
BLACK
6
CONTINUOUS
10
53.3811
20
-114.129
11
53.3462
21
-114.139
0
LINE
8
BLACK
6
CONTINUOUS
10
41.9241
20
-198.512
11
41.8902
21
-198.499
0
LINE
8
BLACK
6
CONTINUOUS
10
105.201
20
-111.284
11
105.346
21
-111.295
0
LINE
8
BLACK
6
CONTINUOUS
10
351.143
20
-115.939
11
351.177
21
-115.925
0
LINE
8
BLACK
6
CONTINUOUS
10
183.52
20
-213.019
11
183.547
21
-212.995
0
LINE
8
BLACK
6
CONTINUOUS
10
52.6792
20
-115.515
11
52.6928
21
-115.549
0
LINE
8
BLACK
6
CONTINUOUS
10
209.072
20
-127.396
11
298.865
21
-111.344
0
LINE
8
BLACK
6
CONTINUOUS
10
225.272
20
-126.801
11
225.237
21
-126.792
0
LINE
8
BLACK
6
CONTINUOUS
10
366.712
20
-200.772
11
366.628
21
-200.925
0
LINE
8
BLACK
6
CONTINUOUS
10
182.562
20
-211.206
11
182.527
21
-211.216
0
LINE
8
BLACK
6
CONTINUOUS
10
349.797
20
-114.58
11
349.784
21
-114.614
0
LINE
8
BLACK
6
CONTINUOUS
10
182.597
20
-211.197
11
182.562
21
-211.206
0
LINE
8
BLACK
6
CONTINUOUS
10
222.071
20
-211.861
11
222.084
21
-211.827
0
LINE
8
BLACK
6
CONTINUOUS
10
351.109
20
-115.951
11
351.143
21
-115.939
0
LINE
8
BLACK
6
CONTINUOUS
10
183.888
20
-212.291
11
183.89
21
-212.255
0
LINE
8
BLACK
6
CONTINUOUS
10
41.01
20
-200.398
11
41.042
21
-200.416
0
LINE
8
BLACK
6
CONTINUOUS
10
180.12
20
-128.699
11
180.144
21
-128.726
0
LINE
8
BLACK
6
CONTINUOUS
10
226.01
20
-128.141
11
226.021
21
-128.106
0
LINE
8
BLACK
6
CONTINUOUS
10
351.308
20
-114.048
11
351.276
21
-114.03
0
LINE
8
BLACK
6
CONTINUOUS
10
363.258
20
-198.44
11
363.222
21
-198.444
0
LINE
8
BLACK
6
CONTINUOUS
10
40.4821
20
-199.61
11
40.4872
21
-199.646
0
LINE
8
BLACK
6
CONTINUOUS
10
225.02
20
-126.768
11
224.983
21
-126.768
0
LINE
8
BLACK
6
CONTINUOUS
10
181.873
20
-211.81
11
181.86
21
-211.844
0
LINE
8
BLACK
6
CONTINUOUS
10
183.769
20
-212.709
11
183.786
21
-212.676
0
LINE
8
BLACK
6
CONTINUOUS
10
353.568
20
-112.777
11
353.687
21
-112.903
0
LINE
8
BLACK
6
CONTINUOUS
10
349.747
20
-114.755
11
349.74
21
-114.791
0
LINE
8
BLACK
6
CONTINUOUS
10
351.358
20
-111.458
11
351.524
21
-111.509
0
LINE
8
BLACK
6
CONTINUOUS
10
182.046
20
-211.532
11
182.022
21
-211.56
0
LINE
8
BLACK
6
CONTINUOUS
10
363.294
20
-198.437
11
363.258
21
-198.44
0
LINE
8
BLACK
6
CONTINUOUS
10
41.736
20
-203.35
11
41.5682
21
-203.318
0
LINE
8
BLACK
6
CONTINUOUS
10
41.042
20
-198.55
11
41.01
21
-198.568
0
LINE
8
BLACK
6
CONTINUOUS
10
350.263
20
-114.039
11
350.232
21
-114.057
0
LINE
8
BLACK
6
CONTINUOUS
10
182.705
20
-211.177
11
182.669
21
-211.182
0
LINE
8
BLACK
6
CONTINUOUS
10
42.5858
20
-203.423
11
42.415
21
-203.42
0
LINE
8
BLACK
6
CONTINUOUS
10
351.244
20
-114.014
11
351.211
21
-113.998
0
LINE
8
BLACK
6
CONTINUOUS
10
41.3521
20
-198.447
11
41.3162
21
-198.454
0
LINE
8
BLACK
6
CONTINUOUS
10
224.105
20
-212.309
11
224.101
21
-212.345
0
LINE
8
BLACK
6
CONTINUOUS
10
362.722
20
-198.65
11
362.693
21
-198.673
0
LINE
8
BLACK
6
CONTINUOUS
10
224.291
20
-127.053
11
224.265
21
-127.079
0
LINE
8
BLACK
6
CONTINUOUS
10
54.6794
20
-115.394
11
54.6875
21
-115.358
0
LINE
8
BLACK
6
CONTINUOUS
10
40.4821
20
-199.356
11
40.4784
21
-199.392
0
LINE
8
BLACK
6
CONTINUOUS
10
352.912
20
-112.211
11
353.051
21
-112.315
0
LINE
8
BLACK
6
CONTINUOUS
10
351.585
20
-114.283
11
351.561
21
-114.255
0
LINE
8
BLACK
6
CONTINUOUS
10
50.517
20
-113.446
11
50.6175
21
-113.306
0
LINE
8
BLACK
6
CONTINUOUS
10
225.903
20
-128.371
11
225.922
21
-128.34
0
LINE
8
BLACK
6
CONTINUOUS
10
224.375
20
-128.653
11
224.404
21
-128.675
0
LINE
8
BLACK
6
CONTINUOUS
10
181.921
20
-211.712
11
181.904
21
-211.744
0
LINE
8
BLACK
6
CONTINUOUS
10
51.4476
20
-112.429
11
51.5826
21
-112.321
0
LINE
8
BLACK
6
CONTINUOUS
10
224.011
20
-211.777
11
224.026
21
-211.81
0
LINE
8
BLACK
6
CONTINUOUS
10
53.7763
20
-111.354
11
53.9471
21
-111.328
0
LINE
8
BLACK
6
CONTINUOUS
10
224.043
20
-128.226
11
224.058
21
-128.259
0
LINE
8
BLACK
6
CONTINUOUS
10
362.438
20
-199.992
11
362.457
21
-200.024
0
LINE
8
BLACK
6
CONTINUOUS
10
181.921
20
-212.725
11
181.939
21
-212.756
0
LINE
8
BLACK
6
CONTINUOUS
10
224.082
20
-212.453
11
224.073
21
-212.488
0
LINE
8
BLACK
6
CONTINUOUS
10
54.339
20
-114.34
11
54.3108
21
-114.317
0
LINE
8
BLACK
6
CONTINUOUS
10
37.5858
20
-198.421
11
49.6952
21
-115.518
0
LINE
8
BLACK
6
CONTINUOUS
10
350.142
20
-115.79
11
350.171
21
-115.811
0
LINE
8
BLACK
6
CONTINUOUS
10
54.6346
20
-114.75
11
54.6204
21
-114.716
0
LINE
8
BLACK
6
CONTINUOUS
10
54.7045
20
-115.032
11
54.7001
21
-114.996
0
LINE
8
BLACK
6
CONTINUOUS
10
53.8863
20
-116.167
11
53.9217
21
-116.158
0
LINE
8
BLACK
6
CONTINUOUS
10
42.5342
20
-199.771
11
42.5436
21
-199.736
0
LINE
8
BLACK
6
CONTINUOUS
10
183.339
20
-211.294
11
183.307
21
-211.277
0
LINE
8
BLACK
6
CONTINUOUS
10
180.25
20
-128.826
11
180.279
21
-128.849
0
LINE
8
BLACK
6
CONTINUOUS
10
363.92
20
-198.598
11
363.888
21
-198.579
0
LINE
8
BLACK
6
CONTINUOUS
10
38.0698
20
-200.569
11
37.9991
21
-200.414
0
LINE
8
BLACK
6
CONTINUOUS
10
349.937
20
-115.583
11
349.959
21
-115.612
0
LINE
8
BLACK
6
CONTINUOUS
10
222.626
20
-213.175
11
222.593
21
-213.159
0
LINE
8
BLACK
6
CONTINUOUS
10
196.597
20
-127.396
11
196.655
21
-127.406
0
LINE
8
BLACK
6
CONTINUOUS
10
196.655
20
-127.406
11
196.713
21
-127.413
0
LINE
8
BLACK
6
CONTINUOUS
10
53.0534
20
-115.998
11
53.0835
21
-116.019
0
LINE
8
BLACK
6
CONTINUOUS
10
42.376
20
-200.097
11
42.3968
21
-200.067
0
LINE
8
BLACK
6
CONTINUOUS
10
42.3075
20
-200.182
11
42.3314
21
-200.155
0
LINE
8
BLACK
6
CONTINUOUS
10
182.234
20
-213.075
11
182.264
21
-213.096
0
LINE
8
BLACK
6
CONTINUOUS
10
181.445
20
-127.107
11
181.413
21
-127.089
0
LINE
8
BLACK
6
CONTINUOUS
10
224.109
20
-212.2
11
224.109
21
-212.236
0
LINE
8
BLACK
6
CONTINUOUS
10
182.148
20
-213.007
11
182.176
21
-213.031
0
LINE
8
BLACK
6
CONTINUOUS
10
41.4243
20
-198.438
11
41.3881
21
-198.442
0
LINE
8
BLACK
6
CONTINUOUS
10
40.4378
20
-202.938
11
40.2849
21
-202.862
0
LINE
8
BLACK
6
CONTINUOUS
10
52.7981
20
-115.741
11
52.8194
21
-115.77
0
LINE
8
BLACK
6
CONTINUOUS
10
40.6046
20
-198.976
11
40.5876
21
-199.009
0
LINE
8
BLACK
6
CONTINUOUS
10
222.833
20
-213.244
11
222.797
21
-213.235
0
LINE
8
BLACK
6
CONTINUOUS
10
350.823
20
-113.905
11
350.787
21
-113.904
0
LINE
8
BLACK
6
CONTINUOUS
10
181.979
20
-212.817
11
182
21
-212.847
0
LINE
8
BLACK
6
CONTINUOUS
10
41.0747
20
-198.534
11
41.042
21
-198.55
0
LINE
8
BLACK
6
CONTINUOUS
10
52.6928
20
-115.549
11
52.7075
21
-115.583
0
LINE
8
BLACK
6
CONTINUOUS
10
222.408
20
-211.394
11
222.437
21
-211.372
0
LINE
8
BLACK
6
CONTINUOUS
10
54.6594
20
-115.464
11
54.67
21
-115.429
0
LINE
8
BLACK
6
CONTINUOUS
10
363.44
20
-198.439
11
363.404
21
-198.437
0
LINE
8
BLACK
6
CONTINUOUS
10
350.113
20
-115.767
11
350.142
21
-115.79
0
LINE
8
BLACK
6
CONTINUOUS
10
222.011
20
-212.291
11
222.009
21
-212.255
0
LINE
8
BLACK
6
CONTINUOUS
10
351.276
20
-114.03
11
351.244
21
-114.014
0
LINE
8
BLACK
6
CONTINUOUS
10
53.4164
20
-116.162
11
53.452
21
-116.17
0
LINE
8
BLACK
6
CONTINUOUS
10
223.123
20
-213.266
11
223.086
21
-213.268
0
LINE
8
BLACK
6
CONTINUOUS
10
226.01
20
-127.495
11
225.998
21
-127.461
0
LINE
8
BLACK
6
CONTINUOUS
10
42.175
20
-198.659
11
42.146
21
-198.637
0
LINE
8
BLACK
6
CONTINUOUS
10
180.498
20
-127.049
11
180.465
21
-127.065
0
LINE
8
BLACK
6
CONTINUOUS
10
38.7065
20
-201.578
11
38.601
21
-201.443
0
LINE
8
BLACK
6
CONTINUOUS
10
226.038
20
-127.601
11
226.03
21
-127.565
0
LINE
8
BLACK
6
CONTINUOUS
10
182.85
20
-213.268
11
182.886
21
-213.267
0
LINE
8
BLACK
6
CONTINUOUS
10
350.534
20
-115.976
11
350.569
21
-115.984
0
LINE
8
BLACK
6
CONTINUOUS
10
41.2453
20
-198.471
11
41.2104
21
-198.481
0
LINE
8
BLACK
6
CONTINUOUS
10
223.751
20
-213.007
11
223.724
21
-213.031
0
LINE
8
BLACK
6
CONTINUOUS
10
183.599
20
-211.492
11
183.574
21
-211.466
0
LINE
8
BLACK
6
CONTINUOUS
10
364.403
20
-199.376
11
364.398
21
-199.34
0
LINE
8
BLACK
6
CONTINUOUS
10
351.689
20
-115.477
11
351.706
21
-115.445
0
LINE
8
BLACK
6
CONTINUOUS
10
222.014
20
-212.109
11
222.019
21
-212.073
0
LINE
8
BLACK
6
CONTINUOUS
10
349.825
20
-114.513
11
349.81
21
-114.546
0
LINE
8
BLACK
6
CONTINUOUS
10
181.594
20
-128.814
11
181.621
21
-128.79
0
LINE
8
BLACK
6
CONTINUOUS
10
364.064
20
-200.263
11
364.091
21
-200.238
0
LINE
8
BLACK
6
CONTINUOUS
10
223.695
20
-213.053
11
223.666
21
-213.075
0
LINE
8
BLACK
6
CONTINUOUS
10
54.4186
20
-114.415
11
54.393
21
-114.389
0
LINE
8
BLACK
6
CONTINUOUS
10
180.222
20
-127.224
11
180.195
21
-127.249
0
LINE
8
BLACK
6
CONTINUOUS
10
223.442
20
-213.196
11
223.407
21
-213.209
0
LINE
8
BLACK
6
CONTINUOUS
10
40.4784
20
-199.574
11
40.4821
21
-199.61
0
LINE
8
BLACK
6
CONTINUOUS
10
40.7535
20
-198.77
11
40.7292
21
-198.797
0
LINE
8
BLACK
6
CONTINUOUS
10
181.791
20
-212.2
11
181.791
21
-212.236
0
LINE
8
BLACK
6
CONTINUOUS
10
54.7077
20
-115.214
11
54.7096
21
-115.178
0
LINE
8
BLACK
6
CONTINUOUS
10
183.881
20
-212.073
11
183.875
21
-212.037
0
LINE
8
BLACK
6
CONTINUOUS
10
181.565
20
-127.189
11
181.536
21
-127.167
0
LINE
8
BLACK
6
CONTINUOUS
10
350.232
20
-114.057
11
350.201
21
-114.077
0
LINE
8
BLACK
6
CONTINUOUS
10
350.464
20
-115.956
11
350.499
21
-115.967
0
LINE
8
BLACK
6
CONTINUOUS
10
183.307
20
-213.159
11
183.339
21
-213.142
0
LINE
8
BLACK
6
CONTINUOUS
10
52.6207
20
-111.704
11
52.7801
21
-111.637
0
LINE
8
BLACK
6
CONTINUOUS
10
225.998
20
-127.461
11
225.985
21
-127.427
0
LINE
8
BLACK
6
CONTINUOUS
10
364.331
20
-202.993
11
364.171
21
-203.061
0
LINE
8
BLACK
6
CONTINUOUS
10
351.561
20
-115.654
11
351.585
21
-115.626
0
LINE
8
BLACK
6
CONTINUOUS
10
42.3314
20
-200.155
11
42.3542
21
-200.126
0
LINE
8
BLACK
6
CONTINUOUS
10
183.875
20
-212.399
11
183.881
21
-212.363
0
LINE
8
BLACK
6
CONTINUOUS
10
183.102
20
-211.201
11
183.067
21
-211.193
0
LINE
8
BLACK
6
CONTINUOUS
10
350.058
20
-114.19
11
350.032
21
-114.215
0
LINE
8
BLACK
6
CONTINUOUS
10
52.7981
20
-114.542
11
52.7778
21
-114.572
0
LINE
8
BLACK
6
CONTINUOUS
10
362.909
20
-198.537
11
362.876
21
-198.553
0
LINE
8
BLACK
6
CONTINUOUS
10
40.7059
20
-200.141
11
40.7292
21
-200.169
0
LINE
8
BLACK
6
CONTINUOUS
10
181.939
20
-211.68
11
181.921
21
-211.712
0
LINE
8
BLACK
6
CONTINUOUS
10
363.824
20
-200.426
11
363.857
21
-200.41
0
LINE
8
BLACK
6
CONTINUOUS
10
226.045
20
-127.636
11
226.038
21
-127.601
0
LINE
8
BLACK
6
CONTINUOUS
10
299.299
20
-111.286
11
299.445
21
-111.275
0
LINE
8
BLACK
6
CONTINUOUS
10
364.21
20
-200.1
11
364.231
21
-200.07
0
LINE
8
BLACK
6
CONTINUOUS
10
354.117
20
-113.447
11
354.213
21
-113.592
0
LINE
8
BLACK
6
CONTINUOUS
10
40.7292
20
-198.797
11
40.7059
21
-198.825
0
LINE
8
BLACK
6
CONTINUOUS
10
179.978
20
-128.488
11
179.995
21
-128.52
0
LINE
8
BLACK
6
CONTINUOUS
10
41.2453
20
-200.495
11
41.2806
21
-200.504
0
LINE
8
BLACK
6
CONTINUOUS
10
224.011
20
-212.66
11
223.996
21
-212.692
0
LINE
8
BLACK
6
CONTINUOUS
10
350.295
20
-115.887
11
350.328
21
-115.903
0
LINE
8
BLACK
6
CONTINUOUS
10
363.98
20
-200.332
11
364.009
21
-200.31
0
LINE
8
BLACK
6
CONTINUOUS
10
222.497
20
-213.105
11
222.467
21
-213.085
0
LINE
8
BLACK
6
CONTINUOUS
10
183.307
20
-211.277
11
183.274
21
-211.262
0
LINE
8
BLACK
6
CONTINUOUS
10
181.791
20
-212.236
11
181.792
21
-212.273
0
LINE
8
BLACK
6
CONTINUOUS
10
362.751
20
-198.629
11
362.722
21
-198.65
0
LINE
8
BLACK
6
CONTINUOUS
10
40.9785
20
-200.38
11
41.01
21
-200.398
0
LINE
8
BLACK
6
CONTINUOUS
10
53.2774
20
-116.119
11
53.3116
21
-116.132
0
LINE
8
BLACK
6
CONTINUOUS
10
42.0858
20
-198.596
11
42.0547
21
-198.577
0
LINE
8
BLACK
6
CONTINUOUS
10
179.878
20
-127.85
11
179.873
21
-127.886
0
LINE
8
BLACK
6
CONTINUOUS
10
180.96
20
-129.062
11
180.997
21
-129.06
0
LINE
8
BLACK
6
CONTINUOUS
10
224.101
20
-212.091
11
224.105
21
-212.127
0
LINE
8
BLACK
6
CONTINUOUS
10
222.326
20
-211.466
11
222.353
21
-211.441
0
LINE
8
BLACK
6
CONTINUOUS
10
42.4352
20
-198.961
11
42.4166
21
-198.929
0
LINE
8
BLACK
6
CONTINUOUS
10
223.475
20
-213.182
11
223.442
21
-213.196
0
LINE
8
BLACK
6
CONTINUOUS
10
224.109
20
-127.28
11
224.091
21
-127.311
0
LINE
8
BLACK
6
CONTINUOUS
10
183.274
20
-213.175
11
183.307
21
-213.159
0
LINE
8
BLACK
6
CONTINUOUS
10
42.2828
20
-200.209
11
42.3075
21
-200.182
0
LINE
8
BLACK
6
CONTINUOUS
10
363.92
20
-200.373
11
363.95
21
-200.353
0
LINE
8
BLACK
6
CONTINUOUS
10
222.229
20
-211.575
11
222.252
21
-211.546
0
LINE
8
BLACK
6
CONTINUOUS
10
42.0743
20
-203.397
11
41.9048
21
-203.376
0
LINE
8
BLACK
6
CONTINUOUS
10
349.841
20
-114.48
11
349.825
21
-114.513
0
LINE
8
BLACK
6
CONTINUOUS
10
183.733
20
-211.664
11
183.713
21
-211.634
0
LINE
8
BLACK
6
CONTINUOUS
10
224.291
20
-128.582
11
224.318
21
-128.607
0
LINE
8
BLACK
6
CONTINUOUS
10
183.868
20
-212.001
11
183.86
21
-211.965
0
LINE
8
BLACK
6
CONTINUOUS
10
42.5436
20
-199.23
11
42.5342
21
-199.195
0
LINE
8
BLACK
6
CONTINUOUS
10
41.01
20
-198.568
11
40.9785
21
-198.586
0
LINE
8
BLACK
6
CONTINUOUS
10
364.398
20
-199.631
11
364.403
21
-199.595
0
LINE
8
BLACK
6
CONTINUOUS
10
181.826
20
-128.536
11
181.843
21
-128.504
0
LINE
8
BLACK
6
CONTINUOUS
10
350.232
20
-115.851
11
350.263
21
-115.87
0
LINE
8
BLACK
6
CONTINUOUS
10
181.246
20
-127.017
11
181.212
21
-127.006
0
LINE
8
BLACK
6
CONTINUOUS
10
349.916
20
-114.355
11
349.895
21
-114.385
0
LINE
8
BLACK
6
CONTINUOUS
10
181.836
20
-212.523
11
181.848
21
-212.558
0
LINE
8
BLACK
6
CONTINUOUS
10
224.17
20
-127.189
11
224.149
21
-127.218
0
LINE
8
BLACK
6
CONTINUOUS
10
181.964
20
-127.977
11
181.962
21
-127.941
0
LINE
8
BLACK
6
CONTINUOUS
10
222.626
20
-211.262
11
222.659
21
-211.247
0
LINE
8
BLACK
6
CONTINUOUS
10
49.6952
20
-115.518
11
49.7244
21
-115.348
0
LINE
8
BLACK
6
CONTINUOUS
10
226.051
20
-127.672
11
226.045
21
-127.636
0
LINE
8
BLACK
6
CONTINUOUS
10
362.613
20
-200.225
11
362.639
21
-200.25
0
LINE
8
BLACK
6
CONTINUOUS
10
351.51
20
-114.202
11
351.484
21
-114.177
0
LINE
8
BLACK
6
CONTINUOUS
10
180.338
20
-127.136
11
180.308
21
-127.156
0
LINE
8
BLACK
6
CONTINUOUS
10
182.527
20
-211.216
11
182.492
21
-211.228
0
LINE
8
BLACK
6
CONTINUOUS
10
54.4672
20
-114.469
11
54.4434
21
-114.442
0
LINE
8
BLACK
6
CONTINUOUS
10
54.0934
20
-114.185
11
54.0599
21
-114.17
0
LINE
8
BLACK
6
CONTINUOUS
10
53.1779
20
-114.209
11
53.1458
21
-114.226
0
LINE
8
BLACK
6
CONTINUOUS
10
364.303
20
-199.943
11
364.318
21
-199.91
0
LINE
8
BLACK
6
CONTINUOUS
10
362.812
20
-200.382
11
362.844
21
-200.401
0
LINE
8
BLACK
6
CONTINUOUS
10
179.91
20
-127.708
11
179.9
21
-127.743
0
LINE
8
BLACK
6
CONTINUOUS
10
362.587
20
-200.198
11
362.613
21
-200.225
0
LINE
8
BLACK
6
CONTINUOUS
10
223.123
20
-211.17
11
223.159
21
-211.173
0
LINE
8
BLACK
6
CONTINUOUS
10
351.191
20
-111.414
11
351.358
21
-111.458
0
LINE
8
BLACK
6
CONTINUOUS
10
225.922
20
-127.295
11
225.903
21
-127.264
0
LINE
8
BLACK
6
CONTINUOUS
10
225.818
20
-128.49
11
225.841
21
-128.461
0
LINE
8
BLACK
6
CONTINUOUS
10
222.941
20
-211.175
11
222.977
21
-211.171
0
LINE
8
BLACK
6
CONTINUOUS
10
363.791
20
-198.529
11
363.758
21
-198.515
0
LINE
8
BLACK
6
CONTINUOUS
10
53.7058
20
-116.19
11
53.7422
21
-116.188
0
LINE
8
BLACK
6
CONTINUOUS
10
41.8902
20
-200.467
11
41.9241
21
-200.454
0
LINE
8
BLACK
6
CONTINUOUS
10
42.5586
20
-199.664
11
42.5643
21
-199.628
0
LINE
8
BLACK
6
CONTINUOUS
10
351.825
20
-114.882
11
351.822
21
-114.845
0
LINE
8
BLACK
6
CONTINUOUS
10
53.0241
20
-114.306
11
52.9954
21
-114.328
0
LINE
8
BLACK
6
CONTINUOUS
10
350.295
20
-114.022
11
350.263
21
-114.039
0
LINE
8
BLACK
6
CONTINUOUS
10
351.706
20
-115.445
11
351.723
21
-115.412
0
LINE
8
BLACK
6
CONTINUOUS
10
364.392
20
-199.304
11
364.386
21
-199.268
0
LINE
8
BLACK
6
CONTINUOUS
10
183.102
20
-213.235
11
183.138
21
-213.225
0
LINE
8
BLACK
6
CONTINUOUS
10
351.177
20
-115.925
11
351.211
21
-115.911
0
LINE
8
BLACK
6
CONTINUOUS
10
351.399
20
-114.108
11
351.37
21
-114.087
0
LINE
8
BLACK
6
CONTINUOUS
10
354.303
20
-113.74
11
354.388
21
-113.891
0
LINE
8
BLACK
6
CONTINUOUS
10
42.5236
20
-199.806
11
42.5342
21
-199.771
0
LINE
8
BLACK
6
CONTINUOUS
10
222.693
20
-213.202
11
222.659
21
-213.189
0
LINE
8
BLACK
6
CONTINUOUS
10
364.037
20
-198.684
11
364.009
21
-198.661
0
LINE
8
BLACK
6
CONTINUOUS
10
182.205
20
-213.053
11
182.234
21
-213.075
0
LINE
8
BLACK
6
CONTINUOUS
10
364.231
20
-198.901
11
364.21
21
-198.871
0
LINE
8
BLACK
6
CONTINUOUS
10
179.91
20
-128.319
11
179.921
21
-128.353
0
LINE
8
BLACK
6
CONTINUOUS
10
224.803
20
-128.847
11
224.838
21
-128.854
0
LINE
8
BLACK
6
CONTINUOUS
10
225.69
20
-127.017
11
225.661
21
-126.994
0
LINE
8
BLACK
6
CONTINUOUS
10
364.008
20
-203.123
11
363.843
21
-203.18
0
LINE
8
BLACK
6
CONTINUOUS
10
53.452
20
-116.17
11
53.4879
21
-116.177
0
LINE
8
BLACK
6
CONTINUOUS
10
362.782
20
-200.363
11
362.812
21
-200.382
0
LINE
8
BLACK
6
CONTINUOUS
10
182.359
20
-213.151
11
182.391
21
-213.167
0
LINE
8
BLACK
6
CONTINUOUS
10
223.541
20
-213.151
11
223.509
21
-213.167
0
LINE
8
BLACK
6
CONTINUOUS
10
222.437
20
-213.064
11
222.408
21
-213.042
0
LINE
8
BLACK
6
CONTINUOUS
10
364.287
20
-199.976
11
364.303
21
-199.943
0
LINE
8
BLACK
6
CONTINUOUS
10
351.805
20
-114.737
11
351.797
21
-114.702
0
LINE
8
BLACK
6
CONTINUOUS
10
181.934
20
-127.761
11
181.925
21
-127.725
0
LINE
8
BLACK
6
CONTINUOUS
10
362.457
20
-200.024
11
362.476
21
-200.055
0
LINE
8
BLACK
6
CONTINUOUS
10
349.937
20
-114.326
11
349.916
21
-114.355
0
LINE
8
BLACK
6
CONTINUOUS
10
362.646
20
-203.413
11
362.472
21
-203.422
0
LINE
8
BLACK
6
CONTINUOUS
10
183.547
20
-212.995
11
183.574
21
-212.97
0
LINE
8
BLACK
6
CONTINUOUS
10
351.456
20
-115.756
11
351.484
21
-115.731
0
LINE
8
BLACK
6
CONTINUOUS
10
223.83
20
-212.931
11
223.804
21
-212.957
0
LINE
8
BLACK
6
CONTINUOUS
10
224.838
20
-128.854
11
224.875
21
-128.859
0
LINE
8
BLACK
6
CONTINUOUS
10
362.587
20
-198.773
11
362.563
21
-198.8
0
LINE
8
BLACK
6
CONTINUOUS
10
363.513
20
-200.524
11
363.549
21
-200.518
0
LINE
8
BLACK
6
CONTINUOUS
10
362.365
20
-199.826
11
362.377
21
-199.86
0
LINE
8
BLACK
6
CONTINUOUS
10
50.4215
20
-113.591
11
50.517
21
-113.446
0
LINE
8
BLACK
6
CONTINUOUS
10
182.264
20
-211.341
11
182.234
21
-211.361
0
LINE
8
BLACK
6
CONTINUOUS
10
351.37
20
-115.822
11
351.399
21
-115.801
0
LINE
8
BLACK
6
CONTINUOUS
10
364.318
20
-199.91
11
364.333
21
-199.877
0
LINE
8
BLACK
6
CONTINUOUS
10
351.308
20
-115.861
11
351.339
21
-115.842
0
LINE
8
BLACK
6
CONTINUOUS
10
39.2991
20
-202.191
11
39.1723
21
-202.077
0
LINE
8
BLACK
6
CONTINUOUS
10
222.529
20
-211.312
11
222.56
21
-211.294
0
LINE
8
BLACK
6
CONTINUOUS
10
40.9176
20
-200.34
11
40.9477
21
-200.36
0
LINE
8
BLACK
6
CONTINUOUS
10
223.636
20
-211.341
11
223.666
21
-211.361
0
LINE
8
BLACK
6
CONTINUOUS
10
52.8651
20
-115.827
11
52.8894
21
-115.854
0
LINE
8
BLACK
6
CONTINUOUS
10
362.316
20
-199.613
11
362.321
21
-199.649
0
LINE
8
BLACK
6
CONTINUOUS
10
362.563
20
-198.8
11
362.54
21
-198.828
0
LINE
8
BLACK
6
CONTINUOUS
10
54.49
20
-114.498
11
54.4672
21
-114.469
0
LINE
8
BLACK
6
CONTINUOUS
10
353.318
20
-112.537
11
353.445
21
-112.655
0
LINE
8
BLACK
6
CONTINUOUS
10
52.7405
20
-114.635
11
52.7234
21
-114.667
0
LINE
8
BLACK
6
CONTINUOUS
10
41.7504
20
-198.458
11
41.7147
21
-198.45
0
LINE
8
BLACK
6
CONTINUOUS
10
223.605
20
-211.321
11
223.636
21
-211.341
0
LINE
8
BLACK
6
CONTINUOUS
10
225.056
20
-126.769
11
225.02
21
-126.768
0
LINE
8
BLACK
6
CONTINUOUS
10
54.5524
20
-114.588
11
54.5326
21
-114.557
0
LINE
8
BLACK
6
CONTINUOUS
10
179.869
20
-128.104
11
179.873
21
-128.141
0
LINE
8
BLACK
6
CONTINUOUS
10
226.061
20
-127.818
11
226.06
21
-127.781
0
LINE
8
BLACK
6
CONTINUOUS
10
53.6329
20
-116.191
11
53.6693
21
-116.191
0
LINE
8
BLACK
6
CONTINUOUS
10
351.484
20
-115.731
11
351.51
21
-115.706
0
LINE
8
BLACK
6
CONTINUOUS
10
349.959
20
-114.297
11
349.937
21
-114.326
0
LINE
8
BLACK
6
CONTINUOUS
10
349.729
20
-114.9
11
349.728
21
-114.936
0
LINE
8
BLACK
6
CONTINUOUS
10
349.763
20
-115.225
11
349.773
21
-115.26
0
LINE
8
BLACK
6
CONTINUOUS
10
181.843
20
-128.504
11
181.86
21
-128.471
0
LINE
8
BLACK
6
CONTINUOUS
10
366.996
20
-200.135
11
366.934
21
-200.298
0
LINE
8
BLACK
6
CONTINUOUS
10
53.9471
20
-111.328
11
54.1187
21
-111.307
0
LINE
8
BLACK
6
CONTINUOUS
10
349.735
20
-115.082
11
349.74
21
-115.118
0
LINE
8
BLACK
6
CONTINUOUS
10
223.195
20
-211.177
11
223.231
21
-211.182
0
LINE
8
BLACK
6
CONTINUOUS
10
54.6476
20
-114.784
11
54.6346
21
-114.75
0
LINE
8
BLACK
6
CONTINUOUS
10
351.561
20
-114.255
11
351.536
21
-114.228
0
LINE
8
BLACK
6
CONTINUOUS
10
299.737
20
-111.267
11
349.988
21
-111.267
0
LINE
8
BLACK
6
CONTINUOUS
10
222.977
20
-211.171
11
223.013
21
-211.169
0
LINE
8
BLACK
6
CONTINUOUS
10
53.7422
20
-114.094
11
53.7058
21
-114.092
0
LINE
8
BLACK
6
CONTINUOUS
10
52.7075
20
-114.7
11
52.6928
21
-114.733
0
LINE
8
BLACK
6
CONTINUOUS
10
52.6668
20
-115.481
11
52.6792
21
-115.515
0
LINE
8
BLACK
6
CONTINUOUS
10
362.31
20
-199.431
11
362.308
21
-199.467
0
LINE
8
BLACK
6
CONTINUOUS
10
224.109
20
-212.236
11
224.107
21
-212.273
0
LINE
8
BLACK
6
CONTINUOUS
10
353.802
20
-113.033
11
353.912
21
-113.168
0
LINE
8
BLACK
6
CONTINUOUS
10
367.298
20
-198.425
11
367.295
21
-198.6
0
LINE
8
BLACK
6
CONTINUOUS
10
183.786
20
-211.76
11
183.769
21
-211.728
0
LINE
8
BLACK
6
CONTINUOUS
10
365.094
20
-202.57
11
364.947
21
-202.665
0
LINE
8
BLACK
6
CONTINUOUS
10
363.507
20
-203.276
11
363.337
21
-203.316
0
LINE
8
BLACK
6
CONTINUOUS
10
350.361
20
-113.991
11
350.328
21
-114.006
0
LINE
8
BLACK
6
CONTINUOUS
10
364.333
20
-199.094
11
364.318
21
-199.061
0
LINE
8
BLACK
6
CONTINUOUS
10
349.784
20
-115.294
11
349.797
21
-115.329
0
LINE
8
BLACK
6
CONTINUOUS
10
183.492
20
-211.394
11
183.463
21
-211.372
0
LINE
8
BLACK
6
CONTINUOUS
10
349.858
20
-115.461
11
349.876
21
-115.493
0
LINE
8
BLACK
6
CONTINUOUS
10
367.104
20
-199.803
11
367.053
21
-199.97
0
LINE
8
BLACK
6
CONTINUOUS
10
179.947
20
-127.605
11
179.934
21
-127.639
0
LINE
8
BLACK
6
CONTINUOUS
10
364.318
20
-199.061
11
364.303
21
-199.028
0
LINE
8
BLACK
6
CONTINUOUS
10
349.728
20
-114.936
11
349.728
21
-114.973
0
LINE
8
BLACK
6
CONTINUOUS
10
223.573
20
-211.303
11
223.605
21
-211.321
0
LINE
8
BLACK
6
CONTINUOUS
10
180.96
20
-126.964
11
180.924
21
-126.963
0
LINE
8
BLACK
6
CONTINUOUS
10
225.794
20
-127.118
11
225.769
21
-127.092
0
LINE
8
BLACK
6
CONTINUOUS
10
224.803
20
-126.789
11
224.767
21
-126.796
0
LINE
8
BLACK
6
CONTINUOUS
10
224.528
20
-126.885
11
224.496
21
-126.902
0
LINE
8
BLACK
6
CONTINUOUS
10
362.876
20
-200.418
11
362.909
21
-200.434
0
LINE
8
BLACK
6
CONTINUOUS
10
41.0747
20
-200.432
11
41.1079
21
-200.447
0
LINE
8
BLACK
6
CONTINUOUS
10
183.752
20
-212.74
11
183.769
21
-212.709
0
LINE
8
BLACK
6
CONTINUOUS
10
179.884
20
-127.814
11
179.878
21
-127.85
0
LINE
8
BLACK
6
CONTINUOUS
10
223.695
20
-211.383
11
223.724
21
-211.405
0
LINE
8
BLACK
6
CONTINUOUS
10
42.0858
20
-200.37
11
42.1163
21
-200.35
0
LINE
8
BLACK
6
CONTINUOUS
10
54.0599
20
-116.112
11
54.0934
21
-116.098
0
LINE
8
BLACK
6
CONTINUOUS
10
362.563
20
-200.171
11
362.587
21
-200.198
0
LINE
8
BLACK
6
CONTINUOUS
10
183.433
20
-211.351
11
183.402
21
-211.331
0
LINE
8
BLACK
6
CONTINUOUS
10
364.171
20
-203.061
11
364.008
21
-203.123
0
LINE
8
BLACK
6
CONTINUOUS
10
352.323
20
-111.845
11
352.475
21
-111.929
0
LINE
8
BLACK
6
CONTINUOUS
10
42.4352
20
-200.005
11
42.4528
21
-199.973
0
LINE
8
BLACK
6
CONTINUOUS
10
351.765
20
-115.312
11
351.777
21
-115.277
0
LINE
8
BLACK
6
CONTINUOUS
10
179.878
20
-128.177
11
179.884
21
-128.213
0
LINE
8
BLACK
6
CONTINUOUS
10
52.8894
20
-114.428
11
52.8651
21
-114.455
0
LINE
8
BLACK
6
CONTINUOUS
10
42.5744
20
-199.483
11
42.5738
21
-199.447
0
LINE
8
BLACK
6
CONTINUOUS
10
52.009
20
-112.026
11
52.1577
21
-111.938
0
LINE
8
BLACK
6
CONTINUOUS
10
182.148
20
-211.429
11
182.121
21
-211.453
0
LINE
8
BLACK
6
CONTINUOUS
10
183.881
20
-212.363
11
183.885
21
-212.327
0
LINE
8
BLACK
6
CONTINUOUS
10
52.6668
20
-114.801
11
52.6556
21
-114.836
0
LINE
8
BLACK
6
CONTINUOUS
10
52.8418
20
-115.799
11
52.8651
21
-115.827
0
LINE
8
BLACK
6
CONTINUOUS
10
351.812
20
-115.136
11
351.818
21
-115.1
0
LINE
8
BLACK
6
CONTINUOUS
10
364.269
20
-200.008
11
364.287
21
-199.976
0
LINE
8
BLACK
6
CONTINUOUS
10
183.402
20
-213.105
11
183.433
21
-213.085
0
LINE
8
BLACK
6
CONTINUOUS
10
54.393
20
-115.893
11
54.4186
21
-115.867
0
LINE
8
BLACK
6
CONTINUOUS
10
40.501
20
-199.718
11
40.5098
21
-199.753
0
LINE
8
BLACK
6
CONTINUOUS
10
41.3881
20
-198.442
11
41.3521
21
-198.447
0
LINE
8
BLACK
6
CONTINUOUS
10
52.6142
20
-115.05
11
52.6117
21
-115.087
0
LINE
8
BLACK
6
CONTINUOUS
10
181.904
20
-211.744
11
181.888
21
-211.777
0
LINE
8
BLACK
6
CONTINUOUS
10
181.889
20
-127.622
11
181.875
21
-127.588
0
LINE
8
BLACK
6
CONTINUOUS
10
196.829
20
-127.423
11
196.887
21
-127.426
0
LINE
8
BLACK
6
CONTINUOUS
10
54.5118
20
-114.527
11
54.49
21
-114.498
0
LINE
8
BLACK
6
CONTINUOUS
10
225.093
20
-128.865
11
225.129
21
-128.861
0
LINE
8
BLACK
6
CONTINUOUS
10
349.797
20
-115.329
11
349.81
21
-115.363
0
LINE
8
BLACK
6
CONTINUOUS
10
42.415
20
-203.42
11
42.2445
21
-203.411
0
LINE
8
BLACK
6
CONTINUOUS
10
181.176
20
-129.03
11
181.212
21
-129.021
0
LINE
8
BLACK
6
CONTINUOUS
10
354.905
20
-115.358
11
354.933
21
-115.529
0
LINE
8
BLACK
6
CONTINUOUS
10
182.597
20
-213.239
11
182.633
21
-213.247
0
LINE
8
BLACK
6
CONTINUOUS
10
42.2571
20
-200.235
11
42.2828
21
-200.209
0
LINE
8
BLACK
6
CONTINUOUS
10
350.641
20
-115.996
11
350.678
21
-116
0
LINE
8
BLACK
6
CONTINUOUS
10
183.851
20
-211.93
11
183.84
21
-211.895
0
LINE
8
BLACK
6
CONTINUOUS
10
41.821
20
-198.476
11
41.7859
21
-198.466
0
LINE
8
BLACK
6
CONTINUOUS
10
363.69
20
-200.482
11
363.724
21
-200.47
0
LINE
8
BLACK
6
CONTINUOUS
10
364.377
20
-199.738
11
364.386
21
-199.703
0
LINE
8
BLACK
6
CONTINUOUS
10
225.862
20
-128.432
11
225.883
21
-128.402
0
LINE
8
BLACK
6
CONTINUOUS
10
354.388
20
-113.891
11
354.468
21
-114.046
0
LINE
8
BLACK
6
CONTINUOUS
10
180.074
20
-127.384
11
180.053
21
-127.414
0
LINE
8
BLACK
6
CONTINUOUS
10
183.031
20
-211.186
11
182.995
21
-211.18
0
LINE
8
BLACK
6
CONTINUOUS
10
181.315
20
-128.984
11
181.348
21
-128.97
0
LINE
8
BLACK
6
CONTINUOUS
10
38.4042
20
-201.164
11
38.313
21
-201.02
0
LINE
8
BLACK
6
CONTINUOUS
10
181.536
20
-127.167
11
181.507
21
-127.146
0
LINE
8
BLACK
6
CONTINUOUS
10
223.974
20
-127.981
11
223.98
21
-128.017
0
LINE
8
BLACK
6
CONTINUOUS
10
223.724
20
-211.405
11
223.751
21
-211.429
0
LINE
8
BLACK
6
CONTINUOUS
10
180.074
20
-128.642
11
180.096
21
-128.671
0
LINE
8
BLACK
6
CONTINUOUS
10
351.51
20
-115.706
11
351.536
21
-115.681
0
LINE
8
BLACK
6
CONTINUOUS
10
299.591
20
-111.269
11
299.737
21
-111.267
0
LINE
8
BLACK
6
CONTINUOUS
10
350.032
20
-115.694
11
350.058
21
-115.719
0
LINE
8
BLACK
6
CONTINUOUS
10
182.121
20
-211.453
11
182.095
21
-211.479
0
LINE
8
BLACK
6
CONTINUOUS
10
224.043
20
-127.41
11
224.03
21
-127.443
0
LINE
8
BLACK
6
CONTINUOUS
10
180.566
20
-127.023
11
180.532
21
-127.036
0
LINE
8
BLACK
6
CONTINUOUS
10
182.121
20
-212.983
11
182.148
21
-213.007
0
LINE
8
BLACK
6
CONTINUOUS
10
222.408
20
-213.042
11
222.38
21
-213.019
0
LINE
8
BLACK
6
CONTINUOUS
10
37.6118
20
-198.932
11
37.5973
21
-198.762
0
LINE
8
BLACK
6
CONTINUOUS
10
223.921
20
-212.817
11
223.9
21
-212.847
0
LINE
8
BLACK
6
CONTINUOUS
10
222.252
20
-212.89
11
222.229
21
-212.862
0
LINE
8
BLACK
6
CONTINUOUS
10
41.042
20
-200.416
11
41.0747
21
-200.432
0
LINE
8
BLACK
6
CONTINUOUS
10
180.338
20
-128.891
11
180.369
21
-128.91
0
LINE
8
BLACK
6
CONTINUOUS
10
222.009
20
-212.218
11
222.009
21
-212.182
0
LINE
8
BLACK
6
CONTINUOUS
10
182.777
20
-211.17
11
182.741
21
-211.173
0
LINE
8
BLACK
6
CONTINUOUS
10
181.818
20
-211.983
11
181.81
21
-212.019
0
LINE
8
BLACK
6
CONTINUOUS
10
349.983
20
-114.269
11
349.959
21
-114.297
0
LINE
8
BLACK
6
CONTINUOUS
10
350.787
20
-113.904
11
350.75
21
-113.905
0
LINE
8
BLACK
6
CONTINUOUS
10
349.858
20
-114.448
11
349.841
21
-114.48
0
LINE
8
BLACK
6
CONTINUOUS
10
183.885
20
-212.109
11
183.881
21
-212.073
0
LINE
8
BLACK
6
CONTINUOUS
10
183.875
20
-212.037
11
183.868
21
-212.001
0
LINE
8
BLACK
6
CONTINUOUS
10
364.368
20
-199.198
11
364.357
21
-199.163
0
LINE
8
BLACK
6
CONTINUOUS
10
224.947
20
-126.77
11
224.911
21
-126.773
0
LINE
8
BLACK
6
CONTINUOUS
10
54.6365
20
-111.28
11
104.91
21
-111.276
0
LINE
8
BLACK
6
CONTINUOUS
10
53.2105
20
-116.09
11
53.2437
21
-116.105
0
LINE
8
BLACK
6
CONTINUOUS
10
182.234
20
-211.361
11
182.205
21
-211.383
0
LINE
8
BLACK
6
CONTINUOUS
10
51.8635
20
-112.119
11
52.009
21
-112.026
0
LINE
8
BLACK
6
CONTINUOUS
10
181.955
20
-127.868
11
181.949
21
-127.832
0
LINE
8
BLACK
6
CONTINUOUS
10
183.885
20
-212.327
11
183.888
21
-212.291
0
LINE
8
BLACK
6
CONTINUOUS
10
226.03
20
-127.565
11
226.021
21
-127.53
0
LINE
8
BLACK
6
CONTINUOUS
10
179.866
20
-127.959
11
179.865
21
-127.995
0
LINE
8
BLACK
6
CONTINUOUS
10
42.376
20
-198.869
11
42.3542
21
-198.84
0
LINE
8
BLACK
6
CONTINUOUS
10
354.83
20
-115.019
11
354.87
21
-115.188
0
LINE
8
BLACK
6
CONTINUOUS
10
367.222
20
-199.293
11
367.188
21
-199.465
0
LINE
8
BLACK
6
CONTINUOUS
10
181.962
20
-128.086
11
181.964
21
-128.05
0
LINE
8
BLACK
6
CONTINUOUS
10
181.962
20
-127.941
11
181.959
21
-127.904
0
LINE
8
BLACK
6
CONTINUOUS
10
225.661
20
-126.994
11
225.632
21
-126.972
0
LINE
8
BLACK
6
CONTINUOUS
10
182.492
20
-213.209
11
182.527
21
-213.22
0
LINE
8
BLACK
6
CONTINUOUS
10
183.371
20
-213.124
11
183.402
21
-213.105
0
LINE
8
BLACK
6
CONTINUOUS
10
366.013
20
-201.771
11
365.894
21
-201.898
0
LINE
8
BLACK
6
CONTINUOUS
10
183.274
20
-211.262
11
183.241
21
-211.247
0
LINE
8
BLACK
6
CONTINUOUS
10
181.767
20
-128.628
11
181.787
21
-128.598
0
LINE
8
BLACK
6
CONTINUOUS
10
222.276
20
-212.918
11
222.252
21
-212.89
0
LINE
8
BLACK
6
CONTINUOUS
10
38.9309
20
-201.835
11
38.8165
21
-201.708
0
LINE
8
BLACK
6
CONTINUOUS
10
223.086
20
-211.168
11
223.123
21
-211.17
0
LINE
8
BLACK
6
CONTINUOUS
10
225.903
20
-127.264
11
225.883
21
-127.233
0
LINE
8
BLACK
6
CONTINUOUS
10
225.956
20
-128.276
11
225.971
21
-128.243
0
LINE
8
BLACK
6
CONTINUOUS
10
224.594
20
-128.782
11
224.628
21
-128.796
0
LINE
8
BLACK
6
CONTINUOUS
10
223.965
20
-127.727
11
223.962
21
-127.763
0
LINE
8
BLACK
6
CONTINUOUS
10
42.146
20
-198.637
11
42.1163
21
-198.616
0
LINE
8
BLACK
6
CONTINUOUS
10
367.053
20
-199.97
11
366.996
21
-200.135
0
LINE
8
BLACK
6
CONTINUOUS
10
183.402
20
-211.331
11
183.371
21
-211.312
0
LINE
8
BLACK
6
CONTINUOUS
10
365.376
20
-202.365
11
365.237
21
-202.47
0
LINE
8
BLACK
6
CONTINUOUS
10
226.055
20
-127.927
11
226.058
21
-127.891
0
LINE
8
BLACK
6
CONTINUOUS
10
225.818
20
-127.146
11
225.794
21
-127.118
0
LINE
8
BLACK
6
CONTINUOUS
10
183.207
20
-213.202
11
183.241
21
-213.189
0
LINE
8
BLACK
6
CONTINUOUS
10
180.013
20
-127.475
11
179.995
21
-127.507
0
LINE
8
BLACK
6
CONTINUOUS
10
180.144
20
-128.726
11
180.169
21
-128.753
0
LINE
8
BLACK
6
CONTINUOUS
10
350.851
20
-111.342
11
351.022
21
-111.375
0
LINE
8
BLACK
6
CONTINUOUS
10
224.265
20
-127.079
11
224.24
21
-127.105
0
LINE
8
BLACK
6
CONTINUOUS
10
224.983
20
-128.867
11
225.02
21
-128.868
0
LINE
8
BLACK
6
CONTINUOUS
10
349.754
20
-115.189
11
349.763
21
-115.225
0
LINE
8
BLACK
6
CONTINUOUS
10
224.404
20
-126.961
11
224.375
21
-126.982
0
LINE
8
BLACK
6
CONTINUOUS
10
362.54
20
-200.143
11
362.563
21
-200.171
0
LINE
8
BLACK
6
CONTINUOUS
10
225.444
20
-128.774
11
225.477
21
-128.759
0
LINE
8
BLACK
6
CONTINUOUS
10
180.096
20
-128.671
11
180.12
21
-128.699
0
LINE
8
BLACK
6
CONTINUOUS
10
224.09
20
-212.019
11
224.096
21
-212.055
0
LINE
8
BLACK
6
CONTINUOUS
10
181.904
20
-212.692
11
181.921
21
-212.725
0
LINE
8
BLACK
6
CONTINUOUS
10
363.337
20
-203.316
11
363.166
21
-203.349
0
LINE
8
BLACK
6
CONTINUOUS
10
181.621
20
-128.79
11
181.648
21
-128.765
0
LINE
8
BLACK
6
CONTINUOUS
10
363.114
20
-200.507
11
363.15
21
-200.515
0
LINE
8
BLACK
6
CONTINUOUS
10
54.4672
20
-115.813
11
54.49
21
-115.785
0
LINE
8
BLACK
6
CONTINUOUS
10
41.7147
20
-198.45
11
41.6788
21
-198.444
0
LINE
8
BLACK
6
CONTINUOUS
10
41.6788
20
-200.522
11
41.7147
21
-200.516
0
LINE
8
BLACK
6
CONTINUOUS
10
223.231
20
-213.254
11
223.195
21
-213.259
0
LINE
8
BLACK
6
CONTINUOUS
10
42.4528
20
-198.993
11
42.4352
21
-198.961
0
LINE
8
BLACK
6
CONTINUOUS
10
299.009
20
-111.32
11
299.154
21
-111.301
0
LINE
8
BLACK
6
CONTINUOUS
10
350.335
20
-111.279
11
350.508
21
-111.294
0
LINE
8
BLACK
6
CONTINUOUS
10
363.44
20
-200.532
11
363.476
21
-200.529
0
LINE
8
BLACK
6
CONTINUOUS
10
363.843
20
-203.18
11
363.676
21
-203.231
0
LINE
8
BLACK
6
CONTINUOUS
10
51.7213
20
-112.218
11
51.8635
21
-112.119
0
LINE
8
BLACK
6
CONTINUOUS
10
52.8418
20
-114.483
11
52.8194
21
-114.512
0
LINE
8
BLACK
6
CONTINUOUS
10
363.888
20
-200.392
11
363.92
21
-200.373
0
LINE
8
BLACK
6
CONTINUOUS
10
53.8146
20
-114.103
11
53.7784
21
-114.098
0
LINE
8
BLACK
6
CONTINUOUS
10
40.531
20
-199.143
11
40.5198
21
-199.178
0
LINE
8
BLACK
6
CONTINUOUS
10
350.085
20
-115.744
11
350.113
21
-115.767
0
LINE
8
BLACK
6
CONTINUOUS
10
54.7096
20
-115.178
11
54.7102
21
-115.141
0
LINE
8
BLACK
6
CONTINUOUS
10
224.073
20
-211.948
11
224.082
21
-211.983
0
LINE
8
BLACK
6
CONTINUOUS
10
222.019
20
-212.073
11
222.025
21
-212.037
0
LINE
8
BLACK
6
CONTINUOUS
10
363.95
20
-200.353
11
363.98
21
-200.332
0
LINE
8
BLACK
6
CONTINUOUS
10
37.69
20
-199.439
11
37.6582
21
-199.271
0
LINE
8
BLACK
6
CONTINUOUS
10
41.3521
20
-200.519
11
41.3881
21
-200.524
0
LINE
8
BLACK
6
CONTINUOUS
10
42.5719
20
-199.41
11
42.5687
21
-199.374
0
LINE
8
BLACK
6
CONTINUOUS
10
354.468
20
-114.046
11
354.542
21
-114.202
0
LINE
8
BLACK
6
CONTINUOUS
10
180.888
20
-129.063
11
180.924
21
-129.063
0
LINE
8
BLACK
6
CONTINUOUS
10
223.9
20
-212.847
11
223.877
21
-212.876
0
LINE
8
BLACK
6
CONTINUOUS
10
50.9471
20
-112.905
11
51.0659
21
-112.78
0
LINE
8
BLACK
6
CONTINUOUS
10
180.924
20
-126.963
11
180.888
21
-126.964
0
LINE
8
BLACK
6
CONTINUOUS
10
226.058
20
-127.745
11
226.055
21
-127.709
0
LINE
8
BLACK
6
CONTINUOUS
10
183.339
20
-213.142
11
183.371
21
-213.124
0
LINE
8
BLACK
6
CONTINUOUS
10
363.079
20
-198.473
11
363.044
21
-198.484
0
LINE
8
BLACK
6
CONTINUOUS
10
37.6321
20
-199.102
11
37.6118
21
-198.932
0
LINE
8
BLACK
6
CONTINUOUS
10
364.406
20
-199.558
11
364.408
21
-199.522
0
LINE
8
BLACK
6
CONTINUOUS
10
54.6594
20
-114.818
11
54.6476
21
-114.784
0
LINE
8
BLACK
6
CONTINUOUS
10
222.186
20
-212.802
11
222.167
21
-212.772
0
LINE
8
BLACK
6
CONTINUOUS
10
182.995
20
-211.18
11
182.959
21
-211.175
0
LINE
8
BLACK
6
CONTINUOUS
10
349.74
20
-114.791
11
349.735
21
-114.827
0
LINE
8
BLACK
6
CONTINUOUS
10
180.532
20
-127.036
11
180.498
21
-127.049
0
LINE
8
BLACK
6
CONTINUOUS
10
364.21
20
-198.871
11
364.188
21
-198.842
0
LINE
8
BLACK
6
CONTINUOUS
10
182.959
20
-213.261
11
182.995
21
-213.257
0
LINE
8
BLACK
6
CONTINUOUS
10
183.828
20
-211.861
11
183.815
21
-211.827
0
LINE
8
BLACK
6
CONTINUOUS
10
174.962
20
-215.718
11
105.544
21
-203.499
0
LINE
8
BLACK
6
CONTINUOUS
10
39.7017
20
-202.507
11
39.5639
21
-202.407
0
LINE
8
BLACK
6
CONTINUOUS
10
225.165
20
-126.779
11
225.129
21
-126.774
0
LINE
8
BLACK
6
CONTINUOUS
10
222.762
20
-213.225
11
222.727
21
-213.214
0
LINE
8
BLACK
6
CONTINUOUS
10
349.983
20
-115.64
11
350.007
21
-115.667
0
LINE
8
BLACK
6
CONTINUOUS
10
181.959
20
-128.122
11
181.962
21
-128.086
0
LINE
8
BLACK
6
CONTINUOUS
10
225.841
20
-127.174
11
225.818
21
-127.146
0
LINE
8
BLACK
6
CONTINUOUS
10
349.916
20
-115.554
11
349.937
21
-115.583
0
LINE
8
BLACK
6
CONTINUOUS
10
51.0659
20
-112.78
11
51.1891
21
-112.659
0
LINE
8
BLACK
6
CONTINUOUS
10
364.269
20
-198.963
11
364.25
21
-198.932
0
LINE
8
BLACK
6
CONTINUOUS
10
181.673
20
-128.74
11
181.698
21
-128.713
0
LINE
8
BLACK
6
CONTINUOUS
10
224.091
20
-127.311
11
224.074
21
-127.344
0
LINE
8
BLACK
6
CONTINUOUS
10
222.019
20
-212.363
11
222.014
21
-212.327
0
LINE
8
BLACK
6
CONTINUOUS
10
179.947
20
-128.421
11
179.962
21
-128.455
0
LINE
8
BLACK
6
CONTINUOUS
10
40.5098
20
-199.753
11
40.5198
21
-199.788
0
LINE
8
BLACK
6
CONTINUOUS
10
183.172
20
-213.214
11
183.207
21
-213.202
0
LINE
8
BLACK
6
CONTINUOUS
10
180.671
20
-129.035
11
180.707
21
-129.042
0
LINE
8
BLACK
6
CONTINUOUS
10
180.308
20
-128.87
11
180.338
21
-128.891
0
LINE
8
BLACK
6
CONTINUOUS
10
54.2216
20
-114.254
11
54.1905
21
-114.235
0
LINE
8
BLACK
6
CONTINUOUS
10
42.3542
20
-198.84
11
42.3314
21
-198.811
0
LINE
8
BLACK
6
CONTINUOUS
10
181.836
20
-211.913
11
181.826
21
-211.948
0
LINE
8
BLACK
6
CONTINUOUS
10
362.316
20
-199.358
11
362.312
21
-199.395
0
LINE
8
BLACK
6
CONTINUOUS
10
182.359
20
-211.285
11
182.326
21
-211.303
0
LINE
8
BLACK
6
CONTINUOUS
10
366.792
20
-200.617
11
366.712
21
-200.772
0
LINE
8
BLACK
6
CONTINUOUS
10
50.1657
20
-114.042
11
50.2458
21
-113.888
0
LINE
8
BLACK
6
CONTINUOUS
10
225.307
20
-128.825
11
225.342
21
-128.814
0
LINE
8
BLACK
6
CONTINUOUS
10
353.445
20
-112.655
11
353.568
21
-112.777
0
LINE
8
BLACK
6
CONTINUOUS
10
351.67
20
-115.508
11
351.689
21
-115.477
0
LINE
8
BLACK
6
CONTINUOUS
10
53.2437
20
-116.105
11
53.2774
21
-116.119
0
LINE
8
BLACK
6
CONTINUOUS
10
350.142
20
-114.119
11
350.113
21
-114.142
0
LINE
8
BLACK
6
CONTINUOUS
10
363.655
20
-198.478
11
363.62
21
-198.469
0
LINE
8
BLACK
6
CONTINUOUS
10
183.547
20
-211.441
11
183.52
21
-211.417
0
LINE
8
BLACK
6
CONTINUOUS
10
41.1758
20
-200.473
11
41.2104
21
-200.485
0
LINE
8
BLACK
6
CONTINUOUS
10
350.263
20
-115.87
11
350.295
21
-115.887
0
LINE
8
BLACK
6
CONTINUOUS
10
351.074
20
-113.947
11
351.039
21
-113.938
0
LINE
8
BLACK
6
CONTINUOUS
10
37.5886
20
-198.592
11
37.5858
21
-198.421
0
LINE
8
BLACK
6
CONTINUOUS
10
52.9407
20
-114.377
11
52.9146
21
-114.402
0
LINE
8
BLACK
6
CONTINUOUS
10
349.735
20
-114.827
11
349.732
21
-114.863
0
LINE
8
BLACK
6
CONTINUOUS
10
299.445
20
-111.275
11
299.591
21
-111.269
0
LINE
8
BLACK
6
CONTINUOUS
10
180.465
20
-127.065
11
180.433
21
-127.081
0
LINE
8
BLACK
6
CONTINUOUS
10
42.5643
20
-199.338
11
42.5586
21
-199.302
0
LINE
8
BLACK
6
CONTINUOUS
10
351.244
20
-115.895
11
351.276
21
-115.879
0
LINE
8
BLACK
6
CONTINUOUS
10
350.171
20
-115.811
11
350.201
21
-115.832
0
LINE
8
BLACK
6
CONTINUOUS
10
182.424
20
-211.254
11
182.391
21
-211.269
0
LINE
8
BLACK
6
CONTINUOUS
10
222.38
20
-211.417
11
222.408
21
-211.394
0
LINE
8
BLACK
6
CONTINUOUS
10
42.4988
20
-199.092
11
42.4846
21
-199.058
0
LINE
8
BLACK
6
CONTINUOUS
10
224.404
20
-128.675
11
224.434
21
-128.695
0
LINE
8
BLACK
6
CONTINUOUS
10
54.1587
20
-116.065
11
54.1905
21
-116.047
0
LINE
8
BLACK
6
CONTINUOUS
10
40.8318
20
-198.694
11
40.8048
21
-198.718
0
LINE
8
BLACK
6
CONTINUOUS
10
41.2806
20
-200.504
11
41.3162
21
-200.512
0
LINE
8
BLACK
6
CONTINUOUS
10
54.5887
20
-114.651
11
54.5711
21
-114.619
0
LINE
8
BLACK
6
CONTINUOUS
10
363.079
20
-200.498
11
363.114
21
-200.507
0
LINE
8
BLACK
6
CONTINUOUS
10
40.6623
20
-198.884
11
40.642
21
-198.914
0
LINE
8
BLACK
6
CONTINUOUS
10
223.475
20
-211.254
11
223.509
21
-211.269
0
LINE
8
BLACK
6
CONTINUOUS
10
181.476
20
-127.126
11
181.445
21
-127.107
0
LINE
8
BLACK
6
CONTINUOUS
10
38.2268
20
-200.872
11
38.1457
21
-200.722
0
LINE
8
BLACK
6
CONTINUOUS
10
180.815
20
-126.968
11
180.779
21
-126.972
0
LINE
8
BLACK
6
CONTINUOUS
10
362.421
20
-199.96
11
362.438
21
-199.992
0
LINE
8
BLACK
6
CONTINUOUS
10
354.542
20
-114.202
11
354.611
21
-114.362
0
LINE
8
BLACK
6
CONTINUOUS
10
225.477
20
-128.759
11
225.509
21
-128.742
0
LINE
8
BLACK
6
CONTINUOUS
10
225.985
20
-127.427
11
225.971
21
-127.393
0
LINE
8
BLACK
6
CONTINUOUS
10
181.792
20
-212.273
11
181.795
21
-212.309
0
LINE
8
BLACK
6
CONTINUOUS
10
54.7102
20
-115.141
11
54.7096
21
-115.105
0
LINE
8
BLACK
6
CONTINUOUS
10
225.201
20
-128.85
11
225.237
21
-128.843
0
LINE
8
BLACK
6
CONTINUOUS
10
351.825
20
-115.027
11
351.827
21
-114.991
0
LINE
8
BLACK
6
CONTINUOUS
10
42.3968
20
-200.067
11
42.4166
21
-200.037
0
LINE
8
BLACK
6
CONTINUOUS
10
179.869
20
-127.922
11
179.866
21
-127.959
0
LINE
8
BLACK
6
CONTINUOUS
10
226.021
20
-127.53
11
226.01
21
-127.495
0
LINE
8
BLACK
6
CONTINUOUS
10
183.89
20
-212.255
11
183.891
21
-212.218
0
LINE
8
BLACK
6
CONTINUOUS
10
41.6788
20
-198.444
11
41.6426
21
-198.44
0
LINE
8
BLACK
6
CONTINUOUS
10
180.433
20
-127.081
11
180.4
21
-127.098
0
LINE
8
BLACK
6
CONTINUOUS
10
54.6945
20
-114.96
11
54.6875
21
-114.924
0
LINE
8
BLACK
6
CONTINUOUS
10
105.346
20
-111.295
11
105.491
21
-111.31
0
LINE
8
BLACK
6
CONTINUOUS
10
350.714
20
-116.002
11
350.75
21
-116.004
0
LINE
8
BLACK
6
CONTINUOUS
10
223.96
20
-212.756
11
223.941
21
-212.787
0
LINE
8
BLACK
6
CONTINUOUS
10
222.904
20
-211.18
11
222.941
21
-211.175
0
LINE
8
BLACK
6
CONTINUOUS
10
180.369
20
-127.116
11
180.338
21
-127.136
0
LINE
8
BLACK
6
CONTINUOUS
10
223.961
20
-127.836
11
223.962
21
-127.872
0
LINE
8
BLACK
6
CONTINUOUS
10
349.895
20
-115.523
11
349.916
21
-115.554
0
LINE
8
BLACK
6
CONTINUOUS
10
223.195
20
-213.259
11
223.159
21
-213.263
0
LINE
8
BLACK
6
CONTINUOUS
10
179.865
20
-128.032
11
179.866
21
-128.068
0
LINE
8
BLACK
6
CONTINUOUS
10
223.086
20
-213.268
11
223.05
21
-213.268
0
LINE
8
BLACK
6
CONTINUOUS
10
362.975
20
-198.508
11
362.942
21
-198.522
0
LINE
8
BLACK
6
CONTINUOUS
10
54.6051
20
-114.683
11
54.5887
21
-114.651
0
LINE
8
BLACK
6
CONTINUOUS
10
42.5517
20
-199.7
11
42.5586
21
-199.664
0
LINE
8
BLACK
6
CONTINUOUS
10
182.705
20
-213.259
11
182.741
21
-213.263
0
LINE
8
BLACK
6
CONTINUOUS
10
42.5687
20
-199.592
11
42.5719
21
-199.556
0
LINE
8
BLACK
6
CONTINUOUS
10
224.149
20
-128.417
11
224.17
21
-128.447
0
LINE
8
BLACK
6
CONTINUOUS
10
225.165
20
-128.856
11
225.201
21
-128.85
0
LINE
8
BLACK
6
CONTINUOUS
10
351.004
20
-113.929
11
350.968
21
-113.922
0
LINE
8
BLACK
6
CONTINUOUS
10
364.489
20
-202.919
11
364.331
21
-202.993
0
LINE
8
BLACK
6
CONTINUOUS
10
362.421
20
-199.011
11
362.406
21
-199.044
0
LINE
8
BLACK
6
CONTINUOUS
10
222.049
20
-212.506
11
222.04
21
-212.471
0
LINE
8
BLACK
6
CONTINUOUS
10
42.5738
20
-199.519
11
42.5744
21
-199.483
0
LINE
8
BLACK
6
CONTINUOUS
10
42.5517
20
-199.266
11
42.5436
21
-199.23
0
LINE
8
BLACK
6
CONTINUOUS
10
42.2571
20
-198.731
11
42.2306
21
-198.706
0
LINE
8
BLACK
6
CONTINUOUS
10
225.342
20
-126.821
11
225.307
21
-126.811
0
LINE
8
BLACK
6
CONTINUOUS
10
42.5118
20
-199.126
11
42.4988
21
-199.092
0
LINE
8
BLACK
6
CONTINUOUS
10
362.994
20
-203.376
11
362.82
21
-203.398
0
LINE
8
BLACK
6
CONTINUOUS
10
42.4166
20
-200.037
11
42.4352
21
-200.005
0
LINE
8
BLACK
6
CONTINUOUS
10
181.81
20
-212.019
11
181.804
21
-212.055
0
LINE
8
BLACK
6
CONTINUOUS
10
53.4879
20
-114.105
11
53.452
21
-114.112
0
LINE
8
BLACK
6
CONTINUOUS
10
40.4935
20
-199.682
11
40.501
21
-199.718
0
LINE
8
BLACK
6
CONTINUOUS
10
364.25
20
-200.039
11
364.269
21
-200.008
0
LINE
8
BLACK
6
CONTINUOUS
10
54.49
20
-115.785
11
54.5118
21
-115.755
0
LINE
8
BLACK
6
CONTINUOUS
10
362.844
20
-198.57
11
362.812
21
-198.589
0
LINE
8
BLACK
6
CONTINUOUS
10
51.5826
20
-112.321
11
51.7213
21
-112.218
0
LINE
8
BLACK
6
CONTINUOUS
10
223.605
20
-213.115
11
223.573
21
-213.133
0
LINE
8
BLACK
6
CONTINUOUS
10
223.921
20
-211.619
11
223.941
21
-211.649
0
LINE
8
BLACK
6
CONTINUOUS
10
181.888
20
-211.777
11
181.873
21
-211.81
0
LINE
8
BLACK
6
CONTINUOUS
10
223.969
20
-127.691
11
223.965
21
-127.727
0
LINE
8
BLACK
6
CONTINUOUS
10
352.624
20
-112.018
11
352.77
21
-112.112
0
LINE
8
BLACK
6
CONTINUOUS
10
229.918
20
-215.718
11
174.962
21
-215.718
0
LINE
8
BLACK
6
CONTINUOUS
10
350.896
20
-113.911
11
350.86
21
-113.908
0
LINE
8
BLACK
6
CONTINUOUS
10
53.3811
20
-116.153
11
53.4164
21
-116.162
0
LINE
8
BLACK
6
CONTINUOUS
10
41.9905
20
-200.424
11
42.0229
21
-200.407
0
LINE
8
BLACK
6
CONTINUOUS
10
41.8558
20
-200.479
11
41.8902
21
-200.467
0
LINE
8
BLACK
6
CONTINUOUS
10
42.4693
20
-199.941
11
42.4846
21
-199.908
0
LINE
8
BLACK
6
CONTINUOUS
10
225.985
20
-128.209
11
225.998
21
-128.175
0
LINE
8
BLACK
6
CONTINUOUS
10
226.03
20
-128.07
11
226.038
21
-128.035
0
LINE
8
BLACK
6
CONTINUOUS
10
52.9676
20
-114.352
11
52.9407
21
-114.377
0
LINE
8
BLACK
6
CONTINUOUS
10
40.4872
20
-199.646
11
40.4935
21
-199.682
0
LINE
8
BLACK
6
CONTINUOUS
10
180.032
20
-127.444
11
180.013
21
-127.475
0
LINE
8
BLACK
6
CONTINUOUS
10
349.729
20
-115.009
11
349.732
21
-115.045
0
LINE
8
BLACK
6
CONTINUOUS
10
37.6582
20
-199.271
11
37.6321
21
-199.102
0
LINE
8
BLACK
6
CONTINUOUS
10
365.512
20
-202.255
11
365.376
21
-202.365
0
LINE
8
BLACK
6
CONTINUOUS
10
53.5239
20
-114.1
11
53.4879
21
-114.105
0
LINE
8
BLACK
6
CONTINUOUS
10
366.538
20
-201.075
11
366.443
21
-201.221
0
LINE
8
BLACK
6
CONTINUOUS
10
223.9
20
-211.589
11
223.921
21
-211.619
0
LINE
8
BLACK
6
CONTINUOUS
10
224.09
20
-212.417
11
224.082
21
-212.453
0
LINE
8
BLACK
6
CONTINUOUS
10
223.373
20
-213.22
11
223.338
21
-213.23
0
LINE
8
BLACK
6
CONTINUOUS
10
363.62
20
-200.502
11
363.655
21
-200.493
0
LINE
8
BLACK
6
CONTINUOUS
10
37.9338
20
-200.256
11
37.8739
21
-200.096
0
LINE
8
BLACK
6
CONTINUOUS
10
222.06
20
-211.895
11
222.071
21
-211.861
0
LINE
8
BLACK
6
CONTINUOUS
10
183.891
20
-212.218
11
183.89
21
-212.182
0
LINE
8
BLACK
6
CONTINUOUS
10
364.798
20
-202.755
11
364.645
21
-202.84
0
LINE
8
BLACK
6
CONTINUOUS
10
42.4846
20
-199.908
11
42.4988
21
-199.874
0
LINE
8
BLACK
6
CONTINUOUS
10
366.865
20
-200.459
11
366.792
21
-200.617
0
LINE
8
BLACK
6
CONTINUOUS
10
224.697
20
-128.82
11
224.732
21
-128.83
0
LINE
8
BLACK
6
CONTINUOUS
10
225.794
20
-128.517
11
225.818
21
-128.49
0
LINE
8
BLACK
6
CONTINUOUS
10
105.544
20
-203.499
11
104.677
21
-203.423
0
LINE
8
BLACK
6
CONTINUOUS
10
222.13
20
-212.709
11
222.114
21
-212.676
0
LINE
8
BLACK
6
CONTINUOUS
10
42.0547
20
-198.577
11
42.0229
21
-198.559
0
LINE
8
BLACK
6
CONTINUOUS
10
364.165
20
-200.157
11
364.188
21
-200.129
0
LINE
8
BLACK
6
CONTINUOUS
10
224.911
20
-126.773
11
224.875
21
-126.777
0
LINE
8
BLACK
6
CONTINUOUS
10
180.671
20
-126.992
11
180.636
21
-127.001
0
LINE
8
BLACK
6
CONTINUOUS
10
53.1458
20
-116.057
11
53.1779
21
-116.074
0
LINE
8
BLACK
6
CONTINUOUS
10
222.025
20
-212.037
11
222.031
21
-212.001
0
LINE
8
BLACK
6
CONTINUOUS
10
183.888
20
-212.145
11
183.885
21
-212.109
0
LINE
8
BLACK
6
CONTINUOUS
10
364.188
20
-198.842
11
364.165
21
-198.814
0
LINE
8
BLACK
6
CONTINUOUS
10
53.3116
20
-114.151
11
53.2774
21
-114.163
0
LINE
8
BLACK
6
CONTINUOUS
10
225.69
20
-128.619
11
225.717
21
-128.595
0
LINE
8
BLACK
6
CONTINUOUS
10
222.437
20
-211.372
11
222.467
21
-211.351
0
LINE
8
BLACK
6
CONTINUOUS
10
182.959
20
-211.175
11
182.923
21
-211.171
0
LINE
8
BLACK
6
CONTINUOUS
10
363.549
20
-198.453
11
363.513
21
-198.447
0
LINE
8
BLACK
6
CONTINUOUS
10
54.6204
20
-114.716
11
54.6051
21
-114.683
0
LINE
8
BLACK
6
CONTINUOUS
10
182.176
20
-211.405
11
182.148
21
-211.429
0
LINE
8
BLACK
6
CONTINUOUS
10
363.01
20
-198.495
11
362.975
21
-198.508
0
LINE
8
BLACK
6
CONTINUOUS
10
181.246
20
-129.01
11
181.281
21
-128.998
0
LINE
8
BLACK
6
CONTINUOUS
10
350.499
20
-115.967
11
350.534
21
-115.976
0
LINE
8
BLACK
6
CONTINUOUS
10
40.6836
20
-200.112
11
40.7059
21
-200.141
0
LINE
8
BLACK
6
CONTINUOUS
10
362.472
20
-203.422
11
362.298
21
-203.425
0
LINE
8
BLACK
6
CONTINUOUS
10
52.8194
20
-114.512
11
52.7981
21
-114.542
0
LINE
8
BLACK
6
CONTINUOUS
10
41.9048
20
-203.376
11
41.736
21
-203.35
0
LINE
8
BLACK
6
CONTINUOUS
10
363.15
20
-200.515
11
363.186
21
-200.521
0
LINE
8
BLACK
6
CONTINUOUS
10
42.2032
20
-198.682
11
42.175
21
-198.659
0
LINE
8
BLACK
6
CONTINUOUS
10
181.105
20
-129.046
11
181.141
21
-129.039
0
LINE
8
BLACK
6
CONTINUOUS
10
181.843
20
-127.523
11
181.826
21
-127.491
0
LINE
8
BLACK
6
CONTINUOUS
10
223.996
20
-212.692
11
223.979
21
-212.725
0
LINE
8
BLACK
6
CONTINUOUS
10
349.81
20
-115.363
11
349.825
21
-115.396
0
LINE
8
BLACK
6
CONTINUOUS
10
52.6104
20
-115.159
11
52.6117
21
-115.196
0
LINE
8
BLACK
6
CONTINUOUS
10
54.5524
20
-115.695
11
54.5711
21
-115.664
0
LINE
8
BLACK
6
CONTINUOUS
10
179.873
20
-128.141
11
179.878
21
-128.177
0
LINE
8
BLACK
6
CONTINUOUS
10
41.6063
20
-200.53
11
41.6426
21
-200.526
0
LINE
8
BLACK
6
CONTINUOUS
10
350.75
20
-113.905
11
350.714
21
-113.906
0
LINE
8
BLACK
6
CONTINUOUS
10
54.6204
20
-115.566
11
54.6346
21
-115.532
0
LINE
8
BLACK
6
CONTINUOUS
10
52.6456
20
-115.411
11
52.6556
21
-115.447
0
LINE
8
BLACK
6
CONTINUOUS
10
223.303
20
-213.239
11
223.267
21
-213.247
0
LINE
8
BLACK
6
CONTINUOUS
10
181.949
20
-128.195
11
181.955
21
-128.159
0
LINE
8
BLACK
6
CONTINUOUS
10
351.765
20
-114.597
11
351.752
21
-114.563
0
LINE
8
BLACK
6
CONTINUOUS
10
364.117
20
-198.759
11
364.091
21
-198.733
0
LINE
8
BLACK
6
CONTINUOUS
10
350.823
20
-116.003
11
350.86
21
-116.001
0
LINE
8
BLACK
6
CONTINUOUS
10
223.407
20
-213.209
11
223.373
21
-213.22
0
LINE
8
BLACK
6
CONTINUOUS
10
225.744
20
-127.066
11
225.717
21
-127.041
0
LINE
8
BLACK
6
CONTINUOUS
10
181.212
20
-129.021
11
181.246
21
-129.01
0
LINE
8
BLACK
6
CONTINUOUS
10
349.763
20
-114.684
11
349.754
21
-114.72
0
LINE
8
BLACK
6
CONTINUOUS
10
183.671
20
-212.862
11
183.693
21
-212.832
0
LINE
8
BLACK
6
CONTINUOUS
10
41.7859
20
-200.5
11
41.821
21
-200.49
0
LINE
8
BLACK
6
CONTINUOUS
10
53.1143
20
-116.038
11
53.1458
21
-116.057
0
LINE
8
BLACK
6
CONTINUOUS
10
223.159
20
-211.173
11
223.195
21
-211.177
0
LINE
8
BLACK
6
CONTINUOUS
10
362.82
20
-203.398
11
362.646
21
-203.413
0
LINE
8
BLACK
6
CONTINUOUS
10
222.014
20
-212.327
11
222.011
21
-212.291
0
LINE
8
BLACK
6
CONTINUOUS
10
349.825
20
-115.396
11
349.841
21
-115.429
0
LINE
8
BLACK
6
CONTINUOUS
10
222.148
20
-211.696
11
222.167
21
-211.664
0
LINE
8
BLACK
6
CONTINUOUS
10
225.444
20
-126.861
11
225.411
21
-126.847
0
LINE
8
BLACK
6
CONTINUOUS
10
351.787
20
-114.667
11
351.777
21
-114.632
0
LINE
8
BLACK
6
CONTINUOUS
10
364.368
20
-199.773
11
364.377
21
-199.738
0
LINE
8
BLACK
6
CONTINUOUS
10
179.962
20
-128.455
11
179.978
21
-128.488
0
LINE
8
BLACK
6
CONTINUOUS
10
364.037
20
-200.287
11
364.064
21
-200.263
0
LINE
8
BLACK
6
CONTINUOUS
10
54.5887
20
-115.632
11
54.6051
21
-115.599
0
LINE
8
BLACK
6
CONTINUOUS
10
183.815
20
-211.827
11
183.801
21
-211.793
0
LINE
8
BLACK
6
CONTINUOUS
10
364.346
20
-199.843
11
364.357
21
-199.808
0
LINE
8
BLACK
6
CONTINUOUS
10
42.175
20
-200.307
11
42.2032
21
-200.284
0
LINE
8
BLACK
6
CONTINUOUS
10
349.959
20
-115.612
11
349.983
21
-115.64
0
LINE
8
BLACK
6
CONTINUOUS
10
181.348
20
-128.97
11
181.381
21
-128.954
0
LINE
8
BLACK
6
CONTINUOUS
10
179.978
20
-127.539
11
179.962
21
-127.572
0
LINE
8
BLACK
6
CONTINUOUS
10
224.082
20
-211.983
11
224.09
21
-212.019
0
LINE
8
BLACK
6
CONTINUOUS
10
351.822
20
-115.064
11
351.825
21
-115.027
0
LINE
8
BLACK
6
CONTINUOUS
10
183.733
20
-212.772
11
183.752
21
-212.74
0
LINE
8
BLACK
6
CONTINUOUS
10
41.7147
20
-200.516
11
41.7504
21
-200.508
0
LINE
8
BLACK
6
CONTINUOUS
10
225.237
20
-128.843
11
225.272
21
-128.835
0
LINE
8
BLACK
6
CONTINUOUS
10
52.6117
20
-115.087
11
52.6104
21
-115.123
0
LINE
8
BLACK
6
CONTINUOUS
10
183.624
20
-212.918
11
183.648
21
-212.89
0
LINE
8
BLACK
6
CONTINUOUS
10
364.408
20
-199.449
11
364.406
21
-199.413
0
LINE
8
BLACK
6
CONTINUOUS
10
364.333
20
-199.877
11
364.346
21
-199.843
0
LINE
8
BLACK
6
CONTINUOUS
10
222.529
20
-213.124
11
222.497
21
-213.105
0
LINE
8
BLACK
6
CONTINUOUS
10
53.8863
20
-114.116
11
53.8505
21
-114.109
0
LINE
8
BLACK
6
CONTINUOUS
10
181.536
20
-128.86
11
181.565
21
-128.838
0
LINE
8
BLACK
6
CONTINUOUS
10
42.0547
20
-200.389
11
42.0858
21
-200.37
0
LINE
8
BLACK
6
CONTINUOUS
10
365.771
20
-202.022
11
365.643
21
-202.141
0
LINE
8
BLACK
6
CONTINUOUS
10
54.4636
20
-111.283
11
54.6365
21
-111.28
0
LINE
8
BLACK
6
CONTINUOUS
10
225.717
20
-128.595
11
225.744
21
-128.57
0
LINE
8
BLACK
6
CONTINUOUS
10
224.063
20
-211.913
11
224.073
21
-211.948
0
LINE
8
BLACK
6
CONTINUOUS
10
223.83
20
-211.505
11
223.854
21
-211.532
0
LINE
8
BLACK
6
CONTINUOUS
10
367.295
20
-198.6
11
367.285
21
-198.774
0
LINE
8
BLACK
6
CONTINUOUS
10
54.2216
20
-116.029
11
54.2521
21
-116.008
0
LINE
8
BLACK
6
CONTINUOUS
10
362.327
20
-199.685
11
362.335
21
-199.72
0
LINE
8
BLACK
6
CONTINUOUS
10
42.5719
20
-199.556
11
42.5738
21
-199.519
0
LINE
8
BLACK
6
CONTINUOUS
10
364.141
20
-198.786
11
364.117
21
-198.759
0
LINE
8
BLACK
6
CONTINUOUS
10
53.7784
20
-114.098
11
53.7422
21
-114.094
0
LINE
8
BLACK
6
CONTINUOUS
10
54.026
20
-116.125
11
54.0599
21
-116.112
0
LINE
8
BLACK
6
CONTINUOUS
10
53.5965
20
-114.093
11
53.5602
21
-114.096
0
LINE
8
BLACK
6
CONTINUOUS
10
224.058
20
-128.259
11
224.074
21
-128.292
0
LINE
8
BLACK
6
CONTINUOUS
10
224.732
20
-126.806
11
224.697
21
-126.816
0
LINE
8
BLACK
6
CONTINUOUS
10
354.611
20
-114.362
11
354.674
21
-114.523
0
LINE
8
BLACK
6
CONTINUOUS
10
350.464
20
-113.952
11
350.429
21
-113.964
0
LINE
8
BLACK
6
CONTINUOUS
10
40.642
20
-200.052
11
40.6623
21
-200.082
0
LINE
8
BLACK
6
CONTINUOUS
10
53.1053
20
-111.52
11
53.2708
21
-111.47
0
LINE
8
BLACK
6
CONTINUOUS
10
53.6065
20
-111.387
11
53.7763
21
-111.354
0
LINE
8
BLACK
6
CONTINUOUS
10
179.884
20
-128.213
11
179.892
21
-128.248
0
LINE
8
BLACK
6
CONTINUOUS
10
54.6794
20
-114.889
11
54.67
21
-114.853
0
LINE
8
BLACK
6
CONTINUOUS
10
52.9954
20
-114.328
11
52.9676
21
-114.352
0
LINE
8
BLACK
6
CONTINUOUS
10
349.876
20
-115.493
11
349.895
21
-115.523
0
LINE
8
BLACK
6
CONTINUOUS
10
224.318
20
-128.607
11
224.346
21
-128.631
0
LINE
8
BLACK
6
CONTINUOUS
10
223.804
20
-211.479
11
223.83
21
-211.505
0
LINE
8
BLACK
6
CONTINUOUS
10
54.67
20
-115.429
11
54.6794
21
-115.394
0
LINE
8
BLACK
6
CONTINUOUS
10
179.866
20
-128.068
11
179.869
21
-128.104
0
LINE
8
BLACK
6
CONTINUOUS
10
363.294
20
-200.534
11
363.331
21
-200.535
0
LINE
8
BLACK
6
CONTINUOUS
10
181.86
20
-211.844
11
181.848
21
-211.878
0
LINE
8
BLACK
6
CONTINUOUS
10
223.373
20
-211.216
11
223.407
21
-211.228
0
LINE
8
BLACK
6
CONTINUOUS
10
53.6693
20
-116.191
11
53.7058
21
-116.19
0
LINE
8
BLACK
6
CONTINUOUS
10
53.7422
20
-116.188
11
53.7784
21
-116.185
0
LINE
8
BLACK
6
CONTINUOUS
10
40.8048
20
-198.718
11
40.7787
21
-198.744
0
LINE
8
BLACK
6
CONTINUOUS
10
222.167
20
-211.664
11
222.186
21
-211.634
0
LINE
8
BLACK
6
CONTINUOUS
10
225.603
20
-128.685
11
225.632
21
-128.664
0
LINE
8
BLACK
6
CONTINUOUS
10
351.797
20
-114.702
11
351.787
21
-114.667
0
LINE
8
BLACK
6
CONTINUOUS
10
363.186
20
-200.521
11
363.222
21
-200.527
0
LINE
8
BLACK
6
CONTINUOUS
10
300.202
20
-203.425
11
299.336
21
-203.501
0
LINE
8
BLACK
6
CONTINUOUS
10
224.628
20
-126.84
11
224.594
21
-126.854
0
LINE
8
BLACK
6
CONTINUOUS
10
222.011
20
-212.145
11
222.014
21
-212.109
0
LINE
8
BLACK
6
CONTINUOUS
10
181.949
20
-127.832
11
181.942
21
-127.796
0
LINE
8
BLACK
6
CONTINUOUS
10
224.983
20
-126.768
11
224.947
21
-126.77
0
LINE
8
BLACK
6
CONTINUOUS
10
351.536
20
-114.228
11
351.51
21
-114.202
0
LINE
8
BLACK
6
CONTINUOUS
10
183.031
20
-213.251
11
183.067
21
-213.244
0
LINE
8
BLACK
6
CONTINUOUS
10
49.958
20
-114.517
11
50.0218
21
-114.356
0
LINE
8
BLACK
6
CONTINUOUS
10
362.31
20
-199.54
11
362.312
21
-199.577
0
LINE
8
BLACK
6
CONTINUOUS
10
350.932
20
-115.993
11
350.968
21
-115.987
0
LINE
8
BLACK
6
CONTINUOUS
10
52.618
20
-115.014
11
52.6142
21
-115.05
0
LINE
8
BLACK
6
CONTINUOUS
10
366.628
20
-200.925
11
366.538
21
-201.075
0
LINE
8
BLACK
6
CONTINUOUS
10
363.166
20
-203.349
11
362.994
21
-203.376
0
LINE
8
BLACK
6
CONTINUOUS
10
351.37
20
-114.087
11
351.339
21
-114.067
0
LINE
8
BLACK
6
CONTINUOUS
10
41.7859
20
-198.466
11
41.7504
21
-198.458
0
LINE
8
BLACK
6
CONTINUOUS
10
181.959
20
-127.904
11
181.955
21
-127.868
0
LINE
8
BLACK
6
CONTINUOUS
10
350.678
20
-113.909
11
350.641
21
-113.913
0
LINE
8
BLACK
6
CONTINUOUS
10
349.732
20
-114.863
11
349.729
21
-114.9
0
LINE
8
BLACK
6
CONTINUOUS
10
180.636
20
-127.001
11
180.601
21
-127.011
0
LINE
8
BLACK
6
CONTINUOUS
10
54.4186
20
-115.867
11
54.4434
21
-115.841
0
LINE
8
BLACK
6
CONTINUOUS
10
183.713
20
-211.634
11
183.693
21
-211.604
0
LINE
8
BLACK
6
CONTINUOUS
10
179.921
20
-128.353
11
179.934
21
-128.388
0
LINE
8
BLACK
6
CONTINUOUS
10
224.697
20
-126.816
11
224.662
21
-126.827
0
LINE
8
BLACK
6
CONTINUOUS
10
182.777
20
-213.266
11
182.814
21
-213.268
0
LINE
8
BLACK
6
CONTINUOUS
10
183.241
20
-213.189
11
183.274
21
-213.175
0
LINE
8
BLACK
6
CONTINUOUS
10
363.824
20
-198.545
11
363.791
21
-198.529
0
LINE
8
BLACK
6
CONTINUOUS
10
225.971
20
-127.393
11
225.956
21
-127.36
0
LINE
8
BLACK
6
CONTINUOUS
10
349.876
20
-114.416
11
349.858
21
-114.448
0
LINE
8
BLACK
6
CONTINUOUS
10
224.434
20
-126.94
11
224.404
21
-126.961
0
LINE
8
BLACK
6
CONTINUOUS
10
224.346
20
-127.005
11
224.318
21
-127.029
0
LINE
8
BLACK
6
CONTINUOUS
10
222.114
20
-211.76
11
222.13
21
-211.728
0
LINE
8
BLACK
6
CONTINUOUS
10
223.98
20
-127.619
11
223.974
21
-127.654
0
LINE
8
BLACK
6
CONTINUOUS
10
181.848
20
-212.558
11
181.86
21
-212.592
0
LINE
8
BLACK
6
CONTINUOUS
10
222.071
20
-212.575
11
222.06
21
-212.541
0
LINE
8
BLACK
6
CONTINUOUS
10
350.787
20
-116.004
11
350.823
21
-116.003
0
LINE
8
BLACK
6
CONTINUOUS
10
222.031
20
-212.001
11
222.04
21
-211.965
0
LINE
8
BLACK
6
CONTINUOUS
10
183.671
20
-211.575
11
183.648
21
-211.546
0
LINE
8
BLACK
6
CONTINUOUS
10
349.81
20
-114.546
11
349.797
21
-114.58
0
LINE
8
BLACK
6
CONTINUOUS
10
53.2105
20
-114.192
11
53.1779
21
-114.209
0
LINE
8
BLACK
6
CONTINUOUS
10
181.445
20
-128.92
11
181.476
21
-128.901
0
LINE
8
BLACK
6
CONTINUOUS
10
40.6228
20
-200.021
11
40.642
21
-200.052
0
LINE
8
BLACK
6
CONTINUOUS
10
362.298
20
-203.425
11
300.202
21
-203.425
0
LINE
8
BLACK
6
CONTINUOUS
10
350.68
20
-111.315
11
350.851
21
-111.342
0
LINE
8
BLACK
6
CONTINUOUS
10
182.424
20
-213.182
11
182.458
21
-213.196
0
LINE
8
BLACK
6
CONTINUOUS
10
225.129
20
-126.774
11
225.093
21
-126.771
0
LINE
8
BLACK
6
CONTINUOUS
10
40.7535
20
-200.196
11
40.7787
21
-200.222
0
LINE
8
BLACK
6
CONTINUOUS
10
42.4988
20
-199.874
11
42.5118
21
-199.84
0
LINE
8
BLACK
6
CONTINUOUS
10
349.732
20
-115.045
11
349.735
21
-115.082
0
LINE
8
BLACK
6
CONTINUOUS
10
222.593
20
-213.159
11
222.56
21
-213.142
0
LINE
8
BLACK
6
CONTINUOUS
10
224.096
20
-212.055
11
224.101
21
-212.091
0
LINE
8
BLACK
6
CONTINUOUS
10
53.3462
20
-114.139
11
53.3116
21
-114.151
0
LINE
8
BLACK
6
CONTINUOUS
10
41.4607
20
-198.435
11
41.4243
21
-198.438
0
LINE
8
BLACK
6
CONTINUOUS
10
180.053
20
-128.613
11
180.074
21
-128.642
0
LINE
8
BLACK
6
CONTINUOUS
10
366.238
20
-201.503
11
366.128
21
-201.639
0
LINE
8
BLACK
6
CONTINUOUS
10
181.176
20
-126.996
11
181.141
21
-126.988
0
LINE
8
BLACK
6
CONTINUOUS
10
222.693
20
-211.234
11
222.727
21
-211.222
0
LINE
8
BLACK
6
CONTINUOUS
10
223.941
20
-212.787
11
223.921
21
-212.817
0
LINE
8
BLACK
6
CONTINUOUS
10
363.724
20
-198.501
11
363.69
21
-198.489
0
LINE
8
BLACK
6
CONTINUOUS
10
362.812
20
-198.589
11
362.782
21
-198.608
0
LINE
8
BLACK
6
CONTINUOUS
10
52.6142
20
-115.232
11
52.618
21
-115.268
0
LINE
8
BLACK
6
CONTINUOUS
10
183.84
20
-211.895
11
183.828
21
-211.861
0
LINE
8
BLACK
6
CONTINUOUS
10
351.004
20
-115.98
11
351.039
21
-115.971
0
LINE
8
BLACK
6
CONTINUOUS
10
179.865
20
-127.995
11
179.865
21
-128.032
0
LINE
8
BLACK
6
CONTINUOUS
10
181.565
20
-128.838
11
181.594
21
-128.814
0
LINE
8
BLACK
6
CONTINUOUS
10
181.787
20
-128.598
11
181.807
21
-128.567
0
LINE
8
BLACK
6
CONTINUOUS
10
42.5342
20
-199.195
11
42.5236
21
-199.16
0
LINE
8
BLACK
6
CONTINUOUS
10
351.812
20
-114.773
11
351.805
21
-114.737
0
LINE
8
BLACK
6
CONTINUOUS
10
54.7096
20
-115.105
11
54.7077
21
-115.068
0
LINE
8
BLACK
6
CONTINUOUS
10
349.895
20
-114.385
11
349.876
21
-114.416
0
LINE
8
BLACK
6
CONTINUOUS
10
362.909
20
-200.434
11
362.942
21
-200.449
0
LINE
8
BLACK
6
CONTINUOUS
10
54.1263
20
-116.082
11
54.1587
21
-116.065
0
LINE
8
BLACK
6
CONTINUOUS
10
364.406
20
-199.413
11
364.403
21
-199.376
0
LINE
8
BLACK
6
CONTINUOUS
10
183.492
20
-213.042
11
183.52
21
-213.019
0
LINE
8
BLACK
6
CONTINUOUS
10
363.331
20
-200.535
11
363.367
21
-200.536
0
LINE
8
BLACK
6
CONTINUOUS
10
367.285
20
-198.774
11
367.27
21
-198.948
0
LINE
8
BLACK
6
CONTINUOUS
10
180.888
20
-126.964
11
180.851
21
-126.965
0
LINE
8
BLACK
6
CONTINUOUS
10
223.96
20
-211.68
11
223.979
21
-211.712
0
LINE
8
BLACK
6
CONTINUOUS
10
222.497
20
-211.331
11
222.529
21
-211.312
0
LINE
8
BLACK
6
CONTINUOUS
10
183.86
20
-212.471
11
183.868
21
-212.435
0
LINE
8
BLACK
6
CONTINUOUS
10
225.237
20
-126.792
11
225.201
21
-126.785
0
LINE
8
BLACK
6
CONTINUOUS
10
225.377
20
-126.834
11
225.342
21
-126.821
0
LINE
8
BLACK
6
CONTINUOUS
10
183.624
20
-211.519
11
183.599
21
-211.492
0
LINE
8
BLACK
6
CONTINUOUS
10
362.438
20
-198.979
11
362.421
21
-199.011
0
LINE
8
BLACK
6
CONTINUOUS
10
350.968
20
-115.987
11
351.004
21
-115.98
0
LINE
8
BLACK
6
CONTINUOUS
10
182.095
20
-211.479
11
182.07
21
-211.505
0
LINE
8
BLACK
6
CONTINUOUS
10
363.69
20
-198.489
11
363.655
21
-198.478
0
LINE
8
BLACK
6
CONTINUOUS
10
181.804
20
-212.055
11
181.799
21
-212.091
0
LINE
8
BLACK
6
CONTINUOUS
10
362.751
20
-200.342
11
362.782
21
-200.363
0
LINE
8
BLACK
6
CONTINUOUS
10
52.7075
20
-115.583
11
52.7234
21
-115.615
0
LINE
8
BLACK
6
CONTINUOUS
10
181.86
20
-212.592
11
181.873
21
-212.626
0
LINE
8
BLACK
6
CONTINUOUS
10
353.186
20
-112.423
11
353.318
21
-112.537
0
LINE
8
BLACK
6
CONTINUOUS
10
40.2849
20
-202.862
11
40.1347
21
-202.781
0
LINE
8
BLACK
6
CONTINUOUS
10
363.476
20
-198.442
11
363.44
21
-198.439
0
LINE
8
BLACK
6
CONTINUOUS
10
222.38
20
-213.019
11
222.353
21
-212.995
0
LINE
8
BLACK
6
CONTINUOUS
10
350.429
20
-115.945
11
350.464
21
-115.956
0
LINE
8
BLACK
6
CONTINUOUS
10
222.06
20
-212.541
11
222.049
21
-212.506
0
LINE
8
BLACK
6
CONTINUOUS
10
351.818
20
-115.1
11
351.822
21
-115.064
0
LINE
8
BLACK
6
CONTINUOUS
10
42.5118
20
-199.84
11
42.5236
21
-199.806
0
LINE
8
BLACK
6
CONTINUOUS
10
224.875
20
-128.859
11
224.911
21
-128.863
0
LINE
8
BLACK
6
CONTINUOUS
10
225.971
20
-128.243
11
225.985
21
-128.209
0
LINE
8
BLACK
6
CONTINUOUS
10
225.841
20
-128.461
11
225.862
21
-128.432
0
LINE
8
BLACK
6
CONTINUOUS
10
224.528
20
-128.75
11
224.561
21
-128.767
0
LINE
8
BLACK
6
CONTINUOUS
10
52.7778
20
-114.572
11
52.7586
21
-114.603
0
LINE
8
BLACK
6
CONTINUOUS
10
182.814
20
-213.268
11
182.85
21
-213.268
0
LINE
8
BLACK
6
CONTINUOUS
10
224.101
20
-212.345
11
224.096
21
-212.381
0
LINE
8
BLACK
6
CONTINUOUS
10
224.434
20
-128.695
11
224.465
21
-128.715
0
LINE
8
BLACK
6
CONTINUOUS
10
362.693
20
-200.298
11
362.722
21
-200.321
0
LINE
8
BLACK
6
CONTINUOUS
10
224.096
20
-212.381
11
224.09
21
-212.417
0
LINE
8
BLACK
6
CONTINUOUS
10
39.5639
20
-202.407
11
39.4297
21
-202.301
0
LINE
8
BLACK
6
CONTINUOUS
10
182.562
20
-213.23
11
182.597
21
-213.239
0
LINE
8
BLACK
6
CONTINUOUS
10
40.5434
20
-199.857
11
40.557
21
-199.891
0
LINE
8
BLACK
6
CONTINUOUS
10
42.4166
20
-198.929
11
42.3968
21
-198.899
0
LINE
8
BLACK
6
CONTINUOUS
10
362.496
20
-200.085
11
362.517
21
-200.114
0
LINE
8
BLACK
6
CONTINUOUS
10
54.7001
20
-114.996
11
54.6945
21
-114.96
0
LINE
8
BLACK
6
CONTINUOUS
10
223.013
20
-211.169
11
223.05
21
-211.168
0
LINE
8
BLACK
6
CONTINUOUS
10
367.149
20
-199.635
11
367.104
21
-199.803
0
LINE
8
BLACK
6
CONTINUOUS
10
222.099
20
-211.793
11
222.114
21
-211.76
0
LINE
8
BLACK
6
CONTINUOUS
10
181.925
20
-127.725
11
181.914
21
-127.691
0
LINE
8
BLACK
6
CONTINUOUS
10
351.428
20
-114.13
11
351.399
21
-114.108
0
LINE
8
BLACK
6
CONTINUOUS
10
350.171
20
-114.098
11
350.142
21
-114.119
0
LINE
8
BLACK
6
CONTINUOUS
10
50.091
20
-114.198
11
50.1657
21
-114.042
0
LINE
8
BLACK
6
CONTINUOUS
10
224.052
20
-211.878
11
224.063
21
-211.913
0
LINE
8
BLACK
6
CONTINUOUS
10
351.827
20
-114.918
11
351.825
21
-114.882
0
LINE
8
BLACK
6
CONTINUOUS
10
40.4784
20
-199.392
11
40.4758
21
-199.428
0
LINE
8
BLACK
6
CONTINUOUS
10
363.404
20
-200.535
11
363.44
21
-200.532
0
LINE
8
BLACK
6
CONTINUOUS
10
52.9954
20
-115.954
11
53.0241
21
-115.977
0
LINE
8
BLACK
6
CONTINUOUS
10
224.006
20
-127.512
11
223.996
21
-127.547
0
LINE
8
BLACK
6
CONTINUOUS
10
351.777
20
-115.277
11
351.787
21
-115.242
0
LINE
8
BLACK
6
CONTINUOUS
10
362.517
20
-200.114
11
362.54
21
-200.143
0
LINE
8
BLACK
6
CONTINUOUS
10
182.741
20
-211.173
11
182.705
21
-211.177
0
LINE
8
BLACK
6
CONTINUOUS
10
41.4971
20
-198.433
11
41.4607
21
-198.435
0
LINE
8
BLACK
6
CONTINUOUS
10
363.549
20
-200.518
11
363.584
21
-200.511
0
LINE
8
BLACK
6
CONTINUOUS
10
41.6063
20
-198.436
11
41.57
21
-198.434
0
LINE
8
BLACK
6
CONTINUOUS
10
224.149
20
-127.218
11
224.128
21
-127.249
0
LINE
8
BLACK
6
CONTINUOUS
10
224.128
20
-128.387
11
224.149
21
-128.417
0
LINE
8
BLACK
6
CONTINUOUS
10
180.433
20
-128.946
11
180.465
21
-128.962
0
LINE
8
BLACK
6
CONTINUOUS
10
223.804
20
-212.957
11
223.778
21
-212.983
0
LINE
8
BLACK
6
CONTINUOUS
10
52.9407
20
-115.906
11
52.9676
21
-115.93
0
LINE
8
BLACK
6
CONTINUOUS
10
224.732
20
-128.83
11
224.767
21
-128.839
0
LINE
8
BLACK
6
CONTINUOUS
10
354.87
20
-115.188
11
354.905
21
-115.358
0
LINE
8
BLACK
6
CONTINUOUS
10
52.6369
20
-114.906
11
52.6293
21
-114.942
0
LINE
8
BLACK
6
CONTINUOUS
10
54.0934
20
-116.098
11
54.1263
21
-116.082
0
LINE
8
BLACK
6
CONTINUOUS
10
182.923
20
-211.171
11
182.886
21
-211.169
0
LINE
8
BLACK
6
CONTINUOUS
10
42.5436
20
-199.736
11
42.5517
21
-199.7
0
LINE
8
BLACK
6
CONTINUOUS
10
52.8194
20
-115.77
11
52.8418
21
-115.799
0
LINE
8
BLACK
6
CONTINUOUS
10
208.838
20
-127.423
11
208.897
21
-127.419
0
LINE
8
BLACK
6
CONTINUOUS
10
364.064
20
-198.709
11
364.037
21
-198.684
0
LINE
8
BLACK
6
CONTINUOUS
10
180.743
20
-126.978
11
180.707
21
-126.984
0
LINE
8
BLACK
6
CONTINUOUS
10
224.058
20
-127.376
11
224.043
21
-127.41
0
LINE
8
BLACK
6
CONTINUOUS
10
223.778
20
-212.983
11
223.751
21
-213.007
0
LINE
8
BLACK
6
CONTINUOUS
10
223.013
20
-213.267
11
222.977
21
-213.265
0
LINE
8
BLACK
6
CONTINUOUS
10
365.643
20
-202.141
11
365.512
21
-202.255
0
LINE
8
BLACK
6
CONTINUOUS
10
349.747
20
-115.154
11
349.754
21
-115.189
0
LINE
8
BLACK
6
CONTINUOUS
10
363.857
20
-198.561
11
363.824
21
-198.545
0
LINE
8
BLACK
6
CONTINUOUS
10
52.9417
20
-111.576
11
53.1053
21
-111.52
0
LINE
8
BLACK
6
CONTINUOUS
10
362.517
20
-198.857
11
362.496
21
-198.886
0
LINE
8
BLACK
6
CONTINUOUS
10
362.391
20
-199.894
11
362.406
21
-199.927
0
LINE
8
BLACK
6
CONTINUOUS
10
353.687
20
-112.903
11
353.802
21
-113.033
0
LINE
8
BLACK
6
CONTINUOUS
10
181.888
20
-212.66
11
181.904
21
-212.692
0
LINE
8
BLACK
6
CONTINUOUS
10
181.804
20
-212.381
11
181.81
21
-212.417
0
LINE
8
BLACK
6
CONTINUOUS
10
53.9217
20
-114.124
11
53.8863
21
-114.116
0
LINE
8
BLACK
6
CONTINUOUS
10
224.091
20
-128.324
11
224.109
21
-128.356
0
LINE
8
BLACK
6
CONTINUOUS
10
350.896
20
-115.998
11
350.932
21
-115.993
0
LINE
8
BLACK
6
CONTINUOUS
10
225.093
20
-126.771
11
225.056
21
-126.769
0
LINE
8
BLACK
6
CONTINUOUS
10
223.407
20
-211.228
11
223.442
21
-211.24
0
LINE
8
BLACK
6
CONTINUOUS
10
222.762
20
-211.211
11
222.797
21
-211.201
0
LINE
8
BLACK
6
CONTINUOUS
10
363.62
20
-198.469
11
363.584
21
-198.46
0
LINE
8
BLACK
6
CONTINUOUS
10
225.939
20
-127.327
11
225.922
21
-127.295
0
LINE
8
BLACK
6
CONTINUOUS
10
226.06
20
-127.781
11
226.058
21
-127.745
0
LINE
8
BLACK
6
CONTINUOUS
10
54.6476
20
-115.498
11
54.6594
21
-115.464
0
LINE
8
BLACK
6
CONTINUOUS
10
222.3
20
-211.492
11
222.326
21
-211.466
0
LINE
8
BLACK
6
CONTINUOUS
10
40.5098
20
-199.213
11
40.501
21
-199.248
0
LINE
8
BLACK
6
CONTINUOUS
10
181.792
20
-212.163
11
181.791
21
-212.2
0
LINE
8
BLACK
6
CONTINUOUS
10
354.017
20
-113.306
11
354.117
21
-113.447
0
LINE
8
BLACK
6
CONTINUOUS
10
179.892
20
-128.248
11
179.9
21
-128.284
0
LINE
8
BLACK
6
CONTINUOUS
10
50.7227
20
-113.169
11
50.8326
21
-113.035
0
LINE
8
BLACK
6
CONTINUOUS
10
351.276
20
-115.879
11
351.308
21
-115.861
0
LINE
8
BLACK
6
CONTINUOUS
10
225.377
20
-128.802
11
225.411
21
-128.789
0
LINE
8
BLACK
6
CONTINUOUS
10
224.105
20
-212.127
11
224.107
21
-212.163
0
LINE
8
BLACK
6
CONTINUOUS
10
208.956
20
-127.413
11
209.014
21
-127.405
0
LINE
8
BLACK
6
CONTINUOUS
10
105.055
20
-111.278
11
105.201
21
-111.284
0
LINE
8
BLACK
6
CONTINUOUS
10
225.744
20
-128.57
11
225.769
21
-128.544
0
LINE
8
BLACK
6
CONTINUOUS
10
53.1143
20
-114.244
11
53.0835
21
-114.264
0
LINE
8
BLACK
6
CONTINUOUS
10
52.6104
20
-115.123
11
52.6104
21
-115.159
0
LINE
8
BLACK
6
CONTINUOUS
10
183.752
20
-211.696
11
183.733
21
-211.664
0
LINE
8
BLACK
6
CONTINUOUS
10
181.281
20
-127.029
11
181.246
21
-127.017
0
LINE
8
BLACK
6
CONTINUOUS
10
54.2818
20
-114.295
11
54.2521
21
-114.274
0
LINE
8
BLACK
6
CONTINUOUS
10
364.117
20
-200.212
11
364.141
21
-200.185
0
LINE
8
BLACK
6
CONTINUOUS
10
179.892
20
-127.778
11
179.884
21
-127.814
0
LINE
8
BLACK
6
CONTINUOUS
10
182.095
20
-212.957
11
182.121
21
-212.983
0
LINE
8
BLACK
6
CONTINUOUS
10
352.77
20
-112.112
11
352.912
21
-112.211
0
LINE
8
BLACK
6
CONTINUOUS
10
40.7292
20
-200.169
11
40.7535
21
-200.196
0
LINE
8
BLACK
6
CONTINUOUS
10
183.84
20
-212.541
11
183.851
21
-212.506
0
LINE
8
BLACK
6
CONTINUOUS
10
182.295
20
-211.321
11
182.264
21
-211.341
0
LINE
8
BLACK
6
CONTINUOUS
10
225.572
20
-126.93
11
225.541
21
-126.912
0
LINE
8
BLACK
6
CONTINUOUS
10
179.962
20
-127.572
11
179.947
21
-127.605
0
LINE
8
BLACK
6
CONTINUOUS
10
181.141
20
-126.988
11
181.105
21
-126.981
0
LINE
8
BLACK
6
CONTINUOUS
10
364.386
20
-199.703
11
364.392
21
-199.667
0
LINE
8
BLACK
6
CONTINUOUS
10
363.114
20
-198.464
11
363.079
21
-198.473
0
LINE
8
BLACK
6
CONTINUOUS
10
181.959
20
-211.649
11
181.939
21
-211.68
0
LINE
8
BLACK
6
CONTINUOUS
10
180.032
20
-128.582
11
180.053
21
-128.613
0
LINE
8
BLACK
6
CONTINUOUS
10
351.022
20
-111.375
11
351.191
21
-111.414
0
LINE
8
BLACK
6
CONTINUOUS
10
54.7077
20
-115.068
11
54.7045
21
-115.032
0
LINE
8
BLACK
6
CONTINUOUS
10
181.875
20
-127.588
11
181.86
21
-127.555
0
LINE
8
BLACK
6
CONTINUOUS
10
362.321
20
-199.322
11
362.316
21
-199.358
0
LINE
8
BLACK
6
CONTINUOUS
10
54.6875
20
-114.924
11
54.6794
21
-114.889
0
LINE
8
BLACK
6
CONTINUOUS
10
181.902
20
-128.371
11
181.914
21
-128.336
0
LINE
8
BLACK
6
CONTINUOUS
10
183.851
20
-212.506
11
183.86
21
-212.471
0
LINE
8
BLACK
6
CONTINUOUS
10
40.8882
20
-200.318
11
40.9176
21
-200.34
0
LINE
8
BLACK
6
CONTINUOUS
10
350.569
20
-113.925
11
350.534
21
-113.933
0
LINE
8
BLACK
6
CONTINUOUS
10
181.807
20
-128.567
11
181.826
21
-128.536
0
LINE
8
BLACK
6
CONTINUOUS
10
183.801
20
-211.793
11
183.786
21
-211.76
0
LINE
8
BLACK
6
CONTINUOUS
10
182.741
20
-213.263
11
182.777
21
-213.266
0
LINE
8
BLACK
6
CONTINUOUS
10
224.107
20
-212.163
11
224.109
21
-212.2
0
LINE
8
BLACK
6
CONTINUOUS
10
54.291
20
-111.292
11
54.4636
21
-111.283
0
LINE
8
BLACK
6
CONTINUOUS
10
223.941
20
-211.649
11
223.96
21
-211.68
0
LINE
8
BLACK
6
CONTINUOUS
10
223.854
20
-211.532
11
223.877
21
-211.56
0
LINE
8
BLACK
6
CONTINUOUS
10
54.1905
20
-116.047
11
54.2216
21
-116.029
0
LINE
8
BLACK
6
CONTINUOUS
10
42.5687
20
-199.374
11
42.5643
21
-199.338
0
LINE
8
BLACK
6
CONTINUOUS
10
182.492
20
-211.228
11
182.458
21
-211.24
0
LINE
8
BLACK
6
CONTINUOUS
10
39.9873
20
-202.695
11
39.8429
21
-202.604
0
LINE
8
BLACK
6
CONTINUOUS
10
40.7787
20
-198.744
11
40.7535
21
-198.77
0
LINE
8
BLACK
6
CONTINUOUS
10
54.2521
20
-114.274
11
54.2216
21
-114.254
0
LINE
8
BLACK
6
CONTINUOUS
10
350.007
20
-114.242
11
349.983
21
-114.269
0
LINE
8
BLACK
6
CONTINUOUS
10
182.814
20
-211.168
11
182.777
21
-211.17
0
LINE
8
BLACK
6
CONTINUOUS
10
53.5602
20
-116.186
11
53.5965
21
-116.189
0
LINE
8
BLACK
6
CONTINUOUS
10
351.822
20
-114.845
11
351.818
21
-114.809
0
LINE
8
BLACK
6
CONTINUOUS
10
364.141
20
-200.185
11
364.165
21
-200.157
0
LINE
8
BLACK
6
CONTINUOUS
10
362.844
20
-200.401
11
362.876
21
-200.418
0
LINE
8
BLACK
6
CONTINUOUS
10
183.138
20
-213.225
11
183.172
21
-213.214
0
LINE
8
BLACK
6
CONTINUOUS
10
349.773
20
-115.26
11
349.784
21
-115.294
0
LINE
8
BLACK
6
CONTINUOUS
10
362.942
20
-200.449
11
362.975
21
-200.463
0
LINE
8
BLACK
6
CONTINUOUS
10
54.1263
20
-114.2
11
54.0934
21
-114.185
0
LINE
8
BLACK
6
CONTINUOUS
10
181.069
20
-129.052
11
181.105
21
-129.046
0
LINE
8
BLACK
6
CONTINUOUS
10
225.883
20
-128.402
11
225.903
21
-128.371
0
LINE
8
BLACK
6
CONTINUOUS
10
53.9217
20
-116.158
11
53.9568
21
-116.148
0
LINE
8
BLACK
6
CONTINUOUS
10
350.714
20
-113.906
11
350.678
21
-113.909
0
LINE
8
BLACK
6
CONTINUOUS
10
354.933
20
-115.529
11
367.298
21
-198.425
0
LINE
8
BLACK
6
CONTINUOUS
10
224.662
20
-128.808
11
224.697
21
-128.82
0
LINE
8
BLACK
6
CONTINUOUS
10
364.377
20
-199.233
11
364.368
21
-199.198
0
LINE
8
BLACK
6
CONTINUOUS
10
180.532
20
-128.991
11
180.566
21
-129.004
0
LINE
8
BLACK
6
CONTINUOUS
10
225.272
20
-128.835
11
225.307
21
-128.825
0
LINE
8
BLACK
6
CONTINUOUS
10
183.769
20
-211.728
11
183.752
21
-211.696
0
LINE
8
BLACK
6
CONTINUOUS
10
222.727
20
-211.222
11
222.762
21
-211.211
0
LINE
8
BLACK
6
CONTINUOUS
10
40.8882
20
-198.648
11
40.8596
21
-198.67
0
LINE
8
BLACK
6
CONTINUOUS
10
351.339
20
-114.067
11
351.308
21
-114.048
0
LINE
8
BLACK
6
CONTINUOUS
10
52.6293
20
-114.942
11
52.623
21
-114.978
0
LINE
8
BLACK
6
CONTINUOUS
10
362.406
20
-199.927
11
362.421
21
-199.96
0
LINE
8
BLACK
6
CONTINUOUS
10
53.8505
20
-116.174
11
53.8863
21
-116.167
0
LINE
8
BLACK
6
CONTINUOUS
10
49.8998
20
-114.679
11
49.958
21
-114.517
0
LINE
8
BLACK
6
CONTINUOUS
10
40.557
20
-199.891
11
40.5717
21
-199.924
0
LINE
8
BLACK
6
CONTINUOUS
10
105.78
20
-111.352
11
196.597
21
-127.396
0
LINE
8
BLACK
6
CONTINUOUS
10
350.085
20
-114.165
11
350.058
21
-114.19
0
LINE
8
BLACK
6
CONTINUOUS
10
350.508
20
-111.294
11
350.68
21
-111.315
0
LINE
8
BLACK
6
CONTINUOUS
10
52.9146
20
-114.402
11
52.8894
21
-114.428
0
LINE
8
BLACK
6
CONTINUOUS
10
225.769
20
-127.092
11
225.744
21
-127.066
0
LINE
8
BLACK
6
CONTINUOUS
10
40.6836
20
-198.854
11
40.6623
21
-198.884
0
LINE
8
BLACK
6
CONTINUOUS
10
54.7045
20
-115.25
11
54.7077
21
-115.214
0
LINE
8
BLACK
6
CONTINUOUS
10
181.81
20
-212.417
11
181.818
21
-212.453
0
LINE
8
BLACK
6
CONTINUOUS
10
226.038
20
-128.035
11
226.045
21
-127.999
0
LINE
8
BLACK
6
CONTINUOUS
10
53.6693
20
-114.091
11
53.6329
21
-114.092
0
LINE
8
BLACK
6
CONTINUOUS
10
364.386
20
-199.268
11
364.377
21
-199.233
0
LINE
8
BLACK
6
CONTINUOUS
10
42.0229
20
-198.559
11
41.9905
21
-198.542
0
LINE
8
BLACK
6
CONTINUOUS
10
41.1758
20
-198.493
11
41.1416
21
-198.505
0
LINE
8
BLACK
6
CONTINUOUS
10
225.883
20
-127.233
11
225.862
21
-127.204
0
LINE
8
BLACK
6
CONTINUOUS
10
223.267
20
-213.247
11
223.231
21
-213.254
0
LINE
8
BLACK
6
CONTINUOUS
10
53.5965
20
-116.189
11
53.6329
21
-116.191
0
LINE
8
BLACK
6
CONTINUOUS
10
181.955
20
-128.159
11
181.959
21
-128.122
0
LINE
8
BLACK
6
CONTINUOUS
10
54.3664
20
-114.364
11
54.339
21
-114.34
0
LINE
8
BLACK
6
CONTINUOUS
10
39.8429
20
-202.604
11
39.7017
21
-202.507
0
LINE
8
BLACK
6
CONTINUOUS
10
225.307
20
-126.811
11
225.272
21
-126.801
0
LINE
8
BLACK
6
CONTINUOUS
10
363.222
20
-200.527
11
363.258
21
-200.531
0
LINE
8
BLACK
6
CONTINUOUS
10
223.969
20
-127.945
11
223.974
21
-127.981
0
LINE
8
BLACK
6
CONTINUOUS
10
40.8596
20
-198.67
11
40.8318
21
-198.694
0
LINE
8
BLACK
6
CONTINUOUS
10
181.959
20
-212.787
11
181.979
21
-212.817
0
LINE
8
BLACK
6
CONTINUOUS
10
182.669
20
-211.182
11
182.633
21
-211.189
0
LINE
8
BLACK
6
CONTINUOUS
10
181.86
20
-128.471
11
181.875
21
-128.438
0
LINE
8
BLACK
6
CONTINUOUS
10
351.65
20
-115.539
11
351.67
21
-115.508
0
LINE
8
BLACK
6
CONTINUOUS
10
54.6346
20
-115.532
11
54.6476
21
-115.498
0
LINE
8
BLACK
6
CONTINUOUS
10
223.987
20
-127.583
11
223.98
21
-127.619
0
LINE
8
BLACK
6
CONTINUOUS
10
222.207
20
-211.604
11
222.229
21
-211.575
0
LINE
8
BLACK
6
CONTINUOUS
10
225.509
20
-126.894
11
225.477
21
-126.877
0
LINE
8
BLACK
6
CONTINUOUS
10
41.2104
20
-198.481
11
41.1758
21
-198.493
0
LINE
8
BLACK
6
CONTINUOUS
10
224.465
20
-126.921
11
224.434
21
-126.94
0
LINE
8
BLACK
6
CONTINUOUS
10
181.476
20
-128.901
11
181.507
21
-128.881
0
LINE
8
BLACK
6
CONTINUOUS
10
364.398
20
-199.34
11
364.392
21
-199.304
0
LINE
8
BLACK
6
CONTINUOUS
10
223.666
20
-213.075
11
223.636
21
-213.096
0
LINE
8
BLACK
6
CONTINUOUS
10
351.399
20
-115.801
11
351.428
21
-115.779
0
LINE
8
BLACK
6
CONTINUOUS
10
183.433
20
-213.085
11
183.463
21
-213.064
0
LINE
8
BLACK
6
CONTINUOUS
10
222.833
20
-211.193
11
222.869
21
-211.186
0
LINE
8
BLACK
6
CONTINUOUS
10
182.669
20
-213.254
11
182.705
21
-213.259
0
LINE
8
BLACK
6
CONTINUOUS
10
41.4243
20
-200.528
11
41.4607
21
-200.531
0
LINE
8
BLACK
6
CONTINUOUS
10
222.593
20
-211.277
11
222.626
21
-211.262
0
LINE
8
BLACK
6
CONTINUOUS
10
183.463
20
-213.064
11
183.492
21
-213.042
0
LINE
8
BLACK
6
CONTINUOUS
10
40.9176
20
-198.626
11
40.8882
21
-198.648
0
LINE
8
BLACK
6
CONTINUOUS
10
362.876
20
-198.553
11
362.844
21
-198.57
0
LINE
8
BLACK
6
CONTINUOUS
10
351.074
20
-115.962
11
351.109
21
-115.951
0
LINE
8
BLACK
6
CONTINUOUS
10
182.995
20
-213.257
11
183.031
21
-213.251
0
LINE
8
BLACK
6
CONTINUOUS
10
53.8146
20
-116.18
11
53.8505
21
-116.174
0
LINE
8
BLACK
6
CONTINUOUS
10
222.727
20
-213.214
11
222.693
21
-213.202
0
LINE
8
BLACK
6
CONTINUOUS
10
223.987
20
-128.053
11
223.996
21
-128.088
0
LINE
8
BLACK
6
CONTINUOUS
10
183.801
20
-212.643
11
183.815
21
-212.609
0
LINE
8
BLACK
6
CONTINUOUS
10
52.7801
20
-111.637
11
52.9417
21
-111.576
0
LINE
8
BLACK
6
CONTINUOUS
10
183.574
20
-211.466
11
183.547
21
-211.441
0
LINE
8
BLACK
6
CONTINUOUS
10
224.875
20
-126.777
11
224.838
21
-126.782
0
LINE
8
BLACK
6
CONTINUOUS
10
362.335
20
-199.72
11
362.344
21
-199.756
0
LINE
8
BLACK
6
CONTINUOUS
10
180.4
20
-128.929
11
180.433
21
-128.946
0
LINE
8
BLACK
6
CONTINUOUS
10
183.241
20
-211.247
11
183.207
21
-211.234
0
LINE
8
BLACK
6
CONTINUOUS
10
180.566
20
-129.004
11
180.601
21
-129.015
0
LINE
8
BLACK
6
CONTINUOUS
10
222.084
20
-212.609
11
222.071
21
-212.575
0
LINE
8
BLACK
6
CONTINUOUS
10
364.303
20
-199.028
11
364.287
21
-198.995
0
LINE
8
BLACK
6
CONTINUOUS
10
224.662
20
-126.827
11
224.628
21
-126.84
0
LINE
8
BLACK
6
CONTINUOUS
10
52.6117
20
-115.196
11
52.6142
21
-115.232
0
LINE
8
BLACK
6
CONTINUOUS
10
40.8048
20
-200.248
11
40.8318
21
-200.272
0
LINE
8
BLACK
6
CONTINUOUS
10
180.851
20
-126.965
11
180.815
21
-126.968
0
LINE
8
BLACK
6
CONTINUOUS
10
182
20
-211.589
11
181.979
21
-211.619
0
LINE
8
BLACK
6
CONTINUOUS
10
42.4528
20
-199.973
11
42.4693
21
-199.941
0
LINE
8
BLACK
6
CONTINUOUS
10
351.484
20
-114.177
11
351.456
21
-114.153
0
LINE
8
BLACK
6
CONTINUOUS
10
183.371
20
-211.312
11
183.339
21
-211.294
0
LINE
8
BLACK
6
CONTINUOUS
10
54.5326
20
-115.725
11
54.5524
21
-115.695
0
LINE
8
BLACK
6
CONTINUOUS
10
182.07
20
-212.931
11
182.095
21
-212.957
0
LINE
8
BLACK
6
CONTINUOUS
10
183.86
20
-211.965
11
183.851
21
-211.93
0
LINE
8
BLACK
6
CONTINUOUS
10
180.4
20
-127.098
11
180.369
21
-127.116
0
LINE
8
BLACK
6
CONTINUOUS
10
362.722
20
-200.321
11
362.751
21
-200.342
0
LINE
8
BLACK
6
CONTINUOUS
10
351.805
20
-115.172
11
351.812
21
-115.136
0
LINE
8
BLACK
6
CONTINUOUS
10
223.636
20
-213.096
11
223.605
21
-213.115
0
LINE
8
BLACK
6
CONTINUOUS
10
224.026
20
-211.81
11
224.04
21
-211.844
0
LINE
8
BLACK
6
CONTINUOUS
10
42.3314
20
-198.811
11
42.3075
21
-198.784
0
LINE
8
BLACK
6
CONTINUOUS
10
181.934
20
-128.266
11
181.942
21
-128.23
0
LINE
8
BLACK
6
CONTINUOUS
10
179.934
20
-127.639
11
179.921
21
-127.673
0
LINE
8
BLACK
6
CONTINUOUS
10
351.827
20
-114.991
11
351.828
21
-114.954
0
LINE
8
BLACK
6
CONTINUOUS
10
351.723
20
-114.497
11
351.706
21
-114.464
0
LINE
8
BLACK
6
CONTINUOUS
10
225.201
20
-126.785
11
225.165
21
-126.779
0
LINE
8
BLACK
6
CONTINUOUS
10
182.326
20
-213.133
11
182.359
21
-213.151
0
LINE
8
BLACK
6
CONTINUOUS
10
182.205
20
-211.383
11
182.176
21
-211.405
0
LINE
8
BLACK
6
CONTINUOUS
10
181.818
20
-212.453
11
181.826
21
-212.488
0
LINE
8
BLACK
6
CONTINUOUS
10
362.476
20
-200.055
11
362.496
21
-200.085
0
LINE
8
BLACK
6
CONTINUOUS
10
222.114
20
-212.676
11
222.099
21
-212.643
0
LINE
8
BLACK
6
CONTINUOUS
10
182.022
20
-211.56
11
182
21
-211.589
0
LINE
8
BLACK
6
CONTINUOUS
10
222.659
20
-213.189
11
222.626
21
-213.175
0
LINE
8
BLACK
6
CONTINUOUS
10
180.25
20
-127.201
11
180.222
21
-127.224
0
LINE
8
BLACK
6
CONTINUOUS
10
180.195
20
-128.778
11
180.222
21
-128.803
0
LINE
8
BLACK
6
CONTINUOUS
10
52.7586
20
-114.603
11
52.7405
21
-114.635
0
LINE
8
BLACK
6
CONTINUOUS
10
41.2104
20
-200.485
11
41.2453
21
-200.495
0
LINE
8
BLACK
6
CONTINUOUS
10
42.2828
20
-198.757
11
42.2571
21
-198.731
0
LINE
8
BLACK
6
CONTINUOUS
10
42.1163
20
-198.616
11
42.0858
21
-198.596
0
LINE
8
BLACK
6
CONTINUOUS
10
53.4379
20
-111.426
11
53.6065
21
-111.387
0
LINE
8
BLACK
6
CONTINUOUS
10
363.367
20
-198.436
11
363.331
21
-198.436
0
LINE
8
BLACK
6
CONTINUOUS
10
350.058
20
-115.719
11
350.085
21
-115.744
0
LINE
8
BLACK
6
CONTINUOUS
10
224.109
20
-128.356
11
224.128
21
-128.387
0
LINE
8
BLACK
6
CONTINUOUS
10
363.758
20
-200.456
11
363.791
21
-200.442
0
LINE
8
BLACK
6
CONTINUOUS
10
364.357
20
-199.808
11
364.368
21
-199.773
0
LINE
8
BLACK
6
CONTINUOUS
10
362.391
20
-199.077
11
362.377
21
-199.111
0
LINE
8
BLACK
6
CONTINUOUS
10
223.974
20
-127.654
11
223.969
21
-127.691
0
LINE
8
BLACK
6
CONTINUOUS
10
180.707
20
-126.984
11
180.671
21
-126.992
0
LINE
8
BLACK
6
CONTINUOUS
10
362.327
20
-199.286
11
362.321
21
-199.322
0
LINE
8
BLACK
6
CONTINUOUS
10
51.3163
20
-112.541
11
51.4476
21
-112.429
0
LINE
8
BLACK
6
CONTINUOUS
10
183.067
20
-213.244
11
183.102
21
-213.235
0
LINE
8
BLACK
6
CONTINUOUS
10
53.8505
20
-114.109
11
53.8146
21
-114.103
0
LINE
8
BLACK
6
CONTINUOUS
10
224.052
20
-212.558
11
224.04
21
-212.592
0
LINE
8
BLACK
6
CONTINUOUS
10
224.346
20
-128.631
11
224.375
21
-128.653
0
LINE
8
BLACK
6
CONTINUOUS
10
42.0229
20
-200.407
11
42.0547
21
-200.389
0
LINE
8
BLACK
6
CONTINUOUS
10
354.674
20
-114.523
11
354.732
21
-114.687
0
LINE
8
BLACK
6
CONTINUOUS
10
225.603
20
-126.95
11
225.572
21
-126.93
0
LINE
8
BLACK
6
CONTINUOUS
10
181.722
20
-128.685
11
181.745
21
-128.657
0
LINE
8
BLACK
6
CONTINUOUS
10
224.767
20
-126.796
11
224.732
21
-126.806
0
LINE
8
BLACK
6
CONTINUOUS
10
183.067
20
-211.193
11
183.031
21
-211.186
0
LINE
8
BLACK
6
CONTINUOUS
10
181.795
20
-212.309
11
181.799
21
-212.345
0
LINE
8
BLACK
6
CONTINUOUS
10
40.501
20
-199.248
11
40.4935
21
-199.284
0
LINE
8
BLACK
6
CONTINUOUS
10
224.265
20
-128.557
11
224.291
21
-128.582
0
LINE
8
BLACK
6
CONTINUOUS
10
222.148
20
-212.74
11
222.13
21
-212.709
0
LINE
8
BLACK
6
CONTINUOUS
10
183.207
20
-211.234
11
183.172
21
-211.222
0
LINE
8
BLACK
6
CONTINUOUS
10
222.467
20
-213.085
11
222.437
21
-213.064
0
LINE
8
BLACK
6
CONTINUOUS
10
180.779
20
-129.054
11
180.815
21
-129.059
0
LINE
8
BLACK
6
CONTINUOUS
10
222.025
20
-212.399
11
222.019
21
-212.363
0
LINE
8
BLACK
6
CONTINUOUS
10
52.9676
20
-115.93
11
52.9954
21
-115.954
0
LINE
8
BLACK
6
CONTINUOUS
10
52.9146
20
-115.88
11
52.9407
21
-115.906
0
LINE
8
BLACK
6
CONTINUOUS
10
54.6051
20
-115.599
11
54.6204
21
-115.566
0
LINE
8
BLACK
6
CONTINUOUS
10
183.786
20
-212.676
11
183.801
21
-212.643
0
LINE
8
BLACK
6
CONTINUOUS
10
226.058
20
-127.891
11
226.06
21
-127.854
0
LINE
8
BLACK
6
CONTINUOUS
10
222.186
20
-211.634
11
222.207
21
-211.604
0
LINE
8
BLACK
6
CONTINUOUS
10
180.601
20
-127.011
11
180.566
21
-127.023
0
LINE
8
BLACK
6
CONTINUOUS
10
225.477
20
-126.877
11
225.444
21
-126.861
0
LINE
8
BLACK
6
CONTINUOUS
10
41.2806
20
-198.462
11
41.2453
21
-198.471
0
LINE
8
BLACK
6
CONTINUOUS
10
183.52
20
-211.417
11
183.492
21
-211.394
0
LINE
8
BLACK
6
CONTINUOUS
10
351.752
20
-114.563
11
351.738
21
-114.53
0
LINE
8
BLACK
6
CONTINUOUS
10
52.6928
20
-114.733
11
52.6792
21
-114.767
0
LINE
8
BLACK
6
CONTINUOUS
10
40.5933
20
-203.009
11
40.4378
21
-202.938
0
LINE
8
BLACK
6
CONTINUOUS
10
182.295
20
-213.115
11
182.326
21
-213.133
0
LINE
8
BLACK
6
CONTINUOUS
10
53.7784
20
-116.185
11
53.8146
21
-116.18
0
LINE
8
BLACK
6
CONTINUOUS
10
352.168
20
-111.767
11
352.323
21
-111.845
0
LINE
8
BLACK
6
CONTINUOUS
10
363.888
20
-198.579
11
363.857
21
-198.561
0
LINE
8
BLACK
6
CONTINUOUS
10
225.862
20
-127.204
11
225.841
21
-127.174
0
LINE
8
BLACK
6
CONTINUOUS
10
350.429
20
-113.964
11
350.395
21
-113.977
0
LINE
8
BLACK
6
CONTINUOUS
10
351.456
20
-114.153
11
351.428
21
-114.13
0
LINE
8
BLACK
6
CONTINUOUS
10
362.377
20
-199.111
11
362.365
21
-199.146
0
LINE
8
BLACK
6
CONTINUOUS
10
222.797
20
-211.201
11
222.833
21
-211.193
0
LINE
8
BLACK
6
CONTINUOUS
10
224.026
20
-212.626
11
224.011
21
-212.66
0
LINE
8
BLACK
6
CONTINUOUS
10
180.465
20
-128.962
11
180.498
21
-128.977
0
LINE
8
BLACK
6
CONTINUOUS
10
222.084
20
-211.827
11
222.099
21
-211.793
0
LINE
8
BLACK
6
CONTINUOUS
10
183.648
20
-211.546
11
183.624
21
-211.519
0
LINE
8
BLACK
6
CONTINUOUS
10
180.053
20
-127.414
11
180.032
21
-127.444
0
LINE
8
BLACK
6
CONTINUOUS
10
366.343
20
-201.364
11
366.238
21
-201.503
0
LINE
8
BLACK
6
CONTINUOUS
10
223.877
20
-211.56
11
223.9
21
-211.589
0
LINE
8
BLACK
6
CONTINUOUS
10
181.507
20
-128.881
11
181.536
21
-128.86
0
LINE
8
BLACK
6
CONTINUOUS
10
224.496
20
-128.733
11
224.528
21
-128.75
0
LINE
8
BLACK
6
CONTINUOUS
10
181.799
20
-212.345
11
181.804
21
-212.381
0
LINE
8
BLACK
6
CONTINUOUS
10
54.1905
20
-114.235
11
54.1587
21
-114.217
0
LINE
8
BLACK
6
CONTINUOUS
10
49.7596
20
-115.179
11
49.8006
21
-115.011
0
LINE
8
BLACK
6
CONTINUOUS
10
181.942
20
-127.796
11
181.934
21
-127.761
0
LINE
8
BLACK
6
CONTINUOUS
10
52.6369
20
-115.376
11
52.6456
21
-115.411
0
LINE
8
BLACK
6
CONTINUOUS
10
52.8651
20
-114.455
11
52.8418
21
-114.483
0
LINE
8
BLACK
6
CONTINUOUS
10
41.5335
20
-198.433
11
41.4971
21
-198.433
0
LINE
8
BLACK
6
CONTINUOUS
10
223.751
20
-211.429
11
223.778
21
-211.453
0
LINE
8
BLACK
6
CONTINUOUS
10
42.146
20
-200.329
11
42.175
21
-200.307
0
LINE
8
BLACK
6
CONTINUOUS
10
42.4846
20
-199.058
11
42.4693
21
-199.025
0
LINE
8
BLACK
6
CONTINUOUS
10
49.8006
20
-115.011
11
49.8473
21
-114.844
0
LINE
8
BLACK
6
CONTINUOUS
10
225.769
20
-128.544
11
225.794
21
-128.517
0
LINE
8
BLACK
6
CONTINUOUS
10
209.014
20
-127.405
11
209.072
21
-127.396
0
LINE
8
BLACK
6
CONTINUOUS
10
364.947
20
-202.665
11
364.798
21
-202.755
0
LINE
8
BLACK
6
CONTINUOUS
10
351.585
20
-115.626
11
351.607
21
-115.598
0
LINE
8
BLACK
6
CONTINUOUS
10
41.9905
20
-198.542
11
41.9576
21
-198.526
0
LINE
8
BLACK
6
CONTINUOUS
10
362.312
20
-199.577
11
362.316
21
-199.613
0
LINE
8
BLACK
6
CONTINUOUS
10
54.4434
20
-114.442
11
54.4186
21
-114.415
0
LINE
8
BLACK
6
CONTINUOUS
10
351.777
20
-114.632
11
351.765
21
-114.597
0
LINE
8
BLACK
6
CONTINUOUS
10
222.56
20
-213.142
11
222.529
21
-213.124
0
LINE
8
BLACK
6
CONTINUOUS
10
364.091
20
-200.238
11
364.117
21
-200.212
0
LINE
8
BLACK
6
CONTINUOUS
10
350.968
20
-113.922
11
350.932
21
-113.916
0
LINE
8
BLACK
6
CONTINUOUS
10
362.693
20
-198.673
11
362.666
21
-198.696
0
LINE
8
BLACK
6
CONTINUOUS
10
223.573
20
-213.133
11
223.541
21
-213.151
0
LINE
8
BLACK
6
CONTINUOUS
10
181.873
20
-212.626
11
181.888
21
-212.66
0
LINE
8
BLACK
6
CONTINUOUS
10
181.745
20
-127.37
11
181.722
21
-127.342
0
LINE
8
BLACK
6
CONTINUOUS
10
363.724
20
-200.47
11
363.758
21
-200.456
0
LINE
8
BLACK
6
CONTINUOUS
10
351.629
20
-115.569
11
351.65
21
-115.539
0
LINE
8
BLACK
6
CONTINUOUS
10
224.04
20
-212.592
11
224.026
21
-212.626
0
LINE
8
BLACK
6
CONTINUOUS
10
223.778
20
-211.453
11
223.804
21
-211.479
0
LINE
8
BLACK
6
CONTINUOUS
10
224.17
20
-128.447
11
224.192
21
-128.475
0
LINE
8
BLACK
6
CONTINUOUS
10
39.4297
20
-202.301
11
39.2991
21
-202.191
0
LINE
8
BLACK
6
CONTINUOUS
10
181.807
20
-127.46
11
181.787
21
-127.429
0
LINE
8
BLACK
6
CONTINUOUS
10
363.367
20
-200.536
11
363.404
21
-200.535
0
LINE
8
BLACK
6
CONTINUOUS
10
224.017
20
-128.158
11
224.03
21
-128.192
0
LINE
8
BLACK
6
CONTINUOUS
10
52.6792
20
-114.767
11
52.6668
21
-114.801
0
LINE
8
BLACK
6
CONTINUOUS
10
180.308
20
-127.156
11
180.279
21
-127.178
0
LINE
8
BLACK
6
CONTINUOUS
10
223.996
20
-128.088
11
224.006
21
-128.123
0
LINE
8
BLACK
6
CONTINUOUS
10
363.95
20
-198.618
11
363.92
21
-198.598
0
LINE
8
BLACK
6
CONTINUOUS
10
38.313
20
-201.02
11
38.2268
21
-200.872
0
LINE
8
BLACK
6
CONTINUOUS
10
362.639
20
-200.25
11
362.666
21
-200.275
0
LINE
8
BLACK
6
CONTINUOUS
10
351.828
20
-114.954
11
351.827
21
-114.918
0
LINE
8
BLACK
6
CONTINUOUS
10
181.889
20
-128.405
11
181.902
21
-128.371
0
LINE
8
BLACK
6
CONTINUOUS
10
222.326
20
-212.97
11
222.3
21
-212.944
0
LINE
8
BLACK
6
CONTINUOUS
10
40.9477
20
-200.36
11
40.9785
21
-200.38
0
LINE
8
BLACK
6
CONTINUOUS
10
40.5876
20
-199.009
11
40.5717
21
-199.042
0
LINE
8
BLACK
6
CONTINUOUS
10
365.894
20
-201.898
11
365.771
21
-202.022
0
LINE
8
BLACK
6
CONTINUOUS
10
180.636
20
-129.026
11
180.671
21
-129.035
0
LINE
8
BLACK
6
CONTINUOUS
10
363.476
20
-200.529
11
363.513
21
-200.524
0
LINE
8
BLACK
6
CONTINUOUS
10
363.857
20
-200.41
11
363.888
21
-200.392
0
LINE
8
BLACK
6
CONTINUOUS
10
223.724
20
-213.031
11
223.695
21
-213.053
0
LINE
8
BLACK
6
CONTINUOUS
10
41.4971
20
-200.533
11
41.5335
21
-200.533
0
LINE
8
BLACK
6
CONTINUOUS
10
225.632
20
-128.664
11
225.661
21
-128.642
0
LINE
8
BLACK
6
CONTINUOUS
10
363.676
20
-203.231
11
363.507
21
-203.276
0
LINE
8
BLACK
6
CONTINUOUS
10
223.877
20
-212.876
11
223.854
21
-212.904
0
LINE
8
BLACK
6
CONTINUOUS
10
362.308
20
-199.467
11
362.308
21
-199.504
0
LINE
8
BLACK
6
CONTINUOUS
10
53.3116
20
-116.132
11
53.3462
21
-116.143
0
LINE
8
BLACK
6
CONTINUOUS
10
54.3664
20
-115.918
11
54.393
21
-115.893
0
LINE
8
BLACK
6
CONTINUOUS
10
52.6456
20
-114.871
11
52.6369
21
-114.906
0
LINE
8
BLACK
6
CONTINUOUS
10
52.7778
20
-115.71
11
52.7981
21
-115.741
0
LINE
8
BLACK
6
CONTINUOUS
10
38.5002
20
-201.305
11
38.4042
21
-201.164
0
LINE
8
BLACK
6
CONTINUOUS
10
40.531
20
-199.823
11
40.5434
21
-199.857
0
LINE
8
BLACK
6
CONTINUOUS
10
223.231
20
-211.182
11
223.267
21
-211.189
0
LINE
8
BLACK
6
CONTINUOUS
10
364.408
20
-199.522
11
364.408
21
-199.486
0
LINE
8
BLACK
6
CONTINUOUS
10
351.706
20
-114.464
11
351.689
21
-114.432
0
LINE
8
BLACK
6
CONTINUOUS
10
223.509
20
-213.167
11
223.475
21
-213.182
0
LINE
8
BLACK
6
CONTINUOUS
10
49.8473
20
-114.844
11
49.8998
21
-114.679
0
LINE
8
BLACK
6
CONTINUOUS
10
37.7707
20
-199.77
11
37.7275
21
-199.605
0
LINE
8
BLACK
6
CONTINUOUS
10
40.7511
20
-203.074
11
40.5933
21
-203.009
0
LINE
8
BLACK
6
CONTINUOUS
10
363.98
20
-198.639
11
363.95
21
-198.618
0
LINE
8
BLACK
6
CONTINUOUS
10
222.904
20
-213.257
11
222.869
21
-213.251
0
LINE
8
BLACK
6
CONTINUOUS
10
104.677
20
-203.423
11
42.5858
21
-203.423
0
LINE
8
BLACK
6
CONTINUOUS
10
42.4693
20
-199.025
11
42.4528
21
-198.993
0
LINE
8
BLACK
6
CONTINUOUS
10
351.67
20
-114.401
11
351.65
21
-114.37
0
LINE
8
BLACK
6
CONTINUOUS
10
41.9241
20
-200.454
11
41.9576
21
-200.439
0
LINE
8
BLACK
6
CONTINUOUS
10
181.787
20
-127.429
11
181.767
21
-127.399
0
LINE
8
BLACK
6
CONTINUOUS
10
222.031
20
-212.435
11
222.025
21
-212.399
0
LINE
8
BLACK
6
CONTINUOUS
10
350.499
20
-113.942
11
350.464
21
-113.952
0
LINE
8
BLACK
6
CONTINUOUS
10
225.717
20
-127.041
11
225.69
21
-127.017
0
LINE
8
BLACK
6
CONTINUOUS
10
181.964
20
-128.05
11
181.965
21
-128.013
0
LINE
8
BLACK
6
CONTINUOUS
10
182.458
20
-211.24
11
182.424
21
-211.254
0
LINE
8
BLACK
6
CONTINUOUS
10
54.5711
20
-115.664
11
54.5887
21
-115.632
0
LINE
8
BLACK
6
CONTINUOUS
10
225.411
20
-128.789
11
225.444
21
-128.774
0
LINE
8
BLACK
6
CONTINUOUS
10
40.1347
20
-202.781
11
39.9873
21
-202.695
0
LINE
8
BLACK
6
CONTINUOUS
10
362.344
20
-199.215
11
362.335
21
-199.251
0
LINE
8
BLACK
6
CONTINUOUS
10
52.3093
20
-111.855
11
52.4637
21
-111.777
0
LINE
8
BLACK
6
CONTINUOUS
10
363.15
20
-198.456
11
363.114
21
-198.464
0
LINE
8
BLACK
6
CONTINUOUS
10
42.5586
20
-199.302
11
42.5517
21
-199.266
0
LINE
8
BLACK
6
CONTINUOUS
10
40.4935
20
-199.284
11
40.4872
21
-199.32
0
LINE
8
BLACK
6
CONTINUOUS
10
181.914
20
-127.691
11
181.902
21
-127.656
0
LINE
8
BLACK
6
CONTINUOUS
10
40.6228
20
-198.945
11
40.6046
21
-198.976
0
LINE
8
BLACK
6
CONTINUOUS
10
299.336
20
-203.501
11
235.196
21
-214.789
0
LINE
8
BLACK
6
CONTINUOUS
10
182.326
20
-211.303
11
182.295
21
-211.321
0
LINE
8
BLACK
6
CONTINUOUS
10
181.826
20
-212.488
11
181.836
21
-212.523
0
LINE
8
BLACK
6
CONTINUOUS
10
226.045
20
-127.999
11
226.051
21
-127.963
0
LINE
8
BLACK
6
CONTINUOUS
10
208.897
20
-127.419
11
208.956
21
-127.413
0
LINE
8
BLACK
6
CONTINUOUS
10
362.639
20
-198.721
11
362.613
21
-198.746
0
LINE
8
BLACK
6
CONTINUOUS
10
364.346
20
-199.128
11
364.333
21
-199.094
0
LINE
8
BLACK
6
CONTINUOUS
10
182.264
20
-213.096
11
182.295
21
-213.115
0
LINE
8
BLACK
6
CONTINUOUS
10
179.934
20
-128.388
11
179.947
21
-128.421
0
LINE
8
BLACK
6
CONTINUOUS
10
52.7405
20
-115.648
11
52.7586
21
-115.679
0
LINE
8
BLACK
6
CONTINUOUS
10
179.995
20
-128.52
11
180.013
21
-128.551
0
LINE
8
BLACK
6
CONTINUOUS
10
224.24
20
-127.105
11
224.216
21
-127.132
0
LINE
8
BLACK
6
CONTINUOUS
10
179.9
20
-127.743
11
179.892
21
-127.778
0
LINE
8
BLACK
6
CONTINUOUS
10
223.509
20
-211.269
11
223.541
21
-211.285
0
LINE
8
BLACK
6
CONTINUOUS
10
350.328
20
-115.903
11
350.361
21
-115.918
0
LINE
8
BLACK
6
CONTINUOUS
10
226.021
20
-128.106
11
226.03
21
-128.07
0
LINE
8
BLACK
6
CONTINUOUS
10
351.689
20
-114.432
11
351.67
21
-114.401
0
LINE
8
BLACK
6
CONTINUOUS
10
180.997
20
-129.06
11
181.033
21
-129.057
0
LINE
8
BLACK
6
CONTINUOUS
10
364.009
20
-200.31
11
364.037
21
-200.287
0
LINE
8
BLACK
6
CONTINUOUS
10
181.722
20
-127.342
11
181.698
21
-127.314
0
LINE
8
BLACK
6
CONTINUOUS
10
40.4758
20
-199.538
11
40.4784
21
-199.574
0
LINE
8
BLACK
6
CONTINUOUS
10
41.6426
20
-200.526
11
41.6788
21
-200.522
0
LINE
8
BLACK
6
CONTINUOUS
10
362.782
20
-198.608
11
362.751
21
-198.629
0
LINE
8
BLACK
6
CONTINUOUS
10
53.0241
20
-115.977
11
53.0534
21
-115.998
0
LINE
8
BLACK
6
CONTINUOUS
10
53.0835
20
-116.019
11
53.1143
21
-116.038
0
LINE
8
BLACK
6
CONTINUOUS
10
354.784
20
-114.852
11
354.83
21
-115.019
0
LINE
8
BLACK
6
CONTINUOUS
10
54.1187
20
-111.307
11
54.291
21
-111.292
0
LINE
8
BLACK
6
CONTINUOUS
10
351.524
20
-111.509
11
351.689
21
-111.565
0
LINE
8
BLACK
6
CONTINUOUS
10
54.1587
20
-114.217
11
54.1263
21
-114.2
0
LINE
8
BLACK
6
CONTINUOUS
10
41.0728
20
-203.189
11
40.911
21
-203.134
0
LINE
8
BLACK
6
CONTINUOUS
10
225.509
20
-128.742
11
225.541
21
-128.724
0
LINE
8
BLACK
6
CONTINUOUS
10
224.767
20
-128.839
11
224.803
21
-128.847
0
LINE
8
BLACK
6
CONTINUOUS
10
183.172
20
-211.222
11
183.138
21
-211.211
0
LINE
8
BLACK
6
CONTINUOUS
10
181.212
20
-127.006
11
181.176
21
-126.996
0
LINE
8
BLACK
6
CONTINUOUS
10
225.661
20
-128.642
11
225.69
21
-128.619
0
LINE
8
BLACK
6
CONTINUOUS
10
38.601
20
-201.443
11
38.5002
21
-201.305
0
LINE
8
BLACK
6
CONTINUOUS
10
52.1577
20
-111.938
11
52.3093
21
-111.855
0
LINE
8
BLACK
6
CONTINUOUS
10
180.169
20
-127.274
11
180.144
21
-127.3
0
LINE
8
BLACK
6
CONTINUOUS
10
50.0218
20
-114.356
11
50.091
21
-114.198
0
LINE
8
BLACK
6
CONTINUOUS
10
41.821
20
-200.49
11
41.8558
21
-200.479
0
LINE
8
BLACK
6
CONTINUOUS
10
223.666
20
-211.361
11
223.695
21
-211.383
0
LINE
8
BLACK
6
CONTINUOUS
10
41.2365
20
-203.238
11
41.0728
21
-203.189
0
LINE
8
BLACK
6
CONTINUOUS
10
226.06
20
-127.854
11
226.061
21
-127.818
0
LINE
8
BLACK
6
CONTINUOUS
10
350.641
20
-113.913
11
350.605
21
-113.919
0
LINE
8
BLACK
6
CONTINUOUS
10
362.496
20
-198.886
11
362.476
21
-198.916
0
LINE
8
BLACK
6
CONTINUOUS
10
223.965
20
-127.909
11
223.969
21
-127.945
0
LINE
8
BLACK
6
CONTINUOUS
10
222.04
20
-212.471
11
222.031
21
-212.435
0
LINE
8
BLACK
6
CONTINUOUS
10
225.541
20
-128.724
11
225.572
21
-128.705
0
LINE
8
BLACK
6
CONTINUOUS
10
223.338
20
-213.23
11
223.303
21
-213.239
0
LINE
8
BLACK
6
CONTINUOUS
10
364.403
20
-199.595
11
364.406
21
-199.558
0
LINE
8
BLACK
6
CONTINUOUS
10
223.05
20
-211.168
11
223.086
21
-211.168
0
LINE
8
BLACK
6
CONTINUOUS
10
350.201
20
-114.077
11
350.171
21
-114.098
0
LINE
8
BLACK
6
CONTINUOUS
10
224.375
20
-126.982
11
224.346
21
-127.005
0
LINE
8
BLACK
6
CONTINUOUS
10
38.8165
20
-201.708
11
38.7065
21
-201.578
0
LINE
8
BLACK
6
CONTINUOUS
10
41.8902
20
-198.499
11
41.8558
21
-198.487
0
LINE
8
BLACK
6
CONTINUOUS
10
180.815
20
-129.059
11
180.851
21
-129.061
0
LINE
8
BLACK
6
CONTINUOUS
10
223.854
20
-212.904
11
223.83
21
-212.931
0
LINE
8
BLACK
6
CONTINUOUS
10
224.216
20
-128.504
11
224.24
21
-128.531
0
LINE
8
BLACK
6
CONTINUOUS
10
181.105
20
-126.981
11
181.069
21
-126.975
0
LINE
8
BLACK
6
CONTINUOUS
10
222.13
20
-211.728
11
222.148
21
-211.696
0
LINE
8
BLACK
6
CONTINUOUS
10
365.237
20
-202.47
11
365.094
21
-202.57
0
LINE
8
BLACK
6
CONTINUOUS
10
52.7586
20
-115.679
11
52.7778
21
-115.71
0
LINE
8
BLACK
6
CONTINUOUS
10
40.6046
20
-199.989
11
40.6228
21
-200.021
0
LINE
8
BLACK
6
CONTINUOUS
10
37.8739
20
-200.096
11
37.8196
21
-199.934
0
LINE
8
BLACK
6
CONTINUOUS
10
367.249
20
-199.121
11
367.222
21
-199.293
0
LINE
8
BLACK
6
CONTINUOUS
10
181.965
20
-128.013
11
181.964
21
-127.977
0
LINE
8
BLACK
6
CONTINUOUS
10
180.169
20
-128.753
11
180.195
21
-128.778
0
LINE
8
BLACK
6
CONTINUOUS
10
41.9576
20
-200.439
11
41.9905
21
-200.424
0
LINE
8
BLACK
6
CONTINUOUS
10
42.3968
20
-198.899
11
42.376
21
-198.869
0
LINE
8
BLACK
6
CONTINUOUS
10
181.621
20
-127.236
11
181.594
21
-127.212
0
LINE
8
BLACK
6
CONTINUOUS
10
362.321
20
-199.649
11
362.327
21
-199.685
0
LINE
8
BLACK
6
CONTINUOUS
10
224.318
20
-127.029
11
224.291
21
-127.053
0
LINE
8
BLACK
6
CONTINUOUS
10
350.75
20
-116.004
11
350.787
21
-116.004
0
LINE
8
BLACK
6
CONTINUOUS
10
53.2437
20
-114.177
11
53.2105
21
-114.192
0
LINE
8
BLACK
6
CONTINUOUS
10
364.091
20
-198.733
11
364.064
21
-198.709
0
LINE
8
BLACK
6
CONTINUOUS
10
222.009
20
-212.182
11
222.011
21
-212.145
0
LINE
8
BLACK
6
CONTINUOUS
10
196.713
20
-127.413
11
196.771
21
-127.419
0
LINE
8
BLACK
6
CONTINUOUS
10
351.738
20
-114.53
11
351.723
21
-114.497
0
LINE
8
BLACK
6
CONTINUOUS
10
349.841
20
-115.429
11
349.858
21
-115.461
0
LINE
8
BLACK
6
CONTINUOUS
10
183.713
20
-212.802
11
183.733
21
-212.772
0
LINE
8
BLACK
6
CONTINUOUS
10
223.962
20
-127.763
11
223.961
21
-127.8
0
LINE
8
BLACK
6
CONTINUOUS
10
54.393
20
-114.389
11
54.3664
21
-114.364
0
LINE
8
BLACK
6
CONTINUOUS
10
350.678
20
-116
11
350.714
21
-116.002
0
LINE
8
BLACK
6
CONTINUOUS
10
41.1416
20
-198.505
11
41.1079
21
-198.519
0
LINE
8
BLACK
6
CONTINUOUS
10
351.629
20
-114.34
11
351.607
21
-114.311
0
LINE
8
BLACK
6
CONTINUOUS
10
182.633
20
-213.247
11
182.669
21
-213.254
0
LINE
8
BLACK
6
CONTINUOUS
10
222.252
20
-211.546
11
222.276
21
-211.519
0
LINE
8
BLACK
6
CONTINUOUS
10
225.998
20
-128.175
11
226.01
21
-128.141
0
LINE
8
BLACK
6
CONTINUOUS
10
181.914
20
-128.336
11
181.925
21
-128.301
0
LINE
8
BLACK
6
CONTINUOUS
10
353.912
20
-113.168
11
354.017
21
-113.306
0
LINE
8
BLACK
6
CONTINUOUS
10
223.979
20
-211.712
11
223.996
21
-211.744
0
LINE
8
BLACK
6
CONTINUOUS
10
179.873
20
-127.886
11
179.869
21
-127.922
0
LINE
8
BLACK
6
CONTINUOUS
10
366.128
20
-201.639
11
366.013
21
-201.771
0
LINE
8
BLACK
6
CONTINUOUS
10
53.5239
20
-116.182
11
53.5602
21
-116.186
0
LINE
8
BLACK
6
CONTINUOUS
10
298.865
20
-111.344
11
299.009
21
-111.32
0
LINE
8
BLACK
6
CONTINUOUS
10
180.498
20
-128.977
11
180.532
21
-128.991
0
LINE
8
BLACK
6
CONTINUOUS
10
352.475
20
-111.929
11
352.624
21
-112.018
0
LINE
8
BLACK
6
CONTINUOUS
10
224.594
20
-126.854
11
224.561
21
-126.869
0
LINE
8
BLACK
6
CONTINUOUS
10
362.457
20
-198.947
11
362.438
21
-198.979
0
LINE
8
BLACK
6
CONTINUOUS
10
183.815
20
-212.609
11
183.828
21
-212.575
0
LINE
8
BLACK
6
CONTINUOUS
10
364.645
20
-202.84
11
364.489
21
-202.919
0
LINE
8
BLACK
6
CONTINUOUS
10
181.381
20
-128.954
11
181.413
21
-128.937
0
LINE
8
BLACK
6
CONTINUOUS
10
224.561
20
-126.869
11
224.528
21
-126.885
0
LINE
8
BLACK
6
CONTINUOUS
10
181.826
20
-211.948
11
181.818
21
-211.983
0
LINE
8
BLACK
6
CONTINUOUS
10
225.632
20
-126.972
11
225.603
21
-126.95
0
LINE
8
BLACK
6
CONTINUOUS
10
42.2032
20
-200.284
11
42.2306
21
-200.26
0
LINE
8
BLACK
6
CONTINUOUS
10
40.5198
20
-199.788
11
40.531
21
-199.823
0
LINE
8
BLACK
6
CONTINUOUS
10
54.3108
20
-115.965
11
54.339
21
-115.942
0
LINE
8
BLACK
6
CONTINUOUS
10
42.5643
20
-199.628
11
42.5687
21
-199.592
0
LINE
8
BLACK
6
CONTINUOUS
10
222.167
20
-212.772
11
222.148
21
-212.74
0
LINE
8
BLACK
6
CONTINUOUS
10
349.773
20
-114.649
11
349.763
21
-114.684
0
LINE
8
BLACK
6
CONTINUOUS
10
223.303
20
-211.197
11
223.338
21
-211.206
0
LINE
8
BLACK
6
CONTINUOUS
10
41.57
20
-198.434
11
41.5335
21
-198.433
0
LINE
8
BLACK
6
CONTINUOUS
10
54.339
20
-115.942
11
54.3664
21
-115.918
0
LINE
8
BLACK
6
CONTINUOUS
10
54.2521
20
-116.008
11
54.2818
21
-115.987
0
LINE
8
BLACK
6
CONTINUOUS
10
180.924
20
-129.063
11
180.96
21
-129.062
0
LINE
8
BLACK
6
CONTINUOUS
10
41.57
20
-200.532
11
41.6063
21
-200.53
0
LINE
8
BLACK
6
CONTINUOUS
10
53.4879
20
-116.177
11
53.5239
21
-116.182
0
LINE
8
BLACK
6
CONTINUOUS
10
350.569
20
-115.984
11
350.605
21
-115.99
0
LINE
8
BLACK
6
CONTINUOUS
10
223.98
20
-128.017
11
223.987
21
-128.053
0
LINE
8
BLACK
6
CONTINUOUS
10
39.1723
20
-202.077
11
39.0495
21
-201.958
0
LINE
8
BLACK
6
CONTINUOUS
10
180.195
20
-127.249
11
180.169
21
-127.274
0
LINE
8
BLACK
6
CONTINUOUS
10
349.74
20
-115.118
11
349.747
21
-115.154
0
LINE
8
BLACK
6
CONTINUOUS
10
53.2708
20
-111.47
11
53.4379
21
-111.426
0
LINE
8
BLACK
6
CONTINUOUS
10
363.044
20
-200.487
11
363.079
21
-200.498
0
LINE
8
BLACK
6
CONTINUOUS
10
53.1779
20
-116.074
11
53.2105
21
-116.09
0
LINE
8
BLACK
6
CONTINUOUS
10
362.344
20
-199.756
11
362.354
21
-199.791
0
LINE
8
BLACK
6
CONTINUOUS
10
40.911
20
-203.134
11
40.7511
21
-203.074
0
LINE
8
BLACK
6
CONTINUOUS
10
224.128
20
-127.249
11
224.109
21
-127.28
0
LINE
8
BLACK
6
CONTINUOUS
10
222.977
20
-213.265
11
222.941
21
-213.261
0
LINE
8
BLACK
6
CONTINUOUS
10
224.496
20
-126.902
11
224.465
21
-126.921
0
LINE
8
BLACK
6
CONTINUOUS
10
42.3542
20
-200.126
11
42.376
21
-200.097
0
LINE
8
BLACK
6
CONTINUOUS
10
364.25
20
-198.932
11
364.231
21
-198.901
0
LINE
8
BLACK
6
CONTINUOUS
10
181.902
20
-127.656
11
181.889
21
-127.622
0
LINE
8
BLACK
6
CONTINUOUS
10
50.3311
20
-113.738
11
50.4215
21
-113.591
0
LINE
8
BLACK
6
CONTINUOUS
10
364.188
20
-200.129
11
364.21
21
-200.1
0
LINE
8
BLACK
6
CONTINUOUS
10
42.5738
20
-199.447
11
42.5719
21
-199.41
0
LINE
8
BLACK
6
CONTINUOUS
10
181.848
20
-211.878
11
181.836
21
-211.913
0
LINE
8
BLACK
6
CONTINUOUS
10
350.86
20
-116.001
11
350.896
21
-115.998
0
LINE
8
BLACK
6
CONTINUOUS
10
363.791
20
-200.442
11
363.824
21
-200.426
0
LINE
8
BLACK
6
CONTINUOUS
10
367.188
20
-199.465
11
367.149
21
-199.635
0
LINE
8
BLACK
6
CONTINUOUS
10
351.143
20
-113.97
11
351.109
21
-113.958
0
LINE
8
BLACK
6
CONTINUOUS
10
51.8
20
-113.6
11
52.2
21
-114
0
LINE
8
BLACK
6
CONTINUOUS
10
52.2
20
-113.6
11
51.8
21
-114
0
LINE
8
BLACK
6
CONTINUOUS
10
352
20
-113
11
352.4
21
-113.4
0
LINE
8
BLACK
6
CONTINUOUS
10
352.4
20
-113
11
352
21
-113.4
0
LINE
8
BLACK
6
CONTINUOUS
10
40.0619
20
-218.923
11
40.0619
21
-216.923
0
LINE
8
BLACK
6
CONTINUOUS
10
40.0619
20
-216.923
11
40.5381
21
-216.923
0
LINE
8
BLACK
6
CONTINUOUS
10
40.5381
20
-216.923
11
40.8238
21
-217.018
0
LINE
8
BLACK
6
CONTINUOUS
10
40.8238
20
-217.018
11
41.0143
21
-217.209
0
LINE
8
BLACK
6
CONTINUOUS
10
41.0143
20
-217.209
11
41.1096
21
-217.399
0
LINE
8
BLACK
6
CONTINUOUS
10
41.1096
20
-217.399
11
41.2048
21
-217.78
0
LINE
8
BLACK
6
CONTINUOUS
10
41.2048
20
-217.78
11
41.2048
21
-218.066
0
LINE
8
BLACK
6
CONTINUOUS
10
41.2048
20
-218.066
11
41.1096
21
-218.447
0
LINE
8
BLACK
6
CONTINUOUS
10
41.1096
20
-218.447
11
41.0143
21
-218.637
0
LINE
8
BLACK
6
CONTINUOUS
10
41.0143
20
-218.637
11
40.8238
21
-218.828
0
LINE
8
BLACK
6
CONTINUOUS
10
40.8238
20
-218.828
11
40.5381
21
-218.923
0
LINE
8
BLACK
6
CONTINUOUS
10
40.5381
20
-218.923
11
40.0619
21
-218.923
0
LINE
8
BLACK
6
CONTINUOUS
10
42.0619
20
-218.923
11
42.0619
21
-217.59
0
LINE
8
BLACK
6
CONTINUOUS
10
42.0619
20
-217.971
11
42.1572
21
-217.78
0
LINE
8
BLACK
6
CONTINUOUS
10
42.1572
20
-217.78
11
42.2524
21
-217.685
0
LINE
8
BLACK
6
CONTINUOUS
10
42.2524
20
-217.685
11
42.4429
21
-217.59
0
LINE
8
BLACK
6
CONTINUOUS
10
42.4429
20
-217.59
11
42.6334
21
-217.59
0
LINE
8
BLACK
6
CONTINUOUS
10
43.3
20
-218.923
11
43.3
21
-217.59
0
LINE
8
BLACK
6
CONTINUOUS
10
43.3
20
-216.923
11
43.2048
21
-217.018
0
LINE
8
BLACK
6
CONTINUOUS
10
43.2048
20
-217.018
11
43.3
21
-217.113
0
LINE
8
BLACK
6
CONTINUOUS
10
43.3
20
-217.113
11
43.3953
21
-217.018
0
LINE
8
BLACK
6
CONTINUOUS
10
43.3953
20
-217.018
11
43.3
21
-216.923
0
LINE
8
BLACK
6
CONTINUOUS
10
43.3
20
-216.923
11
43.3
21
-217.113
0
LINE
8
BLACK
6
CONTINUOUS
10
44.5381
20
-218.923
11
44.3477
21
-218.828
0
LINE
8
BLACK
6
CONTINUOUS
10
44.3477
20
-218.828
11
44.2524
21
-218.637
0
LINE
8
BLACK
6
CONTINUOUS
10
44.2524
20
-218.637
11
44.2524
21
-216.923
0
LINE
8
BLACK
6
CONTINUOUS
10
45.5858
20
-218.923
11
45.3953
21
-218.828
0
LINE
8
BLACK
6
CONTINUOUS
10
45.3953
20
-218.828
11
45.3
21
-218.637
0
LINE
8
BLACK
6
CONTINUOUS
10
45.3
20
-218.637
11
45.3
21
-216.923
0
LINE
8
BLACK
6
CONTINUOUS
10
47.8715
20
-218.923
11
47.8715
21
-216.923
0
LINE
8
BLACK
6
CONTINUOUS
10
47.8715
20
-216.923
11
48.5381
21
-218.351
0
LINE
8
BLACK
6
CONTINUOUS
10
48.5381
20
-218.351
11
49.2048
21
-216.923
0
LINE
8
BLACK
6
CONTINUOUS
10
49.2048
20
-216.923
11
49.2048
21
-218.923
0
LINE
8
BLACK
6
CONTINUOUS
10
51.0143
20
-218.923
11
51.0143
21
-217.875
0
LINE
8
BLACK
6
CONTINUOUS
10
51.0143
20
-217.875
11
50.9191
21
-217.685
0
LINE
8
BLACK
6
CONTINUOUS
10
50.9191
20
-217.685
11
50.7286
21
-217.59
0
LINE
8
BLACK
6
CONTINUOUS
10
50.7286
20
-217.59
11
50.3477
21
-217.59
0
LINE
8
BLACK
6
CONTINUOUS
10
50.3477
20
-217.59
11
50.1572
21
-217.685
0
LINE
8
BLACK
6
CONTINUOUS
10
51.0143
20
-218.828
11
50.8238
21
-218.923
0
LINE
8
BLACK
6
CONTINUOUS
10
50.8238
20
-218.923
11
50.3477
21
-218.923
0
LINE
8
BLACK
6
CONTINUOUS
10
50.3477
20
-218.923
11
50.1572
21
-218.828
0
LINE
8
BLACK
6
CONTINUOUS
10
50.1572
20
-218.828
11
50.0619
21
-218.637
0
LINE
8
BLACK
6
CONTINUOUS
10
50.0619
20
-218.637
11
50.0619
21
-218.447
0
LINE
8
BLACK
6
CONTINUOUS
10
50.0619
20
-218.447
11
50.1572
21
-218.256
0
LINE
8
BLACK
6
CONTINUOUS
10
50.1572
20
-218.256
11
50.3477
21
-218.161
0
LINE
8
BLACK
6
CONTINUOUS
10
50.3477
20
-218.161
11
50.8238
21
-218.161
0
LINE
8
BLACK
6
CONTINUOUS
10
50.8238
20
-218.161
11
51.0143
21
-218.066
0
LINE
8
BLACK
6
CONTINUOUS
10
51.9667
20
-217.59
11
51.9667
21
-219.59
0
LINE
8
BLACK
6
CONTINUOUS
10
51.9667
20
-217.685
11
52.1572
21
-217.59
0
LINE
8
BLACK
6
CONTINUOUS
10
52.1572
20
-217.59
11
52.5381
21
-217.59
0
LINE
8
BLACK
6
CONTINUOUS
10
52.5381
20
-217.59
11
52.7286
21
-217.685
0
LINE
8
BLACK
6
CONTINUOUS
10
52.7286
20
-217.685
11
52.8238
21
-217.78
0
LINE
8
BLACK
6
CONTINUOUS
10
52.8238
20
-217.78
11
52.9191
21
-217.971
0
LINE
8
BLACK
6
CONTINUOUS
10
52.9191
20
-217.971
11
52.9191
21
-218.542
0
LINE
8
BLACK
6
CONTINUOUS
10
52.9191
20
-218.542
11
52.8238
21
-218.732
0
LINE
8
BLACK
6
CONTINUOUS
10
52.8238
20
-218.732
11
52.7286
21
-218.828
0
LINE
8
BLACK
6
CONTINUOUS
10
52.7286
20
-218.828
11
52.5381
21
-218.923
0
LINE
8
BLACK
6
CONTINUOUS
10
52.5381
20
-218.923
11
52.1572
21
-218.923
0
LINE
8
BLACK
6
CONTINUOUS
10
52.1572
20
-218.923
11
51.9667
21
-218.828
0
LINE
8
BLACK
6
CONTINUOUS
10
53.7762
20
-218.732
11
53.8715
21
-218.828
0
LINE
8
BLACK
6
CONTINUOUS
10
53.8715
20
-218.828
11
53.7762
21
-218.923
0
LINE
8
BLACK
6
CONTINUOUS
10
53.7762
20
-218.923
11
53.681
21
-218.828
0
LINE
8
BLACK
6
CONTINUOUS
10
53.681
20
-218.828
11
53.7762
21
-218.732
0
LINE
8
BLACK
6
CONTINUOUS
10
53.7762
20
-218.732
11
53.7762
21
-218.923
0
LINE
8
BLACK
6
CONTINUOUS
10
53.7762
20
-217.685
11
53.8715
21
-217.78
0
LINE
8
BLACK
6
CONTINUOUS
10
53.8715
20
-217.78
11
53.7762
21
-217.875
0
LINE
8
BLACK
6
CONTINUOUS
10
53.7762
20
-217.875
11
53.681
21
-217.78
0
LINE
8
BLACK
6
CONTINUOUS
10
53.681
20
-217.78
11
53.7762
21
-217.685
0
LINE
8
BLACK
6
CONTINUOUS
10
53.7762
20
-217.685
11
53.7762
21
-217.875
0
LINE
8
BLACK
6
CONTINUOUS
10
37.0858
20
-222.018
11
37.4858
21
-222.418
0
LINE
8
BLACK
6
CONTINUOUS
10
37.4858
20
-222.018
11
37.0858
21
-222.418
0
LINE
8
BLACK
6
CONTINUOUS
10
40.4429
20
-221.123
11
40.6334
21
-221.123
0
LINE
8
BLACK
6
CONTINUOUS
10
40.6334
20
-221.123
11
40.8238
21
-221.218
0
LINE
8
BLACK
6
CONTINUOUS
10
40.8238
20
-221.218
11
40.9191
21
-221.313
0
LINE
8
BLACK
6
CONTINUOUS
10
40.9191
20
-221.313
11
41.0143
21
-221.504
0
LINE
8
BLACK
6
CONTINUOUS
10
41.0143
20
-221.504
11
41.1096
21
-221.885
0
LINE
8
BLACK
6
CONTINUOUS
10
41.1096
20
-221.885
11
41.1096
21
-222.361
0
LINE
8
BLACK
6
CONTINUOUS
10
41.1096
20
-222.361
11
41.0143
21
-222.742
0
LINE
8
BLACK
6
CONTINUOUS
10
41.0143
20
-222.742
11
40.9191
21
-222.932
0
LINE
8
BLACK
6
CONTINUOUS
10
40.9191
20
-222.932
11
40.8238
21
-223.028
0
LINE
8
BLACK
6
CONTINUOUS
10
40.8238
20
-223.028
11
40.6334
21
-223.123
0
LINE
8
BLACK
6
CONTINUOUS
10
40.6334
20
-223.123
11
40.4429
21
-223.123
0
LINE
8
BLACK
6
CONTINUOUS
10
40.4429
20
-223.123
11
40.2524
21
-223.028
0
LINE
8
BLACK
6
CONTINUOUS
10
40.2524
20
-223.028
11
40.1572
21
-222.932
0
LINE
8
BLACK
6
CONTINUOUS
10
40.1572
20
-222.932
11
40.0619
21
-222.742
0
LINE
8
BLACK
6
CONTINUOUS
10
40.0619
20
-222.742
11
39.9667
21
-222.361
0
LINE
8
BLACK
6
CONTINUOUS
10
39.9667
20
-222.361
11
39.9667
21
-221.885
0
LINE
8
BLACK
6
CONTINUOUS
10
39.9667
20
-221.885
11
40.0619
21
-221.504
0
LINE
8
BLACK
6
CONTINUOUS
10
40.0619
20
-221.504
11
40.1572
21
-221.313
0
LINE
8
BLACK
6
CONTINUOUS
10
40.1572
20
-221.313
11
40.2524
21
-221.218
0
LINE
8
BLACK
6
CONTINUOUS
10
40.2524
20
-221.218
11
40.4429
21
-221.123
0
LINE
8
BLACK
6
CONTINUOUS
10
41.9667
20
-222.932
11
42.0619
21
-223.028
0
LINE
8
BLACK
6
CONTINUOUS
10
42.0619
20
-223.028
11
41.9667
21
-223.123
0
LINE
8
BLACK
6
CONTINUOUS
10
41.9667
20
-223.123
11
41.8715
21
-223.028
0
LINE
8
BLACK
6
CONTINUOUS
10
41.8715
20
-223.028
11
41.9667
21
-222.932
0
LINE
8
BLACK
6
CONTINUOUS
10
41.9667
20
-222.932
11
41.9667
21
-223.123
0
LINE
8
BLACK
6
CONTINUOUS
10
43.7762
20
-221.79
11
43.7762
21
-223.123
0
LINE
8
BLACK
6
CONTINUOUS
10
43.3
20
-221.028
11
42.8238
21
-222.456
0
LINE
8
BLACK
6
CONTINUOUS
10
42.8238
20
-222.456
11
44.0619
21
-222.456
0
LINE
8
BLACK
6
CONTINUOUS
10
45.2048
20
-221.123
11
45.3953
21
-221.123
0
LINE
8
BLACK
6
CONTINUOUS
10
45.3953
20
-221.123
11
45.5858
21
-221.218
0
LINE
8
BLACK
6
CONTINUOUS
10
45.5858
20
-221.218
11
45.681
21
-221.313
0
LINE
8
BLACK
6
CONTINUOUS
10
45.681
20
-221.313
11
45.7762
21
-221.504
0
LINE
8
BLACK
6
CONTINUOUS
10
45.7762
20
-221.504
11
45.8715
21
-221.885
0
LINE
8
BLACK
6
CONTINUOUS
10
45.8715
20
-221.885
11
45.8715
21
-222.361
0
LINE
8
BLACK
6
CONTINUOUS
10
45.8715
20
-222.361
11
45.7762
21
-222.742
0
LINE
8
BLACK
6
CONTINUOUS
10
45.7762
20
-222.742
11
45.681
21
-222.932
0
LINE
8
BLACK
6
CONTINUOUS
10
45.681
20
-222.932
11
45.5858
21
-223.028
0
LINE
8
BLACK
6
CONTINUOUS
10
45.5858
20
-223.028
11
45.3953
21
-223.123
0
LINE
8
BLACK
6
CONTINUOUS
10
45.3953
20
-223.123
11
45.2048
21
-223.123
0
LINE
8
BLACK
6
CONTINUOUS
10
45.2048
20
-223.123
11
45.0143
21
-223.028
0
LINE
8
BLACK
6
CONTINUOUS
10
45.0143
20
-223.028
11
44.9191
21
-222.932
0
LINE
8
BLACK
6
CONTINUOUS
10
44.9191
20
-222.932
11
44.8238
21
-222.742
0
LINE
8
BLACK
6
CONTINUOUS
10
44.8238
20
-222.742
11
44.7286
21
-222.361
0
LINE
8
BLACK
6
CONTINUOUS
10
44.7286
20
-222.361
11
44.7286
21
-221.885
0
LINE
8
BLACK
6
CONTINUOUS
10
44.7286
20
-221.885
11
44.8238
21
-221.504
0
LINE
8
BLACK
6
CONTINUOUS
10
44.8238
20
-221.504
11
44.9191
21
-221.313
0
LINE
8
BLACK
6
CONTINUOUS
10
44.9191
20
-221.313
11
45.0143
21
-221.218
0
LINE
8
BLACK
6
CONTINUOUS
10
45.0143
20
-221.218
11
45.2048
21
-221.123
0
LINE
8
BLACK
6
CONTINUOUS
10
47.1096
20
-221.123
11
47.3
21
-221.123
0
LINE
8
BLACK
6
CONTINUOUS
10
47.3
20
-221.123
11
47.4905
21
-221.218
0
LINE
8
BLACK
6
CONTINUOUS
10
47.4905
20
-221.218
11
47.5858
21
-221.313
0
LINE
8
BLACK
6
CONTINUOUS
10
47.5858
20
-221.313
11
47.681
21
-221.504
0
LINE
8
BLACK
6
CONTINUOUS
10
47.681
20
-221.504
11
47.7762
21
-221.885
0
LINE
8
BLACK
6
CONTINUOUS
10
47.7762
20
-221.885
11
47.7762
21
-222.361
0
LINE
8
BLACK
6
CONTINUOUS
10
47.7762
20
-222.361
11
47.681
21
-222.742
0
LINE
8
BLACK
6
CONTINUOUS
10
47.681
20
-222.742
11
47.5858
21
-222.932
0
LINE
8
BLACK
6
CONTINUOUS
10
47.5858
20
-222.932
11
47.4905
21
-223.028
0
LINE
8
BLACK
6
CONTINUOUS
10
47.4905
20
-223.028
11
47.3
21
-223.123
0
LINE
8
BLACK
6
CONTINUOUS
10
47.3
20
-223.123
11
47.1096
21
-223.123
0
LINE
8
BLACK
6
CONTINUOUS
10
47.1096
20
-223.123
11
46.9191
21
-223.028
0
LINE
8
BLACK
6
CONTINUOUS
10
46.9191
20
-223.028
11
46.8238
21
-222.932
0
LINE
8
BLACK
6
CONTINUOUS
10
46.8238
20
-222.932
11
46.7286
21
-222.742
0
LINE
8
BLACK
6
CONTINUOUS
10
46.7286
20
-222.742
11
46.6334
21
-222.361
0
LINE
8
BLACK
6
CONTINUOUS
10
46.6334
20
-222.361
11
46.6334
21
-221.885
0
LINE
8
BLACK
6
CONTINUOUS
10
46.6334
20
-221.885
11
46.7286
21
-221.504
0
LINE
8
BLACK
6
CONTINUOUS
10
46.7286
20
-221.504
11
46.8238
21
-221.313
0
LINE
8
BLACK
6
CONTINUOUS
10
46.8238
20
-221.313
11
46.9191
21
-221.218
0
LINE
8
BLACK
6
CONTINUOUS
10
46.9191
20
-221.218
11
47.1096
21
-221.123
0
LINE
8
BLACK
6
CONTINUOUS
10
48.6334
20
-223.123
11
48.6334
21
-221.79
0
LINE
8
BLACK
6
CONTINUOUS
10
48.6334
20
-221.98
11
48.7286
21
-221.885
0
LINE
8
BLACK
6
CONTINUOUS
10
48.7286
20
-221.885
11
48.9191
21
-221.79
0
LINE
8
BLACK
6
CONTINUOUS
10
48.9191
20
-221.79
11
49.2048
21
-221.79
0
LINE
8
BLACK
6
CONTINUOUS
10
49.2048
20
-221.79
11
49.3953
21
-221.885
0
LINE
8
BLACK
6
CONTINUOUS
10
49.3953
20
-221.885
11
49.4905
21
-222.075
0
LINE
8
BLACK
6
CONTINUOUS
10
49.4905
20
-222.075
11
49.4905
21
-223.123
0
LINE
8
BLACK
6
CONTINUOUS
10
49.4905
20
-222.075
11
49.5858
21
-221.885
0
LINE
8
BLACK
6
CONTINUOUS
10
49.5858
20
-221.885
11
49.7762
21
-221.79
0
LINE
8
BLACK
6
CONTINUOUS
10
49.7762
20
-221.79
11
50.0619
21
-221.79
0
LINE
8
BLACK
6
CONTINUOUS
10
50.0619
20
-221.79
11
50.2524
21
-221.885
0
LINE
8
BLACK
6
CONTINUOUS
10
50.2524
20
-221.885
11
50.3477
21
-222.075
0
LINE
8
BLACK
6
CONTINUOUS
10
50.3477
20
-222.075
11
50.3477
21
-223.123
0
LINE
8
BLACK
6
CONTINUOUS
10
51.3
20
-223.123
11
51.3
21
-221.79
0
LINE
8
BLACK
6
CONTINUOUS
10
51.3
20
-221.98
11
51.3953
21
-221.885
0
LINE
8
BLACK
6
CONTINUOUS
10
51.3953
20
-221.885
11
51.5858
21
-221.79
0
LINE
8
BLACK
6
CONTINUOUS
10
51.5858
20
-221.79
11
51.8715
21
-221.79
0
LINE
8
BLACK
6
CONTINUOUS
10
51.8715
20
-221.79
11
52.0619
21
-221.885
0
LINE
8
BLACK
6
CONTINUOUS
10
52.0619
20
-221.885
11
52.1572
21
-222.075
0
LINE
8
BLACK
6
CONTINUOUS
10
52.1572
20
-222.075
11
52.1572
21
-223.123
0
LINE
8
BLACK
6
CONTINUOUS
10
52.1572
20
-222.075
11
52.2524
21
-221.885
0
LINE
8
BLACK
6
CONTINUOUS
10
52.2524
20
-221.885
11
52.4429
21
-221.79
0
LINE
8
BLACK
6
CONTINUOUS
10
52.4429
20
-221.79
11
52.7286
21
-221.79
0
LINE
8
BLACK
6
CONTINUOUS
10
52.7286
20
-221.79
11
52.9191
21
-221.885
0
LINE
8
BLACK
6
CONTINUOUS
10
52.9191
20
-221.885
11
53.0143
21
-222.075
0
LINE
8
BLACK
6
CONTINUOUS
10
53.0143
20
-222.075
11
53.0143
21
-223.123
0
LINE
8
BLACK
6
CONTINUOUS
10
56.9191
20
-221.028
11
55.2048
21
-223.599
0
LINE
8
BLACK
6
CONTINUOUS
10
59.4905
20
-221.123
11
59.681
21
-221.123
0
LINE
8
BLACK
6
CONTINUOUS
10
59.681
20
-221.123
11
59.8715
21
-221.218
0
LINE
8
BLACK
6
CONTINUOUS
10
59.8715
20
-221.218
11
59.9667
21
-221.313
0
LINE
8
BLACK
6
CONTINUOUS
10
59.9667
20
-221.313
11
60.0619
21
-221.504
0
LINE
8
BLACK
6
CONTINUOUS
10
60.0619
20
-221.504
11
60.1572
21
-221.885
0
LINE
8
BLACK
6
CONTINUOUS
10
60.1572
20
-221.885
11
60.1572
21
-222.361
0
LINE
8
BLACK
6
CONTINUOUS
10
60.1572
20
-222.361
11
60.0619
21
-222.742
0
LINE
8
BLACK
6
CONTINUOUS
10
60.0619
20
-222.742
11
59.9667
21
-222.932
0
LINE
8
BLACK
6
CONTINUOUS
10
59.9667
20
-222.932
11
59.8715
21
-223.028
0
LINE
8
BLACK
6
CONTINUOUS
10
59.8715
20
-223.028
11
59.681
21
-223.123
0
LINE
8
BLACK
6
CONTINUOUS
10
59.681
20
-223.123
11
59.4905
21
-223.123
0
LINE
8
BLACK
6
CONTINUOUS
10
59.4905
20
-223.123
11
59.3
21
-223.028
0
LINE
8
BLACK
6
CONTINUOUS
10
59.3
20
-223.028
11
59.2048
21
-222.932
0
LINE
8
BLACK
6
CONTINUOUS
10
59.2048
20
-222.932
11
59.1096
21
-222.742
0
LINE
8
BLACK
6
CONTINUOUS
10
59.1096
20
-222.742
11
59.0143
21
-222.361
0
LINE
8
BLACK
6
CONTINUOUS
10
59.0143
20
-222.361
11
59.0143
21
-221.885
0
LINE
8
BLACK
6
CONTINUOUS
10
59.0143
20
-221.885
11
59.1096
21
-221.504
0
LINE
8
BLACK
6
CONTINUOUS
10
59.1096
20
-221.504
11
59.2048
21
-221.313
0
LINE
8
BLACK
6
CONTINUOUS
10
59.2048
20
-221.313
11
59.3
21
-221.218
0
LINE
8
BLACK
6
CONTINUOUS
10
59.3
20
-221.218
11
59.4905
21
-221.123
0
LINE
8
BLACK
6
CONTINUOUS
10
61.0143
20
-222.932
11
61.1096
21
-223.028
0
LINE
8
BLACK
6
CONTINUOUS
10
61.1096
20
-223.028
11
61.0143
21
-223.123
0
LINE
8
BLACK
6
CONTINUOUS
10
61.0143
20
-223.123
11
60.9191
21
-223.028
0
LINE
8
BLACK
6
CONTINUOUS
10
60.9191
20
-223.028
11
61.0143
21
-222.932
0
LINE
8
BLACK
6
CONTINUOUS
10
61.0143
20
-222.932
11
61.0143
21
-223.123
0
LINE
8
BLACK
6
CONTINUOUS
10
62.3477
20
-221.123
11
62.5381
21
-221.123
0
LINE
8
BLACK
6
CONTINUOUS
10
62.5381
20
-221.123
11
62.7286
21
-221.218
0
LINE
8
BLACK
6
CONTINUOUS
10
62.7286
20
-221.218
11
62.8238
21
-221.313
0
LINE
8
BLACK
6
CONTINUOUS
10
62.8238
20
-221.313
11
62.9191
21
-221.504
0
LINE
8
BLACK
6
CONTINUOUS
10
62.9191
20
-221.504
11
63.0143
21
-221.885
0
LINE
8
BLACK
6
CONTINUOUS
10
63.0143
20
-221.885
11
63.0143
21
-222.361
0
LINE
8
BLACK
6
CONTINUOUS
10
63.0143
20
-222.361
11
62.9191
21
-222.742
0
LINE
8
BLACK
6
CONTINUOUS
10
62.9191
20
-222.742
11
62.8238
21
-222.932
0
LINE
8
BLACK
6
CONTINUOUS
10
62.8238
20
-222.932
11
62.7286
21
-223.028
0
LINE
8
BLACK
6
CONTINUOUS
10
62.7286
20
-223.028
11
62.5381
21
-223.123
0
LINE
8
BLACK
6
CONTINUOUS
10
62.5381
20
-223.123
11
62.3477
21
-223.123
0
LINE
8
BLACK
6
CONTINUOUS
10
62.3477
20
-223.123
11
62.1572
21
-223.028
0
LINE
8
BLACK
6
CONTINUOUS
10
62.1572
20
-223.028
11
62.0619
21
-222.932
0
LINE
8
BLACK
6
CONTINUOUS
10
62.0619
20
-222.932
11
61.9667
21
-222.742
0
LINE
8
BLACK
6
CONTINUOUS
10
61.9667
20
-222.742
11
61.8715
21
-222.361
0
LINE
8
BLACK
6
CONTINUOUS
10
61.8715
20
-222.361
11
61.8715
21
-221.885
0
LINE
8
BLACK
6
CONTINUOUS
10
61.8715
20
-221.885
11
61.9667
21
-221.504
0
LINE
8
BLACK
6
CONTINUOUS
10
61.9667
20
-221.504
11
62.0619
21
-221.313
0
LINE
8
BLACK
6
CONTINUOUS
10
62.0619
20
-221.313
11
62.1572
21
-221.218
0
LINE
8
BLACK
6
CONTINUOUS
10
62.1572
20
-221.218
11
62.3477
21
-221.123
0
LINE
8
BLACK
6
CONTINUOUS
10
64.9191
20
-223.123
11
63.7762
21
-223.123
0
LINE
8
BLACK
6
CONTINUOUS
10
64.3477
20
-223.123
11
64.3477
21
-221.123
0
LINE
8
BLACK
6
CONTINUOUS
10
64.3477
20
-221.123
11
64.1572
21
-221.409
0
LINE
8
BLACK
6
CONTINUOUS
10
64.1572
20
-221.409
11
63.9667
21
-221.599
0
LINE
8
BLACK
6
CONTINUOUS
10
63.9667
20
-221.599
11
63.7762
21
-221.694
0
LINE
8
BLACK
6
CONTINUOUS
10
66.7286
20
-221.123
11
65.7762
21
-221.123
0
LINE
8
BLACK
6
CONTINUOUS
10
65.7762
20
-221.123
11
65.681
21
-222.075
0
LINE
8
BLACK
6
CONTINUOUS
10
65.681
20
-222.075
11
65.7762
21
-221.98
0
LINE
8
BLACK
6
CONTINUOUS
10
65.7762
20
-221.98
11
65.9667
21
-221.885
0
LINE
8
BLACK
6
CONTINUOUS
10
65.9667
20
-221.885
11
66.4429
21
-221.885
0
LINE
8
BLACK
6
CONTINUOUS
10
66.4429
20
-221.885
11
66.6334
21
-221.98
0
LINE
8
BLACK
6
CONTINUOUS
10
66.6334
20
-221.98
11
66.7286
21
-222.075
0
LINE
8
BLACK
6
CONTINUOUS
10
66.7286
20
-222.075
11
66.8238
21
-222.266
0
LINE
8
BLACK
6
CONTINUOUS
10
66.8238
20
-222.266
11
66.8238
21
-222.742
0
LINE
8
BLACK
6
CONTINUOUS
10
66.8238
20
-222.742
11
66.7286
21
-222.932
0
LINE
8
BLACK
6
CONTINUOUS
10
66.7286
20
-222.932
11
66.6334
21
-223.028
0
LINE
8
BLACK
6
CONTINUOUS
10
66.6334
20
-223.028
11
66.4429
21
-223.123
0
LINE
8
BLACK
6
CONTINUOUS
10
66.4429
20
-223.123
11
65.9667
21
-223.123
0
LINE
8
BLACK
6
CONTINUOUS
10
65.9667
20
-223.123
11
65.7762
21
-223.028
0
LINE
8
BLACK
6
CONTINUOUS
10
65.7762
20
-223.028
11
65.681
21
-222.932
0
LINE
8
BLACK
6
CONTINUOUS
10
67.4905
20
-221.123
11
68.8238
21
-221.123
0
LINE
8
BLACK
6
CONTINUOUS
10
68.8238
20
-221.123
11
67.9667
21
-223.123
0
LINE
8
BLACK
6
CONTINUOUS
10
69.4905
20
-221.123
11
69.4905
21
-221.504
0
LINE
8
BLACK
6
CONTINUOUS
10
70.2524
20
-221.123
11
70.2524
21
-221.504
0
LINE
8
BLACK
6
CONTINUOUS
10
73.2048
20
-223.885
11
73.1096
21
-223.79
0
LINE
8
BLACK
6
CONTINUOUS
10
73.1096
20
-223.79
11
72.9191
21
-223.504
0
LINE
8
BLACK
6
CONTINUOUS
10
72.9191
20
-223.504
11
72.8238
21
-223.313
0
LINE
8
BLACK
6
CONTINUOUS
10
72.8238
20
-223.313
11
72.7286
21
-223.028
0
LINE
8
BLACK
6
CONTINUOUS
10
72.7286
20
-223.028
11
72.6334
21
-222.551
0
LINE
8
BLACK
6
CONTINUOUS
10
72.6334
20
-222.551
11
72.6334
21
-222.171
0
LINE
8
BLACK
6
CONTINUOUS
10
72.6334
20
-222.171
11
72.7286
21
-221.694
0
LINE
8
BLACK
6
CONTINUOUS
10
72.7286
20
-221.694
11
72.8238
21
-221.409
0
LINE
8
BLACK
6
CONTINUOUS
10
72.8238
20
-221.409
11
72.9191
21
-221.218
0
LINE
8
BLACK
6
CONTINUOUS
10
72.9191
20
-221.218
11
73.1096
21
-220.932
0
LINE
8
BLACK
6
CONTINUOUS
10
73.1096
20
-220.932
11
73.2048
21
-220.837
0
LINE
8
BLACK
6
CONTINUOUS
10
73.8715
20
-221.313
11
73.9667
21
-221.218
0
LINE
8
BLACK
6
CONTINUOUS
10
73.9667
20
-221.218
11
74.1572
21
-221.123
0
LINE
8
BLACK
6
CONTINUOUS
10
74.1572
20
-221.123
11
74.6334
21
-221.123
0
LINE
8
BLACK
6
CONTINUOUS
10
74.6334
20
-221.123
11
74.8238
21
-221.218
0
LINE
8
BLACK
6
CONTINUOUS
10
74.8238
20
-221.218
11
74.9191
21
-221.313
0
LINE
8
BLACK
6
CONTINUOUS
10
74.9191
20
-221.313
11
75.0143
21
-221.504
0
LINE
8
BLACK
6
CONTINUOUS
10
75.0143
20
-221.504
11
75.0143
21
-221.694
0
LINE
8
BLACK
6
CONTINUOUS
10
75.0143
20
-221.694
11
74.9191
21
-221.98
0
LINE
8
BLACK
6
CONTINUOUS
10
74.9191
20
-221.98
11
73.7762
21
-223.123
0
LINE
8
BLACK
6
CONTINUOUS
10
73.7762
20
-223.123
11
75.0143
21
-223.123
0
LINE
8
BLACK
6
CONTINUOUS
10
77.3953
20
-223.123
11
77.3953
21
-221.123
0
LINE
8
BLACK
6
CONTINUOUS
10
78.2524
20
-223.123
11
78.2524
21
-222.075
0
LINE
8
BLACK
6
CONTINUOUS
10
78.2524
20
-222.075
11
78.1572
21
-221.885
0
LINE
8
BLACK
6
CONTINUOUS
10
78.1572
20
-221.885
11
77.9667
21
-221.79
0
LINE
8
BLACK
6
CONTINUOUS
10
77.9667
20
-221.79
11
77.681
21
-221.79
0
LINE
8
BLACK
6
CONTINUOUS
10
77.681
20
-221.79
11
77.4905
21
-221.885
0
LINE
8
BLACK
6
CONTINUOUS
10
77.4905
20
-221.885
11
77.3953
21
-221.98
0
LINE
8
BLACK
6
CONTINUOUS
10
79.4905
20
-223.123
11
79.3
21
-223.028
0
LINE
8
BLACK
6
CONTINUOUS
10
79.3
20
-223.028
11
79.2048
21
-222.932
0
LINE
8
BLACK
6
CONTINUOUS
10
79.2048
20
-222.932
11
79.1096
21
-222.742
0
LINE
8
BLACK
6
CONTINUOUS
10
79.1096
20
-222.742
11
79.1096
21
-222.171
0
LINE
8
BLACK
6
CONTINUOUS
10
79.1096
20
-222.171
11
79.2048
21
-221.98
0
LINE
8
BLACK
6
CONTINUOUS
10
79.2048
20
-221.98
11
79.3
21
-221.885
0
LINE
8
BLACK
6
CONTINUOUS
10
79.3
20
-221.885
11
79.4905
21
-221.79
0
LINE
8
BLACK
6
CONTINUOUS
10
79.4905
20
-221.79
11
79.7762
21
-221.79
0
LINE
8
BLACK
6
CONTINUOUS
10
79.7762
20
-221.79
11
79.9667
21
-221.885
0
LINE
8
BLACK
6
CONTINUOUS
10
79.9667
20
-221.885
11
80.0619
21
-221.98
0
LINE
8
BLACK
6
CONTINUOUS
10
80.0619
20
-221.98
11
80.1572
21
-222.171
0
LINE
8
BLACK
6
CONTINUOUS
10
80.1572
20
-222.171
11
80.1572
21
-222.742
0
LINE
8
BLACK
6
CONTINUOUS
10
80.1572
20
-222.742
11
80.0619
21
-222.932
0
LINE
8
BLACK
6
CONTINUOUS
10
80.0619
20
-222.932
11
79.9667
21
-223.028
0
LINE
8
BLACK
6
CONTINUOUS
10
79.9667
20
-223.028
11
79.7762
21
-223.123
0
LINE
8
BLACK
6
CONTINUOUS
10
79.7762
20
-223.123
11
79.4905
21
-223.123
0
LINE
8
BLACK
6
CONTINUOUS
10
81.3
20
-223.123
11
81.1096
21
-223.028
0
LINE
8
BLACK
6
CONTINUOUS
10
81.1096
20
-223.028
11
81.0143
21
-222.837
0
LINE
8
BLACK
6
CONTINUOUS
10
81.0143
20
-222.837
11
81.0143
21
-221.123
0
LINE
8
BLACK
6
CONTINUOUS
10
82.8238
20
-223.028
11
82.6334
21
-223.123
0
LINE
8
BLACK
6
CONTINUOUS
10
82.6334
20
-223.123
11
82.2524
21
-223.123
0
LINE
8
BLACK
6
CONTINUOUS
10
82.2524
20
-223.123
11
82.0619
21
-223.028
0
LINE
8
BLACK
6
CONTINUOUS
10
82.0619
20
-223.028
11
81.9667
21
-222.837
0
LINE
8
BLACK
6
CONTINUOUS
10
81.9667
20
-222.837
11
81.9667
21
-222.075
0
LINE
8
BLACK
6
CONTINUOUS
10
81.9667
20
-222.075
11
82.0619
21
-221.885
0
LINE
8
BLACK
6
CONTINUOUS
10
82.0619
20
-221.885
11
82.2524
21
-221.79
0
LINE
8
BLACK
6
CONTINUOUS
10
82.2524
20
-221.79
11
82.6334
21
-221.79
0
LINE
8
BLACK
6
CONTINUOUS
10
82.6334
20
-221.79
11
82.8238
21
-221.885
0
LINE
8
BLACK
6
CONTINUOUS
10
82.8238
20
-221.885
11
82.9191
21
-222.075
0
LINE
8
BLACK
6
CONTINUOUS
10
82.9191
20
-222.075
11
82.9191
21
-222.266
0
LINE
8
BLACK
6
CONTINUOUS
10
82.9191
20
-222.266
11
81.9667
21
-222.456
0
LINE
8
BLACK
6
CONTINUOUS
10
83.681
20
-223.028
11
83.8715
21
-223.123
0
LINE
8
BLACK
6
CONTINUOUS
10
83.8715
20
-223.123
11
84.2524
21
-223.123
0
LINE
8
BLACK
6
CONTINUOUS
10
84.2524
20
-223.123
11
84.4429
21
-223.028
0
LINE
8
BLACK
6
CONTINUOUS
10
84.4429
20
-223.028
11
84.5381
21
-222.837
0
LINE
8
BLACK
6
CONTINUOUS
10
84.5381
20
-222.837
11
84.5381
21
-222.742
0
LINE
8
BLACK
6
CONTINUOUS
10
84.5381
20
-222.742
11
84.4429
21
-222.551
0
LINE
8
BLACK
6
CONTINUOUS
10
84.4429
20
-222.551
11
84.2524
21
-222.456
0
LINE
8
BLACK
6
CONTINUOUS
10
84.2524
20
-222.456
11
83.9667
21
-222.456
0
LINE
8
BLACK
6
CONTINUOUS
10
83.9667
20
-222.456
11
83.7762
21
-222.361
0
LINE
8
BLACK
6
CONTINUOUS
10
83.7762
20
-222.361
11
83.681
21
-222.171
0
LINE
8
BLACK
6
CONTINUOUS
10
83.681
20
-222.171
11
83.681
21
-222.075
0
LINE
8
BLACK
6
CONTINUOUS
10
83.681
20
-222.075
11
83.7762
21
-221.885
0
LINE
8
BLACK
6
CONTINUOUS
10
83.7762
20
-221.885
11
83.9667
21
-221.79
0
LINE
8
BLACK
6
CONTINUOUS
10
83.9667
20
-221.79
11
84.2524
21
-221.79
0
LINE
8
BLACK
6
CONTINUOUS
10
84.2524
20
-221.79
11
84.4429
21
-221.885
0
LINE
8
BLACK
6
CONTINUOUS
10
85.2048
20
-223.885
11
85.3
21
-223.79
0
LINE
8
BLACK
6
CONTINUOUS
10
85.3
20
-223.79
11
85.4905
21
-223.504
0
LINE
8
BLACK
6
CONTINUOUS
10
85.4905
20
-223.504
11
85.5857
21
-223.313
0
LINE
8
BLACK
6
CONTINUOUS
10
85.5857
20
-223.313
11
85.681
21
-223.028
0
LINE
8
BLACK
6
CONTINUOUS
10
85.681
20
-223.028
11
85.7762
21
-222.551
0
LINE
8
BLACK
6
CONTINUOUS
10
85.7762
20
-222.551
11
85.7762
21
-222.171
0
LINE
8
BLACK
6
CONTINUOUS
10
85.7762
20
-222.171
11
85.681
21
-221.694
0
LINE
8
BLACK
6
CONTINUOUS
10
85.681
20
-221.694
11
85.5857
21
-221.409
0
LINE
8
BLACK
6
CONTINUOUS
10
85.5857
20
-221.409
11
85.4905
21
-221.218
0
LINE
8
BLACK
6
CONTINUOUS
10
85.4905
20
-221.218
11
85.3
21
-220.932
0
LINE
8
BLACK
6
CONTINUOUS
10
85.3
20
-220.932
11
85.2048
21
-220.837
  0
ENDSEC
  0
EOF
