G04 #@! TF.GenerationSoftware,KiCad,Pcbnew,(6.0.6-69-g6d26e8e3e8)*
G04 #@! TF.CreationDate,2022-07-20T16:26:27-04:00*
G04 #@! TF.ProjectId,bottom,626f7474-6f6d-42e6-9b69-6361645f7063,rev?*
G04 #@! TF.SameCoordinates,Original*
G04 #@! TF.FileFunction,Legend,Bot*
G04 #@! TF.FilePolarity,Positive*
%FSLAX46Y46*%
G04 Gerber Fmt 4.6, Leading zero omitted, Abs format (unit mm)*
G04 Created by KiCad (PCBNEW (6.0.6-69-g6d26e8e3e8)) date 2022-07-20 16:26:27*
%MOMM*%
%LPD*%
G01*
G04 APERTURE LIST*
G04 APERTURE END LIST*
G36*
X209804619Y-188912649D02*
G01*
X210562211Y-189263273D01*
X211444442Y-189812496D01*
X212417126Y-190546798D01*
X213006986Y-191047359D01*
X213484504Y-191523667D01*
X213708040Y-191882570D01*
X213701013Y-192164891D01*
X213486839Y-192411449D01*
X213480345Y-192416662D01*
X213409749Y-192531212D01*
X213442103Y-192714000D01*
X213603110Y-193004621D01*
X213918481Y-193442671D01*
X214413919Y-194067743D01*
X215115133Y-194919432D01*
X215582785Y-195489573D01*
X216164590Y-196221360D01*
X216635841Y-196840694D01*
X216957202Y-197295486D01*
X217089336Y-197533646D01*
X217092310Y-197755140D01*
X216845788Y-198038877D01*
X216637650Y-198129419D01*
X216346476Y-198151314D01*
X216264851Y-198110383D01*
X215904734Y-197880938D01*
X215345042Y-197492988D01*
X214634347Y-196983019D01*
X213821220Y-196387518D01*
X212954230Y-195742970D01*
X212081947Y-195085860D01*
X211252942Y-194452676D01*
X210515786Y-193879902D01*
X209919048Y-193404025D01*
X209511299Y-193061530D01*
X209341109Y-192888904D01*
X209279801Y-192732637D01*
X209319742Y-192525967D01*
X209621860Y-192326393D01*
X209659311Y-192306512D01*
X209843139Y-192187414D01*
X209913585Y-192036109D01*
X209857463Y-191782845D01*
X209661588Y-191357872D01*
X209312770Y-190691437D01*
X209159057Y-190392971D01*
X208873028Y-189779846D01*
X208692579Y-189306676D01*
X208651561Y-189057129D01*
X208800083Y-188861294D01*
X209205849Y-188774148D01*
X209804619Y-188912649D01*
G37*
G36*
X220169064Y-149508616D02*
G01*
X219742086Y-150734128D01*
X218753549Y-153273206D01*
X218297291Y-154350798D01*
X217696525Y-155769693D01*
X217602620Y-155991478D01*
X216314050Y-158835995D01*
X215488719Y-160554312D01*
X214912590Y-161753798D01*
X213422991Y-164691936D01*
X213181122Y-165144456D01*
X211870008Y-167597453D01*
X210278389Y-170417395D01*
X210130700Y-170671830D01*
X209813201Y-171219937D01*
X209591054Y-171605076D01*
X209505257Y-171756251D01*
X209522208Y-171768273D01*
X209759228Y-171888179D01*
X210217730Y-172106678D01*
X210823580Y-172388229D01*
X211354019Y-172627453D01*
X211883077Y-172829110D01*
X212341528Y-172921134D01*
X212869883Y-172928053D01*
X213608656Y-172874396D01*
X214864065Y-172813354D01*
X216484484Y-172879986D01*
X217939629Y-173111879D01*
X219176214Y-173499577D01*
X220140950Y-174033622D01*
X220670212Y-174516887D01*
X221211383Y-175313009D01*
X221510109Y-176185179D01*
X221555438Y-177062837D01*
X221387584Y-177685604D01*
X221336423Y-177875419D01*
X220842116Y-178552365D01*
X220496834Y-178796280D01*
X219941521Y-178941233D01*
X219229207Y-178872770D01*
X218297210Y-178591863D01*
X218160477Y-178541277D01*
X217467916Y-178236318D01*
X216927571Y-177869270D01*
X216371900Y-177330359D01*
X216294153Y-177247738D01*
X215821700Y-176783942D01*
X215391370Y-176477985D01*
X214904442Y-176289610D01*
X214262193Y-176178562D01*
X213365902Y-176104583D01*
X211990717Y-176014924D01*
X210916337Y-178787180D01*
X210014363Y-181114573D01*
X209675531Y-181984355D01*
X208751286Y-184300886D01*
X207883949Y-186376945D01*
X207039839Y-188284740D01*
X206185279Y-190096478D01*
X205286591Y-191884369D01*
X204310093Y-193720623D01*
X203222110Y-195677447D01*
X202905733Y-196230263D01*
X202400847Y-197095448D01*
X201848294Y-198027498D01*
X201285587Y-198964450D01*
X200750244Y-199844342D01*
X200279779Y-200605208D01*
X199911708Y-201185086D01*
X199683545Y-201522014D01*
X199622138Y-201628743D01*
X199661567Y-201770641D01*
X199919352Y-201922221D01*
X200454950Y-202130368D01*
X200822876Y-202291020D01*
X201502505Y-202676276D01*
X202223572Y-203164117D01*
X202897338Y-203688467D01*
X203435059Y-204183250D01*
X203747996Y-204582388D01*
X203789461Y-204669086D01*
X203805727Y-204919220D01*
X203561378Y-205170631D01*
X203467829Y-205246511D01*
X203303193Y-205457421D01*
X203388873Y-205654668D01*
X203411743Y-205682615D01*
X203624628Y-205954599D01*
X203994615Y-206434938D01*
X204476680Y-207065006D01*
X205025801Y-207786175D01*
X205076932Y-207853545D01*
X205663070Y-208641778D01*
X206054288Y-209211648D01*
X206278692Y-209612823D01*
X206364386Y-209894966D01*
X206339473Y-210107747D01*
X206158796Y-210383375D01*
X205809554Y-210427284D01*
X205782894Y-210418492D01*
X205498323Y-210255132D01*
X204999599Y-209921315D01*
X204339680Y-209456204D01*
X203571524Y-208898968D01*
X202748087Y-208288771D01*
X201922329Y-207664777D01*
X201147207Y-207066156D01*
X200475680Y-206532069D01*
X199960704Y-206101686D01*
X199703921Y-205732910D01*
X199732436Y-205330996D01*
X200073488Y-205018226D01*
X200169593Y-204940018D01*
X200194384Y-204729298D01*
X200064835Y-204347720D01*
X199765474Y-203730610D01*
X199719019Y-203641627D01*
X199415084Y-203118043D01*
X199159976Y-202770788D01*
X199004829Y-202671088D01*
X199000326Y-202673864D01*
X198828621Y-202861992D01*
X198504166Y-203277829D01*
X198071765Y-203862249D01*
X197576232Y-204556125D01*
X196982734Y-205386231D01*
X196539869Y-205973503D01*
X195401088Y-207483610D01*
X193714086Y-209577594D01*
X192007801Y-211563334D01*
X190368310Y-213335986D01*
X190152508Y-213554094D01*
X189758400Y-213895786D01*
X189465654Y-214024968D01*
X189192009Y-213987175D01*
X189107481Y-213950118D01*
X188961601Y-213820628D01*
X188856768Y-213575466D01*
X188780004Y-213155397D01*
X188718326Y-212501187D01*
X188658758Y-211553601D01*
X188646835Y-211325136D01*
X188603626Y-209911686D01*
X188594120Y-208255848D01*
X188600584Y-207720871D01*
X189782466Y-207720871D01*
X189787218Y-208917352D01*
X189806062Y-209933619D01*
X189828600Y-210612057D01*
X189856802Y-211292947D01*
X189883266Y-211771698D01*
X189904364Y-211973047D01*
X190007543Y-211943372D01*
X190239267Y-211719523D01*
X190455167Y-211475692D01*
X190854080Y-211034310D01*
X191311108Y-210535008D01*
X191427757Y-210407103D01*
X191942701Y-209821627D01*
X192538543Y-209119354D01*
X193171019Y-208355311D01*
X193795864Y-207584525D01*
X194368812Y-206862021D01*
X194845602Y-206242827D01*
X195181966Y-205781968D01*
X195333642Y-205534473D01*
X195339246Y-205472180D01*
X195315505Y-205111701D01*
X195249219Y-204506097D01*
X195150666Y-203727019D01*
X195030120Y-202846118D01*
X194897855Y-201935047D01*
X194764148Y-201065454D01*
X194639271Y-200308994D01*
X194533502Y-199737315D01*
X194457114Y-199422070D01*
X194356737Y-199489134D01*
X194034566Y-199758337D01*
X193531373Y-200197896D01*
X192889120Y-200771091D01*
X192149770Y-201441199D01*
X189865786Y-203525724D01*
X189806828Y-205753737D01*
X189791774Y-206516459D01*
X189782466Y-207720871D01*
X188600584Y-207720871D01*
X188615950Y-206449129D01*
X188666750Y-204583030D01*
X188744153Y-202749058D01*
X188820426Y-201465593D01*
X190033794Y-201465593D01*
X190116865Y-201457119D01*
X190419945Y-201257254D01*
X190904322Y-200876032D01*
X191527350Y-200347383D01*
X192246382Y-199705234D01*
X194129562Y-197985236D01*
X195510388Y-197985236D01*
X195530723Y-198117141D01*
X195962588Y-200918532D01*
X196080607Y-201663237D01*
X196228980Y-202540496D01*
X196358710Y-203242643D01*
X196458943Y-203711703D01*
X196518827Y-203889697D01*
X196535334Y-203885444D01*
X196711007Y-203698117D01*
X197033238Y-203274165D01*
X197468205Y-202663344D01*
X197982082Y-201915412D01*
X198541046Y-201080127D01*
X199111270Y-200207248D01*
X199658932Y-199346532D01*
X200150206Y-198547737D01*
X201639588Y-196019418D01*
X203393300Y-192871479D01*
X204966767Y-189822896D01*
X206400807Y-186790280D01*
X207736238Y-183690241D01*
X209013877Y-180439389D01*
X209390299Y-179431307D01*
X209778449Y-178373022D01*
X210104531Y-177463312D01*
X210352600Y-176747423D01*
X210506706Y-176270604D01*
X210550906Y-176078101D01*
X210546605Y-176073613D01*
X210324701Y-176040230D01*
X209811105Y-176018961D01*
X209060553Y-176010490D01*
X208127786Y-176015496D01*
X207067540Y-176034665D01*
X203641358Y-176116705D01*
X195510388Y-197985236D01*
X194129562Y-197985236D01*
X194425553Y-197714893D01*
X202446707Y-175676955D01*
X200066016Y-173579428D01*
X199381071Y-172976255D01*
X198664921Y-172346301D01*
X198069905Y-171823662D01*
X197643846Y-171450337D01*
X197434569Y-171268329D01*
X197364090Y-171223633D01*
X197275176Y-171236995D01*
X197168224Y-171360568D01*
X197026457Y-171631349D01*
X196833094Y-172086339D01*
X196571360Y-172762536D01*
X196224475Y-173696941D01*
X195775661Y-174926554D01*
X195243936Y-176428842D01*
X193586855Y-181734117D01*
X192204505Y-187217152D01*
X191107600Y-192831703D01*
X190306853Y-198531523D01*
X190250474Y-199038115D01*
X190155834Y-199937229D01*
X190084039Y-200685943D01*
X190041291Y-201217613D01*
X190033794Y-201465593D01*
X188820426Y-201465593D01*
X188845794Y-201038713D01*
X188969308Y-199543503D01*
X189278304Y-196842076D01*
X189989741Y-192218721D01*
X190931541Y-187498056D01*
X192083779Y-182766593D01*
X193426535Y-178110841D01*
X194939886Y-173617311D01*
X196186954Y-170183514D01*
X195483871Y-169665518D01*
X194822099Y-169179176D01*
X194183481Y-168725573D01*
X193712472Y-168433311D01*
X193343367Y-168276236D01*
X193010460Y-168228196D01*
X192648048Y-168263039D01*
X192190424Y-168354611D01*
X192086810Y-168376170D01*
X191512534Y-168470284D01*
X191037201Y-168468751D01*
X190519455Y-168357817D01*
X189817940Y-168123724D01*
X189553899Y-168026450D01*
X188738457Y-167660230D01*
X188205205Y-167270536D01*
X187899890Y-166806955D01*
X187768263Y-166219073D01*
X187765009Y-166026042D01*
X188949337Y-166026042D01*
X189058227Y-166340808D01*
X189102500Y-166422010D01*
X189528191Y-166797403D01*
X190224444Y-167046671D01*
X191136711Y-167156445D01*
X192210437Y-167113356D01*
X192592569Y-167075573D01*
X193279682Y-167046030D01*
X193756776Y-167104250D01*
X194117719Y-167257318D01*
X194440472Y-167463603D01*
X195284442Y-168061615D01*
X196334675Y-168866398D01*
X197558928Y-169852258D01*
X198924961Y-170993499D01*
X200400528Y-172264426D01*
X200795149Y-172608032D01*
X201629294Y-173327103D01*
X202362516Y-173949462D01*
X202953917Y-174440929D01*
X203362600Y-174767328D01*
X203547669Y-174894482D01*
X203590346Y-174899707D01*
X203929205Y-174908756D01*
X204547012Y-174909481D01*
X205389214Y-174902277D01*
X206401253Y-174887542D01*
X207528575Y-174865667D01*
X207724920Y-174861539D01*
X209926079Y-174835999D01*
X211811925Y-174855024D01*
X213373758Y-174918276D01*
X214602873Y-175025415D01*
X215490569Y-175176102D01*
X215582262Y-175199240D01*
X216055340Y-175376410D01*
X216466567Y-175677564D01*
X216940812Y-176189999D01*
X217363629Y-176639956D01*
X218054778Y-177201270D01*
X218737919Y-177576079D01*
X219357621Y-177744083D01*
X219858455Y-177684971D01*
X220184989Y-177378440D01*
X220237259Y-177266920D01*
X220378792Y-176553366D01*
X220191391Y-175878883D01*
X219695638Y-175270233D01*
X218912119Y-174754176D01*
X217861414Y-174357472D01*
X216881350Y-174158297D01*
X215585698Y-174036759D01*
X214220615Y-174029301D01*
X212927966Y-174142115D01*
X212548731Y-174191425D01*
X212220453Y-174200200D01*
X211888197Y-174143581D01*
X211473260Y-174000145D01*
X210896938Y-173748474D01*
X210080529Y-173367147D01*
X209964797Y-173313056D01*
X208743419Y-172776683D01*
X207282327Y-172183844D01*
X205672114Y-171567569D01*
X204003376Y-170960887D01*
X202366705Y-170396823D01*
X200852694Y-169908408D01*
X199551940Y-169528671D01*
X197423793Y-168953835D01*
X197056037Y-168563180D01*
X201960683Y-168563180D01*
X201973686Y-168669065D01*
X202062264Y-168789065D01*
X202270360Y-168926763D01*
X202640613Y-169102069D01*
X203215665Y-169334897D01*
X204038158Y-169645153D01*
X205150731Y-170052753D01*
X206133759Y-170408613D01*
X206999056Y-170713966D01*
X207619116Y-170917979D01*
X208039480Y-171032839D01*
X208305695Y-171070730D01*
X208463302Y-171043839D01*
X208557847Y-170964352D01*
X208625458Y-170864411D01*
X208855275Y-170483427D01*
X209192083Y-169899211D01*
X209604695Y-169168463D01*
X210061928Y-168347882D01*
X210532598Y-167494170D01*
X210985519Y-166664025D01*
X211389506Y-165914146D01*
X211713375Y-165301235D01*
X211925940Y-164881991D01*
X211996017Y-164713113D01*
X211842476Y-164648237D01*
X211410932Y-164514772D01*
X210770875Y-164334931D01*
X209991549Y-164128897D01*
X208722019Y-163766224D01*
X207402259Y-163292515D01*
X205980274Y-162674986D01*
X205387489Y-162399578D01*
X204560277Y-162017593D01*
X203981533Y-161763871D01*
X203604290Y-161628106D01*
X203381581Y-161599988D01*
X203266438Y-161669213D01*
X203211894Y-161825470D01*
X203170982Y-162058455D01*
X203138694Y-162230014D01*
X203037400Y-162761278D01*
X202891453Y-163522219D01*
X202715117Y-164438526D01*
X202522657Y-165435885D01*
X202405763Y-166045942D01*
X202234306Y-166961148D01*
X202094987Y-167730198D01*
X201999786Y-168286430D01*
X201960683Y-168563180D01*
X197056037Y-168563180D01*
X196490353Y-167962272D01*
X196195574Y-167656624D01*
X195038542Y-166594290D01*
X193893576Y-165747940D01*
X192792090Y-165129948D01*
X191765500Y-164752684D01*
X190845220Y-164628525D01*
X190062666Y-164769843D01*
X189449251Y-165189011D01*
X189246572Y-165414330D01*
X188999040Y-165755740D01*
X188949337Y-166026042D01*
X187765009Y-166026042D01*
X187760696Y-165770140D01*
X187879524Y-165348981D01*
X188180627Y-164834287D01*
X188300992Y-164663859D01*
X189017983Y-163978050D01*
X189898343Y-163579137D01*
X190915780Y-163461129D01*
X192044002Y-163618037D01*
X193256715Y-164043872D01*
X194527628Y-164732644D01*
X195830449Y-165678363D01*
X197138883Y-166875040D01*
X197521477Y-167257581D01*
X197950260Y-167642719D01*
X198334632Y-167889555D01*
X198791713Y-168068013D01*
X199438627Y-168248013D01*
X199552341Y-168277636D01*
X200142188Y-168427868D01*
X200559448Y-168528398D01*
X200719936Y-168558804D01*
X200726331Y-168526353D01*
X200778289Y-168236555D01*
X200870365Y-167712885D01*
X200988330Y-167036090D01*
X200991483Y-167017992D01*
X201113487Y-166356823D01*
X201292254Y-165437182D01*
X201511114Y-164342491D01*
X201753394Y-163156165D01*
X202002426Y-161961626D01*
X202396726Y-160161809D01*
X203722685Y-160161809D01*
X203773860Y-160215173D01*
X204080778Y-160422460D01*
X204593072Y-160717880D01*
X205234178Y-161056131D01*
X205626671Y-161248170D01*
X206605469Y-161682787D01*
X207671497Y-162107053D01*
X208766066Y-162502372D01*
X209830488Y-162850150D01*
X210806076Y-163131794D01*
X211634141Y-163328709D01*
X212255995Y-163422299D01*
X212612952Y-163393972D01*
X212703890Y-163288887D01*
X212928936Y-162933180D01*
X213233057Y-162404415D01*
X213573661Y-161782346D01*
X213908154Y-161146726D01*
X214193942Y-160577306D01*
X214388431Y-160153840D01*
X214449027Y-159956080D01*
X214351557Y-159913319D01*
X213973066Y-159801194D01*
X213377271Y-159644588D01*
X212636831Y-159463262D01*
X212635247Y-159462886D01*
X211645764Y-159187102D01*
X210437358Y-158786837D01*
X209104931Y-158298336D01*
X207743387Y-157757846D01*
X206447627Y-157201613D01*
X205312552Y-156665883D01*
X204503839Y-156260065D01*
X204070677Y-158125150D01*
X203932783Y-158749066D01*
X203800289Y-159432040D01*
X203725800Y-159929032D01*
X203722685Y-160161809D01*
X202396726Y-160161809D01*
X202608724Y-159194125D01*
X203635552Y-154962868D01*
X204893227Y-154962868D01*
X204926624Y-154998770D01*
X205201595Y-155186357D01*
X205685468Y-155470139D01*
X206301099Y-155804021D01*
X206579146Y-155944053D01*
X207491371Y-156356976D01*
X208591391Y-156806718D01*
X209794361Y-157262856D01*
X211015438Y-157694964D01*
X212169776Y-158072620D01*
X213172532Y-158365397D01*
X213938859Y-158542870D01*
X215085143Y-158745707D01*
X215874726Y-156995833D01*
X216139627Y-156400357D01*
X216402311Y-155788408D01*
X216574206Y-155361202D01*
X216627069Y-155186650D01*
X216626485Y-155185916D01*
X216441651Y-155123279D01*
X215982704Y-155000123D01*
X215317502Y-154833931D01*
X214513901Y-154642188D01*
X214260429Y-154582121D01*
X213394757Y-154358921D01*
X212591192Y-154113658D01*
X211755055Y-153812944D01*
X210791669Y-153423393D01*
X209606357Y-152911618D01*
X208858424Y-152580056D01*
X207963841Y-152176359D01*
X207204208Y-151825619D01*
X206642426Y-151556966D01*
X206341398Y-151399536D01*
X205908054Y-151132869D01*
X205366709Y-152978307D01*
X205189685Y-153603189D01*
X205017373Y-154268227D01*
X204912567Y-154746546D01*
X204893227Y-154962868D01*
X203635552Y-154962868D01*
X203640080Y-154944209D01*
X204721614Y-151032011D01*
X205202468Y-149513028D01*
X206382442Y-149513028D01*
X206404309Y-149824683D01*
X206590402Y-150096687D01*
X206978520Y-150378450D01*
X207606458Y-150719389D01*
X208512015Y-151168915D01*
X208843606Y-151329142D01*
X210369164Y-152002249D01*
X211979508Y-152622592D01*
X213578204Y-153157344D01*
X215068821Y-153573677D01*
X216354924Y-153838764D01*
X217287767Y-153983361D01*
X218131206Y-151666033D01*
X217384061Y-151514412D01*
X216076694Y-151196707D01*
X214532030Y-150731883D01*
X212862746Y-150157501D01*
X211160350Y-149506835D01*
X209516348Y-148813167D01*
X208022248Y-148109774D01*
X207030320Y-147611784D01*
X206630768Y-148709544D01*
X206487002Y-149112307D01*
X206382442Y-149513028D01*
X205202468Y-149513028D01*
X205852732Y-147458889D01*
X206202976Y-146499460D01*
X207482100Y-146499460D01*
X207506709Y-146510864D01*
X207768639Y-146637333D01*
X208269149Y-146880817D01*
X208950314Y-147213107D01*
X209754209Y-147605994D01*
X211526456Y-148430188D01*
X213286148Y-149139917D01*
X214957791Y-149686049D01*
X216635413Y-150102697D01*
X217059146Y-150192908D01*
X217719972Y-150334914D01*
X218200566Y-150439926D01*
X218418455Y-150490029D01*
X218451880Y-150471254D01*
X218601112Y-150221746D01*
X218816301Y-149741996D01*
X219062971Y-149106030D01*
X219211941Y-148691658D01*
X219388140Y-148156136D01*
X219448556Y-147850179D01*
X219401791Y-147710030D01*
X219256450Y-147671930D01*
X218856058Y-147620469D01*
X218074306Y-147439847D01*
X217075477Y-147151734D01*
X215919763Y-146778023D01*
X214667364Y-146340607D01*
X213378469Y-145861378D01*
X212113276Y-145362228D01*
X210931978Y-144865051D01*
X209894770Y-144391739D01*
X209061847Y-143964184D01*
X208476964Y-143637162D01*
X207958869Y-145060618D01*
X207860479Y-145333327D01*
X207653827Y-145925178D01*
X207519246Y-146339404D01*
X207482100Y-146499460D01*
X206202976Y-146499460D01*
X207032841Y-144226196D01*
X207855484Y-142290359D01*
X209176887Y-142290359D01*
X209219919Y-142550221D01*
X209438994Y-142786295D01*
X209868060Y-143045762D01*
X210541073Y-143375804D01*
X211491981Y-143823600D01*
X211963955Y-144042160D01*
X213482579Y-144687237D01*
X215070432Y-145286933D01*
X216603407Y-145796205D01*
X217957391Y-146170011D01*
X218494426Y-146296093D01*
X219180880Y-146441159D01*
X219621846Y-146493279D01*
X219878076Y-146449319D01*
X220010327Y-146306149D01*
X220079353Y-146060637D01*
X220135207Y-145794619D01*
X220266870Y-145217624D01*
X220422285Y-144573236D01*
X220672236Y-143565909D01*
X220110662Y-143476332D01*
X220034870Y-143463311D01*
X219359273Y-143304512D01*
X218444917Y-143039916D01*
X217367250Y-142695852D01*
X216201724Y-142298654D01*
X215023790Y-141874651D01*
X213908897Y-141450175D01*
X212932494Y-141051558D01*
X212170033Y-140705131D01*
X211538034Y-140398196D01*
X210925895Y-140113374D01*
X210494594Y-139927326D01*
X210311171Y-139870165D01*
X210291374Y-139890913D01*
X210146106Y-140141392D01*
X209908675Y-140611046D01*
X209619341Y-141221254D01*
X209483142Y-141510551D01*
X209275945Y-141959530D01*
X209176887Y-142290359D01*
X207855484Y-142290359D01*
X208261346Y-141335288D01*
X209537654Y-138787521D01*
X209571350Y-138731427D01*
X211073624Y-138731427D01*
X211079769Y-138740744D01*
X211288977Y-138891923D01*
X211721535Y-139141391D01*
X212293239Y-139440213D01*
X212343660Y-139465295D01*
X213106315Y-139815271D01*
X214036149Y-140199981D01*
X215078184Y-140601024D01*
X216177447Y-140999997D01*
X217278962Y-141378499D01*
X218327753Y-141718129D01*
X219268847Y-142000486D01*
X220047265Y-142207163D01*
X220608034Y-142319763D01*
X220896179Y-142319883D01*
X220896526Y-142319714D01*
X220967625Y-142130516D01*
X221050301Y-141686052D01*
X221126728Y-141082037D01*
X221249440Y-139894476D01*
X220355267Y-139698593D01*
X219976732Y-139601981D01*
X219182730Y-139359938D01*
X218200516Y-139030415D01*
X217112634Y-138643694D01*
X216001628Y-138230059D01*
X214950043Y-137819794D01*
X214040424Y-137443180D01*
X213355313Y-137130502D01*
X212222072Y-136568152D01*
X211618089Y-137585970D01*
X211324130Y-138112084D01*
X211126961Y-138526309D01*
X211073624Y-138731427D01*
X209571350Y-138731427D01*
X210861171Y-136584250D01*
X212231302Y-134726830D01*
X213647453Y-133216616D01*
X215109031Y-132054965D01*
X215662585Y-131749380D01*
X216706647Y-131372714D01*
X217830132Y-131152790D01*
X218873954Y-131128745D01*
X219032155Y-131144400D01*
X219532511Y-131237084D01*
X219915772Y-131435390D01*
X220355429Y-131820300D01*
X220610796Y-132076069D01*
X221301471Y-132939356D01*
X221796569Y-133911632D01*
X222161302Y-135111758D01*
X222228676Y-135412833D01*
X222469439Y-137117719D01*
X222503262Y-138984233D01*
X222327356Y-141035063D01*
X222069885Y-142531706D01*
X221938935Y-143292897D01*
X221335208Y-145780425D01*
X221062639Y-146689159D01*
X220513389Y-148520334D01*
X220169064Y-149508616D01*
G37*
G36*
X199773553Y-135058813D02*
G01*
X199789321Y-135064791D01*
X200059010Y-135307916D01*
X200154796Y-135781989D01*
X200085764Y-136529806D01*
X200072675Y-136618553D01*
X200108665Y-137192714D01*
X200419738Y-137720904D01*
X200639821Y-138031617D01*
X200756945Y-138441724D01*
X200555043Y-138703545D01*
X200035594Y-138812875D01*
X199992664Y-138815346D01*
X199412263Y-138977563D01*
X198891442Y-139419260D01*
X198806517Y-139511828D01*
X198351889Y-139862294D01*
X197994208Y-139876247D01*
X197749767Y-139560155D01*
X197634851Y-138920483D01*
X197629769Y-138847461D01*
X197490976Y-138197063D01*
X197225375Y-137743069D01*
X197068532Y-137552895D01*
X196965927Y-137150799D01*
X197175647Y-136827705D01*
X197670212Y-136651069D01*
X197707555Y-136645854D01*
X198200579Y-136453601D01*
X198582217Y-135996174D01*
X198617730Y-135936761D01*
X199040221Y-135341786D01*
X199413639Y-135058465D01*
X199773553Y-135058813D01*
G37*
G36*
X227788763Y-186200624D02*
G01*
X228260470Y-186640002D01*
X228365620Y-186825462D01*
X228416264Y-187213392D01*
X228270303Y-187759191D01*
X228146041Y-188064046D01*
X227892337Y-188433785D01*
X227543370Y-188610220D01*
X227124071Y-188661756D01*
X226594889Y-188513999D01*
X226222053Y-188161055D01*
X226030294Y-187680382D01*
X226044342Y-187149439D01*
X226288922Y-186645687D01*
X226788768Y-186246582D01*
X227234072Y-186103080D01*
X227788763Y-186200624D01*
G37*
G36*
X168248300Y-202854654D02*
G01*
X168598737Y-203222014D01*
X168695765Y-203525420D01*
X168635680Y-204038303D01*
X168351094Y-204458099D01*
X167900874Y-204663236D01*
X167430310Y-204629523D01*
X166997810Y-204348117D01*
X166808287Y-203843171D01*
X166808975Y-203662756D01*
X166983316Y-203185406D01*
X167345026Y-202869504D01*
X167798542Y-202748202D01*
X168248300Y-202854654D01*
G37*
G36*
X227751109Y-174149018D02*
G01*
X227779931Y-174160202D01*
X228189024Y-174498368D01*
X228438714Y-175042044D01*
X228469193Y-175664972D01*
X228425168Y-175875779D01*
X228226058Y-176233547D01*
X227798835Y-176500309D01*
X227237517Y-176642798D01*
X226676443Y-176533724D01*
X226260857Y-176193421D01*
X226058436Y-175680762D01*
X226136860Y-175054620D01*
X226320613Y-174741432D01*
X226757525Y-174363220D01*
X227278218Y-174141143D01*
X227751109Y-174149018D01*
G37*
G36*
X205330371Y-194044522D02*
G01*
X205896996Y-194200718D01*
X206008687Y-194236181D01*
X206532702Y-194444667D01*
X207081172Y-194747683D01*
X207732647Y-195193159D01*
X208565682Y-195829023D01*
X208582002Y-195841866D01*
X209232638Y-196373042D01*
X209765545Y-196843701D01*
X210126110Y-197203170D01*
X210259719Y-197400779D01*
X210145862Y-197629357D01*
X209827021Y-197880769D01*
X209561230Y-198083206D01*
X209531358Y-198243756D01*
X209676742Y-198405052D01*
X210011492Y-198795477D01*
X210496060Y-199368676D01*
X211092265Y-200079474D01*
X211761918Y-200882695D01*
X212080415Y-201267507D01*
X212779660Y-202131700D01*
X213274565Y-202781686D01*
X213588859Y-203251806D01*
X213746267Y-203576398D01*
X213770514Y-203789801D01*
X213665138Y-204042062D01*
X213417442Y-204244131D01*
X213285234Y-204269094D01*
X213077643Y-204282464D01*
X213074648Y-204281149D01*
X212892997Y-204157419D01*
X212478097Y-203859182D01*
X211875844Y-203420389D01*
X211132129Y-202874992D01*
X210292847Y-202256944D01*
X209403891Y-201600195D01*
X208511155Y-200938698D01*
X207660530Y-200306404D01*
X206897912Y-199737268D01*
X206269192Y-199265237D01*
X205820266Y-198924266D01*
X205597024Y-198748306D01*
X205352976Y-198425920D01*
X205396763Y-198078207D01*
X205782971Y-197783197D01*
X205940572Y-197681566D01*
X205993675Y-197524529D01*
X205924824Y-197249161D01*
X205718038Y-196791847D01*
X205357336Y-196088975D01*
X205116246Y-195614534D01*
X204822938Y-194952866D01*
X204702702Y-194508747D01*
X204739534Y-194234127D01*
X204815188Y-194118567D01*
X205000712Y-194016245D01*
X205330371Y-194044522D01*
G37*
G36*
X186285640Y-197174711D02*
G01*
X187041613Y-197295737D01*
X187767679Y-197514851D01*
X188271799Y-197712666D01*
X188730596Y-197967211D01*
X188879536Y-198216257D01*
X188712411Y-198489056D01*
X188223012Y-198814858D01*
X187405132Y-199222916D01*
X187059425Y-199386050D01*
X186473313Y-199672888D01*
X186062505Y-199888075D01*
X185899849Y-199994282D01*
X185920011Y-200146318D01*
X186036190Y-200487737D01*
X186073901Y-200591915D01*
X186095393Y-200799196D01*
X185989072Y-200949824D01*
X185717575Y-201049268D01*
X185243545Y-201102996D01*
X184529622Y-201116481D01*
X183538446Y-201095188D01*
X182232658Y-201044590D01*
X181185843Y-200999841D01*
X180198252Y-200958112D01*
X179368516Y-200923555D01*
X178761499Y-200898872D01*
X178442066Y-200886762D01*
X178020568Y-200825342D01*
X177492208Y-200659979D01*
X177324027Y-200578880D01*
X177109093Y-200366725D01*
X177149589Y-200054136D01*
X177181726Y-199986003D01*
X177340001Y-199824705D01*
X177646980Y-199668270D01*
X178152130Y-199499014D01*
X178904917Y-199299252D01*
X179954810Y-199051301D01*
X180449554Y-198938296D01*
X181344521Y-198734812D01*
X182097856Y-198564740D01*
X182642160Y-198443262D01*
X182910035Y-198385562D01*
X182920372Y-198383520D01*
X183125212Y-198272993D01*
X183083787Y-197994525D01*
X183020880Y-197703615D01*
X183118785Y-197437182D01*
X183450297Y-197265342D01*
X184054328Y-197170351D01*
X184969792Y-197134463D01*
X185364606Y-197133397D01*
X186285640Y-197174711D01*
G37*
G36*
X167325395Y-194588079D02*
G01*
X167404745Y-194831424D01*
X167354305Y-195240865D01*
X167123995Y-195514550D01*
X166969670Y-195547063D01*
X166608460Y-195428557D01*
X166318489Y-195144404D01*
X166237598Y-194804950D01*
X166331987Y-194594964D01*
X166647158Y-194373849D01*
X167027418Y-194361760D01*
X167325395Y-194588079D01*
G37*
G36*
X231581302Y-158675135D02*
G01*
X231809240Y-159061299D01*
X231858616Y-159727026D01*
X231853533Y-159805711D01*
X231890958Y-160446482D01*
X232082323Y-160805195D01*
X232252407Y-160995165D01*
X232424506Y-161410953D01*
X232414487Y-161655665D01*
X232228105Y-161813081D01*
X231775692Y-161926559D01*
X231652476Y-161953502D01*
X231154436Y-162139546D01*
X230829893Y-162378231D01*
X230648409Y-162587037D01*
X230338364Y-162850731D01*
X230266753Y-162888642D01*
X229924594Y-162891343D01*
X229669489Y-162585541D01*
X229534251Y-162005718D01*
X229411403Y-161476296D01*
X229029287Y-160942586D01*
X228810059Y-160725354D01*
X228692356Y-160384049D01*
X228912779Y-160112872D01*
X229463554Y-159929955D01*
X230053283Y-159716571D01*
X230454656Y-159283479D01*
X230820106Y-158814290D01*
X231232393Y-158586734D01*
X231581302Y-158675135D01*
G37*
G36*
X175735722Y-207815796D02*
G01*
X175981800Y-208134653D01*
X176007080Y-208415774D01*
X175776070Y-208728146D01*
X175721531Y-208772018D01*
X175326174Y-208881138D01*
X174955972Y-208713748D01*
X174734769Y-208318558D01*
X174768743Y-207987728D01*
X175016270Y-207758988D01*
X175376238Y-207696125D01*
X175735722Y-207815796D01*
G37*
G36*
X181997937Y-176851435D02*
G01*
X182466695Y-177278064D01*
X182619895Y-177598255D01*
X182652316Y-178169769D01*
X182456135Y-178712243D01*
X182077967Y-179121546D01*
X181564427Y-179293549D01*
X181106084Y-179273104D01*
X180675949Y-179089723D01*
X180369172Y-178670350D01*
X180297266Y-178494159D01*
X180267424Y-177888037D01*
X180518485Y-177320231D01*
X181009104Y-176904804D01*
X181438137Y-176764009D01*
X181997937Y-176851435D01*
G37*
G36*
X222186384Y-187910775D02*
G01*
X222558423Y-188102550D01*
X222752636Y-188460367D01*
X222785596Y-188796438D01*
X222697235Y-189003782D01*
X222392618Y-189172955D01*
X222143162Y-189254052D01*
X221812401Y-189256744D01*
X221811118Y-189256274D01*
X221539918Y-189012616D01*
X221348636Y-188616738D01*
X221330241Y-188260696D01*
X221424744Y-188097774D01*
X221765499Y-187903149D01*
X222186384Y-187910775D01*
G37*
G36*
X171652462Y-209307304D02*
G01*
X170676086Y-209904431D01*
X169761914Y-210355204D01*
X169000742Y-210605306D01*
X168443085Y-210643084D01*
X167778321Y-210468469D01*
X167271902Y-210087442D01*
X166971963Y-209560733D01*
X166943416Y-209175483D01*
X168123697Y-209175483D01*
X168250926Y-209382658D01*
X168611325Y-209429450D01*
X169146841Y-209316113D01*
X169799419Y-209042902D01*
X170295629Y-208778859D01*
X170781883Y-208496110D01*
X171064399Y-208301806D01*
X171074533Y-208292683D01*
X171188477Y-208150586D01*
X171069050Y-208080882D01*
X170656552Y-208046155D01*
X170620039Y-208044868D01*
X170089745Y-208107247D01*
X169467933Y-208282899D01*
X168864280Y-208527891D01*
X168388469Y-208798287D01*
X168150179Y-209050149D01*
X168123697Y-209175483D01*
X166943416Y-209175483D01*
X166926639Y-208949074D01*
X167184062Y-208313196D01*
X167229739Y-208251572D01*
X167670654Y-207864066D01*
X168319934Y-207483028D01*
X169078100Y-207147618D01*
X169845670Y-206896993D01*
X170523165Y-206770314D01*
X171011104Y-206806739D01*
X171015939Y-206808416D01*
X171351211Y-206810993D01*
X171896055Y-206706418D01*
X172534949Y-206516682D01*
X172800235Y-206426528D01*
X173459656Y-206238772D01*
X173886548Y-206205638D01*
X174147095Y-206330923D01*
X174307480Y-206618428D01*
X174328824Y-206694182D01*
X174311510Y-206898294D01*
X174153882Y-207155957D01*
X173813151Y-207525525D01*
X173246530Y-208065352D01*
X172600250Y-208618135D01*
X172557822Y-208648986D01*
X171652462Y-209307304D01*
G37*
G36*
X228854054Y-182441543D02*
G01*
X228031506Y-183516186D01*
X227176667Y-184311386D01*
X226319850Y-184791046D01*
X226038054Y-184882342D01*
X225570070Y-184926941D01*
X225150043Y-184763249D01*
X225028046Y-184681519D01*
X224576895Y-184155480D01*
X224364506Y-183491403D01*
X224365798Y-183479511D01*
X225592160Y-183479511D01*
X225684041Y-183687536D01*
X225930740Y-183723028D01*
X226351629Y-183475794D01*
X226572234Y-183285379D01*
X226952049Y-182897708D01*
X227358180Y-182438439D01*
X227722622Y-181988758D01*
X227977373Y-181629851D01*
X228054427Y-181442905D01*
X227996263Y-181433043D01*
X227700619Y-181517903D01*
X227248397Y-181707955D01*
X226973146Y-181857478D01*
X226443751Y-182248812D01*
X225985904Y-182704380D01*
X225676432Y-183142005D01*
X225592160Y-183479511D01*
X224365798Y-183479511D01*
X224437734Y-182817291D01*
X224710031Y-182340435D01*
X225216941Y-181745763D01*
X225850533Y-181156392D01*
X226514635Y-180661066D01*
X227113074Y-180348532D01*
X227482970Y-180179916D01*
X228102872Y-179809644D01*
X228696256Y-179373460D01*
X228941352Y-179172814D01*
X229443884Y-178798145D01*
X229785596Y-178634950D01*
X230035366Y-178660250D01*
X230262072Y-178851068D01*
X230342083Y-178953695D01*
X230400819Y-179138725D01*
X230356909Y-179412998D01*
X230193698Y-179852786D01*
X229894532Y-180534361D01*
X229613998Y-181123556D01*
X229191280Y-181856685D01*
X228854054Y-182441543D01*
G37*
G36*
X236098147Y-136362119D02*
G01*
X236217306Y-136898861D01*
X236176931Y-137736844D01*
X236148488Y-137976213D01*
X236131910Y-138501135D01*
X236238375Y-138859736D01*
X236496999Y-139183628D01*
X236569914Y-139260316D01*
X236899327Y-139754010D01*
X236896150Y-140138215D01*
X236567942Y-140395516D01*
X235922256Y-140508494D01*
X235849289Y-140514412D01*
X235324526Y-140717737D01*
X234744792Y-141226383D01*
X234358357Y-141594211D01*
X233943822Y-141815843D01*
X233655878Y-141710854D01*
X233489827Y-141276665D01*
X233440968Y-140510692D01*
X233439464Y-140383730D01*
X233323153Y-139841828D01*
X232976939Y-139440579D01*
X232735423Y-139229312D01*
X232409982Y-138775652D01*
X232412814Y-138406465D01*
X232734426Y-138155574D01*
X233365322Y-138056808D01*
X233393622Y-138056342D01*
X233772415Y-138022581D01*
X234055593Y-137892573D01*
X234336155Y-137597947D01*
X234707102Y-137070327D01*
X235010165Y-136662137D01*
X235471906Y-136233477D01*
X235842123Y-136136897D01*
X236098147Y-136362119D01*
G37*
G36*
X166685093Y-209852153D02*
G01*
X166825341Y-210116171D01*
X166817668Y-210566376D01*
X166517573Y-210914864D01*
X166229967Y-210978130D01*
X165809807Y-210882877D01*
X165678110Y-210809013D01*
X165500674Y-210576690D01*
X165573783Y-210197884D01*
X165644017Y-210041015D01*
X165959389Y-209701407D01*
X166339029Y-209628307D01*
X166685093Y-209852153D01*
G37*
G36*
X182624201Y-173516251D02*
G01*
X183027967Y-173763876D01*
X183209236Y-174140860D01*
X183146238Y-174536076D01*
X182817205Y-174838403D01*
X182669007Y-174883731D01*
X182267852Y-174863705D01*
X182251766Y-174857619D01*
X181946329Y-174596616D01*
X181847749Y-174216903D01*
X181932194Y-173831830D01*
X182175829Y-173554745D01*
X182554818Y-173498998D01*
X182624201Y-173516251D01*
G37*
G36*
X223993066Y-182819844D02*
G01*
X224094229Y-183159746D01*
X223907980Y-183556673D01*
X223730567Y-183658557D01*
X223359019Y-183591504D01*
X223122293Y-183362662D01*
X223155472Y-182988053D01*
X223350958Y-182691882D01*
X223699289Y-182656621D01*
X223993066Y-182819844D01*
G37*
G36*
X186803673Y-179420157D02*
G01*
X186892627Y-179421822D01*
X187853104Y-179458270D01*
X188575790Y-179534472D01*
X189166622Y-179666755D01*
X189731540Y-179871450D01*
X190192681Y-180084752D01*
X190589302Y-180359911D01*
X190681190Y-180626487D01*
X190458940Y-180907917D01*
X189913153Y-181227640D01*
X189034426Y-181609090D01*
X188990196Y-181626823D01*
X188287679Y-181915278D01*
X187854334Y-182122226D01*
X187632904Y-182290359D01*
X187566125Y-182462366D01*
X187596739Y-182680935D01*
X187622439Y-182994527D01*
X187481546Y-183308922D01*
X187369204Y-183336808D01*
X186937828Y-183360509D01*
X186239452Y-183361114D01*
X185325742Y-183339509D01*
X184248364Y-183296578D01*
X183058981Y-183233204D01*
X182839888Y-183220042D01*
X181366651Y-183124722D01*
X180208687Y-183032656D01*
X179333015Y-182936740D01*
X178706652Y-182829866D01*
X178296616Y-182704928D01*
X178069923Y-182554820D01*
X177993594Y-182372437D01*
X178034644Y-182150670D01*
X178051888Y-182109064D01*
X178167159Y-181959724D01*
X178392810Y-181825124D01*
X178776383Y-181690855D01*
X179365420Y-181542512D01*
X180207466Y-181365685D01*
X181350063Y-181145968D01*
X181664331Y-181086849D01*
X182701737Y-180888688D01*
X183450232Y-180734650D01*
X183956084Y-180608796D01*
X184265564Y-180495196D01*
X184424943Y-180377910D01*
X184480488Y-180241005D01*
X184478472Y-180068546D01*
X184492204Y-179745733D01*
X184655307Y-179486069D01*
X184835737Y-179454877D01*
X185314497Y-179427361D01*
X185997882Y-179414946D01*
X186803673Y-179420157D01*
G37*
G36*
X182394433Y-163306319D02*
G01*
X182481440Y-163935356D01*
X182446137Y-164895209D01*
X182408458Y-165364214D01*
X182389496Y-165922653D01*
X182443016Y-166288220D01*
X182589501Y-166559433D01*
X182849436Y-166834805D01*
X182955069Y-166940469D01*
X183275803Y-167323206D01*
X183432893Y-167612738D01*
X183431162Y-167744552D01*
X183220361Y-168014242D01*
X182797705Y-168182149D01*
X182261411Y-168199114D01*
X182005618Y-168177316D01*
X181623978Y-168243390D01*
X181273847Y-168497493D01*
X180851441Y-168998464D01*
X180766700Y-169104974D01*
X180383106Y-169515640D01*
X180049651Y-169779923D01*
X179780557Y-169868424D01*
X179490177Y-169722559D01*
X179324525Y-169247720D01*
X179283230Y-168443257D01*
X179284365Y-167995556D01*
X179228200Y-167554453D01*
X179062524Y-167257000D01*
X178741705Y-166979887D01*
X178664874Y-166920092D01*
X178262038Y-166525025D01*
X178010133Y-166147835D01*
X177944108Y-165861929D01*
X178072535Y-165637261D01*
X178465388Y-165512695D01*
X179165075Y-165463089D01*
X179427101Y-165452892D01*
X179753568Y-165394769D01*
X180017502Y-165230662D01*
X180304337Y-164897632D01*
X180699511Y-164332744D01*
X180855505Y-164108694D01*
X181415650Y-163409284D01*
X181859927Y-163042765D01*
X182186725Y-163008616D01*
X182394433Y-163306319D01*
G37*
G36*
X174367207Y-209601367D02*
G01*
X174636015Y-209989877D01*
X174815902Y-210448266D01*
X174828472Y-210815029D01*
X174671988Y-211052774D01*
X174339649Y-211355228D01*
X174030630Y-211494622D01*
X173469086Y-211455554D01*
X173457182Y-211451109D01*
X173041678Y-211128635D01*
X172808785Y-210632240D01*
X172831002Y-210114314D01*
X172979569Y-209915802D01*
X173365683Y-209652833D01*
X173815965Y-209474017D01*
X174169800Y-209458083D01*
X174367207Y-209601367D01*
G37*
G36*
X218966576Y-183152802D02*
G01*
X219112100Y-183221437D01*
X219360077Y-183514913D01*
X219429377Y-184017500D01*
X219332113Y-184783228D01*
X219288333Y-185072448D01*
X219329603Y-185574045D01*
X219593009Y-186016820D01*
X219863336Y-186364960D01*
X220143394Y-186855194D01*
X220133163Y-187173900D01*
X219824437Y-187350980D01*
X219209013Y-187416340D01*
X218915105Y-187437341D01*
X218445946Y-187601293D01*
X218046973Y-188003103D01*
X217965703Y-188103932D01*
X217600360Y-188474285D01*
X217291472Y-188677696D01*
X217149287Y-188713100D01*
X216827693Y-188633339D01*
X216652810Y-188260639D01*
X216613100Y-187576268D01*
X216616172Y-187425553D01*
X216577506Y-186914963D01*
X216402985Y-186560720D01*
X216025113Y-186205457D01*
X215917371Y-186115003D01*
X215531804Y-185685805D01*
X215483599Y-185359082D01*
X215773645Y-185132016D01*
X216402824Y-185001790D01*
X216725497Y-184956549D01*
X217161845Y-184846751D01*
X217361646Y-184723976D01*
X217429478Y-184596772D01*
X217665601Y-184235880D01*
X217996809Y-183772452D01*
X218127662Y-183599147D01*
X218446000Y-183239559D01*
X218696798Y-183109206D01*
X218966576Y-183152802D01*
G37*
G36*
X184681989Y-189086240D02*
G01*
X184729393Y-189087104D01*
X186099997Y-189160893D01*
X187255214Y-189319895D01*
X188161616Y-189555501D01*
X188785773Y-189859109D01*
X189094257Y-190222111D01*
X189104183Y-190253221D01*
X189098507Y-190412177D01*
X188957193Y-190576852D01*
X188632104Y-190778166D01*
X188075101Y-191047039D01*
X187238045Y-191414390D01*
X186479222Y-191743139D01*
X185903711Y-192007705D01*
X185560412Y-192200904D01*
X185400604Y-192357504D01*
X185375570Y-192512271D01*
X185436590Y-192699973D01*
X185485848Y-192825827D01*
X185557409Y-193079979D01*
X185539196Y-193275955D01*
X185398449Y-193417870D01*
X185102403Y-193509840D01*
X184618298Y-193555981D01*
X183913370Y-193560407D01*
X182954857Y-193527236D01*
X181709996Y-193460580D01*
X180146024Y-193364559D01*
X179847496Y-193345473D01*
X178536636Y-193255245D01*
X177336347Y-193162555D01*
X176294959Y-193071842D01*
X175460804Y-192987542D01*
X174882213Y-192914097D01*
X174607517Y-192855942D01*
X174331386Y-192640116D01*
X174268175Y-192314059D01*
X174481487Y-191996330D01*
X174945702Y-191769256D01*
X174950103Y-191768095D01*
X175311458Y-191687505D01*
X175953152Y-191558598D01*
X176809570Y-191393989D01*
X177815103Y-191206295D01*
X178904140Y-191008129D01*
X179650011Y-190873869D01*
X180618254Y-190695470D01*
X181307543Y-190556545D01*
X181760295Y-190442980D01*
X182018931Y-190340663D01*
X182125865Y-190235483D01*
X182123518Y-190113325D01*
X182054309Y-189960079D01*
X181942040Y-189718938D01*
X181881308Y-189452394D01*
X181974639Y-189267879D01*
X182261703Y-189152197D01*
X182782169Y-189092158D01*
X183575708Y-189074570D01*
X184681989Y-189086240D01*
G37*
G36*
X225449178Y-186524852D02*
G01*
X225657308Y-187000658D01*
X225716985Y-187321526D01*
X225650245Y-187551343D01*
X225363961Y-187738580D01*
X225044497Y-187865554D01*
X224758901Y-187888964D01*
X224722389Y-187873934D01*
X224463893Y-187593668D01*
X224402566Y-187174208D01*
X224530747Y-186749785D01*
X224840775Y-186454632D01*
X225120814Y-186377798D01*
X225449178Y-186524852D01*
G37*
%LPC*%
M02*
