G04 #@! TF.GenerationSoftware,KiCad,Pcbnew,(6.0.7)*
G04 #@! TF.CreationDate,2022-12-13T23:16:33-05:00*
G04 #@! TF.ProjectId,alish40,616c6973-6834-4302-9e6b-696361645f70,rev?*
G04 #@! TF.SameCoordinates,Original*
G04 #@! TF.FileFunction,Copper,L2,Bot*
G04 #@! TF.FilePolarity,Positive*
%FSLAX46Y46*%
G04 Gerber Fmt 4.6, Leading zero omitted, Abs format (unit mm)*
G04 Created by KiCad (PCBNEW (6.0.7)) date 2022-12-13 23:16:33*
%MOMM*%
%LPD*%
G01*
G04 APERTURE LIST*
G04 Aperture macros list*
%AMHorizOval*
0 Thick line with rounded ends*
0 $1 width*
0 $2 $3 position (X,Y) of the first rounded end (center of the circle)*
0 $4 $5 position (X,Y) of the second rounded end (center of the circle)*
0 Add line between two ends*
20,1,$1,$2,$3,$4,$5,0*
0 Add two circle primitives to create the rounded ends*
1,1,$1,$2,$3*
1,1,$1,$4,$5*%
%AMRotRect*
0 Rectangle, with rotation*
0 The origin of the aperture is its center*
0 $1 length*
0 $2 width*
0 $3 Rotation angle, in degrees counterclockwise*
0 Add horizontal line*
21,1,$1,$2,0,0,$3*%
G04 Aperture macros list end*
G04 #@! TA.AperFunction,ComponentPad*
%ADD10C,2.200000*%
G04 #@! TD*
G04 #@! TA.AperFunction,ComponentPad*
%ADD11R,1.752600X1.752600*%
G04 #@! TD*
G04 #@! TA.AperFunction,ComponentPad*
%ADD12C,1.752600*%
G04 #@! TD*
G04 #@! TA.AperFunction,WasherPad*
%ADD13RotRect,3.200000X2.000000X80.000000*%
G04 #@! TD*
G04 #@! TA.AperFunction,ComponentPad*
%ADD14RotRect,2.000000X2.000000X80.000000*%
G04 #@! TD*
G04 #@! TA.AperFunction,ComponentPad*
%ADD15C,2.000000*%
G04 #@! TD*
G04 #@! TA.AperFunction,ComponentPad*
%ADD16RotRect,1.600000X1.600000X260.000000*%
G04 #@! TD*
G04 #@! TA.AperFunction,ComponentPad*
%ADD17HorizOval,1.600000X0.000000X0.000000X0.000000X0.000000X0*%
G04 #@! TD*
G04 #@! TA.AperFunction,ComponentPad*
%ADD18R,1.600000X1.600000*%
G04 #@! TD*
G04 #@! TA.AperFunction,ComponentPad*
%ADD19O,1.600000X1.600000*%
G04 #@! TD*
G04 #@! TA.AperFunction,ComponentPad*
%ADD20RotRect,1.600000X1.600000X280.000000*%
G04 #@! TD*
G04 #@! TA.AperFunction,ComponentPad*
%ADD21HorizOval,1.600000X0.000000X0.000000X0.000000X0.000000X0*%
G04 #@! TD*
G04 #@! TA.AperFunction,ComponentPad*
%ADD22RotRect,1.700000X1.700000X190.000000*%
G04 #@! TD*
G04 #@! TA.AperFunction,ComponentPad*
%ADD23HorizOval,1.700000X0.000000X0.000000X0.000000X0.000000X0*%
G04 #@! TD*
G04 #@! TA.AperFunction,Conductor*
%ADD24C,0.250000*%
G04 #@! TD*
G04 APERTURE END LIST*
D10*
X308208825Y-122876886D03*
X302396362Y-126480964D03*
X289448236Y-126184884D03*
X283635773Y-129788962D03*
X80545231Y-141336596D03*
X74195231Y-143876596D03*
X113882731Y-103236597D03*
X107532731Y-105776597D03*
X192235694Y-114705828D03*
X185541098Y-116104574D03*
X104357731Y-141336595D03*
X98007731Y-143876595D03*
X251927062Y-132800881D03*
X246114599Y-136404959D03*
X135953930Y-104781836D03*
X129259334Y-106180582D03*
X330106250Y-120749998D03*
X323756250Y-123289998D03*
X142026392Y-125196453D03*
X135331796Y-126595199D03*
X154714521Y-108089834D03*
X148019925Y-109488580D03*
X361062501Y-139799999D03*
X354712501Y-142339999D03*
X153332371Y-88502249D03*
X146637775Y-89900995D03*
X111501000Y-84186597D03*
X105151000Y-86726597D03*
X257999358Y-112386292D03*
X252186895Y-115990370D03*
X306282976Y-84528711D03*
X300470513Y-88132789D03*
X337250000Y-101700000D03*
X330900000Y-104240000D03*
X337249999Y-139800000D03*
X330899999Y-142340000D03*
X250001212Y-94452705D03*
X244188749Y-98056783D03*
X198308159Y-135120446D03*
X191613563Y-136519192D03*
X276759945Y-109078295D03*
X270947482Y-112682373D03*
D11*
X211350000Y-92770687D03*
D12*
X211350000Y-95310687D03*
X211350000Y-97850687D03*
X211350000Y-100390687D03*
X211350000Y-102930687D03*
X211350000Y-105470687D03*
X211350000Y-108010687D03*
X211350000Y-110550687D03*
X211350000Y-113090687D03*
X211350000Y-115630687D03*
X211350000Y-118170687D03*
X211350000Y-120710687D03*
X226590000Y-120710687D03*
X226590000Y-118170687D03*
X226590000Y-115630687D03*
X226590000Y-113090687D03*
X226590000Y-110550687D03*
X226590000Y-108010687D03*
X226590000Y-105470687D03*
X226590000Y-102930687D03*
X226590000Y-100390687D03*
X226590000Y-97850687D03*
X226590000Y-95310687D03*
X226590000Y-92770687D03*
D10*
X90070230Y-122286596D03*
X83720230Y-124826596D03*
X190853545Y-95118243D03*
X184158949Y-96516989D03*
X160786987Y-128504451D03*
X154092391Y-129903197D03*
X314281120Y-102462298D03*
X308468657Y-106066376D03*
X270687649Y-129492882D03*
X264875186Y-133096960D03*
X172092957Y-91810242D03*
X165398361Y-93208988D03*
X295520535Y-105770297D03*
X289708072Y-109374375D03*
X134571780Y-85194249D03*
X127877184Y-86592995D03*
X173475103Y-111397831D03*
X166780507Y-112796577D03*
X268761802Y-91144706D03*
X262949339Y-94748784D03*
D13*
X136822118Y-148938909D03*
X147851964Y-150883769D03*
D14*
X138572660Y-156863277D03*
D15*
X143496699Y-157731518D03*
X141034680Y-157297397D03*
X146014598Y-143451805D03*
X141090559Y-142583564D03*
D10*
X287522390Y-87836709D03*
X281709927Y-91440787D03*
X87688981Y-84186597D03*
X81338981Y-86726597D03*
X304481601Y-142877973D03*
X298669138Y-146482051D03*
X178584649Y-150986538D03*
X171890053Y-152385284D03*
X80545231Y-122286596D03*
X74195231Y-124826596D03*
X266960426Y-149493968D03*
X261147963Y-153098046D03*
X101976481Y-122286597D03*
X95626481Y-124826597D03*
X353918751Y-82649999D03*
X347568751Y-85189999D03*
X145753622Y-145197539D03*
X139059026Y-146596285D03*
X349156250Y-101700000D03*
X342806250Y-104240000D03*
X330106252Y-82650002D03*
X323756252Y-85190002D03*
X358681249Y-101700001D03*
X352331249Y-104240001D03*
X179547571Y-131812449D03*
X172852975Y-133211195D03*
X87688981Y-103236597D03*
X81338981Y-105776597D03*
X356300000Y-120750001D03*
X349950000Y-123290001D03*
X121026481Y-122286599D03*
X114676481Y-124826599D03*
D16*
X153870000Y-141470000D03*
D17*
X152546801Y-148974235D03*
D18*
X94240000Y-99970000D03*
D19*
X94240000Y-107590000D03*
D20*
X254630000Y-90300000D03*
D21*
X255953199Y-97804235D03*
D18*
X94200000Y-109900000D03*
D19*
X94200000Y-117520000D03*
D20*
X276068401Y-86437883D03*
D21*
X277391600Y-93942118D03*
D18*
X125910000Y-123556599D03*
D19*
X125910000Y-131176599D03*
D18*
X326400000Y-96300000D03*
D19*
X326400000Y-103920000D03*
D16*
X178221600Y-89617883D03*
D17*
X176898401Y-97122118D03*
D18*
X345120000Y-122020001D03*
D19*
X345120000Y-129640001D03*
D16*
X142781600Y-100417883D03*
D17*
X141458401Y-107922118D03*
D16*
X179871600Y-106987883D03*
D17*
X178548401Y-114492118D03*
D18*
X93580000Y-85456597D03*
D19*
X93580000Y-93076597D03*
D20*
X297768401Y-125157883D03*
D21*
X299091600Y-132662118D03*
D16*
X182481600Y-107347883D03*
D17*
X181158401Y-114852118D03*
D18*
X325900000Y-141070000D03*
D19*
X325900000Y-148690000D03*
D15*
X340380000Y-85730000D03*
X340380000Y-79230000D03*
X335880000Y-85730000D03*
X335880000Y-79230000D03*
D20*
X288375000Y-142900000D03*
D21*
X289698199Y-150404235D03*
D18*
X342800000Y-79280000D03*
D19*
X342800000Y-86900000D03*
D18*
X120270000Y-104430000D03*
D19*
X120270000Y-112050000D03*
D20*
X279218401Y-128787883D03*
D21*
X280541600Y-136292118D03*
D18*
X342790000Y-91230000D03*
D19*
X342790000Y-98850000D03*
D18*
X107410000Y-123556597D03*
D19*
X107410000Y-131176597D03*
D20*
X290950000Y-142225000D03*
D21*
X292273199Y-149729235D03*
D20*
X283640000Y-101900000D03*
D21*
X284963199Y-109404235D03*
D18*
X319800000Y-79260000D03*
D19*
X319800000Y-86880000D03*
D18*
X319780000Y-122019998D03*
D19*
X319780000Y-129639998D03*
D16*
X180971600Y-90117883D03*
D17*
X179648401Y-97622118D03*
D16*
X157141600Y-141787883D03*
D17*
X155818401Y-149292118D03*
D18*
X116950000Y-85456597D03*
D19*
X116950000Y-93076597D03*
D18*
X349910000Y-141069999D03*
D19*
X349910000Y-148689999D03*
D22*
X324260000Y-109880000D03*
D23*
X324701066Y-112381412D03*
X325142133Y-114882823D03*
D20*
X260278401Y-131667883D03*
D21*
X261601600Y-139172118D03*
D20*
X294811448Y-83130483D03*
D21*
X296134647Y-90634718D03*
D16*
X159631600Y-86197883D03*
D17*
X158308401Y-93702118D03*
D20*
X257940000Y-89930000D03*
D21*
X259263199Y-97434235D03*
D16*
X184950000Y-133380000D03*
D17*
X183626801Y-140884235D03*
D16*
X161211600Y-103797883D03*
D17*
X159888401Y-111302118D03*
D20*
X262950000Y-106050000D03*
D21*
X264273199Y-113554235D03*
D18*
X90525000Y-142606595D03*
D19*
X90525000Y-150226595D03*
D16*
X167120000Y-130347883D03*
D17*
X165796801Y-137852118D03*
D18*
X86475000Y-142606596D03*
D19*
X86475000Y-150226596D03*
D16*
X187661600Y-133347883D03*
D17*
X186338401Y-140852118D03*
D20*
X257538401Y-131717883D03*
D21*
X258861600Y-139222118D03*
D20*
X302110000Y-98640000D03*
D21*
X303433199Y-106144235D03*
D20*
X265480000Y-105330000D03*
D21*
X266803199Y-112834235D03*
D16*
X147381600Y-126367883D03*
D17*
X146058401Y-133872118D03*
D16*
X140751600Y-82937883D03*
D17*
X139428401Y-90442118D03*
D24*
X324283803Y-118919520D02*
X328275772Y-118919520D01*
X321820960Y-116456677D02*
X324283803Y-118919520D01*
X328275772Y-118919520D02*
X330106250Y-120749998D01*
X321820960Y-106649040D02*
X321820960Y-116456677D01*
X326240000Y-102230000D02*
X321820960Y-106649040D01*
X336720000Y-102230000D02*
X326240000Y-102230000D01*
X337250000Y-101700000D02*
X336720000Y-102230000D01*
X289698199Y-145368199D02*
X289698199Y-150404235D01*
X289089520Y-144759520D02*
X289698199Y-145368199D01*
X288829520Y-144759520D02*
X289089520Y-144759520D01*
X288829040Y-144760000D02*
X288829520Y-144759520D01*
X279757208Y-141710000D02*
X282807208Y-144760000D01*
X282807208Y-144760000D02*
X288829040Y-144760000D01*
X271756396Y-141710000D02*
X279757208Y-141710000D01*
X266960426Y-146505970D02*
X271756396Y-141710000D01*
X266960426Y-149493968D02*
X266960426Y-146505970D01*
X290950000Y-142430000D02*
X290950000Y-142225000D01*
X282993604Y-144310000D02*
X289070000Y-144310000D01*
X279943604Y-141260000D02*
X282993604Y-144310000D01*
X271570000Y-141260000D02*
X279943604Y-141260000D01*
X289070000Y-144310000D02*
X290950000Y-142430000D01*
X203764282Y-144310000D02*
X268520000Y-144310000D01*
X202942970Y-143488688D02*
X203764282Y-144310000D01*
X268520000Y-144310000D02*
X271570000Y-141260000D01*
X165831534Y-143488688D02*
X202942970Y-143488688D01*
X162362366Y-140019520D02*
X165831534Y-143488688D01*
X159230480Y-140019520D02*
X162362366Y-140019520D01*
X157462117Y-141787883D02*
X159230480Y-140019520D01*
X157141600Y-141787883D02*
X157462117Y-141787883D01*
X117690000Y-133836597D02*
X107410000Y-123556597D01*
X137786198Y-159560480D02*
X117690000Y-139464282D01*
X145053802Y-159560480D02*
X137786198Y-159560480D01*
X154060480Y-150553802D02*
X145053802Y-159560480D01*
X154060480Y-143680480D02*
X154060480Y-150553802D01*
X153101285Y-142721285D02*
X154060480Y-143680480D01*
X153086651Y-142721285D02*
X153101285Y-142721285D01*
X152550000Y-142184634D02*
X153086651Y-142721285D01*
X152550000Y-140755366D02*
X152550000Y-142184634D01*
X153735366Y-139570000D02*
X152550000Y-140755366D01*
X162548563Y-139570000D02*
X153735366Y-139570000D01*
X166017732Y-143039168D02*
X162548563Y-139570000D01*
X117690000Y-139464282D02*
X117690000Y-133836597D01*
X203129168Y-143039168D02*
X166017732Y-143039168D01*
X268329520Y-143860480D02*
X203950480Y-143860480D01*
X271380000Y-140810000D02*
X268329520Y-143860480D01*
X203950480Y-143860480D02*
X203129168Y-143039168D01*
X280130000Y-140810000D02*
X271380000Y-140810000D01*
X283180480Y-143860480D02*
X280130000Y-140810000D01*
X287569520Y-143860480D02*
X283180480Y-143860480D01*
X288375000Y-143055000D02*
X287569520Y-143860480D01*
X288375000Y-142900000D02*
X288375000Y-143055000D01*
X71243404Y-124826596D02*
X74195231Y-124826596D01*
X69870000Y-126200000D02*
X71243404Y-124826596D01*
X74195231Y-143876596D02*
X69870000Y-139551365D01*
X69870000Y-139551365D02*
X69870000Y-126200000D01*
X93580000Y-88220000D02*
X93580000Y-93076597D01*
X89546597Y-84186597D02*
X93580000Y-88220000D01*
X87688981Y-84186597D02*
X89546597Y-84186597D01*
X111501000Y-84186597D02*
X112956597Y-84186597D01*
X116950000Y-88180000D02*
X116950000Y-93076597D01*
X112956597Y-84186597D02*
X116950000Y-88180000D01*
X276068401Y-86437883D02*
X274587835Y-86437883D01*
X269280000Y-92650000D02*
X267914282Y-92650000D01*
X112286198Y-82230480D02*
X107289520Y-82230480D01*
X160882885Y-85414534D02*
X160882885Y-87047167D01*
X279637161Y-85457120D02*
X283215083Y-81879198D01*
X158800000Y-84930000D02*
X160398351Y-84930000D01*
X221670000Y-107850687D02*
X221670000Y-119440000D01*
X254630000Y-90590000D02*
X254630000Y-90300000D01*
X271145000Y-89880718D02*
X271145000Y-90785000D01*
X207988080Y-91931920D02*
X184820271Y-91931920D01*
X128587125Y-82211440D02*
X125067605Y-85730960D01*
X140751600Y-82937883D02*
X139103601Y-82937883D01*
X256251285Y-88678715D02*
X254630000Y-90300000D01*
X221670000Y-119440000D02*
X225220000Y-122990000D01*
X160398351Y-84930000D02*
X160882885Y-85414534D01*
X94400480Y-86277077D02*
X93580000Y-85456597D01*
X144285374Y-85641440D02*
X158088560Y-85641440D01*
X138377159Y-82211440D02*
X128587125Y-82211440D01*
X218360935Y-97380000D02*
X212440935Y-91460000D01*
X162247638Y-88411920D02*
X177015637Y-88411920D01*
X257450480Y-93410480D02*
X254630000Y-90590000D01*
X276802880Y-85457120D02*
X279637161Y-85457120D01*
X276068401Y-86191599D02*
X276802880Y-85457120D01*
X318005718Y-79260000D02*
X319800000Y-79260000D01*
X103242923Y-86277077D02*
X94400480Y-86277077D01*
X142484414Y-83840480D02*
X144285374Y-85641440D01*
X107289520Y-82230480D02*
X103242923Y-86277077D01*
X226590000Y-102930687D02*
X221039313Y-97380000D01*
X276068401Y-86437883D02*
X276068401Y-86191599D01*
X315386520Y-81879198D02*
X318005718Y-79260000D01*
X158088560Y-85641440D02*
X158800000Y-84930000D01*
X181754949Y-88866598D02*
X178972885Y-88866598D01*
X140751600Y-82937883D02*
X140751600Y-83101600D01*
X271145000Y-90785000D02*
X269280000Y-92650000D01*
X283215083Y-81879198D02*
X315386520Y-81879198D01*
X251942842Y-106001440D02*
X257450480Y-100493802D01*
X178972885Y-88866598D02*
X178221600Y-89617883D01*
X263942997Y-88678715D02*
X256251285Y-88678715D01*
X274587835Y-86437883D02*
X271145000Y-89880718D01*
X208460000Y-91460000D02*
X207988080Y-91931920D01*
X160882885Y-87047167D02*
X162247638Y-88411920D01*
X118074511Y-84332086D02*
X114387804Y-84332086D01*
X248635714Y-106001440D02*
X251942842Y-106001440D01*
X140751600Y-83101600D02*
X141490480Y-83840480D01*
X119473385Y-85730960D02*
X118074511Y-84332086D01*
X139103601Y-82937883D02*
X138377159Y-82211440D01*
X257450480Y-100493802D02*
X257450480Y-93410480D01*
X226590000Y-102930687D02*
X221670000Y-107850687D01*
X141490480Y-83840480D02*
X142484414Y-83840480D01*
X212440935Y-91460000D02*
X208460000Y-91460000D01*
X231647153Y-122990000D02*
X248635714Y-106001440D01*
X184820271Y-91931920D02*
X181754949Y-88866598D01*
X225220000Y-122990000D02*
X231647153Y-122990000D01*
X267914282Y-92650000D02*
X263942997Y-88678715D01*
X221039313Y-97380000D02*
X218360935Y-97380000D01*
X114387804Y-84332086D02*
X112286198Y-82230480D01*
X125067605Y-85730960D02*
X119473385Y-85730960D01*
X177015637Y-88411920D02*
X178221600Y-89617883D01*
X116950000Y-85456597D02*
X117673883Y-86180480D01*
X285690000Y-88660000D02*
X285690000Y-87040000D01*
X273972268Y-87689168D02*
X271594520Y-90066916D01*
X181660480Y-91010480D02*
X183263114Y-91010480D01*
X257900000Y-89970000D02*
X257900000Y-100680000D01*
X258741765Y-89128235D02*
X257940000Y-89930000D01*
X271594520Y-90971197D02*
X269466198Y-93099520D01*
X292739040Y-85520960D02*
X294811448Y-83448552D01*
X294811448Y-83130483D02*
X294593047Y-83130483D01*
X263756799Y-89128235D02*
X258741765Y-89128235D01*
X128773323Y-82660960D02*
X138190961Y-82660960D01*
X287209040Y-85520960D02*
X292739040Y-85520960D01*
X337510987Y-82957600D02*
X333383007Y-82957600D01*
X183263114Y-91010480D02*
X184634074Y-92381440D01*
X159524677Y-86090960D02*
X159631600Y-86197883D01*
X159631600Y-86197883D02*
X159631600Y-86431600D01*
X321530000Y-80880000D02*
X315990000Y-86420000D01*
X292020000Y-86420000D02*
X288840000Y-89600000D01*
X278634278Y-85906640D02*
X276851750Y-87689168D01*
X221701705Y-123439520D02*
X215159040Y-116896855D01*
X288840000Y-89600000D02*
X286630000Y-89600000D01*
X279823358Y-85906640D02*
X278634278Y-85906640D01*
X215159040Y-96579727D02*
X211350000Y-92770687D01*
X117673883Y-86180480D02*
X125253802Y-86180480D01*
X257900000Y-100680000D02*
X252129040Y-106450960D01*
X184634074Y-92381440D02*
X210960753Y-92381440D01*
X331305407Y-80880000D02*
X321530000Y-80880000D01*
X342800000Y-79280000D02*
X341270000Y-80810000D01*
X294593047Y-83130483D02*
X293791282Y-82328718D01*
X294811448Y-83448552D02*
X294811448Y-83130483D01*
X293791282Y-82328718D02*
X283401280Y-82328718D01*
X231833351Y-123439520D02*
X221701705Y-123439520D01*
X248821911Y-106450960D02*
X231833351Y-123439520D01*
X271594520Y-90066916D02*
X271594520Y-90971197D01*
X125253802Y-86180480D02*
X128773323Y-82660960D01*
X333383007Y-82957600D02*
X331305407Y-80880000D01*
X175421440Y-88861440D02*
X177570480Y-91010480D01*
X144099176Y-86090960D02*
X159524677Y-86090960D01*
X210960753Y-92381440D02*
X211350000Y-92770687D01*
X162061440Y-88861440D02*
X175421440Y-88861440D01*
X257940000Y-89930000D02*
X257900000Y-89970000D01*
X180812117Y-90117883D02*
X180971600Y-90117883D01*
X285690000Y-87040000D02*
X287209040Y-85520960D01*
X286630000Y-89600000D02*
X285690000Y-88660000D01*
X159631600Y-86431600D02*
X162061440Y-88861440D01*
X180971600Y-90117883D02*
X180971600Y-90321600D01*
X276851750Y-87689168D02*
X273972268Y-87689168D01*
X267728084Y-93099520D02*
X263756799Y-89128235D01*
X180971600Y-90321600D02*
X181660480Y-91010480D01*
X179919520Y-91010480D02*
X180812117Y-90117883D01*
X142298216Y-84290000D02*
X144099176Y-86090960D01*
X283401280Y-82328718D02*
X279823358Y-85906640D01*
X177570480Y-91010480D02*
X179919520Y-91010480D01*
X215159040Y-116896855D02*
X215159040Y-96579727D01*
X315990000Y-86420000D02*
X292020000Y-86420000D01*
X139820001Y-84290000D02*
X142298216Y-84290000D01*
X269466198Y-93099520D02*
X267728084Y-93099520D01*
X138190961Y-82660960D02*
X139820001Y-84290000D01*
X341270000Y-80810000D02*
X339658587Y-80810000D01*
X252129040Y-106450960D02*
X248821911Y-106450960D01*
X339658587Y-80810000D02*
X337510987Y-82957600D01*
X283640000Y-102100000D02*
X282970000Y-102770000D01*
X143480480Y-101290480D02*
X142781600Y-100591600D01*
X302724634Y-97220000D02*
X289718238Y-97220000D01*
X170956198Y-107790480D02*
X166514081Y-103348363D01*
X221515507Y-123889040D02*
X214709520Y-117083053D01*
X162928363Y-103348363D02*
X162090000Y-102510000D01*
X326400000Y-96311686D02*
X325491686Y-97220000D01*
X142781600Y-100417883D02*
X94687883Y-100417883D01*
X181033402Y-106096598D02*
X193742316Y-106096598D01*
X162090000Y-102510000D02*
X160559435Y-102510000D01*
X282970000Y-102770000D02*
X267174282Y-102770000D01*
X323394282Y-97220000D02*
X322423802Y-98190480D01*
X94687883Y-100417883D02*
X94240000Y-99970000D01*
X179871600Y-106987883D02*
X180142117Y-106987883D01*
X193742316Y-106096598D02*
X197746885Y-110101167D01*
X214709520Y-117083053D02*
X214709520Y-111370207D01*
X325491686Y-97220000D02*
X323394282Y-97220000D01*
X249008109Y-106900480D02*
X232019548Y-123889040D01*
X262950000Y-106190000D02*
X262239520Y-106900480D01*
X142781600Y-100591600D02*
X142781600Y-100417883D01*
X214709520Y-111370207D02*
X211350000Y-108010687D01*
X326400000Y-96300000D02*
X326400000Y-96311686D01*
X262239520Y-106900480D02*
X249008109Y-106900480D01*
X303695114Y-98190480D02*
X302724634Y-97220000D01*
X262950000Y-106050000D02*
X262950000Y-106190000D01*
X322423802Y-98190480D02*
X303695114Y-98190480D01*
X289718238Y-97220000D02*
X285038238Y-101900000D01*
X197746885Y-110101167D02*
X209259520Y-110101167D01*
X262950000Y-105770000D02*
X262950000Y-106050000D01*
X160559435Y-102510000D02*
X159339915Y-101290480D01*
X166514081Y-103348363D02*
X162928363Y-103348363D01*
X265865567Y-104078715D02*
X264641285Y-104078715D01*
X232019548Y-123889040D02*
X221515507Y-123889040D01*
X267174282Y-102770000D02*
X265865567Y-104078715D01*
X179553077Y-106987883D02*
X178750480Y-107790480D01*
X178750480Y-107790480D02*
X170956198Y-107790480D01*
X285038238Y-101900000D02*
X283640000Y-101900000D01*
X283640000Y-101900000D02*
X283640000Y-102100000D01*
X209259520Y-110101167D02*
X211350000Y-108010687D01*
X180142117Y-106987883D02*
X181033402Y-106096598D01*
X159339915Y-101290480D02*
X143480480Y-101290480D01*
X179871600Y-106987883D02*
X179553077Y-106987883D01*
X264641285Y-104078715D02*
X262950000Y-105770000D01*
X322610000Y-98640000D02*
X302110000Y-98640000D01*
X284355114Y-103219520D02*
X267360480Y-103219520D01*
X166327883Y-103797883D02*
X170770000Y-108240000D01*
X182782117Y-107347883D02*
X183583882Y-106546118D01*
X141196486Y-100867403D02*
X142069083Y-101740000D01*
X181350000Y-108240000D02*
X182242117Y-107347883D01*
X249194307Y-107350000D02*
X232205747Y-124338560D01*
X336350480Y-97669520D02*
X323580480Y-97669520D01*
X342790000Y-91230000D02*
X336350480Y-97669520D01*
X142069083Y-101740000D02*
X159153717Y-101740000D01*
X267360480Y-103219520D02*
X265480000Y-105100000D01*
X159153717Y-101740000D02*
X161211600Y-103797883D01*
X302110000Y-98640000D02*
X301860000Y-98640000D01*
X232205747Y-124338560D02*
X221329309Y-124338560D01*
X265480000Y-105590000D02*
X263720000Y-107350000D01*
X182242117Y-107347883D02*
X182481600Y-107347883D01*
X265480000Y-105330000D02*
X265480000Y-105590000D01*
X265480000Y-105100000D02*
X265480000Y-105330000D01*
X214260000Y-113460687D02*
X211350000Y-110550687D01*
X301860000Y-98640000D02*
X300889520Y-97669520D01*
X182481600Y-107347883D02*
X182782117Y-107347883D01*
X197560687Y-110550687D02*
X211350000Y-110550687D01*
X214260000Y-117269251D02*
X214260000Y-113460687D01*
X183583882Y-106546118D02*
X193556118Y-106546118D01*
X263720000Y-107350000D02*
X249194307Y-107350000D01*
X193556118Y-106546118D02*
X197560687Y-110550687D01*
X300889520Y-97669520D02*
X289905114Y-97669520D01*
X221329309Y-124338560D02*
X214260000Y-117269251D01*
X123832597Y-100867403D02*
X141196486Y-100867403D01*
X323580480Y-97669520D02*
X322610000Y-98640000D01*
X289905114Y-97669520D02*
X284355114Y-103219520D01*
X120270000Y-104430000D02*
X123832597Y-100867403D01*
X170770000Y-108240000D02*
X181350000Y-108240000D01*
X161211600Y-103797883D02*
X166327883Y-103797883D01*
X311580478Y-124769520D02*
X315089998Y-121260000D01*
X278000038Y-127569520D02*
X266779044Y-127569520D01*
X291866198Y-126559520D02*
X298401398Y-126559520D01*
X175837973Y-129590480D02*
X173768452Y-131660000D01*
X196470832Y-134599168D02*
X204240480Y-126829520D01*
X181160480Y-129590480D02*
X175837973Y-129590480D01*
X261108084Y-133240480D02*
X259320480Y-133240480D01*
X95930000Y-117150000D02*
X94200000Y-115420000D01*
X184950000Y-133380000D02*
X186169168Y-134599168D01*
X160296118Y-125566118D02*
X148396118Y-125566118D01*
X211350000Y-115630687D02*
X220956913Y-125237600D01*
X315089998Y-121260000D02*
X319020002Y-121260000D01*
X279218401Y-128787883D02*
X278000038Y-127569520D01*
X184950000Y-133380000D02*
X181160480Y-129590480D01*
X237975741Y-119840000D02*
X245410000Y-119840000D01*
X105814838Y-120690000D02*
X102274838Y-117150000D01*
X257287883Y-131717883D02*
X257538401Y-131717883D01*
X131373520Y-122226480D02*
X128910000Y-124690000D01*
X259320480Y-133240480D02*
X257797883Y-131717883D01*
X279218401Y-128787883D02*
X279786764Y-128219520D01*
X148396118Y-125566118D02*
X147594353Y-126367883D01*
X319020002Y-121260000D02*
X319780000Y-122019998D01*
X257797883Y-131717883D02*
X257538401Y-131717883D01*
X279786764Y-128219520D02*
X290206198Y-128219520D01*
X124065600Y-124690000D02*
X122630000Y-123254400D01*
X210887877Y-115630687D02*
X211350000Y-115630687D01*
X299060000Y-124502002D02*
X300523922Y-123038080D01*
X122630000Y-121500000D02*
X121820000Y-120690000D01*
X232578141Y-125237600D02*
X237975741Y-119840000D01*
X204240480Y-126829520D02*
X204240480Y-122278084D01*
X141712198Y-122226480D02*
X131373520Y-122226480D01*
X220956913Y-125237600D02*
X232578141Y-125237600D01*
X204240480Y-122278084D02*
X210887877Y-115630687D01*
X121820000Y-120690000D02*
X105814838Y-120690000D01*
X166390000Y-131660000D02*
X160296118Y-125566118D01*
X94200000Y-115420000D02*
X94200000Y-109900000D01*
X147594353Y-126367883D02*
X147381600Y-126367883D01*
X266779044Y-127569520D02*
X261108084Y-133240480D01*
X306179741Y-124769520D02*
X311580478Y-124769520D01*
X147381600Y-126367883D02*
X145853601Y-126367883D01*
X122630000Y-123254400D02*
X122630000Y-121500000D01*
X186169168Y-134599168D02*
X196470832Y-134599168D01*
X300523922Y-123038080D02*
X304448301Y-123038080D01*
X298401398Y-126559520D02*
X299060000Y-125900918D01*
X290206198Y-128219520D02*
X291866198Y-126559520D01*
X173768452Y-131660000D02*
X166390000Y-131660000D01*
X102274838Y-117150000D02*
X95930000Y-117150000D01*
X245410000Y-119840000D02*
X257287883Y-131717883D01*
X304448301Y-123038080D02*
X306179741Y-124769520D01*
X128910000Y-124690000D02*
X124065600Y-124690000D01*
X299060000Y-125900918D02*
X299060000Y-124502002D01*
X145853601Y-126367883D02*
X141712198Y-122226480D01*
X128723802Y-124240480D02*
X126593881Y-124240480D01*
X345120000Y-122020001D02*
X344965492Y-122174509D01*
X145238034Y-125116598D02*
X141898395Y-121776960D01*
X232391944Y-124788080D02*
X221143111Y-124788080D01*
X258776598Y-130466598D02*
X256672316Y-130466598D01*
X167120000Y-130347883D02*
X167120000Y-130600000D01*
X237789544Y-119390480D02*
X232391944Y-124788080D01*
X186608715Y-132128715D02*
X187661600Y-133181600D01*
X126593881Y-124240480D02*
X125910000Y-123556599D01*
X280235152Y-127770000D02*
X279585152Y-127120000D01*
X260870518Y-132260000D02*
X260278401Y-131667883D01*
X323630480Y-120810480D02*
X314903801Y-120810480D01*
X131187323Y-121776960D02*
X128723802Y-124240480D01*
X261452846Y-132260000D02*
X260870518Y-132260000D01*
X245596198Y-119390480D02*
X237789544Y-119390480D01*
X300101440Y-122588560D02*
X297768401Y-124921599D01*
X324994509Y-122174509D02*
X323630480Y-120810480D01*
X297060000Y-126110000D02*
X291680000Y-126110000D01*
X344965492Y-122174509D02*
X324994509Y-122174509D01*
X167120000Y-130600000D02*
X167730480Y-131210480D01*
X314903801Y-120810480D02*
X311394281Y-124320000D01*
X213810480Y-115551167D02*
X211350000Y-113090687D01*
X297768401Y-125401599D02*
X297060000Y-126110000D01*
X266592846Y-127120000D02*
X261452846Y-132260000D01*
X160482316Y-125116598D02*
X145238034Y-125116598D01*
X208870000Y-117012846D02*
X208870000Y-115570687D01*
X297768401Y-125157883D02*
X297768401Y-125401599D01*
X279585152Y-127120000D02*
X266592846Y-127120000D01*
X304634499Y-122588560D02*
X300101440Y-122588560D01*
X291680000Y-126110000D02*
X290020000Y-127770000D01*
X213810480Y-117455448D02*
X213810480Y-115551167D01*
X167120000Y-130347883D02*
X165713601Y-130347883D01*
X221143111Y-124788080D02*
X213810480Y-117455448D01*
X196284634Y-134149648D02*
X203790960Y-126643322D01*
X203790960Y-126643322D02*
X203790960Y-122091886D01*
X306365939Y-124320000D02*
X304634499Y-122588560D01*
X187661600Y-133347883D02*
X187661600Y-133611600D01*
X181346678Y-129140960D02*
X184334433Y-132128715D01*
X259977883Y-131667883D02*
X258776598Y-130466598D01*
X187661600Y-133611600D02*
X188199648Y-134149648D01*
X260278401Y-131667883D02*
X259977883Y-131667883D01*
X203790960Y-122091886D02*
X208870000Y-117012846D01*
X187661600Y-133181600D02*
X187661600Y-133347883D01*
X141898395Y-121776960D02*
X131187323Y-121776960D01*
X175651776Y-129140960D02*
X181346678Y-129140960D01*
X256672316Y-130466598D02*
X252493323Y-126287606D01*
X297768401Y-124921599D02*
X297768401Y-125157883D01*
X188199648Y-134149648D02*
X196284634Y-134149648D01*
X252493323Y-126287606D02*
X245596198Y-119390480D01*
X311394281Y-124320000D02*
X306365939Y-124320000D01*
X184334433Y-132128715D02*
X186608715Y-132128715D01*
X290020000Y-127770000D02*
X280235152Y-127770000D01*
X165713601Y-130347883D02*
X160482316Y-125116598D01*
X173582254Y-131210480D02*
X175651776Y-129140960D01*
X167730480Y-131210480D02*
X173582254Y-131210480D01*
X208870000Y-115570687D02*
X211350000Y-113090687D01*
X282656492Y-80530638D02*
X314827926Y-80530638D01*
X90525000Y-142606595D02*
X90525000Y-124655000D01*
X266558111Y-88750960D02*
X270367604Y-88750960D01*
X338605969Y-78348314D02*
X339717834Y-77236449D01*
X275010005Y-84108560D02*
X279078568Y-84108560D01*
X361512021Y-137487739D02*
X362760480Y-138736198D01*
X324470000Y-118470000D02*
X360440000Y-118470000D01*
X290166651Y-140973715D02*
X288375000Y-142765366D01*
X226590000Y-110550687D02*
X228480000Y-108660686D01*
X325900000Y-141280000D02*
X325435009Y-141744991D01*
X101903403Y-118050000D02*
X107410000Y-123556597D01*
X247101408Y-91041440D02*
X249704278Y-91041440D01*
X351576448Y-77236449D02*
X362925000Y-88585001D01*
X339717834Y-77236449D02*
X351576448Y-77236449D01*
X228480000Y-106672850D02*
X240376835Y-94776014D01*
X362925000Y-88585001D02*
X362925000Y-108827846D01*
X322270480Y-108783802D02*
X322270480Y-116270479D01*
X361943802Y-141690480D02*
X360050480Y-141690480D01*
X361512021Y-119542022D02*
X361512021Y-137487739D01*
X337138593Y-82058560D02*
X338605969Y-80591185D01*
X325900000Y-141070000D02*
X325900000Y-141280000D01*
X327409291Y-141744991D02*
X326574991Y-141744991D01*
X306736197Y-139690480D02*
X292533802Y-139690480D01*
X264687786Y-86880635D02*
X266558111Y-88750960D01*
X362760480Y-138736198D02*
X362760480Y-140873802D01*
X334706198Y-141710480D02*
X332856197Y-139860480D01*
X321312167Y-77236449D02*
X324054278Y-79978560D01*
X318122117Y-77236449D02*
X321312167Y-77236449D01*
X249704278Y-91041440D02*
X253865084Y-86880635D01*
X331675402Y-79978560D02*
X333755402Y-82058560D01*
X279078568Y-84108560D02*
X282656492Y-80530638D01*
X333755402Y-82058560D02*
X337138593Y-82058560D01*
X253865084Y-86880635D02*
X264687786Y-86880635D01*
X347179519Y-141710480D02*
X334706198Y-141710480D01*
X270367604Y-88750960D02*
X275010005Y-84108560D01*
X350398793Y-139945488D02*
X348944511Y-139945488D01*
X328696678Y-110240960D02*
X326186198Y-107730480D01*
X356289520Y-137929520D02*
X352414761Y-137929520D01*
X362925000Y-108827846D02*
X361511886Y-110240960D01*
X362760480Y-140873802D02*
X361943802Y-141690480D01*
X291250567Y-140973715D02*
X290166651Y-140973715D01*
X332856197Y-139860480D02*
X329293802Y-139860480D01*
X314827926Y-80530638D02*
X318122117Y-77236449D01*
X308790709Y-141744991D02*
X306736197Y-139690480D01*
X324054278Y-79978560D02*
X331675402Y-79978560D01*
X348944511Y-139945488D02*
X347179519Y-141710480D01*
X338605969Y-80591185D02*
X338605969Y-78348314D01*
X240376835Y-94776014D02*
X243366833Y-94776014D01*
X322270480Y-116270479D02*
X324470000Y-118470000D01*
X326574991Y-141744991D02*
X325900000Y-141070000D01*
X292533802Y-139690480D02*
X291250567Y-140973715D01*
X325435009Y-141744991D02*
X308790709Y-141744991D01*
X360050480Y-141690480D02*
X356289520Y-137929520D01*
X361511886Y-110240960D02*
X328696678Y-110240960D01*
X97130000Y-118050000D02*
X101903403Y-118050000D01*
X360440000Y-118470000D02*
X361512021Y-119542022D01*
X323323802Y-107730480D02*
X322270480Y-108783802D01*
X243366833Y-94776014D02*
X247101408Y-91041440D01*
X326186198Y-107730480D02*
X323323802Y-107730480D01*
X329293802Y-139860480D02*
X327409291Y-141744991D01*
X352414761Y-137929520D02*
X350398793Y-139945488D01*
X90525000Y-124655000D02*
X97130000Y-118050000D01*
X228480000Y-108660686D02*
X228480000Y-106672850D01*
X288375000Y-142765366D02*
X288375000Y-142900000D01*
X363400000Y-108988564D02*
X363400000Y-88424283D01*
X253678887Y-86431115D02*
X249518080Y-90591920D01*
X274823806Y-83659040D02*
X270181406Y-88301440D01*
X270181406Y-88301440D02*
X266744310Y-88301440D01*
X317935919Y-76786929D02*
X314641728Y-80081118D01*
X153870000Y-141470000D02*
X156823717Y-141470000D01*
X292720000Y-140140000D02*
X290950000Y-141910000D01*
X282470291Y-80081118D02*
X278892369Y-83659040D01*
X101659520Y-141990480D02*
X97213802Y-141990480D01*
X226590000Y-107927132D02*
X226590000Y-108010687D01*
X278892369Y-83659040D02*
X274823806Y-83659040D01*
X361961541Y-119355824D02*
X360626197Y-118020480D01*
X332670000Y-140310000D02*
X329480000Y-140310000D01*
X249518080Y-90591920D02*
X246915211Y-90591920D01*
X334520000Y-142160000D02*
X332670000Y-140310000D01*
X356103322Y-138379040D02*
X359864282Y-142140000D01*
X349910000Y-141069999D02*
X348455718Y-141069999D01*
X360626197Y-118020480D02*
X324656198Y-118020480D01*
X308604511Y-142194511D02*
X306550000Y-140140000D01*
X321498365Y-76786929D02*
X317935919Y-76786929D01*
X339531636Y-76786929D02*
X338156449Y-78162116D01*
X348455718Y-141069999D02*
X347365717Y-142160000D01*
X103840000Y-139810000D02*
X101659520Y-141990480D01*
X290950000Y-141910000D02*
X290950000Y-142225000D01*
X361698084Y-110690480D02*
X363400000Y-108988564D01*
X331861600Y-79529040D02*
X324240476Y-79529040D01*
X314641728Y-80081118D02*
X282470291Y-80081118D01*
X266744310Y-88301440D02*
X264873985Y-86431115D01*
X306550000Y-140140000D02*
X292720000Y-140140000D01*
X86475000Y-144063564D02*
X86475000Y-142606596D01*
X94583802Y-144620480D02*
X87031916Y-144620480D01*
X333941600Y-81609040D02*
X331861600Y-79529040D01*
X347365717Y-142160000D02*
X334520000Y-142160000D01*
X329480000Y-140310000D02*
X327595489Y-142194511D01*
X324240476Y-79529040D02*
X321498365Y-76786929D01*
X145240000Y-160010000D02*
X137600000Y-160010000D01*
X361961541Y-137301541D02*
X361961541Y-119355824D01*
X323510000Y-108180000D02*
X326000000Y-108180000D01*
X322720000Y-108970000D02*
X323510000Y-108180000D01*
X327595489Y-142194511D02*
X308604511Y-142194511D01*
X352600959Y-138379040D02*
X356103322Y-138379040D01*
X264873985Y-86431115D02*
X253678887Y-86431115D01*
X87031916Y-144620480D02*
X86475000Y-144063564D01*
X97213802Y-141990480D02*
X94583802Y-144620480D01*
X153870000Y-141470000D02*
X154510000Y-142110000D01*
X363400000Y-88424283D02*
X351762646Y-76786929D01*
X154510000Y-142110000D02*
X154510000Y-150740000D01*
X117400000Y-139810000D02*
X103840000Y-139810000D01*
X243180635Y-94326494D02*
X240190639Y-94326494D01*
X240190639Y-94326494D02*
X226590000Y-107927132D01*
X362130000Y-142140000D02*
X363210000Y-141060000D01*
X359864282Y-142140000D02*
X362130000Y-142140000D01*
X156823717Y-141470000D02*
X157141600Y-141787883D01*
X137600000Y-160010000D02*
X117400000Y-139810000D01*
X326000000Y-108180000D02*
X328510480Y-110690480D01*
X336952395Y-81609040D02*
X333941600Y-81609040D01*
X351762646Y-76786929D02*
X339531636Y-76786929D01*
X349910000Y-141069999D02*
X352600959Y-138379040D01*
X363210000Y-138550000D02*
X361961541Y-137301541D01*
X154510000Y-150740000D02*
X145240000Y-160010000D01*
X338156449Y-78162116D02*
X338156449Y-80404987D01*
X246915211Y-90591920D02*
X243180635Y-94326494D01*
X338156449Y-80404987D02*
X336952395Y-81609040D01*
X322720000Y-116084282D02*
X322720000Y-108970000D01*
X363210000Y-141060000D02*
X363210000Y-138550000D01*
X324656198Y-118020480D02*
X322720000Y-116084282D01*
X328510480Y-110690480D02*
X361698084Y-110690480D01*
X134122993Y-101316923D02*
X141010288Y-101316923D01*
X184261679Y-93280480D02*
X208373326Y-93280480D01*
X159827252Y-87898688D02*
X161689045Y-89760480D01*
X148019925Y-108326560D02*
X148019925Y-109488580D01*
X177198085Y-91909520D02*
X182890718Y-91909520D01*
X139250995Y-122676000D02*
X141526000Y-122676000D01*
X119910582Y-106180582D02*
X118865000Y-105135000D01*
X157753366Y-86990000D02*
X158662055Y-87898688D01*
X129259334Y-106180582D02*
X134122993Y-101316923D01*
X146637775Y-89900995D02*
X141925820Y-85189040D01*
X96928363Y-99968363D02*
X141171637Y-99968363D01*
X175049045Y-89760480D02*
X177198085Y-91909520D01*
X117357403Y-100867403D02*
X96772597Y-100867403D01*
X92260000Y-100880000D02*
X92260000Y-99190000D01*
X209560000Y-101140687D02*
X211350000Y-102930687D01*
X149548770Y-86990000D02*
X157753366Y-86990000D01*
X148753197Y-129903197D02*
X154092391Y-129903197D01*
X209560000Y-94467154D02*
X209560000Y-101140687D01*
X141010288Y-101316923D02*
X148019925Y-108326560D01*
X96030000Y-101610000D02*
X92990000Y-101610000D01*
X118865000Y-102375000D02*
X117357403Y-100867403D01*
X146637775Y-89900995D02*
X149548770Y-86990000D01*
X182890718Y-91909520D02*
X184261679Y-93280480D01*
X137818566Y-83560000D02*
X129145718Y-83560000D01*
X141171637Y-99968363D02*
X146637775Y-94502225D01*
X146637775Y-94502225D02*
X146637775Y-89900995D01*
X141090559Y-144564752D02*
X139059026Y-146596285D01*
X93220000Y-98230000D02*
X95190000Y-98230000D01*
X158662055Y-87898688D02*
X159827252Y-87898688D01*
X141090559Y-142583564D02*
X141090559Y-144564752D01*
X129145718Y-83560000D02*
X127877184Y-84828534D01*
X127877184Y-84828534D02*
X127877184Y-86592995D01*
X92260000Y-99190000D02*
X93220000Y-98230000D01*
X96772597Y-100867403D02*
X96030000Y-101610000D01*
X118865000Y-105135000D02*
X118865000Y-102375000D01*
X141925820Y-85189040D02*
X139447606Y-85189040D01*
X141526000Y-122676000D02*
X148753197Y-129903197D01*
X139447606Y-85189040D02*
X137818566Y-83560000D01*
X208373326Y-93280480D02*
X209560000Y-94467154D01*
X95190000Y-98230000D02*
X96928363Y-99968363D01*
X135331796Y-126595199D02*
X139250995Y-122676000D01*
X161689045Y-89760480D02*
X175049045Y-89760480D01*
X129259334Y-106180582D02*
X119910582Y-106180582D01*
X92990000Y-101610000D02*
X92260000Y-100880000D01*
X207079313Y-120710687D02*
X211350000Y-120710687D01*
X166203930Y-142589648D02*
X202986070Y-142589648D01*
X134410000Y-152064899D02*
X134410000Y-142420000D01*
X202986070Y-142589648D02*
X205139520Y-140436198D01*
X161583802Y-137969520D02*
X166203930Y-142589648D01*
X138860480Y-137969520D02*
X161583802Y-137969520D01*
X134410000Y-142420000D02*
X138860480Y-137969520D01*
X137645101Y-155300000D02*
X134410000Y-152064899D01*
X141065181Y-155300000D02*
X137645101Y-155300000D01*
X205139520Y-140436198D02*
X205139520Y-122650480D01*
X205139520Y-122650480D02*
X207079313Y-120710687D01*
X143496699Y-157731518D02*
X141065181Y-155300000D01*
X208983595Y-118170687D02*
X211350000Y-118170687D01*
X133960480Y-142233802D02*
X138674283Y-137520000D01*
X161770000Y-137520000D02*
X166390128Y-142140128D01*
X166390128Y-142140128D02*
X202799872Y-142140128D01*
X133960480Y-152251096D02*
X133960480Y-142233802D01*
X204690000Y-122464282D02*
X208983595Y-118170687D01*
X202799872Y-142140128D02*
X204690000Y-140250000D01*
X138572660Y-156863277D02*
X133960480Y-152251096D01*
X204690000Y-140250000D02*
X204690000Y-122464282D01*
X138674283Y-137520000D02*
X161770000Y-137520000D01*
X336766198Y-81159520D02*
X334127797Y-81159520D01*
X332047797Y-79079520D02*
X324426673Y-79079520D01*
X266930507Y-87851920D02*
X265060182Y-85981595D01*
X249331882Y-90142400D02*
X246729013Y-90142400D01*
X337706929Y-77975918D02*
X337706929Y-80218789D01*
X246729013Y-90142400D02*
X242994437Y-93876974D01*
X321684562Y-76337409D02*
X317749721Y-76337410D01*
X253492689Y-85981595D02*
X249331882Y-90142400D01*
X351948843Y-76337409D02*
X339345438Y-76337409D01*
X269995208Y-87851920D02*
X266930507Y-87851920D01*
X282284094Y-79631598D02*
X278706172Y-83209520D01*
X317749721Y-76337410D02*
X314455530Y-79631598D01*
X314455530Y-79631598D02*
X282284094Y-79631598D01*
X278706172Y-83209520D02*
X274637608Y-83209520D01*
X363875000Y-88263566D02*
X351948843Y-76337409D01*
X325942478Y-111140000D02*
X361884282Y-111140000D01*
X324426673Y-79079520D02*
X321684562Y-76337409D01*
X334127797Y-81159520D02*
X332047797Y-79079520D01*
X228410728Y-105470687D02*
X226590000Y-105470687D01*
X361884282Y-111140000D02*
X363875000Y-109149282D01*
X265060182Y-85981595D02*
X253492689Y-85981595D01*
X337706929Y-80218789D02*
X336766198Y-81159520D01*
X324701066Y-112381412D02*
X325942478Y-111140000D01*
X242994437Y-93876974D02*
X240004441Y-93876974D01*
X339345438Y-76337409D02*
X337706929Y-77975918D01*
X240004441Y-93876974D02*
X228410728Y-105470687D01*
X274637608Y-83209520D02*
X269995208Y-87851920D01*
X363875000Y-109149282D02*
X363875000Y-88263566D01*
X314269332Y-79182078D02*
X282097896Y-79182078D01*
X249145684Y-89692880D02*
X246542815Y-89692881D01*
X321870759Y-75887889D02*
X317563524Y-75887890D01*
X364325000Y-88077849D02*
X352135040Y-75887889D01*
X324612870Y-78630000D02*
X321870759Y-75887889D01*
X282097896Y-79182078D02*
X278519974Y-82760000D01*
X274451410Y-82760000D02*
X269809010Y-87402400D01*
X362071158Y-111589520D02*
X364325000Y-109335678D01*
X337257409Y-80032591D02*
X336580000Y-80710000D01*
X246542815Y-89692881D02*
X242808242Y-93427454D01*
X325142133Y-114882823D02*
X328435436Y-111589520D01*
X253306488Y-85532076D02*
X249145684Y-89692880D01*
X337257409Y-77789720D02*
X337257409Y-80032591D01*
X352135040Y-75887889D02*
X339159240Y-75887889D01*
X364325000Y-109335678D02*
X364325000Y-88077849D01*
X339159240Y-75887889D02*
X337257409Y-77789720D01*
X267116705Y-87402400D02*
X265246379Y-85532075D01*
X317563524Y-75887890D02*
X314269332Y-79182078D01*
X334313994Y-80710000D02*
X332233994Y-78630000D01*
X336580000Y-80710000D02*
X334313994Y-80710000D01*
X265246379Y-85532075D02*
X253306488Y-85532076D01*
X239818243Y-93427454D02*
X232855010Y-100390687D01*
X269809010Y-87402400D02*
X267116705Y-87402400D01*
X278519974Y-82760000D02*
X274451410Y-82760000D01*
X242808242Y-93427454D02*
X239818243Y-93427454D01*
X232855010Y-100390687D02*
X226590000Y-100390687D01*
X332233994Y-78630000D02*
X324612870Y-78630000D01*
X328435436Y-111589520D02*
X362071158Y-111589520D01*
X143912978Y-86540480D02*
X157939564Y-86540480D01*
X85355578Y-82710000D02*
X88705718Y-82710000D01*
X81615718Y-139840000D02*
X86845718Y-145070000D01*
X142112018Y-84739520D02*
X143912978Y-86540480D01*
X94770000Y-145070000D02*
X97400000Y-142440000D01*
X93062315Y-105776597D02*
X107532731Y-105776597D01*
X116035718Y-86630000D02*
X125440000Y-86630000D01*
X158848252Y-87449168D02*
X160013450Y-87449168D01*
X138004763Y-83110480D02*
X139633803Y-84739520D01*
X81338981Y-86726597D02*
X85355578Y-82710000D01*
X81338981Y-117682846D02*
X74195231Y-124826596D01*
X175235242Y-89310960D02*
X177384282Y-91460000D01*
X89717686Y-124826596D02*
X96944282Y-117600000D01*
X211039251Y-95310687D02*
X211350000Y-95310687D01*
X88945718Y-101660000D02*
X93062315Y-105776597D01*
X81338981Y-105776597D02*
X85455578Y-101660000D01*
X96944282Y-117600000D02*
X102089121Y-117600000D01*
X106921207Y-122432086D02*
X112281968Y-122432086D01*
X107475718Y-82680000D02*
X112085718Y-82680000D01*
X74195231Y-143876596D02*
X78231827Y-139840000D01*
X83720230Y-124826596D02*
X89717686Y-124826596D01*
X88705718Y-82710000D02*
X92722315Y-86726597D01*
X184447876Y-92830960D02*
X208559524Y-92830960D01*
X177384282Y-91460000D02*
X183076916Y-91460000D01*
X112085718Y-82680000D02*
X116035718Y-86630000D01*
X157939564Y-86540480D02*
X158848252Y-87449168D01*
X85455578Y-101660000D02*
X88945718Y-101660000D01*
X81338981Y-86726597D02*
X81338981Y-105776597D01*
X83720230Y-124826596D02*
X74195231Y-124826596D01*
X183076916Y-91460000D02*
X184447876Y-92830960D01*
X97400000Y-142440000D02*
X101845718Y-142440000D01*
X139633803Y-84739520D02*
X142112018Y-84739520D01*
X78231827Y-139840000D02*
X81615718Y-139840000D01*
X92722315Y-86726597D02*
X105151000Y-86726597D01*
X112281968Y-122432086D02*
X114676481Y-124826599D01*
X102949123Y-141336595D02*
X104357731Y-141336595D01*
X102089121Y-117600000D02*
X106921207Y-122432086D01*
X86845718Y-145070000D02*
X94770000Y-145070000D01*
X81338981Y-105776597D02*
X81338981Y-117682846D01*
X101845718Y-142440000D02*
X102949123Y-141336595D01*
X105151000Y-86726597D02*
X105151000Y-85004718D01*
X125440000Y-86630000D02*
X128959520Y-83110480D01*
X161875242Y-89310960D02*
X175235242Y-89310960D01*
X128959520Y-83110480D02*
X138004763Y-83110480D01*
X208559524Y-92830960D02*
X211039251Y-95310687D01*
X160013450Y-87449168D02*
X161875242Y-89310960D01*
X105151000Y-85004718D02*
X107475718Y-82680000D01*
X209110480Y-94653352D02*
X209110480Y-103231167D01*
X208187128Y-93730000D02*
X209110480Y-94653352D01*
X183650000Y-134150000D02*
X183650000Y-132715718D01*
X198308159Y-135120446D02*
X198282394Y-135094681D01*
X170887084Y-108690000D02*
X166780507Y-112796577D01*
X184594681Y-135094681D02*
X183650000Y-134150000D01*
X165398361Y-93208988D02*
X168397349Y-90210000D01*
X176024170Y-130040000D02*
X172852975Y-133211195D01*
X186219866Y-108690000D02*
X170887084Y-108690000D01*
X189465302Y-93730000D02*
X190853545Y-95118243D01*
X192241788Y-93730000D02*
X208187128Y-93730000D01*
X183650000Y-132715718D02*
X180974282Y-130040000D01*
X180974282Y-130040000D02*
X176024170Y-130040000D01*
X190853545Y-95118243D02*
X192241788Y-93730000D01*
X198282394Y-135094681D02*
X184594681Y-135094681D01*
X168397349Y-90210000D02*
X174862848Y-90210000D01*
X184075482Y-93730000D02*
X189465302Y-93730000D01*
X209110480Y-103231167D02*
X211350000Y-105470687D01*
X182704520Y-92359040D02*
X184075482Y-93730000D01*
X192235694Y-114705828D02*
X186219866Y-108690000D01*
X177011888Y-92359040D02*
X182704520Y-92359040D01*
X174862848Y-90210000D02*
X177011888Y-92359040D01*
X239003217Y-98056783D02*
X229828560Y-107231440D01*
X229828560Y-114932127D02*
X226590000Y-118170687D01*
X244188749Y-95861251D02*
X244188749Y-98056783D01*
X270687649Y-129492882D02*
X269213807Y-128019040D01*
X250262870Y-92390000D02*
X247660000Y-92390000D01*
X229828560Y-107231440D02*
X229828560Y-114932127D01*
X254423675Y-88229195D02*
X250262870Y-92390000D01*
X269213807Y-128019040D02*
X266965243Y-128019040D01*
X261294283Y-133690000D02*
X257370000Y-133690000D01*
X257370000Y-133690000D02*
X254394779Y-130714779D01*
X246114599Y-134065401D02*
X246114599Y-136404959D01*
X247660000Y-92390000D02*
X244188749Y-95861251D01*
X264129195Y-88229195D02*
X254423675Y-88229195D01*
X268761802Y-91144706D02*
X267044706Y-91144706D01*
X249465221Y-130714779D02*
X246114599Y-134065401D01*
X259098970Y-109078295D02*
X252186895Y-115990370D01*
X244188749Y-98056783D02*
X239003217Y-98056783D01*
X267044706Y-91144706D02*
X264129195Y-88229195D01*
X276759945Y-109078295D02*
X259098970Y-109078295D01*
X254394779Y-130714779D02*
X249465221Y-130714779D01*
X266965243Y-128019040D02*
X261294283Y-133690000D01*
X279450963Y-85007600D02*
X275382400Y-85007600D01*
X298828534Y-102462298D02*
X295520535Y-105770297D01*
X308208825Y-122876886D02*
X308208825Y-114708825D01*
X229379040Y-107045243D02*
X229379040Y-112841647D01*
X275382400Y-85007600D02*
X270740000Y-89650000D01*
X321400000Y-78610978D02*
X320924511Y-78135489D01*
X296129520Y-125660480D02*
X296517116Y-125272884D01*
X264315392Y-87779675D02*
X254237478Y-87779675D01*
X291493803Y-125660480D02*
X296129520Y-125660480D01*
X290969398Y-126184884D02*
X291493803Y-125660480D01*
X247473802Y-91940480D02*
X243739229Y-95675054D01*
X266185717Y-89650000D02*
X264315392Y-87779675D01*
X305558542Y-122876886D02*
X308208825Y-122876886D01*
X243739229Y-95675054D02*
X240749229Y-95675054D01*
X320924511Y-78135489D02*
X318494511Y-78135489D01*
X304820696Y-122139040D02*
X305558542Y-122876886D01*
X296985052Y-123906598D02*
X298147684Y-123906598D01*
X306282976Y-84528711D02*
X307724745Y-85970480D01*
X307724745Y-85970480D02*
X315803803Y-85970480D01*
X289448236Y-126184884D02*
X290969398Y-126184884D01*
X304841207Y-85970480D02*
X291833802Y-85970480D01*
X229379040Y-112841647D02*
X226590000Y-115630687D01*
X283028886Y-81429678D02*
X279450963Y-85007600D01*
X306282976Y-84528711D02*
X304841207Y-85970480D01*
X321400000Y-80374283D02*
X321400000Y-78610978D01*
X240749229Y-95675054D02*
X229379040Y-107045243D01*
X270740000Y-89650000D02*
X266185717Y-89650000D01*
X318494511Y-78135489D02*
X315200322Y-81429678D01*
X289967573Y-87836709D02*
X287522390Y-87836709D01*
X299270297Y-105770297D02*
X295520535Y-105770297D01*
X296517116Y-125272884D02*
X296517116Y-124374534D01*
X291833802Y-85970480D02*
X289967573Y-87836709D01*
X308208825Y-114708825D02*
X299270297Y-105770297D01*
X296517116Y-124374534D02*
X296985052Y-123906598D01*
X299915243Y-122139040D02*
X304820696Y-122139040D01*
X254237478Y-87779675D02*
X250076674Y-91940480D01*
X314281120Y-102462298D02*
X298828534Y-102462298D01*
X298147684Y-123906598D02*
X299915243Y-122139040D01*
X315200322Y-81429678D02*
X283028886Y-81429678D01*
X315803803Y-85970480D02*
X321400000Y-80374283D01*
X250076674Y-91940480D02*
X247473802Y-91940480D01*
X337697184Y-83407120D02*
X330863370Y-83407120D01*
X361062501Y-119728219D02*
X360253802Y-118919520D01*
X228929520Y-110751167D02*
X226590000Y-113090687D01*
X318308314Y-77685969D02*
X315014124Y-80980158D01*
X358681249Y-101700001D02*
X349156250Y-101700000D01*
X356353602Y-82649999D02*
X353918751Y-82649999D01*
X331489204Y-80428080D02*
X323868080Y-80428080D01*
X323868080Y-80428080D02*
X321125969Y-77685969D01*
X361062501Y-139799999D02*
X361062501Y-119728219D01*
X353918751Y-80214469D02*
X351390251Y-77685969D01*
X275196202Y-84558080D02*
X270553802Y-89200480D01*
X315014124Y-80980158D02*
X282842689Y-80980158D01*
X361062501Y-139799999D02*
X358795717Y-139799999D01*
X331936728Y-118919520D02*
X354469519Y-118919520D01*
X264501589Y-87330155D02*
X254051281Y-87330155D01*
X356600001Y-101700001D02*
X358681249Y-101700001D01*
X350212595Y-139495968D02*
X348758313Y-139495968D01*
X270553802Y-89200480D02*
X266371914Y-89200480D01*
X342225718Y-92430000D02*
X347330000Y-92430000D01*
X353918751Y-82649999D02*
X352528272Y-81259520D01*
X249890476Y-91490960D02*
X247287605Y-91490960D01*
X337250000Y-101700000D02*
X337250000Y-97405718D01*
X339844785Y-81259520D02*
X337697184Y-83407120D01*
X360699999Y-101700001D02*
X362475000Y-99925000D01*
X333569204Y-82508080D02*
X331489204Y-80428080D01*
X338710959Y-141260960D02*
X337249999Y-139800000D01*
X360253802Y-118919520D02*
X358130481Y-118919520D01*
X247287605Y-91490960D02*
X243553031Y-95225534D01*
X351390251Y-77685969D02*
X339904031Y-77685969D01*
X321125969Y-77685969D02*
X318308314Y-77685969D01*
X266371914Y-89200480D02*
X264501589Y-87330155D01*
X243553031Y-95225534D02*
X240563031Y-95225534D01*
X352528272Y-81259520D02*
X339844785Y-81259520D01*
X352228563Y-137480000D02*
X350212595Y-139495968D01*
X362475000Y-88771397D02*
X356353602Y-82649999D01*
X354469519Y-118919520D02*
X356300000Y-120750001D01*
X240563031Y-95225534D02*
X228929520Y-106859045D01*
X279264766Y-84558080D02*
X275196202Y-84558080D01*
X362475000Y-99925000D02*
X362475000Y-88771397D01*
X339904031Y-77685969D02*
X339055489Y-78534511D01*
X339055488Y-80777383D02*
X337324790Y-82508080D01*
X353918751Y-82649999D02*
X353918751Y-80214469D01*
X346993321Y-141260960D02*
X338710959Y-141260960D01*
X282842689Y-80980158D02*
X279264766Y-84558080D01*
X356475717Y-137480000D02*
X352228563Y-137480000D01*
X358795717Y-139799999D02*
X356475717Y-137480000D01*
X348758313Y-139495968D02*
X346993321Y-141260960D01*
X254051281Y-87330155D02*
X249890476Y-91490960D01*
X339055489Y-78534511D02*
X339055488Y-80777383D01*
X358130481Y-118919520D02*
X356300000Y-120750001D01*
X330106250Y-120749998D02*
X331936728Y-118919520D01*
X330863370Y-83407120D02*
X330106252Y-82650002D01*
X337324790Y-82508080D02*
X333569204Y-82508080D01*
X337250000Y-97405718D02*
X342225718Y-92430000D01*
X347330000Y-92430000D02*
X356600001Y-101700001D01*
X358681249Y-101700001D02*
X360699999Y-101700001D01*
X228929520Y-106859045D02*
X228929520Y-110751167D01*
X136994249Y-85194249D02*
X139428401Y-87628401D01*
X134571780Y-85194249D02*
X136994249Y-85194249D01*
X139428401Y-87628401D02*
X139428401Y-90442118D01*
X156422249Y-88502249D02*
X158308401Y-90388401D01*
X153332371Y-88502249D02*
X156422249Y-88502249D01*
X158308401Y-90388401D02*
X158308401Y-93702118D01*
X176898401Y-94188401D02*
X176898401Y-97122118D01*
X174520242Y-91810242D02*
X176898401Y-94188401D01*
X172092957Y-91810242D02*
X174520242Y-91810242D01*
X180753530Y-96516989D02*
X179648401Y-97622118D01*
X184158949Y-96516989D02*
X180753530Y-96516989D01*
X250001212Y-94452705D02*
X253242187Y-94452705D01*
X253242187Y-94452705D02*
X255953199Y-97163717D01*
X255953199Y-97163717D02*
X255953199Y-97804235D01*
X261294934Y-94748784D02*
X259263199Y-96780519D01*
X259263199Y-96780519D02*
X259263199Y-97434235D01*
X262949339Y-94748784D02*
X261294934Y-94748784D01*
X281709927Y-91440787D02*
X279892931Y-91440787D01*
X279892931Y-91440787D02*
X277391600Y-93942118D01*
X298636576Y-88132789D02*
X296134647Y-90634718D01*
X300470513Y-88132789D02*
X298636576Y-88132789D01*
X321489998Y-85190002D02*
X319800000Y-86880000D01*
X323756252Y-85190002D02*
X321489998Y-85190002D01*
X344510001Y-85189999D02*
X342800000Y-86900000D01*
X347568751Y-85189999D02*
X344510001Y-85189999D01*
X87688981Y-103236597D02*
X89886597Y-103236597D01*
X89886597Y-103236597D02*
X94240000Y-107590000D01*
X120270000Y-112050000D02*
X120270000Y-107175718D01*
X116330879Y-103236597D02*
X113882731Y-103236597D01*
X120270000Y-107175718D02*
X116330879Y-103236597D01*
X138318119Y-104781836D02*
X141458401Y-107922118D01*
X135953930Y-104781836D02*
X138318119Y-104781836D01*
X154714521Y-108089834D02*
X156676117Y-108089834D01*
X156676117Y-108089834D02*
X159888401Y-111302118D01*
X175454114Y-111397831D02*
X178548401Y-114492118D01*
X173475103Y-111397831D02*
X175454114Y-111397831D01*
X185541098Y-116104574D02*
X182410857Y-116104574D01*
X182410857Y-116104574D02*
X181158401Y-114852118D01*
X259167301Y-113554235D02*
X257999358Y-112386292D01*
X264273199Y-113554235D02*
X259167301Y-113554235D01*
X266955061Y-112682373D02*
X266803199Y-112834235D01*
X270947482Y-112682373D02*
X266955061Y-112682373D01*
X284993059Y-109374375D02*
X284963199Y-109404235D01*
X289708072Y-109374375D02*
X284993059Y-109374375D01*
X303511058Y-106066376D02*
X303433199Y-106144235D01*
X308468657Y-106066376D02*
X303511058Y-106066376D01*
X330900000Y-104240000D02*
X326720000Y-104240000D01*
X326720000Y-104240000D02*
X326400000Y-103920000D01*
X342806250Y-98866250D02*
X342790000Y-98850000D01*
X345440000Y-103560000D02*
X344760000Y-104240000D01*
X347700000Y-103560000D02*
X345440000Y-103560000D01*
X342806250Y-104240000D02*
X342806250Y-98866250D01*
X344760000Y-104240000D02*
X342806250Y-104240000D01*
X348380001Y-104240001D02*
X347700000Y-103560000D01*
X352331249Y-104240001D02*
X348380001Y-104240001D01*
X91621968Y-122286596D02*
X90070230Y-122286596D01*
X94200000Y-119708565D02*
X91621968Y-122286596D01*
X80545231Y-122286596D02*
X90070230Y-122286596D01*
X94200000Y-117520000D02*
X94200000Y-119708565D01*
X125910000Y-127170118D02*
X125910000Y-131176599D01*
X121026481Y-122286599D02*
X125910000Y-127170118D01*
X142026392Y-125196453D02*
X143410735Y-125196453D01*
X143410735Y-125196453D02*
X146058401Y-127844119D01*
X146058401Y-127844119D02*
X146058401Y-133872118D01*
X164918401Y-136973718D02*
X165796801Y-137852118D01*
X164918401Y-132635865D02*
X164918401Y-136973718D01*
X160786987Y-128504451D02*
X164918401Y-132635865D01*
X183626801Y-135891679D02*
X183626801Y-140884235D01*
X179547571Y-131812449D02*
X183626801Y-135891679D01*
X191613563Y-136519192D02*
X188590808Y-136519192D01*
X188590808Y-136519192D02*
X186338401Y-138771599D01*
X186338401Y-138771599D02*
X186338401Y-140852118D01*
X258861600Y-135817318D02*
X258861600Y-139222118D01*
X251927062Y-132800881D02*
X255845163Y-132800881D01*
X255845163Y-132800881D02*
X258861600Y-135817318D01*
X262523040Y-133096960D02*
X264875186Y-133096960D01*
X261601600Y-134018400D02*
X262523040Y-133096960D01*
X261601600Y-139172118D02*
X261601600Y-134018400D01*
X280541600Y-131038400D02*
X281791038Y-129788962D01*
X281791038Y-129788962D02*
X283635773Y-129788962D01*
X280541600Y-136292118D02*
X280541600Y-131038400D01*
X302396362Y-126480964D02*
X300119036Y-126480964D01*
X300119036Y-126480964D02*
X299091600Y-127508400D01*
X299091600Y-127508400D02*
X299091600Y-132662118D01*
X322200616Y-123289998D02*
X319780000Y-125710614D01*
X319780000Y-125710614D02*
X319780000Y-129639998D01*
X323756250Y-123289998D02*
X322200616Y-123289998D01*
X348394366Y-123290001D02*
X345120000Y-126564367D01*
X349950000Y-123290001D02*
X348394366Y-123290001D01*
X345120000Y-126564367D02*
X345120000Y-129640001D01*
X80545231Y-141336596D02*
X82476596Y-141336596D01*
X82476596Y-141336596D02*
X86475000Y-145335000D01*
X86475000Y-145335000D02*
X86475000Y-150226596D01*
X96599123Y-143876595D02*
X98007731Y-143876595D01*
X90525000Y-147925000D02*
X92930480Y-145519520D01*
X94956198Y-145519520D02*
X96599123Y-143876595D01*
X90525000Y-150226595D02*
X90525000Y-147925000D01*
X92930480Y-145519520D02*
X94956198Y-145519520D01*
X152546801Y-148120518D02*
X152546801Y-148974235D01*
X149623822Y-145197539D02*
X152546801Y-148120518D01*
X145753622Y-143712781D02*
X146014598Y-143451805D01*
X145753622Y-145197539D02*
X149623822Y-145197539D01*
X145753622Y-145197539D02*
X145753622Y-143712781D01*
X158911567Y-152385284D02*
X155818401Y-149292118D01*
X171890053Y-152385284D02*
X158911567Y-152385284D01*
X295520383Y-146482051D02*
X298669138Y-146482051D01*
X292273199Y-149729235D02*
X295520383Y-146482051D01*
X329344365Y-142340000D02*
X325900000Y-145784365D01*
X325900000Y-145784365D02*
X325900000Y-148690000D01*
X330899999Y-142340000D02*
X329344365Y-142340000D01*
X349910000Y-145586866D02*
X349910000Y-148689999D01*
X353156867Y-142339999D02*
X349910000Y-145586866D01*
X354712501Y-142339999D02*
X353156867Y-142339999D01*
X269622812Y-86952880D02*
X267302903Y-86952880D01*
X324799068Y-78180480D02*
X322056956Y-75438369D01*
X278333776Y-82310480D02*
X274265212Y-82310480D01*
X329759520Y-78180480D02*
X324799068Y-78180480D01*
X248959486Y-89243360D02*
X246356617Y-89243361D01*
X267302903Y-86952880D02*
X265432576Y-85082555D01*
X239632045Y-92977934D02*
X234759292Y-97850687D01*
X281911698Y-78732558D02*
X278333776Y-82310480D01*
X265432576Y-85082555D02*
X253120290Y-85082556D01*
X246356617Y-89243361D02*
X242622044Y-92977934D01*
X317114004Y-75701693D02*
X314083135Y-78732558D01*
X322056956Y-75438369D02*
X317377327Y-75438370D01*
X329770000Y-78170000D02*
X329759520Y-78180480D01*
X234759292Y-97850687D02*
X226590000Y-97850687D01*
X274265212Y-82310480D02*
X269622812Y-86952880D01*
X317377327Y-75438370D02*
X317114004Y-75701693D01*
X335880000Y-79230000D02*
X333570000Y-79230000D01*
X332510000Y-78170000D02*
X329770000Y-78170000D01*
X242622044Y-92977934D02*
X239632045Y-92977934D01*
X314083135Y-78732558D02*
X281911698Y-78732558D01*
X333570000Y-79230000D02*
X332510000Y-78170000D01*
X253120290Y-85082556D02*
X248959486Y-89243360D01*
X107410000Y-127720116D02*
X107410000Y-131176597D01*
X101976481Y-122286597D02*
X107410000Y-127720116D01*
M02*
