G04 #@! TF.GenerationSoftware,KiCad,Pcbnew,(6.0.7)*
G04 #@! TF.CreationDate,2022-12-13T23:16:33-05:00*
G04 #@! TF.ProjectId,alish40,616c6973-6834-4302-9e6b-696361645f70,rev?*
G04 #@! TF.SameCoordinates,Original*
G04 #@! TF.FileFunction,Profile,NP*
%FSLAX46Y46*%
G04 Gerber Fmt 4.6, Leading zero omitted, Abs format (unit mm)*
G04 Created by KiCad (PCBNEW (6.0.7)) date 2022-12-13 23:16:33*
%MOMM*%
%LPD*%
G01*
G04 APERTURE LIST*
G04 #@! TA.AperFunction,Profile*
%ADD10C,0.200000*%
G04 #@! TD*
G04 APERTURE END LIST*
D10*
X56774369Y-156689420D02*
X56793588Y-156720389D01*
X240051223Y-168257569D02*
X240072544Y-168287130D01*
X199358301Y-169870710D02*
X199392240Y-169857422D01*
X56682589Y-156491350D02*
X56694988Y-156525623D01*
X199001640Y-169936440D02*
X199038076Y-169935491D01*
X215463263Y-92348541D02*
X215528719Y-92365504D01*
X56793588Y-156720389D02*
X56813870Y-156750672D01*
X241868601Y-85263182D02*
X241895145Y-85238205D01*
X242073252Y-85008508D02*
X242090833Y-84976581D01*
X380438256Y-156644341D02*
X380454718Y-156611823D01*
X367328997Y-70651839D02*
X367295058Y-70638551D01*
X70830987Y-71556894D02*
X70821605Y-71521675D01*
X70839141Y-72026655D02*
X70846058Y-71990870D01*
X68844397Y-71401413D02*
X68830815Y-71435236D01*
X242014015Y-85100363D02*
X242034820Y-85070436D01*
X214457366Y-91696994D02*
X214501371Y-91748332D01*
X239346706Y-167845363D02*
X239382757Y-167850721D01*
X239593206Y-169864213D02*
X239559042Y-169876910D01*
X208482330Y-83366659D02*
X208543447Y-83394439D01*
X70143228Y-72805869D02*
X70177607Y-72793767D01*
X56813870Y-156750672D02*
X56835191Y-156780233D01*
X241171522Y-83436180D02*
X241135076Y-83436496D01*
X365892070Y-71459425D02*
X365887026Y-71495522D01*
X378845042Y-156966645D02*
X378873650Y-156989228D01*
X241920805Y-83759960D02*
X241895145Y-83734077D01*
X238531609Y-168085396D02*
X238559821Y-168062320D01*
X57887606Y-160018635D02*
X57719837Y-159986741D01*
X57099305Y-155273875D02*
X57069199Y-155294419D01*
X68859144Y-72250990D02*
X68875040Y-72283789D01*
X241595580Y-83529655D02*
X241562122Y-83515198D01*
X240203825Y-168546452D02*
X240215028Y-168581135D01*
X197745302Y-85482785D02*
X197772696Y-85458744D01*
X198072757Y-169392959D02*
X198090890Y-169424576D01*
X199392240Y-167915536D02*
X199358301Y-167902248D01*
X241316759Y-83447547D02*
X241280620Y-83442816D01*
X214854240Y-92062171D02*
X214910363Y-92099885D01*
X70846058Y-71990870D02*
X70851728Y-71954866D01*
X57432219Y-157172629D02*
X57467812Y-157180475D01*
X379409750Y-155108682D02*
X379373534Y-155112785D01*
X240279991Y-85055207D02*
X240300273Y-85085490D01*
X196295621Y-85394610D02*
X196320828Y-85420935D01*
X70684244Y-71225241D02*
X70663440Y-71195314D01*
X221942362Y-92421257D02*
X222009969Y-92420114D01*
X53748879Y-155430682D02*
X53740200Y-155260129D01*
X380949200Y-159423350D02*
X380796562Y-159507960D01*
X68830815Y-71435236D02*
X68818415Y-71469509D01*
X56652624Y-156386239D02*
X56661394Y-156421615D01*
X58206260Y-157057597D02*
X58237394Y-157038647D01*
X238318243Y-168332814D02*
X238337996Y-168302184D01*
X383400583Y-155789220D02*
X383373272Y-155961589D01*
X381794830Y-158808959D02*
X381663118Y-158923454D01*
X58568171Y-156704988D02*
X58586849Y-156673690D01*
X121931479Y-68020558D02*
X208033347Y-83231528D01*
X57972622Y-157158557D02*
X58007401Y-157147655D01*
X366067148Y-71023433D02*
X366046866Y-71053716D01*
X242161581Y-84808875D02*
X242172180Y-84774002D01*
X365961848Y-72030905D02*
X365976595Y-72064235D01*
X240442839Y-85250809D02*
X240469812Y-85275322D01*
X56652624Y-155916407D02*
X56645087Y-155952067D01*
X58703315Y-156368441D02*
X58710231Y-156332656D01*
X56708570Y-156559446D02*
X56723317Y-156592777D01*
X378903025Y-155296998D02*
X378873650Y-155318574D01*
X241868601Y-83709099D02*
X241841207Y-83685057D01*
X371056477Y-72026589D02*
X371085036Y-72197720D01*
X200032422Y-168741150D02*
X200026752Y-168705146D01*
X199952737Y-169311332D02*
X199966903Y-169277750D01*
X366685497Y-72644088D02*
X366721090Y-72651934D01*
X379127033Y-155176167D02*
X379093330Y-155190042D01*
X240258983Y-168941129D02*
X240256455Y-168977488D01*
X70403679Y-72676843D02*
X70433424Y-72655779D01*
X365892070Y-71786138D02*
X365898365Y-71822038D01*
X238170512Y-168741150D02*
X238176183Y-168705146D01*
X215997657Y-92421257D02*
X221942362Y-92421257D01*
X70786210Y-72200807D02*
X70799203Y-72166754D01*
X238162936Y-168813639D02*
X238166095Y-168777328D01*
X241280620Y-85529465D02*
X241316759Y-85524734D01*
X199289142Y-167879245D02*
X199254005Y-167869558D01*
X197256807Y-85714313D02*
X197292531Y-85707086D01*
X57259504Y-155187463D02*
X57226303Y-155202499D01*
X65911195Y-71847021D02*
X65952179Y-71679047D01*
X240028889Y-169544192D02*
X240005568Y-169572203D01*
X240005568Y-169572203D02*
X239981290Y-169599387D01*
X378933131Y-157031349D02*
X378963932Y-157050836D01*
X196930206Y-85722818D02*
X196966421Y-85726921D01*
X239846589Y-169721806D02*
X239817215Y-169743383D01*
X366756934Y-70587023D02*
X366721090Y-70593629D01*
X365961848Y-71214658D02*
X365948266Y-71248481D01*
X241171522Y-85536101D02*
X241207958Y-85535152D01*
X197688095Y-83835459D02*
X197658350Y-83814396D01*
X56286255Y-159449352D02*
X56138861Y-159363104D01*
X238531609Y-169687562D02*
X238504215Y-169663521D01*
X242202304Y-84631470D02*
X242206722Y-84595291D01*
X238680154Y-169792753D02*
X238649020Y-169773804D01*
X68807213Y-71504193D02*
X68797220Y-71539244D01*
X56983409Y-156940504D02*
X57011216Y-156964066D01*
X200041895Y-168850037D02*
X200039998Y-168813639D01*
X367047495Y-70579457D02*
X367011213Y-70575983D01*
X223565333Y-91590002D02*
X223603914Y-91534471D01*
X55994498Y-159271874D02*
X55853334Y-159175767D01*
X209137645Y-83825889D02*
X209182980Y-83875404D01*
X242136786Y-84877411D02*
X242149778Y-84843358D01*
X200041895Y-168922921D02*
X200042528Y-168886479D01*
X214501371Y-91748332D02*
X214547087Y-91798154D01*
X58354805Y-156952406D02*
X58382199Y-156928364D01*
X379446086Y-155105838D02*
X379409750Y-155108682D01*
X214594460Y-91846402D02*
X214643437Y-91893021D01*
X366088469Y-72251691D02*
X366110803Y-72280495D01*
X242090833Y-84976581D02*
X242107295Y-84944063D01*
X56661394Y-155881030D02*
X56652624Y-155916407D01*
X240848359Y-85488075D02*
X240883323Y-85498371D01*
X242107295Y-84944063D02*
X242122619Y-84910993D01*
X380316777Y-155482082D02*
X380292975Y-155454480D01*
X367801695Y-72207077D02*
X367821448Y-72176446D01*
X379230746Y-155141671D02*
X379195783Y-155151967D01*
X379628043Y-155110576D02*
X379591761Y-155107102D01*
X379806447Y-157161135D02*
X379841226Y-157150234D01*
X238984380Y-167861095D02*
X239020104Y-167853868D01*
X241352712Y-85518751D02*
X241388436Y-85511525D01*
X378738949Y-156866809D02*
X378764157Y-156893135D01*
X199182830Y-169919090D02*
X199218554Y-169911863D01*
X209182980Y-83875404D02*
X209226627Y-83926412D01*
X70462420Y-70985377D02*
X70433424Y-70963294D01*
X58663376Y-156508540D02*
X58675179Y-156474057D01*
X56671386Y-155845979D02*
X56661394Y-155881030D01*
X368775422Y-68686316D02*
X368921251Y-68780314D01*
X199254005Y-167869558D02*
X199218554Y-167861095D01*
X199903370Y-168364112D02*
X199884691Y-168332814D01*
X365898365Y-71423525D02*
X365892070Y-71459425D01*
X57361957Y-155149388D02*
X57327372Y-155160892D01*
X197950268Y-168759220D02*
X197946480Y-168795470D01*
X378463785Y-156062892D02*
X378461257Y-156099252D01*
X378647696Y-155554552D02*
X378627414Y-155584835D01*
X240051223Y-169515389D02*
X240028889Y-169544192D01*
X240555602Y-83629237D02*
X240526227Y-83650814D01*
X367635476Y-70845740D02*
X367608082Y-70821698D01*
X381245155Y-159238412D02*
X381098791Y-159333464D01*
X379161198Y-155163470D02*
X379127033Y-155176167D01*
X239201294Y-167836519D02*
X239237740Y-167836835D01*
X58206260Y-155245049D02*
X58174487Y-155227191D01*
X197918110Y-84067480D02*
X197896280Y-84038293D01*
X199920951Y-168396039D02*
X199903370Y-168364112D01*
X238176183Y-168705146D02*
X238183099Y-168669360D01*
X240215028Y-169191823D02*
X240203825Y-169226506D01*
X70641609Y-72452945D02*
X70663440Y-72423758D01*
X378691351Y-155496188D02*
X378669017Y-155524991D01*
X199966903Y-169277750D02*
X199979896Y-169243697D01*
X222854094Y-92201354D02*
X222913747Y-92169517D01*
X58725375Y-156187765D02*
X58726008Y-156151323D01*
X196164867Y-84143605D02*
X196146735Y-84175222D01*
X240112568Y-84467917D02*
X240112568Y-84504364D01*
X68929415Y-72378602D02*
X68949697Y-72408885D01*
X366352583Y-72500229D02*
X366383384Y-72519716D01*
X242212410Y-84486141D02*
X242211778Y-84449699D01*
X198576025Y-169850338D02*
X198609728Y-169864213D01*
X378623773Y-160090234D02*
X378449280Y-160093289D01*
X208543447Y-83394439D02*
X208603596Y-83424254D01*
X241280620Y-83442816D02*
X241244338Y-83439342D01*
X66397388Y-70556708D02*
X66482694Y-70406316D01*
X240241327Y-169085735D02*
X240233790Y-169121395D01*
X70403679Y-70942230D02*
X70373221Y-70922212D01*
X69175651Y-70974209D02*
X69147043Y-70996793D01*
X366831550Y-67983391D02*
X367002938Y-68010366D01*
X238810694Y-169857422D02*
X238777237Y-169842964D01*
X69711751Y-70764317D02*
X69675535Y-70768420D01*
X53740200Y-155260129D02*
X53737350Y-155089379D01*
X69205026Y-72666440D02*
X69235132Y-72686984D01*
X197466217Y-83710759D02*
X197432278Y-83697471D01*
X65998945Y-71512590D02*
X66051439Y-71347850D01*
X242172180Y-84774002D02*
X242181563Y-84738783D01*
X196099068Y-85089825D02*
X196113815Y-85123156D01*
X380454718Y-156611823D02*
X380470042Y-156578754D01*
X57612260Y-155103260D02*
X57575924Y-155106103D01*
X57503656Y-157187081D02*
X57539708Y-157192439D01*
X68797220Y-71539244D02*
X68788451Y-71574620D01*
X380537140Y-155936782D02*
X380528986Y-155901259D01*
X70570229Y-71083356D02*
X70544569Y-71057472D01*
X379994317Y-159848514D02*
X379827424Y-159899543D01*
X229001936Y-83639457D02*
X229054737Y-83598273D01*
X70310313Y-70885405D02*
X70277940Y-70868661D01*
X378873650Y-156989228D02*
X378903025Y-157010805D01*
X196520604Y-85578636D02*
X196552062Y-85597042D01*
X368319618Y-68435444D02*
X368474425Y-68513778D01*
X239274153Y-167838416D02*
X239310490Y-167841260D01*
X196584141Y-85614346D02*
X196616800Y-85630525D01*
X241754255Y-83618834D02*
X241723797Y-83598816D01*
X58109177Y-157107808D02*
X58142113Y-157092198D01*
X56629959Y-156242332D02*
X56633748Y-156278582D01*
X199218554Y-167861095D02*
X199182830Y-167853868D01*
X196184086Y-85250768D02*
X196204368Y-85281051D01*
X241660889Y-83562009D02*
X241628515Y-83545265D01*
X198197366Y-168200755D02*
X198174046Y-168228766D01*
X196584141Y-83749058D02*
X196552062Y-83766361D01*
X366546485Y-72600516D02*
X366580650Y-72613212D01*
X208887513Y-83602610D02*
X208940482Y-83643855D01*
X198151712Y-168257569D02*
X198130391Y-168287130D01*
X367916653Y-71265564D02*
X367903660Y-71231511D01*
X58237394Y-155263998D02*
X58206260Y-155245049D01*
X378516414Y-155813874D02*
X378505212Y-155848557D01*
X196373907Y-85470883D02*
X196401714Y-85494446D01*
X378995390Y-155238561D02*
X378963932Y-155256967D01*
X197799240Y-85433766D02*
X197824900Y-85407882D01*
X383339962Y-156132901D02*
X383300695Y-156302945D01*
X222009969Y-92420114D02*
X222077500Y-92416686D01*
X57130106Y-157048257D02*
X57161565Y-157066663D01*
X56905124Y-155438415D02*
X56880845Y-155465599D01*
X379145125Y-160044597D02*
X378971907Y-160065873D01*
X380438256Y-155663461D02*
X380420675Y-155631534D01*
X238299565Y-169408846D02*
X238281984Y-169376919D01*
X66984204Y-69703412D02*
X67098662Y-69573819D01*
X69675535Y-72850652D02*
X69711751Y-72854756D01*
X378467574Y-156281161D02*
X378472619Y-156317257D01*
X69463199Y-72799967D02*
X69497784Y-72811471D01*
X121061273Y-67944367D02*
X121207027Y-67946469D01*
X196113815Y-85123156D02*
X196129710Y-85155955D01*
X196035585Y-84482446D02*
X196029290Y-84518346D01*
X54464597Y-157688178D02*
X54378408Y-157540749D01*
X196051891Y-84411409D02*
X196043121Y-84446786D01*
X238265521Y-168428557D02*
X238281984Y-168396039D01*
X196552062Y-85597042D02*
X196584141Y-85614346D01*
X229583094Y-83313058D02*
X229646497Y-83291513D01*
X380528986Y-156406544D02*
X380537140Y-156371020D01*
X56813870Y-155551974D02*
X56793588Y-155582257D01*
X68765786Y-71718527D02*
X68763258Y-71754887D01*
X240112044Y-168348382D02*
X240130177Y-168379999D01*
X199358301Y-167902248D02*
X199323921Y-167890147D01*
X380482898Y-159660951D02*
X380322253Y-159729145D01*
X240416733Y-85225374D02*
X240442839Y-85250809D01*
X198510163Y-169819123D02*
X198542823Y-169835302D01*
X69429034Y-72787271D02*
X69463199Y-72799967D01*
X239092197Y-167843154D02*
X239128478Y-167839680D01*
X197075617Y-83631741D02*
X197039171Y-83632058D01*
X365992490Y-71148529D02*
X365976595Y-71181328D01*
X57685120Y-155101362D02*
X57648674Y-155101679D01*
X240918622Y-83464834D02*
X240883323Y-83473910D01*
X366865538Y-70574718D02*
X366829201Y-70577562D01*
X57039825Y-155315996D02*
X57011216Y-155338579D01*
X239724849Y-169801820D02*
X239692771Y-169819123D01*
X70856146Y-71918687D02*
X70859305Y-71882377D01*
X238913792Y-167879245D02*
X238948929Y-167869558D01*
X56436509Y-159530515D02*
X56286255Y-159449352D01*
X380557304Y-156226741D02*
X380559201Y-156190343D01*
X240848359Y-83484206D02*
X240813775Y-83495710D01*
X199920951Y-169376919D02*
X199937413Y-169344401D01*
X208033347Y-83231528D02*
X208099252Y-83244315D01*
X382279392Y-158307191D02*
X382164895Y-158438901D01*
X238170512Y-169031809D02*
X238166095Y-168995630D01*
X56880845Y-156837046D02*
X56905124Y-156864231D01*
X379518946Y-157203862D02*
X379555381Y-157202913D01*
X238711927Y-167962348D02*
X238744301Y-167945604D01*
X200011681Y-169139122D02*
X200019835Y-169103598D01*
X57830356Y-155112729D02*
X57794217Y-155107998D01*
X69603639Y-72838689D02*
X69639483Y-72845295D01*
X240260772Y-83948043D02*
X240242640Y-83979661D01*
X198299930Y-169675661D02*
X198327737Y-169699223D01*
X198055733Y-168412226D02*
X198039838Y-168445025D01*
X58225921Y-160065150D02*
X58056367Y-160044781D01*
X197292531Y-85707086D02*
X197327983Y-85698623D01*
X196616800Y-85630525D02*
X196650002Y-85645561D01*
X366264494Y-70810038D02*
X366236687Y-70833600D01*
X197958668Y-84128037D02*
X197938915Y-84097406D01*
X57467812Y-157180475D02*
X57503656Y-157187081D01*
X215528719Y-92365504D02*
X215594710Y-92380245D01*
X240120151Y-84358881D02*
X240116362Y-84395131D01*
X240260248Y-168904703D02*
X240258983Y-168941129D01*
X197873449Y-84009882D02*
X197849646Y-83982281D01*
X214693963Y-91937958D02*
X214745978Y-91981161D01*
X367969179Y-71477452D02*
X367963509Y-71441448D01*
X380071220Y-157041226D02*
X380101678Y-157021207D01*
X378845042Y-155341157D02*
X378817235Y-155364720D01*
X380160419Y-155329742D02*
X380131423Y-155307658D01*
X58505782Y-156794731D02*
X58527613Y-156765545D01*
X197943951Y-168831830D02*
X197942686Y-168868255D01*
X58326593Y-155327163D02*
X58297597Y-155305080D01*
X68774620Y-71646180D02*
X68769575Y-71682277D01*
X229458629Y-83362454D02*
X229520448Y-83336714D01*
X315487272Y-160169058D02*
X251347326Y-171457448D01*
X367225899Y-72630015D02*
X367260678Y-72619114D01*
X380470042Y-155729049D02*
X380454718Y-155695979D01*
X199643113Y-169710639D02*
X199671325Y-169687562D01*
X199822303Y-169529888D02*
X199844133Y-169500701D01*
X70703998Y-71255871D02*
X70684244Y-71225241D01*
X56857525Y-155493610D02*
X56835191Y-155522413D01*
X70277940Y-72750412D02*
X70310313Y-72733668D01*
X215727998Y-92402995D02*
X215795142Y-92410978D01*
X196184086Y-84112636D02*
X196164867Y-84143605D01*
X315016491Y-68012020D02*
X315160737Y-67988623D01*
X69857382Y-70760525D02*
X69820947Y-70759576D01*
X229646497Y-83291513D02*
X229710586Y-83272102D01*
X240225020Y-169156772D02*
X240215028Y-169191823D01*
X378528814Y-155779601D02*
X378516414Y-155813874D01*
X378472619Y-156317257D02*
X378478913Y-156353157D01*
X383373272Y-155961589D02*
X383339962Y-156132901D01*
X365992490Y-72097034D02*
X366009515Y-72129262D01*
X56629959Y-156060313D02*
X56627431Y-156096673D01*
X222972290Y-92135681D02*
X223029655Y-92099885D01*
X238504215Y-169663521D02*
X238477672Y-169638543D01*
X57039825Y-156986650D02*
X57069199Y-157008226D01*
X58297597Y-155305080D02*
X58267852Y-155284016D01*
X378590063Y-155647421D02*
X378573039Y-155679649D01*
X367459537Y-72529056D02*
X367490672Y-72510106D01*
X69395331Y-72773396D02*
X69429034Y-72787271D01*
X383255517Y-156471516D02*
X383204484Y-156638408D01*
X53922331Y-156438770D02*
X53879125Y-156273552D01*
X238559821Y-168062320D02*
X238588817Y-168040236D01*
X367712426Y-70923360D02*
X367687680Y-70896601D01*
X240233790Y-169121395D02*
X240225020Y-169156772D01*
X55450669Y-158859334D02*
X55323910Y-158744896D01*
X379301638Y-157183054D02*
X379337482Y-157189659D01*
X197977347Y-84159335D02*
X197958668Y-84128037D01*
X240215028Y-168581135D02*
X240225020Y-168616186D01*
X246069534Y-172386479D02*
X191113290Y-172386479D01*
X367928456Y-71945516D02*
X367939055Y-71910643D01*
X238588817Y-169732722D02*
X238559821Y-169710639D01*
X196752454Y-83679768D02*
X196717870Y-83691271D01*
X199074456Y-167839680D02*
X199038076Y-167837467D01*
X367579870Y-70798622D02*
X367550875Y-70776539D01*
X240191426Y-169260780D02*
X240177844Y-169294602D01*
X240181391Y-84111840D02*
X240168991Y-84146114D01*
X69748087Y-72857600D02*
X69784501Y-72859181D01*
X379337482Y-155118143D02*
X379301638Y-155124749D01*
X69820947Y-70759576D02*
X69784501Y-70759892D01*
X197397898Y-83685369D02*
X197363119Y-83674468D01*
X57539708Y-155110207D02*
X57503656Y-155115564D01*
X240177844Y-169294602D02*
X240163096Y-169327933D01*
X380292975Y-155454480D02*
X380268228Y-155427721D01*
X196043121Y-84446786D02*
X196035585Y-84482446D01*
X208992037Y-83686855D02*
X209042120Y-83731562D01*
X379409750Y-157199120D02*
X379446086Y-157201964D01*
X222731730Y-92258891D02*
X222793398Y-92231157D01*
X70570229Y-72535717D02*
X70594976Y-72508958D01*
X56633748Y-156024063D02*
X56629959Y-156060313D01*
X367155311Y-70597398D02*
X367119587Y-70590171D01*
X57539708Y-157192439D02*
X57575924Y-157196542D01*
X241459024Y-85493375D02*
X241493803Y-85482473D01*
X238452012Y-168160299D02*
X238477672Y-168134415D01*
X240242640Y-83979661D02*
X240225615Y-84011888D01*
X199553915Y-167999154D02*
X199522780Y-167980205D01*
X69532747Y-70797306D02*
X69497784Y-70807602D01*
X197688095Y-85527945D02*
X197717090Y-85505861D01*
X222913747Y-92169517D02*
X222972290Y-92135681D01*
X65876044Y-72016311D02*
X65911195Y-71847021D01*
X380242568Y-156905965D02*
X380268228Y-156880081D01*
X68460865Y-68522861D02*
X68615258Y-68445031D01*
X239489494Y-169898709D02*
X239454195Y-169907786D01*
X223438647Y-91748332D02*
X223482653Y-91696994D01*
X240883323Y-85498371D02*
X240918622Y-85507447D01*
X239875198Y-169699223D02*
X239846589Y-169721806D01*
X197849646Y-85381123D02*
X197873449Y-85353521D01*
X196295621Y-83968794D02*
X196271343Y-83995978D01*
X367173286Y-68043272D02*
X367342390Y-68082068D01*
X238337996Y-168302184D02*
X238358801Y-168272257D01*
X365948266Y-71248481D02*
X365935866Y-71282754D01*
X378995390Y-157069242D02*
X379027469Y-157086545D01*
X238162936Y-168959319D02*
X238161039Y-168922921D01*
X383085109Y-156966342D02*
X383016912Y-157126986D01*
X367687680Y-72348962D02*
X367712426Y-72322203D01*
X241135076Y-83436496D02*
X241098663Y-83438077D01*
X228760178Y-83870554D02*
X228805379Y-83821148D01*
X67872919Y-68886074D02*
X68015106Y-68787698D01*
X238191254Y-168633837D02*
X238200636Y-168598617D01*
X380101678Y-157021207D02*
X380131423Y-157000144D01*
X240367248Y-85171864D02*
X240391526Y-85199049D01*
X214643437Y-91893021D02*
X214693963Y-91937958D01*
X57612260Y-157199386D02*
X57648674Y-157200967D01*
X196029290Y-84845058D02*
X196035585Y-84880958D01*
X69040951Y-71096628D02*
X69016672Y-71123813D01*
X56835191Y-156780233D02*
X56857525Y-156809036D01*
X69857382Y-72858548D02*
X69893762Y-72856335D01*
X53783679Y-155770402D02*
X53763378Y-155600840D01*
X380040086Y-157060175D02*
X380071220Y-157041226D01*
X70342087Y-72715810D02*
X70373221Y-72696861D01*
X365935866Y-71282754D02*
X365924663Y-71317438D01*
X199979896Y-168529261D02*
X199966903Y-168495208D01*
X240526227Y-83650814D02*
X240497619Y-83673397D01*
X239092197Y-169929804D02*
X239056058Y-169925073D01*
X367948438Y-71875424D02*
X367956592Y-71839900D01*
X200032422Y-169031809D02*
X200036839Y-168995630D01*
X367969179Y-71768111D02*
X367973596Y-71731932D01*
X56956436Y-156915991D02*
X56983409Y-156940504D01*
X214910363Y-92099885D02*
X214967729Y-92135681D01*
X242181563Y-84233498D02*
X242172180Y-84198279D01*
X70245004Y-70853051D02*
X70211547Y-70838593D01*
X381098791Y-159333464D02*
X380949200Y-159423350D01*
X58075720Y-157122266D02*
X58109177Y-157107808D01*
X197220854Y-83643108D02*
X197184715Y-83638377D01*
X240209720Y-84927594D02*
X240225615Y-84960393D01*
X196271343Y-83995978D02*
X196248023Y-84023989D01*
X240260248Y-168868255D02*
X240260248Y-168904703D01*
X380497201Y-155796684D02*
X380484209Y-155762630D01*
X367903660Y-71231511D02*
X367889494Y-71197929D01*
X200042528Y-168886479D02*
X200041895Y-168850037D01*
X378714671Y-155468178D02*
X378691351Y-155496188D01*
X380268228Y-155427721D02*
X380242568Y-155401837D01*
X58434402Y-155425143D02*
X58408742Y-155399259D01*
X229906245Y-83226883D02*
X315016491Y-68012020D01*
X196650002Y-83717843D02*
X196616800Y-83732879D01*
X241723797Y-85373465D02*
X241754255Y-85353447D01*
X238380632Y-169529888D02*
X238358801Y-169500701D01*
X366792986Y-72663897D02*
X366829201Y-72668001D01*
X70462420Y-72633696D02*
X70490632Y-72610620D01*
X199903370Y-169408846D02*
X199920951Y-169376919D01*
X239164859Y-169935491D02*
X239128478Y-169933278D01*
X68763258Y-71754887D02*
X68761993Y-71791313D01*
X238223038Y-168529261D02*
X238236031Y-168495208D01*
X196024246Y-84808961D02*
X196029290Y-84845058D01*
X196225689Y-84052792D02*
X196204368Y-84082353D01*
X366027647Y-72160879D02*
X366046866Y-72191847D01*
X58715902Y-156005993D02*
X58710231Y-155969989D01*
X238191254Y-169139122D02*
X238183099Y-169103598D01*
X370454419Y-70408605D02*
X370539478Y-70559820D01*
X380242568Y-155401837D02*
X380216025Y-155376859D01*
X54025537Y-156764299D02*
X53971154Y-156602416D01*
X240585708Y-83608693D02*
X240555602Y-83629237D01*
X196035585Y-84880958D02*
X196043121Y-84916618D01*
X378505212Y-156459245D02*
X378516414Y-156493928D01*
X57503656Y-155115564D02*
X57467812Y-155122170D01*
X378495219Y-156424194D02*
X378505212Y-156459245D01*
X58326593Y-156975482D02*
X58354805Y-156952406D01*
X222669160Y-92284524D02*
X222731730Y-92258891D01*
X240233790Y-168651563D02*
X240241327Y-168687223D01*
X370762493Y-71029883D02*
X370825812Y-71191414D01*
X379127033Y-157131635D02*
X379161198Y-157144332D01*
X198072757Y-168379999D02*
X198055733Y-168412226D01*
X240367248Y-83800417D02*
X240343928Y-83828428D01*
X368474425Y-68513778D02*
X368626421Y-68597435D01*
X241969354Y-83814321D02*
X241945551Y-83786719D01*
X56983409Y-155362141D02*
X56956436Y-155386655D01*
X366580650Y-70632351D02*
X366546485Y-70645047D01*
X66769066Y-69974077D02*
X66874295Y-69836884D01*
X56589447Y-159606500D02*
X56436509Y-159530515D01*
X239524457Y-167884545D02*
X239559042Y-167896048D01*
X57685120Y-157201283D02*
X57721555Y-157200334D01*
X198446626Y-167989545D02*
X198415826Y-168009032D01*
X380216025Y-156930943D02*
X380242568Y-156905965D01*
X56739213Y-155677070D02*
X56723317Y-155709869D01*
X242054573Y-83932476D02*
X242034820Y-83901845D01*
X69092263Y-72574204D02*
X69119236Y-72598718D01*
X215146620Y-92231157D02*
X215208288Y-92258891D01*
X366088469Y-70993872D02*
X366067148Y-71023433D01*
X57972622Y-155144089D02*
X57937485Y-155134401D01*
X368921251Y-68780314D02*
X369063730Y-68879315D01*
X239418601Y-167857327D02*
X239454195Y-167865172D01*
X240680046Y-85418784D02*
X240712705Y-85434964D01*
X69329470Y-70876893D02*
X69297392Y-70894196D01*
X199074456Y-169933278D02*
X199110738Y-169929804D01*
X367736229Y-70950962D02*
X367712426Y-70923360D01*
X196966421Y-85726921D02*
X197002758Y-85729765D01*
X69256928Y-68188391D02*
X69422410Y-68138285D01*
X238680154Y-167980205D02*
X238711927Y-167962348D01*
X381527490Y-159033283D02*
X381388113Y-159138311D01*
X199323921Y-169882812D02*
X199358301Y-169870710D01*
X242090833Y-83995700D02*
X242073252Y-83963773D01*
X378505212Y-155848557D02*
X378495219Y-155883608D01*
X197977347Y-85204069D02*
X197994928Y-85172142D01*
X378963932Y-155256967D02*
X378933131Y-155276454D01*
X197292531Y-83656318D02*
X197256807Y-83649091D01*
X240168991Y-84826168D02*
X240181391Y-84860441D01*
X121498043Y-67963415D02*
X121643057Y-67978245D01*
X238984380Y-169911863D02*
X238948929Y-169903401D01*
X240139026Y-84251225D02*
X240131490Y-84286885D01*
X198130391Y-168287130D02*
X198110109Y-168317413D01*
X378449280Y-160093289D02*
X316353934Y-160093375D01*
X198093812Y-84464583D02*
X198085658Y-84429059D01*
X199979896Y-169243697D02*
X199991699Y-169209213D01*
X214967729Y-92135681D02*
X215026272Y-92169517D01*
X70851728Y-71954866D02*
X70856146Y-71918687D01*
X197596757Y-85587976D02*
X197627892Y-85569027D01*
X57467812Y-155122170D02*
X57432219Y-155130016D01*
X241493803Y-83489808D02*
X241459024Y-83478907D01*
X367510047Y-68126708D02*
X367676053Y-68177138D01*
X367225899Y-70615548D02*
X367190763Y-70605860D01*
X371021998Y-71856552D02*
X371056477Y-72026589D01*
X57794217Y-155107998D02*
X57757935Y-155104524D01*
X367978653Y-71586339D02*
X367976756Y-71549941D01*
X241244338Y-85532939D02*
X241280620Y-85529465D01*
X69329470Y-72742180D02*
X69362130Y-72758360D01*
X367119587Y-72655392D02*
X367155311Y-72648166D01*
X238318243Y-169440144D02*
X238299565Y-169408846D01*
X370825812Y-71191414D02*
X370883487Y-71355044D01*
X198246851Y-169625713D02*
X198272957Y-169651147D01*
X70799203Y-72166754D02*
X70811006Y-72132270D01*
X197969144Y-169121395D02*
X197977914Y-169156772D01*
X380131423Y-157000144D02*
X380160419Y-156978061D01*
X196017928Y-84736351D02*
X196020457Y-84772711D01*
X242149778Y-84128923D02*
X242136786Y-84094870D01*
X199991699Y-169209213D02*
X200002298Y-169174341D01*
X70245004Y-72766022D02*
X70277940Y-72750412D01*
X54085417Y-156924231D02*
X54025537Y-156764299D01*
X369720034Y-69444989D02*
X369838970Y-69571304D01*
X238211235Y-168563745D02*
X238223038Y-168529261D01*
X238452012Y-169612659D02*
X238427265Y-169585900D01*
X199254005Y-169903401D02*
X199289142Y-169893713D01*
X365976595Y-71181328D02*
X365961848Y-71214658D01*
X70851728Y-71664207D02*
X70846058Y-71628203D01*
X379195783Y-155151967D02*
X379161198Y-155163470D01*
X215334260Y-92308028D02*
X215398419Y-92329375D01*
X198093812Y-84898821D02*
X198100729Y-84863035D01*
X198151712Y-169515389D02*
X198174046Y-169544192D01*
X366650197Y-72635012D02*
X366685497Y-72644088D01*
X57293208Y-157129057D02*
X57327372Y-157141754D01*
X381922466Y-158689938D02*
X381794830Y-158808959D01*
X53763378Y-155600840D02*
X53748879Y-155430682D01*
X198892444Y-169931698D02*
X198928781Y-169934542D01*
X66573148Y-70258963D02*
X66668644Y-70114826D01*
X241895145Y-83734077D02*
X241868601Y-83709099D01*
X58710231Y-156332656D02*
X58715902Y-156296652D01*
X238504215Y-168109437D02*
X238531609Y-168085396D01*
X198100729Y-84500368D02*
X198093812Y-84464583D01*
X54297304Y-157390463D02*
X54221380Y-157237496D01*
X200019835Y-169103598D02*
X200026752Y-169067813D01*
X381388113Y-159138311D02*
X381245155Y-159238412D01*
X55323910Y-158744896D02*
X55201134Y-158626196D01*
X196683705Y-85659436D02*
X196717870Y-85672133D01*
X196020457Y-84772711D02*
X196024246Y-84808961D01*
X58482952Y-156823142D02*
X58505782Y-156794731D01*
X54555770Y-157832577D02*
X54464597Y-157688178D01*
X379060128Y-157102724D02*
X379093330Y-157117761D01*
X240680046Y-83553497D02*
X240647967Y-83570800D01*
X196894154Y-85717460D02*
X196930206Y-85722818D01*
X366158401Y-72335690D02*
X366183608Y-72362015D01*
X240416733Y-83746907D02*
X240391526Y-83773233D01*
X378817235Y-155364720D02*
X378790262Y-155389233D01*
X251347326Y-171457448D02*
X246069534Y-172386479D01*
X58675179Y-156474057D02*
X58685778Y-156439184D01*
X68993352Y-71151823D02*
X68971018Y-71180626D01*
X209308664Y-84032678D02*
X209346962Y-84087816D01*
X66874295Y-69836884D02*
X66984204Y-69703412D01*
X54378408Y-157540749D02*
X54297304Y-157390463D01*
X196061883Y-84376358D02*
X196051891Y-84411409D01*
X68769575Y-71936796D02*
X68774620Y-71972893D01*
X69362130Y-70860713D02*
X69329470Y-70876893D01*
X69235132Y-70932089D02*
X69205026Y-70952633D01*
X367759060Y-72266190D02*
X367780890Y-72237004D01*
X69497784Y-70807602D02*
X69463199Y-70819106D01*
X240191426Y-168512179D02*
X240203825Y-168546452D01*
X69497784Y-72811471D02*
X69532747Y-72821767D01*
X239626910Y-169850338D02*
X239593206Y-169864213D01*
X57361957Y-157153257D02*
X57396920Y-157163553D01*
X58459149Y-156850744D02*
X58482952Y-156823142D01*
X69297392Y-70894196D02*
X69265933Y-70912602D01*
X197432278Y-85665933D02*
X197466217Y-85652645D01*
X366446921Y-72555425D02*
X366479580Y-72571605D01*
X240131490Y-84685397D02*
X240139026Y-84721057D01*
X379658853Y-159944718D02*
X379488807Y-159983983D01*
X223085778Y-92062171D02*
X223140594Y-92022581D01*
X240225020Y-168616186D02*
X240233790Y-168651563D01*
X379230746Y-157166131D02*
X379266045Y-157175208D01*
X241628515Y-83545265D02*
X241595580Y-83529655D01*
X196271343Y-85367426D02*
X196295621Y-85394610D01*
X239237740Y-167836835D02*
X239274153Y-167838416D01*
X198385720Y-168029576D02*
X198356345Y-168051152D01*
X197532610Y-85622577D02*
X197564984Y-85605833D01*
X120828739Y-160091380D02*
X58737372Y-160091380D01*
X240177844Y-168478356D02*
X240191426Y-168512179D01*
X366486484Y-67947354D02*
X366659330Y-67962379D01*
X367759060Y-70979373D02*
X367736229Y-70950962D01*
X57575924Y-155106103D02*
X57539708Y-155110207D01*
X215208288Y-92258891D02*
X215270859Y-92284524D01*
X367903660Y-72014052D02*
X367916653Y-71979999D01*
X365880708Y-71568132D02*
X365879443Y-71604558D01*
X380292975Y-156853322D02*
X380316777Y-156825721D01*
X200011681Y-168633837D02*
X200002298Y-168598617D01*
X197955313Y-169049835D02*
X197961608Y-169085735D01*
X56682589Y-155811296D02*
X56671386Y-155845979D01*
X378461257Y-156208551D02*
X378463785Y-156244910D01*
X197184715Y-83638377D02*
X197148433Y-83634903D01*
X198748740Y-169907786D02*
X198784333Y-169915632D01*
X242209881Y-84558981D02*
X242211778Y-84522583D01*
X367362455Y-70666296D02*
X367328997Y-70651839D01*
X70618778Y-72481356D02*
X70641609Y-72452945D01*
X380519604Y-156441763D02*
X380528986Y-156406544D01*
X368162186Y-68362529D02*
X368319618Y-68435444D01*
X198415826Y-169763927D02*
X198446626Y-169783414D01*
X240120151Y-84613400D02*
X240125195Y-84649497D01*
X240072544Y-168287130D02*
X240092826Y-168317413D01*
X70861202Y-71773094D02*
X70859305Y-71736696D01*
X380268228Y-156880081D02*
X380292975Y-156853322D01*
X58382199Y-155374281D02*
X58354805Y-155350239D01*
X68772251Y-68372586D02*
X68931654Y-68305612D01*
X367342390Y-68082068D02*
X367510047Y-68126708D01*
X198026714Y-84256849D02*
X198011390Y-84223780D01*
X70856146Y-71700386D02*
X70851728Y-71664207D01*
X378608195Y-156691998D02*
X378627414Y-156722967D01*
X367676053Y-68177138D02*
X367840210Y-68233298D01*
X238299565Y-168364112D02*
X238318243Y-168332814D01*
X382689413Y-157742872D02*
X382594359Y-157889234D01*
X57902033Y-155125939D02*
X57866310Y-155118712D01*
X366322477Y-70765878D02*
X366293102Y-70787455D01*
X198100729Y-84863035D02*
X198106399Y-84827031D01*
X70839141Y-71592418D02*
X70830987Y-71556894D01*
X68859144Y-71368083D02*
X68844397Y-71401413D01*
X65846768Y-72186716D02*
X65876044Y-72016311D01*
X378590063Y-156660381D02*
X378608195Y-156691998D01*
X56756237Y-156657803D02*
X56774369Y-156689420D01*
X240779610Y-85463875D02*
X240813775Y-85476571D01*
X198065676Y-84358968D02*
X198053873Y-84324484D01*
X222476755Y-92348541D02*
X222541599Y-92329375D01*
X58505782Y-155507914D02*
X58482952Y-155479503D01*
X199425698Y-169842964D02*
X199458633Y-169827354D01*
X197112053Y-83632690D02*
X197075617Y-83631741D01*
X239164859Y-167837467D02*
X239201294Y-167836519D01*
X379555381Y-155104890D02*
X379518946Y-155103941D01*
X380339608Y-156797310D02*
X380361439Y-156768123D01*
X378478913Y-155954645D02*
X378472619Y-155990545D01*
X382779302Y-157593282D02*
X382689413Y-157742872D01*
X196248023Y-85339415D02*
X196271343Y-85367426D01*
X58703315Y-155934204D02*
X58695160Y-155898680D01*
X197824900Y-83955522D02*
X197799240Y-83929638D01*
X240321594Y-85115051D02*
X240343928Y-85143854D01*
X68875040Y-71335284D02*
X68859144Y-71368083D01*
X198110109Y-169455545D02*
X198130391Y-169485828D01*
X55715535Y-159074895D02*
X55581261Y-158969377D01*
X197946480Y-168795470D02*
X197943951Y-168831830D01*
X196024246Y-84554443D02*
X196020457Y-84590693D01*
X367155311Y-72648166D02*
X367190763Y-72639703D01*
X197112053Y-85730714D02*
X197148433Y-85728501D01*
X70663440Y-72423758D02*
X70684244Y-72393832D01*
X238380632Y-168243071D02*
X238403462Y-168214660D01*
X58675179Y-155828589D02*
X58663376Y-155794105D01*
X242161581Y-84163407D02*
X242149778Y-84128923D01*
X366615234Y-70620847D02*
X366580650Y-70632351D01*
X215930049Y-92420114D02*
X215997657Y-92421257D01*
X366139750Y-67935335D02*
X366313221Y-67938336D01*
X58382199Y-156928364D02*
X58408742Y-156903387D01*
X238844633Y-167902248D02*
X238879013Y-167890147D01*
X379591761Y-157200700D02*
X379628043Y-157197226D01*
X239787109Y-169763927D02*
X239756308Y-169783414D01*
X68774620Y-71972893D02*
X68780914Y-72008792D01*
X70310313Y-72733668D02*
X70342087Y-72715810D01*
X58604430Y-155660882D02*
X58586849Y-155628955D01*
X196520604Y-83784767D02*
X196489803Y-83804254D01*
X197627892Y-85569027D02*
X197658350Y-85549008D01*
X57757935Y-155104524D02*
X57721555Y-155102311D01*
X367840127Y-72145149D02*
X367857708Y-72113222D01*
X238777237Y-169842964D02*
X238744301Y-169827354D01*
X380188631Y-155352818D02*
X380160419Y-155329742D01*
X379735859Y-157179285D02*
X379771311Y-157170823D01*
X198892444Y-167841260D02*
X198856228Y-167845363D01*
X57388054Y-159905865D02*
X57224428Y-159856977D01*
X229840533Y-83239769D02*
X229906245Y-83226883D01*
X240147201Y-168412226D02*
X240163096Y-168445025D01*
X367427764Y-70698650D02*
X367395390Y-70681906D01*
X198197366Y-169572203D02*
X198221644Y-169599387D01*
X367780890Y-71008560D02*
X367759060Y-70979373D01*
X238358801Y-168272257D02*
X238380632Y-168243071D01*
X196717870Y-83691271D02*
X196683705Y-83703968D01*
X56739213Y-156625575D02*
X56756237Y-156657803D01*
X366009515Y-71116301D02*
X365992490Y-71148529D01*
X197961608Y-168687223D02*
X197955313Y-168723123D01*
X222077500Y-92416686D02*
X222144876Y-92410978D01*
X198011509Y-169260780D02*
X198025090Y-169294602D01*
X378459992Y-156135677D02*
X378459992Y-156172125D01*
X55201134Y-158626196D02*
X55082483Y-158503373D01*
X58482952Y-155479503D02*
X58459149Y-155451901D01*
X378798053Y-160081092D02*
X378623773Y-160090234D01*
X380509004Y-155831167D02*
X380497201Y-155796684D01*
X196346934Y-83917034D02*
X196320828Y-83942468D01*
X365887026Y-71750041D02*
X365892070Y-71786138D01*
X196858310Y-83652549D02*
X196822717Y-83660395D01*
X238879013Y-169882812D02*
X238844633Y-169870710D01*
X121643057Y-67978245D02*
X121787576Y-67997298D01*
X69016672Y-71123813D02*
X68993352Y-71151823D01*
X367011213Y-70575983D02*
X366974833Y-70573770D01*
X68807213Y-72114880D02*
X68818415Y-72149563D01*
X56627431Y-156096673D02*
X56626166Y-156133099D01*
X229520448Y-83336714D02*
X229583094Y-83313058D01*
X367821448Y-71069117D02*
X367801695Y-71038486D01*
X242034820Y-85070436D02*
X242054573Y-85039806D01*
X240343928Y-83828428D02*
X240321594Y-83857231D01*
X56694988Y-155777022D02*
X56682589Y-155811296D01*
X199614117Y-168040236D02*
X199584373Y-168019173D01*
X198011390Y-85139624D02*
X198026714Y-85106554D01*
X380554145Y-156263052D02*
X380557304Y-156226741D01*
X57866310Y-155118712D02*
X57830356Y-155112729D01*
X56956436Y-155386655D02*
X56930331Y-155412089D01*
X367963509Y-71804115D02*
X367969179Y-71768111D01*
X239346706Y-169927595D02*
X239310490Y-169931698D01*
X366615234Y-72624716D02*
X366650197Y-72635012D01*
X215085925Y-92201354D02*
X215146620Y-92231157D01*
X379943003Y-155197416D02*
X379909545Y-155182958D01*
X242211778Y-84449699D02*
X242209881Y-84413300D01*
X240125195Y-84322784D02*
X240120151Y-84358881D01*
X370063342Y-69835930D02*
X370168507Y-69973921D01*
X366685497Y-70601475D02*
X366650197Y-70610551D01*
X241660889Y-85410272D02*
X241692662Y-85392415D01*
X69784501Y-72859181D02*
X69820947Y-72859497D01*
X57011216Y-156964066D02*
X57039825Y-156986650D01*
X197799240Y-83929638D02*
X197772696Y-83904660D01*
X199844133Y-169500701D02*
X199864938Y-169470775D01*
X57866310Y-157183934D02*
X57902033Y-157176707D01*
X70722676Y-71287169D02*
X70703998Y-71255871D01*
X121207027Y-67946469D02*
X121352659Y-67952820D01*
X242172180Y-84198279D02*
X242161581Y-84163407D01*
X69927856Y-68022682D02*
X70098666Y-67995873D01*
X223140594Y-92022581D02*
X223194040Y-91981161D01*
X196146735Y-85188182D02*
X196164867Y-85219799D01*
X58710231Y-155969989D02*
X58703315Y-155934204D01*
X198090890Y-168348382D02*
X198072757Y-168379999D01*
X57432219Y-155130016D02*
X57396920Y-155139092D01*
X200039998Y-168813639D02*
X200036839Y-168777328D01*
X241135076Y-85535785D02*
X241171522Y-85536101D01*
X209226627Y-83926412D02*
X209268537Y-83978857D01*
X241562122Y-85457084D02*
X241595580Y-85442626D01*
X196085486Y-85056002D02*
X196099068Y-85089825D01*
X241207958Y-85535152D02*
X241244338Y-85532939D01*
X378790262Y-156918569D02*
X378817235Y-156943083D01*
X198110816Y-84572551D02*
X198106399Y-84536372D01*
X366158401Y-70909873D02*
X366134123Y-70937058D01*
X208164690Y-83259307D02*
X208229589Y-83276486D01*
X198965194Y-167836835D02*
X198928781Y-167838416D01*
X378461257Y-156099252D02*
X378459992Y-156135677D01*
X69119236Y-72598718D02*
X69147043Y-72622280D01*
X57161565Y-155235982D02*
X57130106Y-155254388D01*
X239846589Y-168051152D02*
X239875198Y-168073735D01*
X69147043Y-72622280D02*
X69175651Y-72644863D01*
X242206722Y-84595291D02*
X242209881Y-84558981D01*
X197363119Y-85688936D02*
X197397898Y-85678034D01*
X366414842Y-70707441D02*
X366383384Y-70725847D01*
X58726008Y-156151323D02*
X58725375Y-156114881D01*
X315596713Y-67943849D02*
X315742704Y-67937438D01*
X367362455Y-72579267D02*
X367395390Y-72563657D01*
X199001640Y-167836519D02*
X198965194Y-167836835D01*
X240112568Y-84504364D02*
X240113833Y-84540790D01*
X199182830Y-167853868D02*
X199146877Y-167847886D01*
X379027469Y-157086545D02*
X379060128Y-157102724D01*
X69966183Y-72848130D02*
X70002136Y-72842147D01*
X366046866Y-72191847D02*
X366067148Y-72222131D01*
X380322253Y-159729145D02*
X380159327Y-159791691D01*
X69040951Y-72522444D02*
X69066158Y-72548770D01*
X199966903Y-168495208D02*
X199952737Y-168461627D01*
X57293208Y-155173589D02*
X57259504Y-155187463D01*
X378903025Y-157010805D02*
X378933131Y-157031349D01*
X228805379Y-83821148D02*
X228852209Y-83773282D01*
X197397898Y-85678034D02*
X197432278Y-85665933D01*
X378486450Y-156388817D02*
X378495219Y-156424194D01*
X366383384Y-70725847D02*
X366352583Y-70745334D01*
X198085658Y-84429059D02*
X198076275Y-84393840D01*
X200002298Y-168598617D02*
X199991699Y-168563745D01*
X378817235Y-156943083D02*
X378845042Y-156966645D01*
X240130177Y-168379999D02*
X240147201Y-168412226D01*
X240883323Y-83473910D02*
X240848359Y-83484206D01*
X70615224Y-67951070D02*
X70788100Y-67948069D01*
X197039171Y-83632058D02*
X197002758Y-83633639D01*
X196017928Y-84627052D02*
X196016663Y-84663478D01*
X238211235Y-169209213D02*
X238200636Y-169174341D01*
X240092826Y-169455545D02*
X240072544Y-169485828D01*
X198356345Y-169721806D02*
X198385720Y-169743383D01*
X367956592Y-71839900D02*
X367963509Y-71804115D01*
X196061883Y-84987046D02*
X196073086Y-85021729D01*
X196683705Y-83703968D02*
X196650002Y-83717843D01*
X69429034Y-70831802D02*
X69395331Y-70845677D01*
X57757935Y-157198122D02*
X57794217Y-157194647D01*
X68993352Y-72467249D02*
X69016672Y-72495260D01*
X70442556Y-67960045D02*
X70615224Y-67951070D01*
X199991699Y-168563745D02*
X199979896Y-168529261D01*
X239056058Y-167847886D02*
X239092197Y-167843154D01*
X208420316Y-83340946D02*
X208482330Y-83366659D01*
X242189717Y-84703259D02*
X242196634Y-84667474D01*
X240116362Y-84577150D02*
X240120151Y-84613400D01*
X208833190Y-83563165D02*
X208887513Y-83602610D01*
X369596787Y-69322876D02*
X369720034Y-69444989D01*
X57648674Y-155101679D02*
X57612260Y-155103260D01*
X196346934Y-85446370D02*
X196373907Y-85470883D01*
X239237740Y-169936123D02*
X239201294Y-169936440D01*
X70490632Y-72610620D02*
X70518026Y-72586578D01*
X57396920Y-155139092D02*
X57361957Y-155149388D01*
X366829201Y-72668001D02*
X366865538Y-72670845D01*
X240442839Y-83721472D02*
X240416733Y-83746907D01*
X366352583Y-70745334D02*
X366322477Y-70765878D01*
X222278857Y-92392747D02*
X222345309Y-92380245D01*
X368626421Y-68597435D02*
X368775422Y-68686316D01*
X238559821Y-169710639D02*
X238531609Y-169687562D01*
X367736229Y-72294601D02*
X367759060Y-72266190D01*
X241423888Y-85503062D02*
X241459024Y-85493375D01*
X68818415Y-71469509D02*
X68807213Y-71504193D01*
X379700135Y-155121290D02*
X379664182Y-155115308D01*
X196051891Y-84951995D02*
X196061883Y-84987046D01*
X70211547Y-70838593D02*
X70177607Y-70825306D01*
X239981290Y-169599387D02*
X239956083Y-169625713D01*
X366901951Y-72672426D02*
X366938397Y-72672742D01*
X379317495Y-160017289D02*
X379145125Y-160044597D01*
X367083634Y-70584188D02*
X367047495Y-70579457D01*
X383204484Y-156638408D02*
X383147658Y-156803417D01*
X197220854Y-85720295D02*
X197256807Y-85714313D01*
X70821605Y-72097398D02*
X70830987Y-72062179D01*
X197824900Y-85407882D02*
X197849646Y-85381123D01*
X69395331Y-70845677D02*
X69362130Y-70860713D01*
X57553255Y-159949136D02*
X57388054Y-159905865D01*
X58725375Y-156114881D02*
X58723478Y-156078482D01*
X229337748Y-83420067D02*
X229397706Y-83390248D01*
X369337958Y-69091842D02*
X369469377Y-69205114D01*
X68910196Y-72347634D02*
X68929415Y-72378602D01*
X366479580Y-70673958D02*
X366446921Y-70690138D01*
X70859305Y-71882377D02*
X70861202Y-71845978D01*
X240469812Y-85275322D02*
X240497619Y-85298884D01*
X367973596Y-71513631D02*
X367969179Y-71477452D01*
X378557143Y-156595355D02*
X378573039Y-156628154D01*
X58685778Y-156439184D02*
X58695160Y-156403965D01*
X209042120Y-83731562D02*
X209090674Y-83777924D01*
X367119587Y-70590171D02*
X367083634Y-70584188D01*
X196459697Y-83824798D02*
X196430322Y-83846375D01*
X240092826Y-168317413D02*
X240112044Y-168348382D01*
X199864938Y-169470775D02*
X199884691Y-169440144D01*
X380361439Y-155539679D02*
X380339608Y-155510493D01*
X380008312Y-155229770D02*
X379975938Y-155213026D01*
X198510163Y-167953835D02*
X198478085Y-167971139D01*
X241316759Y-85524734D02*
X241352712Y-85518751D01*
X228634845Y-84027458D02*
X228674863Y-83973767D01*
X58720319Y-156260473D02*
X58723478Y-156224163D01*
X378669017Y-156782811D02*
X378691351Y-156811614D01*
X379482499Y-157203545D02*
X379518946Y-157203862D01*
X69603639Y-70780384D02*
X69568046Y-70788230D01*
X196016663Y-84663478D02*
X196016663Y-84699926D01*
X58650383Y-155760052D02*
X58636216Y-155726470D01*
X367260678Y-72619114D02*
X367295058Y-72607012D01*
X70073312Y-72826458D02*
X70108449Y-72816770D01*
X68892064Y-72316016D02*
X68910196Y-72347634D01*
X379093330Y-157117761D02*
X379127033Y-157131635D01*
X208357474Y-83317329D02*
X208420316Y-83340946D01*
X238744301Y-169827354D02*
X238711927Y-169810610D01*
X367889494Y-72047634D02*
X367903660Y-72014052D01*
X367840210Y-68233298D02*
X368002319Y-68295120D01*
X197999109Y-169226506D02*
X198011509Y-169260780D01*
X380549727Y-156008572D02*
X380544057Y-155972568D01*
X198174046Y-169544192D02*
X198197366Y-169572203D01*
X197745302Y-83880619D02*
X197717090Y-83857542D01*
X366322477Y-72479685D02*
X366352583Y-72500229D01*
X57902033Y-157176707D02*
X57937485Y-157168244D01*
X366110803Y-72280495D02*
X366134123Y-72308505D01*
X378573039Y-156628154D02*
X378590063Y-156660381D01*
X365879443Y-71641005D02*
X365880708Y-71677431D01*
X380537140Y-156371020D02*
X380544057Y-156335235D01*
X365976595Y-72064235D02*
X365992490Y-72097034D01*
X58548417Y-156735618D02*
X58568171Y-156704988D01*
X240497619Y-85298884D02*
X240526227Y-85321468D01*
X197002758Y-85729765D02*
X197039171Y-85731346D01*
X378542396Y-156562024D02*
X378557143Y-156595355D01*
X367821448Y-72176446D02*
X367840127Y-72145149D01*
X198965194Y-169936123D02*
X199001640Y-169936440D01*
X241812995Y-83661981D02*
X241784000Y-83639898D01*
X66668644Y-70114826D02*
X66769066Y-69974077D01*
X70002136Y-72842147D02*
X70037860Y-72834920D01*
X198643893Y-169876910D02*
X198678477Y-169888413D01*
X378738949Y-155440993D02*
X378714671Y-155468178D01*
X238250198Y-169311332D02*
X238236031Y-169277750D01*
X199725262Y-169638543D02*
X199750923Y-169612659D01*
X367963509Y-71441448D02*
X367956592Y-71405663D01*
X380159327Y-159791691D02*
X379994317Y-159848514D01*
X198415826Y-168009032D02*
X198385720Y-168029576D01*
X68788451Y-72044452D02*
X68797220Y-72079829D01*
X57193643Y-155218679D02*
X57161565Y-155235982D01*
X198713440Y-169898709D02*
X198748740Y-169907786D01*
X56645087Y-156350579D02*
X56652624Y-156386239D01*
X240168991Y-84146114D02*
X240157788Y-84180797D01*
X68844397Y-72217659D02*
X68859144Y-72250990D01*
X197432278Y-83697471D02*
X197397898Y-83685369D01*
X366974833Y-72671793D02*
X367011213Y-72669580D01*
X240147796Y-84756433D02*
X240157788Y-84791484D01*
X366546485Y-70645047D02*
X366512782Y-70658922D01*
X198011390Y-84223780D02*
X197994928Y-84191262D01*
X197849646Y-83982281D02*
X197824900Y-83955522D01*
X240300273Y-85085490D02*
X240321594Y-85115051D01*
X198115873Y-84645260D02*
X198113976Y-84608862D01*
X378495219Y-155883608D02*
X378486450Y-155918985D01*
X198542823Y-167937656D02*
X198510163Y-167953835D01*
X238200636Y-169174341D02*
X238191254Y-169139122D01*
X68160609Y-68694298D02*
X68309255Y-68605983D01*
X67217532Y-69448262D02*
X67340673Y-69326889D01*
X69205026Y-70952633D02*
X69175651Y-70974209D01*
X53737350Y-155089379D02*
X65846768Y-72186716D01*
X198110109Y-168317413D02*
X198090890Y-168348382D01*
X240116362Y-84395131D02*
X240113833Y-84431491D01*
X199522780Y-167980205D02*
X199491007Y-167962348D01*
X242073252Y-83963773D02*
X242054573Y-83932476D01*
X197256807Y-83649091D02*
X197220854Y-83643108D01*
X382943151Y-157285151D02*
X382863915Y-157440647D01*
X56638793Y-156314679D02*
X56645087Y-156350579D01*
X229710586Y-83272102D02*
X229775289Y-83254848D01*
X367916653Y-71979999D02*
X367928456Y-71945516D01*
X197946480Y-168977488D02*
X197950268Y-169013738D01*
X242136786Y-84094870D02*
X242122619Y-84061288D01*
X366134123Y-72308505D02*
X366158401Y-72335690D01*
X69711751Y-72854756D02*
X69748087Y-72857600D01*
X380071220Y-155266576D02*
X380040086Y-155247627D01*
X379337482Y-157189659D02*
X379373534Y-157195017D01*
X198356345Y-168051152D02*
X198327737Y-168073735D01*
X68761993Y-71827760D02*
X68763258Y-71864186D01*
X196373907Y-83892520D02*
X196346934Y-83917034D01*
X198478085Y-167971139D02*
X198446626Y-167989545D01*
X69235132Y-72686984D02*
X69265933Y-72706471D01*
X238649020Y-169773804D02*
X238618562Y-169753785D01*
X58620892Y-155693400D02*
X58604430Y-155660882D01*
X68763258Y-71864186D02*
X68765786Y-71900546D01*
X197873449Y-85353521D02*
X197896280Y-85325110D01*
X196822717Y-85703009D02*
X196858310Y-85710854D01*
X366512782Y-72586641D02*
X366546485Y-72600516D01*
X57937485Y-157168244D02*
X57972622Y-157158557D01*
X70861835Y-71809536D02*
X70861202Y-71773094D01*
X366865538Y-72670845D02*
X366901951Y-72672426D01*
X69016672Y-72495260D02*
X69040951Y-72522444D01*
X199725262Y-168134415D02*
X199698719Y-168109437D01*
X198272957Y-168121811D02*
X198246851Y-168147246D01*
X199584373Y-168019173D02*
X199553915Y-167999154D01*
X198025090Y-169294602D02*
X198039838Y-169327933D01*
X198085658Y-84934344D02*
X198093812Y-84898821D01*
X197969144Y-168651563D02*
X197961608Y-168687223D01*
X367976756Y-71549941D02*
X367973596Y-71513631D01*
X58568171Y-155597658D02*
X58548417Y-155567027D01*
X57719837Y-159986741D02*
X57553255Y-159949136D01*
X56774369Y-155613225D02*
X56756237Y-155644843D01*
X121352659Y-67952820D02*
X121498043Y-67963415D01*
X239817215Y-168029576D02*
X239846589Y-168051152D01*
X199643113Y-168062320D02*
X199614117Y-168040236D01*
X369202688Y-68983199D02*
X369337958Y-69091842D01*
X380497201Y-156511119D02*
X380509004Y-156476635D01*
X228950542Y-83682386D02*
X229001936Y-83639457D01*
X240469812Y-83696959D02*
X240442839Y-83721472D01*
X241841207Y-83685057D02*
X241812995Y-83661981D01*
X240497619Y-83673397D02*
X240469812Y-83696959D01*
X68765786Y-71900546D02*
X68769575Y-71936796D01*
X199884691Y-169440144D02*
X199903370Y-169408846D01*
X383016912Y-157126986D02*
X382943151Y-157285151D01*
X365924663Y-71928125D02*
X365935866Y-71962809D01*
X239201294Y-169936440D02*
X239164859Y-169935491D01*
X380101678Y-155286595D02*
X380071220Y-155266576D01*
X54221380Y-157237496D02*
X54150723Y-157082024D01*
X198748740Y-167865172D02*
X198713440Y-167874249D01*
X58695160Y-155898680D02*
X58685778Y-155863461D01*
X54651822Y-157973779D02*
X54555770Y-157832577D01*
X242122619Y-84910993D02*
X242136786Y-84877411D01*
X57721555Y-157200334D02*
X57757935Y-157198122D01*
X199822303Y-168243071D02*
X199799472Y-168214660D01*
X378933131Y-155276454D02*
X378903025Y-155296998D01*
X196401714Y-85494446D02*
X196430322Y-85517029D01*
X121787576Y-67997298D02*
X121931479Y-68020558D01*
X69066158Y-72548770D02*
X69092263Y-72574204D01*
X68931654Y-68305612D02*
X69093277Y-68244189D01*
X366313221Y-67938336D02*
X366486484Y-67947354D01*
X368002319Y-68295120D02*
X368162186Y-68362529D01*
X197327983Y-85698623D02*
X197363119Y-85688936D01*
X199146877Y-169925073D02*
X199182830Y-169919090D01*
X198130391Y-169485828D02*
X198151712Y-169515389D01*
X242202304Y-84340811D02*
X242196634Y-84304807D01*
X197002758Y-83633639D02*
X196966421Y-83636483D01*
X238588817Y-168040236D02*
X238618562Y-168019173D01*
X197994928Y-84191262D02*
X197977347Y-84159335D01*
X208099252Y-83244315D02*
X208164690Y-83259307D01*
X241062327Y-85531360D02*
X241098663Y-85534204D01*
X53971154Y-156602416D02*
X53922331Y-156438770D01*
X365898365Y-71822038D02*
X365905901Y-71857697D01*
X196073086Y-85021729D02*
X196085486Y-85056002D01*
X378971907Y-160065873D02*
X378798053Y-160081092D01*
X366209714Y-72387450D02*
X366236687Y-72411963D01*
X239056058Y-169925073D02*
X239020104Y-169919090D01*
X238183099Y-168669360D02*
X238191254Y-168633837D01*
X238618562Y-168019173D02*
X238649020Y-167999154D01*
X367973596Y-71731932D02*
X367976756Y-71695622D01*
X70002136Y-70776926D02*
X69966183Y-70770943D01*
X238649020Y-167999154D02*
X238680154Y-167980205D01*
X238223038Y-169243697D02*
X238211235Y-169209213D01*
X196020457Y-84590693D02*
X196017928Y-84627052D01*
X381663118Y-158923454D02*
X381527490Y-159033283D01*
X58408742Y-156903387D02*
X58434402Y-156877503D01*
X365914671Y-71352489D02*
X365905901Y-71387866D01*
X370168507Y-69973921D02*
X370268821Y-70115479D01*
X240745907Y-85450000D02*
X240779610Y-85463875D01*
X240242640Y-84992621D02*
X240260772Y-85024238D01*
X241493803Y-85482473D02*
X241528183Y-85470371D01*
X197987906Y-169191823D02*
X197999109Y-169226506D01*
X68949697Y-71210187D02*
X68929415Y-71240470D01*
X367956592Y-71405663D02*
X367948438Y-71370139D01*
X380216025Y-155376859D02*
X380188631Y-155352818D01*
X367889494Y-71197929D02*
X367874170Y-71164859D01*
X379518946Y-155103941D02*
X379482499Y-155104257D01*
X196616800Y-83732879D02*
X196584141Y-83749058D01*
X198784333Y-169915632D02*
X198820177Y-169922237D01*
X239559042Y-169876910D02*
X239524457Y-169888413D01*
X70544569Y-71057472D02*
X70518026Y-71032495D01*
X58434402Y-156877503D02*
X58459149Y-156850744D01*
X240209720Y-84044687D02*
X240194973Y-84078018D01*
X240343928Y-85143854D02*
X240367248Y-85171864D01*
X240712705Y-85434964D02*
X240745907Y-85450000D01*
X199110738Y-169929804D02*
X199146877Y-169925073D01*
X198076275Y-84969564D02*
X198085658Y-84934344D01*
X199884691Y-168332814D02*
X199864938Y-168302184D01*
X196320828Y-83942468D02*
X196295621Y-83968794D01*
X56902658Y-159742587D02*
X56744890Y-159677218D01*
X242196634Y-84304807D02*
X242189717Y-84269022D01*
X199750923Y-168160299D02*
X199725262Y-168134415D01*
X241945551Y-83786719D02*
X241920805Y-83759960D01*
X69265933Y-72706471D02*
X69297392Y-72724877D01*
X379628043Y-157197226D02*
X379664182Y-157192495D01*
X57226303Y-155202499D02*
X57193643Y-155218679D01*
X239756308Y-167989545D02*
X239787109Y-168009032D01*
X229054737Y-83598273D02*
X229108888Y-83558880D01*
X54752639Y-158111618D02*
X54651822Y-157973779D01*
X214547087Y-91798154D02*
X214594460Y-91846402D01*
X239956083Y-169625713D02*
X239929977Y-169651147D01*
X238236031Y-169277750D02*
X238223038Y-169243697D01*
X197466217Y-85652645D02*
X197499675Y-85638187D01*
X196248023Y-84023989D02*
X196225689Y-84052792D01*
X200036839Y-168995630D02*
X200039998Y-168959319D01*
X56723317Y-156592777D02*
X56739213Y-156625575D01*
X54968095Y-158376569D02*
X54858104Y-158245934D01*
X239454195Y-167865172D02*
X239489494Y-167874249D01*
X58636216Y-155726470D02*
X58620892Y-155693400D01*
X370539478Y-70559820D02*
X370619241Y-70713896D01*
X208293874Y-83295834D02*
X208357474Y-83317329D01*
X58586849Y-155628955D02*
X58568171Y-155597658D01*
X380361439Y-156768123D02*
X380382243Y-156738197D01*
X239020104Y-169919090D02*
X238984380Y-169911863D01*
X70799203Y-71452319D02*
X70786210Y-71418266D01*
X367550875Y-72469024D02*
X367579870Y-72446941D01*
X380484209Y-156545172D02*
X380497201Y-156511119D01*
X379771311Y-157170823D02*
X379806447Y-157161135D01*
X238744301Y-167945604D02*
X238777237Y-167929994D01*
X53879125Y-156273552D02*
X53841586Y-156106955D01*
X367979285Y-71622782D02*
X367978653Y-71586339D01*
X57327372Y-157141754D02*
X57361957Y-157153257D01*
X370268821Y-70115479D02*
X370364163Y-70260431D01*
X199698719Y-168109437D02*
X199671325Y-168085396D01*
X198299930Y-168097298D02*
X198272957Y-168121811D01*
X58408742Y-155399259D02*
X58382199Y-155374281D01*
X240147201Y-169360732D02*
X240130177Y-169392959D01*
X197958668Y-85235367D02*
X197977347Y-85204069D01*
X378573039Y-155679649D02*
X378557143Y-155712447D01*
X379735859Y-155128517D02*
X379700135Y-155121290D01*
X366236687Y-70833600D02*
X366209714Y-70858113D01*
X67734219Y-68989308D02*
X67872919Y-68886074D01*
X240130177Y-169392959D02*
X240112044Y-169424576D01*
X229220993Y-83485641D02*
X229278822Y-83451877D01*
X199698719Y-169663521D02*
X199725262Y-169638543D01*
X58174487Y-157075454D02*
X58206260Y-157057597D01*
X380339608Y-155510493D02*
X380316777Y-155482082D01*
X239660111Y-167937656D02*
X239692771Y-167953835D01*
X369953452Y-69701670D02*
X370063342Y-69835930D01*
X378627414Y-155584835D02*
X378608195Y-155615804D01*
X367662020Y-72374846D02*
X367687680Y-72348962D01*
X69893762Y-72856335D02*
X69930044Y-72852861D01*
X58237394Y-157038647D02*
X58267852Y-157018629D01*
X238477672Y-169638543D02*
X238452012Y-169612659D01*
X69066158Y-71070303D02*
X69040951Y-71096628D01*
X197994928Y-85172142D02*
X198011390Y-85139624D01*
X370935451Y-71520577D02*
X370981639Y-71687814D01*
X70663440Y-71195314D02*
X70641609Y-71166128D01*
X70544569Y-72561600D02*
X70570229Y-72535717D01*
X58548417Y-155567027D02*
X58527613Y-155537101D01*
X197596757Y-83775428D02*
X197564984Y-83757571D01*
X57161565Y-157066663D02*
X57193643Y-157083966D01*
X199038076Y-169935491D02*
X199074456Y-169933278D01*
X197148433Y-83634903D02*
X197112053Y-83632690D01*
X197999109Y-168546452D02*
X197987906Y-168581135D01*
X242054573Y-85039806D02*
X242073252Y-85008508D01*
X58267852Y-157018629D02*
X58297597Y-156997565D01*
X240072544Y-169485828D02*
X240051223Y-169515389D01*
X56627431Y-156205972D02*
X56629959Y-156242332D01*
X239274153Y-169934542D02*
X239237740Y-169936123D01*
X366756934Y-72658540D02*
X366792986Y-72663897D01*
X239956083Y-168147246D02*
X239981290Y-168173571D01*
X379060128Y-155205078D02*
X379027469Y-155221257D01*
X366183608Y-70883548D02*
X366158401Y-70909873D01*
X57937485Y-155134401D02*
X57902033Y-155125939D01*
X379975938Y-157094776D02*
X380008312Y-157078033D01*
X238265521Y-169344401D02*
X238250198Y-169311332D01*
X198385720Y-169743383D02*
X198415826Y-169763927D01*
X57062566Y-159802530D02*
X56902658Y-159742587D01*
X367260678Y-70626449D02*
X367225899Y-70615548D01*
X208603596Y-83424254D02*
X208662711Y-83456071D01*
X70788100Y-67948069D02*
X121061273Y-67944367D01*
X196858310Y-85710854D02*
X196894154Y-85717460D01*
X378764157Y-155414668D02*
X378738949Y-155440993D01*
X239524457Y-169888413D02*
X239489494Y-169898709D01*
X366383384Y-72519716D02*
X366414842Y-72538122D01*
X197772696Y-83904660D02*
X197745302Y-83880619D01*
X238166095Y-168777328D02*
X238170512Y-168741150D01*
X382494255Y-158032190D02*
X382389224Y-158171566D01*
X367190763Y-72639703D02*
X367225899Y-72630015D01*
X70830987Y-72062179D02*
X70839141Y-72026655D01*
X238810694Y-167915536D02*
X238844633Y-167902248D01*
X241388436Y-83460757D02*
X241352712Y-83453530D01*
X379266045Y-157175208D02*
X379301638Y-157183054D01*
X222345309Y-92380245D02*
X222411300Y-92365504D01*
X239817215Y-169743383D02*
X239787109Y-169763927D01*
X380641065Y-159587193D02*
X380482898Y-159660951D01*
X70037860Y-70784152D02*
X70002136Y-70776926D01*
X240256455Y-168795470D02*
X240258983Y-168831830D01*
X366580650Y-72613212D02*
X366615234Y-72624716D01*
X58297597Y-156997565D02*
X58326593Y-156975482D01*
X367295058Y-72607012D02*
X367328997Y-72593725D01*
X378542396Y-155745778D02*
X378528814Y-155779601D01*
X366479580Y-72571605D02*
X366512782Y-72586641D01*
X366183608Y-72362015D02*
X366209714Y-72387450D01*
X68929415Y-71240470D02*
X68910196Y-71271439D01*
X370693609Y-70870647D02*
X370762493Y-71029883D01*
X240647967Y-85401481D02*
X240680046Y-85418784D01*
X199671325Y-168085396D02*
X199643113Y-168062320D01*
X379700135Y-157186512D02*
X379735859Y-157179285D01*
X68971018Y-72438446D02*
X68993352Y-72467249D01*
X198928781Y-169934542D02*
X198965194Y-169936123D01*
X378486450Y-155918985D02*
X378478913Y-155954645D01*
X239929977Y-169651147D02*
X239903005Y-169675661D01*
X208720725Y-83489855D02*
X208777573Y-83525566D01*
X199110738Y-167843154D02*
X199074456Y-167839680D01*
X229108888Y-83558880D02*
X229164328Y-83521322D01*
X200026752Y-168705146D02*
X200019835Y-168669360D01*
X369063730Y-68879315D02*
X369202688Y-68983199D01*
X58075720Y-155180380D02*
X58041781Y-155167092D01*
X367948438Y-71370139D02*
X367939055Y-71334920D01*
X366110803Y-70965068D02*
X366088469Y-70993872D01*
X57259504Y-157115182D02*
X57293208Y-157129057D01*
X383300695Y-156302945D02*
X383255517Y-156471516D01*
X315888820Y-67935297D02*
X366139750Y-67935335D01*
X223296581Y-91893021D02*
X223345558Y-91846402D01*
X58620892Y-156609245D02*
X58636216Y-156576175D01*
X366414842Y-72538122D02*
X366446921Y-72555425D01*
X70811006Y-72132270D02*
X70821605Y-72097398D01*
X239593206Y-167908745D02*
X239626910Y-167922620D01*
X380484209Y-155762630D02*
X380470042Y-155729049D01*
X196966421Y-83636483D02*
X196930206Y-83640586D01*
X58715902Y-156296652D02*
X58720319Y-156260473D01*
X199584373Y-169753785D02*
X199614117Y-169732722D01*
X316353934Y-160093375D02*
X315487272Y-160169058D01*
X367928456Y-71300047D02*
X367916653Y-71265564D01*
X199146877Y-167847886D02*
X199110738Y-167843154D01*
X239489494Y-167874249D02*
X239524457Y-167884545D01*
X238161039Y-168850037D02*
X238162936Y-168813639D01*
X241723797Y-83598816D02*
X241692662Y-83579867D01*
X379841226Y-157150234D02*
X379875606Y-157138132D01*
X228900614Y-83727010D02*
X228950542Y-83682386D01*
X383449289Y-155093375D02*
X383446230Y-155267868D01*
X315305605Y-67969452D02*
X315450972Y-67954523D01*
X67599171Y-69097275D02*
X67734219Y-68989308D01*
X238403462Y-169558299D02*
X238380632Y-169529888D01*
X200019835Y-168669360D02*
X200011681Y-168633837D01*
X241784000Y-85332383D02*
X241812995Y-85310300D01*
X241595580Y-85442626D02*
X241628515Y-85427016D01*
X57327372Y-155160892D02*
X57293208Y-155173589D01*
X378714671Y-156839625D02*
X378738949Y-156866809D01*
X380454718Y-155695979D02*
X380438256Y-155663461D01*
X240113833Y-84431491D02*
X240112568Y-84467917D01*
X240194973Y-84894264D02*
X240209720Y-84927594D01*
X240112044Y-169424576D02*
X240092826Y-169455545D01*
X196016663Y-84699926D02*
X196017928Y-84736351D01*
X121695546Y-160167089D02*
X120828739Y-160091380D01*
X367780890Y-72237004D02*
X367801695Y-72207077D01*
X198678477Y-169888413D02*
X198713440Y-169898709D01*
X69589525Y-68093931D02*
X69758075Y-68055381D01*
X70772043Y-72234389D02*
X70786210Y-72200807D01*
X197184715Y-85725027D02*
X197220854Y-85720295D01*
X240252666Y-168759220D02*
X240256455Y-168795470D01*
X56723317Y-155709869D02*
X56708570Y-155743200D01*
X238711927Y-169810610D02*
X238680154Y-169792753D01*
X380549727Y-156299231D02*
X380554145Y-156263052D01*
X57575924Y-157196542D02*
X57612260Y-157199386D01*
X70861202Y-71845978D02*
X70861835Y-71809536D01*
X367083634Y-72661375D02*
X367119587Y-72655392D01*
X379093330Y-155190042D02*
X379060128Y-155205078D01*
X55853334Y-159175767D02*
X55715535Y-159074895D01*
X70143228Y-70813204D02*
X70108449Y-70802302D01*
X239660111Y-169835302D02*
X239626910Y-169850338D01*
X69758075Y-68055381D02*
X69927856Y-68022682D01*
X379975938Y-155213026D02*
X379943003Y-155197416D01*
X197987906Y-168581135D02*
X197977914Y-168616186D01*
X380401997Y-155600236D02*
X380382243Y-155569606D01*
X378516414Y-156493928D02*
X378528814Y-156528202D01*
X223246056Y-91937958D02*
X223296581Y-91893021D01*
X56930331Y-156890556D02*
X56956436Y-156915991D01*
X223603914Y-91534471D02*
X228596646Y-84082458D01*
X208777573Y-83525566D02*
X208833190Y-83563165D01*
X238948929Y-169903401D02*
X238913792Y-169893713D01*
X238200636Y-168598617D02*
X238211235Y-168563745D01*
X228852209Y-83773282D02*
X228900614Y-83727010D01*
X239310490Y-169931698D02*
X239274153Y-169934542D01*
X238913792Y-169893713D02*
X238879013Y-169882812D01*
X379161198Y-157144332D02*
X379195783Y-157155835D01*
X58737372Y-160091380D02*
X58566623Y-160088462D01*
X240813775Y-83495710D02*
X240779610Y-83508406D01*
X196164867Y-85219799D02*
X196184086Y-85250768D01*
X380509004Y-156476635D02*
X380519604Y-156441763D01*
X197075617Y-85731662D02*
X197112053Y-85730714D01*
X198542823Y-169835302D02*
X198576025Y-169850338D01*
X378528814Y-156528202D02*
X378542396Y-156562024D01*
X222793398Y-92231157D02*
X222854094Y-92201354D01*
X380519604Y-155866040D02*
X380509004Y-155831167D01*
X238477672Y-168134415D02*
X238504215Y-168109437D01*
X239626910Y-167922620D02*
X239660111Y-167937656D01*
X240139026Y-84721057D02*
X240147796Y-84756433D01*
X378463785Y-156244910D02*
X378467574Y-156281161D01*
X58056367Y-160044781D02*
X57887606Y-160018635D01*
X197717090Y-85505861D02*
X197745302Y-85482785D01*
X240300273Y-83886792D02*
X240279991Y-83917075D01*
X54150723Y-157082024D02*
X54085417Y-156924231D01*
X70641609Y-71166128D02*
X70618778Y-71137717D01*
X242181563Y-84738783D02*
X242189717Y-84703259D01*
X214374686Y-91590002D02*
X214415121Y-91644197D01*
X198446626Y-169783414D02*
X198478085Y-169801820D01*
X239787109Y-168009032D02*
X239817215Y-168029576D01*
X199289142Y-169893713D02*
X199323921Y-169882812D01*
X378963932Y-157050836D02*
X378995390Y-157069242D01*
X197942686Y-168868255D02*
X197942686Y-168904703D01*
X196752454Y-85683636D02*
X196787417Y-85693932D01*
X370981639Y-71687814D02*
X371021998Y-71856552D01*
X380401997Y-156707566D02*
X380420675Y-156676268D01*
X240131490Y-84286885D02*
X240125195Y-84322784D01*
X366264494Y-72435525D02*
X366293102Y-72458108D01*
X242209881Y-84413300D02*
X242206722Y-84376990D01*
X196099068Y-84273579D02*
X196085486Y-84307401D01*
X241528183Y-83501910D02*
X241493803Y-83489808D01*
X241920805Y-85212321D02*
X241945551Y-85185562D01*
X197955313Y-168723123D02*
X197950268Y-168759220D01*
X197896280Y-85325110D02*
X197918110Y-85295924D01*
X70618778Y-71137717D02*
X70594976Y-71110115D01*
X379591761Y-155107102D02*
X379555381Y-155104890D01*
X240712705Y-83537317D02*
X240680046Y-83553497D01*
X366659330Y-67962379D02*
X366831550Y-67983391D01*
X241062327Y-83440921D02*
X241026111Y-83445025D01*
X198039838Y-168445025D02*
X198025090Y-168478356D01*
X242107295Y-84028218D02*
X242090833Y-83995700D01*
X380559833Y-156153901D02*
X380559201Y-156117459D01*
X208229589Y-83276486D02*
X208293874Y-83295834D01*
X56744890Y-159677218D02*
X56589447Y-159606500D01*
X215270859Y-92284524D02*
X215334260Y-92308028D01*
X239418601Y-169915632D02*
X239382757Y-169922237D01*
X380470042Y-156578754D02*
X380484209Y-156545172D01*
X379943003Y-157110387D02*
X379975938Y-157094776D01*
X198025090Y-168478356D02*
X198011509Y-168512179D01*
X238844633Y-169870710D02*
X238810694Y-169857422D01*
X240616509Y-85383075D02*
X240647967Y-85401481D01*
X70373221Y-72696861D02*
X70403679Y-72676843D01*
X199218554Y-169911863D02*
X199254005Y-169903401D01*
X58041781Y-157135553D02*
X58075720Y-157122266D01*
X378627414Y-156722967D02*
X378647696Y-156753250D01*
X242196634Y-84667474D02*
X242202304Y-84631470D01*
X365924663Y-71317438D02*
X365914671Y-71352489D01*
X380420675Y-155631534D02*
X380401997Y-155600236D01*
X239903005Y-169675661D02*
X239875198Y-169699223D01*
X197938915Y-85265997D02*
X197958668Y-85235367D01*
X198065676Y-85004436D02*
X198076275Y-84969564D01*
X240954215Y-85515293D02*
X240990059Y-85521899D01*
X69784501Y-70759892D02*
X69748087Y-70761473D01*
X58142113Y-155210447D02*
X58109177Y-155194837D01*
X68797220Y-72079829D02*
X68807213Y-72114880D01*
X239875198Y-168073735D02*
X239903005Y-168097298D01*
X222144876Y-92410978D02*
X222212021Y-92402995D01*
X56671386Y-156456667D02*
X56682589Y-156491350D01*
X222541599Y-92329375D02*
X222605759Y-92308028D01*
X367840127Y-71100414D02*
X367821448Y-71069117D01*
X241562122Y-83515198D02*
X241528183Y-83501910D01*
X70277940Y-70868661D02*
X70245004Y-70853051D01*
X239382757Y-169922237D02*
X239346706Y-169927595D01*
X58604430Y-156641763D02*
X58620892Y-156609245D01*
X367427764Y-72546913D02*
X367459537Y-72529056D01*
X370883487Y-71355044D02*
X370935451Y-71520577D01*
X365883237Y-71713791D02*
X365887026Y-71750041D01*
X68910196Y-71271439D02*
X68892064Y-71303056D01*
X196552062Y-83766361D02*
X196520604Y-83784767D01*
X240181391Y-84860441D02*
X240194973Y-84894264D01*
X196459697Y-85538605D02*
X196489803Y-85559149D01*
X68892064Y-71303056D02*
X68875040Y-71335284D01*
X223482653Y-91696994D02*
X223524897Y-91644197D01*
X229775289Y-83254848D02*
X229840533Y-83239769D01*
X66051439Y-71347850D02*
X66109598Y-71185024D01*
X197942686Y-168904703D02*
X197943951Y-168941129D01*
X70722676Y-72331904D02*
X70740257Y-72299977D01*
X240113833Y-84540790D02*
X240116362Y-84577150D01*
X69119236Y-71020355D02*
X69092263Y-71044868D01*
X370619241Y-70713896D02*
X370693609Y-70870647D01*
X196225689Y-85310612D02*
X196248023Y-85339415D01*
X197918110Y-85295924D02*
X197938915Y-85265997D01*
X70684244Y-72393832D02*
X70703998Y-72363201D01*
X57224428Y-159856977D02*
X57062566Y-159802530D01*
X240258983Y-168831830D02*
X240260248Y-168868255D01*
X239929977Y-168121811D02*
X239956083Y-168147246D01*
X56905124Y-156864231D02*
X56930331Y-156890556D01*
X238281984Y-169376919D02*
X238265521Y-169344401D01*
X228596646Y-84082458D02*
X228634845Y-84027458D01*
X367521130Y-72490088D02*
X367550875Y-72469024D01*
X379841226Y-155157569D02*
X379806447Y-155146667D01*
X367395390Y-72563657D02*
X367427764Y-72546913D01*
X240005568Y-168200755D02*
X240028889Y-168228766D01*
X378472619Y-155990545D02*
X378467574Y-156026642D01*
X380382243Y-155569606D02*
X380361439Y-155539679D01*
X198820177Y-167850721D02*
X198784333Y-167857327D01*
X70342087Y-70903262D02*
X70310313Y-70885405D01*
X198053873Y-84324484D02*
X198040880Y-84290431D01*
X198246851Y-168147246D02*
X198221644Y-168173571D01*
X197327983Y-83664780D02*
X197292531Y-83656318D01*
X197532610Y-83740827D02*
X197499675Y-83725217D01*
X198110816Y-84790853D02*
X198113976Y-84754542D01*
X58041781Y-155167092D02*
X58007401Y-155154990D01*
X198174046Y-168228766D02*
X198151712Y-168257569D01*
X56756237Y-155644843D02*
X56739213Y-155677070D01*
X198076275Y-84393840D02*
X198065676Y-84358968D01*
X240125195Y-84649497D02*
X240131490Y-84685397D01*
X56694988Y-156525623D02*
X56708570Y-156559446D01*
X378669017Y-155524991D02*
X378647696Y-155554552D01*
X365905901Y-71387866D02*
X365898365Y-71423525D01*
X70177607Y-70825306D02*
X70143228Y-70813204D01*
X242206722Y-84376990D02*
X242202304Y-84340811D01*
X199775669Y-169585900D02*
X199799472Y-169558299D01*
X198053873Y-85038920D02*
X198065676Y-85004436D01*
X199799472Y-168214660D02*
X199775669Y-168187058D01*
X383147658Y-156803417D02*
X383085109Y-156966342D01*
X58267852Y-155284016D02*
X58237394Y-155263998D01*
X239310490Y-167841260D02*
X239346706Y-167845363D01*
X240279991Y-83917075D02*
X240260772Y-83948043D01*
X239756308Y-169783414D02*
X239724849Y-169801820D01*
X240585708Y-85363588D02*
X240616509Y-85383075D01*
X198106399Y-84827031D02*
X198110816Y-84790853D01*
X240241327Y-168687223D02*
X240247621Y-168723123D01*
X214799425Y-92022581D02*
X214854240Y-92062171D01*
X69463199Y-70819106D02*
X69429034Y-70831802D01*
X198678477Y-167884545D02*
X198643893Y-167896048D01*
X240745907Y-83522281D02*
X240712705Y-83537317D01*
X241754255Y-85353447D02*
X241784000Y-85332383D01*
X240990059Y-85521899D02*
X241026111Y-85527257D01*
X69639483Y-70773778D02*
X69603639Y-70780384D01*
X365880708Y-71677431D02*
X365883237Y-71713791D01*
X196029290Y-84518346D02*
X196024246Y-84554443D01*
X239903005Y-168097298D02*
X239929977Y-168121811D01*
X197977914Y-169156772D02*
X197987906Y-169191823D01*
X241812995Y-85310300D02*
X241841207Y-85287224D01*
X196113815Y-84240248D02*
X196099068Y-84273579D01*
X67340673Y-69326889D02*
X67467937Y-69209847D01*
X366067148Y-72222131D02*
X366088469Y-72251691D01*
X69568046Y-72830843D02*
X69603639Y-72838689D01*
X315160737Y-67988623D02*
X315305605Y-67969452D01*
X198090890Y-169424576D02*
X198110109Y-169455545D01*
X223392932Y-91798154D02*
X223438647Y-91748332D01*
X241423888Y-83469219D02*
X241388436Y-83460757D01*
X378557143Y-155712447D02*
X378542396Y-155745778D01*
X382863915Y-157440647D02*
X382779302Y-157593282D01*
X366446921Y-70690138D02*
X366414842Y-70707441D01*
X66482694Y-70406316D02*
X66573148Y-70258963D01*
X68309255Y-68605983D02*
X68460865Y-68522861D01*
X70108449Y-72816770D02*
X70143228Y-72805869D01*
X367328997Y-72593725D02*
X367362455Y-72579267D01*
X197499675Y-85638187D02*
X197532610Y-85622577D01*
X380188631Y-156954984D02*
X380216025Y-156930943D01*
X366974833Y-70573770D02*
X366938397Y-70572821D01*
X197896280Y-84038293D02*
X197873449Y-84009882D01*
X57011216Y-155338579D02*
X56983409Y-155362141D01*
X238358801Y-169500701D02*
X238337996Y-169470775D01*
X58527613Y-155537101D02*
X58505782Y-155507914D01*
X215026272Y-92169517D02*
X215085925Y-92201354D01*
X239692771Y-167953835D02*
X239724849Y-167971139D01*
X378790262Y-155389233D02*
X378764157Y-155414668D01*
X382045871Y-158566535D02*
X381922466Y-158689938D01*
X197717090Y-83857542D02*
X197688095Y-83835459D01*
X199323921Y-167890147D02*
X199289142Y-167879245D01*
X56626166Y-156169546D02*
X56627431Y-156205972D01*
X198040880Y-84290431D02*
X198026714Y-84256849D01*
X223524897Y-91644197D02*
X223565333Y-91590002D01*
X367857708Y-71132341D02*
X367840127Y-71100414D01*
X69748087Y-70761473D02*
X69711751Y-70764317D01*
X367712426Y-72322203D02*
X367736229Y-72294601D01*
X199937413Y-168428557D02*
X199920951Y-168396039D01*
X365883237Y-71531772D02*
X365880708Y-71568132D01*
X367687680Y-70896601D02*
X367662020Y-70870717D01*
X240252666Y-169013738D02*
X240247621Y-169049835D01*
X58527613Y-156765545D02*
X58548417Y-156735618D01*
X198221644Y-168173571D02*
X198197366Y-168200755D01*
X238879013Y-167890147D02*
X238913792Y-167879245D01*
X229164328Y-83521322D02*
X229220993Y-83485641D01*
X68830815Y-72183837D02*
X68844397Y-72217659D01*
X57130106Y-155254388D02*
X57099305Y-155273875D01*
X199844133Y-168272257D02*
X199822303Y-168243071D01*
X242189717Y-84269022D02*
X242181563Y-84233498D01*
X240147796Y-84215848D02*
X240139026Y-84251225D01*
X365879443Y-71604558D02*
X365879443Y-71641005D01*
X238281984Y-168396039D02*
X238299565Y-168364112D01*
X198221644Y-169599387D02*
X198246851Y-169625713D01*
X209346962Y-84087816D02*
X214336105Y-91534471D01*
X380796562Y-159507960D02*
X380641065Y-159587193D01*
X197950268Y-169013738D02*
X197955313Y-169049835D01*
X198039838Y-169327933D02*
X198055733Y-169360732D01*
X58586849Y-156673690D02*
X58604430Y-156641763D01*
X369838970Y-69571304D02*
X369953452Y-69701670D01*
X70098666Y-67995873D02*
X70270301Y-67974986D01*
X242122619Y-84061288D02*
X242107295Y-84028218D01*
X56661394Y-156421615D02*
X56671386Y-156456667D01*
X68761993Y-71791313D02*
X68761993Y-71827760D01*
X239559042Y-167896048D02*
X239593206Y-167908745D01*
X240225615Y-84960393D02*
X240242640Y-84992621D01*
X70518026Y-71032495D02*
X70490632Y-71008453D01*
X367490672Y-72510106D02*
X367521130Y-72490088D01*
X68788451Y-71574620D02*
X68780914Y-71610280D01*
X196489803Y-85559149D02*
X196520604Y-85578636D01*
X367608082Y-72423865D02*
X367635476Y-72399823D01*
X55082483Y-158503373D02*
X54968095Y-158376569D01*
X369469377Y-69205114D02*
X369596787Y-69322876D01*
X383421863Y-155616003D02*
X383400583Y-155789220D01*
X382389224Y-158171566D02*
X382279392Y-158307191D01*
X367939055Y-71334920D02*
X367928456Y-71300047D01*
X366027647Y-71084684D02*
X366009515Y-71116301D01*
X199799472Y-169558299D02*
X199822303Y-169529888D01*
X69675535Y-70768420D02*
X69639483Y-70773778D01*
X215661161Y-92392747D02*
X215727998Y-92402995D01*
X199671325Y-169687562D02*
X199698719Y-169663521D01*
X58650383Y-156542593D02*
X58663376Y-156508540D01*
X222605759Y-92308028D02*
X222669160Y-92284524D01*
X379827424Y-159899543D02*
X379658853Y-159944718D01*
X229278822Y-83451877D02*
X229337748Y-83420067D01*
X238403462Y-168214660D02*
X238427265Y-168187058D01*
X56793588Y-155582257D02*
X56774369Y-155613225D01*
X370364163Y-70260431D02*
X370454419Y-70408605D01*
X69175651Y-72644863D02*
X69205026Y-72666440D01*
X238161039Y-168922921D02*
X238160406Y-168886479D01*
X58695160Y-156403965D02*
X58703315Y-156368441D01*
X238618562Y-169753785D02*
X238588817Y-169732722D01*
X57721555Y-155102311D02*
X57685120Y-155101362D01*
X379664182Y-155115308D02*
X379628043Y-155110576D01*
X56880845Y-155465599D02*
X56857525Y-155493610D01*
X382164895Y-158438901D02*
X382045871Y-158566535D01*
X240163096Y-169327933D02*
X240147201Y-169360732D01*
X70846058Y-71628203D02*
X70839141Y-71592418D01*
X367939055Y-71910643D02*
X367948438Y-71875424D01*
X241098663Y-83438077D02*
X241062327Y-83440921D01*
X70756719Y-71351614D02*
X70740257Y-71319096D01*
X196787417Y-83669472D02*
X196752454Y-83679768D01*
X70373221Y-70922212D02*
X70342087Y-70903262D01*
X241895145Y-85238205D02*
X241920805Y-85212321D01*
X70433424Y-70963294D02*
X70403679Y-70942230D01*
X198576025Y-167922620D02*
X198542823Y-167937656D01*
X380559201Y-156190343D02*
X380559833Y-156153901D01*
X69362130Y-72758360D02*
X69395331Y-72773396D01*
X380316777Y-156825721D02*
X380339608Y-156797310D01*
X56626166Y-156133099D02*
X56626166Y-156169546D01*
X58723478Y-156224163D02*
X58725375Y-156187765D01*
X70433424Y-72655779D02*
X70462420Y-72633696D01*
X196204368Y-84082353D02*
X196184086Y-84112636D01*
X57193643Y-157083966D02*
X57226303Y-157100146D01*
X198856228Y-167845363D02*
X198820177Y-167850721D01*
X200036839Y-168777328D02*
X200032422Y-168741150D01*
X209268537Y-83978857D02*
X209308664Y-84032678D01*
X53841586Y-156106955D02*
X53809759Y-155939173D01*
X70108449Y-70802302D02*
X70073312Y-70792615D01*
X238250198Y-168461627D02*
X238265521Y-168428557D01*
X367490672Y-70735457D02*
X367459537Y-70716508D01*
X66173352Y-71024305D02*
X66242624Y-70865888D01*
X366650197Y-70610551D02*
X366615234Y-70620847D01*
X379875606Y-157138132D02*
X379909545Y-157124844D01*
X66242624Y-70865888D02*
X66317333Y-70709960D01*
X70786210Y-71418266D02*
X70772043Y-71384684D01*
X238183099Y-169103598D02*
X238176183Y-169067813D01*
X70811006Y-71486802D02*
X70799203Y-71452319D01*
X240194973Y-84078018D02*
X240181391Y-84111840D01*
X214415121Y-91644197D02*
X214457366Y-91696994D01*
X198713440Y-167874249D02*
X198678477Y-167884545D01*
X240203825Y-169226506D02*
X240191426Y-169260780D01*
X69966183Y-70770943D02*
X69930044Y-70766212D01*
X198478085Y-169801820D02*
X198510163Y-169819123D01*
X199937413Y-169344401D02*
X199952737Y-169311332D01*
X367521130Y-70755475D02*
X367490672Y-70735457D01*
X199458633Y-167945604D02*
X199425698Y-167929994D01*
X68780914Y-71610280D02*
X68774620Y-71646180D01*
X228674863Y-83973767D02*
X228716657Y-83921447D01*
X58396073Y-160079716D02*
X58225921Y-160065150D01*
X69568046Y-70788230D02*
X69532747Y-70797306D01*
X366792986Y-70581666D02*
X366756934Y-70587023D01*
X215398419Y-92329375D02*
X215463263Y-92348541D01*
X240918622Y-85507447D02*
X240954215Y-85515293D01*
X198026714Y-85106554D02*
X198040880Y-85072973D01*
X383437085Y-155442148D02*
X383421863Y-155616003D01*
X198609728Y-169864213D02*
X198643893Y-169876910D01*
X196430322Y-83846375D02*
X196401714Y-83868958D01*
X56138861Y-159363104D02*
X55994498Y-159271874D01*
X196401714Y-83868958D02*
X196373907Y-83892520D01*
X196043121Y-84916618D02*
X196051891Y-84951995D01*
X199952737Y-168461627D02*
X199937413Y-168428557D01*
X57226303Y-157100146D02*
X57259504Y-157115182D01*
X69093277Y-68244189D02*
X69256928Y-68188391D01*
X241388436Y-85511525D02*
X241423888Y-85503062D01*
X382594359Y-157889234D02*
X382494255Y-158032190D01*
X239981290Y-168173571D02*
X240005568Y-168200755D01*
X198856228Y-169927595D02*
X198892444Y-169931698D01*
X240526227Y-85321468D02*
X240555602Y-85343044D01*
X366293102Y-72458108D02*
X366322477Y-72479685D01*
X380554145Y-156044750D02*
X380549727Y-156008572D01*
X215795142Y-92410978D02*
X215862518Y-92416686D01*
X214336105Y-91534471D02*
X214374686Y-91590002D01*
X197363119Y-83674468D02*
X197327983Y-83664780D01*
X70073312Y-70792615D02*
X70037860Y-70784152D01*
X199458633Y-169827354D02*
X199491007Y-169810610D01*
X196146735Y-84175222D02*
X196129710Y-84207449D01*
X241098663Y-85534204D02*
X241135076Y-85535785D01*
X379875606Y-155169670D02*
X379841226Y-155157569D01*
X68818415Y-72149563D02*
X68830815Y-72183837D01*
X199750923Y-169612659D02*
X199775669Y-169585900D01*
X378467574Y-156026642D02*
X378463785Y-156062892D01*
X57830356Y-157189916D02*
X57866310Y-157183934D01*
X56857525Y-156809036D02*
X56880845Y-156837046D01*
X57099305Y-157028770D02*
X57130106Y-157048257D01*
X196717870Y-85672133D02*
X196752454Y-85683636D01*
X54858104Y-158245934D02*
X54752639Y-158111618D01*
X57069199Y-155294419D02*
X57039825Y-155315996D01*
X200026752Y-169067813D02*
X200032422Y-169031809D01*
X70594976Y-71110115D02*
X70570229Y-71083356D01*
X240813775Y-85476571D02*
X240848359Y-85488075D01*
X366236687Y-72411963D02*
X366264494Y-72435525D01*
X53809759Y-155939173D02*
X53783679Y-155770402D01*
X196930206Y-83640586D02*
X196894154Y-83645944D01*
X380544057Y-155972568D02*
X380537140Y-155936782D01*
X57069199Y-157008226D02*
X57099305Y-157028770D01*
X378459992Y-156172125D02*
X378461257Y-156208551D01*
X58566623Y-160088462D02*
X58396073Y-160079716D01*
X240990059Y-83450382D02*
X240954215Y-83456988D01*
X315450972Y-67954523D02*
X315596713Y-67943849D01*
X241207958Y-83437129D02*
X241171522Y-83436180D01*
X367874170Y-72080704D02*
X367889494Y-72047634D01*
X238236031Y-168495208D02*
X238250198Y-168461627D01*
X366829201Y-70577562D02*
X366792986Y-70581666D01*
X239382757Y-167850721D02*
X239418601Y-167857327D01*
X238427265Y-168187058D02*
X238452012Y-168160299D01*
X366293102Y-70787455D02*
X366264494Y-70810038D01*
X366938397Y-70572821D02*
X366901951Y-70573137D01*
X365948266Y-71997082D02*
X365961848Y-72030905D01*
X380008312Y-157078033D02*
X380040086Y-157060175D01*
X315742704Y-67937438D02*
X315888820Y-67935297D01*
X70703998Y-72363201D02*
X70722676Y-72331904D01*
X240157788Y-84791484D02*
X240168991Y-84826168D01*
X240616509Y-83589206D02*
X240585708Y-83608693D01*
X197772696Y-85458744D02*
X197799240Y-85433766D01*
X241459024Y-83478907D02*
X241423888Y-83469219D01*
X56708570Y-155743200D02*
X56694988Y-155777022D01*
X239724849Y-167971139D02*
X239756308Y-167989545D01*
X379771311Y-155136980D02*
X379735859Y-155128517D01*
X198115873Y-84718144D02*
X198116505Y-84681702D01*
X197977914Y-168616186D02*
X197969144Y-168651563D01*
X198106399Y-84536372D02*
X198100729Y-84500368D01*
X379806447Y-155146667D02*
X379771311Y-155136980D01*
X238777237Y-167929994D02*
X238810694Y-167915536D01*
X383446230Y-155267868D02*
X383437085Y-155442148D01*
X196085486Y-84307401D02*
X196073086Y-84341675D01*
X240647967Y-83570800D02*
X240616509Y-83589206D01*
X240260772Y-85024238D02*
X240279991Y-85055207D01*
X241026111Y-83445025D02*
X240990059Y-83450382D01*
X239020104Y-167853868D02*
X239056058Y-167847886D01*
X379373534Y-155112785D02*
X379337482Y-155118143D01*
X199425698Y-167929994D02*
X199392240Y-167915536D01*
X208940482Y-83643855D02*
X208992037Y-83686855D01*
X68015106Y-68787698D02*
X68160609Y-68694298D01*
X197148433Y-85728501D02*
X197184715Y-85725027D01*
X55581261Y-158969377D02*
X55450669Y-158859334D01*
X200039998Y-168959319D02*
X200041895Y-168922921D01*
X365935866Y-71962809D02*
X365948266Y-71997082D01*
X70821605Y-71521675D02*
X70811006Y-71486802D01*
X70270301Y-67974986D02*
X70442556Y-67960045D01*
X378478913Y-156353157D02*
X378486450Y-156388817D01*
X197039171Y-85731346D02*
X197075617Y-85731662D01*
X58636216Y-156576175D02*
X58650383Y-156542593D01*
X367295058Y-70638551D02*
X367260678Y-70626449D01*
X229397706Y-83390248D02*
X229458629Y-83362454D01*
X198928781Y-167838416D02*
X198892444Y-167841260D01*
X196822717Y-83660395D02*
X196787417Y-83669472D01*
X239454195Y-169907786D02*
X239418601Y-169915632D01*
X70594976Y-72508958D02*
X70618778Y-72481356D01*
X380544057Y-156335235D02*
X380549727Y-156299231D01*
X209090674Y-83777924D02*
X209137645Y-83825889D01*
X240163096Y-168445025D02*
X240177844Y-168478356D01*
X365887026Y-71495522D02*
X365883237Y-71531772D01*
X241784000Y-83639898D02*
X241754255Y-83618834D01*
X70740257Y-71319096D02*
X70722676Y-71287169D01*
X379482499Y-155104257D02*
X379446086Y-155105838D01*
X199491007Y-169810610D02*
X199522780Y-169792753D01*
X367857708Y-72113222D02*
X367874170Y-72080704D01*
X240779610Y-83508406D02*
X240745907Y-83522281D01*
X69532747Y-72821767D02*
X69568046Y-72830843D01*
X215594710Y-92380245D02*
X215661161Y-92392747D01*
X56645087Y-155952067D02*
X56638793Y-155987967D01*
X69265933Y-70912602D02*
X69235132Y-70932089D01*
X365914671Y-71893074D02*
X365924663Y-71928125D01*
X241026111Y-85527257D02*
X241062327Y-85531360D01*
X371085036Y-72197720D02*
X383449289Y-155093375D01*
X367395390Y-70681906D02*
X367362455Y-70666296D01*
X241628515Y-85427016D02*
X241660889Y-85410272D01*
X199491007Y-167962348D02*
X199458633Y-167945604D01*
X366009515Y-72129262D02*
X366027647Y-72160879D01*
X380160419Y-156978061D02*
X380188631Y-156954984D01*
X222212021Y-92402995D02*
X222278857Y-92392747D01*
X196320828Y-85420935D02*
X196346934Y-85446370D01*
X67098662Y-69573819D02*
X67217532Y-69448262D01*
X198040880Y-85072973D02*
X198053873Y-85038920D01*
X198113976Y-84608862D02*
X198110816Y-84572551D01*
X379301638Y-155124749D02*
X379266045Y-155132595D01*
X238166095Y-168995630D02*
X238162936Y-168959319D01*
X380131423Y-155307658D02*
X380101678Y-155286595D01*
X367190763Y-70605860D02*
X367155311Y-70597398D01*
X58663376Y-155794105D02*
X58650383Y-155760052D01*
X367662020Y-70870717D02*
X367635476Y-70845740D01*
X196073086Y-84341675D02*
X196061883Y-84376358D01*
X240157788Y-84180797D02*
X240147796Y-84215848D01*
X200002298Y-169174341D02*
X200011681Y-169139122D01*
X240555602Y-85343044D02*
X240585708Y-85363588D01*
X69820947Y-72859497D02*
X69857382Y-72858548D01*
X199522780Y-169792753D02*
X199553915Y-169773804D01*
X367874170Y-71164859D02*
X367857708Y-71132341D01*
X68615258Y-68445031D02*
X68772251Y-68372586D01*
X198820177Y-169922237D02*
X198856228Y-169927595D01*
X239128478Y-167839680D02*
X239164859Y-167837467D01*
X69930044Y-72852861D02*
X69966183Y-72848130D01*
X240954215Y-83456988D02*
X240918622Y-83464834D01*
X199553915Y-169773804D02*
X199584373Y-169753785D01*
X380040086Y-155247627D02*
X380008312Y-155229770D01*
X240247621Y-169049835D02*
X240241327Y-169085735D01*
X197564984Y-85605833D02*
X197596757Y-85587976D01*
X68769575Y-71682277D02*
X68765786Y-71718527D01*
X379488807Y-159983983D02*
X379317495Y-160017289D01*
X65952179Y-71679047D02*
X65998945Y-71512590D01*
X58685778Y-155863461D02*
X58675179Y-155828589D01*
X367002938Y-68010366D02*
X367173286Y-68043272D01*
X379373534Y-157195017D02*
X379409750Y-157199120D01*
X196894154Y-83645944D02*
X196858310Y-83652549D01*
X242034820Y-83901845D02*
X242014015Y-83871919D01*
X198011509Y-168512179D02*
X197999109Y-168546452D01*
X198327737Y-169699223D02*
X198356345Y-169721806D01*
X223345558Y-91846402D02*
X223392932Y-91798154D01*
X240391526Y-85199049D02*
X240416733Y-85225374D01*
X367976756Y-71695622D02*
X367978653Y-71659224D01*
X58459149Y-155451901D02*
X58434402Y-155425143D01*
X367459537Y-70716508D02*
X367427764Y-70698650D01*
X241992185Y-85129549D02*
X242014015Y-85100363D01*
X70037860Y-72834920D02*
X70073312Y-72826458D01*
X367608082Y-70821698D02*
X367579870Y-70798622D01*
X68971018Y-71180626D02*
X68949697Y-71210187D01*
X58174487Y-155227191D02*
X58142113Y-155210447D01*
X197938915Y-84097406D02*
X197918110Y-84067480D01*
X58354805Y-155350239D02*
X58326593Y-155327163D01*
X378764157Y-156893135D02*
X378790262Y-156918569D01*
X378691351Y-156811614D02*
X378714671Y-156839625D01*
X367978653Y-71659224D02*
X367979285Y-71622782D01*
X239692771Y-169819123D02*
X239660111Y-169835302D01*
X378647696Y-156753250D02*
X378669017Y-156782811D01*
X379909545Y-155182958D02*
X379875606Y-155169670D01*
X367011213Y-72669580D02*
X367047495Y-72666106D01*
X196787417Y-85693932D02*
X196822717Y-85703009D01*
X241528183Y-85470371D02*
X241562122Y-85457084D01*
X198609728Y-167908745D02*
X198576025Y-167922620D01*
X240247621Y-168723123D02*
X240252666Y-168759220D01*
X198113976Y-84754542D02*
X198115873Y-84718144D01*
X240321594Y-83857231D02*
X240300273Y-83886792D01*
X199614117Y-169732722D02*
X199643113Y-169710639D01*
X58007401Y-155154990D02*
X57972622Y-155144089D01*
X367047495Y-72666106D02*
X367083634Y-72661375D01*
X367635476Y-72399823D02*
X367662020Y-72374846D01*
X197961608Y-169085735D02*
X197969144Y-169121395D01*
X366512782Y-70658922D02*
X366479580Y-70673958D01*
X197564984Y-83757571D02*
X197532610Y-83740827D01*
X68875040Y-72283789D02*
X68892064Y-72316016D01*
X69422410Y-68138285D02*
X69589525Y-68093931D01*
X223029655Y-92099885D02*
X223085778Y-92062171D01*
X241841207Y-85287224D02*
X241868601Y-85263182D01*
X367550875Y-70776539D02*
X367521130Y-70755475D01*
X58720319Y-156042172D02*
X58715902Y-156005993D01*
X241692662Y-83579867D02*
X241660889Y-83562009D01*
X222411300Y-92365504D02*
X222476755Y-92348541D01*
X58109177Y-155194837D02*
X58075720Y-155180380D01*
X198643893Y-167896048D02*
X198609728Y-167908745D01*
X240391526Y-83773233D02*
X240367248Y-83800417D01*
X70859305Y-71736696D02*
X70856146Y-71700386D01*
X57794217Y-157194647D02*
X57830356Y-157189916D01*
X208662711Y-83456071D02*
X208720725Y-83489855D01*
X242014015Y-83871919D02*
X241992185Y-83842732D01*
X197499675Y-83725217D02*
X197466217Y-83710759D01*
X366938397Y-72672742D02*
X366974833Y-72671793D01*
X379446086Y-157201964D02*
X379482499Y-157203545D01*
X196204368Y-85281051D02*
X196225689Y-85310612D01*
X215862518Y-92416686D02*
X215930049Y-92420114D01*
X380420675Y-156676268D02*
X380438256Y-156644341D01*
X66317333Y-70709960D02*
X66397388Y-70556708D01*
X198055733Y-169360732D02*
X198072757Y-169392959D01*
X198272957Y-169651147D02*
X198299930Y-169675661D01*
X365905901Y-71857697D02*
X365914671Y-71893074D01*
X214745978Y-91981161D02*
X214799425Y-92022581D01*
X378608195Y-155615804D02*
X378590063Y-155647421D01*
X238337996Y-169470775D02*
X238318243Y-169440144D01*
X199864938Y-168302184D02*
X199844133Y-168272257D01*
X241969354Y-85157960D02*
X241992185Y-85129549D01*
X58723478Y-156078482D02*
X58720319Y-156042172D01*
X380382243Y-156738197D02*
X380401997Y-156707566D01*
X66109598Y-71185024D02*
X66173352Y-71024305D01*
X197658350Y-83814396D02*
X197627892Y-83794377D01*
X379555381Y-157202913D02*
X379591761Y-157200700D01*
X238160406Y-168886479D02*
X238161039Y-168850037D01*
X56930331Y-155412089D02*
X56905124Y-155438415D01*
X196129710Y-85155955D02*
X196146735Y-85188182D01*
X366209714Y-70858113D02*
X366183608Y-70883548D01*
X197658350Y-85549008D02*
X197688095Y-85527945D01*
X380559201Y-156117459D02*
X380557304Y-156081061D01*
X56835191Y-155522413D02*
X56813870Y-155551974D01*
X70490632Y-71008453D02*
X70462420Y-70985377D01*
X197627892Y-83794377D02*
X197596757Y-83775428D01*
X196129710Y-84207449D02*
X196113815Y-84240248D01*
X198784333Y-167857327D02*
X198748740Y-167865172D01*
X379266045Y-155132595D02*
X379230746Y-155141671D01*
X366134123Y-70937058D02*
X366110803Y-70965068D01*
X242211778Y-84522583D02*
X242212410Y-84486141D01*
X238427265Y-169585900D02*
X238403462Y-169558299D01*
X70772043Y-71384684D02*
X70756719Y-71351614D01*
X70518026Y-72586578D02*
X70544569Y-72561600D01*
X241992185Y-83842732D02*
X241969354Y-83814321D01*
X57396920Y-157163553D02*
X57432219Y-157172629D01*
X240225615Y-84011888D02*
X240209720Y-84044687D01*
X67467937Y-69209847D02*
X67599171Y-69097275D01*
X68780914Y-72008792D02*
X68788451Y-72044452D01*
X198116505Y-84681702D02*
X198115873Y-84645260D01*
X56638793Y-155987967D02*
X56633748Y-156024063D01*
X367801695Y-71038486D02*
X367780890Y-71008560D01*
X197943951Y-168941129D02*
X197946480Y-168977488D01*
X70756719Y-72267459D02*
X70772043Y-72234389D01*
X199392240Y-169857422D02*
X199425698Y-169842964D01*
X199038076Y-167837467D02*
X199001640Y-167836519D01*
X69147043Y-70996793D02*
X69119236Y-71020355D01*
X241692662Y-85392415D02*
X241723797Y-85373465D01*
X199775669Y-168187058D02*
X199750923Y-168160299D01*
X379195783Y-157155835D02*
X379230746Y-157166131D01*
X380528986Y-155901259D02*
X380519604Y-155866040D01*
X239128478Y-169933278D02*
X239092197Y-169929804D01*
X366721090Y-70593629D02*
X366685497Y-70601475D01*
X58142113Y-157092198D02*
X58174487Y-157075454D01*
X379027469Y-155221257D02*
X378995390Y-155238561D01*
X238176183Y-169067813D02*
X238170512Y-169031809D01*
X366901951Y-70573137D02*
X366865538Y-70574718D01*
X57648674Y-157200967D02*
X57685120Y-157201283D01*
X241352712Y-83453530D02*
X241316759Y-83447547D01*
X70740257Y-72299977D02*
X70756719Y-72267459D01*
X241945551Y-85185562D02*
X241969354Y-85157960D01*
X69893762Y-70762738D02*
X69857382Y-70760525D01*
X223194040Y-91981161D02*
X223246056Y-91937958D01*
X70211547Y-72780479D02*
X70245004Y-72766022D01*
X242149778Y-84843358D02*
X242161581Y-84808875D01*
X366046866Y-71053716D02*
X366027647Y-71084684D01*
X240256455Y-168977488D02*
X240252666Y-169013738D01*
X238948929Y-167869558D02*
X238984380Y-167861095D01*
X380557304Y-156081061D02*
X380554145Y-156044750D01*
X228716657Y-83921447D02*
X228760178Y-83870554D01*
X69092263Y-71044868D02*
X69066158Y-71070303D01*
X196489803Y-83804254D02*
X196459697Y-83824798D01*
X196430322Y-85517029D02*
X196459697Y-85538605D01*
X366721090Y-72651934D02*
X366756934Y-72658540D01*
X196650002Y-85645561D02*
X196683705Y-85659436D01*
X379909545Y-157124844D02*
X379943003Y-157110387D01*
X68949697Y-72408885D02*
X68971018Y-72438446D01*
X56633748Y-156278582D02*
X56638793Y-156314679D01*
X367579870Y-72446941D02*
X367608082Y-72423865D01*
X379664182Y-157192495D02*
X379700135Y-157186512D01*
X191113290Y-172386479D02*
X121695546Y-160167089D01*
X69930044Y-70766212D02*
X69893762Y-70762738D01*
X240028889Y-168228766D02*
X240051223Y-168257569D01*
X241244338Y-83439342D02*
X241207958Y-83437129D01*
X69297392Y-72724877D02*
X69329470Y-72742180D01*
X198327737Y-168073735D02*
X198299930Y-168097298D01*
X378873650Y-155318574D02*
X378845042Y-155341157D01*
X69639483Y-72845295D02*
X69675535Y-72850652D01*
X58007401Y-157147655D02*
X58041781Y-157135553D01*
X70177607Y-72793767D02*
X70211547Y-72780479D01*
M02*
