M48
; DRILL file {KiCad (6.0.7)} date Tue Dec 13 23:16:34 2022
; FORMAT={-:-/ absolute / metric / decimal}
; #@! TF.CreationDate,2022-12-13T23:16:34-05:00
; #@! TF.GenerationSoftware,Kicad,Pcbnew,(6.0.7)
; #@! TF.FileFunction,Plated,1,2,PTH
FMAT,2
METRIC
; #@! TA.AperFunction,Plated,PTH,ComponentDrill
T1C0.800
; #@! TA.AperFunction,Plated,PTH,ComponentDrill
T2C1.000
; #@! TA.AperFunction,Plated,PTH,ComponentDrill
T3C1.092
; #@! TA.AperFunction,Plated,PTH,ComponentDrill
T4C1.100
; #@! TA.AperFunction,Plated,PTH,ComponentDrill
T5C1.500
%
G90
G05
T1
X86.475Y-142.607
X86.475Y-150.227
X90.525Y-142.607
X90.525Y-150.227
X93.58Y-85.457
X93.58Y-93.077
X94.2Y-109.9
X94.2Y-117.52
X94.24Y-99.97
X94.24Y-107.59
X107.41Y-123.557
X107.41Y-131.177
X116.95Y-85.457
X116.95Y-93.077
X120.27Y-104.43
X120.27Y-112.05
X125.91Y-123.557
X125.91Y-131.177
X139.428Y-90.442
X140.752Y-82.938
X141.458Y-107.922
X142.782Y-100.418
X146.058Y-133.872
X147.382Y-126.368
X152.547Y-148.974
X153.87Y-141.47
X155.818Y-149.292
X157.142Y-141.788
X158.308Y-93.702
X159.632Y-86.198
X159.888Y-111.302
X161.212Y-103.798
X165.797Y-137.852
X167.12Y-130.348
X176.898Y-97.122
X178.222Y-89.618
X178.548Y-114.492
X179.648Y-97.622
X179.872Y-106.988
X180.972Y-90.118
X181.158Y-114.852
X182.482Y-107.348
X183.627Y-140.884
X184.95Y-133.38
X186.338Y-140.852
X187.662Y-133.348
X254.63Y-90.3
X255.953Y-97.804
X257.538Y-131.718
X257.94Y-89.93
X258.862Y-139.222
X259.263Y-97.434
X260.278Y-131.668
X261.602Y-139.172
X262.95Y-106.05
X264.273Y-113.554
X265.48Y-105.33
X266.803Y-112.834
X276.068Y-86.438
X277.392Y-93.942
X279.218Y-128.788
X280.542Y-136.292
X283.64Y-101.9
X284.963Y-109.404
X288.375Y-142.9
X289.698Y-150.404
X290.95Y-142.225
X292.273Y-149.729
X294.811Y-83.13
X296.135Y-90.635
X297.768Y-125.158
X299.092Y-132.662
X302.11Y-98.64
X303.433Y-106.144
X319.78Y-122.02
X319.78Y-129.64
X319.8Y-79.26
X319.8Y-86.88
X325.9Y-141.07
X325.9Y-148.69
X326.4Y-96.3
X326.4Y-103.92
X342.79Y-91.23
X342.79Y-98.85
X342.8Y-79.28
X342.8Y-86.9
X345.12Y-122.02
X345.12Y-129.64
X349.91Y-141.07
X349.91Y-148.69
T2
X138.573Y-156.863
X141.035Y-157.297
X141.091Y-142.584
X143.497Y-157.732
X146.015Y-143.452
X324.26Y-109.88
X324.701Y-112.381
X325.142Y-114.883
T3
X211.35Y-92.771
X211.35Y-95.311
X211.35Y-97.851
X211.35Y-100.391
X211.35Y-102.931
X211.35Y-105.471
X211.35Y-108.011
X211.35Y-110.551
X211.35Y-113.091
X211.35Y-115.631
X211.35Y-118.171
X211.35Y-120.711
X226.59Y-92.771
X226.59Y-95.311
X226.59Y-97.851
X226.59Y-100.391
X226.59Y-102.931
X226.59Y-105.471
X226.59Y-108.011
X226.59Y-110.551
X226.59Y-113.091
X226.59Y-115.631
X226.59Y-118.171
X226.59Y-120.711
T4
X335.88Y-79.23
X335.88Y-85.73
X340.38Y-79.23
X340.38Y-85.73
T5
X74.195Y-124.827
X74.195Y-143.877
X80.545Y-122.287
X80.545Y-141.337
X81.339Y-86.727
X81.339Y-105.777
X83.72Y-124.827
X87.689Y-84.187
X87.689Y-103.237
X90.07Y-122.287
X95.626Y-124.827
X98.008Y-143.877
X101.976Y-122.287
X104.358Y-141.337
X105.151Y-86.727
X107.533Y-105.777
X111.501Y-84.187
X113.883Y-103.237
X114.676Y-124.827
X121.026Y-122.287
X127.877Y-86.593
X129.259Y-106.181
X134.572Y-85.194
X135.332Y-126.595
X135.954Y-104.782
X139.059Y-146.596
X142.026Y-125.196
X145.754Y-145.198
X146.638Y-89.901
X148.02Y-109.489
X153.332Y-88.502
X154.092Y-129.903
X154.715Y-108.09
X160.787Y-128.504
X165.398Y-93.209
X166.781Y-112.797
X171.89Y-152.385
X172.093Y-91.81
X172.853Y-133.211
X173.475Y-111.398
X178.585Y-150.987
X179.548Y-131.812
X184.159Y-96.517
X185.541Y-116.105
X190.854Y-95.118
X191.614Y-136.519
X192.236Y-114.706
X198.308Y-135.12
X244.189Y-98.057
X246.115Y-136.405
X250.001Y-94.453
X251.927Y-132.801
X252.187Y-115.99
X257.999Y-112.386
X261.148Y-153.098
X262.949Y-94.749
X264.875Y-133.097
X266.96Y-149.494
X268.762Y-91.145
X270.688Y-129.493
X270.947Y-112.682
X276.76Y-109.078
X281.71Y-91.441
X283.636Y-129.789
X287.522Y-87.837
X289.448Y-126.185
X289.708Y-109.374
X295.521Y-105.77
X298.669Y-146.482
X300.471Y-88.133
X302.396Y-126.481
X304.482Y-142.878
X306.283Y-84.529
X308.209Y-122.877
X308.469Y-106.066
X314.281Y-102.462
X323.756Y-123.29
X323.756Y-85.19
X330.106Y-120.75
X330.106Y-82.65
X330.9Y-142.34
X330.9Y-104.24
X337.25Y-139.8
X337.25Y-101.7
X342.806Y-104.24
X347.569Y-85.19
X349.156Y-101.7
X349.95Y-123.29
X352.331Y-104.24
X353.919Y-82.65
X354.713Y-142.34
X356.3Y-120.75
X358.681Y-101.7
X361.063Y-139.8
T0
M30
