<?xml version="1.0" standalone="no"?>
 <!DOCTYPE svg PUBLIC "-//W3C//DTD SVG 1.1//EN" 
 "http://www.w3.org/Graphics/SVG/1.1/DTD/svg11.dtd"> 
<svg
  xmlns:svg="http://www.w3.org/2000/svg"
  xmlns="http://www.w3.org/2000/svg"
  xmlns:xlink="http://www.w3.org/1999/xlink"
  version="1.1"
  width="32.989520cm" height="10.464800cm" viewBox="0 0 329895200 104648000">
<title>SVG Picture created as plate-Edge_Cuts.svg date 2022/03/23 20:43:24 </title>
  <desc>Picture generated by PCBNEW </desc>
<g style="fill:#000000; fill-opacity:1.000000;stroke:#000000; stroke-opacity:1.000000;
stroke-linecap:round; stroke-linejoin:round;"
 transform="translate(0 0) scale(1 1)">
</g>
<g style="fill:#000000; fill-opacity:0.0; 
stroke:#000000; stroke-width:0.000000; stroke-opacity:1; 
stroke-linecap:round; stroke-linejoin:round;">
</g>
<g style="fill:#D0D2CD; fill-opacity:0.0; 
stroke:#D0D2CD; stroke-width:0.000000; stroke-opacity:1; 
stroke-linecap:round; stroke-linejoin:round;">
</g>
<g style="fill:#D0D2CD; fill-opacity:0.0; 
stroke:#D0D2CD; stroke-width:200000.000000; stroke-opacity:1; 
stroke-linecap:round; stroke-linejoin:round;">
<path d="M68294104.000999 185274.994348 A4999928.000000 4999928.000000 0.0 0 0 67423901.000001 109032.013839" />
<path d="M262251454 100000
L312502376 100000
" />
</g>
<g style="fill:#D0D2CD; fill-opacity:0.0; 
stroke:#D0D2CD; stroke-width:100000.000000; stroke-opacity:1; 
stroke-linecap:round; stroke-linejoin:round;">
<circle cx="5101096.000000" cy="87257314.000000" r="1250000.000000" /> 
</g>
<g style="fill:#D0D2CD; fill-opacity:0.0; 
stroke:#D0D2CD; stroke-width:200000.000000; stroke-opacity:1; 
stroke-linecap:round; stroke-linejoin:round;">
<path d="M262716561 92258039
L261849900 92333722
" />
<path d="M317447669.313533 4362388.102390 A5000002.000000 5000002.000000 0.0 0 0 312502376.000000 100000.000000" />
<path d="M197709952 103622111
L192432161 104551144
" />
<path d="M68294104 185275
L158564893 16132683
" />
<path d="M171326158 16132683
L261379119 176685
" />
</g>
<g style="fill:#D0D2CD; fill-opacity:0.0; 
stroke:#D0D2CD; stroke-width:100000.000000; stroke-opacity:1; 
stroke-linecap:round; stroke-linejoin:round;">
<circle cx="212881096.000000" cy="98627314.000000" r="1250000.000000" /> 
</g>
<g style="fill:#D0D2CD; fill-opacity:0.0; 
stroke:#D0D2CD; stroke-width:200000.000000; stroke-opacity:1; 
stroke-linecap:round; stroke-linejoin:round;">
<path d="M317447670 4362388
L329811916 87258039
" />
<path d="M262251454.000000 100000.000002 A4999946.000000 4999946.000000 0.0 0 0 261379119.004270 176685.024101" />
<path d="M192432161 104551144
L137475916 104551144
" />
</g>
<g style="fill:#D0D2CD; fill-opacity:0.0; 
stroke:#D0D2CD; stroke-width:100000.000000; stroke-opacity:1; 
stroke-linecap:round; stroke-linejoin:round;">
<circle cx="121761096.000000" cy="12967314.000000" r="1250000.000000" /> 
</g>
<g style="fill:#D0D2CD; fill-opacity:0.0; 
stroke:#D0D2CD; stroke-width:200000.000000; stroke-opacity:1; 
stroke-linecap:round; stroke-linejoin:round;">
<path d="M100000.399600 87254046.000160 A5000000.000000 5000000.000000 0.0 0 0 5100000.000000 92256045.000000" />
<path d="M137475916 104551144
L68058174 92331754
" />
<path d="M100000 87254046
L12209394 4351381
" />
</g>
<g style="fill:#D0D2CD; fill-opacity:0.0; 
stroke:#D0D2CD; stroke-width:100000.000000; stroke-opacity:1; 
stroke-linecap:round; stroke-linejoin:round;">
<circle cx="324811096.000000" cy="87257314.000000" r="1250000.000000" /> 
<circle cx="121961096.000000" cy="99627314.000000" r="1250000.000000" /> 
<circle cx="212881096.000000" cy="13027314.000000" r="1250000.000000" /> 
</g>
<g style="fill:#D0D2CD; fill-opacity:0.0; 
stroke:#D0D2CD; stroke-width:200000.000000; stroke-opacity:1; 
stroke-linecap:round; stroke-linejoin:round;">
<path d="M68058174 92331754
L67191366 92256045
" />
<path d="M261849900 92333722
L197709952 103622111
" />
<path d="M324811916.000000 92258039.000000 A5000000.000000 5000000.000000 0.0 0 0 329811916.000000 87258039.000000" />
<path d="M17150732 112686
L67423901 109032
" />
</g>
<g style="fill:#D0D2CD; fill-opacity:0.0; 
stroke:#D0D2CD; stroke-width:100000.000000; stroke-opacity:1; 
stroke-linecap:round; stroke-linejoin:round;">
<circle cx="312502376.000000" cy="5100000.000000" r="1250000.000000" /> 
<circle cx="17141096.000000" cy="5117314.000000" r="1250000.000000" /> 
</g>
<g style="fill:#D0D2CD; fill-opacity:0.0; 
stroke:#D0D2CD; stroke-width:200000.000000; stroke-opacity:1; 
stroke-linecap:round; stroke-linejoin:round;">
<path d="M158564893 16132683
L171326158 16132683
" />
<path d="M17150732.000001 112686.013250 A5000000.000000 5000000.000000 0.0 0 0 12209394.391366 4351381.060293" />
<path d="M67191366 92256045
L5100000 92256045
" />
<path d="M324811916 92258039
L262716561 92258039
" />
<g >
</g>
<g >
</g>
<g >
</g>
<g >
</g>
</g> 
</svg>
