  0
SECTION
  2
HEADER
  9
$ACADVER
  1
AC1009
  9
$FILLMODE
 70
 0
  9
$SPLFRAME
 70
 1
  9
$EXTMIN
 10
0
 20
0
 30
0.0
  9
$EXTMAX
 10
1058.33
 20
1058.33
 30
0.0
  0
ENDSEC
  0
SECTION
  2
TABLES
  0
TABLE
  2
LAYER
 70
1
  0
LAYER
  2
0
 70
     0
 62
     7
  6
CONTINUOUS
  0
ENDTAB
  0
ENDSEC
  0
SECTION
  2
ENTITIES
  0
LINE
  8
0
 62
     0
 10
0.0950846
 20
132.549
 30
0.0
 11
306.801
 21
132.549
 31
0.0
  0
LINE
  8
0
 62
     0
 10
306.801
 20
132.549
 30
0.0
 11
306.801
 21
0.157097
 31
0.0
  0
LINE
  8
0
 62
     0
 10
306.801
 20
0.157097
 30
0.0
 11
0.0950846
 21
0.157097
 31
0.0
  0
LINE
  8
0
 62
     0
 10
0.0950846
 20
0.157097
 30
0.0
 11
0.0950846
 21
132.549
 31
0.0
  0
LINE
  8
0
 62
     0
 10
68.9472
 20
5.92833
 30
0.0
 11
82.7345
 21
3.49746
 31
0.0
  0
LINE
  8
0
 62
     0
 10
82.7345
 20
3.49746
 30
0.0
 11
85.1655
 21
17.2834
 31
0.0
  0
LINE
  8
0
 62
     0
 10
85.1655
 20
17.2834
 30
0.0
 11
71.3782
 21
19.7156
 31
0.0
  0
LINE
  8
0
 62
     0
 10
71.3782
 20
19.7156
 30
0.0
 11
68.9472
 21
5.92833
 31
0.0
  0
LINE
  8
0
 62
     0
 10
210.026
 20
36.1389
 30
0.0
 11
210.184
 21
35.2323
 31
0.0
  0
LINE
  8
0
 62
     0
 10
210.184
 20
35.2323
 30
0.0
 11
208.486
 21
34.9333
 31
0.0
  0
LINE
  8
0
 62
     0
 10
208.486
 20
34.9333
 30
0.0
 11
209.047
 21
31.7514
 31
0.0
  0
LINE
  8
0
 62
     0
 10
209.047
 20
31.7514
 30
0.0
 11
207.545
 21
31.4868
 31
0.0
  0
LINE
  8
0
 62
     0
 10
207.545
 20
31.4868
 30
0.0
 11
206.729
 21
36.1156
 31
0.0
  0
LINE
  8
0
 62
     0
 10
206.729
 20
36.1156
 30
0.0
 11
192.942
 21
33.6848
 31
0.0
  0
LINE
  8
0
 62
     0
 10
192.942
 20
33.6848
 30
0.0
 11
193.758
 21
29.0573
 31
0.0
  0
LINE
  8
0
 62
     0
 10
193.758
 20
29.0573
 30
0.0
 11
192.256
 21
28.7914
 31
0.0
  0
LINE
  8
0
 62
     0
 10
192.256
 20
28.7914
 30
0.0
 11
191.696
 21
31.9732
 31
0.0
  0
LINE
  8
0
 62
     0
 10
191.696
 20
31.9732
 30
0.0
 11
189.997
 21
31.6728
 31
0.0
  0
LINE
  8
0
 62
     0
 10
189.997
 20
31.6728
 30
0.0
 11
189.837
 21
32.5796
 31
0.0
  0
LINE
  8
0
 62
     0
 10
189.837
 20
32.5796
 30
0.0
 11
186.586
 21
32.0063
 31
0.0
  0
LINE
  8
0
 62
     0
 10
186.586
 20
32.0063
 30
0.0
 11
186.746
 21
31.0996
 31
0.0
  0
LINE
  8
0
 62
     0
 10
186.746
 20
31.0996
 30
0.0
 11
185.047
 21
30.8005
 31
0.0
  0
LINE
  8
0
 62
     0
 10
185.047
 20
30.8005
 30
0.0
 11
185.608
 21
27.62
 31
0.0
  0
LINE
  8
0
 62
     0
 10
185.608
 20
27.62
 30
0.0
 11
184.796
 21
27.4753
 31
0.0
  0
LINE
  8
0
 62
     0
 10
184.796
 20
27.4753
 30
0.0
 11
185.283
 21
24.7192
 31
0.0
  0
LINE
  8
0
 62
     0
 10
185.283
 20
24.7192
 30
0.0
 11
186.095
 21
24.8626
 31
0.0
  0
LINE
  8
0
 62
     0
 10
186.095
 20
24.8626
 30
0.0
 11
187.183
 21
18.6876
 31
0.0
  0
LINE
  8
0
 62
     0
 10
187.183
 20
18.6876
 30
0.0
 11
188.882
 21
18.9866
 31
0.0
  0
LINE
  8
0
 62
     0
 10
188.882
 20
18.9866
 30
0.0
 11
189.053
 21
18.022
 31
0.0
  0
LINE
  8
0
 62
     0
 10
189.053
 20
18.022
 30
0.0
 11
192.302
 21
18.5952
 31
0.0
  0
LINE
  8
0
 62
     0
 10
192.302
 20
18.5952
 30
0.0
 11
192.133
 21
19.5599
 31
0.0
  0
LINE
  8
0
 62
     0
 10
192.133
 20
19.5599
 30
0.0
 11
193.831
 21
19.8603
 31
0.0
  0
LINE
  8
0
 62
     0
 10
193.831
 20
19.8603
 30
0.0
 11
193.055
 21
24.2617
 31
0.0
  0
LINE
  8
0
 62
     0
 10
193.055
 20
24.2617
 30
0.0
 11
194.557
 21
24.5263
 31
0.0
  0
LINE
  8
0
 62
     0
 10
194.557
 20
24.5263
 30
0.0
 11
195.373
 21
19.8975
 31
0.0
  0
LINE
  8
0
 62
     0
 10
195.373
 20
19.8975
 30
0.0
 11
209.16
 21
22.3284
 31
0.0
  0
LINE
  8
0
 62
     0
 10
209.16
 20
22.3284
 30
0.0
 11
208.344
 21
26.9572
 31
0.0
  0
LINE
  8
0
 62
     0
 10
208.344
 20
26.9572
 30
0.0
 11
209.845
 21
27.2218
 31
0.0
  0
LINE
  8
0
 62
     0
 10
209.845
 20
27.2218
 30
0.0
 11
210.622
 21
22.8203
 31
0.0
  0
LINE
  8
0
 62
     0
 10
210.622
 20
22.8203
 30
0.0
 11
212.32
 21
23.1194
 31
0.0
  0
LINE
  8
0
 62
     0
 10
212.32
 20
23.1194
 30
0.0
 11
212.491
 21
22.1547
 31
0.0
  0
LINE
  8
0
 62
     0
 10
212.491
 20
22.1547
 30
0.0
 11
215.74
 21
22.728
 31
0.0
  0
LINE
  8
0
 62
     0
 10
215.74
 20
22.728
 30
0.0
 11
215.57
 21
23.6926
 31
0.0
  0
LINE
  8
0
 62
     0
 10
215.57
 20
23.6926
 30
0.0
 11
217.27
 21
23.9916
 31
0.0
  0
LINE
  8
0
 62
     0
 10
217.27
 20
23.9916
 30
0.0
 11
216.181
 21
30.1666
 31
0.0
  0
LINE
  8
0
 62
     0
 10
216.181
 20
30.1666
 30
0.0
 11
216.994
 21
30.31
 31
0.0
  0
LINE
  8
0
 62
     0
 10
216.994
 20
30.31
 30
0.0
 11
216.506
 21
33.0674
 31
0.0
  0
LINE
  8
0
 62
     0
 10
216.506
 20
33.0674
 30
0.0
 11
215.695
 21
32.9255
 31
0.0
  0
LINE
  8
0
 62
     0
 10
215.695
 20
32.9255
 30
0.0
 11
215.134
 21
36.1061
 31
0.0
  0
LINE
  8
0
 62
     0
 10
215.134
 20
36.1061
 30
0.0
 11
213.435
 21
35.8055
 31
0.0
  0
LINE
  8
0
 62
     0
 10
213.435
 20
35.8055
 30
0.0
 11
213.275
 21
36.7122
 31
0.0
  0
LINE
  8
0
 62
     0
 10
213.275
 20
36.7122
 30
0.0
 11
210.026
 21
36.1389
 31
0.0
  0
LINE
  8
0
 62
     0
 10
101.221
 20
36.1996
 30
0.0
 11
99.5218
 21
36.5002
 31
0.0
  0
LINE
  8
0
 62
     0
 10
99.5218
 20
36.5002
 30
0.0
 11
98.4331
 21
30.3251
 31
0.0
  0
LINE
  8
0
 62
     0
 10
98.4331
 20
30.3251
 30
0.0
 11
97.6217
 21
30.4684
 31
0.0
  0
LINE
  8
0
 62
     0
 10
97.6217
 20
30.4684
 30
0.0
 11
97.1352
 21
27.711
 31
0.0
  0
LINE
  8
0
 62
     0
 10
97.1352
 20
27.711
 30
0.0
 11
97.947
 21
27.5663
 31
0.0
  0
LINE
  8
0
 62
     0
 10
97.947
 20
27.5663
 30
0.0
 11
97.3861
 21
24.3871
 31
0.0
  0
LINE
  8
0
 62
     0
 10
97.3861
 20
24.3871
 30
0.0
 11
99.085
 21
24.0867
 31
0.0
  0
LINE
  8
0
 62
     0
 10
99.085
 20
24.0867
 30
0.0
 11
98.9252
 21
23.1813
 31
0.0
  0
LINE
  8
0
 62
     0
 10
98.9252
 20
23.1813
 30
0.0
 11
102.176
 21
22.6081
 31
0.0
  0
LINE
  8
0
 62
     0
 10
102.176
 20
22.6081
 30
0.0
 11
102.336
 21
23.5134
 31
0.0
  0
LINE
  8
0
 62
     0
 10
102.336
 20
23.5134
 30
0.0
 11
104.035
 21
23.2144
 31
0.0
  0
LINE
  8
0
 62
     0
 10
104.035
 20
23.2144
 30
0.0
 11
104.594
 21
26.3949
 31
0.0
  0
LINE
  8
0
 62
     0
 10
104.594
 20
26.3949
 30
0.0
 11
106.097
 21
26.1304
 31
0.0
  0
LINE
  8
0
 62
     0
 10
106.097
 20
26.1304
 30
0.0
 11
105.281
 21
21.5015
 31
0.0
  0
LINE
  8
0
 62
     0
 10
105.281
 20
21.5015
 30
0.0
 11
119.068
 21
19.0707
 31
0.0
  0
LINE
  8
0
 62
     0
 10
119.068
 20
19.0707
 30
0.0
 11
119.884
 21
23.6995
 31
0.0
  0
LINE
  8
0
 62
     0
 10
119.884
 20
23.6995
 30
0.0
 11
121.386
 21
23.4349
 31
0.0
  0
LINE
  8
0
 62
     0
 10
121.386
 20
23.4349
 30
0.0
 11
120.825
 21
20.2544
 31
0.0
  0
LINE
  8
0
 62
     0
 10
120.825
 20
20.2544
 30
0.0
 11
122.524
 21
19.954
 31
0.0
  0
LINE
  8
0
 62
     0
 10
122.524
 20
19.954
 30
0.0
 11
122.364
 21
19.0486
 31
0.0
  0
LINE
  8
0
 62
     0
 10
122.364
 20
19.0486
 30
0.0
 11
125.614
 21
18.4754
 31
0.0
  0
LINE
  8
0
 62
     0
 10
125.614
 20
18.4754
 30
0.0
 11
125.773
 21
19.3807
 31
0.0
  0
LINE
  8
0
 62
     0
 10
125.773
 20
19.3807
 30
0.0
 11
127.473
 21
19.0817
 31
0.0
  0
LINE
  8
0
 62
     0
 10
127.473
 20
19.0817
 30
0.0
 11
128.034
 21
22.2636
 31
0.0
  0
LINE
  8
0
 62
     0
 10
128.034
 20
22.2636
 30
0.0
 11
128.845
 21
22.1189
 31
0.0
  0
LINE
  8
0
 62
     0
 10
128.845
 20
22.1189
 30
0.0
 11
129.333
 21
24.8763
 31
0.0
  0
LINE
  8
0
 62
     0
 10
129.333
 20
24.8763
 30
0.0
 11
128.52
 21
25.0197
 31
0.0
  0
LINE
  8
0
 62
     0
 10
128.52
 20
25.0197
 30
0.0
 11
129.609
 21
31.1947
 31
0.0
  0
LINE
  8
0
 62
     0
 10
129.609
 20
31.1947
 30
0.0
 11
127.909
 21
31.4937
 31
0.0
  0
LINE
  8
0
 62
     0
 10
127.909
 20
31.4937
 30
0.0
 11
128.079
 21
32.4583
 31
0.0
  0
LINE
  8
0
 62
     0
 10
128.079
 20
32.4583
 30
0.0
 11
124.83
 21
33.0316
 31
0.0
  0
LINE
  8
0
 62
     0
 10
124.83
 20
33.0316
 30
0.0
 11
124.66
 21
32.0669
 31
0.0
  0
LINE
  8
0
 62
     0
 10
124.66
 20
32.0669
 30
0.0
 11
122.961
 21
32.3674
 31
0.0
  0
LINE
  8
0
 62
     0
 10
122.961
 20
32.3674
 30
0.0
 11
122.185
 21
27.9645
 31
0.0
  0
LINE
  8
0
 62
     0
 10
122.185
 20
27.9645
 30
0.0
 11
120.683
 21
28.2305
 31
0.0
  0
LINE
  8
0
 62
     0
 10
120.683
 20
28.2305
 30
0.0
 11
121.499
 21
32.8579
 31
0.0
  0
LINE
  8
0
 62
     0
 10
121.499
 20
32.8579
 30
0.0
 11
107.712
 21
35.2887
 31
0.0
  0
LINE
  8
0
 62
     0
 10
107.712
 20
35.2887
 30
0.0
 11
106.896
 21
30.66
 31
0.0
  0
LINE
  8
0
 62
     0
 10
106.896
 20
30.66
 30
0.0
 11
105.394
 21
30.9246
 31
0.0
  0
LINE
  8
0
 62
     0
 10
105.394
 20
30.9246
 30
0.0
 11
106.17
 21
35.3275
 31
0.0
  0
LINE
  8
0
 62
     0
 10
106.17
 20
35.3275
 30
0.0
 11
104.472
 21
35.6263
 31
0.0
  0
LINE
  8
0
 62
     0
 10
104.472
 20
35.6263
 30
0.0
 11
104.641
 21
36.5926
 31
0.0
  0
LINE
  8
0
 62
     0
 10
104.641
 20
36.5926
 30
0.0
 11
101.392
 21
37.1644
 31
0.0
  0
LINE
  8
0
 62
     0
 10
101.392
 20
37.1644
 30
0.0
 11
101.221
 21
36.1996
 31
0.0
  0
LINE
  8
0
 62
     0
 10
72.4489
 20
27.2907
 30
0.0
 11
86.2362
 21
24.8598
 31
0.0
  0
LINE
  8
0
 62
     0
 10
86.2362
 20
24.8598
 30
0.0
 11
88.6686
 21
38.6472
 31
0.0
  0
LINE
  8
0
 62
     0
 10
88.6686
 20
38.6472
 30
0.0
 11
74.8799
 21
41.0778
 31
0.0
  0
LINE
  8
0
 62
     0
 10
74.8799
 20
41.0778
 30
0.0
 11
72.4489
 21
27.2907
 31
0.0
  0
LINE
  8
0
 62
     0
 10
230.463
 20
40.3006
 30
0.0
 11
232.894
 21
26.5135
 31
0.0
  0
LINE
  8
0
 62
     0
 10
232.894
 20
26.5135
 30
0.0
 11
246.681
 21
28.9443
 31
0.0
  0
LINE
  8
0
 62
     0
 10
246.681
 20
28.9443
 30
0.0
 11
244.25
 21
42.7316
 31
0.0
  0
LINE
  8
0
 62
     0
 10
244.25
 20
42.7316
 30
0.0
 11
230.463
 21
40.3006
 31
0.0
  0
LINE
  8
0
 62
     0
 10
8.81119
 20
43.3476
 30
0.0
 11
22.8107
 21
43.3476
 31
0.0
  0
LINE
  8
0
 62
     0
 10
22.8107
 20
43.3476
 30
0.0
 11
22.8107
 21
29.3481
 31
0.0
  0
LINE
  8
0
 62
     0
 10
22.8107
 20
29.3481
 30
0.0
 11
8.81119
 21
29.3481
 31
0.0
  0
LINE
  8
0
 62
     0
 10
8.81119
 20
29.3481
 30
0.0
 11
8.81119
 21
43.3476
 31
0.0
  0
LINE
  8
0
 62
     0
 10
32.6223
 20
43.3476
 30
0.0
 11
46.6231
 21
43.3476
 31
0.0
  0
LINE
  8
0
 62
     0
 10
46.6231
 20
43.3476
 30
0.0
 11
46.6231
 21
29.3481
 31
0.0
  0
LINE
  8
0
 62
     0
 10
46.6231
 20
29.3481
 30
0.0
 11
32.6223
 21
29.3481
 31
0.0
  0
LINE
  8
0
 62
     0
 10
32.6223
 20
29.3481
 30
0.0
 11
32.6223
 21
43.3476
 31
0.0
  0
LINE
  8
0
 62
     0
 10
264.08
 20
45.0617
 30
0.0
 11
278.08
 21
45.0617
 31
0.0
  0
LINE
  8
0
 62
     0
 10
278.08
 20
45.0617
 30
0.0
 11
278.08
 21
31.0624
 31
0.0
  0
LINE
  8
0
 62
     0
 10
278.08
 20
31.0624
 30
0.0
 11
264.08
 21
31.0624
 31
0.0
  0
LINE
  8
0
 62
     0
 10
264.08
 20
31.0624
 30
0.0
 11
264.08
 21
45.0617
 31
0.0
  0
LINE
  8
0
 62
     0
 10
287.893
 20
45.0617
 30
0.0
 11
301.892
 21
45.0617
 31
0.0
  0
LINE
  8
0
 62
     0
 10
301.892
 20
45.0617
 30
0.0
 11
301.892
 21
31.0624
 31
0.0
  0
LINE
  8
0
 62
     0
 10
301.892
 20
31.0624
 30
0.0
 11
287.893
 21
31.0624
 31
0.0
  0
LINE
  8
0
 62
     0
 10
287.893
 20
31.0624
 30
0.0
 11
287.893
 21
45.0617
 31
0.0
  0
LINE
  8
0
 62
     0
 10
125.005
 20
37.3683
 30
0.0
 11
138.792
 21
34.9374
 31
0.0
  0
LINE
  8
0
 62
     0
 10
138.792
 20
34.9374
 30
0.0
 11
141.223
 21
48.7232
 31
0.0
  0
LINE
  8
0
 62
     0
 10
141.223
 20
48.7232
 30
0.0
 11
127.435
 21
51.1556
 31
0.0
  0
LINE
  8
0
 62
     0
 10
127.435
 20
51.1556
 30
0.0
 11
125.005
 21
37.3683
 31
0.0
  0
LINE
  8
0
 62
     0
 10
177.909
 20
50.3784
 30
0.0
 11
180.34
 21
36.5912
 31
0.0
  0
LINE
  8
0
 62
     0
 10
180.34
 20
36.5912
 30
0.0
 11
194.127
 21
39.0218
 31
0.0
  0
LINE
  8
0
 62
     0
 10
194.127
 20
39.0218
 30
0.0
 11
191.696
 21
52.8091
 31
0.0
  0
LINE
  8
0
 62
     0
 10
191.696
 20
52.8091
 30
0.0
 11
177.909
 21
50.3784
 31
0.0
  0
LINE
  8
0
 62
     0
 10
106.244
 20
40.6756
 30
0.0
 11
120.03
 21
38.2446
 31
0.0
  0
LINE
  8
0
 62
     0
 10
120.03
 20
38.2446
 30
0.0
 11
122.462
 21
52.0319
 31
0.0
  0
LINE
  8
0
 62
     0
 10
122.462
 20
52.0319
 30
0.0
 11
108.675
 21
54.4629
 31
0.0
  0
LINE
  8
0
 62
     0
 10
108.675
 20
54.4629
 30
0.0
 11
106.244
 21
40.6756
 31
0.0
  0
LINE
  8
0
 62
     0
 10
196.668
 20
53.6857
 30
0.0
 11
199.099
 21
39.8985
 31
0.0
  0
LINE
  8
0
 62
     0
 10
199.099
 20
39.8985
 30
0.0
 11
212.888
 21
42.3305
 31
0.0
  0
LINE
  8
0
 62
     0
 10
212.888
 20
42.3305
 30
0.0
 11
210.457
 21
56.1164
 31
0.0
  0
LINE
  8
0
 62
     0
 10
210.457
 20
56.1164
 30
0.0
 11
196.668
 21
53.6857
 31
0.0
  0
LINE
  8
0
 62
     0
 10
87.4818
 20
43.9843
 30
0.0
 11
101.271
 21
41.5533
 31
0.0
  0
LINE
  8
0
 62
     0
 10
101.271
 20
41.5533
 30
0.0
 11
103.701
 21
55.3406
 31
0.0
  0
LINE
  8
0
 62
     0
 10
103.701
 20
55.3406
 30
0.0
 11
89.9142
 21
57.7716
 31
0.0
  0
LINE
  8
0
 62
     0
 10
89.9142
 20
57.7716
 30
0.0
 11
87.4818
 21
43.9843
 31
0.0
  0
LINE
  8
0
 62
     0
 10
215.43
 20
56.9944
 30
0.0
 11
217.861
 21
43.2072
 31
0.0
  0
LINE
  8
0
 62
     0
 10
217.861
 20
43.2072
 30
0.0
 11
231.647
 21
45.6378
 31
0.0
  0
LINE
  8
0
 62
     0
 10
231.647
 20
45.6378
 30
0.0
 11
229.216
 21
59.4251
 31
0.0
  0
LINE
  8
0
 62
     0
 10
229.216
 20
59.4251
 30
0.0
 11
215.43
 21
56.9944
 31
0.0
  0
LINE
  8
0
 62
     0
 10
68.7229
 20
47.2916
 30
0.0
 11
82.5101
 21
44.8606
 31
0.0
  0
LINE
  8
0
 62
     0
 10
82.5101
 20
44.8606
 30
0.0
 11
84.9408
 21
58.6479
 31
0.0
  0
LINE
  8
0
 62
     0
 10
84.9408
 20
58.6479
 30
0.0
 11
71.1535
 21
61.0789
 31
0.0
  0
LINE
  8
0
 62
     0
 10
71.1535
 20
61.0789
 30
0.0
 11
68.7229
 21
47.2916
 31
0.0
  0
LINE
  8
0
 62
     0
 10
234.191
 20
60.3017
 30
0.0
 11
236.621
 21
46.5145
 31
0.0
  0
LINE
  8
0
 62
     0
 10
236.621
 20
46.5145
 30
0.0
 11
250.409
 21
48.9465
 31
0.0
  0
LINE
  8
0
 62
     0
 10
250.409
 20
48.9465
 30
0.0
 11
247.978
 21
62.7324
 31
0.0
  0
LINE
  8
0
 62
     0
 10
247.978
 20
62.7324
 30
0.0
 11
234.191
 21
60.3017
 31
0.0
  0
LINE
  8
0
 62
     0
 10
18.3362
 20
62.3976
 30
0.0
 11
18.3362
 21
57.6986
 31
0.0
  0
LINE
  8
0
 62
     0
 10
18.3362
 20
57.6986
 30
0.0
 11
16.8107
 21
57.6986
 31
0.0
  0
LINE
  8
0
 62
     0
 10
16.8107
 20
57.6986
 30
0.0
 11
16.8107
 21
60.9286
 31
0.0
  0
LINE
  8
0
 62
     0
 10
16.8107
 20
60.9286
 30
0.0
 11
15.0854
 21
60.9286
 31
0.0
  0
LINE
  8
0
 62
     0
 10
15.0854
 20
60.9286
 30
0.0
 11
15.0854
 21
61.8476
 31
0.0
  0
LINE
  8
0
 62
     0
 10
15.0854
 20
61.8476
 30
0.0
 11
11.785
 21
61.8476
 31
0.0
  0
LINE
  8
0
 62
     0
 10
11.785
 20
61.8476
 30
0.0
 11
11.785
 21
60.9286
 31
0.0
  0
LINE
  8
0
 62
     0
 10
11.785
 20
60.9286
 30
0.0
 11
10.061
 21
60.9286
 31
0.0
  0
LINE
  8
0
 62
     0
 10
10.061
 20
60.9286
 30
0.0
 11
10.061
 21
57.6986
 31
0.0
  0
LINE
  8
0
 62
     0
 10
10.061
 20
57.6986
 30
0.0
 11
9.23562
 21
57.6986
 31
0.0
  0
LINE
  8
0
 62
     0
 10
9.23562
 20
57.6986
 30
0.0
 11
9.23562
 21
54.8982
 31
0.0
  0
LINE
  8
0
 62
     0
 10
9.23562
 20
54.8982
 30
0.0
 11
10.061
 21
54.8982
 31
0.0
  0
LINE
  8
0
 62
     0
 10
10.061
 20
54.8982
 30
0.0
 11
10.061
 21
48.6283
 31
0.0
  0
LINE
  8
0
 62
     0
 10
10.061
 20
48.6283
 30
0.0
 11
11.785
 21
48.6283
 31
0.0
  0
LINE
  8
0
 62
     0
 10
11.785
 20
48.6283
 30
0.0
 11
11.785
 21
47.6483
 31
0.0
  0
LINE
  8
0
 62
     0
 10
11.785
 20
47.6483
 30
0.0
 11
15.0854
 21
47.6483
 31
0.0
  0
LINE
  8
0
 62
     0
 10
15.0854
 20
47.6483
 30
0.0
 11
15.0854
 21
48.6283
 31
0.0
  0
LINE
  8
0
 62
     0
 10
15.0854
 20
48.6283
 30
0.0
 11
16.8107
 21
48.6283
 31
0.0
  0
LINE
  8
0
 62
     0
 10
16.8107
 20
48.6283
 30
0.0
 11
16.8107
 21
53.0987
 31
0.0
  0
LINE
  8
0
 62
     0
 10
16.8107
 20
53.0987
 30
0.0
 11
18.3362
 21
53.0987
 31
0.0
  0
LINE
  8
0
 62
     0
 10
18.3362
 20
53.0987
 30
0.0
 11
18.3362
 21
48.3979
 31
0.0
  0
LINE
  8
0
 62
     0
 10
18.3362
 20
48.3979
 30
0.0
 11
32.3357
 21
48.3979
 31
0.0
  0
LINE
  8
0
 62
     0
 10
32.3357
 20
48.3979
 30
0.0
 11
32.3357
 21
53.0987
 31
0.0
  0
LINE
  8
0
 62
     0
 10
32.3357
 20
53.0987
 30
0.0
 11
33.8612
 21
53.0987
 31
0.0
  0
LINE
  8
0
 62
     0
 10
33.8612
 20
53.0987
 30
0.0
 11
33.8612
 21
48.6283
 31
0.0
  0
LINE
  8
0
 62
     0
 10
33.8612
 20
48.6283
 30
0.0
 11
35.585
 21
48.6283
 31
0.0
  0
LINE
  8
0
 62
     0
 10
35.585
 20
48.6283
 30
0.0
 11
35.585
 21
47.6483
 31
0.0
  0
LINE
  8
0
 62
     0
 10
35.585
 20
47.6483
 30
0.0
 11
38.8856
 21
47.6483
 31
0.0
  0
LINE
  8
0
 62
     0
 10
38.8856
 20
47.6483
 30
0.0
 11
38.8856
 21
48.6283
 31
0.0
  0
LINE
  8
0
 62
     0
 10
38.8856
 20
48.6283
 30
0.0
 11
40.6107
 21
48.6283
 31
0.0
  0
LINE
  8
0
 62
     0
 10
40.6107
 20
48.6283
 30
0.0
 11
40.6107
 21
54.8982
 31
0.0
  0
LINE
  8
0
 62
     0
 10
40.6107
 20
54.8982
 30
0.0
 11
41.4348
 21
54.8982
 31
0.0
  0
LINE
  8
0
 62
     0
 10
41.4348
 20
54.8982
 30
0.0
 11
41.4348
 21
57.6986
 31
0.0
  0
LINE
  8
0
 62
     0
 10
41.4348
 20
57.6986
 30
0.0
 11
40.6107
 21
57.6986
 31
0.0
  0
LINE
  8
0
 62
     0
 10
40.6107
 20
57.6986
 30
0.0
 11
40.6107
 21
60.9286
 31
0.0
  0
LINE
  8
0
 62
     0
 10
40.6107
 20
60.9286
 30
0.0
 11
38.8856
 21
60.9286
 31
0.0
  0
LINE
  8
0
 62
     0
 10
38.8856
 20
60.9286
 30
0.0
 11
38.8856
 21
61.8476
 31
0.0
  0
LINE
  8
0
 62
     0
 10
38.8856
 20
61.8476
 30
0.0
 11
35.585
 21
61.8476
 31
0.0
  0
LINE
  8
0
 62
     0
 10
35.585
 20
61.8476
 30
0.0
 11
35.585
 21
60.9286
 31
0.0
  0
LINE
  8
0
 62
     0
 10
35.585
 20
60.9286
 30
0.0
 11
33.8612
 21
60.9286
 31
0.0
  0
LINE
  8
0
 62
     0
 10
33.8612
 20
60.9286
 30
0.0
 11
33.8612
 21
57.6986
 31
0.0
  0
LINE
  8
0
 62
     0
 10
33.8612
 20
57.6986
 30
0.0
 11
32.3357
 21
57.6986
 31
0.0
  0
LINE
  8
0
 62
     0
 10
32.3357
 20
57.6986
 30
0.0
 11
32.3357
 21
62.3976
 31
0.0
  0
LINE
  8
0
 62
     0
 10
32.3357
 20
62.3976
 30
0.0
 11
18.3362
 21
62.3976
 31
0.0
  0
LINE
  8
0
 62
     0
 10
49.2912
 20
62.3976
 30
0.0
 11
63.2919
 21
62.3976
 31
0.0
  0
LINE
  8
0
 62
     0
 10
63.2919
 20
62.3976
 30
0.0
 11
63.2919
 21
48.3979
 31
0.0
  0
LINE
  8
0
 62
     0
 10
63.2919
 20
48.3979
 30
0.0
 11
49.2912
 21
48.3979
 31
0.0
  0
LINE
  8
0
 62
     0
 10
49.2912
 20
48.3979
 30
0.0
 11
49.2912
 21
62.3976
 31
0.0
  0
LINE
  8
0
 62
     0
 10
256.935
 20
64.1117
 30
0.0
 11
270.936
 21
64.1117
 31
0.0
  0
LINE
  8
0
 62
     0
 10
270.936
 20
64.1117
 30
0.0
 11
270.936
 21
50.1124
 31
0.0
  0
LINE
  8
0
 62
     0
 10
270.936
 20
50.1124
 30
0.0
 11
256.935
 21
50.1124
 31
0.0
  0
LINE
  8
0
 62
     0
 10
256.935
 20
50.1124
 30
0.0
 11
256.935
 21
64.1117
 31
0.0
  0
LINE
  8
0
 62
     0
 10
283.13
 20
64.1117
 30
0.0
 11
297.13
 21
64.1117
 31
0.0
  0
LINE
  8
0
 62
     0
 10
297.13
 20
64.1117
 30
0.0
 11
297.13
 21
50.1124
 31
0.0
  0
LINE
  8
0
 62
     0
 10
297.13
 20
50.1124
 30
0.0
 11
283.13
 21
50.1124
 31
0.0
  0
LINE
  8
0
 62
     0
 10
283.13
 20
50.1124
 30
0.0
 11
283.13
 21
64.1117
 31
0.0
  0
LINE
  8
0
 62
     0
 10
118.932
 20
57.7825
 30
0.0
 11
132.719
 21
55.3515
 31
0.0
  0
LINE
  8
0
 62
     0
 10
132.719
 20
55.3515
 30
0.0
 11
135.151
 21
69.1388
 31
0.0
  0
LINE
  8
0
 62
     0
 10
135.151
 20
69.1388
 30
0.0
 11
121.363
 21
71.5698
 31
0.0
  0
LINE
  8
0
 62
     0
 10
121.363
 20
71.5698
 30
0.0
 11
118.932
 21
57.7825
 31
0.0
  0
LINE
  8
0
 62
     0
 10
183.981
 20
70.7926
 30
0.0
 11
186.411
 21
57.0054
 31
0.0
  0
LINE
  8
0
 62
     0
 10
186.411
 20
57.0054
 30
0.0
 11
200.199
 21
59.4374
 31
0.0
  0
LINE
  8
0
 62
     0
 10
200.199
 20
59.4374
 30
0.0
 11
197.768
 21
73.2247
 31
0.0
  0
LINE
  8
0
 62
     0
 10
197.768
 20
73.2247
 30
0.0
 11
183.981
 21
70.7926
 31
0.0
  0
LINE
  8
0
 62
     0
 10
100.171
 20
61.0912
 30
0.0
 11
113.958
 21
58.6602
 31
0.0
  0
LINE
  8
0
 62
     0
 10
113.958
 20
58.6602
 30
0.0
 11
116.389
 21
72.4475
 31
0.0
  0
LINE
  8
0
 62
     0
 10
116.389
 20
72.4475
 30
0.0
 11
102.602
 21
74.8785
 31
0.0
  0
LINE
  8
0
 62
     0
 10
102.602
 20
74.8785
 30
0.0
 11
100.171
 21
61.0912
 31
0.0
  0
LINE
  8
0
 62
     0
 10
202.741
 20
74.1013
 30
0.0
 11
205.172
 21
60.3141
 31
0.0
  0
LINE
  8
0
 62
     0
 10
205.172
 20
60.3141
 30
0.0
 11
218.959
 21
62.7447
 31
0.0
  0
LINE
  8
0
 62
     0
 10
218.959
 20
62.7447
 30
0.0
 11
216.528
 21
76.532
 31
0.0
  0
LINE
  8
0
 62
     0
 10
216.528
 20
76.532
 30
0.0
 11
202.741
 21
74.1013
 31
0.0
  0
LINE
  8
0
 62
     0
 10
81.4105
 20
64.3985
 30
0.0
 11
95.1978
 21
61.9675
 31
0.0
  0
LINE
  8
0
 62
     0
 10
95.1978
 20
61.9675
 30
0.0
 11
97.6298
 21
75.7548
 31
0.0
  0
LINE
  8
0
 62
     0
 10
97.6298
 20
75.7548
 30
0.0
 11
83.8412
 21
78.1858
 31
0.0
  0
LINE
  8
0
 62
     0
 10
83.8412
 20
78.1858
 30
0.0
 11
81.4105
 21
64.3985
 31
0.0
  0
LINE
  8
0
 62
     0
 10
221.502
 20
77.4086
 30
0.0
 11
223.933
 21
63.6214
 31
0.0
  0
LINE
  8
0
 62
     0
 10
223.933
 20
63.6214
 30
0.0
 11
237.72
 21
66.0534
 31
0.0
  0
LINE
  8
0
 62
     0
 10
237.72
 20
66.0534
 30
0.0
 11
235.289
 21
79.8393
 31
0.0
  0
LINE
  8
0
 62
     0
 10
235.289
 20
79.8393
 30
0.0
 11
221.502
 21
77.4086
 31
0.0
  0
LINE
  8
0
 62
     0
 10
62.6512
 20
67.7072
 30
0.0
 11
76.4371
 21
65.2762
 31
0.0
  0
LINE
  8
0
 62
     0
 10
76.4371
 20
65.2762
 30
0.0
 11
78.8681
 21
79.0635
 31
0.0
  0
LINE
  8
0
 62
     0
 10
78.8681
 20
79.0635
 30
0.0
 11
65.0819
 21
81.4945
 31
0.0
  0
LINE
  8
0
 62
     0
 10
65.0819
 20
81.4945
 30
0.0
 11
62.6512
 21
67.7072
 31
0.0
  0
LINE
  8
0
 62
     0
 10
240.262
 20
80.7173
 30
0.0
 11
242.693
 21
66.9301
 31
0.0
  0
LINE
  8
0
 62
     0
 10
242.693
 20
66.9301
 30
0.0
 11
256.48
 21
69.3607
 31
0.0
  0
LINE
  8
0
 62
     0
 10
256.48
 20
69.3607
 30
0.0
 11
254.048
 21
83.148
 31
0.0
  0
LINE
  8
0
 62
     0
 10
254.048
 20
83.148
 30
0.0
 11
240.262
 21
80.7173
 31
0.0
  0
LINE
  8
0
 62
     0
 10
16.4303
 20
81.4476
 30
0.0
 11
30.4298
 21
81.4476
 31
0.0
  0
LINE
  8
0
 62
     0
 10
30.4298
 20
81.4476
 30
0.0
 11
30.4298
 21
67.4479
 31
0.0
  0
LINE
  8
0
 62
     0
 10
30.4298
 20
67.4479
 30
0.0
 11
16.4303
 21
67.4479
 31
0.0
  0
LINE
  8
0
 62
     0
 10
16.4303
 20
67.4479
 30
0.0
 11
16.4303
 21
81.4476
 31
0.0
  0
LINE
  8
0
 62
     0
 10
42.624
 20
81.4476
 30
0.0
 11
56.6251
 21
81.4476
 31
0.0
  0
LINE
  8
0
 62
     0
 10
56.6251
 20
81.4476
 30
0.0
 11
56.6251
 21
67.4479
 31
0.0
  0
LINE
  8
0
 62
     0
 10
56.6251
 20
67.4479
 30
0.0
 11
42.624
 21
67.4479
 31
0.0
  0
LINE
  8
0
 62
     0
 10
42.624
 20
67.4479
 30
0.0
 11
42.624
 21
81.4476
 31
0.0
  0
LINE
  8
0
 62
     0
 10
262.651
 20
83.1617
 30
0.0
 11
276.651
 21
83.1617
 31
0.0
  0
LINE
  8
0
 62
     0
 10
276.651
 20
83.1617
 30
0.0
 11
276.651
 21
69.1624
 31
0.0
  0
LINE
  8
0
 62
     0
 10
276.651
 20
69.1624
 30
0.0
 11
262.651
 21
69.1624
 31
0.0
  0
LINE
  8
0
 62
     0
 10
262.651
 20
69.1624
 30
0.0
 11
262.651
 21
83.1617
 31
0.0
  0
LINE
  8
0
 62
     0
 10
284.082
 20
83.1617
 30
0.0
 11
298.082
 21
83.1617
 31
0.0
  0
LINE
  8
0
 62
     0
 10
298.082
 20
83.1617
 30
0.0
 11
298.082
 21
69.1624
 31
0.0
  0
LINE
  8
0
 62
     0
 10
298.082
 20
69.1624
 30
0.0
 11
284.082
 21
69.1624
 31
0.0
  0
LINE
  8
0
 62
     0
 10
284.082
 20
69.1624
 30
0.0
 11
284.082
 21
83.1617
 31
0.0
  0
LINE
  8
0
 62
     0
 10
117.549
 20
77.3698
 30
0.0
 11
131.338
 21
74.9392
 31
0.0
  0
LINE
  8
0
 62
     0
 10
131.338
 20
74.9392
 30
0.0
 11
133.769
 21
88.7264
 31
0.0
  0
LINE
  8
0
 62
     0
 10
133.769
 20
88.7264
 30
0.0
 11
119.98
 21
91.1585
 31
0.0
  0
LINE
  8
0
 62
     0
 10
119.98
 20
91.1585
 30
0.0
 11
117.549
 21
77.3698
 31
0.0
  0
LINE
  8
0
 62
     0
 10
175.982
 20
88.7264
 30
0.0
 11
178.413
 21
74.9392
 31
0.0
  0
LINE
  8
0
 62
     0
 10
178.413
 20
74.9392
 30
0.0
 11
192.2
 21
77.3698
 31
0.0
  0
LINE
  8
0
 62
     0
 10
192.2
 20
77.3698
 30
0.0
 11
189.77
 21
91.1585
 31
0.0
  0
LINE
  8
0
 62
     0
 10
189.77
 20
91.1585
 30
0.0
 11
175.982
 21
88.7264
 31
0.0
  0
LINE
  8
0
 62
     0
 10
98.7887
 20
80.6785
 30
0.0
 11
112.576
 21
78.2465
 31
0.0
  0
LINE
  8
0
 62
     0
 10
112.576
 20
78.2465
 30
0.0
 11
115.007
 21
92.0337
 31
0.0
  0
LINE
  8
0
 62
     0
 10
115.007
 20
92.0337
 30
0.0
 11
101.221
 21
94.4658
 31
0.0
  0
LINE
  8
0
 62
     0
 10
101.221
 20
94.4658
 30
0.0
 11
98.7887
 21
80.6785
 31
0.0
  0
LINE
  8
0
 62
     0
 10
194.743
 20
92.0337
 30
0.0
 11
197.174
 21
78.2465
 31
0.0
  0
LINE
  8
0
 62
     0
 10
197.174
 20
78.2465
 30
0.0
 11
210.961
 21
80.6785
 31
0.0
  0
LINE
  8
0
 62
     0
 10
210.961
 20
80.6785
 30
0.0
 11
208.53
 21
94.4658
 31
0.0
  0
LINE
  8
0
 62
     0
 10
208.53
 20
94.4658
 30
0.0
 11
194.743
 21
92.0337
 31
0.0
  0
LINE
  8
0
 62
     0
 10
80.0283
 20
83.9858
 30
0.0
 11
93.8156
 21
81.5552
 31
0.0
  0
LINE
  8
0
 62
     0
 10
93.8156
 20
81.5552
 30
0.0
 11
96.2462
 21
95.3424
 31
0.0
  0
LINE
  8
0
 62
     0
 10
96.2462
 20
95.3424
 30
0.0
 11
82.459
 21
97.7745
 31
0.0
  0
LINE
  8
0
 62
     0
 10
82.459
 20
97.7745
 30
0.0
 11
80.0283
 21
83.9858
 31
0.0
  0
LINE
  8
0
 62
     0
 10
213.504
 20
95.3424
 30
0.0
 11
215.935
 21
81.5552
 31
0.0
  0
LINE
  8
0
 62
     0
 10
215.935
 20
81.5552
 30
0.0
 11
229.722
 21
83.9858
 31
0.0
  0
LINE
  8
0
 62
     0
 10
229.722
 20
83.9858
 30
0.0
 11
227.291
 21
97.7745
 31
0.0
  0
LINE
  8
0
 62
     0
 10
227.291
 20
97.7745
 30
0.0
 11
213.504
 21
95.3424
 31
0.0
  0
LINE
  8
0
 62
     0
 10
61.2676
 20
87.2945
 30
0.0
 11
75.0549
 21
84.8625
 31
0.0
  0
LINE
  8
0
 62
     0
 10
75.0549
 20
84.8625
 30
0.0
 11
77.4869
 21
98.6497
 31
0.0
  0
LINE
  8
0
 62
     0
 10
77.4869
 20
98.6497
 30
0.0
 11
63.6997
 21
101.082
 31
0.0
  0
LINE
  8
0
 62
     0
 10
63.6997
 20
101.082
 30
0.0
 11
61.2676
 21
87.2945
 31
0.0
  0
LINE
  8
0
 62
     0
 10
232.264
 20
98.6497
 30
0.0
 11
234.695
 21
84.8625
 31
0.0
  0
LINE
  8
0
 62
     0
 10
234.695
 20
84.8625
 30
0.0
 11
248.482
 21
87.2945
 31
0.0
  0
LINE
  8
0
 62
     0
 10
248.482
 20
87.2945
 30
0.0
 11
246.052
 21
101.082
 31
0.0
  0
LINE
  8
0
 62
     0
 10
246.052
 20
101.082
 30
0.0
 11
232.264
 21
98.6497
 31
0.0
  0
LINE
  8
0
 62
     0
 10
15.9549
 20
100.498
 30
0.0
 11
29.9544
 21
100.498
 31
0.0
  0
LINE
  8
0
 62
     0
 10
29.9544
 20
100.498
 30
0.0
 11
29.9544
 21
86.4979
 31
0.0
  0
LINE
  8
0
 62
     0
 10
29.9544
 20
86.4979
 30
0.0
 11
15.9549
 21
86.4979
 31
0.0
  0
LINE
  8
0
 62
     0
 10
15.9549
 20
86.4979
 30
0.0
 11
15.9549
 21
100.498
 31
0.0
  0
LINE
  8
0
 62
     0
 10
39.7662
 20
100.498
 30
0.0
 11
53.7669
 21
100.498
 31
0.0
  0
LINE
  8
0
 62
     0
 10
53.7669
 20
100.498
 30
0.0
 11
53.7669
 21
86.4979
 31
0.0
  0
LINE
  8
0
 62
     0
 10
53.7669
 20
86.4979
 30
0.0
 11
39.7662
 21
86.4979
 31
0.0
  0
LINE
  8
0
 62
     0
 10
39.7662
 20
86.4979
 30
0.0
 11
39.7662
 21
100.498
 31
0.0
  0
LINE
  8
0
 62
     0
 10
255.032
 20
102.212
 30
0.0
 11
269.032
 21
102.212
 31
0.0
  0
LINE
  8
0
 62
     0
 10
269.032
 20
102.212
 30
0.0
 11
269.032
 21
88.2124
 31
0.0
  0
LINE
  8
0
 62
     0
 10
269.032
 20
88.2124
 30
0.0
 11
255.032
 21
88.2124
 31
0.0
  0
LINE
  8
0
 62
     0
 10
255.032
 20
88.2124
 30
0.0
 11
255.032
 21
102.212
 31
0.0
  0
LINE
  8
0
 62
     0
 10
278.845
 20
102.212
 30
0.0
 11
292.844
 21
102.212
 31
0.0
  0
LINE
  8
0
 62
     0
 10
292.844
 20
102.212
 30
0.0
 11
292.844
 21
88.2124
 31
0.0
  0
LINE
  8
0
 62
     0
 10
292.844
 20
88.2124
 30
0.0
 11
278.845
 21
88.2124
 31
0.0
  0
LINE
  8
0
 62
     0
 10
278.845
 20
88.2124
 30
0.0
 11
278.845
 21
102.212
 31
0.0
  0
ENDSEC
  0
EOF
