G04 #@! TF.GenerationSoftware,KiCad,Pcbnew,(6.0.6-69-g6d26e8e3e8)*
G04 #@! TF.CreationDate,2022-07-20T16:21:00-04:00*
G04 #@! TF.ProjectId,alish40,616c6973-6834-4302-9e6b-696361645f70,rev?*
G04 #@! TF.SameCoordinates,Original*
G04 #@! TF.FileFunction,Soldermask,Top*
G04 #@! TF.FilePolarity,Negative*
%FSLAX46Y46*%
G04 Gerber Fmt 4.6, Leading zero omitted, Abs format (unit mm)*
G04 Created by KiCad (PCBNEW (6.0.6-69-g6d26e8e3e8)) date 2022-07-20 16:21:00*
%MOMM*%
%LPD*%
G01*
G04 APERTURE LIST*
G04 Aperture macros list*
%AMHorizOval*
0 Thick line with rounded ends*
0 $1 width*
0 $2 $3 position (X,Y) of the first rounded end (center of the circle)*
0 $4 $5 position (X,Y) of the second rounded end (center of the circle)*
0 Add line between two ends*
20,1,$1,$2,$3,$4,$5,0*
0 Add two circle primitives to create the rounded ends*
1,1,$1,$2,$3*
1,1,$1,$4,$5*%
%AMRotRect*
0 Rectangle, with rotation*
0 The origin of the aperture is its center*
0 $1 length*
0 $2 width*
0 $3 Rotation angle, in degrees counterclockwise*
0 Add horizontal line*
21,1,$1,$2,0,0,$3*%
G04 Aperture macros list end*
%ADD10C,4.000000*%
%ADD11C,1.700000*%
%ADD12C,2.200000*%
%ADD13R,1.752600X1.752600*%
%ADD14R,3.250000X2.000000*%
%ADD15C,1.752600*%
%ADD16RotRect,3.200000X2.000000X80.000000*%
%ADD17RotRect,2.000000X2.000000X80.000000*%
%ADD18C,2.000000*%
%ADD19RotRect,1.600000X1.600000X260.000000*%
%ADD20HorizOval,1.600000X0.000000X0.000000X0.000000X0.000000X0*%
%ADD21R,1.600000X1.600000*%
%ADD22O,1.600000X1.600000*%
%ADD23RotRect,1.600000X1.600000X280.000000*%
%ADD24HorizOval,1.600000X0.000000X0.000000X0.000000X0.000000X0*%
%ADD25RotRect,1.700000X1.700000X190.000000*%
%ADD26HorizOval,1.700000X0.000000X0.000000X0.000000X0.000000X0*%
G04 APERTURE END LIST*
D10*
X306589546Y-128320776D03*
D11*
X301586723Y-129202908D03*
X311592369Y-127438643D03*
D12*
X308208825Y-122876886D03*
X302396362Y-126480964D03*
D10*
X287828957Y-131628774D03*
D11*
X282826134Y-132510906D03*
X292831780Y-130746641D03*
D12*
X289448236Y-126184884D03*
X283635773Y-129788962D03*
D11*
X83085231Y-146416596D03*
D10*
X78005231Y-146416596D03*
D11*
X72925231Y-146416596D03*
D12*
X80545231Y-141336596D03*
X74195231Y-143876596D03*
D11*
X116422731Y-108316597D03*
D10*
X111342731Y-108316597D03*
D11*
X106262731Y-108316597D03*
D12*
X113882731Y-103236597D03*
X107532731Y-105776597D03*
D11*
X193854973Y-120149718D03*
D10*
X188852150Y-119267585D03*
D11*
X183849326Y-118385452D03*
D12*
X192235694Y-114705828D03*
X185541098Y-116104574D03*
D11*
X96737731Y-146416595D03*
D10*
X101817731Y-146416595D03*
D11*
X106897731Y-146416595D03*
D12*
X104357731Y-141336595D03*
X98007731Y-143876595D03*
D11*
X245304960Y-139126903D03*
D10*
X250307783Y-138244771D03*
D11*
X255310606Y-137362638D03*
D12*
X251927062Y-132800881D03*
X246114599Y-136404959D03*
D11*
X127567562Y-108461460D03*
X137573209Y-110225726D03*
D10*
X132570386Y-109343593D03*
D12*
X135953930Y-104781836D03*
X129259334Y-106180582D03*
D10*
X327566250Y-125829998D03*
D11*
X332646250Y-125829998D03*
X322486250Y-125829998D03*
D12*
X330106250Y-120749998D03*
X323756250Y-123289998D03*
D11*
X143645671Y-130640343D03*
D10*
X138642848Y-129758210D03*
D11*
X133640024Y-128876077D03*
D12*
X142026392Y-125196453D03*
X135331796Y-126595199D03*
D11*
X156333800Y-113533724D03*
X146328153Y-111769458D03*
D10*
X151330977Y-112651591D03*
D12*
X154714521Y-108089834D03*
X148019925Y-109488580D03*
D10*
X358522501Y-144879999D03*
D11*
X353442501Y-144879999D03*
X363602501Y-144879999D03*
D12*
X361062501Y-139799999D03*
X354712501Y-142339999D03*
D11*
X144946003Y-92181873D03*
D10*
X149948827Y-93064006D03*
D11*
X154951650Y-93946139D03*
D12*
X153332371Y-88502249D03*
X146637775Y-89900995D03*
D11*
X114041000Y-89266597D03*
D10*
X108961000Y-89266597D03*
D11*
X103881000Y-89266597D03*
D12*
X111501000Y-84186597D03*
X105151000Y-86726597D03*
D11*
X261382902Y-116948049D03*
D10*
X256380079Y-117830182D03*
D11*
X251377256Y-118712314D03*
D12*
X257999358Y-112386292D03*
X252186895Y-115990370D03*
D11*
X299660874Y-90854733D03*
X309666520Y-89090468D03*
D10*
X304663697Y-89972601D03*
D12*
X306282976Y-84528711D03*
X300470513Y-88132789D03*
D11*
X329630000Y-106780000D03*
D10*
X334710000Y-106780000D03*
D11*
X339790000Y-106780000D03*
D12*
X337250000Y-101700000D03*
X330900000Y-104240000D03*
D11*
X339789999Y-144880000D03*
D10*
X334709999Y-144880000D03*
D11*
X329629999Y-144880000D03*
D12*
X337249999Y-139800000D03*
X330899999Y-142340000D03*
D11*
X253384756Y-99014462D03*
D10*
X248381933Y-99896595D03*
D11*
X243379110Y-100778727D03*
D12*
X250001212Y-94452705D03*
X244188749Y-98056783D03*
D10*
X194924615Y-139682203D03*
D11*
X199927438Y-140564336D03*
X189921791Y-138800070D03*
D12*
X198308159Y-135120446D03*
X191613563Y-136519192D03*
D10*
X275140666Y-114522185D03*
D11*
X280143489Y-113640052D03*
X270137843Y-115404317D03*
D12*
X276759945Y-109078295D03*
X270947482Y-112682373D03*
D13*
X211350000Y-92770687D03*
D14*
X209572000Y-92770687D03*
X209572000Y-95310687D03*
D15*
X211350000Y-95310687D03*
X211350000Y-97850687D03*
D14*
X209572000Y-97850687D03*
X209572000Y-100390687D03*
D15*
X211350000Y-100390687D03*
D14*
X209572000Y-102930687D03*
D15*
X211350000Y-102930687D03*
D14*
X209572000Y-105470687D03*
D15*
X211350000Y-105470687D03*
X211350000Y-108010687D03*
D14*
X209572000Y-108010687D03*
X209572000Y-110550687D03*
D15*
X211350000Y-110550687D03*
D14*
X209572000Y-113090687D03*
D15*
X211350000Y-113090687D03*
X211350000Y-115630687D03*
D14*
X209572000Y-115630687D03*
X209572000Y-118170687D03*
D15*
X211350000Y-118170687D03*
X211350000Y-120710687D03*
D14*
X209572000Y-120710687D03*
D15*
X226590000Y-120710687D03*
D14*
X228368000Y-120710687D03*
X228368000Y-118170687D03*
D15*
X226590000Y-118170687D03*
X226590000Y-115630687D03*
D14*
X228368000Y-115630687D03*
D15*
X226590000Y-113090687D03*
D14*
X228368000Y-113090687D03*
D15*
X226590000Y-110550687D03*
D14*
X228368000Y-110550687D03*
X228368000Y-108010687D03*
D15*
X226590000Y-108010687D03*
X226590000Y-105470687D03*
D14*
X228368000Y-105470687D03*
D15*
X226590000Y-102930687D03*
D14*
X228368000Y-102930687D03*
D15*
X226590000Y-100390687D03*
D14*
X228368000Y-100390687D03*
X228368000Y-97850687D03*
D15*
X226590000Y-97850687D03*
X226590000Y-95310687D03*
D14*
X228368000Y-95310687D03*
D15*
X226590000Y-92770687D03*
D14*
X228368000Y-92770687D03*
D11*
X92610230Y-127366596D03*
X82450230Y-127366596D03*
D10*
X87530230Y-127366596D03*
D12*
X90070230Y-122286596D03*
X83720230Y-124826596D03*
D11*
X182467177Y-98797867D03*
X192472824Y-100562133D03*
D10*
X187470001Y-99680000D03*
D12*
X190853545Y-95118243D03*
X184158949Y-96516989D03*
D11*
X162406266Y-133948341D03*
X152400619Y-132184075D03*
D10*
X157403443Y-133066208D03*
D12*
X160786987Y-128504451D03*
X154092391Y-129903197D03*
D10*
X312661841Y-107906188D03*
D11*
X307659018Y-108788320D03*
X317664664Y-107024055D03*
D12*
X314281120Y-102462298D03*
X308468657Y-106066376D03*
D10*
X269068370Y-134936772D03*
D11*
X274071193Y-134054639D03*
X264065547Y-135818904D03*
D12*
X270687649Y-129492882D03*
X264875186Y-133096960D03*
D11*
X163706589Y-95489866D03*
X173712236Y-97254132D03*
D10*
X168709413Y-96371999D03*
D12*
X172092957Y-91810242D03*
X165398361Y-93208988D03*
D10*
X293901256Y-111214187D03*
D11*
X298904079Y-110332054D03*
X288898433Y-112096319D03*
D12*
X295520535Y-105770297D03*
X289708072Y-109374375D03*
D10*
X131188236Y-89756006D03*
D11*
X126185412Y-88873873D03*
X136191059Y-90638139D03*
D12*
X134571780Y-85194249D03*
X127877184Y-86592995D03*
D11*
X175094382Y-116841721D03*
X165088735Y-115077455D03*
D10*
X170091559Y-115959588D03*
D12*
X173475103Y-111397831D03*
X166780507Y-112796577D03*
D11*
X272145346Y-95706463D03*
D10*
X267142523Y-96588596D03*
D11*
X262139700Y-97470728D03*
D12*
X268761802Y-91144706D03*
X262949339Y-94748784D03*
D16*
X136822118Y-148938909D03*
X147851964Y-150883769D03*
D17*
X138572660Y-156863277D03*
D18*
X143496699Y-157731518D03*
X141034680Y-157297397D03*
X146014598Y-143451805D03*
X141090559Y-142583564D03*
D10*
X285903111Y-93280599D03*
D11*
X280900288Y-94162731D03*
X290905934Y-92398466D03*
D12*
X287522390Y-87836709D03*
X281709927Y-91440787D03*
D10*
X85148981Y-89266597D03*
D11*
X90228981Y-89266597D03*
X80068981Y-89266597D03*
D12*
X87688981Y-84186597D03*
X81338981Y-86726597D03*
D10*
X302862322Y-148321863D03*
D11*
X307865145Y-147439730D03*
X297859499Y-149203995D03*
D12*
X304481601Y-142877973D03*
X298669138Y-146482051D03*
D11*
X180203928Y-156430428D03*
D10*
X175201105Y-155548295D03*
D11*
X170198281Y-154666162D03*
D12*
X178584649Y-150986538D03*
X171890053Y-152385284D03*
D11*
X83085231Y-127366596D03*
X72925231Y-127366596D03*
D10*
X78005231Y-127366596D03*
D12*
X80545231Y-122286596D03*
X74195231Y-124826596D03*
D10*
X265341147Y-154937858D03*
D11*
X260338324Y-155819990D03*
X270343970Y-154055725D03*
D12*
X266960426Y-149493968D03*
X261147963Y-153098046D03*
D11*
X104516481Y-127366597D03*
X94356481Y-127366597D03*
D10*
X99436481Y-127366597D03*
D12*
X101976481Y-122286597D03*
X95626481Y-124826597D03*
D11*
X356458751Y-87729999D03*
X346298751Y-87729999D03*
D10*
X351378751Y-87729999D03*
D12*
X353918751Y-82649999D03*
X347568751Y-85189999D03*
D10*
X142370078Y-149759296D03*
D11*
X137367254Y-148877163D03*
X147372901Y-150641429D03*
D12*
X145753622Y-145197539D03*
X139059026Y-146596285D03*
D10*
X346616250Y-106780000D03*
D11*
X341536250Y-106780000D03*
X351696250Y-106780000D03*
D12*
X349156250Y-101700000D03*
X342806250Y-104240000D03*
D11*
X332646252Y-87730002D03*
X322486252Y-87730002D03*
D10*
X327566252Y-87730002D03*
D12*
X330106252Y-82650002D03*
X323756252Y-85190002D03*
D11*
X361221249Y-106780001D03*
D10*
X356141249Y-106780001D03*
D11*
X351061249Y-106780001D03*
D12*
X358681249Y-101700001D03*
X352331249Y-104240001D03*
D11*
X181166850Y-137256339D03*
D10*
X176164027Y-136374206D03*
D11*
X171161203Y-135492073D03*
D12*
X179547571Y-131812449D03*
X172852975Y-133211195D03*
D11*
X80068981Y-108316597D03*
D10*
X85148981Y-108316597D03*
D11*
X90228981Y-108316597D03*
D12*
X87688981Y-103236597D03*
X81338981Y-105776597D03*
D11*
X358840000Y-125830001D03*
X348680000Y-125830001D03*
D10*
X353760000Y-125830001D03*
D12*
X356300000Y-120750001D03*
X349950000Y-123290001D03*
D10*
X118486481Y-127366599D03*
D11*
X123566481Y-127366599D03*
X113406481Y-127366599D03*
D12*
X121026481Y-122286599D03*
X114676481Y-124826599D03*
D19*
X153870000Y-141470000D03*
D20*
X152546801Y-148974235D03*
D21*
X94240000Y-99970000D03*
D22*
X94240000Y-107590000D03*
D23*
X254630000Y-90300000D03*
D24*
X255953199Y-97804235D03*
D21*
X94200000Y-109900000D03*
D22*
X94200000Y-117520000D03*
D23*
X276068401Y-86437883D03*
D24*
X277391600Y-93942118D03*
D21*
X125910000Y-123556599D03*
D22*
X125910000Y-131176599D03*
D21*
X326400000Y-96300000D03*
D22*
X326400000Y-103920000D03*
D19*
X178221600Y-89617883D03*
D20*
X176898401Y-97122118D03*
D21*
X345120000Y-122020001D03*
D22*
X345120000Y-129640001D03*
D19*
X142781600Y-100417883D03*
D20*
X141458401Y-107922118D03*
D19*
X179871600Y-106987883D03*
D20*
X178548401Y-114492118D03*
D21*
X93580000Y-85456597D03*
D22*
X93580000Y-93076597D03*
D23*
X297768401Y-125157883D03*
D24*
X299091600Y-132662118D03*
D19*
X182481600Y-107347883D03*
D20*
X181158401Y-114852118D03*
D21*
X325900000Y-141070000D03*
D22*
X325900000Y-148690000D03*
D18*
X340380000Y-85730000D03*
X340380000Y-79230000D03*
X335880000Y-85730000D03*
X335880000Y-79230000D03*
D23*
X288375000Y-142900000D03*
D24*
X289698199Y-150404235D03*
D21*
X342800000Y-79280000D03*
D22*
X342800000Y-86900000D03*
D21*
X120270000Y-104430000D03*
D22*
X120270000Y-112050000D03*
D23*
X279218401Y-128787883D03*
D24*
X280541600Y-136292118D03*
D21*
X342790000Y-91230000D03*
D22*
X342790000Y-98850000D03*
D21*
X107410000Y-123556597D03*
D22*
X107410000Y-131176597D03*
D23*
X290950000Y-142225000D03*
D24*
X292273199Y-149729235D03*
D23*
X283640000Y-101900000D03*
D24*
X284963199Y-109404235D03*
D21*
X319800000Y-79260000D03*
D22*
X319800000Y-86880000D03*
D21*
X319780000Y-122019998D03*
D22*
X319780000Y-129639998D03*
D19*
X180971600Y-90117883D03*
D20*
X179648401Y-97622118D03*
D19*
X157141600Y-141787883D03*
D20*
X155818401Y-149292118D03*
D21*
X116950000Y-85456597D03*
D22*
X116950000Y-93076597D03*
D21*
X349910000Y-141069999D03*
D22*
X349910000Y-148689999D03*
D25*
X324260000Y-109880000D03*
D26*
X324701066Y-112381412D03*
X325142133Y-114882823D03*
D23*
X260278401Y-131667883D03*
D24*
X261601600Y-139172118D03*
D23*
X294811448Y-83130483D03*
D24*
X296134647Y-90634718D03*
D19*
X159631600Y-86197883D03*
D20*
X158308401Y-93702118D03*
D23*
X257940000Y-89930000D03*
D24*
X259263199Y-97434235D03*
D19*
X184950000Y-133380000D03*
D20*
X183626801Y-140884235D03*
D19*
X161211600Y-103797883D03*
D20*
X159888401Y-111302118D03*
D23*
X262950000Y-106050000D03*
D24*
X264273199Y-113554235D03*
D21*
X90525000Y-142606595D03*
D22*
X90525000Y-150226595D03*
D19*
X167120000Y-130347883D03*
D20*
X165796801Y-137852118D03*
D21*
X86475000Y-142606596D03*
D22*
X86475000Y-150226596D03*
D19*
X187661600Y-133347883D03*
D20*
X186338401Y-140852118D03*
D23*
X257538401Y-131717883D03*
D24*
X258861600Y-139222118D03*
D23*
X302110000Y-98640000D03*
D24*
X303433199Y-106144235D03*
D23*
X265480000Y-105330000D03*
D24*
X266803199Y-112834235D03*
D19*
X147381600Y-126367883D03*
D20*
X146058401Y-133872118D03*
D19*
X140751600Y-82937883D03*
D20*
X139428401Y-90442118D03*
M02*
