G04 #@! TF.GenerationSoftware,KiCad,Pcbnew,(6.0.6-69-g6d26e8e3e8)*
G04 #@! TF.CreationDate,2022-07-20T16:21:00-04:00*
G04 #@! TF.ProjectId,alish40,616c6973-6834-4302-9e6b-696361645f70,rev?*
G04 #@! TF.SameCoordinates,Original*
G04 #@! TF.FileFunction,Legend,Bot*
G04 #@! TF.FilePolarity,Positive*
%FSLAX46Y46*%
G04 Gerber Fmt 4.6, Leading zero omitted, Abs format (unit mm)*
G04 Created by KiCad (PCBNEW (6.0.6-69-g6d26e8e3e8)) date 2022-07-20 16:21:00*
%MOMM*%
%LPD*%
G01*
G04 APERTURE LIST*
G04 Aperture macros list*
%AMHorizOval*
0 Thick line with rounded ends*
0 $1 width*
0 $2 $3 position (X,Y) of the first rounded end (center of the circle)*
0 $4 $5 position (X,Y) of the second rounded end (center of the circle)*
0 Add line between two ends*
20,1,$1,$2,$3,$4,$5,0*
0 Add two circle primitives to create the rounded ends*
1,1,$1,$2,$3*
1,1,$1,$4,$5*%
%AMRotRect*
0 Rectangle, with rotation*
0 The origin of the aperture is its center*
0 $1 length*
0 $2 width*
0 $3 Rotation angle, in degrees counterclockwise*
0 Add horizontal line*
21,1,$1,$2,0,0,$3*%
G04 Aperture macros list end*
%ADD10C,0.300000*%
%ADD11C,0.250000*%
%ADD12C,0.150000*%
%ADD13C,0.100000*%
%ADD14C,0.120000*%
%ADD15R,1.752600X1.752600*%
%ADD16C,1.752600*%
%ADD17C,4.000000*%
%ADD18C,1.700000*%
%ADD19C,2.200000*%
%ADD20RotRect,3.200000X2.000000X80.000000*%
%ADD21RotRect,2.000000X2.000000X80.000000*%
%ADD22C,2.000000*%
%ADD23RotRect,1.600000X1.600000X260.000000*%
%ADD24HorizOval,1.600000X0.000000X0.000000X0.000000X0.000000X0*%
%ADD25R,1.600000X1.600000*%
%ADD26O,1.600000X1.600000*%
%ADD27RotRect,1.600000X1.600000X280.000000*%
%ADD28HorizOval,1.600000X0.000000X0.000000X0.000000X0.000000X0*%
%ADD29RotRect,1.700000X1.700000X190.000000*%
%ADD30HorizOval,1.700000X0.000000X0.000000X0.000000X0.000000X0*%
G04 APERTURE END LIST*
D10*
X250092589Y-166097142D02*
X249717589Y-163097142D01*
X249003303Y-163097142D01*
X248592589Y-163240000D01*
X248342589Y-163525714D01*
X248235446Y-163811428D01*
X248164017Y-164382857D01*
X248217589Y-164811428D01*
X248431875Y-165382857D01*
X248610446Y-165668571D01*
X248931875Y-165954285D01*
X249378303Y-166097142D01*
X250092589Y-166097142D01*
X245931875Y-165954285D02*
X246235446Y-166097142D01*
X246806875Y-166097142D01*
X247074732Y-165954285D01*
X247181875Y-165668571D01*
X247039017Y-164525714D01*
X246860446Y-164240000D01*
X246556875Y-164097142D01*
X245985446Y-164097142D01*
X245717589Y-164240000D01*
X245610446Y-164525714D01*
X245646160Y-164811428D01*
X247110446Y-165097142D01*
X244646160Y-165954285D02*
X244378303Y-166097142D01*
X243806875Y-166097142D01*
X243503303Y-165954285D01*
X243324732Y-165668571D01*
X243306875Y-165525714D01*
X243414017Y-165240000D01*
X243681875Y-165097142D01*
X244110446Y-165097142D01*
X244378303Y-164954285D01*
X244485446Y-164668571D01*
X244467589Y-164525714D01*
X244289017Y-164240000D01*
X243985446Y-164097142D01*
X243556875Y-164097142D01*
X243289017Y-164240000D01*
X242092589Y-166097142D02*
X241842589Y-164097142D01*
X241717589Y-163097142D02*
X241878303Y-163240000D01*
X241753303Y-163382857D01*
X241592589Y-163240000D01*
X241717589Y-163097142D01*
X241753303Y-163382857D01*
X239128303Y-164097142D02*
X239431875Y-166525714D01*
X239610446Y-166811428D01*
X239771160Y-166954285D01*
X240074732Y-167097142D01*
X240503303Y-167097142D01*
X240771160Y-166954285D01*
X239360446Y-165954285D02*
X239664017Y-166097142D01*
X240235446Y-166097142D01*
X240503303Y-165954285D01*
X240628303Y-165811428D01*
X240735446Y-165525714D01*
X240628303Y-164668571D01*
X240449732Y-164382857D01*
X240289017Y-164240000D01*
X239985446Y-164097142D01*
X239414017Y-164097142D01*
X239146160Y-164240000D01*
X237699732Y-164097142D02*
X237949732Y-166097142D01*
X237735446Y-164382857D02*
X237574732Y-164240000D01*
X237271160Y-164097142D01*
X236842589Y-164097142D01*
X236574732Y-164240000D01*
X236467589Y-164525714D01*
X236664017Y-166097142D01*
X234074732Y-165954285D02*
X234378303Y-166097142D01*
X234949732Y-166097142D01*
X235217589Y-165954285D01*
X235324732Y-165668571D01*
X235181875Y-164525714D01*
X235003303Y-164240000D01*
X234699732Y-164097142D01*
X234128303Y-164097142D01*
X233860446Y-164240000D01*
X233753303Y-164525714D01*
X233789017Y-164811428D01*
X235253303Y-165097142D01*
X231378303Y-166097142D02*
X231003303Y-163097142D01*
X231360446Y-165954285D02*
X231664017Y-166097142D01*
X232235446Y-166097142D01*
X232503303Y-165954285D01*
X232628303Y-165811428D01*
X232735446Y-165525714D01*
X232628303Y-164668571D01*
X232449732Y-164382857D01*
X232289017Y-164240000D01*
X231985446Y-164097142D01*
X231414017Y-164097142D01*
X231146160Y-164240000D01*
X226467589Y-164525714D02*
X226056875Y-164668571D01*
X225931875Y-164811428D01*
X225824732Y-165097142D01*
X225878303Y-165525714D01*
X226056875Y-165811428D01*
X226217589Y-165954285D01*
X226521160Y-166097142D01*
X227664017Y-166097142D01*
X227289017Y-163097142D01*
X226289017Y-163097142D01*
X226021160Y-163240000D01*
X225896160Y-163382857D01*
X225789017Y-163668571D01*
X225824732Y-163954285D01*
X226003303Y-164240000D01*
X226164017Y-164382857D01*
X226467589Y-164525714D01*
X227467589Y-164525714D01*
X224699732Y-164097142D02*
X224235446Y-166097142D01*
X223271160Y-164097142D02*
X224235446Y-166097142D01*
X224610446Y-166811428D01*
X224771160Y-166954285D01*
X225074732Y-167097142D01*
X218378303Y-166097142D02*
X219199732Y-164668571D01*
X220092589Y-166097142D02*
X219717589Y-163097142D01*
X218574732Y-163097142D01*
X218306875Y-163240000D01*
X218181875Y-163382857D01*
X218074732Y-163668571D01*
X218128303Y-164097142D01*
X218306875Y-164382857D01*
X218467589Y-164525714D01*
X218771160Y-164668571D01*
X219914017Y-164668571D01*
X215931875Y-165954285D02*
X216235446Y-166097142D01*
X216806875Y-166097142D01*
X217074732Y-165954285D01*
X217181875Y-165668571D01*
X217039017Y-164525714D01*
X216860446Y-164240000D01*
X216556875Y-164097142D01*
X215985446Y-164097142D01*
X215717589Y-164240000D01*
X215610446Y-164525714D01*
X215646160Y-164811428D01*
X217110446Y-165097142D01*
X213360446Y-165954285D02*
X213664017Y-166097142D01*
X214235446Y-166097142D01*
X214503303Y-165954285D01*
X214610446Y-165668571D01*
X214467589Y-164525714D01*
X214289017Y-164240000D01*
X213985446Y-164097142D01*
X213414017Y-164097142D01*
X213146160Y-164240000D01*
X213039017Y-164525714D01*
X213074732Y-164811428D01*
X214539017Y-165097142D01*
X210664017Y-166097142D02*
X210289017Y-163097142D01*
X210646160Y-165954285D02*
X210949732Y-166097142D01*
X211521160Y-166097142D01*
X211789017Y-165954285D01*
X211914017Y-165811428D01*
X212021160Y-165525714D01*
X211914017Y-164668571D01*
X211735446Y-164382857D01*
X211574732Y-164240000D01*
X211271160Y-164097142D01*
X210699732Y-164097142D01*
X210431875Y-164240000D01*
X208717589Y-163097142D02*
X209074732Y-163668571D01*
X207931875Y-165954285D02*
X207664017Y-166097142D01*
X207092589Y-166097142D01*
X206789017Y-165954285D01*
X206610446Y-165668571D01*
X206592589Y-165525714D01*
X206699732Y-165240000D01*
X206967589Y-165097142D01*
X207396160Y-165097142D01*
X207664017Y-164954285D01*
X207771160Y-164668571D01*
X207753303Y-164525714D01*
X207574732Y-164240000D01*
X207271160Y-164097142D01*
X206842589Y-164097142D01*
X206574732Y-164240000D01*
X203092589Y-166097142D02*
X202717589Y-163097142D01*
X201378303Y-166097142D02*
X202449732Y-164382857D01*
X201003303Y-163097142D02*
X202931875Y-164811428D01*
X198931875Y-165954285D02*
X199235446Y-166097142D01*
X199806875Y-166097142D01*
X200074732Y-165954285D01*
X200181875Y-165668571D01*
X200039017Y-164525714D01*
X199860446Y-164240000D01*
X199556875Y-164097142D01*
X198985446Y-164097142D01*
X198717589Y-164240000D01*
X198610446Y-164525714D01*
X198646160Y-164811428D01*
X200110446Y-165097142D01*
X196360446Y-165954285D02*
X196664017Y-166097142D01*
X197235446Y-166097142D01*
X197503303Y-165954285D01*
X197610446Y-165668571D01*
X197467589Y-164525714D01*
X197289017Y-164240000D01*
X196985446Y-164097142D01*
X196414017Y-164097142D01*
X196146160Y-164240000D01*
X196039017Y-164525714D01*
X196074732Y-164811428D01*
X197539017Y-165097142D01*
X194949732Y-166097142D02*
X194574732Y-163097142D01*
X194717589Y-164240000D02*
X194414017Y-164097142D01*
X193842589Y-164097142D01*
X193574732Y-164240000D01*
X193449732Y-164382857D01*
X193342589Y-164668571D01*
X193449732Y-165525714D01*
X193628303Y-165811428D01*
X193789017Y-165954285D01*
X194092589Y-166097142D01*
X194664017Y-166097142D01*
X194931875Y-165954285D01*
X192360446Y-165954285D02*
X192092589Y-166097142D01*
X191521160Y-166097142D01*
X191217589Y-165954285D01*
X191039017Y-165668571D01*
X191021160Y-165525714D01*
X191128303Y-165240000D01*
X191396160Y-165097142D01*
X191824732Y-165097142D01*
X192092589Y-164954285D01*
X192199732Y-164668571D01*
X192181875Y-164525714D01*
X192003303Y-164240000D01*
X191699732Y-164097142D01*
X191271160Y-164097142D01*
X191003303Y-164240000D01*
D11*
X328071102Y-115755168D02*
X328153792Y-116224124D01*
X327693105Y-116353709D01*
X327731731Y-116298544D01*
X327762089Y-116196484D01*
X327720744Y-115962006D01*
X327657311Y-115876484D01*
X327602146Y-115837857D01*
X327500086Y-115807500D01*
X327265608Y-115848844D01*
X327180085Y-115912278D01*
X327141459Y-115967443D01*
X327111101Y-116069503D01*
X327152446Y-116303981D01*
X327215879Y-116389503D01*
X327271044Y-116428130D01*
X328013219Y-115426898D02*
X326970529Y-115272277D01*
X327897454Y-114770360D01*
X327229928Y-114549587D02*
X327097625Y-113799257D01*
X326639770Y-113396453D02*
X327624578Y-113222805D01*
X327583233Y-112988327D01*
X327511531Y-112855909D01*
X327401202Y-112778656D01*
X327299142Y-112748298D01*
X327103290Y-112734478D01*
X326962603Y-112759285D01*
X326783290Y-112839257D01*
X326697768Y-112902690D01*
X326620514Y-113013019D01*
X326598426Y-113161975D01*
X326639770Y-113396453D01*
X326466122Y-112411645D02*
X327450930Y-112237997D01*
X326383433Y-111942689D02*
X327368240Y-111769041D01*
X326284205Y-111379942D01*
X327269013Y-111206294D01*
X326576680Y-110844834D02*
X326444377Y-110094504D01*
X326833476Y-109010469D02*
X326896910Y-109095991D01*
X326921716Y-109236678D01*
X326899628Y-109385634D01*
X326822374Y-109495963D01*
X326736852Y-109559397D01*
X326557539Y-109639368D01*
X326416852Y-109664175D01*
X326221001Y-109650355D01*
X326118940Y-109619998D01*
X326008611Y-109542744D01*
X325936909Y-109410326D01*
X325920371Y-109316535D01*
X325942460Y-109167579D01*
X325981086Y-109112415D01*
X326309355Y-109054532D01*
X326342431Y-109242115D01*
X325812874Y-108706892D02*
X326797682Y-108533244D01*
X325713647Y-108144145D01*
X326698455Y-107970497D01*
X325630957Y-107675189D02*
X326615765Y-107501541D01*
X326574420Y-107267063D01*
X326502718Y-107134645D01*
X326392388Y-107057392D01*
X326290328Y-107027034D01*
X326094477Y-107013214D01*
X325953790Y-107038021D01*
X325774477Y-107117993D01*
X325688954Y-107181426D01*
X325611701Y-107291755D01*
X325589612Y-107440711D01*
X325630957Y-107675189D01*
X223243809Y-168392380D02*
X222910476Y-169392380D01*
X222577142Y-168392380D01*
X221720000Y-169392380D02*
X222291428Y-169392380D01*
X222005714Y-169392380D02*
X222005714Y-168392380D01*
X222100952Y-168535238D01*
X222196190Y-168630476D01*
X222291428Y-168678095D01*
X221291428Y-169297142D02*
X221243809Y-169344761D01*
X221291428Y-169392380D01*
X221339047Y-169344761D01*
X221291428Y-169297142D01*
X221291428Y-169392380D01*
X220910476Y-168392380D02*
X220291428Y-168392380D01*
X220624761Y-168773333D01*
X220481904Y-168773333D01*
X220386666Y-168820952D01*
X220339047Y-168868571D01*
X220291428Y-168963809D01*
X220291428Y-169201904D01*
X220339047Y-169297142D01*
X220386666Y-169344761D01*
X220481904Y-169392380D01*
X220767619Y-169392380D01*
X220862857Y-169344761D01*
X220910476Y-169297142D01*
D10*
X338951428Y-88678571D02*
X339451428Y-87964285D01*
X339808571Y-88678571D02*
X339808571Y-87178571D01*
X339237142Y-87178571D01*
X339094285Y-87250000D01*
X339022857Y-87321428D01*
X338951428Y-87464285D01*
X338951428Y-87678571D01*
X339022857Y-87821428D01*
X339094285Y-87892857D01*
X339237142Y-87964285D01*
X339808571Y-87964285D01*
X338380000Y-88607142D02*
X338165714Y-88678571D01*
X337808571Y-88678571D01*
X337665714Y-88607142D01*
X337594285Y-88535714D01*
X337522857Y-88392857D01*
X337522857Y-88250000D01*
X337594285Y-88107142D01*
X337665714Y-88035714D01*
X337808571Y-87964285D01*
X338094285Y-87892857D01*
X338237142Y-87821428D01*
X338308571Y-87750000D01*
X338380000Y-87607142D01*
X338380000Y-87464285D01*
X338308571Y-87321428D01*
X338237142Y-87250000D01*
X338094285Y-87178571D01*
X337737142Y-87178571D01*
X337522857Y-87250000D01*
X337094285Y-87178571D02*
X336237142Y-87178571D01*
X336665714Y-88678571D02*
X336665714Y-87178571D01*
D12*
X213832809Y-120653544D02*
X213718523Y-120691639D01*
X213680428Y-120729734D01*
X213642333Y-120805925D01*
X213642333Y-120920210D01*
X213680428Y-120996401D01*
X213718523Y-121034496D01*
X213794714Y-121072591D01*
X214099476Y-121072591D01*
X214099476Y-120272591D01*
X213832809Y-120272591D01*
X213756619Y-120310687D01*
X213718523Y-120348782D01*
X213680428Y-120424972D01*
X213680428Y-120501163D01*
X213718523Y-120577353D01*
X213756619Y-120615448D01*
X213832809Y-120653544D01*
X214099476Y-120653544D01*
X212918523Y-120272591D02*
X213299476Y-120272591D01*
X213337571Y-120653544D01*
X213299476Y-120615448D01*
X213223285Y-120577353D01*
X213032809Y-120577353D01*
X212956619Y-120615448D01*
X212918523Y-120653544D01*
X212880428Y-120729734D01*
X212880428Y-120920210D01*
X212918523Y-120996401D01*
X212956619Y-121034496D01*
X213032809Y-121072591D01*
X213223285Y-121072591D01*
X213299476Y-121034496D01*
X213337571Y-120996401D01*
X214099476Y-105832591D02*
X214099476Y-105032591D01*
X213909000Y-105032591D01*
X213794714Y-105070687D01*
X213718523Y-105146877D01*
X213680428Y-105223067D01*
X213642333Y-105375448D01*
X213642333Y-105489734D01*
X213680428Y-105642115D01*
X213718523Y-105718306D01*
X213794714Y-105794496D01*
X213909000Y-105832591D01*
X214099476Y-105832591D01*
X213147095Y-105032591D02*
X213070904Y-105032591D01*
X212994714Y-105070687D01*
X212956619Y-105108782D01*
X212918523Y-105184972D01*
X212880428Y-105337353D01*
X212880428Y-105527829D01*
X212918523Y-105680210D01*
X212956619Y-105756401D01*
X212994714Y-105794496D01*
X213070904Y-105832591D01*
X213147095Y-105832591D01*
X213223285Y-105794496D01*
X213261380Y-105756401D01*
X213299476Y-105680210D01*
X213337571Y-105527829D01*
X213337571Y-105337353D01*
X213299476Y-105184972D01*
X213261380Y-105108782D01*
X213223285Y-105070687D01*
X213147095Y-105032591D01*
X224697666Y-105413544D02*
X224964333Y-105413544D01*
X224964333Y-105832591D02*
X224964333Y-105032591D01*
X224583380Y-105032591D01*
X223897666Y-105032591D02*
X224278619Y-105032591D01*
X224316714Y-105413544D01*
X224278619Y-105375448D01*
X224202428Y-105337353D01*
X224011952Y-105337353D01*
X223935761Y-105375448D01*
X223897666Y-105413544D01*
X223859571Y-105489734D01*
X223859571Y-105680210D01*
X223897666Y-105756401D01*
X223935761Y-105794496D01*
X224011952Y-105832591D01*
X224202428Y-105832591D01*
X224278619Y-105794496D01*
X224316714Y-105756401D01*
X214099476Y-95672591D02*
X214099476Y-94872591D01*
X213909000Y-94872591D01*
X213794714Y-94910687D01*
X213718523Y-94986877D01*
X213680428Y-95063067D01*
X213642333Y-95215448D01*
X213642333Y-95329734D01*
X213680428Y-95482115D01*
X213718523Y-95558306D01*
X213794714Y-95634496D01*
X213909000Y-95672591D01*
X214099476Y-95672591D01*
X213337571Y-94948782D02*
X213299476Y-94910687D01*
X213223285Y-94872591D01*
X213032809Y-94872591D01*
X212956619Y-94910687D01*
X212918523Y-94948782D01*
X212880428Y-95024972D01*
X212880428Y-95101163D01*
X212918523Y-95215448D01*
X213375666Y-95672591D01*
X212880428Y-95672591D01*
X225497666Y-99952591D02*
X225231000Y-100752591D01*
X224964333Y-99952591D01*
X224240523Y-100676401D02*
X224278619Y-100714496D01*
X224392904Y-100752591D01*
X224469095Y-100752591D01*
X224583380Y-100714496D01*
X224659571Y-100638306D01*
X224697666Y-100562115D01*
X224735761Y-100409734D01*
X224735761Y-100295448D01*
X224697666Y-100143067D01*
X224659571Y-100066877D01*
X224583380Y-99990687D01*
X224469095Y-99952591D01*
X224392904Y-99952591D01*
X224278619Y-99990687D01*
X224240523Y-100028782D01*
X223440523Y-100676401D02*
X223478619Y-100714496D01*
X223592904Y-100752591D01*
X223669095Y-100752591D01*
X223783380Y-100714496D01*
X223859571Y-100638306D01*
X223897666Y-100562115D01*
X223935761Y-100409734D01*
X223935761Y-100295448D01*
X223897666Y-100143067D01*
X223859571Y-100066877D01*
X223783380Y-99990687D01*
X223669095Y-99952591D01*
X223592904Y-99952591D01*
X223478619Y-99990687D01*
X223440523Y-100028782D01*
X214099476Y-113452591D02*
X214099476Y-112652591D01*
X213909000Y-112652591D01*
X213794714Y-112690687D01*
X213718523Y-112766877D01*
X213680428Y-112843067D01*
X213642333Y-112995448D01*
X213642333Y-113109734D01*
X213680428Y-113262115D01*
X213718523Y-113338306D01*
X213794714Y-113414496D01*
X213909000Y-113452591D01*
X214099476Y-113452591D01*
X213375666Y-112652591D02*
X212842333Y-112652591D01*
X213185190Y-113452591D01*
X224754807Y-120653544D02*
X224640521Y-120691639D01*
X224602426Y-120729734D01*
X224564331Y-120805925D01*
X224564331Y-120920210D01*
X224602426Y-120996401D01*
X224640521Y-121034496D01*
X224716712Y-121072591D01*
X225021474Y-121072591D01*
X225021474Y-120272591D01*
X224754807Y-120272591D01*
X224678617Y-120310687D01*
X224640521Y-120348782D01*
X224602426Y-120424972D01*
X224602426Y-120501163D01*
X224640521Y-120577353D01*
X224678617Y-120615448D01*
X224754807Y-120653544D01*
X225021474Y-120653544D01*
X223878617Y-120272591D02*
X224030998Y-120272591D01*
X224107188Y-120310687D01*
X224145283Y-120348782D01*
X224221474Y-120463067D01*
X224259569Y-120615448D01*
X224259569Y-120920210D01*
X224221474Y-120996401D01*
X224183378Y-121034496D01*
X224107188Y-121072591D01*
X223954807Y-121072591D01*
X223878617Y-121034496D01*
X223840521Y-120996401D01*
X223802426Y-120920210D01*
X223802426Y-120729734D01*
X223840521Y-120653544D01*
X223878617Y-120615448D01*
X223954807Y-120577353D01*
X224107188Y-120577353D01*
X224183378Y-120615448D01*
X224221474Y-120653544D01*
X224259569Y-120729734D01*
X224697666Y-107953544D02*
X224964333Y-107953544D01*
X224964333Y-108372591D02*
X224964333Y-107572591D01*
X224583380Y-107572591D01*
X223935761Y-107572591D02*
X224088142Y-107572591D01*
X224164333Y-107610687D01*
X224202428Y-107648782D01*
X224278619Y-107763067D01*
X224316714Y-107915448D01*
X224316714Y-108220210D01*
X224278619Y-108296401D01*
X224240523Y-108334496D01*
X224164333Y-108372591D01*
X224011952Y-108372591D01*
X223935761Y-108334496D01*
X223897666Y-108296401D01*
X223859571Y-108220210D01*
X223859571Y-108029734D01*
X223897666Y-107953544D01*
X223935761Y-107915448D01*
X224011952Y-107877353D01*
X224164333Y-107877353D01*
X224240523Y-107915448D01*
X224278619Y-107953544D01*
X224316714Y-108029734D01*
X214061380Y-115573544D02*
X213794714Y-115573544D01*
X213680428Y-115992591D02*
X214061380Y-115992591D01*
X214061380Y-115192591D01*
X213680428Y-115192591D01*
X212994714Y-115192591D02*
X213147095Y-115192591D01*
X213223285Y-115230687D01*
X213261380Y-115268782D01*
X213337571Y-115383067D01*
X213375666Y-115535448D01*
X213375666Y-115840210D01*
X213337571Y-115916401D01*
X213299476Y-115954496D01*
X213223285Y-115992591D01*
X213070904Y-115992591D01*
X212994714Y-115954496D01*
X212956619Y-115916401D01*
X212918523Y-115840210D01*
X212918523Y-115649734D01*
X212956619Y-115573544D01*
X212994714Y-115535448D01*
X213070904Y-115497353D01*
X213223285Y-115497353D01*
X213299476Y-115535448D01*
X213337571Y-115573544D01*
X213375666Y-115649734D01*
X214099476Y-108372591D02*
X214099476Y-107572591D01*
X213909000Y-107572591D01*
X213794714Y-107610687D01*
X213718523Y-107686877D01*
X213680428Y-107763067D01*
X213642333Y-107915448D01*
X213642333Y-108029734D01*
X213680428Y-108182115D01*
X213718523Y-108258306D01*
X213794714Y-108334496D01*
X213909000Y-108372591D01*
X214099476Y-108372591D01*
X212956619Y-107839258D02*
X212956619Y-108372591D01*
X213147095Y-107534496D02*
X213337571Y-108105925D01*
X212842333Y-108105925D01*
X224543333Y-98154496D02*
X224429047Y-98192591D01*
X224238571Y-98192591D01*
X224162380Y-98154496D01*
X224124285Y-98116401D01*
X224086190Y-98040210D01*
X224086190Y-97964020D01*
X224124285Y-97887829D01*
X224162380Y-97849734D01*
X224238571Y-97811639D01*
X224390952Y-97773544D01*
X224467142Y-97735448D01*
X224505238Y-97697353D01*
X224543333Y-97621163D01*
X224543333Y-97544972D01*
X224505238Y-97468782D01*
X224467142Y-97430687D01*
X224390952Y-97392591D01*
X224200476Y-97392591D01*
X224086190Y-97430687D01*
X223857619Y-97392591D02*
X223400476Y-97392591D01*
X223629047Y-98192591D02*
X223629047Y-97392591D01*
X224697666Y-102873544D02*
X224964333Y-102873544D01*
X224964333Y-103292591D02*
X224964333Y-102492591D01*
X224583380Y-102492591D01*
X223935761Y-102759258D02*
X223935761Y-103292591D01*
X224126238Y-102454496D02*
X224316714Y-103025925D01*
X223821476Y-103025925D01*
X214118523Y-99990687D02*
X214194714Y-99952591D01*
X214309000Y-99952591D01*
X214423285Y-99990687D01*
X214499476Y-100066877D01*
X214537571Y-100143067D01*
X214575666Y-100295448D01*
X214575666Y-100409734D01*
X214537571Y-100562115D01*
X214499476Y-100638306D01*
X214423285Y-100714496D01*
X214309000Y-100752591D01*
X214232809Y-100752591D01*
X214118523Y-100714496D01*
X214080428Y-100676401D01*
X214080428Y-100409734D01*
X214232809Y-100409734D01*
X213737571Y-100752591D02*
X213737571Y-99952591D01*
X213280428Y-100752591D01*
X213280428Y-99952591D01*
X212899476Y-100752591D02*
X212899476Y-99952591D01*
X212709000Y-99952591D01*
X212594714Y-99990687D01*
X212518523Y-100066877D01*
X212480428Y-100143067D01*
X212442333Y-100295448D01*
X212442333Y-100409734D01*
X212480428Y-100562115D01*
X212518523Y-100638306D01*
X212594714Y-100714496D01*
X212709000Y-100752591D01*
X212899476Y-100752591D01*
X214099476Y-103292591D02*
X214099476Y-102492591D01*
X213909000Y-102492591D01*
X213794714Y-102530687D01*
X213718523Y-102606877D01*
X213680428Y-102683067D01*
X213642333Y-102835448D01*
X213642333Y-102949734D01*
X213680428Y-103102115D01*
X213718523Y-103178306D01*
X213794714Y-103254496D01*
X213909000Y-103292591D01*
X214099476Y-103292591D01*
X212880428Y-103292591D02*
X213337571Y-103292591D01*
X213109000Y-103292591D02*
X213109000Y-102492591D01*
X213185190Y-102606877D01*
X213261380Y-102683067D01*
X213337571Y-102721163D01*
X217290476Y-93161904D02*
X216833333Y-93161904D01*
X217061904Y-93961904D02*
X217061904Y-93161904D01*
X216642857Y-93161904D02*
X216109523Y-93961904D01*
X216109523Y-93161904D02*
X216642857Y-93961904D01*
X215652380Y-93161904D02*
X215576190Y-93161904D01*
X215500000Y-93200000D01*
X215461904Y-93238095D01*
X215423809Y-93314285D01*
X215385714Y-93466666D01*
X215385714Y-93657142D01*
X215423809Y-93809523D01*
X215461904Y-93885714D01*
X215500000Y-93923809D01*
X215576190Y-93961904D01*
X215652380Y-93961904D01*
X215728571Y-93923809D01*
X215766666Y-93885714D01*
X215804761Y-93809523D01*
X215842857Y-93657142D01*
X215842857Y-93466666D01*
X215804761Y-93314285D01*
X215766666Y-93238095D01*
X215728571Y-93200000D01*
X215652380Y-93161904D01*
X214471428Y-93123809D02*
X215157142Y-94152380D01*
X214204761Y-93961904D02*
X214204761Y-93161904D01*
X214014285Y-93161904D01*
X213900000Y-93200000D01*
X213823809Y-93276190D01*
X213785714Y-93352380D01*
X213747619Y-93504761D01*
X213747619Y-93619047D01*
X213785714Y-93771428D01*
X213823809Y-93847619D01*
X213900000Y-93923809D01*
X214014285Y-93961904D01*
X214204761Y-93961904D01*
X213480952Y-93161904D02*
X212985714Y-93161904D01*
X213252380Y-93466666D01*
X213138095Y-93466666D01*
X213061904Y-93504761D01*
X213023809Y-93542857D01*
X212985714Y-93619047D01*
X212985714Y-93809523D01*
X213023809Y-93885714D01*
X213061904Y-93923809D01*
X213138095Y-93961904D01*
X213366666Y-93961904D01*
X213442857Y-93923809D01*
X213480952Y-93885714D01*
X214118523Y-97450687D02*
X214194714Y-97412591D01*
X214309000Y-97412591D01*
X214423285Y-97450687D01*
X214499476Y-97526877D01*
X214537571Y-97603067D01*
X214575666Y-97755448D01*
X214575666Y-97869734D01*
X214537571Y-98022115D01*
X214499476Y-98098306D01*
X214423285Y-98174496D01*
X214309000Y-98212591D01*
X214232809Y-98212591D01*
X214118523Y-98174496D01*
X214080428Y-98136401D01*
X214080428Y-97869734D01*
X214232809Y-97869734D01*
X213737571Y-98212591D02*
X213737571Y-97412591D01*
X213280428Y-98212591D01*
X213280428Y-97412591D01*
X212899476Y-98212591D02*
X212899476Y-97412591D01*
X212709000Y-97412591D01*
X212594714Y-97450687D01*
X212518523Y-97526877D01*
X212480428Y-97603067D01*
X212442333Y-97755448D01*
X212442333Y-97869734D01*
X212480428Y-98022115D01*
X212518523Y-98098306D01*
X212594714Y-98174496D01*
X212709000Y-98212591D01*
X212899476Y-98212591D01*
X224754809Y-115573544D02*
X224640523Y-115611639D01*
X224602428Y-115649734D01*
X224564333Y-115725925D01*
X224564333Y-115840210D01*
X224602428Y-115916401D01*
X224640523Y-115954496D01*
X224716714Y-115992591D01*
X225021476Y-115992591D01*
X225021476Y-115192591D01*
X224754809Y-115192591D01*
X224678619Y-115230687D01*
X224640523Y-115268782D01*
X224602428Y-115344972D01*
X224602428Y-115421163D01*
X224640523Y-115497353D01*
X224678619Y-115535448D01*
X224754809Y-115573544D01*
X225021476Y-115573544D01*
X224297666Y-115192591D02*
X223802428Y-115192591D01*
X224069095Y-115497353D01*
X223954809Y-115497353D01*
X223878619Y-115535448D01*
X223840523Y-115573544D01*
X223802428Y-115649734D01*
X223802428Y-115840210D01*
X223840523Y-115916401D01*
X223878619Y-115954496D01*
X223954809Y-115992591D01*
X224183380Y-115992591D01*
X224259571Y-115954496D01*
X224297666Y-115916401D01*
X224754809Y-118113544D02*
X224640523Y-118151639D01*
X224602428Y-118189734D01*
X224564333Y-118265925D01*
X224564333Y-118380210D01*
X224602428Y-118456401D01*
X224640523Y-118494496D01*
X224716714Y-118532591D01*
X225021476Y-118532591D01*
X225021476Y-117732591D01*
X224754809Y-117732591D01*
X224678619Y-117770687D01*
X224640523Y-117808782D01*
X224602428Y-117884972D01*
X224602428Y-117961163D01*
X224640523Y-118037353D01*
X224678619Y-118075448D01*
X224754809Y-118113544D01*
X225021476Y-118113544D01*
X224259571Y-117808782D02*
X224221476Y-117770687D01*
X224145285Y-117732591D01*
X223954809Y-117732591D01*
X223878619Y-117770687D01*
X223840523Y-117808782D01*
X223802428Y-117884972D01*
X223802428Y-117961163D01*
X223840523Y-118075448D01*
X224297666Y-118532591D01*
X223802428Y-118532591D01*
X213642333Y-110836401D02*
X213680428Y-110874496D01*
X213794714Y-110912591D01*
X213870904Y-110912591D01*
X213985190Y-110874496D01*
X214061380Y-110798306D01*
X214099476Y-110722115D01*
X214137571Y-110569734D01*
X214137571Y-110455448D01*
X214099476Y-110303067D01*
X214061380Y-110226877D01*
X213985190Y-110150687D01*
X213870904Y-110112591D01*
X213794714Y-110112591D01*
X213680428Y-110150687D01*
X213642333Y-110188782D01*
X212956619Y-110112591D02*
X213109000Y-110112591D01*
X213185190Y-110150687D01*
X213223285Y-110188782D01*
X213299476Y-110303067D01*
X213337571Y-110455448D01*
X213337571Y-110760210D01*
X213299476Y-110836401D01*
X213261380Y-110874496D01*
X213185190Y-110912591D01*
X213032809Y-110912591D01*
X212956619Y-110874496D01*
X212918523Y-110836401D01*
X212880428Y-110760210D01*
X212880428Y-110569734D01*
X212918523Y-110493544D01*
X212956619Y-110455448D01*
X213032809Y-110417353D01*
X213185190Y-110417353D01*
X213261380Y-110455448D01*
X213299476Y-110493544D01*
X213337571Y-110569734D01*
X225040523Y-94910687D02*
X225116714Y-94872591D01*
X225231000Y-94872591D01*
X225345285Y-94910687D01*
X225421476Y-94986877D01*
X225459571Y-95063067D01*
X225497666Y-95215448D01*
X225497666Y-95329734D01*
X225459571Y-95482115D01*
X225421476Y-95558306D01*
X225345285Y-95634496D01*
X225231000Y-95672591D01*
X225154809Y-95672591D01*
X225040523Y-95634496D01*
X225002428Y-95596401D01*
X225002428Y-95329734D01*
X225154809Y-95329734D01*
X224659571Y-95672591D02*
X224659571Y-94872591D01*
X224202428Y-95672591D01*
X224202428Y-94872591D01*
X223821476Y-95672591D02*
X223821476Y-94872591D01*
X223631000Y-94872591D01*
X223516714Y-94910687D01*
X223440523Y-94986877D01*
X223402428Y-95063067D01*
X223364333Y-95215448D01*
X223364333Y-95329734D01*
X223402428Y-95482115D01*
X223440523Y-95558306D01*
X223516714Y-95634496D01*
X223631000Y-95672591D01*
X223821476Y-95672591D01*
X224754809Y-113033544D02*
X224640523Y-113071639D01*
X224602428Y-113109734D01*
X224564333Y-113185925D01*
X224564333Y-113300210D01*
X224602428Y-113376401D01*
X224640523Y-113414496D01*
X224716714Y-113452591D01*
X225021476Y-113452591D01*
X225021476Y-112652591D01*
X224754809Y-112652591D01*
X224678619Y-112690687D01*
X224640523Y-112728782D01*
X224602428Y-112804972D01*
X224602428Y-112881163D01*
X224640523Y-112957353D01*
X224678619Y-112995448D01*
X224754809Y-113033544D01*
X225021476Y-113033544D01*
X223802428Y-113452591D02*
X224259571Y-113452591D01*
X224031000Y-113452591D02*
X224031000Y-112652591D01*
X224107190Y-112766877D01*
X224183380Y-112843067D01*
X224259571Y-112881163D01*
X213832809Y-118113544D02*
X213718523Y-118151639D01*
X213680428Y-118189734D01*
X213642333Y-118265925D01*
X213642333Y-118380210D01*
X213680428Y-118456401D01*
X213718523Y-118494496D01*
X213794714Y-118532591D01*
X214099476Y-118532591D01*
X214099476Y-117732591D01*
X213832809Y-117732591D01*
X213756619Y-117770687D01*
X213718523Y-117808782D01*
X213680428Y-117884972D01*
X213680428Y-117961163D01*
X213718523Y-118037353D01*
X213756619Y-118075448D01*
X213832809Y-118113544D01*
X214099476Y-118113544D01*
X212956619Y-117999258D02*
X212956619Y-118532591D01*
X213147095Y-117694496D02*
X213337571Y-118265925D01*
X212842333Y-118265925D01*
X224754809Y-92713544D02*
X224640523Y-92751639D01*
X224602428Y-92789734D01*
X224564333Y-92865925D01*
X224564333Y-92980210D01*
X224602428Y-93056401D01*
X224640523Y-93094496D01*
X224716714Y-93132591D01*
X225021476Y-93132591D01*
X225021476Y-92332591D01*
X224754809Y-92332591D01*
X224678619Y-92370687D01*
X224640523Y-92408782D01*
X224602428Y-92484972D01*
X224602428Y-92561163D01*
X224640523Y-92637353D01*
X224678619Y-92675448D01*
X224754809Y-92713544D01*
X225021476Y-92713544D01*
X224069095Y-92332591D02*
X223992904Y-92332591D01*
X223916714Y-92370687D01*
X223878619Y-92408782D01*
X223840523Y-92484972D01*
X223802428Y-92637353D01*
X223802428Y-92827829D01*
X223840523Y-92980210D01*
X223878619Y-93056401D01*
X223916714Y-93094496D01*
X223992904Y-93132591D01*
X224069095Y-93132591D01*
X224145285Y-93094496D01*
X224183380Y-93056401D01*
X224221476Y-92980210D01*
X224259571Y-92827829D01*
X224259571Y-92637353D01*
X224221476Y-92484972D01*
X224183380Y-92408782D01*
X224145285Y-92370687D01*
X224069095Y-92332591D01*
X224697666Y-110493544D02*
X224964333Y-110493544D01*
X224964333Y-110912591D02*
X224964333Y-110112591D01*
X224583380Y-110112591D01*
X224354809Y-110112591D02*
X223821476Y-110112591D01*
X224164333Y-110912591D01*
X151776974Y-143736700D02*
X150792167Y-143563051D01*
X150750822Y-143797530D01*
X150772910Y-143946485D01*
X150850164Y-144056814D01*
X150935686Y-144120248D01*
X151114999Y-144200219D01*
X151255686Y-144225026D01*
X151451538Y-144211207D01*
X151553598Y-144180849D01*
X151663927Y-144103596D01*
X151735629Y-143971178D01*
X151776974Y-143736700D01*
X150872367Y-145027802D02*
X151528905Y-145143568D01*
X150538547Y-144727173D02*
X151283326Y-144616729D01*
X151175829Y-145226372D01*
X150420063Y-145673354D02*
X150403525Y-145767145D01*
X150433883Y-145869205D01*
X150472510Y-145924370D01*
X150558032Y-145987803D01*
X150737345Y-146067775D01*
X150971823Y-146109120D01*
X151167675Y-146095300D01*
X151269735Y-146064942D01*
X151324900Y-146026315D01*
X151388333Y-145940793D01*
X151404871Y-145847002D01*
X151374513Y-145744942D01*
X151335887Y-145689777D01*
X151250364Y-145626344D01*
X151071051Y-145546372D01*
X150836573Y-145505027D01*
X150640722Y-145518847D01*
X150538661Y-145549205D01*
X150483497Y-145587832D01*
X150420063Y-145673354D01*
X92572380Y-102565714D02*
X91572380Y-102565714D01*
X91572380Y-102803809D01*
X91620000Y-102946666D01*
X91715238Y-103041904D01*
X91810476Y-103089523D01*
X92000952Y-103137142D01*
X92143809Y-103137142D01*
X92334285Y-103089523D01*
X92429523Y-103041904D01*
X92524761Y-102946666D01*
X92572380Y-102803809D01*
X92572380Y-102565714D01*
X92572380Y-104089523D02*
X92572380Y-103518095D01*
X92572380Y-103803809D02*
X91572380Y-103803809D01*
X91715238Y-103708571D01*
X91810476Y-103613333D01*
X91858095Y-103518095D01*
X91572380Y-104422857D02*
X91572380Y-105041904D01*
X91953333Y-104708571D01*
X91953333Y-104851428D01*
X92000952Y-104946666D01*
X92048571Y-104994285D01*
X92143809Y-105041904D01*
X92381904Y-105041904D01*
X92477142Y-104994285D01*
X92524761Y-104946666D01*
X92572380Y-104851428D01*
X92572380Y-104565714D01*
X92524761Y-104470476D01*
X92477142Y-104422857D01*
X253521146Y-93614814D02*
X252536338Y-93788463D01*
X252577683Y-94022941D01*
X252649385Y-94155359D01*
X252759715Y-94232612D01*
X252861775Y-94262970D01*
X253057626Y-94276789D01*
X253198313Y-94251982D01*
X253377626Y-94172011D01*
X253463149Y-94108577D01*
X253540402Y-93998248D01*
X253562491Y-93849292D01*
X253521146Y-93614814D01*
X252693448Y-94679479D02*
X252809214Y-95336018D01*
X253719601Y-94740309D01*
X92532380Y-112495714D02*
X91532380Y-112495714D01*
X91532380Y-112733809D01*
X91580000Y-112876666D01*
X91675238Y-112971904D01*
X91770476Y-113019523D01*
X91960952Y-113067142D01*
X92103809Y-113067142D01*
X92294285Y-113019523D01*
X92389523Y-112971904D01*
X92484761Y-112876666D01*
X92532380Y-112733809D01*
X92532380Y-112495714D01*
X91627619Y-113448095D02*
X91580000Y-113495714D01*
X91532380Y-113590952D01*
X91532380Y-113829047D01*
X91580000Y-113924285D01*
X91627619Y-113971904D01*
X91722857Y-114019523D01*
X91818095Y-114019523D01*
X91960952Y-113971904D01*
X92532380Y-113400476D01*
X92532380Y-114019523D01*
X91532380Y-114924285D02*
X91532380Y-114448095D01*
X92008571Y-114400476D01*
X91960952Y-114448095D01*
X91913333Y-114543333D01*
X91913333Y-114781428D01*
X91960952Y-114876666D01*
X92008571Y-114924285D01*
X92103809Y-114971904D01*
X92341904Y-114971904D01*
X92437142Y-114924285D01*
X92484761Y-114876666D01*
X92532380Y-114781428D01*
X92532380Y-114543333D01*
X92484761Y-114448095D01*
X92437142Y-114400476D01*
X274959547Y-89752697D02*
X273974739Y-89926346D01*
X274016084Y-90160824D01*
X274087786Y-90293242D01*
X274198116Y-90370495D01*
X274300176Y-90400853D01*
X274496027Y-90414672D01*
X274636714Y-90389865D01*
X274816027Y-90309894D01*
X274901550Y-90246460D01*
X274978803Y-90136131D01*
X275000892Y-89987175D01*
X274959547Y-89752697D01*
X275141464Y-90784401D02*
X275174540Y-90971983D01*
X275144182Y-91074043D01*
X275105556Y-91129208D01*
X274981407Y-91247806D01*
X274802093Y-91327778D01*
X274426928Y-91393929D01*
X274324868Y-91363572D01*
X274269704Y-91324945D01*
X274206270Y-91239423D01*
X274173194Y-91051840D01*
X274203552Y-90949780D01*
X274242179Y-90894615D01*
X274327701Y-90831182D01*
X274562179Y-90789837D01*
X274664239Y-90820195D01*
X274719404Y-90858821D01*
X274782837Y-90944344D01*
X274815913Y-91131926D01*
X274785555Y-91233986D01*
X274746929Y-91289151D01*
X274661406Y-91352584D01*
X128452380Y-126285714D02*
X127452380Y-126285714D01*
X127452380Y-126523809D01*
X127500000Y-126666666D01*
X127595238Y-126761904D01*
X127690476Y-126809523D01*
X127880952Y-126857142D01*
X128023809Y-126857142D01*
X128214285Y-126809523D01*
X128309523Y-126761904D01*
X128404761Y-126666666D01*
X128452380Y-126523809D01*
X128452380Y-126285714D01*
X127547619Y-127238095D02*
X127500000Y-127285714D01*
X127452380Y-127380952D01*
X127452380Y-127619047D01*
X127500000Y-127714285D01*
X127547619Y-127761904D01*
X127642857Y-127809523D01*
X127738095Y-127809523D01*
X127880952Y-127761904D01*
X128452380Y-127190476D01*
X128452380Y-127809523D01*
X127452380Y-128666666D02*
X127452380Y-128476190D01*
X127500000Y-128380952D01*
X127547619Y-128333333D01*
X127690476Y-128238095D01*
X127880952Y-128190476D01*
X128261904Y-128190476D01*
X128357142Y-128238095D01*
X128404761Y-128285714D01*
X128452380Y-128380952D01*
X128452380Y-128571428D01*
X128404761Y-128666666D01*
X128357142Y-128714285D01*
X128261904Y-128761904D01*
X128023809Y-128761904D01*
X127928571Y-128714285D01*
X127880952Y-128666666D01*
X127833333Y-128571428D01*
X127833333Y-128380952D01*
X127880952Y-128285714D01*
X127928571Y-128238095D01*
X128023809Y-128190476D01*
X324732380Y-98895714D02*
X323732380Y-98895714D01*
X323732380Y-99133809D01*
X323780000Y-99276666D01*
X323875238Y-99371904D01*
X323970476Y-99419523D01*
X324160952Y-99467142D01*
X324303809Y-99467142D01*
X324494285Y-99419523D01*
X324589523Y-99371904D01*
X324684761Y-99276666D01*
X324732380Y-99133809D01*
X324732380Y-98895714D01*
X323827619Y-99848095D02*
X323780000Y-99895714D01*
X323732380Y-99990952D01*
X323732380Y-100229047D01*
X323780000Y-100324285D01*
X323827619Y-100371904D01*
X323922857Y-100419523D01*
X324018095Y-100419523D01*
X324160952Y-100371904D01*
X324732380Y-99800476D01*
X324732380Y-100419523D01*
X323732380Y-100752857D02*
X323732380Y-101371904D01*
X324113333Y-101038571D01*
X324113333Y-101181428D01*
X324160952Y-101276666D01*
X324208571Y-101324285D01*
X324303809Y-101371904D01*
X324541904Y-101371904D01*
X324637142Y-101324285D01*
X324684761Y-101276666D01*
X324732380Y-101181428D01*
X324732380Y-100895714D01*
X324684761Y-100800476D01*
X324637142Y-100752857D01*
X176045885Y-92353539D02*
X175061077Y-92179891D01*
X175019732Y-92414369D01*
X175041821Y-92563324D01*
X175119074Y-92673653D01*
X175204596Y-92737087D01*
X175383910Y-92817058D01*
X175524597Y-92841865D01*
X175720448Y-92828046D01*
X175822508Y-92797688D01*
X175932837Y-92720435D01*
X176004540Y-92588017D01*
X176045885Y-92353539D01*
X174804739Y-93633654D02*
X174887429Y-93164698D01*
X175364654Y-93200492D01*
X175309489Y-93239119D01*
X175246056Y-93324641D01*
X175204711Y-93559119D01*
X175235069Y-93661179D01*
X175273695Y-93716344D01*
X175359217Y-93779778D01*
X175593695Y-93821122D01*
X175695756Y-93790765D01*
X175750920Y-93752138D01*
X175814354Y-93666616D01*
X175855699Y-93432138D01*
X175825341Y-93330078D01*
X175786714Y-93274913D01*
X343452380Y-124615715D02*
X342452380Y-124615715D01*
X342452380Y-124853810D01*
X342500000Y-124996667D01*
X342595238Y-125091905D01*
X342690476Y-125139524D01*
X342880952Y-125187143D01*
X343023809Y-125187143D01*
X343214285Y-125139524D01*
X343309523Y-125091905D01*
X343404761Y-124996667D01*
X343452380Y-124853810D01*
X343452380Y-124615715D01*
X342452380Y-125520477D02*
X342452380Y-126139524D01*
X342833333Y-125806191D01*
X342833333Y-125949048D01*
X342880952Y-126044286D01*
X342928571Y-126091905D01*
X343023809Y-126139524D01*
X343261904Y-126139524D01*
X343357142Y-126091905D01*
X343404761Y-126044286D01*
X343452380Y-125949048D01*
X343452380Y-125663334D01*
X343404761Y-125568096D01*
X343357142Y-125520477D01*
X342452380Y-126996667D02*
X342452380Y-126806191D01*
X342500000Y-126710953D01*
X342547619Y-126663334D01*
X342690476Y-126568096D01*
X342880952Y-126520477D01*
X343261904Y-126520477D01*
X343357142Y-126568096D01*
X343404761Y-126615715D01*
X343452380Y-126710953D01*
X343452380Y-126901429D01*
X343404761Y-126996667D01*
X343357142Y-127044286D01*
X343261904Y-127091905D01*
X343023809Y-127091905D01*
X342928571Y-127044286D01*
X342880952Y-126996667D01*
X342833333Y-126901429D01*
X342833333Y-126710953D01*
X342880952Y-126615715D01*
X342928571Y-126568096D01*
X343023809Y-126520477D01*
X140688574Y-102684583D02*
X139703767Y-102510934D01*
X139662422Y-102745413D01*
X139684510Y-102894368D01*
X139761764Y-103004697D01*
X139847286Y-103068131D01*
X140026599Y-103148102D01*
X140167286Y-103172909D01*
X140363138Y-103159090D01*
X140465198Y-103128732D01*
X140575527Y-103051479D01*
X140647229Y-102919061D01*
X140688574Y-102684583D01*
X140423968Y-104185242D02*
X140523195Y-103622495D01*
X140473581Y-103903868D02*
X139488774Y-103730220D01*
X139645998Y-103661236D01*
X139756327Y-103583983D01*
X139819761Y-103498460D01*
X139282050Y-104902610D02*
X139364739Y-104433654D01*
X139841964Y-104469448D01*
X139786800Y-104508075D01*
X139723366Y-104593597D01*
X139682021Y-104828075D01*
X139712379Y-104930135D01*
X139751006Y-104985300D01*
X139836528Y-105048734D01*
X140071006Y-105090078D01*
X140173066Y-105059721D01*
X140228231Y-105021094D01*
X140291664Y-104935572D01*
X140333009Y-104701094D01*
X140302651Y-104599034D01*
X140264025Y-104543869D01*
X177778574Y-109254583D02*
X176793767Y-109080934D01*
X176752422Y-109315413D01*
X176774510Y-109464368D01*
X176851764Y-109574697D01*
X176937286Y-109638131D01*
X177116599Y-109718102D01*
X177257286Y-109742909D01*
X177453138Y-109729090D01*
X177555198Y-109698732D01*
X177665527Y-109621479D01*
X177737229Y-109489061D01*
X177778574Y-109254583D01*
X177513968Y-110755242D02*
X177613195Y-110192495D01*
X177563581Y-110473868D02*
X176578774Y-110300220D01*
X176735998Y-110231236D01*
X176846327Y-110153983D01*
X176909761Y-110068460D01*
X176471277Y-110909863D02*
X176355512Y-111566402D01*
X177414740Y-111317989D01*
X96052380Y-88761904D02*
X95052380Y-88761904D01*
X95052380Y-89000000D01*
X95100000Y-89142857D01*
X95195238Y-89238095D01*
X95290476Y-89285714D01*
X95480952Y-89333333D01*
X95623809Y-89333333D01*
X95814285Y-89285714D01*
X95909523Y-89238095D01*
X96004761Y-89142857D01*
X96052380Y-89000000D01*
X96052380Y-88761904D01*
X96052380Y-90285714D02*
X96052380Y-89714285D01*
X96052380Y-90000000D02*
X95052380Y-90000000D01*
X95195238Y-89904761D01*
X95290476Y-89809523D01*
X95338095Y-89714285D01*
X296576857Y-128003741D02*
X295592050Y-128177390D01*
X295633394Y-128411868D01*
X295705097Y-128544285D01*
X295815426Y-128621539D01*
X295917486Y-128651896D01*
X296113338Y-128665716D01*
X296254024Y-128640909D01*
X296433338Y-128560938D01*
X296518860Y-128497504D01*
X296596113Y-128387175D01*
X296618202Y-128238219D01*
X296576857Y-128003741D01*
X295749160Y-129068406D02*
X295856656Y-129678049D01*
X296173938Y-129283628D01*
X296198745Y-129424315D01*
X296262179Y-129509837D01*
X296317343Y-129548464D01*
X296419404Y-129578821D01*
X296653882Y-129537477D01*
X296739404Y-129474043D01*
X296778030Y-129418879D01*
X296808388Y-129316818D01*
X296758774Y-129035445D01*
X296695341Y-128949922D01*
X296640176Y-128911296D01*
X296333767Y-130464287D02*
X296990305Y-130348522D01*
X295917257Y-130295961D02*
X296579346Y-129937448D01*
X296686843Y-130547091D01*
X184656366Y-110482717D02*
X183671559Y-110309068D01*
X183630214Y-110543547D01*
X183652302Y-110692502D01*
X183729556Y-110802831D01*
X183815078Y-110866265D01*
X183994391Y-110946236D01*
X184135078Y-110971043D01*
X184330930Y-110957224D01*
X184432990Y-110926866D01*
X184543319Y-110849613D01*
X184615021Y-110717195D01*
X184656366Y-110482717D01*
X184391760Y-111983376D02*
X184490987Y-111420629D01*
X184441373Y-111702002D02*
X183456566Y-111528354D01*
X183613790Y-111459370D01*
X183724119Y-111382117D01*
X183787553Y-111296594D01*
X183729785Y-112446896D02*
X183699427Y-112344836D01*
X183660800Y-112289671D01*
X183575278Y-112226238D01*
X183528383Y-112217969D01*
X183426322Y-112248326D01*
X183371158Y-112286953D01*
X183307724Y-112372475D01*
X183274648Y-112560058D01*
X183305006Y-112662118D01*
X183343633Y-112717282D01*
X183429155Y-112780716D01*
X183476051Y-112788985D01*
X183578111Y-112758627D01*
X183633275Y-112720001D01*
X183696709Y-112634478D01*
X183729785Y-112446896D01*
X183793218Y-112361374D01*
X183848383Y-112322747D01*
X183950443Y-112292389D01*
X184138025Y-112325465D01*
X184223548Y-112388899D01*
X184262174Y-112444063D01*
X184292532Y-112546123D01*
X184259456Y-112733706D01*
X184196023Y-112819228D01*
X184140858Y-112857855D01*
X184038798Y-112888212D01*
X183851215Y-112855137D01*
X183765693Y-112791703D01*
X183727067Y-112736538D01*
X183696709Y-112634478D01*
X324232380Y-143665714D02*
X323232380Y-143665714D01*
X323232380Y-143903809D01*
X323280000Y-144046666D01*
X323375238Y-144141904D01*
X323470476Y-144189523D01*
X323660952Y-144237142D01*
X323803809Y-144237142D01*
X323994285Y-144189523D01*
X324089523Y-144141904D01*
X324184761Y-144046666D01*
X324232380Y-143903809D01*
X324232380Y-143665714D01*
X323565714Y-145094285D02*
X324232380Y-145094285D01*
X323184761Y-144856190D02*
X323899047Y-144618095D01*
X323899047Y-145237142D01*
X323565714Y-146046666D02*
X324232380Y-146046666D01*
X323184761Y-145808571D02*
X323899047Y-145570476D01*
X323899047Y-146189523D01*
X287183456Y-145745858D02*
X286198649Y-145919507D01*
X286239993Y-146153985D01*
X286311696Y-146286402D01*
X286422025Y-146363656D01*
X286524085Y-146394013D01*
X286719937Y-146407833D01*
X286860623Y-146383026D01*
X287039937Y-146303055D01*
X287125459Y-146239621D01*
X287202712Y-146129292D01*
X287224801Y-145980336D01*
X287183456Y-145745858D01*
X286774987Y-147268492D02*
X287431525Y-147152727D01*
X286358477Y-147100166D02*
X287020566Y-146741653D01*
X287128063Y-147351296D01*
X286623198Y-147778793D02*
X286584572Y-147833958D01*
X286554214Y-147936018D01*
X286595559Y-148170496D01*
X286658992Y-148256018D01*
X286714157Y-148294645D01*
X286816217Y-148325002D01*
X286910008Y-148308464D01*
X287042426Y-148236762D01*
X287505946Y-147574787D01*
X287613442Y-148184430D01*
X345252380Y-81685714D02*
X344252380Y-81685714D01*
X344252380Y-81923809D01*
X344300000Y-82066666D01*
X344395238Y-82161904D01*
X344490476Y-82209523D01*
X344680952Y-82257142D01*
X344823809Y-82257142D01*
X345014285Y-82209523D01*
X345109523Y-82161904D01*
X345204761Y-82066666D01*
X345252380Y-81923809D01*
X345252380Y-81685714D01*
X345252380Y-83209523D02*
X345252380Y-82638095D01*
X345252380Y-82923809D02*
X344252380Y-82923809D01*
X344395238Y-82828571D01*
X344490476Y-82733333D01*
X344538095Y-82638095D01*
X344347619Y-83590476D02*
X344300000Y-83638095D01*
X344252380Y-83733333D01*
X344252380Y-83971428D01*
X344300000Y-84066666D01*
X344347619Y-84114285D01*
X344442857Y-84161904D01*
X344538095Y-84161904D01*
X344680952Y-84114285D01*
X345252380Y-83542857D01*
X345252380Y-84161904D01*
X118602380Y-107025714D02*
X117602380Y-107025714D01*
X117602380Y-107263809D01*
X117650000Y-107406666D01*
X117745238Y-107501904D01*
X117840476Y-107549523D01*
X118030952Y-107597142D01*
X118173809Y-107597142D01*
X118364285Y-107549523D01*
X118459523Y-107501904D01*
X118554761Y-107406666D01*
X118602380Y-107263809D01*
X118602380Y-107025714D01*
X118602380Y-108549523D02*
X118602380Y-107978095D01*
X118602380Y-108263809D02*
X117602380Y-108263809D01*
X117745238Y-108168571D01*
X117840476Y-108073333D01*
X117888095Y-107978095D01*
X117935714Y-109406666D02*
X118602380Y-109406666D01*
X117554761Y-109168571D02*
X118269047Y-108930476D01*
X118269047Y-109549523D01*
X278026857Y-131633741D02*
X277042050Y-131807390D01*
X277083394Y-132041868D01*
X277155097Y-132174285D01*
X277265426Y-132251539D01*
X277367486Y-132281896D01*
X277563338Y-132295716D01*
X277704024Y-132270909D01*
X277883338Y-132190938D01*
X277968860Y-132127504D01*
X278046113Y-132017175D01*
X278068202Y-131868219D01*
X278026857Y-131633741D01*
X277199160Y-132698406D02*
X277306656Y-133308049D01*
X277623938Y-132913628D01*
X277648745Y-133054315D01*
X277712179Y-133139837D01*
X277767343Y-133178464D01*
X277869404Y-133208821D01*
X278103882Y-133167477D01*
X278189404Y-133104043D01*
X278228030Y-133048879D01*
X278258388Y-132946818D01*
X278208774Y-132665445D01*
X278145341Y-132579922D01*
X278090176Y-132541296D01*
X277364539Y-133636318D02*
X277472035Y-134245961D01*
X277789318Y-133851540D01*
X277814124Y-133992227D01*
X277877558Y-134077749D01*
X277932723Y-134116376D01*
X278034783Y-134146734D01*
X278269261Y-134105389D01*
X278354783Y-134041955D01*
X278393410Y-133986791D01*
X278423767Y-133884731D01*
X278374154Y-133603357D01*
X278310720Y-133517835D01*
X278255556Y-133479208D01*
X341122380Y-93825714D02*
X340122380Y-93825714D01*
X340122380Y-94063809D01*
X340170000Y-94206666D01*
X340265238Y-94301904D01*
X340360476Y-94349523D01*
X340550952Y-94397142D01*
X340693809Y-94397142D01*
X340884285Y-94349523D01*
X340979523Y-94301904D01*
X341074761Y-94206666D01*
X341122380Y-94063809D01*
X341122380Y-93825714D01*
X340217619Y-94778095D02*
X340170000Y-94825714D01*
X340122380Y-94920952D01*
X340122380Y-95159047D01*
X340170000Y-95254285D01*
X340217619Y-95301904D01*
X340312857Y-95349523D01*
X340408095Y-95349523D01*
X340550952Y-95301904D01*
X341122380Y-94730476D01*
X341122380Y-95349523D01*
X340455714Y-96206666D02*
X341122380Y-96206666D01*
X340074761Y-95968571D02*
X340789047Y-95730476D01*
X340789047Y-96349523D01*
X110152380Y-125985714D02*
X109152380Y-125985714D01*
X109152380Y-126223809D01*
X109200000Y-126366666D01*
X109295238Y-126461904D01*
X109390476Y-126509523D01*
X109580952Y-126557142D01*
X109723809Y-126557142D01*
X109914285Y-126509523D01*
X110009523Y-126461904D01*
X110104761Y-126366666D01*
X110152380Y-126223809D01*
X110152380Y-125985714D01*
X109152380Y-126890476D02*
X109152380Y-127509523D01*
X109533333Y-127176190D01*
X109533333Y-127319047D01*
X109580952Y-127414285D01*
X109628571Y-127461904D01*
X109723809Y-127509523D01*
X109961904Y-127509523D01*
X110057142Y-127461904D01*
X110104761Y-127414285D01*
X110152380Y-127319047D01*
X110152380Y-127033333D01*
X110104761Y-126938095D01*
X110057142Y-126890476D01*
X109152380Y-127842857D02*
X109152380Y-128509523D01*
X110152380Y-128080952D01*
X293934649Y-144325606D02*
X292949842Y-144499255D01*
X292991186Y-144733733D01*
X293062889Y-144866150D01*
X293173218Y-144943404D01*
X293275278Y-144973761D01*
X293471130Y-144987581D01*
X293611816Y-144962774D01*
X293791130Y-144882803D01*
X293876652Y-144819369D01*
X293953905Y-144709040D01*
X293975994Y-144560084D01*
X293934649Y-144325606D01*
X293526180Y-145848240D02*
X294182718Y-145732475D01*
X293109670Y-145679914D02*
X293771759Y-145321401D01*
X293879256Y-145931044D01*
X293272331Y-146328183D02*
X293379827Y-146937826D01*
X293697110Y-146543405D01*
X293721916Y-146684092D01*
X293785350Y-146769614D01*
X293840515Y-146808241D01*
X293942575Y-146838599D01*
X294177053Y-146797254D01*
X294262575Y-146733820D01*
X294301202Y-146678656D01*
X294331559Y-146576596D01*
X294281946Y-146295222D01*
X294218512Y-146209700D01*
X294163348Y-146171073D01*
X282448456Y-104745858D02*
X281463649Y-104919507D01*
X281504993Y-105153985D01*
X281576696Y-105286402D01*
X281687025Y-105363656D01*
X281789085Y-105394013D01*
X281984937Y-105407833D01*
X282125623Y-105383026D01*
X282304937Y-105303055D01*
X282390459Y-105239621D01*
X282467712Y-105129292D01*
X282489801Y-104980336D01*
X282448456Y-104745858D01*
X281722819Y-105840881D02*
X281684192Y-105896045D01*
X281653835Y-105998106D01*
X281695179Y-106232584D01*
X281758613Y-106318106D01*
X281813778Y-106356732D01*
X281915838Y-106387090D01*
X282009629Y-106370552D01*
X282142047Y-106298850D01*
X282605567Y-105636875D01*
X282713063Y-106246518D01*
X282878442Y-107184430D02*
X282779215Y-106621683D01*
X282828828Y-106903056D02*
X281844021Y-107076704D01*
X281968170Y-106958106D01*
X282045423Y-106847777D01*
X282075781Y-106745717D01*
X318132380Y-81855714D02*
X317132380Y-81855714D01*
X317132380Y-82093809D01*
X317180000Y-82236666D01*
X317275238Y-82331904D01*
X317370476Y-82379523D01*
X317560952Y-82427142D01*
X317703809Y-82427142D01*
X317894285Y-82379523D01*
X317989523Y-82331904D01*
X318084761Y-82236666D01*
X318132380Y-82093809D01*
X318132380Y-81855714D01*
X318132380Y-83379523D02*
X318132380Y-82808095D01*
X318132380Y-83093809D02*
X317132380Y-83093809D01*
X317275238Y-82998571D01*
X317370476Y-82903333D01*
X317418095Y-82808095D01*
X318132380Y-84331904D02*
X318132380Y-83760476D01*
X318132380Y-84046190D02*
X317132380Y-84046190D01*
X317275238Y-83950952D01*
X317370476Y-83855714D01*
X317418095Y-83760476D01*
X318112380Y-124615712D02*
X317112380Y-124615712D01*
X317112380Y-124853807D01*
X317160000Y-124996664D01*
X317255238Y-125091902D01*
X317350476Y-125139521D01*
X317540952Y-125187140D01*
X317683809Y-125187140D01*
X317874285Y-125139521D01*
X317969523Y-125091902D01*
X318064761Y-124996664D01*
X318112380Y-124853807D01*
X318112380Y-124615712D01*
X317112380Y-125520474D02*
X317112380Y-126139521D01*
X317493333Y-125806188D01*
X317493333Y-125949045D01*
X317540952Y-126044283D01*
X317588571Y-126091902D01*
X317683809Y-126139521D01*
X317921904Y-126139521D01*
X318017142Y-126091902D01*
X318064761Y-126044283D01*
X318112380Y-125949045D01*
X318112380Y-125663331D01*
X318064761Y-125568093D01*
X318017142Y-125520474D01*
X317112380Y-127044283D02*
X317112380Y-126568093D01*
X317588571Y-126520474D01*
X317540952Y-126568093D01*
X317493333Y-126663331D01*
X317493333Y-126901426D01*
X317540952Y-126996664D01*
X317588571Y-127044283D01*
X317683809Y-127091902D01*
X317921904Y-127091902D01*
X318017142Y-127044283D01*
X318064761Y-126996664D01*
X318112380Y-126901426D01*
X318112380Y-126663331D01*
X318064761Y-126568093D01*
X318017142Y-126520474D01*
X182973677Y-93551673D02*
X181988869Y-93378025D01*
X181947524Y-93612503D01*
X181969613Y-93761458D01*
X182046866Y-93871787D01*
X182132388Y-93935221D01*
X182311702Y-94015192D01*
X182452389Y-94039999D01*
X182648240Y-94026180D01*
X182750300Y-93995822D01*
X182860629Y-93918569D01*
X182932332Y-93786151D01*
X182973677Y-93551673D01*
X181740800Y-94784893D02*
X181773876Y-94597310D01*
X181837309Y-94511788D01*
X181892474Y-94473161D01*
X182049699Y-94404177D01*
X182245550Y-94390357D01*
X182620715Y-94456509D01*
X182706237Y-94519943D01*
X182744864Y-94575107D01*
X182775222Y-94677167D01*
X182742146Y-94864750D01*
X182678712Y-94950272D01*
X182623548Y-94988899D01*
X182521487Y-95019256D01*
X182287009Y-94977912D01*
X182201487Y-94914478D01*
X182162861Y-94859313D01*
X182132503Y-94757253D01*
X182165579Y-94569671D01*
X182229012Y-94484149D01*
X182284177Y-94445522D01*
X182386237Y-94415164D01*
X159356366Y-144882717D02*
X158371559Y-144709068D01*
X158330214Y-144943547D01*
X158352302Y-145092502D01*
X158429556Y-145202831D01*
X158515078Y-145266265D01*
X158694391Y-145346236D01*
X158835078Y-145371043D01*
X159030930Y-145357224D01*
X159132990Y-145326866D01*
X159243319Y-145249613D01*
X159315021Y-145117195D01*
X159356366Y-144882717D01*
X158451759Y-146173819D02*
X159108297Y-146289585D01*
X158117939Y-145873190D02*
X158862718Y-145762746D01*
X158755221Y-146372389D01*
X158926380Y-147321288D02*
X159025608Y-146758541D01*
X158975994Y-147039915D02*
X157991186Y-146866266D01*
X158148411Y-146797282D01*
X158258740Y-146720029D01*
X158322174Y-146634507D01*
X119452380Y-88661904D02*
X118452380Y-88661904D01*
X118452380Y-88900000D01*
X118500000Y-89042857D01*
X118595238Y-89138095D01*
X118690476Y-89185714D01*
X118880952Y-89233333D01*
X119023809Y-89233333D01*
X119214285Y-89185714D01*
X119309523Y-89138095D01*
X119404761Y-89042857D01*
X119452380Y-88900000D01*
X119452380Y-88661904D01*
X118547619Y-89614285D02*
X118500000Y-89661904D01*
X118452380Y-89757142D01*
X118452380Y-89995238D01*
X118500000Y-90090476D01*
X118547619Y-90138095D01*
X118642857Y-90185714D01*
X118738095Y-90185714D01*
X118880952Y-90138095D01*
X119452380Y-89566666D01*
X119452380Y-90185714D01*
X348242380Y-143665713D02*
X347242380Y-143665713D01*
X347242380Y-143903808D01*
X347290000Y-144046665D01*
X347385238Y-144141903D01*
X347480476Y-144189522D01*
X347670952Y-144237141D01*
X347813809Y-144237141D01*
X348004285Y-144189522D01*
X348099523Y-144141903D01*
X348194761Y-144046665D01*
X348242380Y-143903808D01*
X348242380Y-143665713D01*
X347575714Y-145094284D02*
X348242380Y-145094284D01*
X347194761Y-144856189D02*
X347909047Y-144618094D01*
X347909047Y-145237141D01*
X347242380Y-146094284D02*
X347242380Y-145618094D01*
X347718571Y-145570475D01*
X347670952Y-145618094D01*
X347623333Y-145713332D01*
X347623333Y-145951427D01*
X347670952Y-146046665D01*
X347718571Y-146094284D01*
X347813809Y-146141903D01*
X348051904Y-146141903D01*
X348147142Y-146094284D01*
X348194761Y-146046665D01*
X348242380Y-145951427D01*
X348242380Y-145713332D01*
X348194761Y-145618094D01*
X348147142Y-145570475D01*
X262434649Y-129925606D02*
X261449842Y-130099255D01*
X261491186Y-130333733D01*
X261562889Y-130466150D01*
X261673218Y-130543404D01*
X261775278Y-130573761D01*
X261971130Y-130587581D01*
X262111816Y-130562774D01*
X262291130Y-130482803D01*
X262376652Y-130419369D01*
X262453905Y-130309040D01*
X262475994Y-130160084D01*
X262434649Y-129925606D01*
X261606952Y-130990271D02*
X261714448Y-131599914D01*
X262031730Y-131205493D01*
X262056537Y-131346180D01*
X262119971Y-131431702D01*
X262175135Y-131470329D01*
X262277196Y-131500686D01*
X262511674Y-131459342D01*
X262597196Y-131395908D01*
X262635822Y-131340744D01*
X262666180Y-131238683D01*
X262616566Y-130957310D01*
X262553133Y-130871787D01*
X262497968Y-130833161D01*
X261874391Y-131958541D02*
X261835765Y-132013706D01*
X261805407Y-132115766D01*
X261846752Y-132350244D01*
X261910185Y-132435766D01*
X261965350Y-132474393D01*
X262067410Y-132504750D01*
X262161201Y-132488212D01*
X262293619Y-132416510D01*
X262757139Y-131754535D01*
X262864635Y-132364178D01*
X293619904Y-85976341D02*
X292635097Y-86149990D01*
X292676441Y-86384468D01*
X292748144Y-86516885D01*
X292858473Y-86594139D01*
X292960533Y-86624496D01*
X293156385Y-86638316D01*
X293297071Y-86613509D01*
X293476385Y-86533538D01*
X293561907Y-86470104D01*
X293639160Y-86359775D01*
X293661249Y-86210819D01*
X293619904Y-85976341D01*
X293884511Y-87477001D02*
X293785283Y-86914254D01*
X293834897Y-87195627D02*
X292850089Y-87369275D01*
X292974238Y-87250677D01*
X293051492Y-87140348D01*
X293081849Y-87038288D01*
X293007200Y-88260292D02*
X293023738Y-88354083D01*
X293087171Y-88439605D01*
X293142336Y-88478232D01*
X293244396Y-88508590D01*
X293440247Y-88522409D01*
X293674725Y-88481065D01*
X293854039Y-88401093D01*
X293939561Y-88337660D01*
X293978188Y-88282495D01*
X294008545Y-88180435D01*
X293992008Y-88086644D01*
X293928574Y-88001121D01*
X293873409Y-87962495D01*
X293771349Y-87932137D01*
X293575498Y-87918317D01*
X293341020Y-87959662D01*
X293161706Y-88039634D01*
X293076184Y-88103067D01*
X293037557Y-88158232D01*
X293007200Y-88260292D01*
X157455885Y-88933539D02*
X156471077Y-88759891D01*
X156429732Y-88994369D01*
X156451821Y-89143324D01*
X156529074Y-89253653D01*
X156614596Y-89317087D01*
X156793910Y-89397058D01*
X156934597Y-89421865D01*
X157130448Y-89408046D01*
X157232508Y-89377688D01*
X157342837Y-89300435D01*
X157414540Y-89168017D01*
X157455885Y-88933539D01*
X156551277Y-90224641D02*
X157207816Y-90340407D01*
X156217457Y-89924012D02*
X156962236Y-89813568D01*
X156854740Y-90423211D01*
X260817339Y-92294562D02*
X259832531Y-92468211D01*
X259873876Y-92702689D01*
X259945578Y-92835107D01*
X260055908Y-92912360D01*
X260157968Y-92942718D01*
X260353819Y-92956537D01*
X260494506Y-92931730D01*
X260673819Y-92851759D01*
X260759342Y-92788325D01*
X260836595Y-92677996D01*
X260858684Y-92529040D01*
X260817339Y-92294562D01*
X260453047Y-93519285D02*
X260389613Y-93433762D01*
X260334449Y-93395136D01*
X260232388Y-93364778D01*
X260185493Y-93373047D01*
X260099971Y-93436480D01*
X260061344Y-93491645D01*
X260030986Y-93593705D01*
X260064062Y-93781288D01*
X260127496Y-93866810D01*
X260182660Y-93905437D01*
X260284720Y-93935794D01*
X260331616Y-93927525D01*
X260417138Y-93864092D01*
X260455765Y-93808927D01*
X260486122Y-93706867D01*
X260453047Y-93519285D01*
X260483404Y-93417224D01*
X260522031Y-93362060D01*
X260607553Y-93298626D01*
X260795136Y-93265550D01*
X260897196Y-93295908D01*
X260952360Y-93334535D01*
X261015794Y-93420057D01*
X261048870Y-93607639D01*
X261018512Y-93709700D01*
X260979885Y-93764864D01*
X260894363Y-93828298D01*
X260706781Y-93861374D01*
X260604721Y-93831016D01*
X260549556Y-93792389D01*
X260486122Y-93706867D01*
X183656366Y-132082717D02*
X182671559Y-131909068D01*
X182630214Y-132143547D01*
X182652302Y-132292502D01*
X182729556Y-132402831D01*
X182815078Y-132466265D01*
X182994391Y-132546236D01*
X183135078Y-132571043D01*
X183330930Y-132557224D01*
X183432990Y-132526866D01*
X183543319Y-132449613D01*
X183615021Y-132317195D01*
X183656366Y-132082717D01*
X182599971Y-132863519D02*
X182544806Y-132902145D01*
X182481372Y-132987667D01*
X182440028Y-133222145D01*
X182470385Y-133324206D01*
X182509012Y-133379370D01*
X182594534Y-133442804D01*
X182688325Y-133459342D01*
X182837281Y-133437253D01*
X183499256Y-132973733D01*
X183391760Y-133583376D01*
X183309070Y-134052332D02*
X183275994Y-134239915D01*
X183212561Y-134325437D01*
X183157396Y-134364063D01*
X183000171Y-134433048D01*
X182804320Y-134446868D01*
X182429155Y-134380716D01*
X182343633Y-134317282D01*
X182305006Y-134262118D01*
X182274648Y-134160058D01*
X182307724Y-133972475D01*
X182371158Y-133886953D01*
X182426322Y-133848326D01*
X182528383Y-133817969D01*
X182762861Y-133859313D01*
X182848383Y-133922747D01*
X182887009Y-133977912D01*
X182917367Y-134079972D01*
X182884291Y-134267554D01*
X182820858Y-134353076D01*
X182765693Y-134391703D01*
X182663633Y-134422061D01*
X159118574Y-106064583D02*
X158133767Y-105890934D01*
X158092422Y-106125413D01*
X158114510Y-106274368D01*
X158191764Y-106384697D01*
X158277286Y-106448131D01*
X158456599Y-106528102D01*
X158597286Y-106552909D01*
X158793138Y-106539090D01*
X158895198Y-106508732D01*
X159005527Y-106431479D01*
X159077229Y-106299061D01*
X159118574Y-106064583D01*
X158853968Y-107565242D02*
X158953195Y-107002495D01*
X158903581Y-107283868D02*
X157918774Y-107110220D01*
X158075998Y-107041236D01*
X158186327Y-106963983D01*
X158249761Y-106878460D01*
X157720318Y-108235715D02*
X157753394Y-108048132D01*
X157816828Y-107962610D01*
X157871992Y-107923983D01*
X158029217Y-107854999D01*
X158225069Y-107841179D01*
X158600233Y-107907331D01*
X158685756Y-107970765D01*
X158724382Y-108025929D01*
X158754740Y-108127989D01*
X158721664Y-108315572D01*
X158658231Y-108401094D01*
X158603066Y-108439721D01*
X158501006Y-108470078D01*
X158266528Y-108428734D01*
X158181006Y-108365300D01*
X158142379Y-108310135D01*
X158112021Y-108208075D01*
X158145097Y-108020493D01*
X158208531Y-107934971D01*
X158263695Y-107896344D01*
X158365755Y-107865986D01*
X261758456Y-108895858D02*
X260773649Y-109069507D01*
X260814993Y-109303985D01*
X260886696Y-109436402D01*
X260997025Y-109513656D01*
X261099085Y-109544013D01*
X261294937Y-109557833D01*
X261435623Y-109533026D01*
X261614937Y-109453055D01*
X261700459Y-109389621D01*
X261777712Y-109279292D01*
X261799801Y-109130336D01*
X261758456Y-108895858D01*
X262023063Y-110396518D02*
X261923835Y-109833771D01*
X261973449Y-110115144D02*
X260988641Y-110288792D01*
X261112790Y-110170194D01*
X261190044Y-110059865D01*
X261220401Y-109957805D01*
X262105753Y-110865474D02*
X262138828Y-111053056D01*
X262108471Y-111155116D01*
X262069844Y-111210281D01*
X261945695Y-111328879D01*
X261766382Y-111408851D01*
X261391217Y-111475002D01*
X261289157Y-111444645D01*
X261233992Y-111406018D01*
X261170559Y-111320496D01*
X261137483Y-111132913D01*
X261167840Y-111030853D01*
X261206467Y-110975689D01*
X261291989Y-110912255D01*
X261526467Y-110870910D01*
X261628528Y-110901268D01*
X261683692Y-110939895D01*
X261747126Y-111025417D01*
X261780202Y-111212999D01*
X261749844Y-111315059D01*
X261711217Y-111370224D01*
X261625695Y-111433657D01*
X92952380Y-141485714D02*
X91952380Y-141485714D01*
X91952380Y-141723809D01*
X92000000Y-141866666D01*
X92095238Y-141961904D01*
X92190476Y-142009523D01*
X92380952Y-142057142D01*
X92523809Y-142057142D01*
X92714285Y-142009523D01*
X92809523Y-141961904D01*
X92904761Y-141866666D01*
X92952380Y-141723809D01*
X92952380Y-141485714D01*
X91952380Y-142390476D02*
X91952380Y-143009523D01*
X92333333Y-142676190D01*
X92333333Y-142819047D01*
X92380952Y-142914285D01*
X92428571Y-142961904D01*
X92523809Y-143009523D01*
X92761904Y-143009523D01*
X92857142Y-142961904D01*
X92904761Y-142914285D01*
X92952380Y-142819047D01*
X92952380Y-142533333D01*
X92904761Y-142438095D01*
X92857142Y-142390476D01*
X92952380Y-143485714D02*
X92952380Y-143676190D01*
X92904761Y-143771428D01*
X92857142Y-143819047D01*
X92714285Y-143914285D01*
X92523809Y-143961904D01*
X92142857Y-143961904D01*
X92047619Y-143914285D01*
X92000000Y-143866666D01*
X91952380Y-143771428D01*
X91952380Y-143580952D01*
X92000000Y-143485714D01*
X92047619Y-143438095D01*
X92142857Y-143390476D01*
X92380952Y-143390476D01*
X92476190Y-143438095D01*
X92523809Y-143485714D01*
X92571428Y-143580952D01*
X92571428Y-143771428D01*
X92523809Y-143866666D01*
X92476190Y-143914285D01*
X92380952Y-143961904D01*
X165026974Y-132614583D02*
X164042167Y-132440934D01*
X164000822Y-132675413D01*
X164022910Y-132824368D01*
X164100164Y-132934697D01*
X164185686Y-132998131D01*
X164364999Y-133078102D01*
X164505686Y-133102909D01*
X164701538Y-133089090D01*
X164803598Y-133058732D01*
X164913927Y-132981479D01*
X164985629Y-132849061D01*
X165026974Y-132614583D01*
X163970579Y-133395385D02*
X163915414Y-133434011D01*
X163851980Y-133519533D01*
X163810636Y-133754011D01*
X163840993Y-133856072D01*
X163879620Y-133911236D01*
X163965142Y-133974670D01*
X164058933Y-133991208D01*
X164207889Y-133969119D01*
X164869864Y-133505599D01*
X164762368Y-134115242D01*
X164100393Y-134578762D02*
X164070035Y-134476702D01*
X164031408Y-134421537D01*
X163945886Y-134358104D01*
X163898991Y-134349835D01*
X163796930Y-134380192D01*
X163741766Y-134418819D01*
X163678332Y-134504341D01*
X163645256Y-134691924D01*
X163675614Y-134793984D01*
X163714241Y-134849148D01*
X163799763Y-134912582D01*
X163846659Y-134920851D01*
X163948719Y-134890493D01*
X164003883Y-134851867D01*
X164067317Y-134766344D01*
X164100393Y-134578762D01*
X164163826Y-134493240D01*
X164218991Y-134454613D01*
X164321051Y-134424255D01*
X164508633Y-134457331D01*
X164594156Y-134520765D01*
X164632782Y-134575929D01*
X164663140Y-134677989D01*
X164630064Y-134865572D01*
X164566631Y-134951094D01*
X164511466Y-134989721D01*
X164409406Y-135020078D01*
X164221823Y-134987003D01*
X164136301Y-134923569D01*
X164097675Y-134868404D01*
X164067317Y-134766344D01*
X85052380Y-141485714D02*
X84052380Y-141485714D01*
X84052380Y-141723809D01*
X84100000Y-141866666D01*
X84195238Y-141961904D01*
X84290476Y-142009523D01*
X84480952Y-142057142D01*
X84623809Y-142057142D01*
X84814285Y-142009523D01*
X84909523Y-141961904D01*
X85004761Y-141866666D01*
X85052380Y-141723809D01*
X85052380Y-141485714D01*
X84052380Y-142390476D02*
X84052380Y-143009523D01*
X84433333Y-142676190D01*
X84433333Y-142819047D01*
X84480952Y-142914285D01*
X84528571Y-142961904D01*
X84623809Y-143009523D01*
X84861904Y-143009523D01*
X84957142Y-142961904D01*
X85004761Y-142914285D01*
X85052380Y-142819047D01*
X85052380Y-142533333D01*
X85004761Y-142438095D01*
X84957142Y-142390476D01*
X84480952Y-143580952D02*
X84433333Y-143485714D01*
X84385714Y-143438095D01*
X84290476Y-143390476D01*
X84242857Y-143390476D01*
X84147619Y-143438095D01*
X84100000Y-143485714D01*
X84052380Y-143580952D01*
X84052380Y-143771428D01*
X84100000Y-143866666D01*
X84147619Y-143914285D01*
X84242857Y-143961904D01*
X84290476Y-143961904D01*
X84385714Y-143914285D01*
X84433333Y-143866666D01*
X84480952Y-143771428D01*
X84480952Y-143580952D01*
X84528571Y-143485714D01*
X84576190Y-143438095D01*
X84671428Y-143390476D01*
X84861904Y-143390476D01*
X84957142Y-143438095D01*
X85004761Y-143485714D01*
X85052380Y-143580952D01*
X85052380Y-143771428D01*
X85004761Y-143866666D01*
X84957142Y-143914285D01*
X84861904Y-143961904D01*
X84671428Y-143961904D01*
X84576190Y-143914285D01*
X84528571Y-143866666D01*
X84480952Y-143771428D01*
X190356366Y-132782717D02*
X189371559Y-132609068D01*
X189330214Y-132843547D01*
X189352302Y-132992502D01*
X189429556Y-133102831D01*
X189515078Y-133166265D01*
X189694391Y-133246236D01*
X189835078Y-133271043D01*
X190030930Y-133257224D01*
X190132990Y-133226866D01*
X190243319Y-133149613D01*
X190315021Y-133017195D01*
X190356366Y-132782717D01*
X189214448Y-133500085D02*
X189106952Y-134109728D01*
X189539999Y-133847610D01*
X189515192Y-133988297D01*
X189545550Y-134090357D01*
X189584177Y-134145522D01*
X189669699Y-134208955D01*
X189904177Y-134250300D01*
X190006237Y-134219943D01*
X190061402Y-134181316D01*
X190124835Y-134095794D01*
X190174449Y-133814420D01*
X190144091Y-133712360D01*
X190105465Y-133657195D01*
X188999455Y-134719371D02*
X188982917Y-134813162D01*
X189013275Y-134915222D01*
X189051902Y-134970387D01*
X189137424Y-135033820D01*
X189316737Y-135113792D01*
X189551215Y-135155137D01*
X189747067Y-135141317D01*
X189849127Y-135110959D01*
X189904292Y-135072332D01*
X189967725Y-134986810D01*
X189984263Y-134893019D01*
X189953905Y-134790959D01*
X189915279Y-134735794D01*
X189829756Y-134672361D01*
X189650443Y-134592389D01*
X189415965Y-134551044D01*
X189220114Y-134564864D01*
X189118053Y-134595222D01*
X189062889Y-134633849D01*
X188999455Y-134719371D01*
X255834649Y-130825606D02*
X254849842Y-130999255D01*
X254891186Y-131233733D01*
X254962889Y-131366150D01*
X255073218Y-131443404D01*
X255175278Y-131473761D01*
X255371130Y-131487581D01*
X255511816Y-131462774D01*
X255691130Y-131382803D01*
X255776652Y-131319369D01*
X255853905Y-131209040D01*
X255875994Y-131060084D01*
X255834649Y-130825606D01*
X255006952Y-131890271D02*
X255114448Y-132499914D01*
X255431730Y-132105493D01*
X255456537Y-132246180D01*
X255519971Y-132331702D01*
X255575135Y-132370329D01*
X255677196Y-132400686D01*
X255911674Y-132359342D01*
X255997196Y-132295908D01*
X256035822Y-132240744D01*
X256066180Y-132138683D01*
X256016566Y-131857310D01*
X255953133Y-131771787D01*
X255897968Y-131733161D01*
X256264635Y-133264178D02*
X256165408Y-132701431D01*
X256215021Y-132982804D02*
X255230214Y-133156452D01*
X255354363Y-133037854D01*
X255431616Y-132927525D01*
X255461974Y-132825465D01*
X300918456Y-101485858D02*
X299933649Y-101659507D01*
X299974993Y-101893985D01*
X300046696Y-102026402D01*
X300157025Y-102103656D01*
X300259085Y-102134013D01*
X300454937Y-102147833D01*
X300595623Y-102123026D01*
X300774937Y-102043055D01*
X300860459Y-101979621D01*
X300937712Y-101869292D01*
X300959801Y-101720336D01*
X300918456Y-101485858D01*
X300192819Y-102580881D02*
X300154192Y-102636045D01*
X300123835Y-102738106D01*
X300165179Y-102972584D01*
X300228613Y-103058106D01*
X300283778Y-103096732D01*
X300385838Y-103127090D01*
X300479629Y-103110552D01*
X300612047Y-103038850D01*
X301075567Y-102376875D01*
X301183063Y-102986518D01*
X300358198Y-103518793D02*
X300319572Y-103573958D01*
X300289214Y-103676018D01*
X300330559Y-103910496D01*
X300393992Y-103996018D01*
X300449157Y-104034645D01*
X300551217Y-104065002D01*
X300645008Y-104048464D01*
X300777426Y-103976762D01*
X301240946Y-103314787D01*
X301348442Y-103924430D01*
X268434649Y-107525606D02*
X267449842Y-107699255D01*
X267491186Y-107933733D01*
X267562889Y-108066150D01*
X267673218Y-108143404D01*
X267775278Y-108173761D01*
X267971130Y-108187581D01*
X268111816Y-108162774D01*
X268291130Y-108082803D01*
X268376652Y-108019369D01*
X268453905Y-107909040D01*
X268475994Y-107760084D01*
X268434649Y-107525606D01*
X267709012Y-108620629D02*
X267670385Y-108675793D01*
X267640028Y-108777854D01*
X267681372Y-109012332D01*
X267744806Y-109097854D01*
X267799971Y-109136480D01*
X267902031Y-109166838D01*
X267995822Y-109150300D01*
X268128240Y-109078598D01*
X268591760Y-108416623D01*
X268699256Y-109026266D01*
X267821945Y-109809557D02*
X267838483Y-109903348D01*
X267901916Y-109988870D01*
X267957081Y-110027497D01*
X268059141Y-110057855D01*
X268254992Y-110071674D01*
X268489470Y-110030330D01*
X268668784Y-109950358D01*
X268754306Y-109886925D01*
X268792933Y-109831760D01*
X268823290Y-109729700D01*
X268806753Y-109635909D01*
X268743319Y-109550386D01*
X268688154Y-109511760D01*
X268586094Y-109481402D01*
X268390243Y-109467582D01*
X268155765Y-109508927D01*
X267976451Y-109588899D01*
X267890929Y-109652332D01*
X267852302Y-109707497D01*
X267821945Y-109809557D01*
X149456366Y-129382717D02*
X148471559Y-129209068D01*
X148430214Y-129443547D01*
X148452302Y-129592502D01*
X148529556Y-129702831D01*
X148615078Y-129766265D01*
X148794391Y-129846236D01*
X148935078Y-129871043D01*
X149130930Y-129857224D01*
X149232990Y-129826866D01*
X149343319Y-129749613D01*
X149415021Y-129617195D01*
X149456366Y-129382717D01*
X148399971Y-130163519D02*
X148344806Y-130202145D01*
X148281372Y-130287667D01*
X148240028Y-130522145D01*
X148270385Y-130624206D01*
X148309012Y-130679370D01*
X148394534Y-130742804D01*
X148488325Y-130759342D01*
X148637281Y-130737253D01*
X149299256Y-130273733D01*
X149191760Y-130883376D01*
X148149069Y-131037997D02*
X148033304Y-131694536D01*
X149092532Y-131446123D01*
X138575885Y-85673539D02*
X137591077Y-85499891D01*
X137549732Y-85734369D01*
X137571821Y-85883324D01*
X137649074Y-85993653D01*
X137734596Y-86057087D01*
X137913910Y-86137058D01*
X138054597Y-86161865D01*
X138250448Y-86148046D01*
X138352508Y-86117688D01*
X138462837Y-86040435D01*
X138534540Y-85908017D01*
X138575885Y-85673539D01*
X137433967Y-86390907D02*
X137326470Y-87000550D01*
X137759518Y-86738432D01*
X137734711Y-86879119D01*
X137765069Y-86981179D01*
X137803695Y-87036344D01*
X137889217Y-87099778D01*
X138123695Y-87141122D01*
X138225756Y-87110765D01*
X138280920Y-87072138D01*
X138344354Y-86986616D01*
X138393968Y-86705242D01*
X138363610Y-86603182D01*
X138324983Y-86548017D01*
D13*
X212620000Y-91500687D02*
X210080000Y-91500687D01*
X227860000Y-121980687D02*
X227860000Y-88960687D01*
X210080000Y-88960687D02*
X210080000Y-121980687D01*
X210080000Y-121980687D02*
X227860000Y-121980687D01*
X212620000Y-94040687D02*
X210080000Y-94040687D01*
X227860000Y-88960687D02*
X210080000Y-88960687D01*
X212620000Y-91500687D02*
X212620000Y-94040687D01*
G36*
X225314635Y-98189717D02*
G01*
X225214635Y-98189717D01*
X225214635Y-97389717D01*
X225314635Y-97389717D01*
X225314635Y-98189717D01*
G37*
X225314635Y-98189717D02*
X225214635Y-98189717D01*
X225214635Y-97389717D01*
X225314635Y-97389717D01*
X225314635Y-98189717D01*
G36*
X225114635Y-97889717D02*
G01*
X225014635Y-97889717D01*
X225014635Y-97789717D01*
X225114635Y-97789717D01*
X225114635Y-97889717D01*
G37*
X225114635Y-97889717D02*
X225014635Y-97889717D01*
X225014635Y-97789717D01*
X225114635Y-97789717D01*
X225114635Y-97889717D01*
G36*
X224914635Y-97689717D02*
G01*
X224814635Y-97689717D01*
X224814635Y-97389717D01*
X224914635Y-97389717D01*
X224914635Y-97689717D01*
G37*
X224914635Y-97689717D02*
X224814635Y-97689717D01*
X224814635Y-97389717D01*
X224914635Y-97389717D01*
X224914635Y-97689717D01*
G36*
X224914635Y-98189717D02*
G01*
X224814635Y-98189717D01*
X224814635Y-97989717D01*
X224914635Y-97989717D01*
X224914635Y-98189717D01*
G37*
X224914635Y-98189717D02*
X224814635Y-98189717D01*
X224814635Y-97989717D01*
X224914635Y-97989717D01*
X224914635Y-98189717D01*
G36*
X225314635Y-97489717D02*
G01*
X224814635Y-97489717D01*
X224814635Y-97389717D01*
X225314635Y-97389717D01*
X225314635Y-97489717D01*
G37*
X225314635Y-97489717D02*
X224814635Y-97489717D01*
X224814635Y-97389717D01*
X225314635Y-97389717D01*
X225314635Y-97489717D01*
D14*
X153943251Y-147504396D02*
X151737282Y-147115424D01*
X152327685Y-143767078D02*
X154533655Y-144156050D01*
X152348523Y-143648901D02*
X154554493Y-144037873D01*
X152727395Y-147950035D02*
X152840266Y-147309910D01*
X154679519Y-143328811D02*
X153943251Y-147504396D01*
X152473550Y-142939839D02*
X154679519Y-143328811D01*
X151737282Y-147115424D02*
X152473550Y-142939839D01*
X153689406Y-142494200D02*
X153576535Y-143134325D01*
X152369361Y-143530724D02*
X154575330Y-143919696D01*
X93120000Y-102260000D02*
X95360000Y-102260000D01*
X94240000Y-106550000D02*
X94240000Y-105900000D01*
X93120000Y-102380000D02*
X95360000Y-102380000D01*
X95360000Y-101660000D02*
X95360000Y-105900000D01*
X93120000Y-105900000D02*
X93120000Y-101660000D01*
X93120000Y-102500000D02*
X95360000Y-102500000D01*
X94240000Y-101010000D02*
X94240000Y-101660000D01*
X95360000Y-105900000D02*
X93120000Y-105900000D01*
X93120000Y-101660000D02*
X95360000Y-101660000D01*
X253820481Y-92158811D02*
X256026450Y-91769839D01*
X256762718Y-95945424D02*
X254556749Y-96334396D01*
X254556749Y-96334396D02*
X253820481Y-92158811D01*
X253966345Y-92986050D02*
X256172315Y-92597078D01*
X253945507Y-92867873D02*
X256151477Y-92478901D01*
X253924670Y-92749696D02*
X256130639Y-92360724D01*
X256026450Y-91769839D02*
X256762718Y-95945424D01*
X254810594Y-91324200D02*
X254923465Y-91964325D01*
X255772605Y-96780035D02*
X255659734Y-96139910D01*
X94200000Y-116480000D02*
X94200000Y-115830000D01*
X93080000Y-112430000D02*
X95320000Y-112430000D01*
X93080000Y-111590000D02*
X95320000Y-111590000D01*
X93080000Y-112190000D02*
X95320000Y-112190000D01*
X95320000Y-111590000D02*
X95320000Y-115830000D01*
X94200000Y-110940000D02*
X94200000Y-111590000D01*
X93080000Y-115830000D02*
X93080000Y-111590000D01*
X95320000Y-115830000D02*
X93080000Y-115830000D01*
X93080000Y-112310000D02*
X95320000Y-112310000D01*
X277211006Y-92917918D02*
X277098135Y-92277793D01*
X275363071Y-88887579D02*
X277569040Y-88498607D01*
X275995150Y-92472279D02*
X275258882Y-88296694D01*
X278201119Y-92083307D02*
X275995150Y-92472279D01*
X277464851Y-87907722D02*
X278201119Y-92083307D01*
X275383908Y-89005756D02*
X277589878Y-88616784D01*
X275258882Y-88296694D02*
X277464851Y-87907722D01*
X275404746Y-89123933D02*
X277610716Y-88734961D01*
X276248995Y-87462083D02*
X276361866Y-88102208D01*
X127030000Y-129486599D02*
X124790000Y-129486599D01*
X127030000Y-125246599D02*
X127030000Y-129486599D01*
X124790000Y-125966599D02*
X127030000Y-125966599D01*
X125910000Y-130136599D02*
X125910000Y-129486599D01*
X124790000Y-129486599D02*
X124790000Y-125246599D01*
X124790000Y-126086599D02*
X127030000Y-126086599D01*
X125910000Y-124596599D02*
X125910000Y-125246599D01*
X124790000Y-125246599D02*
X127030000Y-125246599D01*
X124790000Y-125846599D02*
X127030000Y-125846599D01*
X325280000Y-98590000D02*
X327520000Y-98590000D01*
X325280000Y-97990000D02*
X327520000Y-97990000D01*
X325280000Y-98710000D02*
X327520000Y-98710000D01*
X326400000Y-102880000D02*
X326400000Y-102230000D01*
X327520000Y-102230000D02*
X325280000Y-102230000D01*
X325280000Y-102230000D02*
X325280000Y-97990000D01*
X326400000Y-97340000D02*
X326400000Y-97990000D01*
X325280000Y-98830000D02*
X327520000Y-98830000D01*
X327520000Y-97990000D02*
X327520000Y-102230000D01*
X178041006Y-90642083D02*
X177928135Y-91282208D01*
X176679285Y-91914961D02*
X178885255Y-92303933D01*
X178294851Y-95652279D02*
X176088882Y-95263307D01*
X177078995Y-96097918D02*
X177191866Y-95457793D01*
X179031119Y-91476694D02*
X178294851Y-95652279D01*
X176700123Y-91796784D02*
X178906093Y-92185756D01*
X176825150Y-91087722D02*
X179031119Y-91476694D01*
X176720961Y-91678607D02*
X178926930Y-92067579D01*
X176088882Y-95263307D02*
X176825150Y-91087722D01*
G36*
X105713683Y-72889155D02*
G01*
X105713433Y-72912990D01*
X105666024Y-73309814D01*
X105530579Y-73634049D01*
X105297083Y-73902093D01*
X104955519Y-74130341D01*
X104835243Y-74182998D01*
X104585755Y-74239977D01*
X104328318Y-74246817D01*
X104093616Y-74206993D01*
X103912337Y-74123978D01*
X103815166Y-74001246D01*
X103806112Y-73962743D01*
X103830017Y-73852151D01*
X103919527Y-73814793D01*
X104038812Y-73871463D01*
X104127325Y-73930043D01*
X104346400Y-73991638D01*
X104597773Y-73990474D01*
X104833989Y-73923450D01*
X104879579Y-73900075D01*
X105003352Y-73813903D01*
X105053033Y-73740136D01*
X105075908Y-73686480D01*
X105173477Y-73622539D01*
X105188017Y-73617586D01*
X105303357Y-73539090D01*
X105382977Y-73388174D01*
X105440052Y-73141042D01*
X105479912Y-72900284D01*
X104933570Y-72921390D01*
X104828252Y-72924694D01*
X104573783Y-72926556D01*
X104365078Y-72919832D01*
X104239346Y-72905379D01*
X104228424Y-72902323D01*
X104084088Y-72801646D01*
X103963199Y-72612995D01*
X103880126Y-72366343D01*
X103859370Y-72181741D01*
X104098225Y-72181741D01*
X104128848Y-72366546D01*
X104194121Y-72532576D01*
X104289382Y-72642332D01*
X104299860Y-72647218D01*
X104411958Y-72666431D01*
X104598714Y-72678483D01*
X104822458Y-72683109D01*
X105045522Y-72680041D01*
X105230237Y-72669013D01*
X105338934Y-72649758D01*
X105394394Y-72615175D01*
X105402492Y-72553402D01*
X105344693Y-72446591D01*
X105213630Y-72272569D01*
X105073354Y-72105294D01*
X104878610Y-71926442D01*
X104687121Y-71837720D01*
X104469242Y-71827864D01*
X104195332Y-71885611D01*
X104159567Y-71905803D01*
X104106911Y-72015660D01*
X104098225Y-72181741D01*
X103859370Y-72181741D01*
X103849242Y-72091668D01*
X103850025Y-72011844D01*
X103865613Y-71859123D01*
X103914694Y-71770721D01*
X104014763Y-71705854D01*
X104065878Y-71683289D01*
X104255678Y-71623631D01*
X104467775Y-71580003D01*
X104688345Y-71573067D01*
X104915172Y-71639043D01*
X105137150Y-71795017D01*
X105376827Y-72052714D01*
X105463807Y-72163181D01*
X105615080Y-72401893D01*
X105666680Y-72553402D01*
X105692695Y-72629787D01*
X105713683Y-72889155D01*
G37*
D13*
X105713683Y-72889155D02*
X105713433Y-72912990D01*
X105666024Y-73309814D01*
X105530579Y-73634049D01*
X105297083Y-73902093D01*
X104955519Y-74130341D01*
X104835243Y-74182998D01*
X104585755Y-74239977D01*
X104328318Y-74246817D01*
X104093616Y-74206993D01*
X103912337Y-74123978D01*
X103815166Y-74001246D01*
X103806112Y-73962743D01*
X103830017Y-73852151D01*
X103919527Y-73814793D01*
X104038812Y-73871463D01*
X104127325Y-73930043D01*
X104346400Y-73991638D01*
X104597773Y-73990474D01*
X104833989Y-73923450D01*
X104879579Y-73900075D01*
X105003352Y-73813903D01*
X105053033Y-73740136D01*
X105075908Y-73686480D01*
X105173477Y-73622539D01*
X105188017Y-73617586D01*
X105303357Y-73539090D01*
X105382977Y-73388174D01*
X105440052Y-73141042D01*
X105479912Y-72900284D01*
X104933570Y-72921390D01*
X104828252Y-72924694D01*
X104573783Y-72926556D01*
X104365078Y-72919832D01*
X104239346Y-72905379D01*
X104228424Y-72902323D01*
X104084088Y-72801646D01*
X103963199Y-72612995D01*
X103880126Y-72366343D01*
X103859370Y-72181741D01*
X104098225Y-72181741D01*
X104128848Y-72366546D01*
X104194121Y-72532576D01*
X104289382Y-72642332D01*
X104299860Y-72647218D01*
X104411958Y-72666431D01*
X104598714Y-72678483D01*
X104822458Y-72683109D01*
X105045522Y-72680041D01*
X105230237Y-72669013D01*
X105338934Y-72649758D01*
X105394394Y-72615175D01*
X105402492Y-72553402D01*
X105344693Y-72446591D01*
X105213630Y-72272569D01*
X105073354Y-72105294D01*
X104878610Y-71926442D01*
X104687121Y-71837720D01*
X104469242Y-71827864D01*
X104195332Y-71885611D01*
X104159567Y-71905803D01*
X104106911Y-72015660D01*
X104098225Y-72181741D01*
X103859370Y-72181741D01*
X103849242Y-72091668D01*
X103850025Y-72011844D01*
X103865613Y-71859123D01*
X103914694Y-71770721D01*
X104014763Y-71705854D01*
X104065878Y-71683289D01*
X104255678Y-71623631D01*
X104467775Y-71580003D01*
X104688345Y-71573067D01*
X104915172Y-71639043D01*
X105137150Y-71795017D01*
X105376827Y-72052714D01*
X105463807Y-72163181D01*
X105615080Y-72401893D01*
X105666680Y-72553402D01*
X105692695Y-72629787D01*
X105713683Y-72889155D01*
G36*
X97481129Y-71485953D02*
G01*
X97582391Y-71532044D01*
X97732744Y-71644028D01*
X97905425Y-71796776D01*
X98073673Y-71965161D01*
X98210726Y-72124057D01*
X98289821Y-72248335D01*
X98291959Y-72253371D01*
X98393078Y-72418824D01*
X98518555Y-72542120D01*
X98587275Y-72583517D01*
X98688022Y-72604924D01*
X98804142Y-72550010D01*
X98809200Y-72546871D01*
X98968749Y-72466039D01*
X99154455Y-72393561D01*
X99246662Y-72348651D01*
X99409647Y-72238892D01*
X99598485Y-72091041D01*
X99788433Y-71926737D01*
X99954745Y-71767616D01*
X100072679Y-71635314D01*
X100117488Y-71551469D01*
X100122858Y-71523393D01*
X100184242Y-71486659D01*
X100273853Y-71510549D01*
X100340637Y-71586946D01*
X100338623Y-71631124D01*
X100268564Y-71752536D01*
X100130779Y-71913047D01*
X99945672Y-72094380D01*
X99733644Y-72278257D01*
X99515101Y-72446403D01*
X99310444Y-72580539D01*
X99140079Y-72662389D01*
X98854849Y-72759039D01*
X98959510Y-72900137D01*
X99038948Y-72982441D01*
X99200754Y-73112319D01*
X99393211Y-73241613D01*
X99446411Y-73274320D01*
X99731227Y-73463607D01*
X99922882Y-73618610D01*
X100017543Y-73734860D01*
X100011378Y-73807887D01*
X99900555Y-73833222D01*
X99819646Y-73806088D01*
X99662806Y-73720971D01*
X99462581Y-73595778D01*
X99246009Y-73448919D01*
X99040127Y-73298805D01*
X98871972Y-73163846D01*
X98768583Y-73062451D01*
X98766422Y-73059716D01*
X98683552Y-72964531D01*
X98628996Y-72958785D01*
X98557919Y-73037077D01*
X98514208Y-73083375D01*
X98372345Y-73201118D01*
X98198099Y-73320731D01*
X98187804Y-73327202D01*
X98009190Y-73458811D01*
X97797444Y-73640541D01*
X97596203Y-73835102D01*
X97539818Y-73892483D01*
X97337597Y-74074361D01*
X97182400Y-74173460D01*
X97082913Y-74185488D01*
X97047820Y-74106151D01*
X97052837Y-74080393D01*
X97115995Y-73967497D01*
X97228389Y-73833222D01*
X97273847Y-73785345D01*
X97370640Y-73671325D01*
X97409430Y-73605436D01*
X97453476Y-73556741D01*
X97574586Y-73465047D01*
X97745663Y-73351706D01*
X97908338Y-73245845D01*
X98111652Y-73104293D01*
X98262176Y-72989102D01*
X98442927Y-72837162D01*
X98294080Y-72688154D01*
X98278577Y-72671963D01*
X98153070Y-72503764D01*
X98050792Y-72312890D01*
X97932626Y-72124361D01*
X97684556Y-71921658D01*
X97603548Y-71869547D01*
X97457685Y-71741173D01*
X97410860Y-71621256D01*
X97424821Y-71536693D01*
X97477705Y-71485829D01*
X97481129Y-71485953D01*
G37*
X97481129Y-71485953D02*
X97582391Y-71532044D01*
X97732744Y-71644028D01*
X97905425Y-71796776D01*
X98073673Y-71965161D01*
X98210726Y-72124057D01*
X98289821Y-72248335D01*
X98291959Y-72253371D01*
X98393078Y-72418824D01*
X98518555Y-72542120D01*
X98587275Y-72583517D01*
X98688022Y-72604924D01*
X98804142Y-72550010D01*
X98809200Y-72546871D01*
X98968749Y-72466039D01*
X99154455Y-72393561D01*
X99246662Y-72348651D01*
X99409647Y-72238892D01*
X99598485Y-72091041D01*
X99788433Y-71926737D01*
X99954745Y-71767616D01*
X100072679Y-71635314D01*
X100117488Y-71551469D01*
X100122858Y-71523393D01*
X100184242Y-71486659D01*
X100273853Y-71510549D01*
X100340637Y-71586946D01*
X100338623Y-71631124D01*
X100268564Y-71752536D01*
X100130779Y-71913047D01*
X99945672Y-72094380D01*
X99733644Y-72278257D01*
X99515101Y-72446403D01*
X99310444Y-72580539D01*
X99140079Y-72662389D01*
X98854849Y-72759039D01*
X98959510Y-72900137D01*
X99038948Y-72982441D01*
X99200754Y-73112319D01*
X99393211Y-73241613D01*
X99446411Y-73274320D01*
X99731227Y-73463607D01*
X99922882Y-73618610D01*
X100017543Y-73734860D01*
X100011378Y-73807887D01*
X99900555Y-73833222D01*
X99819646Y-73806088D01*
X99662806Y-73720971D01*
X99462581Y-73595778D01*
X99246009Y-73448919D01*
X99040127Y-73298805D01*
X98871972Y-73163846D01*
X98768583Y-73062451D01*
X98766422Y-73059716D01*
X98683552Y-72964531D01*
X98628996Y-72958785D01*
X98557919Y-73037077D01*
X98514208Y-73083375D01*
X98372345Y-73201118D01*
X98198099Y-73320731D01*
X98187804Y-73327202D01*
X98009190Y-73458811D01*
X97797444Y-73640541D01*
X97596203Y-73835102D01*
X97539818Y-73892483D01*
X97337597Y-74074361D01*
X97182400Y-74173460D01*
X97082913Y-74185488D01*
X97047820Y-74106151D01*
X97052837Y-74080393D01*
X97115995Y-73967497D01*
X97228389Y-73833222D01*
X97273847Y-73785345D01*
X97370640Y-73671325D01*
X97409430Y-73605436D01*
X97453476Y-73556741D01*
X97574586Y-73465047D01*
X97745663Y-73351706D01*
X97908338Y-73245845D01*
X98111652Y-73104293D01*
X98262176Y-72989102D01*
X98442927Y-72837162D01*
X98294080Y-72688154D01*
X98278577Y-72671963D01*
X98153070Y-72503764D01*
X98050792Y-72312890D01*
X97932626Y-72124361D01*
X97684556Y-71921658D01*
X97603548Y-71869547D01*
X97457685Y-71741173D01*
X97410860Y-71621256D01*
X97424821Y-71536693D01*
X97477705Y-71485829D01*
X97481129Y-71485953D01*
G36*
X108000887Y-72828965D02*
G01*
X108000637Y-72852801D01*
X107953227Y-73249625D01*
X107817783Y-73573860D01*
X107584287Y-73841903D01*
X107242723Y-74070152D01*
X107122447Y-74122808D01*
X106872959Y-74179787D01*
X106615521Y-74186627D01*
X106380820Y-74146803D01*
X106199541Y-74063788D01*
X106102369Y-73941056D01*
X106093316Y-73902553D01*
X106117220Y-73791962D01*
X106206731Y-73754604D01*
X106326016Y-73811273D01*
X106414529Y-73869853D01*
X106633604Y-73931448D01*
X106884977Y-73930285D01*
X107121193Y-73863260D01*
X107166783Y-73839885D01*
X107290556Y-73753714D01*
X107340237Y-73679946D01*
X107363112Y-73626290D01*
X107460680Y-73562349D01*
X107475221Y-73557396D01*
X107590561Y-73478900D01*
X107670181Y-73327985D01*
X107727255Y-73080853D01*
X107767116Y-72840094D01*
X107220774Y-72861200D01*
X107115456Y-72864505D01*
X106860987Y-72866367D01*
X106652282Y-72859643D01*
X106526550Y-72845190D01*
X106515628Y-72842133D01*
X106371292Y-72741457D01*
X106250402Y-72552805D01*
X106167330Y-72306154D01*
X106146574Y-72121551D01*
X106385429Y-72121551D01*
X106416052Y-72306357D01*
X106481325Y-72472387D01*
X106576586Y-72582142D01*
X106587064Y-72587028D01*
X106699162Y-72606241D01*
X106885917Y-72618294D01*
X107109662Y-72622919D01*
X107332726Y-72619851D01*
X107517441Y-72608823D01*
X107626138Y-72589569D01*
X107681597Y-72554986D01*
X107689696Y-72493212D01*
X107631897Y-72386402D01*
X107500833Y-72212380D01*
X107360558Y-72045105D01*
X107165814Y-71866252D01*
X106974325Y-71777530D01*
X106756446Y-71767675D01*
X106482536Y-71825421D01*
X106446771Y-71845613D01*
X106394115Y-71955470D01*
X106385429Y-72121551D01*
X106146574Y-72121551D01*
X106136446Y-72031479D01*
X106137228Y-71951654D01*
X106152817Y-71798934D01*
X106201898Y-71710531D01*
X106301967Y-71645664D01*
X106353082Y-71623100D01*
X106542882Y-71563442D01*
X106754979Y-71519813D01*
X106975549Y-71512878D01*
X107202376Y-71578853D01*
X107424353Y-71734827D01*
X107664031Y-71992525D01*
X107751011Y-72102992D01*
X107902284Y-72341703D01*
X107953884Y-72493212D01*
X107979899Y-72569598D01*
X108000887Y-72828965D01*
G37*
X108000887Y-72828965D02*
X108000637Y-72852801D01*
X107953227Y-73249625D01*
X107817783Y-73573860D01*
X107584287Y-73841903D01*
X107242723Y-74070152D01*
X107122447Y-74122808D01*
X106872959Y-74179787D01*
X106615521Y-74186627D01*
X106380820Y-74146803D01*
X106199541Y-74063788D01*
X106102369Y-73941056D01*
X106093316Y-73902553D01*
X106117220Y-73791962D01*
X106206731Y-73754604D01*
X106326016Y-73811273D01*
X106414529Y-73869853D01*
X106633604Y-73931448D01*
X106884977Y-73930285D01*
X107121193Y-73863260D01*
X107166783Y-73839885D01*
X107290556Y-73753714D01*
X107340237Y-73679946D01*
X107363112Y-73626290D01*
X107460680Y-73562349D01*
X107475221Y-73557396D01*
X107590561Y-73478900D01*
X107670181Y-73327985D01*
X107727255Y-73080853D01*
X107767116Y-72840094D01*
X107220774Y-72861200D01*
X107115456Y-72864505D01*
X106860987Y-72866367D01*
X106652282Y-72859643D01*
X106526550Y-72845190D01*
X106515628Y-72842133D01*
X106371292Y-72741457D01*
X106250402Y-72552805D01*
X106167330Y-72306154D01*
X106146574Y-72121551D01*
X106385429Y-72121551D01*
X106416052Y-72306357D01*
X106481325Y-72472387D01*
X106576586Y-72582142D01*
X106587064Y-72587028D01*
X106699162Y-72606241D01*
X106885917Y-72618294D01*
X107109662Y-72622919D01*
X107332726Y-72619851D01*
X107517441Y-72608823D01*
X107626138Y-72589569D01*
X107681597Y-72554986D01*
X107689696Y-72493212D01*
X107631897Y-72386402D01*
X107500833Y-72212380D01*
X107360558Y-72045105D01*
X107165814Y-71866252D01*
X106974325Y-71777530D01*
X106756446Y-71767675D01*
X106482536Y-71825421D01*
X106446771Y-71845613D01*
X106394115Y-71955470D01*
X106385429Y-72121551D01*
X106146574Y-72121551D01*
X106136446Y-72031479D01*
X106137228Y-71951654D01*
X106152817Y-71798934D01*
X106201898Y-71710531D01*
X106301967Y-71645664D01*
X106353082Y-71623100D01*
X106542882Y-71563442D01*
X106754979Y-71519813D01*
X106975549Y-71512878D01*
X107202376Y-71578853D01*
X107424353Y-71734827D01*
X107664031Y-71992525D01*
X107751011Y-72102992D01*
X107902284Y-72341703D01*
X107953884Y-72493212D01*
X107979899Y-72569598D01*
X108000887Y-72828965D01*
G36*
X103190038Y-73949742D02*
G01*
X103006588Y-74052859D01*
X102876530Y-74088194D01*
X102576992Y-74110330D01*
X102254530Y-74075774D01*
X101961929Y-73987811D01*
X101729830Y-73886458D01*
X101755167Y-73333270D01*
X101983365Y-73333270D01*
X101983741Y-73392729D01*
X101996147Y-73581113D01*
X102033333Y-73692091D01*
X102105060Y-73759886D01*
X102232682Y-73811397D01*
X102446872Y-73854609D01*
X102674005Y-73871331D01*
X102856114Y-73854278D01*
X102910525Y-73836879D01*
X103035637Y-73744365D01*
X103090657Y-73581692D01*
X103083731Y-73330096D01*
X103067297Y-73224735D01*
X103015241Y-73024898D01*
X102951918Y-72885980D01*
X102885237Y-72815816D01*
X102693394Y-72709769D01*
X102468037Y-72661210D01*
X102263744Y-72685999D01*
X102170276Y-72733000D01*
X102060022Y-72854038D01*
X102000926Y-73046724D01*
X101983365Y-73333270D01*
X101755167Y-73333270D01*
X101781361Y-72761380D01*
X101793068Y-72487189D01*
X101808889Y-72050004D01*
X101821511Y-71618997D01*
X101829868Y-71232176D01*
X101832891Y-70927553D01*
X101834707Y-70641240D01*
X101842230Y-70430075D01*
X101857831Y-70304284D01*
X101883873Y-70245688D01*
X101922717Y-70236109D01*
X102011180Y-70278773D01*
X102078725Y-70389228D01*
X102114771Y-70578401D01*
X102121632Y-70859334D01*
X102101620Y-71245071D01*
X102085218Y-71479903D01*
X102066460Y-71784801D01*
X102053010Y-72047695D01*
X102047028Y-72229591D01*
X102046664Y-72309181D01*
X102055346Y-72441803D01*
X102086022Y-72487891D01*
X102148887Y-72471673D01*
X102191561Y-72457401D01*
X102348493Y-72433532D01*
X102543624Y-72426346D01*
X102587973Y-72427481D01*
X102765089Y-72449667D01*
X102904623Y-72517386D01*
X103062438Y-72655288D01*
X103165584Y-72762403D01*
X103252760Y-72889810D01*
X103301213Y-73042794D01*
X103331745Y-73268740D01*
X103343500Y-73566413D01*
X103340558Y-73581692D01*
X103299675Y-73794026D01*
X103190038Y-73949742D01*
G37*
X103190038Y-73949742D02*
X103006588Y-74052859D01*
X102876530Y-74088194D01*
X102576992Y-74110330D01*
X102254530Y-74075774D01*
X101961929Y-73987811D01*
X101729830Y-73886458D01*
X101755167Y-73333270D01*
X101983365Y-73333270D01*
X101983741Y-73392729D01*
X101996147Y-73581113D01*
X102033333Y-73692091D01*
X102105060Y-73759886D01*
X102232682Y-73811397D01*
X102446872Y-73854609D01*
X102674005Y-73871331D01*
X102856114Y-73854278D01*
X102910525Y-73836879D01*
X103035637Y-73744365D01*
X103090657Y-73581692D01*
X103083731Y-73330096D01*
X103067297Y-73224735D01*
X103015241Y-73024898D01*
X102951918Y-72885980D01*
X102885237Y-72815816D01*
X102693394Y-72709769D01*
X102468037Y-72661210D01*
X102263744Y-72685999D01*
X102170276Y-72733000D01*
X102060022Y-72854038D01*
X102000926Y-73046724D01*
X101983365Y-73333270D01*
X101755167Y-73333270D01*
X101781361Y-72761380D01*
X101793068Y-72487189D01*
X101808889Y-72050004D01*
X101821511Y-71618997D01*
X101829868Y-71232176D01*
X101832891Y-70927553D01*
X101834707Y-70641240D01*
X101842230Y-70430075D01*
X101857831Y-70304284D01*
X101883873Y-70245688D01*
X101922717Y-70236109D01*
X102011180Y-70278773D01*
X102078725Y-70389228D01*
X102114771Y-70578401D01*
X102121632Y-70859334D01*
X102101620Y-71245071D01*
X102085218Y-71479903D01*
X102066460Y-71784801D01*
X102053010Y-72047695D01*
X102047028Y-72229591D01*
X102046664Y-72309181D01*
X102055346Y-72441803D01*
X102086022Y-72487891D01*
X102148887Y-72471673D01*
X102191561Y-72457401D01*
X102348493Y-72433532D01*
X102543624Y-72426346D01*
X102587973Y-72427481D01*
X102765089Y-72449667D01*
X102904623Y-72517386D01*
X103062438Y-72655288D01*
X103165584Y-72762403D01*
X103252760Y-72889810D01*
X103301213Y-73042794D01*
X103331745Y-73268740D01*
X103343500Y-73566413D01*
X103340558Y-73581692D01*
X103299675Y-73794026D01*
X103190038Y-73949742D01*
G36*
X110764975Y-72273664D02*
G01*
X110803661Y-72488568D01*
X110836196Y-72769761D01*
X110861430Y-73090697D01*
X110878219Y-73424828D01*
X110885413Y-73745608D01*
X110881865Y-74026489D01*
X110866429Y-74240923D01*
X110837957Y-74362365D01*
X110773892Y-74447555D01*
X110687800Y-74495308D01*
X110685579Y-74495250D01*
X110649649Y-74465743D01*
X110630182Y-74370022D01*
X110625541Y-74190218D01*
X110634093Y-73908459D01*
X110637506Y-73808832D01*
X110639340Y-73481442D01*
X110629504Y-73159490D01*
X110609402Y-72900284D01*
X110559410Y-72478957D01*
X110168662Y-72498439D01*
X110129518Y-72500455D01*
X109808388Y-72525973D01*
X109577246Y-72570358D01*
X109408665Y-72645329D01*
X109275216Y-72762607D01*
X109149471Y-72933910D01*
X109119759Y-72980428D01*
X109029773Y-73141101D01*
X108974243Y-73297143D01*
X108941645Y-73490224D01*
X108920455Y-73762013D01*
X108914475Y-73851112D01*
X108891374Y-74092429D01*
X108863275Y-74283770D01*
X108834965Y-74389976D01*
X108783423Y-74457148D01*
X108668283Y-74489102D01*
X108548061Y-74409882D01*
X108509425Y-74336870D01*
X108562357Y-74274455D01*
X108613015Y-74193658D01*
X108651737Y-74007871D01*
X108678650Y-73710040D01*
X108699305Y-73454982D01*
X108736631Y-73238198D01*
X108800629Y-73052935D01*
X108903673Y-72852010D01*
X109006307Y-72683540D01*
X109113725Y-72533762D01*
X109190136Y-72456608D01*
X109204632Y-72447093D01*
X109216115Y-72401579D01*
X109143411Y-72334104D01*
X108973603Y-72231225D01*
X108837928Y-72150414D01*
X108712778Y-72063753D01*
X108664469Y-72012488D01*
X108656778Y-71993623D01*
X108581144Y-71967346D01*
X108574577Y-71967056D01*
X108495928Y-71906491D01*
X108445138Y-71762120D01*
X108423380Y-71565324D01*
X108428801Y-71425512D01*
X108674922Y-71425512D01*
X108714919Y-71667431D01*
X108869310Y-71874844D01*
X109137363Y-72046651D01*
X109518342Y-72181749D01*
X109649286Y-72215068D01*
X109798055Y-72248078D01*
X109868199Y-72256730D01*
X109892772Y-72252320D01*
X110010372Y-72239257D01*
X110184510Y-72224039D01*
X110266333Y-72216880D01*
X110397719Y-72193863D01*
X110447688Y-72150212D01*
X110444028Y-72069367D01*
X110426940Y-71956592D01*
X110404011Y-71759682D01*
X110381778Y-71530300D01*
X110358417Y-71320243D01*
X110325366Y-71114168D01*
X110292168Y-70981166D01*
X110237360Y-70884531D01*
X110064662Y-70731174D01*
X109828355Y-70617435D01*
X109563697Y-70553914D01*
X109305949Y-70551209D01*
X109090368Y-70619918D01*
X109067867Y-70633677D01*
X108952260Y-70722689D01*
X108905166Y-70792470D01*
X108901987Y-70812803D01*
X108859987Y-70925987D01*
X108784787Y-71080223D01*
X108750055Y-71150192D01*
X108674922Y-71425512D01*
X108428801Y-71425512D01*
X108431827Y-71347487D01*
X108471653Y-71139990D01*
X108544029Y-70974218D01*
X108553929Y-70958920D01*
X108631844Y-70808732D01*
X108664011Y-70690854D01*
X108680530Y-70645214D01*
X108778488Y-70539699D01*
X108938910Y-70427191D01*
X109005791Y-70388976D01*
X109172132Y-70313589D01*
X109331172Y-70289882D01*
X109545261Y-70305324D01*
X109589216Y-70311055D01*
X109921319Y-70390272D01*
X110210922Y-70519396D01*
X110419680Y-70681912D01*
X110467646Y-70761927D01*
X110535011Y-70953228D01*
X110593618Y-71201803D01*
X110635212Y-71470607D01*
X110651540Y-71722594D01*
X110653756Y-71773243D01*
X110686120Y-71985964D01*
X110730583Y-72150212D01*
X110744579Y-72201912D01*
X110764975Y-72273664D01*
G37*
X110764975Y-72273664D02*
X110803661Y-72488568D01*
X110836196Y-72769761D01*
X110861430Y-73090697D01*
X110878219Y-73424828D01*
X110885413Y-73745608D01*
X110881865Y-74026489D01*
X110866429Y-74240923D01*
X110837957Y-74362365D01*
X110773892Y-74447555D01*
X110687800Y-74495308D01*
X110685579Y-74495250D01*
X110649649Y-74465743D01*
X110630182Y-74370022D01*
X110625541Y-74190218D01*
X110634093Y-73908459D01*
X110637506Y-73808832D01*
X110639340Y-73481442D01*
X110629504Y-73159490D01*
X110609402Y-72900284D01*
X110559410Y-72478957D01*
X110168662Y-72498439D01*
X110129518Y-72500455D01*
X109808388Y-72525973D01*
X109577246Y-72570358D01*
X109408665Y-72645329D01*
X109275216Y-72762607D01*
X109149471Y-72933910D01*
X109119759Y-72980428D01*
X109029773Y-73141101D01*
X108974243Y-73297143D01*
X108941645Y-73490224D01*
X108920455Y-73762013D01*
X108914475Y-73851112D01*
X108891374Y-74092429D01*
X108863275Y-74283770D01*
X108834965Y-74389976D01*
X108783423Y-74457148D01*
X108668283Y-74489102D01*
X108548061Y-74409882D01*
X108509425Y-74336870D01*
X108562357Y-74274455D01*
X108613015Y-74193658D01*
X108651737Y-74007871D01*
X108678650Y-73710040D01*
X108699305Y-73454982D01*
X108736631Y-73238198D01*
X108800629Y-73052935D01*
X108903673Y-72852010D01*
X109006307Y-72683540D01*
X109113725Y-72533762D01*
X109190136Y-72456608D01*
X109204632Y-72447093D01*
X109216115Y-72401579D01*
X109143411Y-72334104D01*
X108973603Y-72231225D01*
X108837928Y-72150414D01*
X108712778Y-72063753D01*
X108664469Y-72012488D01*
X108656778Y-71993623D01*
X108581144Y-71967346D01*
X108574577Y-71967056D01*
X108495928Y-71906491D01*
X108445138Y-71762120D01*
X108423380Y-71565324D01*
X108428801Y-71425512D01*
X108674922Y-71425512D01*
X108714919Y-71667431D01*
X108869310Y-71874844D01*
X109137363Y-72046651D01*
X109518342Y-72181749D01*
X109649286Y-72215068D01*
X109798055Y-72248078D01*
X109868199Y-72256730D01*
X109892772Y-72252320D01*
X110010372Y-72239257D01*
X110184510Y-72224039D01*
X110266333Y-72216880D01*
X110397719Y-72193863D01*
X110447688Y-72150212D01*
X110444028Y-72069367D01*
X110426940Y-71956592D01*
X110404011Y-71759682D01*
X110381778Y-71530300D01*
X110358417Y-71320243D01*
X110325366Y-71114168D01*
X110292168Y-70981166D01*
X110237360Y-70884531D01*
X110064662Y-70731174D01*
X109828355Y-70617435D01*
X109563697Y-70553914D01*
X109305949Y-70551209D01*
X109090368Y-70619918D01*
X109067867Y-70633677D01*
X108952260Y-70722689D01*
X108905166Y-70792470D01*
X108901987Y-70812803D01*
X108859987Y-70925987D01*
X108784787Y-71080223D01*
X108750055Y-71150192D01*
X108674922Y-71425512D01*
X108428801Y-71425512D01*
X108431827Y-71347487D01*
X108471653Y-71139990D01*
X108544029Y-70974218D01*
X108553929Y-70958920D01*
X108631844Y-70808732D01*
X108664011Y-70690854D01*
X108680530Y-70645214D01*
X108778488Y-70539699D01*
X108938910Y-70427191D01*
X109005791Y-70388976D01*
X109172132Y-70313589D01*
X109331172Y-70289882D01*
X109545261Y-70305324D01*
X109589216Y-70311055D01*
X109921319Y-70390272D01*
X110210922Y-70519396D01*
X110419680Y-70681912D01*
X110467646Y-70761927D01*
X110535011Y-70953228D01*
X110593618Y-71201803D01*
X110635212Y-71470607D01*
X110651540Y-71722594D01*
X110653756Y-71773243D01*
X110686120Y-71985964D01*
X110730583Y-72150212D01*
X110744579Y-72201912D01*
X110764975Y-72273664D01*
D14*
X344000000Y-127950001D02*
X344000000Y-123710001D01*
X346240000Y-127950001D02*
X344000000Y-127950001D01*
X345120000Y-128600001D02*
X345120000Y-127950001D01*
X344000000Y-123710001D02*
X346240000Y-123710001D01*
X345120000Y-123060001D02*
X345120000Y-123710001D01*
X346240000Y-123710001D02*
X346240000Y-127950001D01*
X344000000Y-124310001D02*
X346240000Y-124310001D01*
X344000000Y-124550001D02*
X346240000Y-124550001D01*
X344000000Y-124430001D02*
X346240000Y-124430001D01*
X141385150Y-101887722D02*
X143591119Y-102276694D01*
X141260123Y-102596784D02*
X143466093Y-102985756D01*
X141239285Y-102714961D02*
X143445255Y-103103933D01*
X141280961Y-102478607D02*
X143486930Y-102867579D01*
X140648882Y-106063307D02*
X141385150Y-101887722D01*
X142854851Y-106452279D02*
X140648882Y-106063307D01*
X141638995Y-106897918D02*
X141751866Y-106257793D01*
X143591119Y-102276694D02*
X142854851Y-106452279D01*
X142601006Y-101442083D02*
X142488135Y-102082208D01*
X179691006Y-108012083D02*
X179578135Y-108652208D01*
X178350123Y-109166784D02*
X180556093Y-109555756D01*
X178475150Y-108457722D02*
X180681119Y-108846694D01*
X178370961Y-109048607D02*
X180576930Y-109437579D01*
X179944851Y-113022279D02*
X177738882Y-112633307D01*
X177738882Y-112633307D02*
X178475150Y-108457722D01*
X178728995Y-113467918D02*
X178841866Y-112827793D01*
X180681119Y-108846694D02*
X179944851Y-113022279D01*
X178329285Y-109284961D02*
X180535255Y-109673933D01*
X92460000Y-87986597D02*
X94700000Y-87986597D01*
X93580000Y-92036597D02*
X93580000Y-91386597D01*
X92460000Y-87746597D02*
X94700000Y-87746597D01*
X92460000Y-87866597D02*
X94700000Y-87866597D01*
X92460000Y-87146597D02*
X94700000Y-87146597D01*
X92460000Y-91386597D02*
X92460000Y-87146597D01*
X94700000Y-91386597D02*
X92460000Y-91386597D01*
X94700000Y-87146597D02*
X94700000Y-91386597D01*
X93580000Y-86496597D02*
X93580000Y-87146597D01*
G36*
X89300490Y-70767653D02*
G01*
X89424637Y-70850300D01*
X89575332Y-70998347D01*
X89683270Y-71124409D01*
X89769404Y-71253179D01*
X89830693Y-71393835D01*
X89883041Y-71576241D01*
X89896498Y-71631312D01*
X89924054Y-71756087D01*
X89946122Y-71881265D01*
X89964406Y-72021143D01*
X89980608Y-72190018D01*
X89996433Y-72402190D01*
X90013583Y-72671954D01*
X90015916Y-72708758D01*
X90035537Y-72954021D01*
X90062091Y-73213726D01*
X90092388Y-73459090D01*
X90123238Y-73661331D01*
X90155215Y-73852475D01*
X90173869Y-73995643D01*
X90179483Y-74105997D01*
X90173002Y-74202483D01*
X90155375Y-74304050D01*
X90136026Y-74383895D01*
X90082353Y-74521531D01*
X90002614Y-74631699D01*
X89889187Y-74718170D01*
X89734451Y-74784717D01*
X89530786Y-74835112D01*
X89270570Y-74873127D01*
X88946184Y-74902533D01*
X88919653Y-74904484D01*
X88689203Y-74921686D01*
X88450393Y-74939884D01*
X88229933Y-74957026D01*
X88054532Y-74971061D01*
X87955019Y-74979229D01*
X87808711Y-74991297D01*
X87697220Y-75000567D01*
X87638994Y-75005509D01*
X87635533Y-75005768D01*
X87559174Y-74981479D01*
X87510562Y-74913884D01*
X87494358Y-74826963D01*
X87515227Y-74744691D01*
X87577832Y-74691047D01*
X87614183Y-74683551D01*
X87717893Y-74670398D01*
X87874561Y-74654638D01*
X88073365Y-74637262D01*
X88303478Y-74619262D01*
X88554077Y-74601629D01*
X88705957Y-74591030D01*
X88957871Y-74571107D01*
X89177321Y-74550749D01*
X89354458Y-74530992D01*
X89479434Y-74512877D01*
X89542401Y-74497440D01*
X89604057Y-74460800D01*
X89664400Y-74397021D01*
X89702847Y-74307111D01*
X89720427Y-74182300D01*
X89718170Y-74013820D01*
X89697106Y-73792899D01*
X89658264Y-73510769D01*
X89644708Y-73413311D01*
X89618013Y-73185750D01*
X89592221Y-72924607D01*
X89569721Y-72655019D01*
X89552901Y-72402124D01*
X89549691Y-72345779D01*
X89530571Y-72064509D01*
X89507631Y-71840977D01*
X89477637Y-71663091D01*
X89437358Y-71518762D01*
X89383561Y-71395899D01*
X89313013Y-71282411D01*
X89222483Y-71166208D01*
X89185692Y-71121880D01*
X89110636Y-71025660D01*
X89073628Y-70960872D01*
X89067269Y-70911139D01*
X89084160Y-70860087D01*
X89123355Y-70796170D01*
X89200769Y-70749808D01*
X89300490Y-70767653D01*
G37*
G36*
X84326619Y-71231871D02*
G01*
X84394242Y-71304603D01*
X84411262Y-71407774D01*
X84376140Y-71528630D01*
X84287336Y-71654420D01*
X84257598Y-71680499D01*
X84158131Y-71741306D01*
X84039927Y-71791550D01*
X83988733Y-71810295D01*
X83863659Y-71867908D01*
X83767671Y-71927230D01*
X83760247Y-71932797D01*
X83670596Y-71984844D01*
X83541009Y-72045030D01*
X83396868Y-72101432D01*
X83380929Y-72107050D01*
X83207506Y-72164373D01*
X83086898Y-72193223D01*
X83006904Y-72193857D01*
X82955319Y-72166534D01*
X82919942Y-72111512D01*
X82916746Y-72104312D01*
X82897505Y-72019138D01*
X82927786Y-71950405D01*
X83014889Y-71889724D01*
X83166114Y-71828709D01*
X83259898Y-71793140D01*
X83430712Y-71717641D01*
X83583159Y-71639087D01*
X83682904Y-71585199D01*
X83797988Y-71530356D01*
X83879436Y-71499909D01*
X83962905Y-71451203D01*
X84046327Y-71334387D01*
X84054995Y-71317586D01*
X84105262Y-71237022D01*
X84156694Y-71204592D01*
X84232944Y-71203734D01*
X84326619Y-71231871D01*
G37*
G36*
X82572550Y-70443363D02*
G01*
X82635201Y-70460178D01*
X82680874Y-70501982D01*
X82712841Y-70578168D01*
X82734377Y-70698128D01*
X82748756Y-70871254D01*
X82759250Y-71106940D01*
X82763922Y-71221527D01*
X82776933Y-71476354D01*
X82794095Y-71761165D01*
X82813722Y-72048820D01*
X82834127Y-72312181D01*
X82848357Y-72491584D01*
X82864991Y-72727297D01*
X82878337Y-72946793D01*
X82887293Y-73131594D01*
X82890759Y-73263220D01*
X82890767Y-73266464D01*
X82882111Y-73441122D01*
X82858437Y-73625141D01*
X82823800Y-73798195D01*
X82782251Y-73939956D01*
X82737844Y-74030099D01*
X82734306Y-74034395D01*
X82659845Y-74071193D01*
X82559525Y-74062430D01*
X82459629Y-74010005D01*
X82439684Y-73993356D01*
X82407488Y-73956127D01*
X82395317Y-73906821D01*
X82400821Y-73825871D01*
X82421651Y-73693713D01*
X82424635Y-73675387D01*
X82437136Y-73573331D01*
X82443581Y-73456723D01*
X82443799Y-73314150D01*
X82437616Y-73134197D01*
X82424861Y-72905451D01*
X82405360Y-72616498D01*
X82403096Y-72584406D01*
X82384015Y-72297830D01*
X82365571Y-71994764D01*
X82349001Y-71697264D01*
X82335539Y-71427388D01*
X82326421Y-71207193D01*
X82320080Y-71004292D01*
X82317337Y-70835029D01*
X82319857Y-70715108D01*
X82328333Y-70632652D01*
X82343463Y-70575782D01*
X82365943Y-70532618D01*
X82422098Y-70472508D01*
X82527264Y-70441359D01*
X82572550Y-70443363D01*
G37*
G36*
X91446788Y-70477436D02*
G01*
X91549563Y-70498758D01*
X91619641Y-70567347D01*
X91619690Y-70567422D01*
X91656415Y-70672759D01*
X91670893Y-70831806D01*
X91664252Y-71030235D01*
X91637622Y-71253721D01*
X91592132Y-71487937D01*
X91528912Y-71718555D01*
X91445585Y-72011587D01*
X91363378Y-72411406D01*
X91309475Y-72842574D01*
X91283149Y-73314085D01*
X91283668Y-73834934D01*
X91310304Y-74414115D01*
X91316242Y-74506562D01*
X91329878Y-74728188D01*
X91338174Y-74891394D01*
X91340877Y-75006095D01*
X91337730Y-75082208D01*
X91328478Y-75129650D01*
X91312866Y-75158336D01*
X91290639Y-75178184D01*
X91280279Y-75185224D01*
X91175962Y-75221234D01*
X91063117Y-75217647D01*
X90976287Y-75174831D01*
X90961906Y-75154012D01*
X90929405Y-75058120D01*
X90899671Y-74905294D01*
X90873344Y-74706082D01*
X90851064Y-74471031D01*
X90833472Y-74210690D01*
X90821206Y-73935608D01*
X90814908Y-73656331D01*
X90815216Y-73383409D01*
X90822771Y-73127389D01*
X90838213Y-72898819D01*
X90846261Y-72815271D01*
X90886611Y-72480680D01*
X90939021Y-72181930D01*
X91009366Y-71889694D01*
X91103522Y-71574646D01*
X91106788Y-71564458D01*
X91163000Y-71376076D01*
X91196312Y-71225349D01*
X91211355Y-71084826D01*
X91212759Y-70927053D01*
X91213144Y-70788687D01*
X91229631Y-70638403D01*
X91269226Y-70542669D01*
X91336595Y-70492107D01*
X91436402Y-70477337D01*
X91446788Y-70477436D01*
G37*
G36*
X86775496Y-70854515D02*
G01*
X86777787Y-70855255D01*
X86827476Y-70882568D01*
X86857956Y-70933087D01*
X86871123Y-71018764D01*
X86868875Y-71151549D01*
X86853109Y-71343393D01*
X86847288Y-71412064D01*
X86836039Y-71596086D01*
X86826494Y-71819195D01*
X86819517Y-72059271D01*
X86815973Y-72294192D01*
X86813266Y-72504688D01*
X86803415Y-72790341D01*
X86785454Y-73024908D01*
X86757887Y-73221086D01*
X86719214Y-73391570D01*
X86667939Y-73549058D01*
X86628633Y-73642012D01*
X86540872Y-73810245D01*
X86432991Y-73985931D01*
X86315304Y-74154636D01*
X86198126Y-74301926D01*
X86091773Y-74413368D01*
X86006559Y-74474528D01*
X85980562Y-74481563D01*
X85884750Y-74491467D01*
X85747777Y-74495026D01*
X85590085Y-74491411D01*
X85556655Y-74489638D01*
X85301813Y-74461363D01*
X85068611Y-74410589D01*
X84867109Y-74341453D01*
X84707363Y-74258090D01*
X84599433Y-74164633D01*
X84553376Y-74065218D01*
X84552235Y-74053904D01*
X84565702Y-73976099D01*
X84634268Y-73925716D01*
X84656534Y-73916388D01*
X84718923Y-73905309D01*
X84791905Y-73924288D01*
X84900157Y-73978194D01*
X85011764Y-74032000D01*
X85228811Y-74110025D01*
X85452054Y-74163292D01*
X85649313Y-74183002D01*
X85692616Y-74182575D01*
X85750334Y-74175413D01*
X85798928Y-74150959D01*
X85850650Y-74098564D01*
X85917753Y-74007579D01*
X86012489Y-73867354D01*
X86041637Y-73822892D01*
X86167912Y-73601442D01*
X86264966Y-73370738D01*
X86335615Y-73118563D01*
X86382675Y-72832700D01*
X86408961Y-72500928D01*
X86417290Y-72111032D01*
X86417319Y-72097089D01*
X86423751Y-71842972D01*
X86440126Y-71586914D01*
X86464580Y-71347380D01*
X86495251Y-71142832D01*
X86530273Y-70991733D01*
X86573047Y-70907389D01*
X86660661Y-70848648D01*
X86775496Y-70854515D01*
G37*
G36*
X93532729Y-69956957D02*
G01*
X93907637Y-70028933D01*
X94300746Y-70160281D01*
X94705511Y-70349502D01*
X94726233Y-70360671D01*
X94957202Y-70499791D01*
X95196193Y-70667048D01*
X95428714Y-70850408D01*
X95640274Y-71037837D01*
X95816384Y-71217302D01*
X95942552Y-71376770D01*
X96012168Y-71486640D01*
X96142602Y-71730159D01*
X96228098Y-71951243D01*
X96268496Y-72144394D01*
X96263638Y-72304116D01*
X96213364Y-72424911D01*
X96117514Y-72501282D01*
X95975929Y-72527731D01*
X95937740Y-72528466D01*
X95796473Y-72537228D01*
X95608484Y-72554248D01*
X95391370Y-72577462D01*
X95162727Y-72604808D01*
X94940153Y-72634221D01*
X94741244Y-72663638D01*
X94583597Y-72690995D01*
X94574183Y-72692822D01*
X94424871Y-72718629D01*
X94289269Y-72736945D01*
X94195685Y-72743909D01*
X94187135Y-72744042D01*
X94069177Y-72761041D01*
X93949266Y-72797875D01*
X93935327Y-72803494D01*
X93823832Y-72837818D01*
X93729504Y-72851841D01*
X93693418Y-72855607D01*
X93589022Y-72883166D01*
X93473062Y-72928686D01*
X93417684Y-72954049D01*
X93310046Y-73001800D01*
X93235269Y-73032950D01*
X93073404Y-73100007D01*
X92953792Y-73166686D01*
X92865524Y-73243376D01*
X92788866Y-73343819D01*
X92712663Y-73475555D01*
X92684100Y-73585505D01*
X92706942Y-73689835D01*
X92780801Y-73810961D01*
X92906741Y-73960862D01*
X93157399Y-74172916D01*
X93469121Y-74353280D01*
X93566665Y-74398232D01*
X93713558Y-74452987D01*
X93857713Y-74483501D01*
X94036058Y-74499283D01*
X94333164Y-74515853D01*
X94372368Y-74403394D01*
X94377146Y-74389973D01*
X94410690Y-74324605D01*
X94463568Y-74296765D01*
X94561944Y-74290934D01*
X94675095Y-74300225D01*
X94795350Y-74343726D01*
X94858609Y-74413884D01*
X94865173Y-74500773D01*
X94815342Y-74594469D01*
X94709415Y-74685046D01*
X94547693Y-74762578D01*
X94533535Y-74767398D01*
X94365202Y-74803280D01*
X94152305Y-74821372D01*
X93917452Y-74822298D01*
X93683250Y-74806683D01*
X93472305Y-74775152D01*
X93307223Y-74728327D01*
X93298230Y-74724682D01*
X93014347Y-74589344D01*
X92753449Y-74427104D01*
X92527559Y-74247486D01*
X92348700Y-74060013D01*
X92228897Y-73874209D01*
X92198523Y-73793680D01*
X92176781Y-73594889D01*
X92218184Y-73378481D01*
X92321531Y-73153790D01*
X92346414Y-73112663D01*
X92413471Y-73016183D01*
X92487047Y-72942257D01*
X92586862Y-72873572D01*
X92732635Y-72792810D01*
X92788740Y-72763902D01*
X92922210Y-72700690D01*
X93031868Y-72656214D01*
X93098230Y-72638687D01*
X93148822Y-72630715D01*
X93197208Y-72603370D01*
X93218717Y-72589229D01*
X93296251Y-72565343D01*
X93406201Y-72545262D01*
X93475367Y-72534351D01*
X93587746Y-72509975D01*
X93660164Y-72485503D01*
X93721020Y-72465398D01*
X93832447Y-72441699D01*
X93965971Y-72421328D01*
X94044082Y-72411435D01*
X94214290Y-72389254D01*
X94409939Y-72363213D01*
X94602407Y-72337101D01*
X94693145Y-72324770D01*
X94923736Y-72294174D01*
X95161380Y-72263455D01*
X95366926Y-72237701D01*
X95406342Y-72232855D01*
X95558973Y-72212585D01*
X95655449Y-72194660D01*
X95708545Y-72174695D01*
X95731036Y-72148304D01*
X95735694Y-72111102D01*
X95727866Y-72065629D01*
X95688815Y-71957763D01*
X95625753Y-71821891D01*
X95548566Y-71677301D01*
X95467138Y-71543283D01*
X95391353Y-71439126D01*
X95380262Y-71426120D01*
X95263356Y-71302406D01*
X95118068Y-71166226D01*
X94955865Y-71026483D01*
X94788213Y-70892080D01*
X94626580Y-70771920D01*
X94482432Y-70674905D01*
X94367236Y-70609938D01*
X94292458Y-70585923D01*
X94229190Y-70567159D01*
X94148548Y-70518258D01*
X94135528Y-70509079D01*
X94047814Y-70462204D01*
X93920001Y-70406523D01*
X93774929Y-70352187D01*
X93736859Y-70339198D01*
X93591460Y-70294362D01*
X93473643Y-70271808D01*
X93351338Y-70267397D01*
X93192473Y-70276989D01*
X93096609Y-70284340D01*
X92985651Y-70289168D01*
X92919803Y-70282639D01*
X92882561Y-70262211D01*
X92857423Y-70225340D01*
X92836086Y-70166849D01*
X92828265Y-70071058D01*
X92828749Y-70067864D01*
X92850513Y-70018498D01*
X92908039Y-69987101D01*
X93019405Y-69963499D01*
X93182567Y-69945852D01*
X93532729Y-69956957D01*
G37*
X297695150Y-131192279D02*
X296958882Y-127016694D01*
X299901119Y-130803307D02*
X297695150Y-131192279D01*
X298911006Y-131637918D02*
X298798135Y-130997793D01*
X297104746Y-127843933D02*
X299310716Y-127454961D01*
X297948995Y-126182083D02*
X298061866Y-126822208D01*
X296958882Y-127016694D02*
X299164851Y-126627722D01*
X297083908Y-127725756D02*
X299289878Y-127336784D01*
X297063071Y-127607579D02*
X299269040Y-127218607D01*
X299164851Y-126627722D02*
X299901119Y-130803307D01*
X181085150Y-108817722D02*
X183291119Y-109206694D01*
X180939285Y-109644961D02*
X183145255Y-110033933D01*
X180980961Y-109408607D02*
X183186930Y-109797579D01*
X180348882Y-112993307D02*
X181085150Y-108817722D01*
X182301006Y-108372083D02*
X182188135Y-109012208D01*
X180960123Y-109526784D02*
X183166093Y-109915756D01*
X181338995Y-113827918D02*
X181451866Y-113187793D01*
X183291119Y-109206694D02*
X182554851Y-113382279D01*
X182554851Y-113382279D02*
X180348882Y-112993307D01*
X325900000Y-142110000D02*
X325900000Y-142760000D01*
X327020000Y-147000000D02*
X324780000Y-147000000D01*
X327020000Y-142760000D02*
X327020000Y-147000000D01*
X324780000Y-147000000D02*
X324780000Y-142760000D01*
X324780000Y-143360000D02*
X327020000Y-143360000D01*
X325900000Y-147650000D02*
X325900000Y-147000000D01*
X324780000Y-142760000D02*
X327020000Y-142760000D01*
X324780000Y-143480000D02*
X327020000Y-143480000D01*
X324780000Y-143600000D02*
X327020000Y-143600000D01*
D13*
X334880000Y-84730000D02*
X334880000Y-80230000D01*
X337380000Y-78980000D02*
X338880000Y-78980000D01*
X338880000Y-85980000D02*
X337380000Y-85980000D01*
X341380000Y-80230000D02*
X341380000Y-84730000D01*
D14*
X288555594Y-143924200D02*
X288668465Y-144564325D01*
X287711345Y-145586050D02*
X289917315Y-145197078D01*
X289771450Y-144369839D02*
X290507718Y-148545424D01*
X287565481Y-144758811D02*
X289771450Y-144369839D01*
X289517605Y-149380035D02*
X289404734Y-148739910D01*
X290507718Y-148545424D02*
X288301749Y-148934396D01*
X288301749Y-148934396D02*
X287565481Y-144758811D01*
X287669670Y-145349696D02*
X289875639Y-144960724D01*
X287690507Y-145467873D02*
X289896477Y-145078901D01*
X341680000Y-81690000D02*
X343920000Y-81690000D01*
X343920000Y-80970000D02*
X343920000Y-85210000D01*
X341680000Y-85210000D02*
X341680000Y-80970000D01*
X342800000Y-80320000D02*
X342800000Y-80970000D01*
X343920000Y-85210000D02*
X341680000Y-85210000D01*
X342800000Y-85860000D02*
X342800000Y-85210000D01*
X341680000Y-80970000D02*
X343920000Y-80970000D01*
X341680000Y-81570000D02*
X343920000Y-81570000D01*
X341680000Y-81810000D02*
X343920000Y-81810000D01*
X119150000Y-106720000D02*
X121390000Y-106720000D01*
X119150000Y-110360000D02*
X119150000Y-106120000D01*
X120270000Y-105470000D02*
X120270000Y-106120000D01*
X121390000Y-106120000D02*
X121390000Y-110360000D01*
X121390000Y-110360000D02*
X119150000Y-110360000D01*
X119150000Y-106960000D02*
X121390000Y-106960000D01*
X119150000Y-106120000D02*
X121390000Y-106120000D01*
X119150000Y-106840000D02*
X121390000Y-106840000D01*
X120270000Y-111010000D02*
X120270000Y-110360000D01*
X279145150Y-134822279D02*
X278408882Y-130646694D01*
X280614851Y-130257722D02*
X281351119Y-134433307D01*
X278513071Y-131237579D02*
X280719040Y-130848607D01*
X279398995Y-129812083D02*
X279511866Y-130452208D01*
X280361006Y-135267918D02*
X280248135Y-134627793D01*
X278408882Y-130646694D02*
X280614851Y-130257722D01*
X278554746Y-131473933D02*
X280760716Y-131084961D01*
X278533908Y-131355756D02*
X280739878Y-130966784D01*
X281351119Y-134433307D02*
X279145150Y-134822279D01*
X341670000Y-93640000D02*
X343910000Y-93640000D01*
X342790000Y-97810000D02*
X342790000Y-97160000D01*
X343910000Y-97160000D02*
X341670000Y-97160000D01*
X341670000Y-93760000D02*
X343910000Y-93760000D01*
X343910000Y-92920000D02*
X343910000Y-97160000D01*
X341670000Y-92920000D02*
X343910000Y-92920000D01*
X342790000Y-92270000D02*
X342790000Y-92920000D01*
X341670000Y-97160000D02*
X341670000Y-92920000D01*
X341670000Y-93520000D02*
X343910000Y-93520000D01*
X106290000Y-125246597D02*
X108530000Y-125246597D01*
X108530000Y-125246597D02*
X108530000Y-129486597D01*
X106290000Y-126086597D02*
X108530000Y-126086597D01*
X107410000Y-130136597D02*
X107410000Y-129486597D01*
X106290000Y-125966597D02*
X108530000Y-125966597D01*
X107410000Y-124596597D02*
X107410000Y-125246597D01*
X106290000Y-129486597D02*
X106290000Y-125246597D01*
X108530000Y-129486597D02*
X106290000Y-129486597D01*
X106290000Y-125846597D02*
X108530000Y-125846597D01*
X292346450Y-143694839D02*
X293082718Y-147870424D01*
X290286345Y-144911050D02*
X292492315Y-144522078D01*
X290876749Y-148259396D02*
X290140481Y-144083811D01*
X291130594Y-143249200D02*
X291243465Y-143889325D01*
X290265507Y-144792873D02*
X292471477Y-144403901D01*
X290244670Y-144674696D02*
X292450639Y-144285724D01*
X293082718Y-147870424D02*
X290876749Y-148259396D01*
X292092605Y-148705035D02*
X291979734Y-148064910D01*
X290140481Y-144083811D02*
X292346450Y-143694839D01*
X284782605Y-108380035D02*
X284669734Y-107739910D01*
X282955507Y-104467873D02*
X285161477Y-104078901D01*
X282976345Y-104586050D02*
X285182315Y-104197078D01*
X282830481Y-103758811D02*
X285036450Y-103369839D01*
X283820594Y-102924200D02*
X283933465Y-103564325D01*
X283566749Y-107934396D02*
X282830481Y-103758811D01*
X282934670Y-104349696D02*
X285140639Y-103960724D01*
X285036450Y-103369839D02*
X285772718Y-107545424D01*
X285772718Y-107545424D02*
X283566749Y-107934396D01*
X320920000Y-85190000D02*
X318680000Y-85190000D01*
X318680000Y-80950000D02*
X320920000Y-80950000D01*
X318680000Y-81790000D02*
X320920000Y-81790000D01*
X319800000Y-85840000D02*
X319800000Y-85190000D01*
X318680000Y-81550000D02*
X320920000Y-81550000D01*
X319800000Y-80300000D02*
X319800000Y-80950000D01*
X318680000Y-85190000D02*
X318680000Y-80950000D01*
X320920000Y-80950000D02*
X320920000Y-85190000D01*
X318680000Y-81670000D02*
X320920000Y-81670000D01*
X320900000Y-127949998D02*
X318660000Y-127949998D01*
X318660000Y-124309998D02*
X320900000Y-124309998D01*
X319780000Y-123059998D02*
X319780000Y-123709998D01*
X319780000Y-128599998D02*
X319780000Y-127949998D01*
X318660000Y-127949998D02*
X318660000Y-123709998D01*
X318660000Y-124549998D02*
X320900000Y-124549998D01*
X318660000Y-124429998D02*
X320900000Y-124429998D01*
X320900000Y-123709998D02*
X320900000Y-127949998D01*
X318660000Y-123709998D02*
X320900000Y-123709998D01*
X179450123Y-92296784D02*
X181656093Y-92685756D01*
X179828995Y-96597918D02*
X179941866Y-95957793D01*
X179470961Y-92178607D02*
X181676930Y-92567579D01*
X179429285Y-92414961D02*
X181635255Y-92803933D01*
X181044851Y-96152279D02*
X178838882Y-95763307D01*
X180791006Y-91142083D02*
X180678135Y-91782208D01*
X181781119Y-91976694D02*
X181044851Y-96152279D01*
X179575150Y-91587722D02*
X181781119Y-91976694D01*
X178838882Y-95763307D02*
X179575150Y-91587722D01*
X155998995Y-148267918D02*
X156111866Y-147627793D01*
X155620123Y-143966784D02*
X157826093Y-144355756D01*
X155745150Y-143257722D02*
X157951119Y-143646694D01*
X156961006Y-142812083D02*
X156848135Y-143452208D01*
X157951119Y-143646694D02*
X157214851Y-147822279D01*
X157214851Y-147822279D02*
X155008882Y-147433307D01*
X155008882Y-147433307D02*
X155745150Y-143257722D01*
X155599285Y-144084961D02*
X157805255Y-144473933D01*
X155640961Y-143848607D02*
X157846930Y-144237579D01*
X115830000Y-91386597D02*
X115830000Y-87146597D01*
X116950000Y-86496597D02*
X116950000Y-87146597D01*
X115830000Y-87746597D02*
X118070000Y-87746597D01*
X115830000Y-87986597D02*
X118070000Y-87986597D01*
X116950000Y-92036597D02*
X116950000Y-91386597D01*
X115830000Y-87146597D02*
X118070000Y-87146597D01*
X118070000Y-91386597D02*
X115830000Y-91386597D01*
X118070000Y-87146597D02*
X118070000Y-91386597D01*
X115830000Y-87866597D02*
X118070000Y-87866597D01*
X348790000Y-142759999D02*
X351030000Y-142759999D01*
X348790000Y-143479999D02*
X351030000Y-143479999D01*
X348790000Y-143599999D02*
X351030000Y-143599999D01*
X348790000Y-146999999D02*
X348790000Y-142759999D01*
X351030000Y-142759999D02*
X351030000Y-146999999D01*
X351030000Y-146999999D02*
X348790000Y-146999999D01*
X348790000Y-143359999D02*
X351030000Y-143359999D01*
X349910000Y-142109999D02*
X349910000Y-142759999D01*
X349910000Y-147649999D02*
X349910000Y-146999999D01*
D13*
X325338842Y-108339254D02*
X324029048Y-108570206D01*
X323170739Y-111361658D02*
X324063291Y-116423570D01*
X326682879Y-115961666D02*
X324063291Y-116423570D01*
X325790327Y-110899754D02*
X326682879Y-115961666D01*
X325790327Y-110899754D02*
X323170739Y-111361658D01*
X325569794Y-109649048D02*
X325338842Y-108339254D01*
D14*
X260458995Y-132692083D02*
X260571866Y-133332208D01*
X259573071Y-134117579D02*
X261779040Y-133728607D01*
X260205150Y-137702279D02*
X259468882Y-133526694D01*
X259593908Y-134235756D02*
X261799878Y-133846784D01*
X259614746Y-134353933D02*
X261820716Y-133964961D01*
X259468882Y-133526694D02*
X261674851Y-133137722D01*
X262411119Y-137313307D02*
X260205150Y-137702279D01*
X261421006Y-138147918D02*
X261308135Y-137507793D01*
X261674851Y-133137722D02*
X262411119Y-137313307D01*
X294147793Y-85816533D02*
X296353763Y-85427561D01*
X294001929Y-84989294D02*
X296207898Y-84600322D01*
X294106118Y-85580179D02*
X296312087Y-85191207D01*
X294992042Y-84154683D02*
X295104913Y-84794808D01*
X295954053Y-89610518D02*
X295841182Y-88970393D01*
X296207898Y-84600322D02*
X296944166Y-88775907D01*
X296944166Y-88775907D02*
X294738197Y-89164879D01*
X294738197Y-89164879D02*
X294001929Y-84989294D01*
X294126955Y-85698356D02*
X296332925Y-85309384D01*
X159704851Y-92232279D02*
X157498882Y-91843307D01*
X158110123Y-88376784D02*
X160316093Y-88765756D01*
X158130961Y-88258607D02*
X160336930Y-88647579D01*
X158089285Y-88494961D02*
X160295255Y-88883933D01*
X158488995Y-92677918D02*
X158601866Y-92037793D01*
X157498882Y-91843307D02*
X158235150Y-87667722D01*
X158235150Y-87667722D02*
X160441119Y-88056694D01*
X160441119Y-88056694D02*
X159704851Y-92232279D01*
X159451006Y-87222083D02*
X159338135Y-87862208D01*
X257255507Y-92497873D02*
X259461477Y-92108901D01*
X257866749Y-95964396D02*
X257130481Y-91788811D01*
X260072718Y-95575424D02*
X257866749Y-95964396D01*
X258120594Y-90954200D02*
X258233465Y-91594325D01*
X259082605Y-96410035D02*
X258969734Y-95769910D01*
X257130481Y-91788811D02*
X259336450Y-91399839D01*
X257276345Y-92616050D02*
X259482315Y-92227078D01*
X259336450Y-91399839D02*
X260072718Y-95575424D01*
X257234670Y-92379696D02*
X259440639Y-91990724D01*
X183553550Y-134849839D02*
X185759519Y-135238811D01*
X183407685Y-135677078D02*
X185613655Y-136066050D01*
X183807395Y-139860035D02*
X183920266Y-139219910D01*
X184769406Y-134404200D02*
X184656535Y-135044325D01*
X183428523Y-135558901D02*
X185634493Y-135947873D01*
X182817282Y-139025424D02*
X183553550Y-134849839D01*
X185759519Y-135238811D02*
X185023251Y-139414396D01*
X183449361Y-135440724D02*
X185655330Y-135829696D01*
X185023251Y-139414396D02*
X182817282Y-139025424D01*
X159710961Y-105858607D02*
X161916930Y-106247579D01*
X161031006Y-104822083D02*
X160918135Y-105462208D01*
X162021119Y-105656694D02*
X161284851Y-109832279D01*
X159078882Y-109443307D02*
X159815150Y-105267722D01*
X159669285Y-106094961D02*
X161875255Y-106483933D01*
X159690123Y-105976784D02*
X161896093Y-106365756D01*
X159815150Y-105267722D02*
X162021119Y-105656694D01*
X161284851Y-109832279D02*
X159078882Y-109443307D01*
X160068995Y-110277918D02*
X160181866Y-109637793D01*
X262265507Y-108617873D02*
X264471477Y-108228901D01*
X264092605Y-112530035D02*
X263979734Y-111889910D01*
X262244670Y-108499696D02*
X264450639Y-108110724D01*
X262876749Y-112084396D02*
X262140481Y-107908811D01*
X264346450Y-107519839D02*
X265082718Y-111695424D01*
X262140481Y-107908811D02*
X264346450Y-107519839D01*
X262286345Y-108736050D02*
X264492315Y-108347078D01*
X263130594Y-107074200D02*
X263243465Y-107714325D01*
X265082718Y-111695424D02*
X262876749Y-112084396D01*
X91645000Y-148536595D02*
X89405000Y-148536595D01*
X89405000Y-145136595D02*
X91645000Y-145136595D01*
X89405000Y-144296595D02*
X91645000Y-144296595D01*
X90525000Y-149186595D02*
X90525000Y-148536595D01*
X91645000Y-144296595D02*
X91645000Y-148536595D01*
X89405000Y-144896595D02*
X91645000Y-144896595D01*
X90525000Y-143646595D02*
X90525000Y-144296595D01*
X89405000Y-145016595D02*
X91645000Y-145016595D01*
X89405000Y-148536595D02*
X89405000Y-144296595D01*
X165619361Y-132408607D02*
X167825330Y-132797579D01*
X167929519Y-132206694D02*
X167193251Y-136382279D01*
X165577685Y-132644961D02*
X167783655Y-133033933D01*
X165723550Y-131817722D02*
X167929519Y-132206694D01*
X165977395Y-136827918D02*
X166090266Y-136187793D01*
X164987282Y-135993307D02*
X165723550Y-131817722D01*
X166939406Y-131372083D02*
X166826535Y-132012208D01*
X165598523Y-132526784D02*
X167804493Y-132915756D01*
X167193251Y-136382279D02*
X164987282Y-135993307D01*
X85355000Y-144896596D02*
X87595000Y-144896596D01*
X85355000Y-148536596D02*
X85355000Y-144296596D01*
X87595000Y-144296596D02*
X87595000Y-148536596D01*
X87595000Y-148536596D02*
X85355000Y-148536596D01*
X86475000Y-149186596D02*
X86475000Y-148536596D01*
X86475000Y-143646596D02*
X86475000Y-144296596D01*
X85355000Y-144296596D02*
X87595000Y-144296596D01*
X85355000Y-145016596D02*
X87595000Y-145016596D01*
X85355000Y-145136596D02*
X87595000Y-145136596D01*
X187481006Y-134372083D02*
X187368135Y-135012208D01*
X186119285Y-135644961D02*
X188325255Y-136033933D01*
X186518995Y-139827918D02*
X186631866Y-139187793D01*
X185528882Y-138993307D02*
X186265150Y-134817722D01*
X188471119Y-135206694D02*
X187734851Y-139382279D01*
X187734851Y-139382279D02*
X185528882Y-138993307D01*
X186265150Y-134817722D02*
X188471119Y-135206694D01*
X186160961Y-135408607D02*
X188366930Y-135797579D01*
X186140123Y-135526784D02*
X188346093Y-135915756D01*
X258681006Y-138197918D02*
X258568135Y-137557793D01*
X256874746Y-134403933D02*
X259080716Y-134014961D01*
X256853908Y-134285756D02*
X259059878Y-133896784D01*
X258934851Y-133187722D02*
X259671119Y-137363307D01*
X256728882Y-133576694D02*
X258934851Y-133187722D01*
X257718995Y-132742083D02*
X257831866Y-133382208D01*
X257465150Y-137752279D02*
X256728882Y-133576694D01*
X259671119Y-137363307D02*
X257465150Y-137752279D01*
X256833071Y-134167579D02*
X259039040Y-133778607D01*
X303252605Y-105120035D02*
X303139734Y-104479910D01*
X301446345Y-101326050D02*
X303652315Y-100937078D01*
X304242718Y-104285424D02*
X302036749Y-104674396D01*
X301404670Y-101089696D02*
X303610639Y-100700724D01*
X301425507Y-101207873D02*
X303631477Y-100818901D01*
X302036749Y-104674396D02*
X301300481Y-100498811D01*
X303506450Y-100109839D02*
X304242718Y-104285424D01*
X301300481Y-100498811D02*
X303506450Y-100109839D01*
X302290594Y-99664200D02*
X302403465Y-100304325D01*
X264795507Y-107897873D02*
X267001477Y-107508901D01*
X265660594Y-106354200D02*
X265773465Y-106994325D01*
X264774670Y-107779696D02*
X266980639Y-107390724D01*
X267612718Y-110975424D02*
X265406749Y-111364396D01*
X264816345Y-108016050D02*
X267022315Y-107627078D01*
X264670481Y-107188811D02*
X266876450Y-106799839D01*
X266876450Y-106799839D02*
X267612718Y-110975424D01*
X266622605Y-111810035D02*
X266509734Y-111169910D01*
X265406749Y-111364396D02*
X264670481Y-107188811D01*
X147201006Y-127392083D02*
X147088135Y-128032208D01*
X147454851Y-132402279D02*
X145248882Y-132013307D01*
X145860123Y-128546784D02*
X148066093Y-128935756D01*
X145880961Y-128428607D02*
X148086930Y-128817579D01*
X148191119Y-128226694D02*
X147454851Y-132402279D01*
X145248882Y-132013307D02*
X145985150Y-127837722D01*
X146238995Y-132847918D02*
X146351866Y-132207793D01*
X145839285Y-128664961D02*
X148045255Y-129053933D01*
X145985150Y-127837722D02*
X148191119Y-128226694D01*
X140571006Y-83962083D02*
X140458135Y-84602208D01*
X139209285Y-85234961D02*
X141415255Y-85623933D01*
X141561119Y-84796694D02*
X140824851Y-88972279D01*
X139250961Y-84998607D02*
X141456930Y-85387579D01*
X139230123Y-85116784D02*
X141436093Y-85505756D01*
X140824851Y-88972279D02*
X138618882Y-88583307D01*
X139608995Y-89417918D02*
X139721866Y-88777793D01*
X139355150Y-84407722D02*
X141561119Y-84796694D01*
X138618882Y-88583307D02*
X139355150Y-84407722D01*
D15*
X211350000Y-92770687D03*
D16*
X211350000Y-95310687D03*
X211350000Y-97850687D03*
X211350000Y-100390687D03*
X211350000Y-102930687D03*
X211350000Y-105470687D03*
X211350000Y-108010687D03*
X211350000Y-110550687D03*
X211350000Y-113090687D03*
X211350000Y-115630687D03*
X211350000Y-118170687D03*
X211350000Y-120710687D03*
X226590000Y-120710687D03*
X226590000Y-118170687D03*
X226590000Y-115630687D03*
X226590000Y-113090687D03*
X226590000Y-110550687D03*
X226590000Y-108010687D03*
X226590000Y-105470687D03*
X226590000Y-102930687D03*
X226590000Y-100390687D03*
X226590000Y-97850687D03*
X226590000Y-95310687D03*
X226590000Y-92770687D03*
%LPC*%
D17*
X306589546Y-128320776D03*
D18*
X301586723Y-129202908D03*
X311592369Y-127438643D03*
D19*
X308208825Y-122876886D03*
X302396362Y-126480964D03*
D17*
X287828957Y-131628774D03*
D18*
X282826134Y-132510906D03*
X292831780Y-130746641D03*
D19*
X289448236Y-126184884D03*
X283635773Y-129788962D03*
D18*
X83085231Y-146416596D03*
D17*
X78005231Y-146416596D03*
D18*
X72925231Y-146416596D03*
D19*
X80545231Y-141336596D03*
X74195231Y-143876596D03*
D18*
X116422731Y-108316597D03*
D17*
X111342731Y-108316597D03*
D18*
X106262731Y-108316597D03*
D19*
X113882731Y-103236597D03*
X107532731Y-105776597D03*
D18*
X193854973Y-120149718D03*
D17*
X188852150Y-119267585D03*
D18*
X183849326Y-118385452D03*
D19*
X192235694Y-114705828D03*
X185541098Y-116104574D03*
D18*
X96737731Y-146416595D03*
D17*
X101817731Y-146416595D03*
D18*
X106897731Y-146416595D03*
D19*
X104357731Y-141336595D03*
X98007731Y-143876595D03*
D18*
X245304960Y-139126903D03*
D17*
X250307783Y-138244771D03*
D18*
X255310606Y-137362638D03*
D19*
X251927062Y-132800881D03*
X246114599Y-136404959D03*
D18*
X127567562Y-108461460D03*
X137573209Y-110225726D03*
D17*
X132570386Y-109343593D03*
D19*
X135953930Y-104781836D03*
X129259334Y-106180582D03*
D17*
X327566250Y-125829998D03*
D18*
X332646250Y-125829998D03*
X322486250Y-125829998D03*
D19*
X330106250Y-120749998D03*
X323756250Y-123289998D03*
D18*
X143645671Y-130640343D03*
D17*
X138642848Y-129758210D03*
D18*
X133640024Y-128876077D03*
D19*
X142026392Y-125196453D03*
X135331796Y-126595199D03*
D18*
X156333800Y-113533724D03*
X146328153Y-111769458D03*
D17*
X151330977Y-112651591D03*
D19*
X154714521Y-108089834D03*
X148019925Y-109488580D03*
D17*
X358522501Y-144879999D03*
D18*
X353442501Y-144879999D03*
X363602501Y-144879999D03*
D19*
X361062501Y-139799999D03*
X354712501Y-142339999D03*
D18*
X144946003Y-92181873D03*
D17*
X149948827Y-93064006D03*
D18*
X154951650Y-93946139D03*
D19*
X153332371Y-88502249D03*
X146637775Y-89900995D03*
D18*
X114041000Y-89266597D03*
D17*
X108961000Y-89266597D03*
D18*
X103881000Y-89266597D03*
D19*
X111501000Y-84186597D03*
X105151000Y-86726597D03*
D18*
X261382902Y-116948049D03*
D17*
X256380079Y-117830182D03*
D18*
X251377256Y-118712314D03*
D19*
X257999358Y-112386292D03*
X252186895Y-115990370D03*
D18*
X299660874Y-90854733D03*
X309666520Y-89090468D03*
D17*
X304663697Y-89972601D03*
D19*
X306282976Y-84528711D03*
X300470513Y-88132789D03*
D18*
X329630000Y-106780000D03*
D17*
X334710000Y-106780000D03*
D18*
X339790000Y-106780000D03*
D19*
X337250000Y-101700000D03*
X330900000Y-104240000D03*
D18*
X339789999Y-144880000D03*
D17*
X334709999Y-144880000D03*
D18*
X329629999Y-144880000D03*
D19*
X337249999Y-139800000D03*
X330899999Y-142340000D03*
D18*
X253384756Y-99014462D03*
D17*
X248381933Y-99896595D03*
D18*
X243379110Y-100778727D03*
D19*
X250001212Y-94452705D03*
X244188749Y-98056783D03*
D17*
X194924615Y-139682203D03*
D18*
X199927438Y-140564336D03*
X189921791Y-138800070D03*
D19*
X198308159Y-135120446D03*
X191613563Y-136519192D03*
D17*
X275140666Y-114522185D03*
D18*
X280143489Y-113640052D03*
X270137843Y-115404317D03*
D19*
X276759945Y-109078295D03*
X270947482Y-112682373D03*
D15*
X211350000Y-92770687D03*
D16*
X211350000Y-95310687D03*
X211350000Y-97850687D03*
X211350000Y-100390687D03*
X211350000Y-102930687D03*
X211350000Y-105470687D03*
X211350000Y-108010687D03*
X211350000Y-110550687D03*
X211350000Y-113090687D03*
X211350000Y-115630687D03*
X211350000Y-118170687D03*
X211350000Y-120710687D03*
X226590000Y-120710687D03*
X226590000Y-118170687D03*
X226590000Y-115630687D03*
X226590000Y-113090687D03*
X226590000Y-110550687D03*
X226590000Y-108010687D03*
X226590000Y-105470687D03*
X226590000Y-102930687D03*
X226590000Y-100390687D03*
X226590000Y-97850687D03*
X226590000Y-95310687D03*
X226590000Y-92770687D03*
D18*
X92610230Y-127366596D03*
X82450230Y-127366596D03*
D17*
X87530230Y-127366596D03*
D19*
X90070230Y-122286596D03*
X83720230Y-124826596D03*
D18*
X182467177Y-98797867D03*
X192472824Y-100562133D03*
D17*
X187470001Y-99680000D03*
D19*
X190853545Y-95118243D03*
X184158949Y-96516989D03*
D18*
X162406266Y-133948341D03*
X152400619Y-132184075D03*
D17*
X157403443Y-133066208D03*
D19*
X160786987Y-128504451D03*
X154092391Y-129903197D03*
D17*
X312661841Y-107906188D03*
D18*
X307659018Y-108788320D03*
X317664664Y-107024055D03*
D19*
X314281120Y-102462298D03*
X308468657Y-106066376D03*
D17*
X269068370Y-134936772D03*
D18*
X274071193Y-134054639D03*
X264065547Y-135818904D03*
D19*
X270687649Y-129492882D03*
X264875186Y-133096960D03*
D18*
X163706589Y-95489866D03*
X173712236Y-97254132D03*
D17*
X168709413Y-96371999D03*
D19*
X172092957Y-91810242D03*
X165398361Y-93208988D03*
D17*
X293901256Y-111214187D03*
D18*
X298904079Y-110332054D03*
X288898433Y-112096319D03*
D19*
X295520535Y-105770297D03*
X289708072Y-109374375D03*
D17*
X131188236Y-89756006D03*
D18*
X126185412Y-88873873D03*
X136191059Y-90638139D03*
D19*
X134571780Y-85194249D03*
X127877184Y-86592995D03*
D18*
X175094382Y-116841721D03*
X165088735Y-115077455D03*
D17*
X170091559Y-115959588D03*
D19*
X173475103Y-111397831D03*
X166780507Y-112796577D03*
D18*
X272145346Y-95706463D03*
D17*
X267142523Y-96588596D03*
D18*
X262139700Y-97470728D03*
D19*
X268761802Y-91144706D03*
X262949339Y-94748784D03*
D20*
X136822118Y-148938909D03*
X147851964Y-150883769D03*
D21*
X138572660Y-156863277D03*
D22*
X143496699Y-157731518D03*
X141034680Y-157297397D03*
X146014598Y-143451805D03*
X141090559Y-142583564D03*
D17*
X285903111Y-93280599D03*
D18*
X280900288Y-94162731D03*
X290905934Y-92398466D03*
D19*
X287522390Y-87836709D03*
X281709927Y-91440787D03*
D17*
X85148981Y-89266597D03*
D18*
X90228981Y-89266597D03*
X80068981Y-89266597D03*
D19*
X87688981Y-84186597D03*
X81338981Y-86726597D03*
D17*
X302862322Y-148321863D03*
D18*
X307865145Y-147439730D03*
X297859499Y-149203995D03*
D19*
X304481601Y-142877973D03*
X298669138Y-146482051D03*
D18*
X180203928Y-156430428D03*
D17*
X175201105Y-155548295D03*
D18*
X170198281Y-154666162D03*
D19*
X178584649Y-150986538D03*
X171890053Y-152385284D03*
D18*
X83085231Y-127366596D03*
X72925231Y-127366596D03*
D17*
X78005231Y-127366596D03*
D19*
X80545231Y-122286596D03*
X74195231Y-124826596D03*
D17*
X265341147Y-154937858D03*
D18*
X260338324Y-155819990D03*
X270343970Y-154055725D03*
D19*
X266960426Y-149493968D03*
X261147963Y-153098046D03*
D18*
X104516481Y-127366597D03*
X94356481Y-127366597D03*
D17*
X99436481Y-127366597D03*
D19*
X101976481Y-122286597D03*
X95626481Y-124826597D03*
D18*
X356458751Y-87729999D03*
X346298751Y-87729999D03*
D17*
X351378751Y-87729999D03*
D19*
X353918751Y-82649999D03*
X347568751Y-85189999D03*
D17*
X142370078Y-149759296D03*
D18*
X137367254Y-148877163D03*
X147372901Y-150641429D03*
D19*
X145753622Y-145197539D03*
X139059026Y-146596285D03*
D17*
X346616250Y-106780000D03*
D18*
X341536250Y-106780000D03*
X351696250Y-106780000D03*
D19*
X349156250Y-101700000D03*
X342806250Y-104240000D03*
D18*
X332646252Y-87730002D03*
X322486252Y-87730002D03*
D17*
X327566252Y-87730002D03*
D19*
X330106252Y-82650002D03*
X323756252Y-85190002D03*
D18*
X361221249Y-106780001D03*
D17*
X356141249Y-106780001D03*
D18*
X351061249Y-106780001D03*
D19*
X358681249Y-101700001D03*
X352331249Y-104240001D03*
D18*
X181166850Y-137256339D03*
D17*
X176164027Y-136374206D03*
D18*
X171161203Y-135492073D03*
D19*
X179547571Y-131812449D03*
X172852975Y-133211195D03*
D18*
X80068981Y-108316597D03*
D17*
X85148981Y-108316597D03*
D18*
X90228981Y-108316597D03*
D19*
X87688981Y-103236597D03*
X81338981Y-105776597D03*
D18*
X358840000Y-125830001D03*
X348680000Y-125830001D03*
D17*
X353760000Y-125830001D03*
D19*
X356300000Y-120750001D03*
X349950000Y-123290001D03*
D17*
X118486481Y-127366599D03*
D18*
X123566481Y-127366599D03*
X113406481Y-127366599D03*
D19*
X121026481Y-122286599D03*
X114676481Y-124826599D03*
D23*
X153870000Y-141470000D03*
D24*
X152546801Y-148974235D03*
D25*
X94240000Y-99970000D03*
D26*
X94240000Y-107590000D03*
D27*
X254630000Y-90300000D03*
D28*
X255953199Y-97804235D03*
D25*
X94200000Y-109900000D03*
D26*
X94200000Y-117520000D03*
D27*
X276068401Y-86437883D03*
D28*
X277391600Y-93942118D03*
D25*
X125910000Y-123556599D03*
D26*
X125910000Y-131176599D03*
D25*
X326400000Y-96300000D03*
D26*
X326400000Y-103920000D03*
D23*
X178221600Y-89617883D03*
D24*
X176898401Y-97122118D03*
D25*
X345120000Y-122020001D03*
D26*
X345120000Y-129640001D03*
D23*
X142781600Y-100417883D03*
D24*
X141458401Y-107922118D03*
D23*
X179871600Y-106987883D03*
D24*
X178548401Y-114492118D03*
D25*
X93580000Y-85456597D03*
D26*
X93580000Y-93076597D03*
D27*
X297768401Y-125157883D03*
D28*
X299091600Y-132662118D03*
D23*
X182481600Y-107347883D03*
D24*
X181158401Y-114852118D03*
D25*
X325900000Y-141070000D03*
D26*
X325900000Y-148690000D03*
D22*
X340380000Y-85730000D03*
X340380000Y-79230000D03*
X335880000Y-85730000D03*
X335880000Y-79230000D03*
D27*
X288375000Y-142900000D03*
D28*
X289698199Y-150404235D03*
D25*
X342800000Y-79280000D03*
D26*
X342800000Y-86900000D03*
D25*
X120270000Y-104430000D03*
D26*
X120270000Y-112050000D03*
D27*
X279218401Y-128787883D03*
D28*
X280541600Y-136292118D03*
D25*
X342790000Y-91230000D03*
D26*
X342790000Y-98850000D03*
D25*
X107410000Y-123556597D03*
D26*
X107410000Y-131176597D03*
D27*
X290950000Y-142225000D03*
D28*
X292273199Y-149729235D03*
D27*
X283640000Y-101900000D03*
D28*
X284963199Y-109404235D03*
D25*
X319800000Y-79260000D03*
D26*
X319800000Y-86880000D03*
D25*
X319780000Y-122019998D03*
D26*
X319780000Y-129639998D03*
D23*
X180971600Y-90117883D03*
D24*
X179648401Y-97622118D03*
D23*
X157141600Y-141787883D03*
D24*
X155818401Y-149292118D03*
D25*
X116950000Y-85456597D03*
D26*
X116950000Y-93076597D03*
D25*
X349910000Y-141069999D03*
D26*
X349910000Y-148689999D03*
D29*
X324260000Y-109880000D03*
D30*
X324701066Y-112381412D03*
X325142133Y-114882823D03*
D27*
X260278401Y-131667883D03*
D28*
X261601600Y-139172118D03*
D27*
X294811448Y-83130483D03*
D28*
X296134647Y-90634718D03*
D23*
X159631600Y-86197883D03*
D24*
X158308401Y-93702118D03*
D27*
X257940000Y-89930000D03*
D28*
X259263199Y-97434235D03*
D23*
X184950000Y-133380000D03*
D24*
X183626801Y-140884235D03*
D23*
X161211600Y-103797883D03*
D24*
X159888401Y-111302118D03*
D27*
X262950000Y-106050000D03*
D28*
X264273199Y-113554235D03*
D25*
X90525000Y-142606595D03*
D26*
X90525000Y-150226595D03*
D23*
X167120000Y-130347883D03*
D24*
X165796801Y-137852118D03*
D25*
X86475000Y-142606596D03*
D26*
X86475000Y-150226596D03*
D23*
X187661600Y-133347883D03*
D24*
X186338401Y-140852118D03*
D27*
X257538401Y-131717883D03*
D28*
X258861600Y-139222118D03*
D27*
X302110000Y-98640000D03*
D28*
X303433199Y-106144235D03*
D27*
X265480000Y-105330000D03*
D28*
X266803199Y-112834235D03*
D23*
X147381600Y-126367883D03*
D24*
X146058401Y-133872118D03*
D23*
X140751600Y-82937883D03*
D24*
X139428401Y-90442118D03*
M02*
