M48
; DRILL file {KiCad (6.0.6-69-g6d26e8e3e8)} date Wed Jul 20 16:21:02 2022
; FORMAT={-:-/ absolute / metric / decimal}
; #@! TF.CreationDate,2022-07-20T16:21:02-04:00
; #@! TF.GenerationSoftware,Kicad,Pcbnew,(6.0.6-69-g6d26e8e3e8)
; #@! TF.FileFunction,NonPlated,1,2,NPTH
FMAT,2
METRIC
; #@! TA.AperFunction,NonPlated,NPTH,ComponentDrill
T1C1.500
; #@! TA.AperFunction,NonPlated,NPTH,ComponentDrill
T2C1.700
; #@! TA.AperFunction,NonPlated,NPTH,ComponentDrill
T3C4.000
%
G90
G05
T2
X72.925Y-127.367
X72.925Y-146.417
X80.069Y-89.267
X80.069Y-108.317
X82.45Y-127.367
X83.085Y-127.367
X83.085Y-146.417
X90.229Y-89.267
X90.229Y-108.317
X92.61Y-127.367
X94.356Y-127.367
X96.738Y-146.417
X103.881Y-89.267
X104.516Y-127.367
X106.263Y-108.317
X106.898Y-146.417
X113.406Y-127.367
X114.041Y-89.267
X116.423Y-108.317
X123.566Y-127.367
X126.185Y-88.874
X127.568Y-108.461
X133.64Y-128.876
X136.191Y-90.638
X137.367Y-148.877
X137.573Y-110.226
X143.646Y-130.64
X144.946Y-92.182
X146.328Y-111.769
X147.373Y-150.641
X152.401Y-132.184
X154.952Y-93.946
X156.334Y-113.534
X162.406Y-133.948
X163.707Y-95.49
X165.089Y-115.077
X170.198Y-154.666
X171.161Y-135.492
X173.712Y-97.254
X175.094Y-116.842
X180.204Y-156.43
X181.167Y-137.256
X182.467Y-98.798
X183.849Y-118.385
X189.922Y-138.8
X192.473Y-100.562
X193.855Y-120.15
X199.927Y-140.564
X243.379Y-100.779
X245.305Y-139.127
X251.377Y-118.712
X253.385Y-99.014
X255.311Y-137.363
X260.338Y-155.82
X261.383Y-116.948
X262.14Y-97.471
X264.066Y-135.819
X270.138Y-115.404
X270.344Y-154.056
X272.145Y-95.706
X274.071Y-134.055
X280.143Y-113.64
X280.9Y-94.163
X282.826Y-132.511
X288.898Y-112.096
X290.906Y-92.398
X292.832Y-130.747
X297.859Y-149.204
X298.904Y-110.332
X299.661Y-90.855
X301.587Y-129.203
X307.659Y-108.788
X307.865Y-147.44
X309.667Y-89.09
X311.592Y-127.439
X317.665Y-107.024
X322.486Y-125.83
X322.486Y-87.73
X329.63Y-144.88
X329.63Y-106.78
X332.646Y-125.83
X332.646Y-87.73
X339.79Y-144.88
X339.79Y-106.78
X341.536Y-106.78
X346.299Y-87.73
X348.68Y-125.83
X351.061Y-106.78
X351.696Y-106.78
X353.443Y-144.88
X356.459Y-87.73
X358.84Y-125.83
X361.221Y-106.78
X363.603Y-144.88
T3
X78.005Y-127.367
X78.005Y-146.417
X85.149Y-89.267
X85.149Y-108.317
X87.53Y-127.367
X99.436Y-127.367
X101.818Y-146.417
X108.961Y-89.267
X111.343Y-108.317
X118.486Y-127.367
X131.188Y-89.756
X132.57Y-109.344
X138.643Y-129.758
X142.37Y-149.759
X149.949Y-93.064
X151.331Y-112.652
X157.403Y-133.066
X168.709Y-96.372
X170.092Y-115.96
X175.201Y-155.548
X176.164Y-136.374
X187.47Y-99.68
X188.852Y-119.268
X194.925Y-139.682
X248.382Y-99.897
X250.308Y-138.245
X256.38Y-117.83
X265.341Y-154.938
X267.143Y-96.589
X269.068Y-134.937
X275.141Y-114.522
X285.903Y-93.281
X287.829Y-131.629
X293.901Y-111.214
X302.862Y-148.322
X304.664Y-89.973
X306.59Y-128.321
X312.662Y-107.906
X327.566Y-125.83
X327.566Y-87.73
X334.71Y-144.88
X334.71Y-106.78
X346.616Y-106.78
X351.379Y-87.73
X353.76Y-125.83
X356.141Y-106.78
X358.523Y-144.88
T1
X136.709Y-149.579G85X136.935Y-148.299
G05
X147.739Y-151.524G85X147.965Y-150.244
G05
T0
M30
