G04 #@! TF.GenerationSoftware,KiCad,Pcbnew,(6.0.6-69-g6d26e8e3e8)*
G04 #@! TF.CreationDate,2022-07-20T16:25:23-04:00*
G04 #@! TF.ProjectId,plate,706c6174-652e-46b6-9963-61645f706362,rev?*
G04 #@! TF.SameCoordinates,Original*
G04 #@! TF.FileFunction,Profile,NP*
%FSLAX46Y46*%
G04 Gerber Fmt 4.6, Leading zero omitted, Abs format (unit mm)*
G04 Created by KiCad (PCBNEW (6.0.6-69-g6d26e8e3e8)) date 2022-07-20 16:25:23*
%MOMM*%
%LPD*%
G01*
G04 APERTURE LIST*
G04 #@! TA.AperFunction,Profile*
%ADD10C,0.200000*%
G04 #@! TD*
G04 APERTURE END LIST*
D10*
X222796177Y-210639826D02*
X222741557Y-210649892D01*
X364842997Y-200081768D02*
X364862795Y-200029878D01*
X352042104Y-115934858D02*
X352075370Y-115890384D01*
X213216813Y-166754950D02*
X213226895Y-166741172D01*
X120714358Y-141196282D02*
X123145258Y-127409959D01*
X364434335Y-198301482D02*
X364392592Y-198264848D01*
X53025564Y-116609919D02*
X53076921Y-116631062D01*
X362526384Y-198118789D02*
X362479450Y-198148483D01*
X40010627Y-198964831D02*
X39993556Y-199017682D01*
X55144998Y-114544959D02*
X55123410Y-114493787D01*
X349808264Y-113681547D02*
X349764671Y-113715960D01*
X180597656Y-126445115D02*
X180543419Y-126457070D01*
X254783542Y-190167691D02*
X255599689Y-194796287D01*
X304415163Y-138061166D02*
X318414163Y-138061166D01*
X192558618Y-166880042D02*
X192573355Y-166888662D01*
X52079718Y-115390105D02*
X52089309Y-115444810D01*
X179540981Y-128833304D02*
X179570267Y-128880495D01*
X213319624Y-128241005D02*
X213323266Y-128171408D01*
X191850708Y-127032634D02*
X191894622Y-127086880D01*
X350679951Y-111315036D02*
X350851339Y-111342011D01*
X151136568Y-195141738D02*
X152639384Y-195406725D01*
X361827382Y-199950832D02*
X361844453Y-200003683D01*
X213017611Y-166911438D02*
X213033152Y-166904369D01*
X223836131Y-128904122D02*
X223874542Y-128944237D01*
X222851113Y-213804587D02*
X222906299Y-213810839D01*
X363507254Y-203276363D02*
X363337208Y-203315628D01*
X213659212Y-127193967D02*
X213699126Y-127136838D01*
X367103918Y-199803161D02*
X367052885Y-199970053D01*
X364949566Y-199319221D02*
X364942835Y-199264092D01*
X352369018Y-114788102D02*
X352362286Y-114732972D01*
X351933335Y-116060987D02*
X351971044Y-116020211D01*
X40645624Y-200820031D02*
X40692559Y-200849725D01*
X192420008Y-166754950D02*
X192430555Y-166768376D01*
X38226809Y-200872394D02*
X38145705Y-200722108D01*
X40312733Y-200527880D02*
X40349728Y-200569304D01*
X183600516Y-210809924D02*
X183551184Y-210784410D01*
X181419886Y-129531568D02*
X181472274Y-129513127D01*
X349206760Y-115258055D02*
X349218244Y-115312394D01*
X350847092Y-113355933D02*
X350791571Y-113354487D01*
X53507727Y-113548466D02*
X53452541Y-113554719D01*
X224178961Y-126451028D02*
X224132027Y-126480723D01*
X223763600Y-126815556D02*
X223729567Y-126859447D01*
X192172845Y-127568912D02*
X192197851Y-127634072D01*
X364474782Y-198339544D02*
X364434335Y-198301482D01*
X223464733Y-127405911D02*
X223451369Y-127459818D01*
X191550066Y-126742198D02*
X191604297Y-126786132D01*
X52780055Y-111637257D02*
X52941678Y-111575834D01*
X42853795Y-198592613D02*
X42822093Y-198547010D01*
X167305538Y-207303210D02*
X166337329Y-207132489D01*
X181294850Y-211806249D02*
X181281487Y-211860157D01*
X223451369Y-127459818D02*
X223439885Y-127514157D01*
X363967319Y-200965078D02*
X364018302Y-200943048D01*
X183600516Y-213626324D02*
X183648932Y-213599113D01*
X53234959Y-116683627D02*
X53288749Y-116697458D01*
X43028969Y-200027299D02*
X43046955Y-199974753D01*
X224275779Y-129238957D02*
X224325547Y-129263611D01*
X184228878Y-213014112D02*
X184255668Y-212965462D01*
X184304104Y-211570730D02*
X184280753Y-211520338D01*
X363372120Y-197885606D02*
X363316583Y-197886088D01*
X182523679Y-210649892D02*
X182469442Y-210661847D01*
X53563097Y-116738230D02*
X53618584Y-116740639D01*
X279785980Y-180638149D02*
X277355079Y-166851826D01*
X80988372Y-177697761D02*
X81629641Y-179167260D01*
X351769054Y-116210289D02*
X351812044Y-116175125D01*
X349463953Y-115867720D02*
X349496442Y-115912765D01*
X361844453Y-198967410D02*
X361827382Y-199020260D01*
X92665642Y-182748759D02*
X78666642Y-182748759D01*
X351282666Y-116472648D02*
X351335054Y-116454207D01*
X182244292Y-128903702D02*
X182274393Y-128857027D01*
X349993773Y-116349231D02*
X350042654Y-116375598D01*
X236226953Y-207530164D02*
X235155810Y-207711541D01*
X221631310Y-212940795D02*
X221657252Y-212989903D01*
X42585773Y-203423025D02*
X42415024Y-203420107D01*
X222274894Y-213612929D02*
X222323775Y-213639296D01*
X42415024Y-203420107D02*
X42244474Y-203411361D01*
X88191642Y-144648761D02*
X88191642Y-158647761D01*
X223510790Y-210683291D02*
X223457249Y-210668529D01*
X40554987Y-200755847D02*
X40599748Y-200788725D01*
X362221965Y-200611997D02*
X362261745Y-200650755D01*
X352912131Y-112210960D02*
X353051089Y-112314844D01*
X182329645Y-127266009D02*
X182302855Y-127217359D01*
X225355232Y-126255296D02*
X225300795Y-126244283D01*
X354467642Y-114045541D02*
X354542010Y-114202292D01*
X223914322Y-126652577D02*
X223874542Y-126691335D01*
X53342986Y-113572949D02*
X53288749Y-113584905D01*
X221478289Y-211969201D02*
X221470602Y-212024205D01*
X362826980Y-197976318D02*
X362774920Y-197995666D01*
X184304104Y-212865518D02*
X184325691Y-212814346D01*
X349808264Y-116227306D02*
X349853026Y-116260184D01*
X192391201Y-166712624D02*
X192400319Y-166727058D01*
X225912670Y-129139395D02*
X225957995Y-129107298D01*
X54217604Y-116640962D02*
X54269320Y-116620714D01*
X55123410Y-115788576D02*
X55144998Y-115737404D01*
X40277197Y-198480738D02*
X40243165Y-198524629D01*
X182244292Y-127122992D02*
X182212590Y-127077390D01*
X183292912Y-210683291D02*
X183239371Y-210668529D01*
X221460976Y-212134849D02*
X221459048Y-212190355D01*
X213978041Y-126826296D02*
X214030572Y-126780499D01*
X224532258Y-129344542D02*
X224585535Y-129360232D01*
X181916269Y-213523882D02*
X181962144Y-213555187D01*
X180489630Y-126470901D02*
X180436353Y-126486590D01*
X225770398Y-129225986D02*
X225818815Y-129198775D01*
X40277197Y-200485197D02*
X40312733Y-200527880D01*
X51582620Y-112320953D02*
X51721320Y-112217719D01*
X223769062Y-213651839D02*
X223818394Y-213626324D01*
X179317075Y-127930072D02*
X179315147Y-127985577D01*
X54694593Y-113920483D02*
X54651604Y-113885319D01*
X363205726Y-197892831D02*
X363150540Y-197899084D01*
X350460436Y-113386194D02*
X350406199Y-113398150D01*
X240309563Y-197492349D02*
X241812380Y-197227362D01*
X181496290Y-213085272D02*
X181527196Y-213131418D01*
X42600510Y-198298904D02*
X42558766Y-198262269D01*
X40122853Y-198711189D02*
X40096912Y-198760297D01*
X237908055Y-135119647D02*
X224121731Y-137550547D01*
X57827641Y-179167260D02*
X61127641Y-179167260D01*
X213245620Y-166712624D02*
X213254240Y-166697887D01*
X213195267Y-166781434D02*
X213206266Y-166768376D01*
X40096912Y-198760297D02*
X40072690Y-198810276D01*
X224418294Y-211374444D02*
X224388193Y-211327769D01*
X43123445Y-199427437D02*
X43120554Y-199371973D01*
X223457249Y-213767719D02*
X223510790Y-213752957D01*
X224581354Y-212709909D02*
X224597505Y-212656770D01*
X362879681Y-201012303D02*
X362932958Y-201027992D01*
X349988151Y-111266980D02*
X350161622Y-111269981D01*
X41538294Y-197883028D02*
X41482757Y-197883510D01*
X40179770Y-200350116D02*
X40210676Y-200396261D01*
X344015661Y-158580664D02*
X344656929Y-157111165D01*
X224803117Y-129404248D02*
X224858303Y-129410501D01*
X192516292Y-166851235D02*
X192530070Y-166861317D01*
X52315597Y-116008329D02*
X52346503Y-116054475D01*
X38500223Y-201305424D02*
X38404171Y-201164222D01*
X55259272Y-115085651D02*
X55256381Y-115030187D01*
X41759607Y-197900349D02*
X41704537Y-197893139D01*
X182399669Y-128609569D02*
X182419467Y-128557679D01*
X213294983Y-166604089D02*
X213299869Y-166587730D01*
X352300232Y-115446212D02*
X352316383Y-115393073D01*
X362479450Y-198148483D02*
X362433574Y-198179788D01*
X182499506Y-128234802D02*
X182506238Y-128179672D01*
X221563920Y-212788487D02*
X221584617Y-212840026D01*
X261642909Y-130934551D02*
X264073810Y-144720875D01*
X149544387Y-204171440D02*
X148576179Y-204000719D01*
X325557910Y-195211164D02*
X325557910Y-181212164D01*
X179317075Y-128096622D02*
X179320928Y-128152028D01*
X54607419Y-116430694D02*
X54651604Y-116397043D01*
X192400319Y-166727058D02*
X192409925Y-166741172D01*
X352330680Y-114569448D02*
X352316383Y-114515780D01*
X214315340Y-126580411D02*
X214376232Y-126546514D01*
X40388139Y-200609419D02*
X40427919Y-200648176D01*
X52089309Y-115444810D02*
X52100794Y-115499149D01*
X175253691Y-196012867D02*
X174829558Y-198418246D01*
X226086912Y-129001849D02*
X226127359Y-128963788D01*
X224134908Y-211034060D02*
X224093165Y-210997426D01*
X39936204Y-199289049D02*
X39930430Y-199344287D01*
X41072829Y-203188622D02*
X40910967Y-203134175D01*
X225135654Y-126222664D02*
X225080217Y-126219292D01*
X213283549Y-166636259D02*
X213289541Y-166620272D01*
X364896932Y-199924193D02*
X364911229Y-199870525D01*
X39926577Y-199566243D02*
X39930430Y-199621648D01*
X224654953Y-212107129D02*
X224650139Y-212051799D01*
X183648932Y-210837135D02*
X183600516Y-210809924D01*
X182511052Y-127902352D02*
X182506238Y-127847022D01*
X363702655Y-197923056D02*
X363648218Y-197912044D01*
X364655918Y-198549589D02*
X364622653Y-198505114D01*
X349370412Y-181212163D02*
X335371412Y-181212163D01*
X245313222Y-148028872D02*
X259099546Y-145597971D01*
X179401125Y-127495210D02*
X179384054Y-127548061D01*
X335371412Y-195211163D02*
X349370412Y-195211163D01*
X225190940Y-126227957D02*
X225135654Y-126222664D01*
X182362375Y-213744881D02*
X182415653Y-213760570D01*
X181559685Y-213176463D02*
X181593718Y-213220354D01*
X182108264Y-126947562D02*
X182070555Y-126906787D01*
X353317778Y-112536759D02*
X353445188Y-112654521D01*
X226450636Y-127119999D02*
X226425550Y-127070448D01*
X52157656Y-111937628D02*
X52309266Y-111854506D01*
X125688625Y-142073382D02*
X139474949Y-144504282D01*
X364587863Y-198461821D02*
X364551592Y-198419761D01*
X55048185Y-114345193D02*
X55019722Y-114297501D01*
X52563746Y-116306390D02*
X52604847Y-116343744D01*
X51065933Y-112779907D02*
X51189074Y-112658534D01*
X143867034Y-203177863D02*
X142798454Y-202981950D01*
X351487941Y-116388141D02*
X351537273Y-116362627D01*
X192274726Y-127902232D02*
X192288040Y-127970743D01*
X109334392Y-163698763D02*
X95335392Y-163698763D01*
X148262258Y-151182640D02*
X145831357Y-164968964D01*
X181243098Y-212301399D02*
X181246950Y-212356805D01*
X362261745Y-198320338D02*
X362221965Y-198359095D01*
X318414161Y-162162162D02*
X304415161Y-162162162D01*
X365093556Y-202570057D02*
X364947192Y-202665109D01*
X221607089Y-212890816D02*
X221631310Y-212940795D01*
X344607911Y-162162165D02*
X330608911Y-162162165D01*
X361764256Y-199346865D02*
X361760403Y-199402271D01*
X224624227Y-211887277D02*
X224611801Y-211833145D01*
X349853026Y-113648669D02*
X349808264Y-113681547D01*
X226609847Y-127873316D02*
X226610811Y-127817786D01*
X213551738Y-127373204D02*
X213585473Y-127312222D01*
X363095604Y-201063844D02*
X363150540Y-201072009D01*
X259662894Y-203390281D02*
X258694685Y-203561003D01*
X223238936Y-213807952D02*
X223294005Y-213800743D01*
X363863214Y-201003767D02*
X363915603Y-200985326D01*
X362433574Y-200791304D02*
X362479450Y-200822609D01*
X362986747Y-201041823D02*
X363040985Y-201053778D01*
X165690149Y-187814482D02*
X168121049Y-174028159D01*
X181862090Y-126723834D02*
X181816765Y-126691737D01*
X54924654Y-116121613D02*
X54957920Y-116077139D01*
X191195620Y-126520600D02*
X191257799Y-126552301D01*
X351812044Y-116175125D02*
X351853787Y-116138490D01*
X362932958Y-201027992D02*
X362986747Y-201041823D01*
X95335392Y-177697763D02*
X109334392Y-177697763D01*
X256398470Y-199326403D02*
X257214617Y-203955000D01*
X365375891Y-202364928D02*
X365236514Y-202469956D01*
X54889864Y-116164906D02*
X54924654Y-116121613D01*
X181150104Y-126430728D02*
X181095035Y-126423519D01*
X41316714Y-201069430D02*
X41371900Y-201075683D01*
X234203787Y-202312346D02*
X232655597Y-201938493D01*
X349993773Y-113559622D02*
X349945836Y-113587669D01*
X361760403Y-199568821D02*
X361764256Y-199624227D01*
X181327148Y-211699988D02*
X181310077Y-211752838D01*
X147550392Y-205546070D02*
X144300527Y-204973031D01*
X363756676Y-197935951D02*
X363702655Y-197923056D01*
X52072030Y-114947262D02*
X52066257Y-115002501D01*
X352137173Y-115798106D02*
X352165635Y-115750415D01*
X224479557Y-126308558D02*
X224427497Y-126327905D01*
X264073810Y-144720875D02*
X277860134Y-142289974D01*
X213463556Y-127562678D02*
X213490743Y-127498509D01*
X224563368Y-211673792D02*
X224543570Y-211621902D01*
X213585473Y-127312222D02*
X213621312Y-127252452D01*
X54004656Y-113578692D02*
X53950219Y-113567679D01*
X213377619Y-127827645D02*
X213395626Y-127760320D01*
X221684882Y-211398167D02*
X221657252Y-211446345D01*
X39930430Y-199621648D02*
X39936204Y-199676887D01*
X181243098Y-212134849D02*
X181241170Y-212190355D01*
X179326701Y-127819428D02*
X179320928Y-127874666D01*
X224969159Y-126218328D02*
X224913673Y-126220737D01*
X226047581Y-175898723D02*
X228478482Y-189685047D01*
X212852531Y-166951666D02*
X212869542Y-166950211D01*
X224226898Y-126422981D02*
X224178961Y-126451028D01*
X241108345Y-202022465D02*
X241901743Y-206522051D01*
X213078202Y-166880042D02*
X213092636Y-166870923D01*
X53785078Y-113546059D02*
X53729641Y-113542687D01*
X182514906Y-128013347D02*
X182513942Y-127957816D01*
X53397605Y-113562883D02*
X53342986Y-113572949D01*
X181346042Y-211647761D02*
X181327148Y-211699988D01*
X253311365Y-165962461D02*
X267097689Y-163531560D01*
X344656929Y-157111165D02*
X346989160Y-157111165D01*
X52485555Y-116227517D02*
X52523966Y-116267632D01*
X133143241Y-182075584D02*
X146929565Y-184506484D01*
X232119877Y-155484134D02*
X234550778Y-169270458D01*
X212953309Y-166934291D02*
X212969668Y-166929404D01*
X181991007Y-129197411D02*
X182031454Y-129159349D01*
X349370412Y-195211163D02*
X349370412Y-181212163D01*
X40889737Y-198014230D02*
X40839144Y-198037142D01*
X352474822Y-111929080D02*
X352623823Y-112017961D01*
X361777716Y-199236623D02*
X361770029Y-199291627D01*
X49724445Y-115347956D02*
X49759596Y-115178666D01*
X40029522Y-200053330D02*
X40050218Y-200104870D01*
X224643407Y-211996669D02*
X224634767Y-211941807D01*
X182419467Y-128557679D02*
X182437452Y-128505132D01*
X224803117Y-126231323D02*
X224748181Y-126239487D01*
X179513351Y-128785126D02*
X179540981Y-128833304D01*
X362146559Y-198440634D02*
X362111023Y-198483317D01*
X39978330Y-199894842D02*
X39993556Y-199948254D01*
X299335673Y-203500703D02*
X235195727Y-214789093D01*
X40789377Y-200904139D02*
X40839144Y-200928793D01*
X181281487Y-212576091D02*
X181294850Y-212629999D01*
X54118702Y-111306631D02*
X54290957Y-111291690D01*
X184200416Y-211374444D02*
X184170315Y-211327769D01*
X351537273Y-116362627D02*
X351585690Y-116335416D01*
X181629253Y-211173212D02*
X181593718Y-211215895D01*
X181527196Y-211304830D02*
X181496290Y-211350976D01*
X182009079Y-213584881D02*
X182057016Y-213612929D01*
X350569992Y-116540889D02*
X350625178Y-116547142D01*
X224611801Y-211833145D02*
X224597505Y-211779478D01*
X222475493Y-210728243D02*
X222424135Y-210749386D01*
X247239069Y-186377048D02*
X261025393Y-183946147D01*
X81629641Y-179167260D02*
X84929641Y-179167260D01*
X223479959Y-128283071D02*
X223497030Y-128335922D01*
X192366873Y-166667574D02*
X192374468Y-166682865D01*
X224418294Y-213061804D02*
X224446756Y-213014112D01*
X181906274Y-129269209D02*
X181949264Y-129234045D01*
X184363475Y-211726339D02*
X184345490Y-211673792D01*
X143750478Y-197582755D02*
X142423521Y-196701936D01*
X298864892Y-111343665D02*
X299009138Y-111320268D01*
X352353646Y-114678109D02*
X352343106Y-114623579D01*
X221962318Y-213383333D02*
X222003419Y-213420686D01*
X213361968Y-127895556D02*
X213377619Y-127827645D01*
X181704660Y-211091673D02*
X181666249Y-211131788D01*
X85809911Y-139597761D02*
X99808911Y-139597761D01*
X221527955Y-212683410D02*
X221545026Y-212736261D01*
X42515777Y-200738830D02*
X42558766Y-200703666D01*
X364797601Y-202754995D02*
X364644963Y-202839605D01*
X352376722Y-115009957D02*
X352377686Y-114954427D01*
X39993556Y-199017682D02*
X39978330Y-199071093D01*
X354302820Y-113740250D02*
X354387879Y-113891465D01*
X351633132Y-113602313D02*
X351585690Y-113573438D01*
X190937001Y-126416028D02*
X191002986Y-126438769D01*
X50091025Y-114197533D02*
X50165734Y-114041605D01*
X221884127Y-211131788D02*
X221847131Y-211173212D01*
X349566010Y-115999339D02*
X349603006Y-116040763D01*
X39926577Y-199399692D02*
X39924650Y-199455198D01*
X318414163Y-124062166D02*
X304415163Y-124062166D01*
X40427919Y-198317759D02*
X40388139Y-198356517D01*
X39429662Y-202301022D02*
X39299070Y-202190979D01*
X351894234Y-116100429D02*
X351933335Y-116060987D01*
X55251567Y-115307506D02*
X55256381Y-115252176D01*
X351012884Y-116537045D02*
X351067670Y-116527929D01*
X318414161Y-176161162D02*
X318414161Y-162162162D01*
X54468239Y-116522170D02*
X54515682Y-116493295D01*
X352165635Y-114158438D02*
X352137173Y-114110747D01*
X170664413Y-188691579D02*
X184450737Y-191122479D01*
X349189481Y-115148346D02*
X349197168Y-115203350D01*
X55123410Y-114493787D02*
X55100060Y-114443395D01*
X223412980Y-127901061D02*
X223416833Y-127956466D01*
X350352410Y-113411980D02*
X350299133Y-113427670D01*
X183551184Y-210784410D02*
X183500997Y-210760623D01*
X179601173Y-127100053D02*
X179570267Y-127146199D01*
X179667695Y-127011117D02*
X179633662Y-127055008D01*
X184325691Y-212814346D02*
X184345490Y-212762456D01*
X39978330Y-199071093D02*
X39964967Y-199125001D01*
X364117821Y-198077346D02*
X364068490Y-198051832D01*
X53729641Y-113542687D02*
X53674121Y-113541242D01*
X181674493Y-129421547D02*
X181722910Y-129394336D01*
X240498152Y-208495768D02*
X237248286Y-209068807D01*
X52413024Y-116143411D02*
X52448560Y-116186094D01*
X184170315Y-211327769D02*
X184138613Y-211282167D01*
X42717766Y-198417183D02*
X42680058Y-198376407D01*
X351633132Y-116306540D02*
X351679545Y-116276036D01*
X192145581Y-127504665D02*
X192172845Y-127568912D01*
X366627703Y-200924927D02*
X366537814Y-201074517D01*
X225866257Y-126465672D02*
X225818815Y-126436797D01*
X191894622Y-127086880D02*
X191936616Y-127142626D01*
X181150104Y-129595966D02*
X181204890Y-129586849D01*
X353801853Y-113033315D02*
X353911743Y-113167575D01*
X224252165Y-213283909D02*
X224288436Y-213241849D01*
X40210676Y-200396261D02*
X40243165Y-200441307D01*
X224657843Y-212273655D02*
X224658807Y-212218124D01*
X363316583Y-197886088D02*
X363261096Y-197888498D01*
X182212590Y-127077390D02*
X182179324Y-127032915D01*
X223412980Y-127734510D02*
X223411052Y-127790016D01*
X349722298Y-116156989D02*
X349764671Y-116192893D01*
X222580254Y-210691367D02*
X222527553Y-210708896D01*
X352217511Y-115652213D02*
X352240861Y-115601821D01*
X50165734Y-114041605D02*
X50245789Y-113888353D01*
X43089829Y-199152120D02*
X43077403Y-199097989D01*
X43077403Y-199867947D02*
X43089829Y-199813815D01*
X42640956Y-200628970D02*
X42680058Y-200589528D01*
X263938546Y-204362594D02*
X260688681Y-204935633D01*
X214255665Y-126616409D02*
X214315340Y-126580411D01*
X53452541Y-113554719D02*
X53397605Y-113562883D01*
X40511393Y-200721434D02*
X40554987Y-200755847D01*
X40993155Y-197973740D02*
X40941094Y-197993087D01*
X225568179Y-129317566D02*
X225619896Y-129297318D01*
X192353271Y-166636259D02*
X192359805Y-166652033D01*
X226450636Y-128515572D02*
X226473986Y-128465180D01*
X42283996Y-198074768D02*
X42234664Y-198049253D01*
X354610894Y-114361528D02*
X354674213Y-114523059D01*
X53606476Y-111387026D02*
X53776257Y-111354327D01*
X224585535Y-129360232D02*
X224639324Y-129374062D01*
X221563920Y-211647761D02*
X221545026Y-211699988D01*
X54957920Y-116077139D02*
X54989622Y-116031536D01*
X192818410Y-166952832D02*
X212818410Y-166952832D01*
X364923654Y-199816394D02*
X364934194Y-199761864D01*
X182070555Y-126906787D02*
X182031454Y-126867345D01*
X53563097Y-113544133D02*
X53507727Y-113548466D01*
X52089309Y-114837553D02*
X52079718Y-114892258D01*
X292388444Y-183544915D02*
X278602120Y-185975815D01*
X192317192Y-128248177D02*
X192318410Y-128317960D01*
X168507758Y-194823376D02*
X175253691Y-196012867D01*
X362388813Y-198212667D02*
X362345219Y-198247079D01*
X351894234Y-113808424D02*
X351853787Y-113770363D01*
X225721066Y-126384071D02*
X225670879Y-126360284D01*
X179343980Y-128316975D02*
X179355464Y-128371314D01*
X164811765Y-206996511D02*
X151024456Y-204565437D01*
X181310077Y-211752838D02*
X181294850Y-211806249D01*
X38816496Y-201708214D02*
X38706505Y-201577579D01*
X350680548Y-113357378D02*
X350625178Y-113361712D01*
X349246834Y-115419712D02*
X349263905Y-115472563D01*
X52208517Y-114468490D02*
X52186045Y-114519280D01*
X214830208Y-126371186D02*
X214898077Y-126355354D01*
X43063106Y-199921614D02*
X43077403Y-199867947D01*
X37632080Y-199102047D02*
X37611779Y-198932485D01*
X224041389Y-129090665D02*
X224086151Y-129123543D01*
X180229641Y-126567521D02*
X180179874Y-126592175D01*
X235155810Y-207711541D02*
X234203787Y-202312346D01*
X256524257Y-191251891D02*
X263270190Y-190062400D01*
X180383652Y-129522575D02*
X180436353Y-129540104D01*
X192259029Y-127834226D02*
X192274726Y-127902232D01*
X248337102Y-166839557D02*
X245906201Y-153053234D01*
X299154006Y-111301097D02*
X299299373Y-111286168D01*
X221499365Y-212576091D02*
X221512729Y-212629999D01*
X42426267Y-200804577D02*
X42471592Y-200772480D01*
X224521982Y-212865518D02*
X224543570Y-212814346D01*
X362526384Y-200852303D02*
X362574321Y-200880351D01*
X361764256Y-199624227D02*
X361770029Y-199679465D01*
X226563806Y-127432807D02*
X226549509Y-127379139D01*
X362345219Y-198247079D02*
X362302846Y-198282984D01*
X181294850Y-212629999D02*
X181310077Y-212683410D01*
X40388139Y-198356517D02*
X40349728Y-198396632D01*
X52735575Y-116446939D02*
X52781451Y-116478244D01*
X42234664Y-200916682D02*
X42283996Y-200891168D01*
X364954380Y-199596541D02*
X364957270Y-199541077D01*
X222003419Y-211015562D02*
X221962318Y-211052916D01*
X235195727Y-214789093D02*
X229917935Y-215718124D01*
X361758475Y-199457777D02*
X361758475Y-199513316D01*
X192750327Y-166948175D02*
X192767278Y-166950211D01*
X182578299Y-213796422D02*
X182633234Y-213804587D01*
X213120528Y-166851235D02*
X213133954Y-166840688D01*
X192298955Y-128039678D02*
X192307459Y-128108951D01*
X225135654Y-129412908D02*
X225190940Y-129407614D01*
X352042104Y-113973995D02*
X352007315Y-113930702D01*
X226576231Y-127486938D02*
X226563806Y-127432807D01*
X52647220Y-113902715D02*
X52604847Y-113938619D01*
X224005991Y-210928611D02*
X223960666Y-210896515D01*
X40941094Y-197993087D02*
X40889737Y-198014230D01*
X223616175Y-213717904D02*
X223667892Y-213697656D01*
X179334388Y-128262270D02*
X179343980Y-128316975D01*
X183345909Y-213736345D02*
X183398297Y-213717904D01*
X37999124Y-200413669D02*
X37933818Y-200255876D01*
X54651604Y-113885319D02*
X54607419Y-113851669D01*
X223183650Y-210623002D02*
X223128213Y-210619630D01*
X353568435Y-112776634D02*
X353687371Y-112902949D01*
X179990246Y-126707589D02*
X179945484Y-126740468D01*
X351688611Y-111564943D02*
X351850720Y-111626765D01*
X224121731Y-137550547D02*
X226552632Y-151336871D01*
X182965771Y-210623002D02*
X182910335Y-210619630D01*
X213415969Y-127693664D02*
X213438621Y-127627757D01*
X182854814Y-213818064D02*
X182910335Y-213816618D01*
X42426267Y-198161358D02*
X42379855Y-198130854D01*
X223955423Y-129020348D02*
X223997796Y-129056252D01*
X362261745Y-200650755D02*
X362302846Y-200688108D01*
X52208517Y-115813873D02*
X52232739Y-115863852D01*
X41045855Y-201009725D02*
X41099132Y-201025414D01*
X263694323Y-192467780D02*
X265242513Y-192841633D01*
X180984312Y-126414853D02*
X180928791Y-126413407D01*
X41482757Y-201082425D02*
X41538294Y-201082907D01*
X349177927Y-114982196D02*
X349179855Y-115037702D01*
X54854142Y-177697760D02*
X57186372Y-177697760D01*
X54562094Y-116462791D02*
X54607419Y-116430694D01*
X192733455Y-166945562D02*
X192750327Y-166948175D01*
X53128981Y-113631953D02*
X53076921Y-113651301D01*
X105491458Y-111309890D02*
X105635977Y-111328943D01*
X182362375Y-210691367D02*
X182309675Y-210708896D01*
X362044501Y-200398840D02*
X362076990Y-200443885D01*
X182743790Y-210621076D02*
X182688421Y-210625409D01*
X242264806Y-187254146D02*
X239833905Y-173467823D01*
X167022849Y-154490637D02*
X164591948Y-168276961D01*
X221487881Y-212521752D02*
X221499365Y-212576091D01*
X38069781Y-200569141D02*
X37999124Y-200413669D01*
X55225656Y-114810334D02*
X55213230Y-114756203D01*
X141905849Y-130717959D02*
X128119526Y-128287058D01*
X179401125Y-128531483D02*
X179420019Y-128583710D01*
X183398297Y-213717904D02*
X183450014Y-213697656D01*
X179540981Y-127193389D02*
X179513351Y-127241568D01*
X163209799Y-148689376D02*
X176996123Y-151120276D01*
X352316383Y-114515780D02*
X352300232Y-114462641D01*
X54815885Y-114034621D02*
X54776783Y-113995179D01*
X191976640Y-127199803D02*
X192014644Y-127258342D01*
X304415161Y-176161162D02*
X318414161Y-176161162D01*
X40243165Y-198524629D02*
X40210676Y-198569674D01*
X179384054Y-127548061D02*
X179368827Y-127601472D01*
X54419822Y-113732981D02*
X54370491Y-113707467D01*
X344607911Y-176161165D02*
X344607911Y-162162165D01*
X223017155Y-210618666D02*
X222961669Y-210621076D01*
X213520149Y-127435325D02*
X213551738Y-127373204D01*
X184437074Y-212107129D02*
X184432261Y-212051799D01*
X222475493Y-213708005D02*
X222527553Y-213727352D01*
X213317245Y-166486953D02*
X213318119Y-166469903D01*
X104909674Y-111276012D02*
X105055428Y-111278114D01*
X351585690Y-113573438D02*
X351537273Y-113546226D01*
X351679545Y-113632817D02*
X351633132Y-113602313D01*
X226204169Y-128883570D02*
X226240440Y-128841511D01*
X214630482Y-126432720D02*
X214696329Y-126409892D01*
X269641054Y-148868139D02*
X272071955Y-162654463D01*
X184325691Y-211621902D02*
X184304104Y-211570730D01*
X225957995Y-129107298D02*
X226002179Y-129073648D01*
X142423521Y-196701936D02*
X142996560Y-193452070D01*
X167740921Y-209106205D02*
X167305538Y-207303210D01*
X52186045Y-115763083D02*
X52208517Y-115813873D01*
X328227662Y-124062163D02*
X328227662Y-138061163D01*
X226045169Y-126597087D02*
X226002179Y-126561924D01*
X221584617Y-211596222D02*
X221563920Y-211647761D01*
X183742787Y-210896515D02*
X183696375Y-210866010D01*
X350334885Y-111278999D02*
X350507731Y-111294024D01*
X39924650Y-199455198D02*
X39924650Y-199510737D01*
X363915603Y-200985326D02*
X363967319Y-200965078D01*
X296115668Y-163543828D02*
X282329344Y-165974728D01*
X42283996Y-200891168D02*
X42332412Y-200863957D01*
X41649251Y-197887846D02*
X41593814Y-197884474D01*
X52232739Y-114418511D02*
X52208517Y-114468490D01*
X226204169Y-126752001D02*
X226166460Y-126711225D01*
X223866811Y-213599113D02*
X223914253Y-213570238D01*
X181770352Y-126661233D02*
X181722910Y-126632358D01*
X361770029Y-199679465D02*
X361777716Y-199734470D01*
X224388193Y-211327769D02*
X224356491Y-211282167D01*
X223955423Y-126615223D02*
X223914322Y-126652577D01*
X224532258Y-126291029D02*
X224479557Y-126308558D01*
X221714168Y-211350976D02*
X221684882Y-211398167D01*
X223769062Y-210784410D02*
X223718875Y-210760623D01*
X54165215Y-113622960D02*
X54112219Y-113606349D01*
X351971044Y-116020211D02*
X352007315Y-115978152D01*
X349945836Y-116321184D02*
X349993773Y-116349231D01*
X54651604Y-116397043D02*
X54694593Y-116361880D01*
X183076127Y-213800743D02*
X183130913Y-213791626D01*
X224585535Y-126275340D02*
X224532258Y-126291029D01*
X223416833Y-127956466D02*
X223422606Y-128011705D01*
X181259326Y-126450857D02*
X181204890Y-126439845D01*
X366342656Y-201363835D02*
X366237625Y-201503211D01*
X223583314Y-127095115D02*
X223559093Y-127145094D01*
X75996892Y-125598761D02*
X61997892Y-125598761D01*
X351724870Y-116243939D02*
X351769054Y-116210289D01*
X226595411Y-128039240D02*
X226602143Y-127984110D01*
X191132374Y-126491087D02*
X191195620Y-126520600D01*
X350092421Y-116400252D02*
X350143014Y-116423165D01*
X40284910Y-202862160D02*
X40134656Y-202780997D01*
X363702655Y-201048036D02*
X363756676Y-201035141D01*
X221777563Y-213176463D02*
X221811596Y-213220354D01*
X54736336Y-116325245D02*
X54776783Y-116287184D01*
X351067670Y-113380924D02*
X351012884Y-113371808D01*
X182854814Y-210618184D02*
X182799277Y-210618666D01*
X226602143Y-127651461D02*
X226595411Y-127596331D01*
X51189074Y-112658534D02*
X51316338Y-112541492D01*
X224639324Y-129374062D02*
X224693561Y-129386018D01*
X226425550Y-128565123D02*
X226450636Y-128515572D01*
X192588378Y-166896775D02*
X192603669Y-166904369D01*
X350736034Y-116553884D02*
X350791571Y-116554366D01*
X179570267Y-128880495D02*
X179601173Y-128926641D01*
X222180023Y-210881061D02*
X222134147Y-210912366D01*
X184255668Y-211470787D02*
X184228878Y-211422136D01*
X192240969Y-127766810D02*
X192259029Y-127834226D01*
X364717721Y-200329226D02*
X364746184Y-200281534D01*
X224913673Y-126220737D02*
X224858303Y-126225071D01*
X184070558Y-211194399D02*
X184034287Y-211152339D01*
X180130993Y-129408152D02*
X180179874Y-129434518D01*
X140857099Y-164091867D02*
X143287999Y-150305544D01*
X180331592Y-129503228D02*
X180383652Y-129522575D01*
X41401656Y-203280781D02*
X41236455Y-203237510D01*
X214438268Y-126514759D02*
X214501374Y-126485185D01*
X350246432Y-113445199D02*
X350194372Y-113464546D01*
X222527553Y-213727352D02*
X222580254Y-213744881D01*
X54776783Y-113995179D02*
X54736336Y-113957118D01*
X192530070Y-166861317D02*
X192544184Y-166870923D01*
X364942835Y-199264092D02*
X364934194Y-199209229D01*
X38930884Y-201835018D02*
X38816496Y-201708214D01*
X116813547Y-164981262D02*
X114382646Y-178767586D01*
X41704537Y-197893139D02*
X41649251Y-197887846D01*
X162048581Y-153613541D02*
X148262258Y-151182640D01*
X346989160Y-157111165D02*
X346989160Y-143112165D01*
X364862795Y-198941215D02*
X364842997Y-198889324D01*
X361798792Y-199127579D02*
X361787308Y-199181918D01*
X224693561Y-126249553D02*
X224639324Y-126261509D01*
X352192425Y-114207089D02*
X352165635Y-114158438D01*
X223403228Y-210655634D02*
X223348791Y-210644622D01*
X41814392Y-197909465D02*
X41759607Y-197900349D01*
X226340198Y-128708141D02*
X226370298Y-128661466D01*
X52876322Y-113746377D02*
X52828385Y-113774424D01*
X182105897Y-210796953D02*
X182057016Y-210823319D01*
X366127793Y-201638836D02*
X366013296Y-201770546D01*
X352369018Y-115120751D02*
X352373832Y-115065421D01*
X352168019Y-111767089D02*
X352322826Y-111845423D01*
X40312733Y-198438055D02*
X40277197Y-198480738D01*
X53840364Y-113551353D02*
X53785078Y-113546059D01*
X349764671Y-113715960D02*
X349722298Y-113751864D01*
X350194372Y-116444307D02*
X350246432Y-116463655D01*
X224288436Y-211194399D02*
X224252165Y-211152339D01*
X349231607Y-115366301D02*
X349246834Y-115419712D01*
X165640700Y-134903052D02*
X163209799Y-148689376D01*
X222373542Y-210772298D02*
X222323775Y-210796953D01*
X224913673Y-129414834D02*
X224969159Y-129417243D01*
X364622653Y-198505114D02*
X364587863Y-198461821D01*
X52129383Y-115606467D02*
X52146454Y-115659318D01*
X213313753Y-166520915D02*
X213315789Y-166503964D01*
X192700028Y-166938616D02*
X192716682Y-166942374D01*
X223515925Y-127247423D02*
X223497030Y-127299649D01*
X52100794Y-115499149D02*
X52114157Y-115553056D01*
X349681197Y-116119635D02*
X349722298Y-116156989D01*
X223874542Y-128944237D02*
X223914322Y-128982994D01*
X182354731Y-128711133D02*
X182378081Y-128660741D01*
X39299070Y-202190979D02*
X39172311Y-202076541D01*
X179570267Y-127146199D02*
X179540981Y-127193389D01*
X223718875Y-210760623D02*
X223667892Y-210738592D01*
X54290957Y-111291690D02*
X54463625Y-111282715D01*
X182070555Y-129119907D02*
X182108264Y-129079132D01*
X180436353Y-129540104D02*
X180489630Y-129555793D01*
X42987584Y-198835573D02*
X42964233Y-198785181D01*
X226308495Y-126881828D02*
X226275229Y-126837354D01*
X192014644Y-127258342D02*
X192050583Y-127318171D01*
X191378649Y-126622113D02*
X191437174Y-126660139D01*
X213784802Y-127026923D02*
X213830460Y-126974271D01*
X192502866Y-166840688D02*
X192516292Y-166851235D01*
X221545026Y-211699988D02*
X221527955Y-211752838D01*
X226515372Y-127273454D02*
X226495574Y-127221563D01*
X192336952Y-166587730D02*
X192341838Y-166604089D01*
X213323266Y-128171408D02*
X213329329Y-128101981D01*
X366013296Y-201770546D02*
X365894272Y-201898180D01*
X222089385Y-210945245D02*
X222045792Y-210979657D01*
X124527408Y-146997546D02*
X110741085Y-144566645D01*
X183239371Y-213767719D02*
X183292912Y-213752957D01*
X352376722Y-114898896D02*
X352373832Y-114843432D01*
X363040985Y-197917314D02*
X362986747Y-197929269D01*
X40243165Y-200441307D02*
X40277197Y-200485197D01*
X192374468Y-166682865D02*
X192382580Y-166697887D01*
X224597505Y-211779478D02*
X224581354Y-211726339D01*
X350299133Y-113427670D02*
X350246432Y-113445199D01*
X49800580Y-115010692D02*
X49847346Y-114844235D01*
X39563936Y-202406540D02*
X39429662Y-202301022D01*
X192050583Y-127318171D02*
X192084412Y-127379217D01*
X181991007Y-126829283D02*
X181949264Y-126792649D01*
X349641417Y-116080877D02*
X349681197Y-116119635D01*
X364622653Y-200465978D02*
X364655918Y-200421503D01*
X52146454Y-114623045D02*
X52129383Y-114675896D01*
X224427497Y-126327905D02*
X224376139Y-126349048D01*
X221464829Y-212356805D02*
X221470602Y-212412043D01*
X362146559Y-200530458D02*
X362183554Y-200571882D01*
X55100060Y-114443395D02*
X55074975Y-114393844D01*
X221847131Y-211173212D02*
X221811596Y-211215895D01*
X182437452Y-128505132D02*
X182453603Y-128451993D01*
X183345909Y-210699903D02*
X183292912Y-210683291D01*
X354674213Y-114523059D02*
X354731888Y-114686689D01*
X350515056Y-113376128D02*
X350460436Y-113386194D01*
X182467900Y-128398326D02*
X182480326Y-128344194D01*
X223422606Y-127623867D02*
X223416833Y-127679105D01*
X213348692Y-127963971D02*
X213361968Y-127895556D01*
X151840603Y-199936840D02*
X150337786Y-199671853D01*
X265242513Y-192841633D02*
X265815552Y-196091499D01*
X222687320Y-210661847D02*
X222633531Y-210675678D01*
X53270811Y-111469930D02*
X53437926Y-111425576D01*
X222633531Y-213760570D02*
X222687320Y-213774401D01*
X179667695Y-129015576D02*
X179703230Y-129058259D01*
X349853026Y-116260184D02*
X349898902Y-116291490D01*
X367248984Y-199120865D02*
X367221673Y-199293234D01*
X172012120Y-208140601D02*
X170990786Y-209679244D01*
X362574321Y-200880351D02*
X362623203Y-200906718D01*
X42754037Y-200506693D02*
X42788827Y-200463400D01*
X223559093Y-127145094D02*
X223536621Y-127195884D01*
X325557910Y-181212164D02*
X311558910Y-181212164D01*
X351537273Y-113546226D02*
X351487941Y-113520712D01*
X363483077Y-197890424D02*
X363427640Y-197887052D01*
X221745074Y-213131418D02*
X221777563Y-213176463D01*
X223583314Y-128540456D02*
X223609256Y-128589565D01*
X182688421Y-210625409D02*
X182633234Y-210631662D01*
X175583475Y-202548930D02*
X174035286Y-202922784D01*
X222323775Y-213639296D02*
X222373542Y-213663950D01*
X245906201Y-153053234D02*
X232119877Y-155484134D01*
X223515925Y-128388148D02*
X223536621Y-128439687D01*
X221684882Y-213038082D02*
X221714168Y-213085272D01*
X221922538Y-211091673D02*
X221884127Y-211131788D01*
X258694685Y-203561003D02*
X257901287Y-199061416D01*
X213318119Y-166469903D02*
X213318410Y-166452832D01*
X223294005Y-210635505D02*
X223238936Y-210628296D01*
X221657252Y-212989903D02*
X221684882Y-213038082D01*
X364821409Y-200132940D02*
X364842997Y-200081768D01*
X364117821Y-200893746D02*
X364166238Y-200866535D01*
X192464857Y-166806385D02*
X192477134Y-166818250D01*
X180436353Y-126486590D02*
X180383652Y-126504119D01*
X212936792Y-166938616D02*
X212953309Y-166934291D01*
X221884127Y-213304460D02*
X221922538Y-213344575D01*
X366933510Y-200297987D02*
X366865313Y-200458631D01*
X233409515Y-197807809D02*
X232985382Y-195402429D01*
X52735575Y-113835424D02*
X52690814Y-113868302D01*
X50722696Y-113168529D02*
X50832605Y-113035057D01*
X54989622Y-116031536D02*
X55019722Y-115984861D01*
X354933437Y-115529365D02*
X367297690Y-198425020D01*
X181625161Y-129447061D02*
X181674493Y-129421547D01*
X191656962Y-126831931D02*
X191707996Y-126879540D01*
X224086151Y-129123543D02*
X224132027Y-129154849D01*
X184280753Y-211520338D02*
X184255668Y-211470787D01*
X182329645Y-128760684D02*
X182354731Y-128711133D01*
X183292912Y-213752957D02*
X183345909Y-213736345D01*
X120540777Y-184982348D02*
X118109876Y-198768672D01*
X366237625Y-201503211D02*
X366127793Y-201638836D01*
X224356491Y-213154081D02*
X224388193Y-213108479D01*
X349496442Y-113996088D02*
X349463953Y-114041133D01*
X214030572Y-126780499D02*
X214084666Y-126736559D01*
X261025393Y-183946147D02*
X258594492Y-170159824D01*
X311558910Y-195211164D02*
X325557910Y-195211164D01*
X54269320Y-116620714D02*
X54320303Y-116598683D01*
X41593814Y-201081462D02*
X41649251Y-201078090D01*
X54854142Y-182748760D02*
X54854142Y-196747760D01*
X179440716Y-127391445D02*
X179420019Y-127442984D01*
X240996234Y-192598765D02*
X254783542Y-190167691D01*
X131896200Y-201199572D02*
X134327100Y-187413249D01*
X363967319Y-198006014D02*
X363915603Y-197985766D01*
X226606957Y-127928780D02*
X226609847Y-127873316D01*
X40122853Y-200254747D02*
X40150484Y-200302925D01*
X350569992Y-113367964D02*
X350515056Y-113376128D01*
X55236195Y-115417499D02*
X55244836Y-115362636D01*
X181949264Y-126792649D02*
X181906274Y-126757485D01*
X349263905Y-114436290D02*
X349246834Y-114489141D01*
X362879681Y-197958789D02*
X362826980Y-197976318D01*
X50245789Y-113888353D02*
X50331095Y-113737961D01*
X214898077Y-126355354D02*
X214966457Y-126341897D01*
X361863348Y-198915183D02*
X361844453Y-198967410D01*
X184393923Y-211833145D02*
X184379626Y-211779478D01*
X352262449Y-114358204D02*
X352240861Y-114307032D01*
X350847092Y-116552920D02*
X350902529Y-116549549D01*
X181744440Y-213383333D02*
X181785541Y-213420686D01*
X192328868Y-166554560D02*
X192332627Y-166571214D01*
X223439885Y-127514157D02*
X223430293Y-127568862D01*
X109334392Y-177697763D02*
X109334392Y-163698763D01*
X362076990Y-200443885D02*
X362111023Y-200487776D01*
X224654953Y-212329119D02*
X224657843Y-212273655D01*
X224473546Y-211470787D02*
X224446756Y-211422136D01*
X61997892Y-144648761D02*
X61997892Y-158647761D01*
X221714168Y-213085272D02*
X221745074Y-213131418D01*
X362574321Y-198090742D02*
X362526384Y-198118789D01*
X244808168Y-172590724D02*
X247239069Y-186377048D01*
X57186372Y-177697760D02*
X57827641Y-179167260D01*
X222687320Y-213774401D02*
X222741557Y-213786356D01*
X41904768Y-203376426D02*
X41736007Y-203350280D01*
X221478289Y-212467048D02*
X221487881Y-212521752D01*
X213262353Y-166682865D02*
X213269948Y-166667574D01*
X224050175Y-210962262D02*
X224005991Y-210928611D01*
X53437926Y-111425576D02*
X53606476Y-111387026D01*
X350194372Y-113464546D02*
X350143014Y-113485688D01*
X61768909Y-177697760D02*
X80988372Y-177697761D01*
X351724870Y-113664914D02*
X351679545Y-113632817D01*
X41152922Y-201039244D02*
X41207159Y-201051200D01*
X183917030Y-211034060D02*
X183875287Y-210997426D01*
X364687621Y-198595191D02*
X364655918Y-198549589D01*
X232655597Y-201938493D02*
X232082558Y-198688628D01*
X105346444Y-111295060D02*
X105491458Y-111309890D01*
X178378272Y-170707861D02*
X180809172Y-156921538D01*
X226240440Y-128841511D02*
X226275229Y-128798217D01*
X181949264Y-129234045D02*
X181991007Y-129197411D01*
X351335054Y-113454646D02*
X351282666Y-113436205D01*
X40511393Y-198244501D02*
X40469020Y-198280406D01*
X367285486Y-198773793D02*
X367270264Y-198947648D01*
X363337208Y-203315628D02*
X363165896Y-203348934D01*
X346989160Y-143112165D02*
X311558911Y-143112164D01*
X39953482Y-199179339D02*
X39943891Y-199234044D01*
X213106750Y-166861317D02*
X213120528Y-166851235D01*
X54320303Y-116598683D02*
X54370491Y-116574896D01*
X180543419Y-129569624D02*
X180597656Y-129581579D01*
X105779880Y-111352203D02*
X190666347Y-126348457D01*
X180179874Y-129434518D02*
X180229641Y-129459173D01*
X225462794Y-126282953D02*
X225409253Y-126268191D01*
X54165215Y-116659402D02*
X54217604Y-116640962D01*
X239731315Y-194212939D02*
X240309563Y-197492349D01*
X354016908Y-113305566D02*
X354117222Y-113447124D01*
X181816765Y-129334956D02*
X181862090Y-129302860D01*
X225080217Y-126219292D02*
X225024697Y-126217846D01*
X349206760Y-114650798D02*
X349197168Y-114705503D01*
X222134147Y-210912366D02*
X222089385Y-210945245D01*
X350791571Y-116554366D02*
X350847092Y-116552920D01*
X41371900Y-201075683D02*
X41427270Y-201080016D01*
X151714816Y-191862328D02*
X151136568Y-195141738D01*
X181574974Y-129470848D02*
X181625161Y-129447061D01*
X352075370Y-114018469D02*
X352042104Y-113973995D01*
X52876322Y-116535986D02*
X52925204Y-116562353D01*
X350042654Y-113533255D02*
X349993773Y-113559622D01*
X53785078Y-116736303D02*
X53840364Y-116731010D01*
X54957920Y-114205224D02*
X54924654Y-114160750D01*
X364842997Y-198889324D02*
X364821409Y-198838152D01*
X54562094Y-113819572D02*
X54515682Y-113789068D01*
X42883895Y-198639288D02*
X42853795Y-198592613D01*
X364798059Y-198787760D02*
X364772974Y-198738209D01*
X179315147Y-127985577D02*
X179315147Y-128041116D01*
X52258680Y-114369402D02*
X52232739Y-114418511D01*
X52100794Y-114783214D02*
X52089309Y-114837553D01*
X43046955Y-199974753D02*
X43063106Y-199921614D01*
X53181682Y-113614425D02*
X53128981Y-113631953D01*
X181252724Y-212412043D02*
X181260411Y-212467048D01*
X363165896Y-203348934D02*
X362993526Y-203376242D01*
X221470602Y-212412043D02*
X221478289Y-212467048D01*
X55259272Y-115196712D02*
X55260236Y-115141181D01*
X311558911Y-157111164D02*
X316272392Y-157111164D01*
X184280753Y-212915910D02*
X184304104Y-212865518D01*
X42379855Y-198130854D02*
X42332412Y-198101979D01*
X226398760Y-128613774D02*
X226425550Y-128565123D01*
X184432261Y-212051799D02*
X184425529Y-211996669D01*
X42133494Y-198003435D02*
X42081777Y-197983187D01*
X214501374Y-126485185D02*
X214565471Y-126457828D01*
X180928791Y-129613287D02*
X180984312Y-129611841D01*
X166426693Y-197837799D02*
X167929509Y-198102786D01*
X277355079Y-166851826D02*
X263568755Y-169282726D01*
X54989622Y-114250826D02*
X54957920Y-114205224D01*
X351122106Y-113391937D02*
X351067670Y-113380924D01*
X349403761Y-115774384D02*
X349433047Y-115821575D01*
X223636886Y-128637743D02*
X223666172Y-128684934D01*
X192325680Y-166537787D02*
X192328868Y-166554560D01*
X363538363Y-197895718D02*
X363483077Y-197890424D01*
X53895434Y-113558563D02*
X53840364Y-113551353D01*
X104677140Y-203423025D02*
X42585773Y-203423025D01*
X180597656Y-129581579D02*
X180652276Y-129591645D01*
X118109876Y-198768672D02*
X131896200Y-201199572D01*
X40554987Y-198210089D02*
X40511393Y-198244501D01*
X361798792Y-199843513D02*
X361812156Y-199897421D01*
X183957477Y-213364126D02*
X183996578Y-213324684D01*
X39953482Y-199786596D02*
X39964967Y-199840935D01*
X181270003Y-212521752D02*
X181281487Y-212576091D01*
X352240861Y-114307032D02*
X352217511Y-114256640D01*
X39943891Y-199731891D02*
X39953482Y-199786596D01*
X362672970Y-198039720D02*
X362623203Y-198064375D01*
X52604847Y-113938619D02*
X52563746Y-113975973D01*
X221847131Y-213263036D02*
X221884127Y-213304460D01*
X191707996Y-126879540D02*
X191757338Y-126928900D01*
X183996578Y-211111564D02*
X183957477Y-211072122D01*
X52463659Y-111776676D02*
X52620652Y-111704231D01*
X350791571Y-113354487D02*
X350736034Y-113354969D01*
X182206257Y-213686862D02*
X182257615Y-213708005D01*
X224858303Y-126225071D02*
X224803117Y-126231323D01*
X40050218Y-200104870D02*
X40072690Y-200155659D01*
X351850720Y-111626765D02*
X352010587Y-111694174D01*
X184170315Y-213108479D02*
X184200416Y-213061804D01*
X181346042Y-212788487D02*
X181366738Y-212840026D01*
X55048185Y-115937170D02*
X55074975Y-115888519D01*
X42515777Y-198227106D02*
X42471592Y-198193455D01*
X224969159Y-129417243D02*
X225024697Y-129417725D01*
X54889864Y-114117456D02*
X54853593Y-114075397D01*
X184425529Y-211996669D02*
X184416889Y-211941807D01*
X181241170Y-212245894D02*
X181243098Y-212301399D01*
X350851339Y-111342011D02*
X351021687Y-111374917D01*
X51863507Y-112119343D02*
X52009010Y-112025943D01*
X225912670Y-126496176D02*
X225866257Y-126465672D01*
X352300232Y-114462641D02*
X352282247Y-114410095D01*
X184416889Y-212494442D02*
X184425529Y-212439579D01*
X182257615Y-213708005D02*
X182309675Y-213727352D01*
X224498632Y-211520338D02*
X224473546Y-211470787D01*
X257214617Y-203955000D02*
X243427308Y-206386074D01*
X40349728Y-198396632D02*
X40312733Y-198438055D01*
X134327100Y-187413249D02*
X120540777Y-184982348D01*
X183875287Y-210997426D02*
X183832297Y-210962262D01*
X39172311Y-202076541D02*
X39049535Y-201957841D01*
X50421549Y-113590608D02*
X50517045Y-113446471D01*
X223559093Y-128490477D02*
X223583314Y-128540456D01*
X363810218Y-201020379D02*
X363863214Y-201003767D01*
X349263905Y-115472563D02*
X349282799Y-115524789D01*
X182354731Y-127315561D02*
X182329645Y-127266009D01*
X55182782Y-114649396D02*
X55164796Y-114596850D01*
X54515682Y-116493295D02*
X54562094Y-116462791D01*
X41261778Y-197904669D02*
X41207159Y-197914735D01*
X192650970Y-166923963D02*
X192667153Y-166929404D01*
X135574142Y-168289260D02*
X133143241Y-182075584D01*
X182910335Y-213816618D02*
X182965771Y-213813246D01*
X53947067Y-111327518D02*
X54118702Y-111306631D01*
X181366889Y-126478514D02*
X181313348Y-126463752D01*
X364772974Y-200232884D02*
X364798059Y-200183332D01*
X237248286Y-209068807D02*
X236226953Y-207530164D01*
X40889737Y-200951706D02*
X40941094Y-200972848D01*
X364821409Y-198838152D02*
X364798059Y-198787760D01*
X212985850Y-166923963D02*
X213001837Y-166917971D01*
X53288749Y-113584905D02*
X53234959Y-113598735D01*
X349681197Y-113789218D02*
X349641417Y-113827976D01*
X265440618Y-202371513D02*
X264372039Y-202567426D01*
X143287999Y-150305544D02*
X129501676Y-147874643D01*
X213063465Y-166888662D02*
X213078202Y-166880042D01*
X367188363Y-199464546D02*
X367149096Y-199634590D01*
X350299133Y-116481183D02*
X350352410Y-116496873D01*
X212886494Y-166948175D02*
X212903365Y-166945562D01*
X181389211Y-212890816D02*
X181413432Y-212940795D01*
X55256381Y-115030187D02*
X55251567Y-114974857D01*
X361758475Y-199513316D02*
X361760403Y-199568821D01*
X281033021Y-199762139D02*
X294819345Y-197331238D01*
X221922538Y-213344575D02*
X221962318Y-213383333D01*
X225818815Y-126436797D02*
X225770398Y-126409585D01*
X225770398Y-126409585D02*
X225721066Y-126384071D01*
X361930738Y-198762875D02*
X361906516Y-198812855D01*
X349183708Y-115093107D02*
X349189481Y-115148346D01*
X183185349Y-213780614D02*
X183239371Y-213767719D01*
X55260236Y-115141181D02*
X55259272Y-115085651D01*
X184450737Y-191122479D02*
X186881637Y-177336156D01*
X181260411Y-212467048D02*
X181270003Y-212521752D01*
X226275229Y-128798217D02*
X226308495Y-128753743D01*
X263568755Y-169282726D02*
X265999656Y-183069050D01*
X192318410Y-166452832D02*
X192318702Y-166469903D01*
X364954380Y-199374551D02*
X364949566Y-199319221D01*
X349496442Y-115912765D02*
X349530475Y-115956656D01*
X224325547Y-126371960D02*
X224275779Y-126396614D01*
X184432261Y-212384449D02*
X184437074Y-212329119D01*
X280403495Y-127626553D02*
X282834396Y-141412877D01*
X54736336Y-113957118D02*
X54694593Y-113920483D01*
X362623203Y-200906718D02*
X362672970Y-200931372D01*
X165627911Y-202367915D02*
X164811765Y-206996511D01*
X222633531Y-210675678D02*
X222580254Y-210691367D01*
X224748181Y-129396084D02*
X224803117Y-129404248D01*
X349282799Y-115524789D02*
X349303496Y-115576328D01*
X52925204Y-113720010D02*
X52876322Y-113746377D01*
X179463188Y-127340655D02*
X179440716Y-127391445D01*
X179320928Y-128152028D02*
X179326701Y-128207266D01*
X78666642Y-196747759D02*
X92665642Y-196747759D01*
X43100368Y-199759285D02*
X43109009Y-199704422D01*
X351176128Y-116504021D02*
X351229669Y-116489259D01*
X222961669Y-213815173D02*
X223017155Y-213817582D01*
X182480326Y-128344194D02*
X182490866Y-128289664D01*
X41207159Y-197914735D02*
X41152922Y-197926691D01*
X224175355Y-213364126D02*
X224214456Y-213324684D01*
X53674121Y-113541242D02*
X53618584Y-113541724D01*
X41045855Y-197956211D02*
X40993155Y-197973740D01*
X50517045Y-113446471D02*
X50617467Y-113305722D01*
X43109009Y-199261513D02*
X43100368Y-199206650D01*
X363427640Y-201084040D02*
X363483077Y-201080668D01*
X184034287Y-211152339D02*
X183996578Y-211111564D01*
X40941094Y-200972848D02*
X40993155Y-200992196D01*
X224658807Y-212218124D02*
X224657843Y-212162593D01*
X181204890Y-129586849D02*
X181259326Y-129575837D01*
X352262449Y-115550649D02*
X352282247Y-115498758D01*
X53105329Y-111520036D02*
X53270811Y-111469930D01*
X364007728Y-203123336D02*
X363842718Y-203180159D01*
X364213681Y-198133432D02*
X364166238Y-198104557D01*
X223799135Y-126772873D02*
X223763600Y-126815556D01*
X351021687Y-111374917D02*
X351190791Y-111413713D01*
X41976392Y-201017800D02*
X42029389Y-201001189D01*
X364068490Y-198051832D02*
X364018302Y-198028045D01*
X242882321Y-134242548D02*
X245313222Y-148028872D01*
X168121049Y-174028159D02*
X154334726Y-171597258D01*
X55144998Y-115737404D02*
X55164796Y-115685513D01*
X352316383Y-115393073D02*
X352330680Y-115339405D01*
X192619210Y-166911438D02*
X192634983Y-166917971D01*
X182031454Y-129159349D02*
X182070555Y-129119907D01*
X52563746Y-113975973D02*
X52523966Y-114014730D01*
X228478482Y-189685047D02*
X242264806Y-187254146D01*
X191257799Y-126552301D02*
X191318833Y-126586153D01*
X349303496Y-114332525D02*
X349282799Y-114384064D01*
X180762398Y-129606062D02*
X180817768Y-129610395D01*
X179463188Y-128686038D02*
X179487409Y-128736018D01*
X223510790Y-213752957D02*
X223563787Y-213736345D01*
X43077403Y-199097989D02*
X43063106Y-199044321D01*
X41261778Y-201061266D02*
X41316714Y-201069430D01*
X183832297Y-213473986D02*
X183875287Y-213438822D01*
X184393923Y-212603103D02*
X184406349Y-212548972D01*
X40593291Y-203008863D02*
X40437848Y-202938145D01*
X41099132Y-201025414D02*
X41152922Y-201039244D01*
X52062404Y-115057906D02*
X52060477Y-115113412D01*
X221777563Y-211259785D02*
X221745074Y-211304830D01*
X182965771Y-213813246D02*
X183021058Y-213807952D01*
X42717766Y-200548752D02*
X42754037Y-200506693D01*
X53674121Y-116741121D02*
X53729641Y-116739675D01*
X144300527Y-204973031D02*
X143867034Y-203177863D01*
X61997892Y-125598761D02*
X61997892Y-139597761D01*
X52062404Y-115224457D02*
X52066257Y-115279862D01*
X182378081Y-128660741D02*
X182399669Y-128609569D01*
X224446756Y-213014112D02*
X224473546Y-212965462D01*
X55198933Y-115579828D02*
X55213230Y-115526160D01*
X54468239Y-113760192D02*
X54419822Y-113732981D01*
X363205726Y-201078261D02*
X363261096Y-201082595D01*
X367270264Y-198947648D02*
X367248984Y-199120865D01*
X180130993Y-126618542D02*
X180083056Y-126646590D01*
X54463625Y-111282715D02*
X54636501Y-111279714D01*
X37585751Y-198421024D02*
X49695169Y-115518361D01*
X181744440Y-211052916D02*
X181704660Y-211091673D01*
X278602120Y-185975815D02*
X281033021Y-199762139D01*
X349433047Y-114087278D02*
X349403761Y-114134469D01*
X362044501Y-198572252D02*
X362013595Y-198618398D01*
X183021058Y-213807952D02*
X183076127Y-213800743D01*
X181281487Y-211860157D02*
X181270003Y-211914496D01*
X224178961Y-129184543D02*
X224226898Y-129212590D01*
X102190642Y-158647761D02*
X102190642Y-144648761D01*
X288401639Y-145560140D02*
X290832540Y-159346464D01*
X352343106Y-114623579D02*
X352330680Y-114569448D01*
X180652276Y-126435049D02*
X180597656Y-126445115D01*
X52165349Y-115711544D02*
X52186045Y-115763083D01*
X42184476Y-198025466D02*
X42133494Y-198003435D01*
X351386771Y-116433959D02*
X351437754Y-116411928D01*
X300202335Y-203425020D02*
X299335673Y-203500703D01*
X363810218Y-197950714D02*
X363756676Y-197935951D01*
X182490866Y-128289664D02*
X182499506Y-128234802D01*
X226595411Y-127596331D02*
X226586771Y-127541468D01*
X182155664Y-213663950D02*
X182206257Y-213686862D01*
X182212590Y-128949304D02*
X182244292Y-128903702D01*
X181366889Y-129548180D02*
X181419886Y-129531568D01*
X181039749Y-126418225D02*
X180984312Y-126414853D01*
X223238936Y-210628296D02*
X223183650Y-210623002D01*
X183996578Y-213324684D02*
X184034287Y-213283909D01*
X40072690Y-198810276D02*
X40050218Y-198861066D01*
X349218244Y-115312394D02*
X349231607Y-115366301D01*
X350092421Y-113508601D02*
X350042654Y-113533255D01*
X221811596Y-211215895D02*
X221777563Y-211259785D01*
X192767278Y-166950211D02*
X192784289Y-166951666D01*
X182633234Y-210631662D02*
X182578299Y-210639826D01*
X351853787Y-113770363D02*
X351812044Y-113733728D01*
X181674493Y-126605147D02*
X181625161Y-126579632D01*
X192683512Y-166934291D02*
X192700028Y-166938616D01*
X179818417Y-126848138D02*
X179778637Y-126886896D01*
X349183708Y-114815746D02*
X349179855Y-114871151D01*
X180817768Y-126416298D02*
X180762398Y-126420632D01*
X354542010Y-114202292D02*
X354610894Y-114361528D01*
X364862795Y-200029878D02*
X364880781Y-199977331D01*
X179487409Y-128736018D02*
X179513351Y-128785126D01*
X40789377Y-198061796D02*
X40740495Y-198088163D01*
X42558766Y-200703666D02*
X42600510Y-200667031D01*
X53776257Y-111354327D02*
X53947067Y-111327518D01*
X212920138Y-166942374D02*
X212936792Y-166938616D01*
X352330680Y-115339405D02*
X352343106Y-115285274D01*
X52413024Y-114138952D02*
X52378991Y-114182842D01*
X221512729Y-211806249D02*
X221499365Y-211860157D01*
X52060477Y-115168951D02*
X52062404Y-115224457D01*
X55213230Y-114756203D02*
X55198933Y-114702535D01*
X352353646Y-115230744D02*
X352362286Y-115175881D01*
X180762398Y-126420632D02*
X180707212Y-126426884D01*
X191604297Y-126786132D02*
X191656962Y-126831931D01*
X213927138Y-126873897D02*
X213978041Y-126826296D01*
X176156514Y-199299065D02*
X175583475Y-202548930D01*
X223914322Y-128982994D02*
X223955423Y-129020348D01*
X51316338Y-112541492D02*
X51447572Y-112428920D01*
X349282799Y-114384064D02*
X349263905Y-114436290D01*
X349303496Y-115576328D02*
X349325968Y-115627118D01*
X277860134Y-142289974D02*
X275429233Y-128503651D01*
X350352410Y-116496873D02*
X350406199Y-116510703D01*
X258594492Y-170159824D02*
X244808168Y-172590724D01*
X363150540Y-197899084D02*
X363095604Y-197907248D01*
X43123445Y-199538498D02*
X43124409Y-199482968D01*
X223563787Y-213736345D02*
X223616175Y-213717904D01*
X54112219Y-116676014D02*
X54165215Y-116659402D01*
X54058677Y-116690776D02*
X54112219Y-116676014D01*
X364068490Y-200919261D02*
X364117821Y-200893746D01*
X362723563Y-198016808D02*
X362672970Y-198039720D01*
X223836131Y-126731450D02*
X223799135Y-126772873D01*
X182309675Y-210708896D02*
X182257615Y-210728243D01*
X55164796Y-114596850D02*
X55144998Y-114544959D01*
X225080217Y-129416280D02*
X225135654Y-129412908D01*
X180083056Y-126646590D02*
X180036122Y-126676284D01*
X223497030Y-128335922D02*
X223515925Y-128388148D01*
X299737221Y-111266942D02*
X349988151Y-111266980D01*
X190734854Y-126361796D02*
X190802854Y-126377518D01*
X183398297Y-210718344D02*
X183345909Y-210699903D01*
X38601040Y-201443263D02*
X38500223Y-201305424D01*
X222274894Y-210823319D02*
X222226957Y-210851367D01*
X213329329Y-128101981D02*
X213337808Y-128032808D01*
X150337786Y-199671853D02*
X149544387Y-204171440D01*
X304415161Y-162162162D02*
X304415161Y-176161162D01*
X181472274Y-126513567D02*
X181419886Y-126495126D01*
X42964233Y-200180754D02*
X42987584Y-200130362D01*
X222424135Y-213686862D02*
X222475493Y-213708005D01*
X224611801Y-212603103D02*
X224624227Y-212548972D01*
X213304194Y-166571214D02*
X213307952Y-166554560D01*
X354904878Y-115358234D02*
X354933437Y-115529365D01*
X362433574Y-198179788D02*
X362388813Y-198212667D01*
X366537814Y-201074517D02*
X366442760Y-201220879D01*
X41099132Y-197940522D02*
X41045855Y-197956211D01*
X182378081Y-127365953D02*
X182354731Y-127315561D01*
X180817768Y-129610395D02*
X180873254Y-129612805D01*
X52925204Y-116562353D02*
X52974971Y-116587007D01*
X53895434Y-116723800D02*
X53950219Y-116714684D01*
X90284392Y-163698761D02*
X54854142Y-163698760D01*
X40072690Y-200155659D02*
X40096912Y-200205638D01*
X181241170Y-212190355D02*
X181241170Y-212245894D01*
X192197851Y-127634072D02*
X192220569Y-127700065D01*
X179633662Y-127055008D02*
X179601173Y-127100053D01*
X364934194Y-199209229D02*
X364923654Y-199154699D01*
X226086912Y-126633722D02*
X226045169Y-126597087D01*
X351524454Y-111508783D02*
X351688611Y-111564943D01*
X42029389Y-201001189D02*
X42081777Y-200982748D01*
X55074975Y-115888519D02*
X55100060Y-115838968D01*
X212969668Y-166929404D02*
X212985850Y-166923963D01*
X226370298Y-126974106D02*
X226340198Y-126927431D01*
X349350189Y-114231756D02*
X349325968Y-114281735D01*
X350507731Y-111294024D02*
X350679951Y-111315036D01*
X105543947Y-203498734D02*
X104677140Y-203423025D01*
X352007315Y-115978152D02*
X352042104Y-115934858D01*
X226495574Y-127221563D02*
X226473986Y-127170391D01*
X54419822Y-116549382D02*
X54468239Y-116522170D01*
X184439965Y-212273655D02*
X184440929Y-212218124D01*
X181413432Y-211495453D02*
X181389211Y-211545433D01*
X41427270Y-197885919D02*
X41371900Y-197890253D01*
X192716682Y-166942374D02*
X192733455Y-166945562D01*
X224563368Y-212762456D02*
X224581354Y-212709909D01*
X361844453Y-200003683D02*
X361863348Y-200055909D01*
X181039749Y-129608469D02*
X181095035Y-129603175D01*
X105635977Y-111328943D02*
X105779880Y-111352203D01*
X223636886Y-126997828D02*
X223609256Y-127046006D01*
X363648218Y-197912044D02*
X363593432Y-197902927D01*
X223183650Y-213813246D02*
X223238936Y-213807952D01*
X183917030Y-213402188D02*
X183957477Y-213364126D01*
X234550778Y-169270458D02*
X248337102Y-166839557D01*
X364434335Y-200669610D02*
X364474782Y-200631549D01*
X361956679Y-200257325D02*
X361984310Y-200305504D01*
X364896932Y-199046900D02*
X364880781Y-198993761D01*
X294819345Y-197331238D02*
X292388444Y-183544915D01*
X55198933Y-114702535D02*
X55182782Y-114649396D01*
X223818394Y-210809924D02*
X223769062Y-210784410D01*
X226533358Y-127326000D02*
X226515372Y-127273454D01*
X123145258Y-127409959D02*
X109358935Y-124979058D01*
X225462794Y-129352618D02*
X225515791Y-129336007D01*
X365770867Y-202021583D02*
X365643231Y-202140604D01*
X179778637Y-129139798D02*
X179818417Y-129178555D01*
X52523966Y-116267632D02*
X52563746Y-116306390D01*
X182419467Y-127469015D02*
X182399669Y-127417125D01*
X353445188Y-112654521D02*
X353568435Y-112776634D01*
X184363475Y-212709909D02*
X184379626Y-212656770D01*
X180873254Y-126413889D02*
X180817768Y-126416298D01*
X364349602Y-200741408D02*
X364392592Y-200706244D01*
X225515791Y-126299565D02*
X225462794Y-126282953D01*
X361956679Y-198713767D02*
X361930738Y-198762875D01*
X53288749Y-116697458D02*
X53342986Y-116709414D01*
X223128213Y-210619630D02*
X223072693Y-210618184D01*
X128168970Y-181198486D02*
X130599870Y-167412163D01*
X299299373Y-111286168D02*
X299445114Y-111275494D01*
X142798454Y-202981950D02*
X143750478Y-197582755D01*
X184255668Y-212965462D02*
X184280753Y-212915910D01*
X49847346Y-114844235D02*
X49899840Y-114679495D01*
X350143014Y-116423165D02*
X350194372Y-116444307D01*
X40645624Y-198145905D02*
X40599748Y-198177210D01*
X221470602Y-212024205D02*
X221464829Y-212079443D01*
X352165635Y-115750415D02*
X352192425Y-115701764D01*
X352373832Y-114843432D02*
X352369018Y-114788102D01*
X363593432Y-197902927D02*
X363538363Y-197895718D01*
X52781451Y-116478244D02*
X52828385Y-116507939D01*
X182144535Y-126989622D02*
X182108264Y-126947562D01*
X351229669Y-116489259D02*
X351282666Y-116472648D01*
X183239371Y-210668529D02*
X183185349Y-210655634D01*
X179633662Y-128971686D02*
X179667695Y-129015576D01*
X365894272Y-201898180D02*
X365770867Y-202021583D01*
X50832605Y-113035057D02*
X50947063Y-112905464D01*
X304618864Y-156915563D02*
X302187963Y-143129240D01*
X224643407Y-212439579D02*
X224650139Y-212384449D01*
X183185349Y-210655634D02*
X183130913Y-210644622D01*
X224093165Y-210997426D02*
X224050175Y-210962262D01*
X192634983Y-166917971D02*
X192650970Y-166923963D01*
X328227662Y-138061163D02*
X342226662Y-138061163D01*
X351176128Y-113404832D02*
X351122106Y-113391937D01*
X182453603Y-128451993D02*
X182467900Y-128398326D01*
X52974971Y-113695356D02*
X52925204Y-113720010D01*
X223128213Y-213816618D02*
X223183650Y-213813246D01*
X139474949Y-144504282D02*
X141905849Y-130717959D01*
X181906274Y-126757485D02*
X181862090Y-126723834D01*
X53025564Y-113672443D02*
X52974971Y-113695356D01*
X366865313Y-200458631D02*
X366791552Y-200616796D01*
X180984312Y-129611841D02*
X181039749Y-129608469D01*
X361787308Y-199789174D02*
X361798792Y-199843513D01*
X192323067Y-166520915D02*
X192325680Y-166537787D01*
X225409253Y-126268191D02*
X225355232Y-126255296D01*
X363372120Y-201085486D02*
X363427640Y-201084040D01*
X52165349Y-114570819D02*
X52146454Y-114623045D01*
X192318410Y-128317960D02*
X192318410Y-166452832D01*
X223799135Y-128862698D02*
X223836131Y-128904122D01*
X223348791Y-210644622D02*
X223294005Y-210635505D01*
X364746184Y-198689558D02*
X364717721Y-198641866D01*
X363648218Y-201059048D02*
X363702655Y-201048036D01*
X54004656Y-116703671D02*
X54058677Y-116690776D01*
X192220569Y-127700065D02*
X192240969Y-127766810D01*
X42822093Y-200418925D02*
X42853795Y-200373323D01*
X53618584Y-116740639D02*
X53674121Y-116741121D01*
X362993526Y-203376242D02*
X362820308Y-203397518D01*
X192430555Y-166768376D02*
X192441554Y-166781434D01*
X320213661Y-158580664D02*
X320854929Y-157111164D01*
X180707212Y-129599809D02*
X180762398Y-129606062D01*
X212903365Y-166945562D02*
X212920138Y-166942374D01*
X351229669Y-113419594D02*
X351176128Y-113404832D01*
X182799277Y-210618666D02*
X182743790Y-210621076D01*
X167130728Y-202632902D02*
X165627911Y-202367915D01*
X239833905Y-173467823D02*
X226047581Y-175898723D01*
X223997796Y-126579319D02*
X223955423Y-126615223D01*
X40599748Y-200788725D02*
X40645624Y-200820031D01*
X362672970Y-200931372D02*
X362723563Y-200954284D01*
X40469020Y-198280406D02*
X40427919Y-198317759D01*
X179487409Y-127290676D02*
X179463188Y-127340655D01*
X174035286Y-202922784D02*
X173083262Y-208321979D01*
X52781451Y-113804118D02*
X52735575Y-113835424D01*
X362013595Y-200352694D02*
X362044501Y-200398840D01*
X68853142Y-182748760D02*
X54854142Y-182748760D01*
X222045792Y-210979657D02*
X222003419Y-211015562D01*
X54853593Y-116206966D02*
X54889864Y-116164906D01*
X192084412Y-127379217D02*
X192116091Y-127441407D01*
X52066257Y-115002501D02*
X52062404Y-115057906D01*
X52286311Y-115961139D02*
X52315597Y-116008329D01*
X37819555Y-199934061D02*
X37770732Y-199770415D01*
X42912358Y-200278956D02*
X42939148Y-200230305D01*
X182302855Y-128809335D02*
X182329645Y-128760684D01*
X37873938Y-200095944D02*
X37819555Y-199934061D01*
X222134147Y-213523882D02*
X222180023Y-213555187D01*
X224376139Y-126349048D02*
X224325547Y-126371960D01*
X179601173Y-128926641D02*
X179633662Y-128971686D01*
X42987584Y-200130362D02*
X43009171Y-200079190D01*
X102190642Y-144648761D02*
X88191642Y-144648761D01*
X182144535Y-129037072D02*
X182179324Y-128993779D01*
X41568238Y-203318386D02*
X41401656Y-203280781D01*
X182743790Y-213815173D02*
X182799277Y-213817582D01*
X51721320Y-112217719D02*
X51863507Y-112119343D01*
X221607089Y-211545433D02*
X221584617Y-211596222D01*
X222580254Y-213744881D02*
X222633531Y-213760570D01*
X40349728Y-200569304D02*
X40388139Y-200609419D01*
X221512729Y-212629999D02*
X221527955Y-212683410D01*
X364687621Y-200375901D02*
X364717721Y-200329226D01*
X173083262Y-208321979D02*
X172012120Y-208140601D01*
X223416833Y-127679105D02*
X223412980Y-127734510D01*
X54854142Y-196747760D02*
X68853142Y-196747760D01*
X364957270Y-199541077D02*
X364958234Y-199485546D01*
X221962318Y-211052916D02*
X221922538Y-211091673D01*
X184070558Y-213241849D02*
X184105347Y-213198556D01*
X224132027Y-129154849D02*
X224178961Y-129184543D01*
X362820308Y-203397518D02*
X362646454Y-203412737D01*
X184345490Y-211673792D02*
X184325691Y-211621902D01*
X232082558Y-198688628D02*
X233409515Y-197807809D01*
X299009138Y-111320268D02*
X299154006Y-111301097D01*
X159617681Y-167399864D02*
X162048581Y-153613541D01*
X127070775Y-161660967D02*
X140857099Y-164091867D01*
X213183828Y-166794109D02*
X213195267Y-166781434D01*
X41371900Y-197890253D02*
X41316714Y-197896505D01*
X363538363Y-201075374D02*
X363593432Y-201068165D01*
X349764671Y-116192893D02*
X349808264Y-116227306D01*
X351679545Y-116276036D02*
X351724870Y-116243939D01*
X182578299Y-210639826D02*
X182523679Y-210649892D01*
X362111023Y-200487776D02*
X362146559Y-200530458D01*
X55251567Y-114974857D02*
X55244836Y-114919727D01*
X142996560Y-193452070D02*
X144544750Y-193078217D01*
X40050218Y-198861066D02*
X40029522Y-198912605D01*
X223667892Y-210738592D02*
X223616175Y-210718344D01*
X39993556Y-199948254D02*
X40010627Y-200001104D01*
X213236501Y-166727058D02*
X213245620Y-166712624D01*
X191068136Y-126463799D02*
X191132374Y-126491087D01*
X222906299Y-210625409D02*
X222851113Y-210631662D01*
X55019722Y-114297501D02*
X54989622Y-114250826D01*
X148576179Y-204000719D02*
X147550392Y-205546070D01*
X54370491Y-113707467D02*
X54320303Y-113683680D01*
X40740495Y-200877772D02*
X40789377Y-200904139D01*
X43124409Y-199482968D02*
X43123445Y-199427437D01*
X225355232Y-129380275D02*
X225409253Y-129367380D01*
X353051089Y-112314844D02*
X353186359Y-112423487D01*
X52009010Y-112025943D02*
X52157656Y-111937628D01*
X181916269Y-210912366D02*
X181871507Y-210945245D01*
X212835481Y-166952541D02*
X212852531Y-166951666D01*
X223718875Y-213675626D02*
X223769062Y-213651839D01*
X184406349Y-212548972D02*
X184416889Y-212494442D01*
X363483077Y-201080668D02*
X363538363Y-201075374D01*
X226045169Y-129038484D02*
X226086912Y-129001849D01*
X53076921Y-116631062D02*
X53128981Y-116650409D01*
X225670879Y-129275287D02*
X225721066Y-129251500D01*
X304415163Y-124062166D02*
X304415163Y-138061166D01*
X349197168Y-115203350D02*
X349206760Y-115258055D01*
X212818410Y-166952832D02*
X212835481Y-166952541D01*
X222961669Y-210621076D02*
X222906299Y-210625409D01*
X351585690Y-116335416D02*
X351633132Y-116306540D01*
X223451369Y-128175753D02*
X223464733Y-128229660D01*
X351853787Y-116138490D02*
X351894234Y-116100429D01*
X144968883Y-190672838D02*
X151714816Y-191862328D01*
X221464829Y-212079443D02*
X221460976Y-212134849D01*
X41814392Y-201056470D02*
X41868829Y-201045458D01*
X352322826Y-111845423D02*
X352474822Y-111929080D01*
X40427919Y-200648176D02*
X40469020Y-200685530D01*
X294189819Y-125195653D02*
X280403495Y-127626553D01*
X41922850Y-201032563D02*
X41976392Y-201017800D01*
X223563787Y-210699903D02*
X223510790Y-210683291D01*
X264488595Y-196972318D02*
X265440618Y-202371513D01*
X52072030Y-115335100D02*
X52079718Y-115390105D01*
X213311140Y-166537787D02*
X213313753Y-166520915D01*
X42558766Y-198262269D02*
X42515777Y-198227106D01*
X154334726Y-171597258D02*
X151903825Y-185383582D01*
X78666642Y-182748759D02*
X78666642Y-196747759D01*
X223697078Y-126904492D02*
X223666172Y-126950638D01*
X361827382Y-199020260D02*
X361812156Y-199073672D01*
X181666249Y-211131788D02*
X181629253Y-211173212D01*
X180280234Y-129482085D02*
X180331592Y-129503228D01*
X128119526Y-128287058D02*
X125688625Y-142073382D01*
X213395626Y-127760320D02*
X213415969Y-127693664D01*
X364923654Y-199154699D02*
X364911229Y-199100567D01*
X41236455Y-203237510D02*
X41072829Y-203188622D01*
X52146454Y-115659318D02*
X52165349Y-115711544D01*
X191757338Y-126928900D02*
X191804928Y-126979952D01*
X110741085Y-144566645D02*
X108310184Y-158352969D01*
X226473986Y-128465180D02*
X226495574Y-128414008D01*
X364170654Y-203060790D02*
X364007728Y-203123336D01*
X43100368Y-199206650D02*
X43089829Y-199152120D01*
X222527553Y-210708896D02*
X222475493Y-210728243D01*
X180280234Y-126544609D02*
X180229641Y-126567521D01*
X223439885Y-128121414D02*
X223451369Y-128175753D01*
X54607419Y-113851669D02*
X54562094Y-113819572D01*
X37611779Y-198932485D02*
X37597280Y-198762327D01*
X42754037Y-198459243D02*
X42717766Y-198417183D01*
X190802854Y-126377518D02*
X190870264Y-126395602D01*
X52941678Y-111575834D02*
X53105329Y-111520036D01*
X272071955Y-162654463D02*
X285858279Y-160223562D01*
X92665642Y-196747759D02*
X92665642Y-182748759D01*
X223729567Y-126859447D02*
X223697078Y-126904492D01*
X226473986Y-127170391D02*
X226450636Y-127119999D01*
X225866257Y-129169899D02*
X225912670Y-129139395D01*
X85809911Y-125598761D02*
X85809911Y-139597761D01*
X226549509Y-128256432D02*
X226563806Y-128202764D01*
X226398760Y-127021797D02*
X226370298Y-126974106D01*
X362479450Y-200822609D02*
X362526384Y-200852303D01*
X221527955Y-211752838D02*
X221512729Y-211806249D01*
X362986747Y-197929269D02*
X362932958Y-197943100D01*
X181366738Y-212840026D02*
X181389211Y-212890816D01*
X224581354Y-211726339D02*
X224563368Y-211673792D01*
X42788827Y-198502536D02*
X42754037Y-198459243D01*
X181722910Y-126632358D02*
X181674493Y-126605147D01*
X352217511Y-114256640D02*
X352192425Y-114207089D01*
X364798059Y-200183332D02*
X364821409Y-200132940D01*
X224498632Y-212915910D02*
X224521982Y-212865518D01*
X225024697Y-129417725D02*
X225080217Y-129416280D01*
X192801340Y-166952541D02*
X192818410Y-166952832D01*
X363915603Y-197985766D02*
X363863214Y-197967325D01*
X350902529Y-116549549D02*
X350957815Y-116544255D01*
X40210676Y-198569674D02*
X40179770Y-198615820D01*
X40150484Y-198663010D02*
X40122853Y-198711189D01*
X170990786Y-209679244D02*
X167740921Y-209106205D01*
X351437754Y-116411928D02*
X351487941Y-116388141D01*
X38312998Y-201019823D02*
X38226809Y-200872394D01*
X37689987Y-199438600D02*
X37658160Y-199270818D01*
X181204890Y-126439845D02*
X181150104Y-126430728D01*
X41922850Y-197933373D02*
X41868829Y-197920478D01*
X41427270Y-201080016D02*
X41482757Y-201082425D01*
X364880781Y-199977331D02*
X364896932Y-199924193D01*
X144544750Y-193078217D02*
X144968883Y-190672838D01*
X181871507Y-213491003D02*
X181916269Y-213523882D01*
X362646454Y-203412737D02*
X362472174Y-203421879D01*
X180229641Y-129459173D02*
X180280234Y-129482085D01*
X183450014Y-210738592D02*
X183398297Y-210718344D01*
X226606957Y-127706791D02*
X226602143Y-127651461D01*
X222089385Y-213491003D02*
X222134147Y-213523882D01*
X363040985Y-201053778D02*
X363095604Y-201063844D01*
X354117222Y-113447124D02*
X354212564Y-113592076D01*
X225818815Y-129198775D02*
X225866257Y-129169899D01*
X184200416Y-213061804D02*
X184228878Y-213014112D01*
X53234959Y-113598735D02*
X53181682Y-113614425D01*
X179703230Y-129058259D02*
X179740226Y-129099683D01*
X213741006Y-127081134D02*
X213784802Y-127026923D01*
X349376131Y-114182647D02*
X349350189Y-114231756D01*
X225300795Y-129391288D02*
X225355232Y-129380275D01*
X54815885Y-116247742D02*
X54853593Y-116206966D01*
X174961691Y-215718124D02*
X105543947Y-203498734D01*
X181827914Y-210979657D02*
X181785541Y-211015562D01*
X367294631Y-198599513D02*
X367285486Y-198773793D01*
X223536621Y-128439687D02*
X223559093Y-128490477D01*
X180489630Y-129555793D02*
X180543419Y-129569624D01*
X61997892Y-158647761D02*
X75996892Y-158647761D01*
X40150484Y-200302925D02*
X40179770Y-200350116D01*
X179945484Y-129286226D02*
X179990246Y-129319105D01*
X40993155Y-200992196D02*
X41045855Y-201009725D01*
X213171964Y-166806385D02*
X213183828Y-166794109D01*
X54694593Y-116361880D02*
X54736336Y-116325245D01*
X354783852Y-114852222D02*
X354830040Y-115019459D01*
X149360465Y-170720161D02*
X135574142Y-168289260D01*
X362013595Y-198618398D02*
X361984310Y-198665589D01*
X340074392Y-157111165D02*
X340715661Y-158580664D01*
X224446756Y-211422136D02*
X224418294Y-211374444D01*
X367052885Y-199970053D02*
X366996059Y-200135062D01*
X225619896Y-126338253D02*
X225568179Y-126318005D01*
X182155664Y-210772298D02*
X182105897Y-210796953D01*
X54320303Y-113683680D02*
X54269320Y-113661649D01*
X363863214Y-197967325D02*
X363810218Y-197950714D01*
X224005991Y-213507637D02*
X224050175Y-213473986D01*
X350460436Y-116522659D02*
X350515056Y-116532725D01*
X226275229Y-126837354D02*
X226240440Y-126794061D01*
X179990246Y-129319105D02*
X180036122Y-129350410D01*
X226127359Y-126671783D02*
X226086912Y-126633722D01*
X182513942Y-127957816D02*
X182511052Y-127902352D01*
X192341838Y-166604089D02*
X192347280Y-166620272D01*
X181574974Y-126555845D02*
X181523991Y-126533815D01*
X183130913Y-213791626D02*
X183185349Y-213780614D01*
X42822093Y-198547010D02*
X42788827Y-198502536D01*
X364489466Y-202918838D02*
X364331299Y-202992596D01*
X350625178Y-116547142D02*
X350680548Y-116551475D01*
X183648932Y-213599113D02*
X183696375Y-213570238D01*
X40179770Y-198615820D02*
X40150484Y-198663010D01*
X190870264Y-126395602D02*
X190937001Y-126416028D01*
X182108264Y-129079132D02*
X182144535Y-129037072D01*
X223666172Y-128684934D02*
X223697078Y-128731079D01*
X42939148Y-198735630D02*
X42912358Y-198686979D01*
X39936204Y-199676887D02*
X39943891Y-199731891D01*
X54515682Y-113789068D02*
X54468239Y-113760192D01*
X364551592Y-200551331D02*
X364587863Y-200509271D01*
X39049535Y-201957841D02*
X38930884Y-201835018D01*
X52060477Y-115113412D02*
X52060477Y-115168951D01*
X224543570Y-211621902D02*
X224521982Y-211570730D01*
X364587863Y-200509271D02*
X364622653Y-200465978D01*
X43120554Y-199371973D02*
X43115740Y-199316643D01*
X84929641Y-179167260D02*
X85570909Y-177697761D01*
X352107072Y-114064072D02*
X352075370Y-114018469D01*
X181704660Y-213344575D02*
X181744440Y-213383333D01*
X40599748Y-198177210D02*
X40554987Y-198210089D01*
X182523679Y-213786356D02*
X182578299Y-213796422D01*
X181472274Y-129513127D02*
X181523991Y-129492879D01*
X180331592Y-126523466D02*
X180280234Y-126544609D01*
X181523991Y-129492879D02*
X181574974Y-129470848D01*
X53181682Y-116667938D02*
X53234959Y-116683627D01*
X349945836Y-113587669D02*
X349898902Y-113617364D01*
X167242839Y-193209203D02*
X166426693Y-197837799D01*
X183788113Y-210928611D02*
X183742787Y-210896515D01*
X213438621Y-127627757D02*
X213463556Y-127562678D01*
X52828385Y-113774424D02*
X52781451Y-113804118D01*
X182057016Y-213612929D02*
X182105897Y-213639296D01*
X275429233Y-128503651D02*
X261642909Y-130934551D01*
X214696329Y-126409892D02*
X214762931Y-126389373D01*
X364949566Y-199651871D02*
X364954380Y-199596541D01*
X352373832Y-115065421D02*
X352376722Y-115009957D01*
X181259326Y-129575837D02*
X181313348Y-129562942D01*
X257901287Y-199061416D02*
X256398470Y-199326403D01*
X53729641Y-116739675D02*
X53785078Y-116736303D01*
X354731888Y-114686689D02*
X354783852Y-114852222D01*
X361760403Y-199402271D02*
X361758475Y-199457777D01*
X213133954Y-166840688D02*
X213147012Y-166829689D01*
X182511052Y-128124342D02*
X182513942Y-128068878D01*
X226586771Y-128094103D02*
X226595411Y-128039240D01*
X43063106Y-199044321D02*
X43046955Y-198991182D01*
X191437174Y-126660139D02*
X191494336Y-126700184D01*
X179740226Y-126927011D02*
X179703230Y-126968435D01*
X330608911Y-176161165D02*
X344607911Y-176161165D01*
X349189481Y-114760508D02*
X349183708Y-114815746D01*
X54776783Y-116287184D02*
X54815885Y-116247742D01*
X213001837Y-166917971D02*
X213017611Y-166911438D01*
X221657252Y-211446345D02*
X221631310Y-211495453D01*
X351067670Y-116527929D02*
X351122106Y-116516916D01*
X42853795Y-200373323D02*
X42883895Y-200326648D01*
X352282247Y-114410095D02*
X352262449Y-114358204D01*
X349177927Y-114926657D02*
X349177927Y-114982196D01*
X225300795Y-126244283D02*
X225246009Y-126235167D01*
X55213230Y-115526160D02*
X55225656Y-115472029D01*
X182206257Y-210749386D02*
X182155664Y-210772298D01*
X182274393Y-127169667D02*
X182244292Y-127122992D01*
X146880112Y-131595051D02*
X144449211Y-145381375D01*
X223914253Y-210866010D02*
X223866811Y-210837135D01*
X361812156Y-199897421D02*
X361827382Y-199950832D01*
X42788827Y-200463400D02*
X42822093Y-200418925D01*
X182467900Y-127628368D02*
X182453603Y-127574701D01*
X212869542Y-166950211D02*
X212886494Y-166948175D01*
X223697078Y-128731079D02*
X223729567Y-128776125D01*
X350246432Y-116463655D02*
X350299133Y-116481183D01*
X49759596Y-115178666D02*
X49800580Y-115010692D01*
X224634767Y-212494442D02*
X224643407Y-212439579D01*
X225619896Y-129297318D02*
X225670879Y-129275287D01*
X225515791Y-129336007D02*
X225568179Y-129317566D01*
X37588601Y-198591774D02*
X37585751Y-198421024D01*
X342226662Y-138061163D02*
X342226662Y-124062163D01*
X349433047Y-115821575D02*
X349463953Y-115867720D01*
X40692559Y-200849725D02*
X40740495Y-200877772D01*
X54853593Y-114075397D02*
X54815885Y-114034621D01*
X179778637Y-126886896D02*
X179740226Y-126927011D01*
X350406199Y-113398150D02*
X350352410Y-113411980D01*
X181413432Y-212940795D02*
X181439374Y-212989903D01*
X40839144Y-198037142D02*
X40789377Y-198061796D01*
X40437848Y-202938145D02*
X40284910Y-202862160D01*
X223497030Y-127299649D02*
X223479959Y-127352500D01*
X42379855Y-200835081D02*
X42426267Y-200804577D01*
X43009171Y-198886746D02*
X42987584Y-198835573D01*
X184345490Y-212762456D02*
X184363475Y-212709909D01*
X183742787Y-213539734D02*
X183788113Y-213507637D01*
X54854142Y-163698760D02*
X54854142Y-177697760D01*
X179420019Y-127442984D02*
X179401125Y-127495210D01*
X364260093Y-200807156D02*
X364305418Y-200775059D01*
X349197168Y-114705503D02*
X349189481Y-114760508D01*
X351358448Y-111458353D02*
X351524454Y-111508783D01*
X351971044Y-113888642D02*
X351933335Y-113847866D01*
X52604847Y-116343744D02*
X52647220Y-116379648D01*
X192441554Y-166781434D02*
X192452992Y-166794109D01*
X352282247Y-115498758D02*
X352300232Y-115446212D01*
X42234664Y-198049253D02*
X42184476Y-198025466D01*
X180873254Y-129612805D02*
X180928791Y-129613287D01*
X364772974Y-198738209D02*
X364746184Y-198689558D01*
X50331095Y-113737961D02*
X50421549Y-113590608D01*
X54058677Y-113591587D02*
X54004656Y-113578692D01*
X183076127Y-210635505D02*
X183021058Y-210628296D01*
X192288040Y-127970743D02*
X192298955Y-128039678D01*
X181785541Y-211015562D02*
X181744440Y-211052916D01*
X296620720Y-138981976D02*
X294189819Y-125195653D01*
X224041389Y-126544906D02*
X223997796Y-126579319D01*
X223294005Y-213800743D02*
X223348791Y-213791626D01*
X222226957Y-213584881D02*
X222274894Y-213612929D01*
X224657843Y-212162593D02*
X224654953Y-212107129D01*
X349246834Y-114489141D02*
X349231607Y-114542552D01*
X226240440Y-126794061D02*
X226204169Y-126752001D01*
X37658160Y-199270818D02*
X37632080Y-199102047D01*
X174829558Y-198418246D02*
X176156514Y-199299065D01*
X181871507Y-210945245D02*
X181827914Y-210979657D01*
X352010587Y-111694174D02*
X352168019Y-111767089D01*
X224132027Y-126480723D02*
X224086151Y-126512028D01*
X364746184Y-200281534D02*
X364772974Y-200232884D01*
X51447572Y-112428920D02*
X51582620Y-112320953D01*
X361984310Y-198665589D02*
X361956679Y-198713767D01*
X182688421Y-213810839D02*
X182743790Y-213815173D01*
X223430293Y-127568862D02*
X223422606Y-127623867D01*
X362774920Y-197995666D02*
X362723563Y-198016808D01*
X354870399Y-115188197D02*
X354904878Y-115358234D01*
X225670879Y-126360284D02*
X225619896Y-126338253D01*
X226002179Y-129073648D02*
X226045169Y-129038484D01*
X180652276Y-129591645D02*
X180707212Y-129599809D01*
X229917935Y-215718124D02*
X174961691Y-215718124D01*
X182105897Y-213639296D02*
X182155664Y-213663950D01*
X192382580Y-166697887D02*
X192391201Y-166712624D01*
X362183554Y-198399210D02*
X362146559Y-198440634D01*
X221811596Y-213220354D02*
X221847131Y-213263036D01*
X182179324Y-127032915D02*
X182144535Y-126989622D01*
X349376131Y-115726206D02*
X349403761Y-115774384D01*
X192319576Y-166486953D02*
X192321032Y-166503964D01*
X364880781Y-198993761D02*
X364862795Y-198941215D01*
X41593814Y-197884474D02*
X41538294Y-197883028D01*
X226166460Y-126711225D02*
X226127359Y-126671783D01*
X184425529Y-212439579D02*
X184432261Y-212384449D01*
X179440716Y-128635249D02*
X179463188Y-128686038D01*
X352362286Y-115175881D02*
X352369018Y-115120751D01*
X349898902Y-116291490D02*
X349945836Y-116321184D01*
X265999656Y-183069050D02*
X279785980Y-180638149D01*
X99808911Y-139597761D02*
X99808911Y-125598761D01*
X352192425Y-115701764D02*
X352217511Y-115652213D01*
X41152922Y-197926691D02*
X41099132Y-197940522D01*
X224325547Y-129263611D02*
X224376139Y-129286524D01*
X362932958Y-197943100D02*
X362879681Y-197958789D01*
X192307459Y-128108951D02*
X192313541Y-128178479D01*
X221631310Y-211495453D02*
X221607089Y-211545433D01*
X184138613Y-211282167D02*
X184105347Y-211237692D01*
X192321032Y-166503964D02*
X192323067Y-166520915D01*
X364018302Y-198028045D02*
X363967319Y-198006014D01*
X265815552Y-196091499D02*
X264488595Y-196972318D01*
X43009171Y-200079190D02*
X43028969Y-200027299D01*
X184379626Y-211779478D02*
X184363475Y-211726339D01*
X183696375Y-210866010D02*
X183648932Y-210837135D01*
X361884044Y-200107448D02*
X361906516Y-200158238D01*
X224093165Y-213438822D02*
X224134908Y-213402188D01*
X53950219Y-116714684D02*
X54004656Y-116703671D01*
X364513883Y-198378986D02*
X364474782Y-198339544D01*
X55225656Y-115472029D02*
X55236195Y-115417499D01*
X213699126Y-127136838D02*
X213741006Y-127081134D01*
X43115740Y-199649293D02*
X43120554Y-199593962D01*
X340715661Y-158580664D02*
X344015661Y-158580664D01*
X362774920Y-200975427D02*
X362826980Y-200994774D01*
X41736007Y-203350280D02*
X41568238Y-203318386D01*
X180707212Y-126426884D02*
X180652276Y-126435049D01*
X224521982Y-211570730D02*
X224498632Y-211520338D01*
X43109009Y-199704422D02*
X43115740Y-199649293D01*
X352075370Y-115890384D02*
X352107072Y-115844782D01*
X225957995Y-126528273D02*
X225912670Y-126496176D01*
X182506238Y-127847022D02*
X182499506Y-127791892D01*
X158235535Y-147812275D02*
X160666435Y-134025952D01*
X49957999Y-114516669D02*
X50021753Y-114355950D01*
X250880464Y-152176137D02*
X253311365Y-165962461D01*
X192332627Y-166571214D02*
X192336952Y-166587730D01*
X181327148Y-212736261D02*
X181346042Y-212788487D01*
X50021753Y-114355950D02*
X50091025Y-114197533D01*
X225409253Y-129367380D02*
X225462794Y-129352618D01*
X181439374Y-212989903D02*
X181467004Y-213038082D01*
X183130913Y-210644622D02*
X183076127Y-210635505D01*
X75996892Y-139597761D02*
X75996892Y-125598761D01*
X54217604Y-113641401D02*
X54165215Y-113622960D01*
X179384054Y-128478633D02*
X179401125Y-128531483D01*
X39930430Y-199344287D02*
X39926577Y-199399692D01*
X40010627Y-200001104D02*
X40029522Y-200053330D01*
X182257615Y-210728243D02*
X182206257Y-210749386D01*
X192318702Y-166469903D02*
X192319576Y-166486953D01*
X179368827Y-128425222D02*
X179384054Y-128478633D01*
X367297690Y-198425020D02*
X367294631Y-198599513D01*
X55244836Y-114919727D02*
X55236195Y-114864864D01*
X226308495Y-128753743D02*
X226340198Y-128708141D01*
X362623203Y-198064375D02*
X362574321Y-198090742D01*
X179859518Y-129215909D02*
X179901891Y-129251814D01*
X224086151Y-126512028D02*
X224041389Y-126544906D01*
X52346503Y-116054475D02*
X52378991Y-116099520D01*
X351437754Y-113496925D02*
X351386771Y-113474894D01*
X181310077Y-212683410D02*
X181327148Y-212736261D01*
X180036122Y-126676284D02*
X179990246Y-126707589D01*
X182910335Y-210619630D02*
X182854814Y-210618184D01*
X173095314Y-174905255D02*
X170664413Y-188691579D01*
X42680058Y-198376407D02*
X42640956Y-198336965D01*
X367221673Y-199293234D02*
X367188363Y-199464546D01*
X224214456Y-213324684D02*
X224252165Y-213283909D01*
X182179324Y-128993779D02*
X182212590Y-128949304D01*
X183832297Y-210962262D02*
X183788113Y-210928611D01*
X183021058Y-210628296D02*
X182965771Y-210623002D01*
X264666788Y-149745237D02*
X250880464Y-152176137D01*
X224323225Y-213198556D02*
X224356491Y-213154081D01*
X365236514Y-202469956D02*
X365093556Y-202570057D01*
X214565471Y-126457828D02*
X214630482Y-126432720D01*
X366996059Y-200135062D02*
X366933510Y-200297987D01*
X225721066Y-129251500D02*
X225770398Y-129225986D01*
X42081777Y-197983187D02*
X42029389Y-197964747D01*
X130599870Y-167412163D02*
X116813547Y-164981262D01*
X192544184Y-166870923D02*
X192558618Y-166880042D01*
X263270190Y-190062400D02*
X263694323Y-192467780D01*
X52286311Y-114321224D02*
X52258680Y-114369402D01*
X184138613Y-213154081D02*
X184170315Y-213108479D01*
X311558911Y-143112164D02*
X311558911Y-157111164D01*
X352623823Y-112017961D02*
X352769652Y-112111959D01*
X42074322Y-203396795D02*
X41904768Y-203376426D01*
X364166238Y-200866535D02*
X364213681Y-200837660D01*
X366712316Y-200772292D02*
X366627703Y-200924927D01*
X226515372Y-128362117D02*
X226533358Y-128309571D01*
X363316583Y-201085004D02*
X363372120Y-201085486D01*
X179513351Y-127241568D02*
X179487409Y-127290676D01*
X264372039Y-202567426D02*
X263938546Y-204362594D01*
X364958234Y-199485546D02*
X364957270Y-199430015D01*
X364947192Y-202665109D02*
X364797601Y-202754995D01*
X53950219Y-113567679D02*
X53895434Y-113558563D01*
X362345219Y-200724013D02*
X362388813Y-200758425D01*
X362302846Y-200688108D02*
X362345219Y-200724013D01*
X225246009Y-129400404D02*
X225300795Y-129391288D01*
X42939148Y-200230305D02*
X42964233Y-200180754D01*
X224427497Y-129307666D02*
X224479557Y-129327014D01*
X52114157Y-115553056D02*
X52129383Y-115606467D01*
X105201060Y-111284465D02*
X105346444Y-111295060D01*
X361930738Y-200208217D02*
X361956679Y-200257325D01*
X182506238Y-128179672D02*
X182511052Y-128124342D01*
X226495574Y-128414008D02*
X226515372Y-128362117D01*
X364942835Y-199707001D02*
X364949566Y-199651871D01*
X226340198Y-126927431D02*
X226308495Y-126881828D01*
X349179855Y-115037702D02*
X349183708Y-115093107D01*
X114382646Y-178767586D02*
X128168970Y-181198486D01*
X176996123Y-151120276D02*
X179427023Y-137333953D01*
X223997796Y-129056252D02*
X224041389Y-129090665D01*
X225024697Y-126217846D02*
X224969159Y-126218328D01*
X221499365Y-211860157D02*
X221487881Y-211914496D01*
X362076990Y-198527207D02*
X362044501Y-198572252D01*
X224543570Y-212814346D02*
X224563368Y-212762456D01*
X318414163Y-138061166D02*
X318414163Y-124062166D01*
X39987262Y-202694749D02*
X39842899Y-202603519D01*
X179859518Y-126810785D02*
X179818417Y-126848138D01*
X182469442Y-213774401D02*
X182523679Y-213786356D01*
X181095035Y-129603175D02*
X181150104Y-129595966D01*
X352240861Y-115601821D02*
X352262449Y-115550649D01*
X160666435Y-134025952D02*
X146880112Y-131595051D01*
X259099546Y-145597971D02*
X256668645Y-131811648D01*
X181816765Y-126691737D02*
X181770352Y-126661233D01*
X213269948Y-166667574D02*
X213277016Y-166652033D01*
X354387879Y-113891465D02*
X354467642Y-114045541D01*
X226549509Y-127379139D02*
X226533358Y-127326000D01*
X224356491Y-211282167D02*
X224323225Y-211237692D01*
X184105347Y-213198556D02*
X184138613Y-213154081D01*
X181523991Y-126533815D02*
X181472274Y-126513567D01*
X41868829Y-201045458D02*
X41922850Y-201032563D01*
X362111023Y-198483317D02*
X362076990Y-198527207D01*
X39943891Y-199234044D02*
X39936204Y-199289049D01*
X363756676Y-201035141D02*
X363810218Y-201020379D01*
X224597505Y-212656770D02*
X224611801Y-212603103D01*
X224650139Y-212051799D02*
X224643407Y-211996669D01*
X349218244Y-114596459D02*
X349206760Y-114650798D01*
X182499506Y-127791892D02*
X182490866Y-127737029D01*
X223866811Y-210837135D02*
X223818394Y-210809924D01*
X224650139Y-212384449D02*
X224654953Y-212329119D01*
X151024456Y-204565437D02*
X151840603Y-199936840D01*
X182009079Y-210851367D02*
X181962144Y-210881061D01*
X52378991Y-114182842D02*
X52346503Y-114227888D01*
X43089829Y-199813815D02*
X43100368Y-199759285D01*
X183450014Y-213697656D02*
X183500997Y-213675626D01*
X54636501Y-111279714D02*
X104909674Y-111276012D01*
X192409925Y-166741172D02*
X192420008Y-166754950D01*
X40469020Y-200685530D02*
X40511393Y-200721434D01*
X350042654Y-116375598D02*
X350092421Y-116400252D01*
X52523966Y-114014730D02*
X52485555Y-114054845D01*
X349722298Y-113751864D02*
X349681197Y-113789218D01*
X226370298Y-128661466D02*
X226398760Y-128613774D01*
X213307952Y-166554560D02*
X213311140Y-166537787D01*
X226166460Y-128924346D02*
X226204169Y-128883570D01*
X240338956Y-148905970D02*
X237908055Y-135119647D01*
X223874542Y-126691335D02*
X223836131Y-126731450D01*
X109358935Y-124979058D02*
X106928034Y-138765382D01*
X222424135Y-210749386D02*
X222373542Y-210772298D01*
X52114157Y-114729307D02*
X52100794Y-114783214D01*
X41704537Y-201072796D02*
X41759607Y-201065586D01*
X181419886Y-126495126D02*
X181366889Y-126478514D01*
X183500997Y-213675626D02*
X183551184Y-213651839D01*
X183551184Y-213651839D02*
X183600516Y-213626324D01*
X363150540Y-201072009D02*
X363205726Y-201078261D01*
X75996892Y-158647761D02*
X75996892Y-144648761D01*
X145831357Y-164968964D02*
X159617681Y-167399864D01*
X106928034Y-138765382D02*
X120714358Y-141196282D01*
X213318410Y-166452832D02*
X213318410Y-128310685D01*
X362826980Y-200994774D02*
X362879681Y-201012303D01*
X349603006Y-113868090D02*
X349566010Y-113909514D01*
X181785541Y-213420686D02*
X181827914Y-213456591D01*
X223072693Y-210618184D02*
X223017155Y-210618666D01*
X180036122Y-129350410D02*
X180083056Y-129380104D01*
X213033152Y-166904369D02*
X213048443Y-166896775D01*
X350736034Y-113354969D02*
X350680548Y-113357378D01*
X152639384Y-195406725D02*
X153455531Y-190778128D01*
X105055428Y-111278114D02*
X105201060Y-111284465D01*
X223348791Y-213791626D02*
X223403228Y-213780614D01*
X364305418Y-198196034D02*
X364260093Y-198163937D01*
X181559685Y-211259785D02*
X181527196Y-211304830D01*
X226552632Y-151336871D02*
X240338956Y-148905970D01*
X181666249Y-213304460D02*
X181704660Y-213344575D01*
X222741557Y-213786356D02*
X222796177Y-213796422D01*
X192489808Y-166829689D02*
X192502866Y-166840688D01*
X183957477Y-211072122D02*
X183917030Y-211034060D01*
X181389211Y-211545433D02*
X181366738Y-211596222D01*
X224639324Y-126261509D02*
X224585535Y-126275340D01*
X320854929Y-157111164D02*
X340074392Y-157111165D01*
X52620652Y-111704231D02*
X52780055Y-111637257D01*
X181770352Y-129365461D02*
X181816765Y-129334956D01*
X351012884Y-113371808D02*
X350957815Y-113364598D01*
X183788113Y-213507637D02*
X183832297Y-213473986D01*
X365643231Y-202140604D02*
X365511519Y-202255099D01*
X226002179Y-126561924D02*
X225957995Y-126528273D01*
X40029522Y-198912605D02*
X40010627Y-198964831D01*
X298546569Y-177330151D02*
X296115668Y-163543828D01*
X53507727Y-116733896D02*
X53563097Y-116738230D01*
X335371412Y-181212163D02*
X335371412Y-195211163D01*
X222373542Y-213663950D02*
X222424135Y-213686862D01*
X361906516Y-198812855D02*
X361884044Y-198863644D01*
X351769054Y-113698564D02*
X351724870Y-113664914D01*
X361777716Y-199734470D02*
X361787308Y-199789174D01*
X350625178Y-113361712D02*
X350569992Y-113367964D01*
X352377686Y-114954427D02*
X352376722Y-114898896D01*
X39964967Y-199840935D02*
X39978330Y-199894842D01*
X52448560Y-116186094D02*
X52485555Y-116227517D01*
X350143014Y-113485688D02*
X350092421Y-113508601D01*
X349231607Y-114542552D02*
X349218244Y-114596459D01*
X50947063Y-112905464D02*
X51065933Y-112779907D01*
X364957270Y-199430015D02*
X364954380Y-199374551D01*
X40910967Y-203134175D02*
X40751059Y-203074232D01*
X213490743Y-127498509D02*
X213520149Y-127435325D01*
X224134908Y-213402188D02*
X224175355Y-213364126D01*
X53840364Y-116731010D02*
X53895434Y-116723800D01*
X182480326Y-127682499D02*
X182467900Y-127628368D01*
X213048443Y-166896775D02*
X213063465Y-166888662D01*
X224693561Y-129386018D02*
X224748181Y-129396084D01*
X191804928Y-126979952D02*
X191850708Y-127032634D01*
X213830460Y-126974271D02*
X213877925Y-126923241D01*
X364717721Y-198641866D02*
X364687621Y-198595191D01*
X181313348Y-129562942D02*
X181366889Y-129548180D01*
X38145705Y-200722108D02*
X38069781Y-200569141D01*
X224388193Y-213108479D02*
X224418294Y-213061804D01*
X52258680Y-115912961D02*
X52286311Y-115961139D01*
X52315597Y-114274033D02*
X52286311Y-114321224D01*
X52378991Y-116099520D02*
X52413024Y-116143411D01*
X283427378Y-146437239D02*
X269641054Y-148868139D01*
X282329344Y-165974728D02*
X284760245Y-179761052D01*
X226586771Y-127541468D02*
X226576231Y-127486938D01*
X222906299Y-213810839D02*
X222961669Y-213815173D01*
X40692559Y-198116210D02*
X40645624Y-198145905D01*
X184416889Y-211941807D02*
X184406349Y-211887277D01*
X43120554Y-199593962D02*
X43123445Y-199538498D01*
X223457249Y-210668529D02*
X223403228Y-210655634D01*
X352343106Y-115285274D02*
X352353646Y-115230744D01*
X40751059Y-203074232D02*
X40593291Y-203008863D01*
X213877925Y-126923241D02*
X213927138Y-126873897D01*
X182057016Y-210823319D02*
X182009079Y-210851367D01*
X214966457Y-126341897D02*
X298864892Y-111343665D01*
X184379626Y-212656770D02*
X184393923Y-212603103D01*
X182799277Y-213817582D02*
X182854814Y-213818064D01*
X144449211Y-145381375D02*
X158235535Y-147812275D01*
X364260093Y-198163937D02*
X364213681Y-198133432D01*
X55074975Y-114393844D02*
X55048185Y-114345193D01*
X49695169Y-115518361D02*
X49724445Y-115347956D01*
X184437074Y-212329119D02*
X184439965Y-212273655D01*
X330608911Y-162162165D02*
X330608911Y-176161165D01*
X192784289Y-166951666D02*
X192801340Y-166952541D01*
X361884044Y-198863644D02*
X361863348Y-198915183D01*
X182309675Y-213727352D02*
X182362375Y-213744881D01*
X181246950Y-212356805D02*
X181252724Y-212412043D01*
X223667892Y-213697656D02*
X223718875Y-213675626D01*
X40740495Y-198088163D02*
X40692559Y-198116210D01*
X352007315Y-113930702D02*
X351971044Y-113888642D01*
X42029389Y-197964747D02*
X41976392Y-197948135D01*
X226609847Y-127762255D02*
X226606957Y-127706791D01*
X52309266Y-111854506D02*
X52463659Y-111776676D01*
X52066257Y-115279862D02*
X52072030Y-115335100D01*
X52232739Y-115863852D02*
X52258680Y-115912961D01*
X180928791Y-126413407D02*
X180873254Y-126413889D01*
X52647220Y-116379648D02*
X52690814Y-116414060D01*
X284760245Y-179761052D02*
X298546569Y-177330151D01*
X41316714Y-197896505D02*
X41261778Y-197904669D01*
X352362286Y-114732972D02*
X352353646Y-114678109D01*
X213315789Y-166503964D02*
X213317245Y-166486953D01*
X55182782Y-115632967D02*
X55198933Y-115579828D01*
X182399669Y-127417125D02*
X182378081Y-127365953D01*
X181862090Y-129302860D02*
X181906274Y-129269209D01*
X316272392Y-157111164D02*
X316913661Y-158580664D01*
X364305418Y-200775059D02*
X364349602Y-200741408D01*
X55164796Y-115685513D02*
X55182782Y-115632967D01*
X146929565Y-184506484D02*
X149360465Y-170720161D01*
X181722910Y-129394336D02*
X181770352Y-129365461D01*
X361984310Y-200305504D02*
X362013595Y-200352694D01*
X213621312Y-127252452D02*
X213659212Y-127193967D01*
X350957815Y-113364598D02*
X350902529Y-113359304D01*
X221460976Y-212301399D02*
X221464829Y-212356805D01*
X52690814Y-116414060D02*
X52735575Y-116446939D01*
X181246950Y-212079443D02*
X181243098Y-212134849D01*
X221459048Y-212190355D02*
X221459048Y-212245894D01*
X40096912Y-200205638D02*
X40122853Y-200254747D01*
X349530475Y-113952197D02*
X349496442Y-113996088D01*
X223403228Y-213780614D02*
X223457249Y-213767719D01*
X53076921Y-113651301D02*
X53025564Y-113672443D01*
X53618584Y-113541724D02*
X53563097Y-113544133D01*
X221459048Y-212245894D02*
X221460976Y-212301399D01*
X349179855Y-114871151D02*
X349177927Y-114926657D01*
X182453603Y-127574701D02*
X182437452Y-127521562D01*
X52079718Y-114892258D02*
X52072030Y-114947262D01*
X52186045Y-114519280D02*
X52165349Y-114570819D01*
X349530475Y-115956656D02*
X349566010Y-115999339D01*
X225246009Y-126235167D02*
X225190940Y-126227957D01*
X351335054Y-116454207D02*
X351386771Y-116433959D01*
X166337329Y-207132489D02*
X167130728Y-202632902D01*
X226425550Y-127070448D02*
X226398760Y-127021797D01*
X349566010Y-113909514D02*
X349530475Y-113952197D01*
X223729567Y-128776125D02*
X223763600Y-128820015D01*
X95335392Y-163698763D02*
X95335392Y-177697763D01*
X364213681Y-200837660D02*
X364260093Y-200807156D01*
X257102505Y-194531300D02*
X256524257Y-191251891D01*
X213092636Y-166870923D02*
X213106750Y-166861317D01*
X350406199Y-116510703D02*
X350460436Y-116522659D01*
X55236195Y-114864864D02*
X55225656Y-114810334D01*
X181252724Y-212024205D02*
X181246950Y-212079443D01*
X222003419Y-213420686D02*
X222045792Y-213456591D01*
X52485555Y-114054845D02*
X52448560Y-114096269D01*
X184440929Y-212218124D02*
X184439965Y-212162593D01*
X364474782Y-200631549D02*
X364513883Y-200592106D01*
X224226898Y-129212590D02*
X224275779Y-129238957D01*
X99808911Y-125598761D02*
X85809911Y-125598761D01*
X224376139Y-129286524D02*
X224427497Y-129307666D01*
X42332412Y-200863957D02*
X42379855Y-200835081D01*
X49899840Y-114679495D02*
X49957999Y-114516669D01*
X290832540Y-159346464D02*
X304618864Y-156915563D01*
X192603669Y-166904369D02*
X192619210Y-166911438D01*
X350515056Y-116532725D02*
X350569992Y-116540889D01*
X179315147Y-128041116D02*
X179317075Y-128096622D01*
X180083056Y-129380104D02*
X180130993Y-129408152D01*
X351122106Y-116516916D02*
X351176128Y-116504021D01*
X184034287Y-213283909D02*
X184070558Y-213241849D01*
X213289541Y-166620272D02*
X213294983Y-166604089D01*
X224050175Y-213473986D02*
X224093165Y-213438822D01*
X182031454Y-126867345D02*
X181991007Y-126829283D01*
X42184476Y-200940469D02*
X42234664Y-200916682D01*
X223072693Y-213818064D02*
X223128213Y-213816618D01*
X351812044Y-113733728D02*
X351769054Y-113698564D01*
X54269320Y-113661649D02*
X54217604Y-113641401D01*
X180179874Y-126592175D02*
X180130993Y-126618542D01*
X364911229Y-199100567D02*
X364896932Y-199046900D01*
X223479959Y-127352500D02*
X223464733Y-127405911D01*
X53452541Y-116727644D02*
X53507727Y-116733896D01*
X350161622Y-111269981D02*
X350334885Y-111278999D01*
X224175355Y-211072122D02*
X224134908Y-211034060D01*
X223818394Y-213626324D02*
X223866811Y-213599113D01*
X223422606Y-128011705D02*
X223430293Y-128066709D01*
X224479557Y-129327014D02*
X224532258Y-129344542D01*
X224323225Y-211237692D02*
X224288436Y-211194399D01*
X224288436Y-213241849D02*
X224323225Y-213198556D01*
X179945484Y-126740468D02*
X179901891Y-126774880D01*
X191936616Y-127142626D02*
X191976640Y-127199803D01*
X179703230Y-126968435D02*
X179667695Y-127011117D01*
X181467004Y-211398167D02*
X181439374Y-211446345D01*
X42964233Y-198785181D02*
X42939148Y-198735630D01*
X151903825Y-185383582D02*
X165690149Y-187814482D01*
X353911743Y-113167575D02*
X354016908Y-113305566D01*
X362723563Y-200954284D02*
X362774920Y-200975427D01*
X182302855Y-127217359D02*
X182274393Y-127169667D01*
X42244474Y-203411361D02*
X42074322Y-203396795D01*
X42600510Y-200667031D02*
X42640956Y-200628970D01*
X182633234Y-213804587D02*
X182688421Y-213810839D01*
X362183554Y-200571882D02*
X362221965Y-200611997D01*
X342226662Y-124062163D02*
X328227662Y-124062163D01*
X181629253Y-213263036D02*
X181666249Y-213304460D01*
X52690814Y-113868302D02*
X52647220Y-113902715D01*
X179901891Y-126774880D02*
X179859518Y-126810785D01*
X364551592Y-198419761D02*
X364513883Y-198378986D01*
X54924654Y-114160750D02*
X54889864Y-114117456D01*
X55100060Y-115838968D02*
X55123410Y-115788576D01*
X181313348Y-126463752D02*
X181259326Y-126450857D01*
X52974971Y-116587007D02*
X53025564Y-116609919D01*
X182469442Y-210661847D02*
X182415653Y-210675678D01*
X61997892Y-139597761D02*
X75996892Y-139597761D01*
X214376232Y-126546514D02*
X214438268Y-126514759D01*
X53397605Y-116719480D02*
X53452541Y-116727644D01*
X181527196Y-213131418D02*
X181559685Y-213176463D01*
X223914253Y-213570238D02*
X223960666Y-213539734D01*
X349325968Y-115627118D02*
X349350189Y-115677097D01*
X255599689Y-194796287D02*
X257102505Y-194531300D01*
X108310184Y-158352969D02*
X122096508Y-160783869D01*
X40134656Y-202780997D02*
X39987262Y-202694749D01*
X37727526Y-199605197D02*
X37689987Y-199438600D01*
X223430293Y-128066709D02*
X223439885Y-128121414D01*
X241812380Y-197227362D02*
X240996234Y-192598765D01*
X351386771Y-113474894D02*
X351335054Y-113454646D01*
X221745074Y-211304830D02*
X221714168Y-211350976D01*
X221487881Y-211914496D02*
X221478289Y-211969201D01*
X181439374Y-211446345D02*
X181413432Y-211495453D01*
X361906516Y-200158238D02*
X361930738Y-200208217D01*
X179901891Y-129251814D02*
X179945484Y-129286226D01*
X85570909Y-177697761D02*
X90284392Y-177697761D01*
X55244836Y-115362636D02*
X55251567Y-115307506D01*
X179427023Y-137333953D02*
X165640700Y-134903052D01*
X350680548Y-116551475D02*
X350736034Y-116553884D01*
X192667153Y-166929404D02*
X192683512Y-166934291D01*
X41649251Y-201078090D02*
X41704537Y-201072796D01*
X364166238Y-198104557D02*
X364117821Y-198077346D01*
X184439965Y-212162593D02*
X184437074Y-212107129D01*
X223616175Y-210718344D02*
X223563787Y-210699903D01*
X153455531Y-190778128D02*
X167242839Y-193209203D01*
X43115740Y-199316643D02*
X43109009Y-199261513D01*
X191318833Y-126586153D02*
X191378649Y-126622113D01*
X41976392Y-197948135D02*
X41922850Y-197933373D01*
X364934194Y-199761864D02*
X364942835Y-199707001D01*
X363593432Y-201068165D02*
X363648218Y-201059048D01*
X75996892Y-144648761D02*
X61997892Y-144648761D01*
X37933818Y-200255876D02*
X37873938Y-200095944D01*
X50617467Y-113305722D02*
X50722696Y-113168529D01*
X350902529Y-113359304D02*
X350847092Y-113355933D01*
X61127641Y-179167260D02*
X61768909Y-177697760D01*
X364644963Y-202839605D02*
X364489466Y-202918838D01*
X223536621Y-127195884D02*
X223515925Y-127247423D01*
X42081777Y-200982748D02*
X42133494Y-200962500D01*
X352107072Y-115844782D02*
X352137173Y-115798106D01*
X213226895Y-166741172D02*
X213236501Y-166727058D01*
X366442760Y-201220879D02*
X366342656Y-201363835D01*
X182274393Y-128857027D02*
X182302855Y-128809335D01*
X363095604Y-197907248D02*
X363040985Y-197917314D01*
X182513942Y-128068878D02*
X182514906Y-128013347D01*
X182490866Y-127737029D02*
X182480326Y-127682499D01*
X364392592Y-198264848D02*
X364349602Y-198229684D01*
X311558910Y-181212164D02*
X311558910Y-195211164D01*
X90284392Y-177697761D02*
X90284392Y-163698761D01*
X222741557Y-210649892D02*
X222687320Y-210661847D01*
X52828385Y-116507939D02*
X52876322Y-116535986D01*
X190666347Y-126348457D02*
X190734854Y-126361796D01*
X224748181Y-126239487D02*
X224693561Y-126249553D01*
X363842718Y-203180159D02*
X363675825Y-203231188D01*
X129501676Y-147874643D02*
X127070775Y-161660967D01*
X282834396Y-141412877D02*
X296620720Y-138981976D01*
X191002986Y-126438769D02*
X191068136Y-126463799D01*
X213206266Y-166768376D02*
X213216813Y-166754950D01*
X164591948Y-168276961D02*
X178378272Y-170707861D01*
X180809172Y-156921538D02*
X167022849Y-154490637D01*
X52448560Y-114096269D02*
X52413024Y-114138952D01*
X362472174Y-203421879D02*
X362297681Y-203424934D01*
X42680058Y-200589528D02*
X42717766Y-200548752D01*
X179326701Y-128207266D02*
X179334388Y-128262270D01*
X192313541Y-128178479D02*
X192317192Y-128248177D01*
X183696375Y-213570238D02*
X183742787Y-213539734D01*
X180543419Y-126457070D02*
X180489630Y-126470901D01*
X364655918Y-200421503D02*
X364687621Y-200375901D01*
X361863348Y-200055909D02*
X361884044Y-200107448D01*
X225568179Y-126318005D02*
X225515791Y-126299565D01*
X222323775Y-210796953D02*
X222274894Y-210823319D01*
X43028969Y-198938636D02*
X43009171Y-198886746D01*
X54112219Y-113606349D02*
X54058677Y-113591587D01*
X349603006Y-116040763D02*
X349641417Y-116080877D01*
X364018302Y-200943048D02*
X364068490Y-200919261D01*
X222796177Y-213796422D02*
X222851113Y-213804587D01*
X224858303Y-129410501D02*
X224913673Y-129414834D01*
X353687371Y-112902949D02*
X353801853Y-113033315D01*
X214140258Y-126694530D02*
X214197281Y-126654464D01*
X222045792Y-213456591D02*
X222089385Y-213491003D01*
X192359805Y-166652033D02*
X192366873Y-166667574D01*
X361812156Y-199073672D02*
X361798792Y-199127579D01*
X364349602Y-198229684D02*
X364305418Y-198196034D01*
X223763600Y-128820015D02*
X223799135Y-128862698D01*
X363261096Y-197888498D02*
X363205726Y-197892831D01*
X316913661Y-158580664D02*
X320213661Y-158580664D01*
X213299869Y-166587730D02*
X213304194Y-166571214D01*
X52129383Y-114675896D02*
X52114157Y-114729307D01*
X223411052Y-127845555D02*
X223412980Y-127901061D01*
X191494336Y-126700184D02*
X191550066Y-126742198D01*
X42332412Y-198101979D02*
X42283996Y-198074768D01*
X226533358Y-128309571D02*
X226549509Y-128256432D01*
X364513883Y-200592106D02*
X364551592Y-200551331D01*
X351487941Y-113520712D02*
X351437754Y-113496925D01*
X181593718Y-211215895D02*
X181559685Y-211259785D01*
X179818417Y-129178555D02*
X179859518Y-129215909D01*
X222851113Y-210631662D02*
X222796177Y-210639826D01*
X181260411Y-211969201D02*
X181252724Y-212024205D01*
X181467004Y-213038082D02*
X181496290Y-213085272D01*
X55019722Y-115984861D02*
X55048185Y-115937170D01*
X351190791Y-111413713D02*
X351358448Y-111458353D01*
X362221965Y-198359095D02*
X362183554Y-198399210D01*
X213147012Y-166829689D02*
X213159687Y-166818250D01*
X352137173Y-114110747D02*
X352107072Y-114064072D01*
X363675825Y-203231188D02*
X363507254Y-203276363D01*
X88191642Y-158647761D02*
X102190642Y-158647761D01*
X362302846Y-198282984D02*
X362261745Y-198320338D01*
X37770732Y-199770415D02*
X37727526Y-199605197D01*
X52346503Y-114227888D02*
X52315597Y-114274033D01*
X299445114Y-111275494D02*
X299591105Y-111269083D01*
X42471592Y-200772480D02*
X42515777Y-200738830D01*
X181496290Y-211350976D02*
X181467004Y-211398167D01*
X42640956Y-198336965D02*
X42600510Y-198298904D01*
X42912358Y-198686979D02*
X42883895Y-198639288D01*
X40839144Y-200928793D02*
X40889737Y-200951706D01*
X183500997Y-210760623D02*
X183450014Y-210738592D01*
X267097689Y-163531560D02*
X264666788Y-149745237D01*
X363427640Y-197887052D02*
X363372120Y-197885606D01*
X38404171Y-201164222D02*
X38312998Y-201019823D01*
X299591105Y-111269083D02*
X299737221Y-111266942D01*
X213254240Y-166697887D02*
X213262353Y-166682865D01*
X37597280Y-198762327D02*
X37588601Y-198591774D01*
X349898902Y-113617364D02*
X349853026Y-113648669D01*
X364331299Y-202992596D02*
X364170654Y-203060790D01*
X349403761Y-114134469D02*
X349376131Y-114182647D01*
X182437452Y-127521562D02*
X182419467Y-127469015D01*
X213337808Y-128032808D02*
X213348692Y-127963971D01*
X256668645Y-131811648D02*
X242882321Y-134242548D01*
X361770029Y-199291627D02*
X361764256Y-199346865D01*
X223666172Y-126950638D02*
X223636886Y-126997828D01*
X223960666Y-210896515D02*
X223914253Y-210866010D01*
X182415653Y-213760570D02*
X182469442Y-213774401D01*
X41482757Y-197883510D02*
X41427270Y-197885919D01*
X213277016Y-166652033D02*
X213283549Y-166636259D01*
X181095035Y-126423519D02*
X181039749Y-126418225D01*
X223960666Y-213539734D02*
X224005991Y-213507637D01*
X363261096Y-201082595D02*
X363316583Y-201085004D01*
X43046955Y-198991182D02*
X43028969Y-198938636D01*
X55256381Y-115252176D02*
X55259272Y-115196712D01*
X224473546Y-212965462D02*
X224498632Y-212915910D01*
X226127359Y-128963788D02*
X226166460Y-128924346D01*
X192452992Y-166794109D02*
X192464857Y-166806385D01*
X167929509Y-198102786D02*
X168507758Y-194823376D01*
X181625161Y-126579632D02*
X181574974Y-126555845D01*
X222180023Y-213555187D02*
X222226957Y-213584881D01*
X42883895Y-200326648D02*
X42912358Y-200278956D01*
X179420019Y-128583710D02*
X179440716Y-128635249D01*
X349350189Y-115677097D02*
X349376131Y-115726206D01*
X224624227Y-212548972D02*
X224634767Y-212494442D01*
X354212564Y-113592076D02*
X354302820Y-113740250D01*
X214084666Y-126736559D02*
X214140258Y-126694530D01*
X192116091Y-127441407D02*
X192145581Y-127504665D01*
X367149096Y-199634590D02*
X367103918Y-199803161D01*
X180383652Y-126504119D02*
X180331592Y-126523466D01*
X213318410Y-128310685D02*
X213319624Y-128241005D01*
X192347280Y-166620272D02*
X192353271Y-166636259D01*
X42133494Y-200962500D02*
X42184476Y-200940469D01*
X223411052Y-127790016D02*
X223411052Y-127845555D01*
X362388813Y-200758425D02*
X362433574Y-200791304D01*
X223609256Y-128589565D02*
X223636886Y-128637743D01*
X225190940Y-129407614D02*
X225246009Y-129400404D01*
X222226957Y-210851367D02*
X222180023Y-210881061D01*
X223464733Y-128229660D02*
X223479959Y-128283071D01*
X366791552Y-200616796D02*
X366712316Y-200772292D01*
X41538294Y-201082907D02*
X41593814Y-201081462D01*
X224252165Y-211152339D02*
X224214456Y-211111564D01*
X192573355Y-166888662D02*
X192588378Y-166896775D01*
X224634767Y-211941807D02*
X224624227Y-211887277D01*
X184105347Y-211237692D02*
X184070558Y-211194399D01*
X226576231Y-128148633D02*
X226586771Y-128094103D01*
X242611162Y-201757478D02*
X241108345Y-202022465D01*
X349641417Y-113827976D02*
X349603006Y-113868090D01*
X243427308Y-206386074D02*
X242611162Y-201757478D01*
X224275779Y-126396614D02*
X224226898Y-126422981D01*
X179334388Y-127764423D02*
X179326701Y-127819428D01*
X226602143Y-127984110D02*
X226606957Y-127928780D01*
X232985382Y-195402429D02*
X239731315Y-194212939D01*
X285858279Y-160223562D02*
X283427378Y-146437239D01*
X182415653Y-210675678D02*
X182362375Y-210691367D01*
X349463953Y-114041133D02*
X349433047Y-114087278D01*
X183875287Y-213438822D02*
X183917030Y-213402188D01*
X179355464Y-128371314D02*
X179368827Y-128425222D01*
X192477134Y-166818250D02*
X192489808Y-166829689D01*
X39701735Y-202507412D02*
X39563936Y-202406540D01*
X179343980Y-127709719D02*
X179334388Y-127764423D01*
X39964967Y-199125001D02*
X39953482Y-199179339D01*
X186881637Y-177336156D02*
X173095314Y-174905255D01*
X39842899Y-202603519D02*
X39701735Y-202507412D01*
X181962144Y-210881061D02*
X181916269Y-210912366D01*
X184406349Y-211887277D02*
X184393923Y-211833145D01*
X54370491Y-116574896D02*
X54419822Y-116549382D01*
X361787308Y-199181918D02*
X361777716Y-199236623D01*
X181593718Y-213220354D02*
X181629253Y-213263036D01*
X214197281Y-126654464D02*
X214255665Y-126616409D01*
X181962144Y-213555187D02*
X182009079Y-213584881D01*
X353186359Y-112423487D02*
X353317778Y-112536759D01*
X179368827Y-127601472D02*
X179355464Y-127655380D01*
X221584617Y-212840026D02*
X221607089Y-212890816D01*
X42471592Y-198193455D02*
X42426267Y-198161358D01*
X364911229Y-199870525D02*
X364923654Y-199816394D01*
X181827914Y-213456591D02*
X181871507Y-213491003D01*
X351282666Y-113436205D02*
X351229669Y-113419594D01*
X241901743Y-206522051D02*
X240933535Y-206692773D01*
X53342986Y-116709414D02*
X53397605Y-116719480D01*
X354830040Y-115019459D02*
X354870399Y-115188197D01*
X350957815Y-116544255D02*
X351012884Y-116537045D01*
X122096508Y-160783869D02*
X124527408Y-146997546D01*
X184228878Y-211422136D02*
X184200416Y-211374444D01*
X352769652Y-112111959D02*
X352912131Y-112210960D01*
X179355464Y-127655380D02*
X179343980Y-127709719D01*
X41759607Y-201065586D02*
X41814392Y-201056470D01*
X226610811Y-127817786D02*
X226609847Y-127762255D01*
X365511519Y-202255099D02*
X365375891Y-202364928D01*
X226563806Y-128202764D02*
X226576231Y-128148633D01*
X260688681Y-204935633D02*
X259662894Y-203390281D01*
X41868829Y-197920478D02*
X41814392Y-197909465D01*
X68853142Y-196747760D02*
X68853142Y-182748760D01*
X223017155Y-213817582D02*
X223072693Y-213818064D01*
X39924650Y-199510737D02*
X39926577Y-199566243D01*
X181366738Y-211596222D02*
X181346042Y-211647761D01*
X41207159Y-201051200D02*
X41261778Y-201061266D01*
X362297681Y-203424934D02*
X300202335Y-203425020D01*
X351933335Y-113847866D02*
X351894234Y-113808424D01*
X179320928Y-127874666D02*
X179317075Y-127930072D01*
X179740226Y-129099683D02*
X179778637Y-129139798D01*
X224214456Y-211111564D02*
X224175355Y-211072122D01*
X364392592Y-200706244D02*
X364434335Y-200669610D01*
X213159687Y-166818250D02*
X213171964Y-166806385D01*
X53128981Y-116650409D02*
X53181682Y-116667938D01*
X38706505Y-201577579D02*
X38601040Y-201443263D01*
X223609256Y-127046006D02*
X223583314Y-127095115D01*
X302187963Y-143129240D02*
X288401639Y-145560140D01*
X214762931Y-126389373D02*
X214830208Y-126371186D01*
X240933535Y-206692773D02*
X240498152Y-208495768D01*
X221545026Y-212736261D02*
X221563920Y-212788487D01*
X181270003Y-211914496D02*
X181260411Y-211969201D01*
X349325968Y-114281735D02*
X349303496Y-114332525D01*
M02*
