  0
SECTION
  2
HEADER
  9
$ANGBASE
  50
0.0
  9
$ANGDIR
  70
1
  9
$MEASUREMENT
  70
1
  0
ENDSEC
  0
SECTION
  2
TABLES
  0
TABLE
  2
LTYPE
  70
4
  0
LTYPE
  5
40F
  2
CONTINUOUS
  70
0
  3
Solid line
  72
65
  73
0
  40
0.0
  0
LTYPE
  5
410
  2
DASHDOT
 70
0
  3
Dash Dot ____ _ ____ _
 72
65
 73
4
 40
2.0
 49
1.25
 49
-0.25
 49
0.25
 49
-0.25
  0
LTYPE
  5
411
  2
DASHED
 70
0
  3
Dashed __ __ __ __ __
 72
65
 73
2
 40
0.75
 49
0.5
 49
-0.25
  0
LTYPE
  5
43B
  2
DOTTED
 70
0
  3
Dotted .  .  .  .
 72
65
 73
2
 40
0.2
 49
0.0
 49
-0.2
  0
ENDTAB
  0
TABLE
  2
STYLE
  70
4
  0
STYLE
  2
KICAD
  70
0
  40
0
  41
1
  42
1
  50
0
  71
0
  3
isocp.shx
  0
STYLE
  2
KICADB
  70
0
  40
0
  41
1
  42
1
  50
0
  71
0
  3
isocp.shx
  0
STYLE
  2
KICADI
  70
0
  40
0
  41
1
  42
1
  50
15
  71
0
  3
isocp.shx
  0
STYLE
  2
KICADBI
  70
0
  40
0
  41
1
  42
1
  50
15
  71
0
  3
isocp.shx
  0
ENDTAB
  0
TABLE
  2
LAYER
  70
1
  0
LAYER
  2
BLACK
  70
0
  62
7
  6
CONTINUOUS
  0
ENDTAB
  0
ENDSEC
  0
SECTION
  2
ENTITIES
0
LINE
8
BLACK
6
CONTINUOUS
10
222.796
20
-210.64
11
222.742
21
-210.65
0
LINE
8
BLACK
6
CONTINUOUS
10
364.843
20
-200.082
11
364.863
21
-200.03
0
LINE
8
BLACK
6
CONTINUOUS
10
352.042
20
-115.935
11
352.075
21
-115.89
0
LINE
8
BLACK
6
CONTINUOUS
10
213.217
20
-166.755
11
213.227
21
-166.741
0
LINE
8
BLACK
6
CONTINUOUS
10
120.714
20
-141.196
11
123.145
21
-127.41
0
LINE
8
BLACK
6
CONTINUOUS
10
364.434
20
-198.301
11
364.393
21
-198.265
0
LINE
8
BLACK
6
CONTINUOUS
10
53.0256
20
-116.61
11
53.0769
21
-116.631
0
LINE
8
BLACK
6
CONTINUOUS
10
362.526
20
-198.119
11
362.479
21
-198.148
0
LINE
8
BLACK
6
CONTINUOUS
10
40.0106
20
-198.965
11
39.9936
21
-199.018
0
LINE
8
BLACK
6
CONTINUOUS
10
55.145
20
-114.545
11
55.1234
21
-114.494
0
LINE
8
BLACK
6
CONTINUOUS
10
349.808
20
-113.682
11
349.765
21
-113.716
0
LINE
8
BLACK
6
CONTINUOUS
10
180.598
20
-126.445
11
180.543
21
-126.457
0
LINE
8
BLACK
6
CONTINUOUS
10
254.784
20
-190.168
11
255.6
21
-194.796
0
LINE
8
BLACK
6
CONTINUOUS
10
304.415
20
-138.061
11
318.414
21
-138.061
0
LINE
8
BLACK
6
CONTINUOUS
10
192.559
20
-166.88
11
192.573
21
-166.889
0
LINE
8
BLACK
6
CONTINUOUS
10
52.0797
20
-115.39
11
52.0893
21
-115.445
0
LINE
8
BLACK
6
CONTINUOUS
10
179.541
20
-128.833
11
179.57
21
-128.88
0
LINE
8
BLACK
6
CONTINUOUS
10
213.32
20
-128.241
11
213.323
21
-128.171
0
LINE
8
BLACK
6
CONTINUOUS
10
191.851
20
-127.033
11
191.895
21
-127.087
0
LINE
8
BLACK
6
CONTINUOUS
10
350.68
20
-111.315
11
350.851
21
-111.342
0
LINE
8
BLACK
6
CONTINUOUS
10
151.137
20
-195.142
11
152.639
21
-195.407
0
LINE
8
BLACK
6
CONTINUOUS
10
361.827
20
-199.951
11
361.844
21
-200.004
0
LINE
8
BLACK
6
CONTINUOUS
10
213.018
20
-166.911
11
213.033
21
-166.904
0
LINE
8
BLACK
6
CONTINUOUS
10
223.836
20
-128.904
11
223.875
21
-128.944
0
LINE
8
BLACK
6
CONTINUOUS
10
222.851
20
-213.805
11
222.906
21
-213.811
0
LINE
8
BLACK
6
CONTINUOUS
10
363.507
20
-203.276
11
363.337
21
-203.316
0
LINE
8
BLACK
6
CONTINUOUS
10
213.659
20
-127.194
11
213.699
21
-127.137
0
LINE
8
BLACK
6
CONTINUOUS
10
367.104
20
-199.803
11
367.053
21
-199.97
0
LINE
8
BLACK
6
CONTINUOUS
10
364.95
20
-199.319
11
364.943
21
-199.264
0
LINE
8
BLACK
6
CONTINUOUS
10
352.369
20
-114.788
11
352.362
21
-114.733
0
LINE
8
BLACK
6
CONTINUOUS
10
351.933
20
-116.061
11
351.971
21
-116.02
0
LINE
8
BLACK
6
CONTINUOUS
10
40.6456
20
-200.82
11
40.6926
21
-200.85
0
LINE
8
BLACK
6
CONTINUOUS
10
192.42
20
-166.755
11
192.431
21
-166.768
0
LINE
8
BLACK
6
CONTINUOUS
10
38.2268
20
-200.872
11
38.1457
21
-200.722
0
LINE
8
BLACK
6
CONTINUOUS
10
40.3127
20
-200.528
11
40.3497
21
-200.569
0
LINE
8
BLACK
6
CONTINUOUS
10
183.601
20
-210.81
11
183.551
21
-210.784
0
LINE
8
BLACK
6
CONTINUOUS
10
181.42
20
-129.532
11
181.472
21
-129.513
0
LINE
8
BLACK
6
CONTINUOUS
10
349.207
20
-115.258
11
349.218
21
-115.312
0
LINE
8
BLACK
6
CONTINUOUS
10
350.847
20
-113.356
11
350.792
21
-113.354
0
LINE
8
BLACK
6
CONTINUOUS
10
53.5077
20
-113.548
11
53.4525
21
-113.555
0
LINE
8
BLACK
6
CONTINUOUS
10
224.179
20
-126.451
11
224.132
21
-126.481
0
LINE
8
BLACK
6
CONTINUOUS
10
223.764
20
-126.816
11
223.73
21
-126.859
0
LINE
8
BLACK
6
CONTINUOUS
10
192.173
20
-127.569
11
192.198
21
-127.634
0
LINE
8
BLACK
6
CONTINUOUS
10
364.475
20
-198.34
11
364.434
21
-198.301
0
LINE
8
BLACK
6
CONTINUOUS
10
223.465
20
-127.406
11
223.451
21
-127.46
0
LINE
8
BLACK
6
CONTINUOUS
10
191.55
20
-126.742
11
191.604
21
-126.786
0
LINE
8
BLACK
6
CONTINUOUS
10
52.7801
20
-111.637
11
52.9417
21
-111.576
0
LINE
8
BLACK
6
CONTINUOUS
10
42.8538
20
-198.593
11
42.8221
21
-198.547
0
LINE
8
BLACK
6
CONTINUOUS
10
167.306
20
-207.303
11
166.337
21
-207.132
0
LINE
8
BLACK
6
CONTINUOUS
10
181.295
20
-211.806
11
181.281
21
-211.86
0
LINE
8
BLACK
6
CONTINUOUS
10
223.451
20
-127.46
11
223.44
21
-127.514
0
LINE
8
BLACK
6
CONTINUOUS
10
363.967
20
-200.965
11
364.018
21
-200.943
0
LINE
8
BLACK
6
CONTINUOUS
10
183.601
20
-213.626
11
183.649
21
-213.599
0
LINE
8
BLACK
6
CONTINUOUS
10
53.235
20
-116.684
11
53.2887
21
-116.697
0
LINE
8
BLACK
6
CONTINUOUS
10
43.029
20
-200.027
11
43.047
21
-199.975
0
LINE
8
BLACK
6
CONTINUOUS
10
224.276
20
-129.239
11
224.326
21
-129.264
0
LINE
8
BLACK
6
CONTINUOUS
10
184.229
20
-213.014
11
184.256
21
-212.965
0
LINE
8
BLACK
6
CONTINUOUS
10
184.304
20
-211.571
11
184.281
21
-211.52
0
LINE
8
BLACK
6
CONTINUOUS
10
363.372
20
-197.886
11
363.317
21
-197.886
0
LINE
8
BLACK
6
CONTINUOUS
10
182.524
20
-210.65
11
182.469
21
-210.662
0
LINE
8
BLACK
6
CONTINUOUS
10
53.5631
20
-116.738
11
53.6186
21
-116.741
0
LINE
8
BLACK
6
CONTINUOUS
10
279.786
20
-180.638
11
277.355
21
-166.852
0
LINE
8
BLACK
6
CONTINUOUS
10
80.9884
20
-177.698
11
81.6296
21
-179.167
0
LINE
8
BLACK
6
CONTINUOUS
10
351.769
20
-116.21
11
351.812
21
-116.175
0
LINE
8
BLACK
6
CONTINUOUS
10
349.464
20
-115.868
11
349.496
21
-115.913
0
LINE
8
BLACK
6
CONTINUOUS
10
361.844
20
-198.967
11
361.827
21
-199.02
0
LINE
8
BLACK
6
CONTINUOUS
10
92.6656
20
-182.749
11
78.6666
21
-182.749
0
LINE
8
BLACK
6
CONTINUOUS
10
351.283
20
-116.473
11
351.335
21
-116.454
0
LINE
8
BLACK
6
CONTINUOUS
10
182.244
20
-128.904
11
182.274
21
-128.857
0
LINE
8
BLACK
6
CONTINUOUS
10
349.994
20
-116.349
11
350.043
21
-116.376
0
LINE
8
BLACK
6
CONTINUOUS
10
236.227
20
-207.53
11
235.156
21
-207.712
0
LINE
8
BLACK
6
CONTINUOUS
10
221.631
20
-212.941
11
221.657
21
-212.99
0
LINE
8
BLACK
6
CONTINUOUS
10
42.5858
20
-203.423
11
42.415
21
-203.42
0
LINE
8
BLACK
6
CONTINUOUS
10
222.275
20
-213.613
11
222.324
21
-213.639
0
LINE
8
BLACK
6
CONTINUOUS
10
42.415
20
-203.42
11
42.2445
21
-203.411
0
LINE
8
BLACK
6
CONTINUOUS
10
88.1916
20
-144.649
11
88.1916
21
-158.648
0
LINE
8
BLACK
6
CONTINUOUS
10
223.511
20
-210.683
11
223.457
21
-210.669
0
LINE
8
BLACK
6
CONTINUOUS
10
40.555
20
-200.756
11
40.5997
21
-200.789
0
LINE
8
BLACK
6
CONTINUOUS
10
362.222
20
-200.612
11
362.262
21
-200.651
0
LINE
8
BLACK
6
CONTINUOUS
10
352.912
20
-112.211
11
353.051
21
-112.315
0
LINE
8
BLACK
6
CONTINUOUS
10
182.33
20
-127.266
11
182.303
21
-127.217
0
LINE
8
BLACK
6
CONTINUOUS
10
225.355
20
-126.255
11
225.301
21
-126.244
0
LINE
8
BLACK
6
CONTINUOUS
10
354.468
20
-114.046
11
354.542
21
-114.202
0
LINE
8
BLACK
6
CONTINUOUS
10
223.914
20
-126.653
11
223.875
21
-126.691
0
LINE
8
BLACK
6
CONTINUOUS
10
53.343
20
-113.573
11
53.2887
21
-113.585
0
LINE
8
BLACK
6
CONTINUOUS
10
221.478
20
-211.969
11
221.471
21
-212.024
0
LINE
8
BLACK
6
CONTINUOUS
10
362.827
20
-197.976
11
362.775
21
-197.996
0
LINE
8
BLACK
6
CONTINUOUS
10
184.304
20
-212.866
11
184.326
21
-212.814
0
LINE
8
BLACK
6
CONTINUOUS
10
349.808
20
-116.227
11
349.853
21
-116.26
0
LINE
8
BLACK
6
CONTINUOUS
10
192.391
20
-166.713
11
192.4
21
-166.727
0
LINE
8
BLACK
6
CONTINUOUS
10
225.913
20
-129.139
11
225.958
21
-129.107
0
LINE
8
BLACK
6
CONTINUOUS
10
54.2176
20
-116.641
11
54.2693
21
-116.621
0
LINE
8
BLACK
6
CONTINUOUS
10
55.1234
20
-115.789
11
55.145
21
-115.737
0
LINE
8
BLACK
6
CONTINUOUS
10
40.2772
20
-198.481
11
40.2432
21
-198.525
0
LINE
8
BLACK
6
CONTINUOUS
10
182.244
20
-127.123
11
182.213
21
-127.077
0
LINE
8
BLACK
6
CONTINUOUS
10
183.293
20
-210.683
11
183.239
21
-210.669
0
LINE
8
BLACK
6
CONTINUOUS
10
221.461
20
-212.135
11
221.459
21
-212.19
0
LINE
8
BLACK
6
CONTINUOUS
10
213.978
20
-126.826
11
214.031
21
-126.78
0
LINE
8
BLACK
6
CONTINUOUS
10
224.532
20
-129.345
11
224.586
21
-129.36
0
LINE
8
BLACK
6
CONTINUOUS
10
181.916
20
-213.524
11
181.962
21
-213.555
0
LINE
8
BLACK
6
CONTINUOUS
10
180.49
20
-126.471
11
180.436
21
-126.487
0
LINE
8
BLACK
6
CONTINUOUS
10
225.77
20
-129.226
11
225.819
21
-129.199
0
LINE
8
BLACK
6
CONTINUOUS
10
40.2772
20
-200.485
11
40.3127
21
-200.528
0
LINE
8
BLACK
6
CONTINUOUS
10
51.5826
20
-112.321
11
51.7213
21
-112.218
0
LINE
8
BLACK
6
CONTINUOUS
10
223.769
20
-213.652
11
223.818
21
-213.626
0
LINE
8
BLACK
6
CONTINUOUS
10
179.317
20
-127.93
11
179.315
21
-127.986
0
LINE
8
BLACK
6
CONTINUOUS
10
54.6946
20
-113.92
11
54.6516
21
-113.885
0
LINE
8
BLACK
6
CONTINUOUS
10
363.206
20
-197.893
11
363.151
21
-197.899
0
LINE
8
BLACK
6
CONTINUOUS
10
350.46
20
-113.386
11
350.406
21
-113.398
0
LINE
8
BLACK
6
CONTINUOUS
10
240.31
20
-197.492
11
241.812
21
-197.227
0
LINE
8
BLACK
6
CONTINUOUS
10
181.496
20
-213.085
11
181.527
21
-213.131
0
LINE
8
BLACK
6
CONTINUOUS
10
42.6005
20
-198.299
11
42.5588
21
-198.262
0
LINE
8
BLACK
6
CONTINUOUS
10
40.1229
20
-198.711
11
40.0969
21
-198.76
0
LINE
8
BLACK
6
CONTINUOUS
10
237.908
20
-135.12
11
224.122
21
-137.551
0
LINE
8
BLACK
6
CONTINUOUS
10
57.8276
20
-179.167
11
61.1276
21
-179.167
0
LINE
8
BLACK
6
CONTINUOUS
10
213.246
20
-166.713
11
213.254
21
-166.698
0
LINE
8
BLACK
6
CONTINUOUS
10
213.195
20
-166.781
11
213.206
21
-166.768
0
LINE
8
BLACK
6
CONTINUOUS
10
40.0969
20
-198.76
11
40.0727
21
-198.81
0
LINE
8
BLACK
6
CONTINUOUS
10
224.418
20
-211.374
11
224.388
21
-211.328
0
LINE
8
BLACK
6
CONTINUOUS
10
43.1234
20
-199.427
11
43.1206
21
-199.372
0
LINE
8
BLACK
6
CONTINUOUS
10
223.457
20
-213.768
11
223.511
21
-213.753
0
LINE
8
BLACK
6
CONTINUOUS
10
224.581
20
-212.71
11
224.598
21
-212.657
0
LINE
8
BLACK
6
CONTINUOUS
10
362.88
20
-201.012
11
362.933
21
-201.028
0
LINE
8
BLACK
6
CONTINUOUS
10
349.988
20
-111.267
11
350.162
21
-111.27
0
LINE
8
BLACK
6
CONTINUOUS
10
41.5383
20
-197.883
11
41.4828
21
-197.884
0
LINE
8
BLACK
6
CONTINUOUS
10
40.1798
20
-200.35
11
40.2107
21
-200.396
0
LINE
8
BLACK
6
CONTINUOUS
10
344.016
20
-158.581
11
344.657
21
-157.111
0
LINE
8
BLACK
6
CONTINUOUS
10
224.803
20
-129.404
11
224.858
21
-129.411
0
LINE
8
BLACK
6
CONTINUOUS
10
192.516
20
-166.851
11
192.53
21
-166.861
0
LINE
8
BLACK
6
CONTINUOUS
10
52.3156
20
-116.008
11
52.3465
21
-116.054
0
LINE
8
BLACK
6
CONTINUOUS
10
38.5002
20
-201.305
11
38.4042
21
-201.164
0
LINE
8
BLACK
6
CONTINUOUS
10
55.2593
20
-115.086
11
55.2564
21
-115.03
0
LINE
8
BLACK
6
CONTINUOUS
10
41.7596
20
-197.9
11
41.7045
21
-197.893
0
LINE
8
BLACK
6
CONTINUOUS
10
182.4
20
-128.61
11
182.419
21
-128.558
0
LINE
8
BLACK
6
CONTINUOUS
10
213.295
20
-166.604
11
213.3
21
-166.588
0
LINE
8
BLACK
6
CONTINUOUS
10
352.3
20
-115.446
11
352.316
21
-115.393
0
LINE
8
BLACK
6
CONTINUOUS
10
362.479
20
-198.148
11
362.434
21
-198.18
0
LINE
8
BLACK
6
CONTINUOUS
10
182.5
20
-128.235
11
182.506
21
-128.18
0
LINE
8
BLACK
6
CONTINUOUS
10
221.564
20
-212.788
11
221.585
21
-212.84
0
LINE
8
BLACK
6
CONTINUOUS
10
261.643
20
-130.935
11
264.074
21
-144.721
0
LINE
8
BLACK
6
CONTINUOUS
10
149.544
20
-204.171
11
148.576
21
-204.001
0
LINE
8
BLACK
6
CONTINUOUS
10
325.558
20
-195.211
11
325.558
21
-181.212
0
LINE
8
BLACK
6
CONTINUOUS
10
179.317
20
-128.097
11
179.321
21
-128.152
0
LINE
8
BLACK
6
CONTINUOUS
10
54.6074
20
-116.431
11
54.6516
21
-116.397
0
LINE
8
BLACK
6
CONTINUOUS
10
192.4
20
-166.727
11
192.41
21
-166.741
0
LINE
8
BLACK
6
CONTINUOUS
10
352.331
20
-114.569
11
352.316
21
-114.516
0
LINE
8
BLACK
6
CONTINUOUS
10
214.315
20
-126.58
11
214.376
21
-126.547
0
LINE
8
BLACK
6
CONTINUOUS
10
40.3881
20
-200.609
11
40.4279
21
-200.648
0
LINE
8
BLACK
6
CONTINUOUS
10
52.0893
20
-115.445
11
52.1008
21
-115.499
0
LINE
8
BLACK
6
CONTINUOUS
10
175.254
20
-196.013
11
174.83
21
-198.418
0
LINE
8
BLACK
6
CONTINUOUS
10
226.087
20
-129.002
11
226.127
21
-128.964
0
LINE
8
BLACK
6
CONTINUOUS
10
224.135
20
-211.034
11
224.093
21
-210.997
0
LINE
8
BLACK
6
CONTINUOUS
10
39.9362
20
-199.289
11
39.9304
21
-199.344
0
LINE
8
BLACK
6
CONTINUOUS
10
41.0728
20
-203.189
11
40.911
21
-203.134
0
LINE
8
BLACK
6
CONTINUOUS
10
225.136
20
-126.223
11
225.08
21
-126.219
0
LINE
8
BLACK
6
CONTINUOUS
10
213.284
20
-166.636
11
213.29
21
-166.62
0
LINE
8
BLACK
6
CONTINUOUS
10
364.897
20
-199.924
11
364.911
21
-199.871
0
LINE
8
BLACK
6
CONTINUOUS
10
39.9266
20
-199.566
11
39.9304
21
-199.622
0
LINE
8
BLACK
6
CONTINUOUS
10
224.655
20
-212.107
11
224.65
21
-212.052
0
LINE
8
BLACK
6
CONTINUOUS
10
183.649
20
-210.837
11
183.601
21
-210.81
0
LINE
8
BLACK
6
CONTINUOUS
10
182.511
20
-127.902
11
182.506
21
-127.847
0
LINE
8
BLACK
6
CONTINUOUS
10
363.703
20
-197.923
11
363.648
21
-197.912
0
LINE
8
BLACK
6
CONTINUOUS
10
364.656
20
-198.55
11
364.623
21
-198.505
0
LINE
8
BLACK
6
CONTINUOUS
10
349.37
20
-181.212
11
335.371
21
-181.212
0
LINE
8
BLACK
6
CONTINUOUS
10
245.313
20
-148.029
11
259.1
21
-145.598
0
LINE
8
BLACK
6
CONTINUOUS
10
179.401
20
-127.495
11
179.384
21
-127.548
0
LINE
8
BLACK
6
CONTINUOUS
10
335.371
20
-195.211
11
349.37
21
-195.211
0
LINE
8
BLACK
6
CONTINUOUS
10
225.191
20
-126.228
11
225.136
21
-126.223
0
LINE
8
BLACK
6
CONTINUOUS
10
182.362
20
-213.745
11
182.416
21
-213.761
0
LINE
8
BLACK
6
CONTINUOUS
10
181.56
20
-213.176
11
181.594
21
-213.22
0
LINE
8
BLACK
6
CONTINUOUS
10
182.108
20
-126.948
11
182.071
21
-126.907
0
LINE
8
BLACK
6
CONTINUOUS
10
353.318
20
-112.537
11
353.445
21
-112.655
0
LINE
8
BLACK
6
CONTINUOUS
10
226.451
20
-127.12
11
226.426
21
-127.07
0
LINE
8
BLACK
6
CONTINUOUS
10
52.1577
20
-111.938
11
52.3093
21
-111.855
0
LINE
8
BLACK
6
CONTINUOUS
10
125.689
20
-142.073
11
139.475
21
-144.504
0
LINE
8
BLACK
6
CONTINUOUS
10
364.588
20
-198.462
11
364.552
21
-198.42
0
LINE
8
BLACK
6
CONTINUOUS
10
55.0482
20
-114.345
11
55.0197
21
-114.298
0
LINE
8
BLACK
6
CONTINUOUS
10
52.5637
20
-116.306
11
52.6048
21
-116.344
0
LINE
8
BLACK
6
CONTINUOUS
10
51.0659
20
-112.78
11
51.1891
21
-112.659
0
LINE
8
BLACK
6
CONTINUOUS
10
143.867
20
-203.178
11
142.798
21
-202.982
0
LINE
8
BLACK
6
CONTINUOUS
10
351.488
20
-116.388
11
351.537
21
-116.363
0
LINE
8
BLACK
6
CONTINUOUS
10
192.275
20
-127.902
11
192.288
21
-127.971
0
LINE
8
BLACK
6
CONTINUOUS
10
109.334
20
-163.699
11
95.3354
21
-163.699
0
LINE
8
BLACK
6
CONTINUOUS
10
148.262
20
-151.183
11
145.831
21
-164.969
0
LINE
8
BLACK
6
CONTINUOUS
10
181.243
20
-212.301
11
181.247
21
-212.357
0
LINE
8
BLACK
6
CONTINUOUS
10
362.262
20
-198.32
11
362.222
21
-198.359
0
LINE
8
BLACK
6
CONTINUOUS
10
318.414
20
-162.162
11
304.415
21
-162.162
0
LINE
8
BLACK
6
CONTINUOUS
10
365.094
20
-202.57
11
364.947
21
-202.665
0
LINE
8
BLACK
6
CONTINUOUS
10
221.607
20
-212.891
11
221.631
21
-212.941
0
LINE
8
BLACK
6
CONTINUOUS
10
344.608
20
-162.162
11
330.609
21
-162.162
0
LINE
8
BLACK
6
CONTINUOUS
10
361.764
20
-199.347
11
361.76
21
-199.402
0
LINE
8
BLACK
6
CONTINUOUS
10
224.624
20
-211.887
11
224.612
21
-211.833
0
LINE
8
BLACK
6
CONTINUOUS
10
349.853
20
-113.649
11
349.808
21
-113.682
0
LINE
8
BLACK
6
CONTINUOUS
10
226.61
20
-127.873
11
226.611
21
-127.818
0
LINE
8
BLACK
6
CONTINUOUS
10
213.552
20
-127.373
11
213.585
21
-127.312
0
LINE
8
BLACK
6
CONTINUOUS
10
363.096
20
-201.064
11
363.151
21
-201.072
0
LINE
8
BLACK
6
CONTINUOUS
10
259.663
20
-203.39
11
258.695
21
-203.561
0
LINE
8
BLACK
6
CONTINUOUS
10
223.239
20
-213.808
11
223.294
21
-213.801
0
LINE
8
BLACK
6
CONTINUOUS
10
363.863
20
-201.004
11
363.916
21
-200.985
0
LINE
8
BLACK
6
CONTINUOUS
10
362.434
20
-200.791
11
362.479
21
-200.823
0
LINE
8
BLACK
6
CONTINUOUS
10
362.987
20
-201.042
11
363.041
21
-201.054
0
LINE
8
BLACK
6
CONTINUOUS
10
165.69
20
-187.814
11
168.121
21
-174.028
0
LINE
8
BLACK
6
CONTINUOUS
10
181.862
20
-126.724
11
181.817
21
-126.692
0
LINE
8
BLACK
6
CONTINUOUS
10
54.9247
20
-116.122
11
54.9579
21
-116.077
0
LINE
8
BLACK
6
CONTINUOUS
10
191.196
20
-126.521
11
191.258
21
-126.552
0
LINE
8
BLACK
6
CONTINUOUS
10
351.812
20
-116.175
11
351.854
21
-116.138
0
LINE
8
BLACK
6
CONTINUOUS
10
362.933
20
-201.028
11
362.987
21
-201.042
0
LINE
8
BLACK
6
CONTINUOUS
10
95.3354
20
-177.698
11
109.334
21
-177.698
0
LINE
8
BLACK
6
CONTINUOUS
10
256.398
20
-199.326
11
257.215
21
-203.955
0
LINE
8
BLACK
6
CONTINUOUS
10
365.376
20
-202.365
11
365.237
21
-202.47
0
LINE
8
BLACK
6
CONTINUOUS
10
54.8899
20
-116.165
11
54.9247
21
-116.122
0
LINE
8
BLACK
6
CONTINUOUS
10
181.15
20
-126.431
11
181.095
21
-126.424
0
LINE
8
BLACK
6
CONTINUOUS
10
41.3167
20
-201.069
11
41.3719
21
-201.076
0
LINE
8
BLACK
6
CONTINUOUS
10
234.204
20
-202.312
11
232.656
21
-201.938
0
LINE
8
BLACK
6
CONTINUOUS
10
349.994
20
-113.56
11
349.946
21
-113.588
0
LINE
8
BLACK
6
CONTINUOUS
10
361.76
20
-199.569
11
361.764
21
-199.624
0
LINE
8
BLACK
6
CONTINUOUS
10
181.327
20
-211.7
11
181.31
21
-211.753
0
LINE
8
BLACK
6
CONTINUOUS
10
147.55
20
-205.546
11
144.301
21
-204.973
0
LINE
8
BLACK
6
CONTINUOUS
10
363.757
20
-197.936
11
363.703
21
-197.923
0
LINE
8
BLACK
6
CONTINUOUS
10
52.072
20
-114.947
11
52.0663
21
-115.003
0
LINE
8
BLACK
6
CONTINUOUS
10
352.137
20
-115.798
11
352.166
21
-115.75
0
LINE
8
BLACK
6
CONTINUOUS
10
224.48
20
-126.309
11
224.427
21
-126.328
0
LINE
8
BLACK
6
CONTINUOUS
10
264.074
20
-144.721
11
277.86
21
-142.29
0
LINE
8
BLACK
6
CONTINUOUS
10
213.464
20
-127.563
11
213.491
21
-127.499
0
LINE
8
BLACK
6
CONTINUOUS
10
224.563
20
-211.674
11
224.544
21
-211.622
0
LINE
8
BLACK
6
CONTINUOUS
10
213.585
20
-127.312
11
213.621
21
-127.252
0
LINE
8
BLACK
6
CONTINUOUS
10
54.0047
20
-113.579
11
53.9502
21
-113.568
0
LINE
8
BLACK
6
CONTINUOUS
10
213.378
20
-127.828
11
213.396
21
-127.76
0
LINE
8
BLACK
6
CONTINUOUS
10
221.685
20
-211.398
11
221.657
21
-211.446
0
LINE
8
BLACK
6
CONTINUOUS
10
39.9304
20
-199.622
11
39.9362
21
-199.677
0
LINE
8
BLACK
6
CONTINUOUS
10
181.243
20
-212.135
11
181.241
21
-212.19
0
LINE
8
BLACK
6
CONTINUOUS
10
179.327
20
-127.819
11
179.321
21
-127.875
0
LINE
8
BLACK
6
CONTINUOUS
10
224.969
20
-126.218
11
224.914
21
-126.221
0
LINE
8
BLACK
6
CONTINUOUS
10
226.048
20
-175.899
11
228.478
21
-189.685
0
LINE
8
BLACK
6
CONTINUOUS
10
212.853
20
-166.952
11
212.87
21
-166.95
0
LINE
8
BLACK
6
CONTINUOUS
10
224.227
20
-126.423
11
224.179
21
-126.451
0
LINE
8
BLACK
6
CONTINUOUS
10
241.108
20
-202.022
11
241.902
21
-206.522
0
LINE
8
BLACK
6
CONTINUOUS
10
213.078
20
-166.88
11
213.093
21
-166.871
0
LINE
8
BLACK
6
CONTINUOUS
10
53.7851
20
-113.546
11
53.7296
21
-113.543
0
LINE
8
BLACK
6
CONTINUOUS
10
182.515
20
-128.013
11
182.514
21
-127.958
0
LINE
8
BLACK
6
CONTINUOUS
10
53.3976
20
-113.563
11
53.343
21
-113.573
0
LINE
8
BLACK
6
CONTINUOUS
10
181.346
20
-211.648
11
181.327
21
-211.7
0
LINE
8
BLACK
6
CONTINUOUS
10
253.311
20
-165.962
11
267.098
21
-163.532
0
LINE
8
BLACK
6
CONTINUOUS
10
344.657
20
-157.111
11
346.989
21
-157.111
0
LINE
8
BLACK
6
CONTINUOUS
10
52.4856
20
-116.228
11
52.524
21
-116.268
0
LINE
8
BLACK
6
CONTINUOUS
10
133.143
20
-182.076
11
146.93
21
-184.506
0
LINE
8
BLACK
6
CONTINUOUS
10
232.12
20
-155.484
11
234.551
21
-169.27
0
LINE
8
BLACK
6
CONTINUOUS
10
212.953
20
-166.934
11
212.97
21
-166.929
0
LINE
8
BLACK
6
CONTINUOUS
10
181.991
20
-129.197
11
182.031
21
-129.159
0
LINE
8
BLACK
6
CONTINUOUS
10
349.37
20
-195.211
11
349.37
21
-181.212
0
LINE
8
BLACK
6
CONTINUOUS
10
40.8897
20
-198.014
11
40.8391
21
-198.037
0
LINE
8
BLACK
6
CONTINUOUS
10
352.475
20
-111.929
11
352.624
21
-112.018
0
LINE
8
BLACK
6
CONTINUOUS
10
361.778
20
-199.237
11
361.77
21
-199.292
0
LINE
8
BLACK
6
CONTINUOUS
10
49.7244
20
-115.348
11
49.7596
21
-115.179
0
LINE
8
BLACK
6
CONTINUOUS
10
40.0295
20
-200.053
11
40.0502
21
-200.105
0
LINE
8
BLACK
6
CONTINUOUS
10
224.643
20
-211.997
11
224.635
21
-211.942
0
LINE
8
BLACK
6
CONTINUOUS
10
182.419
20
-128.558
11
182.437
21
-128.505
0
LINE
8
BLACK
6
CONTINUOUS
10
224.803
20
-126.231
11
224.748
21
-126.239
0
LINE
8
BLACK
6
CONTINUOUS
10
179.513
20
-128.785
11
179.541
21
-128.833
0
LINE
8
BLACK
6
CONTINUOUS
10
362.147
20
-198.441
11
362.111
21
-198.483
0
LINE
8
BLACK
6
CONTINUOUS
10
39.9783
20
-199.895
11
39.9936
21
-199.948
0
LINE
8
BLACK
6
CONTINUOUS
10
299.336
20
-203.501
11
235.196
21
-214.789
0
LINE
8
BLACK
6
CONTINUOUS
10
40.7894
20
-200.904
11
40.8391
21
-200.929
0
LINE
8
BLACK
6
CONTINUOUS
10
181.281
20
-212.576
11
181.295
21
-212.63
0
LINE
8
BLACK
6
CONTINUOUS
10
54.1187
20
-111.307
11
54.291
21
-111.292
0
LINE
8
BLACK
6
CONTINUOUS
10
184.2
20
-211.374
11
184.17
21
-211.328
0
LINE
8
BLACK
6
CONTINUOUS
10
351.537
20
-116.363
11
351.586
21
-116.335
0
LINE
8
BLACK
6
CONTINUOUS
10
181.629
20
-211.173
11
181.594
21
-211.216
0
LINE
8
BLACK
6
CONTINUOUS
10
181.527
20
-211.305
11
181.496
21
-211.351
0
LINE
8
BLACK
6
CONTINUOUS
10
182.009
20
-213.585
11
182.057
21
-213.613
0
LINE
8
BLACK
6
CONTINUOUS
10
350.57
20
-116.541
11
350.625
21
-116.547
0
LINE
8
BLACK
6
CONTINUOUS
10
224.612
20
-211.833
11
224.598
21
-211.779
0
LINE
8
BLACK
6
CONTINUOUS
10
222.475
20
-210.728
11
222.424
21
-210.749
0
LINE
8
BLACK
6
CONTINUOUS
10
247.239
20
-186.377
11
261.025
21
-183.946
0
LINE
8
BLACK
6
CONTINUOUS
10
81.6296
20
-179.167
11
84.9296
21
-179.167
0
LINE
8
BLACK
6
CONTINUOUS
10
223.48
20
-128.283
11
223.497
21
-128.336
0
LINE
8
BLACK
6
CONTINUOUS
10
192.367
20
-166.668
11
192.374
21
-166.683
0
LINE
8
BLACK
6
CONTINUOUS
10
224.418
20
-213.062
11
224.447
21
-213.014
0
LINE
8
BLACK
6
CONTINUOUS
10
181.906
20
-129.269
11
181.949
21
-129.234
0
LINE
8
BLACK
6
CONTINUOUS
10
184.363
20
-211.726
11
184.345
21
-211.674
0
LINE
8
BLACK
6
CONTINUOUS
10
143.75
20
-197.583
11
142.424
21
-196.702
0
LINE
8
BLACK
6
CONTINUOUS
10
298.865
20
-111.344
11
299.009
21
-111.32
0
LINE
8
BLACK
6
CONTINUOUS
10
352.354
20
-114.678
11
352.343
21
-114.624
0
LINE
8
BLACK
6
CONTINUOUS
10
221.962
20
-213.383
11
222.003
21
-213.421
0
LINE
8
BLACK
6
CONTINUOUS
10
213.362
20
-127.896
11
213.378
21
-127.828
0
LINE
8
BLACK
6
CONTINUOUS
10
181.705
20
-211.092
11
181.666
21
-211.132
0
LINE
8
BLACK
6
CONTINUOUS
10
85.8099
20
-139.598
11
99.8089
21
-139.598
0
LINE
8
BLACK
6
CONTINUOUS
10
221.528
20
-212.683
11
221.545
21
-212.736
0
LINE
8
BLACK
6
CONTINUOUS
10
42.5158
20
-200.739
11
42.5588
21
-200.704
0
LINE
8
BLACK
6
CONTINUOUS
10
364.798
20
-202.755
11
364.645
21
-202.84
0
LINE
8
BLACK
6
CONTINUOUS
10
352.377
20
-115.01
11
352.378
21
-114.954
0
LINE
8
BLACK
6
CONTINUOUS
10
39.9936
20
-199.018
11
39.9783
21
-199.071
0
LINE
8
BLACK
6
CONTINUOUS
10
354.303
20
-113.74
11
354.388
21
-113.891
0
LINE
8
BLACK
6
CONTINUOUS
10
351.633
20
-113.602
11
351.586
21
-113.573
0
LINE
8
BLACK
6
CONTINUOUS
10
190.937
20
-126.416
11
191.003
21
-126.439
0
LINE
8
BLACK
6
CONTINUOUS
10
50.091
20
-114.198
11
50.1657
21
-114.042
0
LINE
8
BLACK
6
CONTINUOUS
10
221.884
20
-211.132
11
221.847
21
-211.173
0
LINE
8
BLACK
6
CONTINUOUS
10
349.566
20
-115.999
11
349.603
21
-116.041
0
LINE
8
BLACK
6
CONTINUOUS
10
39.9266
20
-199.4
11
39.9246
21
-199.455
0
LINE
8
BLACK
6
CONTINUOUS
10
318.414
20
-124.062
11
304.415
21
-124.062
0
LINE
8
BLACK
6
CONTINUOUS
10
40.4279
20
-198.318
11
40.3881
21
-198.357
0
LINE
8
BLACK
6
CONTINUOUS
10
39.4297
20
-202.301
11
39.2991
21
-202.191
0
LINE
8
BLACK
6
CONTINUOUS
10
351.894
20
-116.1
11
351.933
21
-116.061
0
LINE
8
BLACK
6
CONTINUOUS
10
55.2516
20
-115.308
11
55.2564
21
-115.252
0
LINE
8
BLACK
6
CONTINUOUS
10
351.013
20
-116.537
11
351.068
21
-116.528
0
LINE
8
BLACK
6
CONTINUOUS
10
318.414
20
-176.161
11
318.414
21
-162.162
0
LINE
8
BLACK
6
CONTINUOUS
10
54.4682
20
-116.522
11
54.5157
21
-116.493
0
LINE
8
BLACK
6
CONTINUOUS
10
352.166
20
-114.158
11
352.137
21
-114.111
0
LINE
8
BLACK
6
CONTINUOUS
10
170.664
20
-188.692
11
184.451
21
-191.122
0
LINE
8
BLACK
6
CONTINUOUS
10
349.189
20
-115.148
11
349.197
21
-115.203
0
LINE
8
BLACK
6
CONTINUOUS
10
55.1234
20
-114.494
11
55.1001
21
-114.443
0
LINE
8
BLACK
6
CONTINUOUS
10
223.413
20
-127.901
11
223.417
21
-127.956
0
LINE
8
BLACK
6
CONTINUOUS
10
350.352
20
-113.412
11
350.299
21
-113.428
0
LINE
8
BLACK
6
CONTINUOUS
10
183.551
20
-210.784
11
183.501
21
-210.761
0
LINE
8
BLACK
6
CONTINUOUS
10
179.601
20
-127.1
11
179.57
21
-127.146
0
LINE
8
BLACK
6
CONTINUOUS
10
179.668
20
-127.011
11
179.634
21
-127.055
0
LINE
8
BLACK
6
CONTINUOUS
10
184.326
20
-212.814
11
184.345
21
-212.762
0
LINE
8
BLACK
6
CONTINUOUS
10
39.9783
20
-199.071
11
39.965
21
-199.125
0
LINE
8
BLACK
6
CONTINUOUS
10
364.118
20
-198.077
11
364.068
21
-198.052
0
LINE
8
BLACK
6
CONTINUOUS
10
53.7296
20
-113.543
11
53.6741
21
-113.541
0
LINE
8
BLACK
6
CONTINUOUS
10
181.674
20
-129.422
11
181.723
21
-129.394
0
LINE
8
BLACK
6
CONTINUOUS
10
240.498
20
-208.496
11
237.248
21
-209.069
0
LINE
8
BLACK
6
CONTINUOUS
10
52.413
20
-116.143
11
52.4486
21
-116.186
0
LINE
8
BLACK
6
CONTINUOUS
10
184.17
20
-211.328
11
184.139
21
-211.282
0
LINE
8
BLACK
6
CONTINUOUS
10
42.7178
20
-198.417
11
42.6801
21
-198.376
0
LINE
8
BLACK
6
CONTINUOUS
10
351.633
20
-116.307
11
351.68
21
-116.276
0
LINE
8
BLACK
6
CONTINUOUS
10
192.146
20
-127.505
11
192.173
21
-127.569
0
LINE
8
BLACK
6
CONTINUOUS
10
366.628
20
-200.925
11
366.538
21
-201.075
0
LINE
8
BLACK
6
CONTINUOUS
10
225.866
20
-126.466
11
225.819
21
-126.437
0
LINE
8
BLACK
6
CONTINUOUS
10
191.895
20
-127.087
11
191.937
21
-127.143
0
LINE
8
BLACK
6
CONTINUOUS
10
181.15
20
-129.596
11
181.205
21
-129.587
0
LINE
8
BLACK
6
CONTINUOUS
10
353.802
20
-113.033
11
353.912
21
-113.168
0
LINE
8
BLACK
6
CONTINUOUS
10
224.252
20
-213.284
11
224.288
21
-213.242
0
LINE
8
BLACK
6
CONTINUOUS
10
40.2107
20
-200.396
11
40.2432
21
-200.441
0
LINE
8
BLACK
6
CONTINUOUS
10
224.658
20
-212.274
11
224.659
21
-212.218
0
LINE
8
BLACK
6
CONTINUOUS
10
363.317
20
-197.886
11
363.261
21
-197.888
0
LINE
8
BLACK
6
CONTINUOUS
10
182.213
20
-127.077
11
182.179
21
-127.033
0
LINE
8
BLACK
6
CONTINUOUS
10
223.413
20
-127.735
11
223.411
21
-127.79
0
LINE
8
BLACK
6
CONTINUOUS
10
349.722
20
-116.157
11
349.765
21
-116.193
0
LINE
8
BLACK
6
CONTINUOUS
10
222.58
20
-210.691
11
222.528
21
-210.709
0
LINE
8
BLACK
6
CONTINUOUS
10
352.218
20
-115.652
11
352.241
21
-115.602
0
LINE
8
BLACK
6
CONTINUOUS
10
50.1657
20
-114.042
11
50.2458
21
-113.888
0
LINE
8
BLACK
6
CONTINUOUS
10
43.0898
20
-199.152
11
43.0774
21
-199.098
0
LINE
8
BLACK
6
CONTINUOUS
10
43.0774
20
-199.868
11
43.0898
21
-199.814
0
LINE
8
BLACK
6
CONTINUOUS
10
42.641
20
-200.629
11
42.6801
21
-200.59
0
LINE
8
BLACK
6
CONTINUOUS
10
263.939
20
-204.363
11
260.689
21
-204.936
0
LINE
8
BLACK
6
CONTINUOUS
10
214.256
20
-126.616
11
214.315
21
-126.58
0
LINE
8
BLACK
6
CONTINUOUS
10
53.4525
20
-113.555
11
53.3976
21
-113.563
0
LINE
8
BLACK
6
CONTINUOUS
10
40.5114
20
-200.721
11
40.555
21
-200.756
0
LINE
8
BLACK
6
CONTINUOUS
10
40.9932
20
-197.974
11
40.9411
21
-197.993
0
LINE
8
BLACK
6
CONTINUOUS
10
225.568
20
-129.318
11
225.62
21
-129.297
0
LINE
8
BLACK
6
CONTINUOUS
10
192.353
20
-166.636
11
192.36
21
-166.652
0
LINE
8
BLACK
6
CONTINUOUS
10
226.451
20
-128.516
11
226.474
21
-128.465
0
LINE
8
BLACK
6
CONTINUOUS
10
42.284
20
-198.075
11
42.2347
21
-198.049
0
LINE
8
BLACK
6
CONTINUOUS
10
354.611
20
-114.362
11
354.674
21
-114.523
0
LINE
8
BLACK
6
CONTINUOUS
10
53.6065
20
-111.387
11
53.7763
21
-111.354
0
LINE
8
BLACK
6
CONTINUOUS
10
224.586
20
-129.36
11
224.639
21
-129.374
0
LINE
8
BLACK
6
CONTINUOUS
10
221.564
20
-211.648
11
221.545
21
-211.7
0
LINE
8
BLACK
6
CONTINUOUS
10
54.9579
20
-116.077
11
54.9896
21
-116.032
0
LINE
8
BLACK
6
CONTINUOUS
10
192.818
20
-166.953
11
212.818
21
-166.953
0
LINE
8
BLACK
6
CONTINUOUS
10
364.924
20
-199.816
11
364.934
21
-199.762
0
LINE
8
BLACK
6
CONTINUOUS
10
182.071
20
-126.907
11
182.031
21
-126.867
0
LINE
8
BLACK
6
CONTINUOUS
10
53.5631
20
-113.544
11
53.5077
21
-113.548
0
LINE
8
BLACK
6
CONTINUOUS
10
52.0893
20
-114.838
11
52.0797
21
-114.892
0
LINE
8
BLACK
6
CONTINUOUS
10
292.388
20
-183.545
11
278.602
21
-185.976
0
LINE
8
BLACK
6
CONTINUOUS
10
192.317
20
-128.248
11
192.318
21
-128.318
0
LINE
8
BLACK
6
CONTINUOUS
10
168.508
20
-194.823
11
175.254
21
-196.013
0
LINE
8
BLACK
6
CONTINUOUS
10
362.389
20
-198.213
11
362.345
21
-198.247
0
LINE
8
BLACK
6
CONTINUOUS
10
351.894
20
-113.808
11
351.854
21
-113.77
0
LINE
8
BLACK
6
CONTINUOUS
10
225.721
20
-126.384
11
225.671
21
-126.36
0
LINE
8
BLACK
6
CONTINUOUS
10
179.344
20
-128.317
11
179.355
21
-128.371
0
LINE
8
BLACK
6
CONTINUOUS
10
164.812
20
-206.997
11
151.024
21
-204.565
0
LINE
8
BLACK
6
CONTINUOUS
10
181.31
20
-211.753
11
181.295
21
-211.806
0
LINE
8
BLACK
6
CONTINUOUS
10
38.8165
20
-201.708
11
38.7065
21
-201.578
0
LINE
8
BLACK
6
CONTINUOUS
10
350.681
20
-113.357
11
350.625
21
-113.362
0
LINE
8
BLACK
6
CONTINUOUS
10
349.247
20
-115.42
11
349.264
21
-115.473
0
LINE
8
BLACK
6
CONTINUOUS
10
52.2085
20
-114.468
11
52.186
21
-114.519
0
LINE
8
BLACK
6
CONTINUOUS
10
214.83
20
-126.371
11
214.898
21
-126.355
0
LINE
8
BLACK
6
CONTINUOUS
10
43.0631
20
-199.922
11
43.0774
21
-199.868
0
LINE
8
BLACK
6
CONTINUOUS
10
37.6321
20
-199.102
11
37.6118
21
-198.932
0
LINE
8
BLACK
6
CONTINUOUS
10
224.041
20
-129.091
11
224.086
21
-129.124
0
LINE
8
BLACK
6
CONTINUOUS
10
180.23
20
-126.568
11
180.18
21
-126.592
0
LINE
8
BLACK
6
CONTINUOUS
10
235.156
20
-207.712
11
234.204
21
-202.312
0
LINE
8
BLACK
6
CONTINUOUS
10
256.524
20
-191.252
11
263.27
21
-190.062
0
LINE
8
BLACK
6
CONTINUOUS
10
180.384
20
-129.523
11
180.436
21
-129.54
0
LINE
8
BLACK
6
CONTINUOUS
10
192.259
20
-127.834
11
192.275
21
-127.902
0
LINE
8
BLACK
6
CONTINUOUS
10
248.337
20
-166.84
11
245.906
21
-153.053
0
LINE
8
BLACK
6
CONTINUOUS
10
299.154
20
-111.301
11
299.299
21
-111.286
0
LINE
8
BLACK
6
CONTINUOUS
10
221.499
20
-212.576
11
221.513
21
-212.63
0
LINE
8
BLACK
6
CONTINUOUS
10
42.4263
20
-200.805
11
42.4716
21
-200.772
0
LINE
8
BLACK
6
CONTINUOUS
10
224.522
20
-212.866
11
224.544
21
-212.814
0
LINE
8
BLACK
6
CONTINUOUS
10
362.526
20
-200.852
11
362.574
21
-200.88
0
LINE
8
BLACK
6
CONTINUOUS
10
361.764
20
-199.624
11
361.77
21
-199.679
0
LINE
8
BLACK
6
CONTINUOUS
10
226.564
20
-127.433
11
226.55
21
-127.379
0
LINE
8
BLACK
6
CONTINUOUS
10
362.345
20
-198.247
11
362.303
21
-198.283
0
LINE
8
BLACK
6
CONTINUOUS
10
181.295
20
-212.63
11
181.31
21
-212.683
0
LINE
8
BLACK
6
CONTINUOUS
10
40.3881
20
-198.357
11
40.3497
21
-198.397
0
LINE
8
BLACK
6
CONTINUOUS
10
52.7356
20
-116.447
11
52.7815
21
-116.478
0
LINE
8
BLACK
6
CONTINUOUS
10
42.2347
20
-200.917
11
42.284
21
-200.891
0
LINE
8
BLACK
6
CONTINUOUS
10
364.954
20
-199.597
11
364.957
21
-199.541
0
LINE
8
BLACK
6
CONTINUOUS
10
222.003
20
-211.016
11
221.962
21
-211.053
0
LINE
8
BLACK
6
CONTINUOUS
10
235.196
20
-214.789
11
229.918
21
-215.718
0
LINE
8
BLACK
6
CONTINUOUS
10
361.758
20
-199.458
11
361.758
21
-199.513
0
LINE
8
BLACK
6
CONTINUOUS
10
192.75
20
-166.948
11
192.767
21
-166.95
0
LINE
8
BLACK
6
CONTINUOUS
10
182.578
20
-213.796
11
182.633
21
-213.805
0
LINE
8
BLACK
6
CONTINUOUS
10
213.121
20
-166.851
11
213.134
21
-166.841
0
LINE
8
BLACK
6
CONTINUOUS
10
192.299
20
-128.04
11
192.307
21
-128.109
0
LINE
8
BLACK
6
CONTINUOUS
10
225.136
20
-129.413
11
225.191
21
-129.408
0
LINE
8
BLACK
6
CONTINUOUS
10
352.042
20
-113.974
11
352.007
21
-113.931
0
LINE
8
BLACK
6
CONTINUOUS
10
226.576
20
-127.487
11
226.564
21
-127.433
0
LINE
8
BLACK
6
CONTINUOUS
10
52.6472
20
-113.903
11
52.6048
21
-113.939
0
LINE
8
BLACK
6
CONTINUOUS
10
224.006
20
-210.929
11
223.961
21
-210.897
0
LINE
8
BLACK
6
CONTINUOUS
10
40.9411
20
-197.993
11
40.8897
21
-198.014
0
LINE
8
BLACK
6
CONTINUOUS
10
223.616
20
-213.718
11
223.668
21
-213.698
0
LINE
8
BLACK
6
CONTINUOUS
10
179.334
20
-128.262
11
179.344
21
-128.317
0
LINE
8
BLACK
6
CONTINUOUS
10
183.346
20
-213.736
11
183.398
21
-213.718
0
LINE
8
BLACK
6
CONTINUOUS
10
37.9991
20
-200.414
11
37.9338
21
-200.256
0
LINE
8
BLACK
6
CONTINUOUS
10
54.6516
20
-113.885
11
54.6074
21
-113.852
0
LINE
8
BLACK
6
CONTINUOUS
10
223.184
20
-210.623
11
223.128
21
-210.62
0
LINE
8
BLACK
6
CONTINUOUS
10
353.568
20
-112.777
11
353.687
21
-112.903
0
LINE
8
BLACK
6
CONTINUOUS
10
179.99
20
-126.708
11
179.945
21
-126.74
0
LINE
8
BLACK
6
CONTINUOUS
10
351.689
20
-111.565
11
351.851
21
-111.627
0
LINE
8
BLACK
6
CONTINUOUS
10
224.122
20
-137.551
11
226.553
21
-151.337
0
LINE
8
BLACK
6
CONTINUOUS
10
182.966
20
-210.623
11
182.91
21
-210.62
0
LINE
8
BLACK
6
CONTINUOUS
10
213.416
20
-127.694
11
213.439
21
-127.628
0
LINE
8
BLACK
6
CONTINUOUS
10
182.855
20
-213.818
11
182.91
21
-213.817
0
LINE
8
BLACK
6
CONTINUOUS
10
42.4263
20
-198.161
11
42.3799
21
-198.131
0
LINE
8
BLACK
6
CONTINUOUS
10
223.955
20
-129.02
11
223.998
21
-129.056
0
LINE
8
BLACK
6
CONTINUOUS
10
362.262
20
-200.651
11
362.303
21
-200.688
0
LINE
8
BLACK
6
CONTINUOUS
10
52.2085
20
-115.814
11
52.2327
21
-115.864
0
LINE
8
BLACK
6
CONTINUOUS
10
41.0459
20
-201.01
11
41.0991
21
-201.025
0
LINE
8
BLACK
6
CONTINUOUS
10
263.694
20
-192.468
11
265.243
21
-192.842
0
LINE
8
BLACK
6
CONTINUOUS
10
180.984
20
-126.415
11
180.929
21
-126.413
0
LINE
8
BLACK
6
CONTINUOUS
10
41.4828
20
-201.082
11
41.5383
21
-201.083
0
LINE
8
BLACK
6
CONTINUOUS
10
349.178
20
-114.982
11
349.18
21
-115.038
0
LINE
8
BLACK
6
CONTINUOUS
10
54.8541
20
-177.698
11
57.1864
21
-177.698
0
LINE
8
BLACK
6
CONTINUOUS
10
54.5621
20
-116.463
11
54.6074
21
-116.431
0
LINE
8
BLACK
6
CONTINUOUS
10
192.733
20
-166.946
11
192.75
21
-166.948
0
LINE
8
BLACK
6
CONTINUOUS
10
53.129
20
-113.632
11
53.0769
21
-113.651
0
LINE
8
BLACK
6
CONTINUOUS
10
105.491
20
-111.31
11
105.636
21
-111.329
0
LINE
8
BLACK
6
CONTINUOUS
10
182.362
20
-210.691
11
182.31
21
-210.709
0
LINE
8
BLACK
6
CONTINUOUS
10
362.045
20
-200.399
11
362.077
21
-200.444
0
LINE
8
BLACK
6
CONTINUOUS
10
182.744
20
-210.621
11
182.688
21
-210.625
0
LINE
8
BLACK
6
CONTINUOUS
10
242.265
20
-187.254
11
239.834
21
-173.468
0
LINE
8
BLACK
6
CONTINUOUS
10
167.023
20
-154.491
11
164.592
21
-168.277
0
LINE
8
BLACK
6
CONTINUOUS
10
221.488
20
-212.522
11
221.499
21
-212.576
0
LINE
8
BLACK
6
CONTINUOUS
10
38.0698
20
-200.569
11
37.9991
21
-200.414
0
LINE
8
BLACK
6
CONTINUOUS
10
55.2257
20
-114.81
11
55.2132
21
-114.756
0
LINE
8
BLACK
6
CONTINUOUS
10
141.906
20
-130.718
11
128.12
21
-128.287
0
LINE
8
BLACK
6
CONTINUOUS
10
179.401
20
-128.531
11
179.42
21
-128.584
0
LINE
8
BLACK
6
CONTINUOUS
10
183.398
20
-213.718
11
183.45
21
-213.698
0
LINE
8
BLACK
6
CONTINUOUS
10
179.541
20
-127.193
11
179.513
21
-127.242
0
LINE
8
BLACK
6
CONTINUOUS
10
163.21
20
-148.689
11
176.996
21
-151.12
0
LINE
8
BLACK
6
CONTINUOUS
10
352.316
20
-114.516
11
352.3
21
-114.463
0
LINE
8
BLACK
6
CONTINUOUS
10
54.8159
20
-114.035
11
54.7768
21
-113.995
0
LINE
8
BLACK
6
CONTINUOUS
10
191.977
20
-127.2
11
192.015
21
-127.258
0
LINE
8
BLACK
6
CONTINUOUS
10
304.415
20
-176.161
11
318.414
21
-176.161
0
LINE
8
BLACK
6
CONTINUOUS
10
40.2432
20
-198.525
11
40.2107
21
-198.57
0
LINE
8
BLACK
6
CONTINUOUS
10
179.384
20
-127.548
11
179.369
21
-127.601
0
LINE
8
BLACK
6
CONTINUOUS
10
54.4198
20
-113.733
11
54.3705
21
-113.707
0
LINE
8
BLACK
6
CONTINUOUS
10
344.608
20
-176.161
11
344.608
21
-162.162
0
LINE
8
BLACK
6
CONTINUOUS
10
223.017
20
-210.619
11
222.962
21
-210.621
0
LINE
8
BLACK
6
CONTINUOUS
10
213.52
20
-127.435
11
213.552
21
-127.373
0
LINE
8
BLACK
6
CONTINUOUS
10
184.437
20
-212.107
11
184.432
21
-212.052
0
LINE
8
BLACK
6
CONTINUOUS
10
222.475
20
-213.708
11
222.528
21
-213.727
0
LINE
8
BLACK
6
CONTINUOUS
10
213.317
20
-166.487
11
213.318
21
-166.47
0
LINE
8
BLACK
6
CONTINUOUS
10
104.91
20
-111.276
11
105.055
21
-111.278
0
LINE
8
BLACK
6
CONTINUOUS
10
351.586
20
-113.573
11
351.537
21
-113.546
0
LINE
8
BLACK
6
CONTINUOUS
10
351.68
20
-113.633
11
351.633
21
-113.602
0
LINE
8
BLACK
6
CONTINUOUS
10
226.204
20
-128.884
11
226.24
21
-128.842
0
LINE
8
BLACK
6
CONTINUOUS
10
214.63
20
-126.433
11
214.696
21
-126.41
0
LINE
8
BLACK
6
CONTINUOUS
10
269.641
20
-148.868
11
272.072
21
-162.654
0
LINE
8
BLACK
6
CONTINUOUS
10
184.326
20
-211.622
11
184.304
21
-211.571
0
LINE
8
BLACK
6
CONTINUOUS
10
225.958
20
-129.107
11
226.002
21
-129.074
0
LINE
8
BLACK
6
CONTINUOUS
10
142.424
20
-196.702
11
142.997
21
-193.452
0
LINE
8
BLACK
6
CONTINUOUS
10
167.741
20
-209.106
11
167.306
21
-207.303
0
LINE
8
BLACK
6
CONTINUOUS
10
52.186
20
-115.763
11
52.2085
21
-115.814
0
LINE
8
BLACK
6
CONTINUOUS
10
328.228
20
-124.062
11
328.228
21
-138.061
0
LINE
8
BLACK
6
CONTINUOUS
10
226.045
20
-126.597
11
226.002
21
-126.562
0
LINE
8
BLACK
6
CONTINUOUS
10
221.585
20
-211.596
11
221.564
21
-211.648
0
LINE
8
BLACK
6
CONTINUOUS
10
183.743
20
-210.897
11
183.696
21
-210.866
0
LINE
8
BLACK
6
CONTINUOUS
10
350.335
20
-111.279
11
350.508
21
-111.294
0
LINE
8
BLACK
6
CONTINUOUS
10
39.9246
20
-199.455
11
39.9246
21
-199.511
0
LINE
8
BLACK
6
CONTINUOUS
10
363.916
20
-200.985
11
363.967
21
-200.965
0
LINE
8
BLACK
6
CONTINUOUS
10
296.116
20
-163.544
11
282.329
21
-165.975
0
LINE
8
BLACK
6
CONTINUOUS
10
42.284
20
-200.891
11
42.3324
21
-200.864
0
LINE
8
BLACK
6
CONTINUOUS
10
41.6493
20
-197.888
11
41.5938
21
-197.884
0
LINE
8
BLACK
6
CONTINUOUS
10
52.2327
20
-114.419
11
52.2085
21
-114.468
0
LINE
8
BLACK
6
CONTINUOUS
10
226.204
20
-126.752
11
226.166
21
-126.711
0
LINE
8
BLACK
6
CONTINUOUS
10
223.867
20
-213.599
11
223.914
21
-213.57
0
LINE
8
BLACK
6
CONTINUOUS
10
181.77
20
-126.661
11
181.723
21
-126.632
0
LINE
8
BLACK
6
CONTINUOUS
10
361.77
20
-199.679
11
361.778
21
-199.734
0
LINE
8
BLACK
6
CONTINUOUS
10
224.388
20
-211.328
11
224.356
21
-211.282
0
LINE
8
BLACK
6
CONTINUOUS
10
223.955
20
-126.615
11
223.914
21
-126.653
0
LINE
8
BLACK
6
CONTINUOUS
10
224.532
20
-126.291
11
224.48
21
-126.309
0
LINE
8
BLACK
6
CONTINUOUS
10
221.714
20
-211.351
11
221.685
21
-211.398
0
LINE
8
BLACK
6
CONTINUOUS
10
223.769
20
-210.784
11
223.719
21
-210.761
0
LINE
8
BLACK
6
CONTINUOUS
10
54.1652
20
-113.623
11
54.1122
21
-113.606
0
LINE
8
BLACK
6
CONTINUOUS
10
351.971
20
-116.02
11
352.007
21
-115.978
0
LINE
8
BLACK
6
CONTINUOUS
10
349.946
20
-116.321
11
349.994
21
-116.349
0
LINE
8
BLACK
6
CONTINUOUS
10
54.6516
20
-116.397
11
54.6946
21
-116.362
0
LINE
8
BLACK
6
CONTINUOUS
10
183.076
20
-213.801
11
183.131
21
-213.792
0
LINE
8
BLACK
6
CONTINUOUS
10
224.586
20
-126.275
11
224.532
21
-126.291
0
LINE
8
BLACK
6
CONTINUOUS
10
223.417
20
-127.956
11
223.423
21
-128.012
0
LINE
8
BLACK
6
CONTINUOUS
10
181.259
20
-126.451
11
181.205
21
-126.44
0
LINE
8
BLACK
6
CONTINUOUS
10
366.343
20
-201.364
11
366.238
21
-201.503
0
LINE
8
BLACK
6
CONTINUOUS
10
223.583
20
-127.095
11
223.559
21
-127.145
0
LINE
8
BLACK
6
CONTINUOUS
10
75.9969
20
-125.599
11
61.9979
21
-125.599
0
LINE
8
BLACK
6
CONTINUOUS
10
351.725
20
-116.244
11
351.769
21
-116.21
0
LINE
8
BLACK
6
CONTINUOUS
10
226.595
20
-128.039
11
226.602
21
-127.984
0
LINE
8
BLACK
6
CONTINUOUS
10
191.132
20
-126.491
11
191.196
21
-126.521
0
LINE
8
BLACK
6
CONTINUOUS
10
350.092
20
-116.4
11
350.143
21
-116.423
0
LINE
8
BLACK
6
CONTINUOUS
10
40.2849
20
-202.862
11
40.1347
21
-202.781
0
LINE
8
BLACK
6
CONTINUOUS
10
363.703
20
-201.048
11
363.757
21
-201.035
0
LINE
8
BLACK
6
CONTINUOUS
10
221.778
20
-213.176
11
221.812
21
-213.22
0
LINE
8
BLACK
6
CONTINUOUS
10
54.7363
20
-116.325
11
54.7768
21
-116.287
0
LINE
8
BLACK
6
CONTINUOUS
10
351.068
20
-113.381
11
351.013
21
-113.372
0
LINE
8
BLACK
6
CONTINUOUS
10
182.855
20
-210.618
11
182.799
21
-210.619
0
LINE
8
BLACK
6
CONTINUOUS
10
226.602
20
-127.651
11
226.595
21
-127.596
0
LINE
8
BLACK
6
CONTINUOUS
10
51.1891
20
-112.659
11
51.3163
21
-112.541
0
LINE
8
BLACK
6
CONTINUOUS
10
224.639
20
-129.374
11
224.694
21
-129.386
0
LINE
8
BLACK
6
CONTINUOUS
10
226.426
20
-128.565
11
226.451
21
-128.516
0
LINE
8
BLACK
6
CONTINUOUS
10
192.588
20
-166.897
11
192.604
21
-166.904
0
LINE
8
BLACK
6
CONTINUOUS
10
350.736
20
-116.554
11
350.792
21
-116.554
0
LINE
8
BLACK
6
CONTINUOUS
10
179.57
20
-128.88
11
179.601
21
-128.927
0
LINE
8
BLACK
6
CONTINUOUS
10
222.18
20
-210.881
11
222.134
21
-210.912
0
LINE
8
BLACK
6
CONTINUOUS
10
184.256
20
-211.471
11
184.229
21
-211.422
0
LINE
8
BLACK
6
CONTINUOUS
10
192.241
20
-127.767
11
192.259
21
-127.834
0
LINE
8
BLACK
6
CONTINUOUS
10
364.718
20
-200.329
11
364.746
21
-200.282
0
LINE
8
BLACK
6
CONTINUOUS
10
224.914
20
-126.221
11
224.858
21
-126.225
0
LINE
8
BLACK
6
CONTINUOUS
10
184.071
20
-211.194
11
184.034
21
-211.152
0
LINE
8
BLACK
6
CONTINUOUS
10
180.131
20
-129.408
11
180.18
21
-129.435
0
LINE
8
BLACK
6
CONTINUOUS
10
140.857
20
-164.092
11
143.288
21
-150.306
0
LINE
8
BLACK
6
CONTINUOUS
10
180.332
20
-129.503
11
180.384
21
-129.523
0
LINE
8
BLACK
6
CONTINUOUS
10
41.4017
20
-203.281
11
41.2365
21
-203.238
0
LINE
8
BLACK
6
CONTINUOUS
10
214.438
20
-126.515
11
214.501
21
-126.485
0
LINE
8
BLACK
6
CONTINUOUS
10
350.246
20
-113.445
11
350.194
21
-113.465
0
LINE
8
BLACK
6
CONTINUOUS
10
222.528
20
-213.727
11
222.58
21
-213.745
0
LINE
8
BLACK
6
CONTINUOUS
10
54.7768
20
-113.995
11
54.7363
21
-113.957
0
LINE
8
BLACK
6
CONTINUOUS
10
192.53
20
-166.861
11
192.544
21
-166.871
0
LINE
8
BLACK
6
CONTINUOUS
10
364.943
20
-199.264
11
364.934
21
-199.209
0
LINE
8
BLACK
6
CONTINUOUS
10
38.9309
20
-201.835
11
38.8165
21
-201.708
0
LINE
8
BLACK
6
CONTINUOUS
10
116.814
20
-164.981
11
114.383
21
-178.768
0
LINE
8
BLACK
6
CONTINUOUS
10
41.7045
20
-197.893
11
41.6493
21
-197.888
0
LINE
8
BLACK
6
CONTINUOUS
10
162.049
20
-153.614
11
148.262
21
-151.183
0
LINE
8
BLACK
6
CONTINUOUS
10
346.989
20
-157.111
11
346.989
21
-143.112
0
LINE
8
BLACK
6
CONTINUOUS
10
364.863
20
-198.941
11
364.843
21
-198.889
0
LINE
8
BLACK
6
CONTINUOUS
10
361.799
20
-199.128
11
361.787
21
-199.182
0
LINE
8
BLACK
6
CONTINUOUS
10
224.694
20
-126.25
11
224.639
21
-126.262
0
LINE
8
BLACK
6
CONTINUOUS
10
352.192
20
-114.207
11
352.166
21
-114.158
0
LINE
8
BLACK
6
CONTINUOUS
10
223.403
20
-210.656
11
223.349
21
-210.645
0
LINE
8
BLACK
6
CONTINUOUS
10
41.8144
20
-197.909
11
41.7596
21
-197.9
0
LINE
8
BLACK
6
CONTINUOUS
10
226.34
20
-128.708
11
226.37
21
-128.661
0
LINE
8
BLACK
6
CONTINUOUS
10
52.8763
20
-113.746
11
52.8284
21
-113.774
0
LINE
8
BLACK
6
CONTINUOUS
10
182.106
20
-210.797
11
182.057
21
-210.823
0
LINE
8
BLACK
6
CONTINUOUS
10
366.128
20
-201.639
11
366.013
21
-201.771
0
LINE
8
BLACK
6
CONTINUOUS
10
352.369
20
-115.121
11
352.374
21
-115.065
0
LINE
8
BLACK
6
CONTINUOUS
10
352.168
20
-111.767
11
352.323
21
-111.845
0
LINE
8
BLACK
6
CONTINUOUS
10
40.3127
20
-198.438
11
40.2772
21
-198.481
0
LINE
8
BLACK
6
CONTINUOUS
10
53.8404
20
-113.551
11
53.7851
21
-113.546
0
LINE
8
BLACK
6
CONTINUOUS
10
349.765
20
-113.716
11
349.722
21
-113.752
0
LINE
8
BLACK
6
CONTINUOUS
10
350.194
20
-116.444
11
350.246
21
-116.464
0
LINE
8
BLACK
6
CONTINUOUS
10
224.288
20
-211.194
11
224.252
21
-211.152
0
LINE
8
BLACK
6
CONTINUOUS
10
349.232
20
-115.366
11
349.247
21
-115.42
0
LINE
8
BLACK
6
CONTINUOUS
10
165.641
20
-134.903
11
163.21
21
-148.689
0
LINE
8
BLACK
6
CONTINUOUS
10
222.374
20
-210.772
11
222.324
21
-210.797
0
LINE
8
BLACK
6
CONTINUOUS
10
224.914
20
-129.415
11
224.969
21
-129.417
0
LINE
8
BLACK
6
CONTINUOUS
10
364.623
20
-198.505
11
364.588
21
-198.462
0
LINE
8
BLACK
6
CONTINUOUS
10
52.1294
20
-115.606
11
52.1465
21
-115.659
0
LINE
8
BLACK
6
CONTINUOUS
10
213.314
20
-166.521
11
213.316
21
-166.504
0
LINE
8
BLACK
6
CONTINUOUS
10
192.7
20
-166.939
11
192.717
21
-166.942
0
LINE
8
BLACK
6
CONTINUOUS
10
223.516
20
-127.247
11
223.497
21
-127.3
0
LINE
8
BLACK
6
CONTINUOUS
10
52.1008
20
-115.499
11
52.1142
21
-115.553
0
LINE
8
BLACK
6
CONTINUOUS
10
349.681
20
-116.12
11
349.722
21
-116.157
0
LINE
8
BLACK
6
CONTINUOUS
10
223.875
20
-128.944
11
223.914
21
-128.983
0
LINE
8
BLACK
6
CONTINUOUS
10
182.355
20
-128.711
11
182.378
21
-128.661
0
LINE
8
BLACK
6
CONTINUOUS
10
39.2991
20
-202.191
11
39.1723
21
-202.077
0
LINE
8
BLACK
6
CONTINUOUS
10
179.57
20
-127.146
11
179.541
21
-127.193
0
LINE
8
BLACK
6
CONTINUOUS
10
223.719
20
-210.761
11
223.668
21
-210.739
0
LINE
8
BLACK
6
CONTINUOUS
10
54.291
20
-111.292
11
54.4636
21
-111.283
0
LINE
8
BLACK
6
CONTINUOUS
10
182.071
20
-129.12
11
182.108
21
-129.079
0
LINE
8
BLACK
6
CONTINUOUS
10
180.436
20
-129.54
11
180.49
21
-129.556
0
LINE
8
BLACK
6
CONTINUOUS
10
42.9876
20
-198.836
11
42.9642
21
-198.785
0
LINE
8
BLACK
6
CONTINUOUS
10
226.308
20
-126.882
11
226.275
21
-126.837
0
LINE
8
BLACK
6
CONTINUOUS
10
192.015
20
-127.258
11
192.051
21
-127.318
0
LINE
8
BLACK
6
CONTINUOUS
10
191.379
20
-126.622
11
191.437
21
-126.66
0
LINE
8
BLACK
6
CONTINUOUS
10
213.785
20
-127.027
11
213.83
21
-126.974
0
LINE
8
BLACK
6
CONTINUOUS
10
192.503
20
-166.841
11
192.516
21
-166.851
0
LINE
8
BLACK
6
CONTINUOUS
10
221.545
20
-211.7
11
221.528
21
-211.753
0
LINE
8
BLACK
6
CONTINUOUS
10
226.515
20
-127.273
11
226.496
21
-127.222
0
LINE
8
BLACK
6
CONTINUOUS
10
192.337
20
-166.588
11
192.342
21
-166.604
0
LINE
8
BLACK
6
CONTINUOUS
10
213.323
20
-128.171
11
213.329
21
-128.102
0
LINE
8
BLACK
6
CONTINUOUS
10
366.013
20
-201.771
11
365.894
21
-201.898
0
LINE
8
BLACK
6
CONTINUOUS
10
222.089
20
-210.945
11
222.046
21
-210.98
0
LINE
8
BLACK
6
CONTINUOUS
10
124.527
20
-146.998
11
110.741
21
-144.567
0
LINE
8
BLACK
6
CONTINUOUS
10
183.239
20
-213.768
11
183.293
21
-213.753
0
LINE
8
BLACK
6
CONTINUOUS
10
352.377
20
-114.899
11
352.374
21
-114.843
0
LINE
8
BLACK
6
CONTINUOUS
10
363.041
20
-197.917
11
362.987
21
-197.929
0
LINE
8
BLACK
6
CONTINUOUS
10
40.2432
20
-200.441
11
40.2772
21
-200.485
0
LINE
8
BLACK
6
CONTINUOUS
10
192.374
20
-166.683
11
192.383
21
-166.698
0
LINE
8
BLACK
6
CONTINUOUS
10
224.598
20
-211.779
11
224.581
21
-211.726
0
LINE
8
BLACK
6
CONTINUOUS
10
350.299
20
-113.428
11
350.246
21
-113.445
0
LINE
8
BLACK
6
CONTINUOUS
10
49.8006
20
-115.011
11
49.8473
21
-114.844
0
LINE
8
BLACK
6
CONTINUOUS
10
39.5639
20
-202.407
11
39.4297
21
-202.301
0
LINE
8
BLACK
6
CONTINUOUS
10
192.051
20
-127.318
11
192.084
21
-127.379
0
LINE
8
BLACK
6
CONTINUOUS
10
181.991
20
-126.829
11
181.949
21
-126.793
0
LINE
8
BLACK
6
CONTINUOUS
10
349.641
20
-116.081
11
349.681
21
-116.12
0
LINE
8
BLACK
6
CONTINUOUS
10
364.623
20
-200.466
11
364.656
21
-200.422
0
LINE
8
BLACK
6
CONTINUOUS
10
52.1465
20
-114.623
11
52.1294
21
-114.676
0
LINE
8
BLACK
6
CONTINUOUS
10
224.427
20
-126.328
11
224.376
21
-126.349
0
LINE
8
BLACK
6
CONTINUOUS
10
221.465
20
-212.357
11
221.471
21
-212.412
0
LINE
8
BLACK
6
CONTINUOUS
10
362.147
20
-200.53
11
362.184
21
-200.572
0
LINE
8
BLACK
6
CONTINUOUS
10
55.1001
20
-114.443
11
55.075
21
-114.394
0
LINE
8
BLACK
6
CONTINUOUS
10
221.847
20
-211.173
11
221.812
21
-211.216
0
LINE
8
BLACK
6
CONTINUOUS
10
182.437
20
-128.505
11
182.454
21
-128.452
0
LINE
8
BLACK
6
CONTINUOUS
10
183.346
20
-210.7
11
183.293
21
-210.683
0
LINE
8
BLACK
6
CONTINUOUS
10
354.674
20
-114.523
11
354.732
21
-114.687
0
LINE
8
BLACK
6
CONTINUOUS
10
350.515
20
-113.376
11
350.46
21
-113.386
0
LINE
8
BLACK
6
CONTINUOUS
10
182.468
20
-128.398
11
182.48
21
-128.344
0
LINE
8
BLACK
6
CONTINUOUS
10
223.423
20
-127.624
11
223.417
21
-127.679
0
LINE
8
BLACK
6
CONTINUOUS
10
213.349
20
-127.964
11
213.362
21
-127.896
0
LINE
8
BLACK
6
CONTINUOUS
10
151.841
20
-199.937
11
150.338
21
-199.672
0
LINE
8
BLACK
6
CONTINUOUS
10
265.243
20
-192.842
11
265.816
21
-196.091
0
LINE
8
BLACK
6
CONTINUOUS
10
222.687
20
-210.662
11
222.634
21
-210.676
0
LINE
8
BLACK
6
CONTINUOUS
10
53.2708
20
-111.47
11
53.4379
21
-111.426
0
LINE
8
BLACK
6
CONTINUOUS
10
222.634
20
-213.761
11
222.687
21
-213.774
0
LINE
8
BLACK
6
CONTINUOUS
10
179.668
20
-129.016
11
179.703
21
-129.058
0
LINE
8
BLACK
6
CONTINUOUS
10
349.853
20
-116.26
11
349.899
21
-116.291
0
LINE
8
BLACK
6
CONTINUOUS
10
367.249
20
-199.121
11
367.222
21
-199.293
0
LINE
8
BLACK
6
CONTINUOUS
10
172.012
20
-208.141
11
170.991
21
-209.679
0
LINE
8
BLACK
6
CONTINUOUS
10
362.574
20
-200.88
11
362.623
21
-200.907
0
LINE
8
BLACK
6
CONTINUOUS
10
42.754
20
-200.507
11
42.7888
21
-200.463
0
LINE
8
BLACK
6
CONTINUOUS
10
223.559
20
-127.145
11
223.537
21
-127.196
0
LINE
8
BLACK
6
CONTINUOUS
10
325.558
20
-181.212
11
311.559
21
-181.212
0
LINE
8
BLACK
6
CONTINUOUS
10
351.537
20
-113.546
11
351.488
21
-113.521
0
LINE
8
BLACK
6
CONTINUOUS
10
363.483
20
-197.89
11
363.428
21
-197.887
0
LINE
8
BLACK
6
CONTINUOUS
10
221.745
20
-213.131
11
221.778
21
-213.176
0
LINE
8
BLACK
6
CONTINUOUS
10
223.583
20
-128.54
11
223.609
21
-128.59
0
LINE
8
BLACK
6
CONTINUOUS
10
182.688
20
-210.625
11
182.633
21
-210.632
0
LINE
8
BLACK
6
CONTINUOUS
10
175.583
20
-202.549
11
174.035
21
-202.923
0
LINE
8
BLACK
6
CONTINUOUS
10
222.324
20
-213.639
11
222.374
21
-213.664
0
LINE
8
BLACK
6
CONTINUOUS
10
245.906
20
-153.053
11
232.12
21
-155.484
0
LINE
8
BLACK
6
CONTINUOUS
10
223.516
20
-128.388
11
223.537
21
-128.44
0
LINE
8
BLACK
6
CONTINUOUS
10
221.685
20
-213.038
11
221.714
21
-213.085
0
LINE
8
BLACK
6
CONTINUOUS
10
221.923
20
-211.092
11
221.884
21
-211.132
0
LINE
8
BLACK
6
CONTINUOUS
10
258.695
20
-203.561
11
257.901
21
-199.061
0
LINE
8
BLACK
6
CONTINUOUS
10
213.318
20
-166.47
11
213.318
21
-166.453
0
LINE
8
BLACK
6
CONTINUOUS
10
223.294
20
-210.636
11
223.239
21
-210.628
0
LINE
8
BLACK
6
CONTINUOUS
10
221.657
20
-212.99
11
221.685
21
-213.038
0
LINE
8
BLACK
6
CONTINUOUS
10
364.821
20
-200.133
11
364.843
21
-200.082
0
LINE
8
BLACK
6
CONTINUOUS
10
364.118
20
-200.894
11
364.166
21
-200.867
0
LINE
8
BLACK
6
CONTINUOUS
10
192.465
20
-166.806
11
192.477
21
-166.818
0
LINE
8
BLACK
6
CONTINUOUS
10
180.436
20
-126.487
11
180.384
21
-126.504
0
LINE
8
BLACK
6
CONTINUOUS
10
212.937
20
-166.939
11
212.953
21
-166.934
0
LINE
8
BLACK
6
CONTINUOUS
10
221.884
20
-213.304
11
221.923
21
-213.345
0
LINE
8
BLACK
6
CONTINUOUS
10
366.934
20
-200.298
11
366.865
21
-200.459
0
LINE
8
BLACK
6
CONTINUOUS
10
233.41
20
-197.808
11
232.985
21
-195.402
0
LINE
8
BLACK
6
CONTINUOUS
10
52.7356
20
-113.835
11
52.6908
21
-113.868
0
LINE
8
BLACK
6
CONTINUOUS
10
50.7227
20
-113.169
11
50.8326
21
-113.035
0
LINE
8
BLACK
6
CONTINUOUS
10
54.9896
20
-116.032
11
55.0197
21
-115.985
0
LINE
8
BLACK
6
CONTINUOUS
10
354.933
20
-115.529
11
367.298
21
-198.425
0
LINE
8
BLACK
6
CONTINUOUS
10
181.625
20
-129.447
11
181.674
21
-129.422
0
LINE
8
BLACK
6
CONTINUOUS
10
191.657
20
-126.832
11
191.708
21
-126.88
0
LINE
8
BLACK
6
CONTINUOUS
10
224.086
20
-129.124
11
224.132
21
-129.155
0
LINE
8
BLACK
6
CONTINUOUS
10
184.281
20
-211.52
11
184.256
21
-211.471
0
LINE
8
BLACK
6
CONTINUOUS
10
182.33
20
-128.761
11
182.355
21
-128.711
0
LINE
8
BLACK
6
CONTINUOUS
10
183.293
20
-213.753
11
183.346
21
-213.736
0
LINE
8
BLACK
6
CONTINUOUS
10
120.541
20
-184.982
11
118.11
21
-198.769
0
LINE
8
BLACK
6
CONTINUOUS
10
366.238
20
-201.503
11
366.128
21
-201.639
0
LINE
8
BLACK
6
CONTINUOUS
10
224.356
20
-213.154
11
224.388
21
-213.108
0
LINE
8
BLACK
6
CONTINUOUS
10
349.496
20
-113.996
11
349.464
21
-114.041
0
LINE
8
BLACK
6
CONTINUOUS
10
214.031
20
-126.78
11
214.085
21
-126.737
0
LINE
8
BLACK
6
CONTINUOUS
10
261.025
20
-183.946
11
258.594
21
-170.16
0
LINE
8
BLACK
6
CONTINUOUS
10
311.559
20
-195.211
11
325.558
21
-195.211
0
LINE
8
BLACK
6
CONTINUOUS
10
54.2693
20
-116.621
11
54.3203
21
-116.599
0
LINE
8
BLACK
6
CONTINUOUS
10
41.5938
20
-201.081
11
41.6493
21
-201.078
0
LINE
8
BLACK
6
CONTINUOUS
10
54.8541
20
-182.749
11
54.8541
21
-196.748
0
LINE
8
BLACK
6
CONTINUOUS
10
179.441
20
-127.391
11
179.42
21
-127.443
0
LINE
8
BLACK
6
CONTINUOUS
10
240.996
20
-192.599
11
254.784
21
-190.168
0
LINE
8
BLACK
6
CONTINUOUS
10
131.896
20
-201.2
11
134.327
21
-187.413
0
LINE
8
BLACK
6
CONTINUOUS
10
363.967
20
-198.006
11
363.916
21
-197.986
0
LINE
8
BLACK
6
CONTINUOUS
10
226.607
20
-127.929
11
226.61
21
-127.873
0
LINE
8
BLACK
6
CONTINUOUS
10
40.1229
20
-200.255
11
40.1505
21
-200.303
0
LINE
8
BLACK
6
CONTINUOUS
10
350.57
20
-113.368
11
350.515
21
-113.376
0
LINE
8
BLACK
6
CONTINUOUS
10
55.2362
20
-115.417
11
55.2448
21
-115.363
0
LINE
8
BLACK
6
CONTINUOUS
10
181.949
20
-126.793
11
181.906
21
-126.757
0
LINE
8
BLACK
6
CONTINUOUS
10
349.264
20
-114.436
11
349.247
21
-114.489
0
LINE
8
BLACK
6
CONTINUOUS
10
362.88
20
-197.959
11
362.827
21
-197.976
0
LINE
8
BLACK
6
CONTINUOUS
10
50.2458
20
-113.888
11
50.3311
21
-113.738
0
LINE
8
BLACK
6
CONTINUOUS
10
214.898
20
-126.355
11
214.966
21
-126.342
0
LINE
8
BLACK
6
CONTINUOUS
10
361.863
20
-198.915
11
361.844
21
-198.967
0
LINE
8
BLACK
6
CONTINUOUS
10
184.394
20
-211.833
11
184.38
21
-211.779
0
LINE
8
BLACK
6
CONTINUOUS
10
352.262
20
-114.358
11
352.241
21
-114.307
0
LINE
8
BLACK
6
CONTINUOUS
10
350.847
20
-116.553
11
350.903
21
-116.55
0
LINE
8
BLACK
6
CONTINUOUS
10
181.744
20
-213.383
11
181.786
21
-213.421
0
LINE
8
BLACK
6
CONTINUOUS
10
192.329
20
-166.555
11
192.333
21
-166.571
0
LINE
8
BLACK
6
CONTINUOUS
10
223.44
20
-127.514
11
223.43
21
-127.569
0
LINE
8
BLACK
6
CONTINUOUS
10
109.334
20
-177.698
11
109.334
21
-163.699
0
LINE
8
BLACK
6
CONTINUOUS
10
362.077
20
-200.444
11
362.111
21
-200.488
0
LINE
8
BLACK
6
CONTINUOUS
10
224.655
20
-212.329
11
224.658
21
-212.274
0
LINE
8
BLACK
6
CONTINUOUS
10
224.474
20
-211.471
11
224.447
21
-211.422
0
LINE
8
BLACK
6
CONTINUOUS
10
61.9979
20
-144.649
11
61.9979
21
-158.648
0
LINE
8
BLACK
6
CONTINUOUS
10
221.714
20
-213.085
11
221.745
21
-213.131
0
LINE
8
BLACK
6
CONTINUOUS
10
362.574
20
-198.091
11
362.526
21
-198.119
0
LINE
8
BLACK
6
CONTINUOUS
10
244.808
20
-172.591
11
247.239
21
-186.377
0
LINE
8
BLACK
6
CONTINUOUS
10
57.1864
20
-177.698
11
57.8276
21
-179.167
0
LINE
8
BLACK
6
CONTINUOUS
10
222.687
20
-213.774
11
222.742
21
-213.786
0
LINE
8
BLACK
6
CONTINUOUS
10
41.9048
20
-203.376
11
41.736
21
-203.35
0
LINE
8
BLACK
6
CONTINUOUS
10
221.478
20
-212.467
11
221.488
21
-212.522
0
LINE
8
BLACK
6
CONTINUOUS
10
213.262
20
-166.683
11
213.27
21
-166.668
0
LINE
8
BLACK
6
CONTINUOUS
10
224.05
20
-210.962
11
224.006
21
-210.929
0
LINE
8
BLACK
6
CONTINUOUS
10
53.4379
20
-111.426
11
53.6065
21
-111.387
0
LINE
8
BLACK
6
CONTINUOUS
10
350.194
20
-113.465
11
350.143
21
-113.486
0
LINE
8
BLACK
6
CONTINUOUS
10
61.7689
20
-177.698
11
80.9884
21
-177.698
0
LINE
8
BLACK
6
CONTINUOUS
10
351.725
20
-113.665
11
351.68
21
-113.633
0
LINE
8
BLACK
6
CONTINUOUS
10
41.1529
20
-201.039
11
41.2072
21
-201.051
0
LINE
8
BLACK
6
CONTINUOUS
10
183.917
20
-211.034
11
183.875
21
-210.997
0
LINE
8
BLACK
6
CONTINUOUS
10
364.688
20
-198.595
11
364.656
21
-198.55
0
LINE
8
BLACK
6
CONTINUOUS
10
232.656
20
-201.938
11
232.083
21
-198.689
0
LINE
8
BLACK
6
CONTINUOUS
10
105.346
20
-111.295
11
105.491
21
-111.31
0
LINE
8
BLACK
6
CONTINUOUS
10
178.378
20
-170.708
11
180.809
21
-156.922
0
LINE
8
BLACK
6
CONTINUOUS
10
226.24
20
-128.842
11
226.275
21
-128.798
0
LINE
8
BLACK
6
CONTINUOUS
10
181.949
20
-129.234
11
181.991
21
-129.197
0
LINE
8
BLACK
6
CONTINUOUS
10
351.335
20
-113.455
11
351.283
21
-113.436
0
LINE
8
BLACK
6
CONTINUOUS
10
40.5114
20
-198.245
11
40.469
21
-198.28
0
LINE
8
BLACK
6
CONTINUOUS
10
367.285
20
-198.774
11
367.27
21
-198.948
0
LINE
8
BLACK
6
CONTINUOUS
10
363.337
20
-203.316
11
363.166
21
-203.349
0
LINE
8
BLACK
6
CONTINUOUS
10
346.989
20
-143.112
11
311.559
21
-143.112
0
LINE
8
BLACK
6
CONTINUOUS
10
39.9535
20
-199.179
11
39.9439
21
-199.234
0
LINE
8
BLACK
6
CONTINUOUS
10
213.107
20
-166.861
11
213.121
21
-166.851
0
LINE
8
BLACK
6
CONTINUOUS
10
54.3203
20
-116.599
11
54.3705
21
-116.575
0
LINE
8
BLACK
6
CONTINUOUS
10
180.543
20
-129.57
11
180.598
21
-129.582
0
LINE
8
BLACK
6
CONTINUOUS
10
105.78
20
-111.352
11
190.666
21
-126.348
0
LINE
8
BLACK
6
CONTINUOUS
10
180.18
20
-129.435
11
180.23
21
-129.459
0
LINE
8
BLACK
6
CONTINUOUS
10
225.463
20
-126.283
11
225.409
21
-126.268
0
LINE
8
BLACK
6
CONTINUOUS
10
54.1652
20
-116.659
11
54.2176
21
-116.641
0
LINE
8
BLACK
6
CONTINUOUS
10
239.731
20
-194.213
11
240.31
21
-197.492
0
LINE
8
BLACK
6
CONTINUOUS
10
354.017
20
-113.306
11
354.117
21
-113.447
0
LINE
8
BLACK
6
CONTINUOUS
10
181.817
20
-129.335
11
181.862
21
-129.303
0
LINE
8
BLACK
6
CONTINUOUS
10
225.08
20
-126.219
11
225.025
21
-126.218
0
LINE
8
BLACK
6
CONTINUOUS
10
349.207
20
-114.651
11
349.197
21
-114.706
0
LINE
8
BLACK
6
CONTINUOUS
10
222.134
20
-210.912
11
222.089
21
-210.945
0
LINE
8
BLACK
6
CONTINUOUS
10
350.792
20
-116.554
11
350.847
21
-116.553
0
LINE
8
BLACK
6
CONTINUOUS
10
41.3719
20
-201.076
11
41.4273
21
-201.08
0
LINE
8
BLACK
6
CONTINUOUS
10
151.715
20
-191.862
11
151.137
21
-195.142
0
LINE
8
BLACK
6
CONTINUOUS
10
181.575
20
-129.471
11
181.625
21
-129.447
0
LINE
8
BLACK
6
CONTINUOUS
10
352.075
20
-114.018
11
352.042
21
-113.974
0
LINE
8
BLACK
6
CONTINUOUS
10
52.8763
20
-116.536
11
52.9252
21
-116.562
0
LINE
8
BLACK
6
CONTINUOUS
10
350.043
20
-113.533
11
349.994
21
-113.56
0
LINE
8
BLACK
6
CONTINUOUS
10
53.7851
20
-116.736
11
53.8404
21
-116.731
0
LINE
8
BLACK
6
CONTINUOUS
10
54.9579
20
-114.205
11
54.9247
21
-114.161
0
LINE
8
BLACK
6
CONTINUOUS
10
364.843
20
-198.889
11
364.821
21
-198.838
0
LINE
8
BLACK
6
CONTINUOUS
10
54.5621
20
-113.82
11
54.5157
21
-113.789
0
LINE
8
BLACK
6
CONTINUOUS
10
42.8839
20
-198.639
11
42.8538
21
-198.593
0
LINE
8
BLACK
6
CONTINUOUS
10
364.798
20
-198.788
11
364.773
21
-198.738
0
LINE
8
BLACK
6
CONTINUOUS
10
179.315
20
-127.986
11
179.315
21
-128.041
0
LINE
8
BLACK
6
CONTINUOUS
10
52.2587
20
-114.369
11
52.2327
21
-114.419
0
LINE
8
BLACK
6
CONTINUOUS
10
52.1008
20
-114.783
11
52.0893
21
-114.838
0
LINE
8
BLACK
6
CONTINUOUS
10
43.047
20
-199.975
11
43.0631
21
-199.922
0
LINE
8
BLACK
6
CONTINUOUS
10
53.1817
20
-113.614
11
53.129
21
-113.632
0
LINE
8
BLACK
6
CONTINUOUS
10
181.253
20
-212.412
11
181.26
21
-212.467
0
LINE
8
BLACK
6
CONTINUOUS
10
363.166
20
-203.349
11
362.994
21
-203.376
0
LINE
8
BLACK
6
CONTINUOUS
10
221.471
20
-212.412
11
221.478
21
-212.467
0
LINE
8
BLACK
6
CONTINUOUS
10
55.2593
20
-115.197
11
55.2602
21
-115.141
0
LINE
8
BLACK
6
CONTINUOUS
10
311.559
20
-157.111
11
316.272
21
-157.111
0
LINE
8
BLACK
6
CONTINUOUS
10
184.281
20
-212.916
11
184.304
21
-212.866
0
LINE
8
BLACK
6
CONTINUOUS
10
42.3799
20
-198.131
11
42.3324
21
-198.102
0
LINE
8
BLACK
6
CONTINUOUS
10
226.399
20
-128.614
11
226.426
21
-128.565
0
LINE
8
BLACK
6
CONTINUOUS
10
184.432
20
-212.052
11
184.426
21
-211.997
0
LINE
8
BLACK
6
CONTINUOUS
10
42.1335
20
-198.003
11
42.0818
21
-197.983
0
LINE
8
BLACK
6
CONTINUOUS
10
214.501
20
-126.485
11
214.565
21
-126.458
0
LINE
8
BLACK
6
CONTINUOUS
10
180.929
20
-129.613
11
180.984
21
-129.612
0
LINE
8
BLACK
6
CONTINUOUS
10
166.427
20
-197.838
11
167.93
21
-198.103
0
LINE
8
BLACK
6
CONTINUOUS
10
277.355
20
-166.852
11
263.569
21
-169.283
0
LINE
8
BLACK
6
CONTINUOUS
10
54.9896
20
-114.251
11
54.9579
21
-114.205
0
LINE
8
BLACK
6
CONTINUOUS
10
351.122
20
-113.392
11
351.068
21
-113.381
0
LINE
8
BLACK
6
CONTINUOUS
10
349.404
20
-115.774
11
349.433
21
-115.822
0
LINE
8
BLACK
6
CONTINUOUS
10
223.637
20
-128.638
11
223.666
21
-128.685
0
LINE
8
BLACK
6
CONTINUOUS
10
192.326
20
-166.538
11
192.329
21
-166.555
0
LINE
8
BLACK
6
CONTINUOUS
10
363.538
20
-197.896
11
363.483
21
-197.89
0
LINE
8
BLACK
6
CONTINUOUS
10
53.8954
20
-113.559
11
53.8404
21
-113.551
0
LINE
8
BLACK
6
CONTINUOUS
10
104.677
20
-203.423
11
42.5858
21
-203.423
0
LINE
8
BLACK
6
CONTINUOUS
10
180.598
20
-129.582
11
180.652
21
-129.592
0
LINE
8
BLACK
6
CONTINUOUS
10
118.11
20
-198.769
11
131.896
21
-201.2
0
LINE
8
BLACK
6
CONTINUOUS
10
40.555
20
-198.21
11
40.5114
21
-198.245
0
LINE
8
BLACK
6
CONTINUOUS
10
361.799
20
-199.844
11
361.812
21
-199.897
0
LINE
8
BLACK
6
CONTINUOUS
10
183.957
20
-213.364
11
183.997
21
-213.325
0
LINE
8
BLACK
6
CONTINUOUS
10
39.9535
20
-199.787
11
39.965
21
-199.841
0
LINE
8
BLACK
6
CONTINUOUS
10
181.27
20
-212.522
11
181.281
21
-212.576
0
LINE
8
BLACK
6
CONTINUOUS
10
352.241
20
-114.307
11
352.218
21
-114.257
0
LINE
8
BLACK
6
CONTINUOUS
10
39.9439
20
-199.732
11
39.9535
21
-199.787
0
LINE
8
BLACK
6
CONTINUOUS
10
362.673
20
-198.04
11
362.623
21
-198.064
0
LINE
8
BLACK
6
CONTINUOUS
10
52.6048
20
-113.939
11
52.5637
21
-113.976
0
LINE
8
BLACK
6
CONTINUOUS
10
221.847
20
-213.263
11
221.884
21
-213.304
0
LINE
8
BLACK
6
CONTINUOUS
10
191.708
20
-126.88
11
191.757
21
-126.929
0
LINE
8
BLACK
6
CONTINUOUS
10
183.997
20
-211.112
11
183.957
21
-211.072
0
LINE
8
BLACK
6
CONTINUOUS
10
52.4637
20
-111.777
11
52.6207
21
-111.704
0
LINE
8
BLACK
6
CONTINUOUS
10
350.792
20
-113.354
11
350.736
21
-113.355
0
LINE
8
BLACK
6
CONTINUOUS
10
182.206
20
-213.687
11
182.258
21
-213.708
0
LINE
8
BLACK
6
CONTINUOUS
10
224.858
20
-126.225
11
224.803
21
-126.231
0
LINE
8
BLACK
6
CONTINUOUS
10
40.0502
20
-200.105
11
40.0727
21
-200.156
0
LINE
8
BLACK
6
CONTINUOUS
10
351.851
20
-111.627
11
352.011
21
-111.694
0
LINE
8
BLACK
6
CONTINUOUS
10
184.17
20
-213.108
11
184.2
21
-213.062
0
LINE
8
BLACK
6
CONTINUOUS
10
181.346
20
-212.788
11
181.367
21
-212.84
0
LINE
8
BLACK
6
CONTINUOUS
10
55.0482
20
-115.937
11
55.075
21
-115.889
0
LINE
8
BLACK
6
CONTINUOUS
10
42.5158
20
-198.227
11
42.4716
21
-198.193
0
LINE
8
BLACK
6
CONTINUOUS
10
224.969
20
-129.417
11
225.025
21
-129.418
0
LINE
8
BLACK
6
CONTINUOUS
10
54.8899
20
-114.117
11
54.8536
21
-114.075
0
LINE
8
BLACK
6
CONTINUOUS
10
184.426
20
-211.997
11
184.417
21
-211.942
0
LINE
8
BLACK
6
CONTINUOUS
10
181.241
20
-212.246
11
181.243
21
-212.301
0
LINE
8
BLACK
6
CONTINUOUS
10
350.851
20
-111.342
11
351.022
21
-111.375
0
LINE
8
BLACK
6
CONTINUOUS
10
51.8635
20
-112.119
11
52.009
21
-112.026
0
LINE
8
BLACK
6
CONTINUOUS
10
225.913
20
-126.496
11
225.866
21
-126.466
0
LINE
8
BLACK
6
CONTINUOUS
10
352.3
20
-114.463
11
352.282
21
-114.41
0
LINE
8
BLACK
6
CONTINUOUS
10
184.417
20
-212.494
11
184.426
21
-212.44
0
LINE
8
BLACK
6
CONTINUOUS
10
182.258
20
-213.708
11
182.31
21
-213.727
0
LINE
8
BLACK
6
CONTINUOUS
10
224.499
20
-211.52
11
224.474
21
-211.471
0
LINE
8
BLACK
6
CONTINUOUS
10
257.215
20
-203.955
11
243.427
21
-206.386
0
LINE
8
BLACK
6
CONTINUOUS
10
40.3497
20
-198.397
11
40.3127
21
-198.438
0
LINE
8
BLACK
6
CONTINUOUS
10
134.327
20
-187.413
11
120.541
21
-184.982
0
LINE
8
BLACK
6
CONTINUOUS
10
183.875
20
-210.997
11
183.832
21
-210.962
0
LINE
8
BLACK
6
CONTINUOUS
10
39.1723
20
-202.077
11
39.0495
21
-201.958
0
LINE
8
BLACK
6
CONTINUOUS
10
50.4215
20
-113.591
11
50.517
21
-113.446
0
LINE
8
BLACK
6
CONTINUOUS
10
223.559
20
-128.49
11
223.583
21
-128.54
0
LINE
8
BLACK
6
CONTINUOUS
10
363.81
20
-201.02
11
363.863
21
-201.004
0
LINE
8
BLACK
6
CONTINUOUS
10
349.264
20
-115.473
11
349.283
21
-115.525
0
LINE
8
BLACK
6
CONTINUOUS
10
182.355
20
-127.316
11
182.33
21
-127.266
0
LINE
8
BLACK
6
CONTINUOUS
10
55.1828
20
-114.649
11
55.1648
21
-114.597
0
LINE
8
BLACK
6
CONTINUOUS
10
54.5157
20
-116.493
11
54.5621
21
-116.463
0
LINE
8
BLACK
6
CONTINUOUS
10
41.2618
20
-197.905
11
41.2072
21
-197.915
0
LINE
8
BLACK
6
CONTINUOUS
10
192.651
20
-166.924
11
192.667
21
-166.929
0
LINE
8
BLACK
6
CONTINUOUS
10
135.574
20
-168.289
11
133.143
21
-182.076
0
LINE
8
BLACK
6
CONTINUOUS
10
182.91
20
-213.817
11
182.966
21
-213.813
0
LINE
8
BLACK
6
CONTINUOUS
10
53.9471
20
-111.328
11
54.1187
21
-111.307
0
LINE
8
BLACK
6
CONTINUOUS
10
181.367
20
-126.479
11
181.313
21
-126.464
0
LINE
8
BLACK
6
CONTINUOUS
10
364.773
20
-200.233
11
364.798
21
-200.183
0
LINE
8
BLACK
6
CONTINUOUS
10
237.248
20
-209.069
11
236.227
21
-207.53
0
LINE
8
BLACK
6
CONTINUOUS
10
40.8897
20
-200.952
11
40.9411
21
-200.973
0
LINE
8
BLACK
6
CONTINUOUS
10
364.821
20
-198.838
11
364.798
21
-198.788
0
LINE
8
BLACK
6
CONTINUOUS
10
212.986
20
-166.924
11
213.002
21
-166.918
0
LINE
8
BLACK
6
CONTINUOUS
10
53.2887
20
-113.585
11
53.235
21
-113.599
0
LINE
8
BLACK
6
CONTINUOUS
10
349.681
20
-113.789
11
349.641
21
-113.828
0
LINE
8
BLACK
6
CONTINUOUS
10
265.441
20
-202.372
11
264.372
21
-202.567
0
LINE
8
BLACK
6
CONTINUOUS
10
143.288
20
-150.306
11
129.502
21
-147.875
0
LINE
8
BLACK
6
CONTINUOUS
10
213.063
20
-166.889
11
213.078
21
-166.88
0
LINE
8
BLACK
6
CONTINUOUS
10
367.188
20
-199.465
11
367.149
21
-199.635
0
LINE
8
BLACK
6
CONTINUOUS
10
350.299
20
-116.481
11
350.352
21
-116.497
0
LINE
8
BLACK
6
CONTINUOUS
10
212.886
20
-166.948
11
212.903
21
-166.946
0
LINE
8
BLACK
6
CONTINUOUS
10
181.389
20
-212.891
11
181.413
21
-212.941
0
LINE
8
BLACK
6
CONTINUOUS
10
55.2564
20
-115.03
11
55.2516
21
-114.975
0
LINE
8
BLACK
6
CONTINUOUS
10
361.758
20
-199.513
11
361.76
21
-199.569
0
LINE
8
BLACK
6
CONTINUOUS
10
281.033
20
-199.762
11
294.819
21
-197.331
0
LINE
8
BLACK
6
CONTINUOUS
10
221.923
20
-213.345
11
221.962
21
-213.383
0
LINE
8
BLACK
6
CONTINUOUS
10
225.819
20
-126.437
11
225.77
21
-126.41
0
LINE
8
BLACK
6
CONTINUOUS
10
225.77
20
-126.41
11
225.721
21
-126.384
0
LINE
8
BLACK
6
CONTINUOUS
10
361.931
20
-198.763
11
361.907
21
-198.813
0
LINE
8
BLACK
6
CONTINUOUS
10
349.184
20
-115.093
11
349.189
21
-115.148
0
LINE
8
BLACK
6
CONTINUOUS
10
183.185
20
-213.781
11
183.239
21
-213.768
0
LINE
8
BLACK
6
CONTINUOUS
10
55.2602
20
-115.141
11
55.2593
21
-115.086
0
LINE
8
BLACK
6
CONTINUOUS
10
184.451
20
-191.122
11
186.882
21
-177.336
0
LINE
8
BLACK
6
CONTINUOUS
10
181.26
20
-212.467
11
181.27
21
-212.522
0
LINE
8
BLACK
6
CONTINUOUS
10
226.275
20
-128.798
11
226.308
21
-128.754
0
LINE
8
BLACK
6
CONTINUOUS
10
263.569
20
-169.283
11
266
21
-183.069
0
LINE
8
BLACK
6
CONTINUOUS
10
192.318
20
-166.453
11
192.319
21
-166.47
0
LINE
8
BLACK
6
CONTINUOUS
10
364.954
20
-199.375
11
364.95
21
-199.319
0
LINE
8
BLACK
6
CONTINUOUS
10
349.496
20
-115.913
11
349.53
21
-115.957
0
LINE
8
BLACK
6
CONTINUOUS
10
224.326
20
-126.372
11
224.276
21
-126.397
0
LINE
8
BLACK
6
CONTINUOUS
10
184.432
20
-212.384
11
184.437
21
-212.329
0
LINE
8
BLACK
6
CONTINUOUS
10
280.403
20
-127.627
11
282.834
21
-141.413
0
LINE
8
BLACK
6
CONTINUOUS
10
54.7363
20
-113.957
11
54.6946
21
-113.92
0
LINE
8
BLACK
6
CONTINUOUS
10
362.623
20
-200.907
11
362.673
21
-200.931
0
LINE
8
BLACK
6
CONTINUOUS
10
165.628
20
-202.368
11
164.812
21
-206.997
0
LINE
8
BLACK
6
CONTINUOUS
10
222.634
20
-210.676
11
222.58
21
-210.691
0
LINE
8
BLACK
6
CONTINUOUS
10
224.748
20
-129.396
11
224.803
21
-129.404
0
LINE
8
BLACK
6
CONTINUOUS
10
349.283
20
-115.525
11
349.303
21
-115.576
0
LINE
8
BLACK
6
CONTINUOUS
10
52.9252
20
-113.72
11
52.8763
21
-113.746
0
LINE
8
BLACK
6
CONTINUOUS
10
179.463
20
-127.341
11
179.441
21
-127.391
0
LINE
8
BLACK
6
CONTINUOUS
10
179.321
20
-128.152
11
179.327
21
-128.207
0
LINE
8
BLACK
6
CONTINUOUS
10
78.6666
20
-196.748
11
92.6656
21
-196.748
0
LINE
8
BLACK
6
CONTINUOUS
10
43.1004
20
-199.759
11
43.109
21
-199.704
0
LINE
8
BLACK
6
CONTINUOUS
10
351.176
20
-116.504
11
351.23
21
-116.489
0
LINE
8
BLACK
6
CONTINUOUS
10
222.962
20
-213.815
11
223.017
21
-213.818
0
LINE
8
BLACK
6
CONTINUOUS
10
182.48
20
-128.344
11
182.491
21
-128.29
0
LINE
8
BLACK
6
CONTINUOUS
10
41.2072
20
-197.915
11
41.1529
21
-197.927
0
LINE
8
BLACK
6
CONTINUOUS
10
224.175
20
-213.364
11
224.214
21
-213.325
0
LINE
8
BLACK
6
CONTINUOUS
10
53.6741
20
-113.541
11
53.6186
21
-113.542
0
LINE
8
BLACK
6
CONTINUOUS
10
41.0459
20
-197.956
11
40.9932
21
-197.974
0
LINE
8
BLACK
6
CONTINUOUS
10
50.517
20
-113.446
11
50.6175
21
-113.306
0
LINE
8
BLACK
6
CONTINUOUS
10
43.109
20
-199.262
11
43.1004
21
-199.207
0
LINE
8
BLACK
6
CONTINUOUS
10
363.428
20
-201.084
11
363.483
21
-201.081
0
LINE
8
BLACK
6
CONTINUOUS
10
184.034
20
-211.152
11
183.997
21
-211.112
0
LINE
8
BLACK
6
CONTINUOUS
10
40.9411
20
-200.973
11
40.9932
21
-200.992
0
LINE
8
BLACK
6
CONTINUOUS
10
224.659
20
-212.218
11
224.658
21
-212.163
0
LINE
8
BLACK
6
CONTINUOUS
10
181.205
20
-129.587
11
181.259
21
-129.576
0
LINE
8
BLACK
6
CONTINUOUS
10
352.262
20
-115.551
11
352.282
21
-115.499
0
LINE
8
BLACK
6
CONTINUOUS
10
53.1053
20
-111.52
11
53.2708
21
-111.47
0
LINE
8
BLACK
6
CONTINUOUS
10
364.008
20
-203.123
11
363.843
21
-203.18
0
LINE
8
BLACK
6
CONTINUOUS
10
364.214
20
-198.133
11
364.166
21
-198.105
0
LINE
8
BLACK
6
CONTINUOUS
10
223.799
20
-126.773
11
223.764
21
-126.816
0
LINE
8
BLACK
6
CONTINUOUS
10
351.022
20
-111.375
11
351.191
21
-111.414
0
LINE
8
BLACK
6
CONTINUOUS
10
41.9764
20
-201.018
11
42.0294
21
-201.001
0
LINE
8
BLACK
6
CONTINUOUS
10
364.068
20
-198.052
11
364.018
21
-198.028
0
LINE
8
BLACK
6
CONTINUOUS
10
242.882
20
-134.243
11
245.313
21
-148.029
0
LINE
8
BLACK
6
CONTINUOUS
10
168.121
20
-174.028
11
154.335
21
-171.597
0
LINE
8
BLACK
6
CONTINUOUS
10
55.145
20
-115.737
11
55.1648
21
-115.686
0
LINE
8
BLACK
6
CONTINUOUS
10
352.316
20
-115.393
11
352.331
21
-115.339
0
LINE
8
BLACK
6
CONTINUOUS
10
192.619
20
-166.911
11
192.635
21
-166.918
0
LINE
8
BLACK
6
CONTINUOUS
10
182.031
20
-129.159
11
182.071
21
-129.12
0
LINE
8
BLACK
6
CONTINUOUS
10
52.5637
20
-113.976
11
52.524
21
-114.015
0
LINE
8
BLACK
6
CONTINUOUS
10
228.478
20
-189.685
11
242.265
21
-187.254
0
LINE
8
BLACK
6
CONTINUOUS
10
191.258
20
-126.552
11
191.319
21
-126.586
0
LINE
8
BLACK
6
CONTINUOUS
10
349.303
20
-114.333
11
349.283
21
-114.384
0
LINE
8
BLACK
6
CONTINUOUS
10
180.762
20
-129.606
11
180.818
21
-129.61
0
LINE
8
BLACK
6
CONTINUOUS
10
179.463
20
-128.686
11
179.487
21
-128.736
0
LINE
8
BLACK
6
CONTINUOUS
10
223.511
20
-213.753
11
223.564
21
-213.736
0
LINE
8
BLACK
6
CONTINUOUS
10
43.0774
20
-199.098
11
43.0631
21
-199.044
0
LINE
8
BLACK
6
CONTINUOUS
10
41.2618
20
-201.061
11
41.3167
21
-201.069
0
LINE
8
BLACK
6
CONTINUOUS
10
183.832
20
-213.474
11
183.875
21
-213.439
0
LINE
8
BLACK
6
CONTINUOUS
10
184.394
20
-212.603
11
184.406
21
-212.549
0
LINE
8
BLACK
6
CONTINUOUS
10
40.5933
20
-203.009
11
40.4378
21
-202.938
0
LINE
8
BLACK
6
CONTINUOUS
10
41.0991
20
-201.025
11
41.1529
21
-201.039
0
LINE
8
BLACK
6
CONTINUOUS
10
52.0624
20
-115.058
11
52.0605
21
-115.113
0
LINE
8
BLACK
6
CONTINUOUS
10
221.778
20
-211.26
11
221.745
21
-211.305
0
LINE
8
BLACK
6
CONTINUOUS
10
182.966
20
-213.813
11
183.021
21
-213.808
0
LINE
8
BLACK
6
CONTINUOUS
10
42.7178
20
-200.549
11
42.754
21
-200.507
0
LINE
8
BLACK
6
CONTINUOUS
10
53.6741
20
-116.741
11
53.7296
21
-116.74
0
LINE
8
BLACK
6
CONTINUOUS
10
144.301
20
-204.973
11
143.867
21
-203.178
0
LINE
8
BLACK
6
CONTINUOUS
10
61.9979
20
-125.599
11
61.9979
21
-139.598
0
LINE
8
BLACK
6
CONTINUOUS
10
52.0624
20
-115.224
11
52.0663
21
-115.28
0
LINE
8
BLACK
6
CONTINUOUS
10
182.378
20
-128.661
11
182.4
21
-128.61
0
LINE
8
BLACK
6
CONTINUOUS
10
224.447
20
-213.014
11
224.474
21
-212.965
0
LINE
8
BLACK
6
CONTINUOUS
10
55.1989
20
-115.58
11
55.2132
21
-115.526
0
LINE
8
BLACK
6
CONTINUOUS
10
54.4682
20
-113.76
11
54.4198
21
-113.733
0
LINE
8
BLACK
6
CONTINUOUS
10
363.206
20
-201.078
11
363.261
21
-201.083
0
LINE
8
BLACK
6
CONTINUOUS
10
367.27
20
-198.948
11
367.249
21
-199.121
0
LINE
8
BLACK
6
CONTINUOUS
10
180.131
20
-126.619
11
180.083
21
-126.647
0
LINE
8
BLACK
6
CONTINUOUS
10
54.4636
20
-111.283
11
54.6365
21
-111.28
0
LINE
8
BLACK
6
CONTINUOUS
10
37.5858
20
-198.421
11
49.6952
21
-115.518
0
LINE
8
BLACK
6
CONTINUOUS
10
181.744
20
-211.053
11
181.705
21
-211.092
0
LINE
8
BLACK
6
CONTINUOUS
10
278.602
20
-185.976
11
281.033
21
-199.762
0
LINE
8
BLACK
6
CONTINUOUS
10
349.433
20
-114.087
11
349.404
21
-114.134
0
LINE
8
BLACK
6
CONTINUOUS
10
362.045
20
-198.572
11
362.014
21
-198.618
0
LINE
8
BLACK
6
CONTINUOUS
10
183.021
20
-213.808
11
183.076
21
-213.801
0
LINE
8
BLACK
6
CONTINUOUS
10
181.281
20
-211.86
11
181.27
21
-211.914
0
LINE
8
BLACK
6
CONTINUOUS
10
224.179
20
-129.185
11
224.227
21
-129.213
0
LINE
8
BLACK
6
CONTINUOUS
10
102.191
20
-158.648
11
102.191
21
-144.649
0
LINE
8
BLACK
6
CONTINUOUS
10
288.402
20
-145.56
11
290.833
21
-159.346
0
LINE
8
BLACK
6
CONTINUOUS
10
352.343
20
-114.624
11
352.331
21
-114.569
0
LINE
8
BLACK
6
CONTINUOUS
10
180.652
20
-126.435
11
180.598
21
-126.445
0
LINE
8
BLACK
6
CONTINUOUS
10
52.1653
20
-115.712
11
52.186
21
-115.763
0
LINE
8
BLACK
6
CONTINUOUS
10
42.1845
20
-198.025
11
42.1335
21
-198.003
0
LINE
8
BLACK
6
CONTINUOUS
10
351.387
20
-116.434
11
351.438
21
-116.412
0
LINE
8
BLACK
6
CONTINUOUS
10
300.202
20
-203.425
11
299.336
21
-203.501
0
LINE
8
BLACK
6
CONTINUOUS
10
363.81
20
-197.951
11
363.757
21
-197.936
0
LINE
8
BLACK
6
CONTINUOUS
10
182.491
20
-128.29
11
182.5
21
-128.235
0
LINE
8
BLACK
6
CONTINUOUS
10
226.595
20
-127.596
11
226.587
21
-127.541
0
LINE
8
BLACK
6
CONTINUOUS
10
182.156
20
-213.664
11
182.206
21
-213.687
0
LINE
8
BLACK
6
CONTINUOUS
10
182.213
20
-128.949
11
182.244
21
-128.904
0
LINE
8
BLACK
6
CONTINUOUS
10
181.367
20
-129.548
11
181.42
21
-129.532
0
LINE
8
BLACK
6
CONTINUOUS
10
181.04
20
-126.418
11
180.984
21
-126.415
0
LINE
8
BLACK
6
CONTINUOUS
10
223.239
20
-210.628
11
223.184
21
-210.623
0
LINE
8
BLACK
6
CONTINUOUS
10
183.997
20
-213.325
11
184.034
21
-213.284
0
LINE
8
BLACK
6
CONTINUOUS
10
40.0727
20
-198.81
11
40.0502
21
-198.861
0
LINE
8
BLACK
6
CONTINUOUS
10
349.218
20
-115.312
11
349.232
21
-115.366
0
LINE
8
BLACK
6
CONTINUOUS
10
350.092
20
-113.509
11
350.043
21
-113.533
0
LINE
8
BLACK
6
CONTINUOUS
10
221.812
20
-211.216
11
221.778
21
-211.26
0
LINE
8
BLACK
6
CONTINUOUS
10
192.767
20
-166.95
11
192.784
21
-166.952
0
LINE
8
BLACK
6
CONTINUOUS
10
182.633
20
-210.632
11
182.578
21
-210.64
0
LINE
8
BLACK
6
CONTINUOUS
10
351.854
20
-113.77
11
351.812
21
-113.734
0
LINE
8
BLACK
6
CONTINUOUS
10
181.674
20
-126.605
11
181.625
21
-126.58
0
LINE
8
BLACK
6
CONTINUOUS
10
192.684
20
-166.934
11
192.7
21
-166.939
0
LINE
8
BLACK
6
CONTINUOUS
10
179.818
20
-126.848
11
179.779
21
-126.887
0
LINE
8
BLACK
6
CONTINUOUS
10
349.184
20
-114.816
11
349.18
21
-114.871
0
LINE
8
BLACK
6
CONTINUOUS
10
180.818
20
-126.416
11
180.762
21
-126.421
0
LINE
8
BLACK
6
CONTINUOUS
10
354.542
20
-114.202
11
354.611
21
-114.362
0
LINE
8
BLACK
6
CONTINUOUS
10
364.863
20
-200.03
11
364.881
21
-199.977
0
LINE
8
BLACK
6
CONTINUOUS
10
179.487
20
-128.736
11
179.513
21
-128.785
0
LINE
8
BLACK
6
CONTINUOUS
10
40.7894
20
-198.062
11
40.7405
21
-198.088
0
LINE
8
BLACK
6
CONTINUOUS
10
42.5588
20
-200.704
11
42.6005
21
-200.667
0
LINE
8
BLACK
6
CONTINUOUS
10
53.7763
20
-111.354
11
53.9471
21
-111.328
0
LINE
8
BLACK
6
CONTINUOUS
10
212.92
20
-166.942
11
212.937
21
-166.939
0
LINE
8
BLACK
6
CONTINUOUS
10
352.331
20
-115.339
11
352.343
21
-115.285
0
LINE
8
BLACK
6
CONTINUOUS
10
52.413
20
-114.139
11
52.379
21
-114.183
0
LINE
8
BLACK
6
CONTINUOUS
10
221.513
20
-211.806
11
221.499
21
-211.86
0
LINE
8
BLACK
6
CONTINUOUS
10
52.0605
20
-115.169
11
52.0624
21
-115.224
0
LINE
8
BLACK
6
CONTINUOUS
10
55.2132
20
-114.756
11
55.1989
21
-114.703
0
LINE
8
BLACK
6
CONTINUOUS
10
352.354
20
-115.231
11
352.362
21
-115.176
0
LINE
8
BLACK
6
CONTINUOUS
10
180.762
20
-126.421
11
180.707
21
-126.427
0
LINE
8
BLACK
6
CONTINUOUS
10
191.604
20
-126.786
11
191.657
21
-126.832
0
LINE
8
BLACK
6
CONTINUOUS
10
213.927
20
-126.874
11
213.978
21
-126.826
0
LINE
8
BLACK
6
CONTINUOUS
10
176.157
20
-199.299
11
175.583
21
-202.549
0
LINE
8
BLACK
6
CONTINUOUS
10
223.914
20
-128.983
11
223.955
21
-129.02
0
LINE
8
BLACK
6
CONTINUOUS
10
51.3163
20
-112.541
11
51.4476
21
-112.429
0
LINE
8
BLACK
6
CONTINUOUS
10
349.283
20
-114.384
11
349.264
21
-114.436
0
LINE
8
BLACK
6
CONTINUOUS
10
349.303
20
-115.576
11
349.326
21
-115.627
0
LINE
8
BLACK
6
CONTINUOUS
10
277.86
20
-142.29
11
275.429
21
-128.504
0
LINE
8
BLACK
6
CONTINUOUS
10
350.352
20
-116.497
11
350.406
21
-116.511
0
LINE
8
BLACK
6
CONTINUOUS
10
258.594
20
-170.16
11
244.808
21
-172.591
0
LINE
8
BLACK
6
CONTINUOUS
10
363.151
20
-197.899
11
363.096
21
-197.907
0
LINE
8
BLACK
6
CONTINUOUS
10
43.1234
20
-199.538
11
43.1244
21
-199.483
0
LINE
8
BLACK
6
CONTINUOUS
10
223.564
20
-213.736
11
223.616
21
-213.718
0
LINE
8
BLACK
6
CONTINUOUS
10
54.1122
20
-116.676
11
54.1652
21
-116.659
0
LINE
8
BLACK
6
CONTINUOUS
10
54.0587
20
-116.691
11
54.1122
21
-116.676
0
LINE
8
BLACK
6
CONTINUOUS
10
364.068
20
-200.919
11
364.118
21
-200.894
0
LINE
8
BLACK
6
CONTINUOUS
10
362.724
20
-198.017
11
362.673
21
-198.04
0
LINE
8
BLACK
6
CONTINUOUS
10
223.836
20
-126.731
11
223.799
21
-126.773
0
LINE
8
BLACK
6
CONTINUOUS
10
182.31
20
-210.709
11
182.258
21
-210.728
0
LINE
8
BLACK
6
CONTINUOUS
10
55.1648
20
-114.597
11
55.145
21
-114.545
0
LINE
8
BLACK
6
CONTINUOUS
10
225.08
20
-129.416
11
225.136
21
-129.413
0
LINE
8
BLACK
6
CONTINUOUS
10
180.083
20
-126.647
11
180.036
21
-126.676
0
LINE
8
BLACK
6
CONTINUOUS
10
223.497
20
-128.336
11
223.516
21
-128.388
0
LINE
8
BLACK
6
CONTINUOUS
10
299.737
20
-111.267
11
349.988
21
-111.267
0
LINE
8
BLACK
6
CONTINUOUS
10
190.735
20
-126.362
11
190.803
21
-126.378
0
LINE
8
BLACK
6
CONTINUOUS
10
183.398
20
-210.718
11
183.346
21
-210.7
0
LINE
8
BLACK
6
CONTINUOUS
10
38.601
20
-201.443
11
38.5002
21
-201.305
0
LINE
8
BLACK
6
CONTINUOUS
10
222.275
20
-210.823
11
222.227
21
-210.851
0
LINE
8
BLACK
6
CONTINUOUS
10
213.329
20
-128.102
11
213.338
21
-128.033
0
LINE
8
BLACK
6
CONTINUOUS
10
150.338
20
-199.672
11
149.544
21
-204.171
0
LINE
8
BLACK
6
CONTINUOUS
10
304.415
20
-162.162
11
304.415
21
-176.161
0
LINE
8
BLACK
6
CONTINUOUS
10
181.472
20
-126.514
11
181.42
21
-126.495
0
LINE
8
BLACK
6
CONTINUOUS
10
42.9642
20
-200.181
11
42.9876
21
-200.13
0
LINE
8
BLACK
6
CONTINUOUS
10
222.424
20
-213.687
11
222.475
21
-213.708
0
LINE
8
BLACK
6
CONTINUOUS
10
224.612
20
-212.603
11
224.624
21
-212.549
0
LINE
8
BLACK
6
CONTINUOUS
10
213.304
20
-166.571
11
213.308
21
-166.555
0
LINE
8
BLACK
6
CONTINUOUS
10
354.905
20
-115.358
11
354.933
21
-115.529
0
LINE
8
BLACK
6
CONTINUOUS
10
362.434
20
-198.18
11
362.389
21
-198.213
0
LINE
8
BLACK
6
CONTINUOUS
10
366.538
20
-201.075
11
366.443
21
-201.221
0
LINE
8
BLACK
6
CONTINUOUS
10
41.0991
20
-197.941
11
41.0459
21
-197.956
0
LINE
8
BLACK
6
CONTINUOUS
10
182.378
20
-127.366
11
182.355
21
-127.316
0
LINE
8
BLACK
6
CONTINUOUS
10
180.818
20
-129.61
11
180.873
21
-129.613
0
LINE
8
BLACK
6
CONTINUOUS
10
52.9252
20
-116.562
11
52.975
21
-116.587
0
LINE
8
BLACK
6
CONTINUOUS
10
53.8954
20
-116.724
11
53.9502
21
-116.715
0
LINE
8
BLACK
6
CONTINUOUS
10
90.2844
20
-163.699
11
54.8541
21
-163.699
0
LINE
8
BLACK
6
CONTINUOUS
10
40.0727
20
-200.156
11
40.0969
21
-200.206
0
LINE
8
BLACK
6
CONTINUOUS
10
181.241
20
-212.19
11
181.241
21
-212.246
0
LINE
8
BLACK
6
CONTINUOUS
10
192.198
20
-127.634
11
192.221
21
-127.7
0
LINE
8
BLACK
6
CONTINUOUS
10
179.634
20
-127.055
11
179.601
21
-127.1
0
LINE
8
BLACK
6
CONTINUOUS
10
364.934
20
-199.209
11
364.924
21
-199.155
0
LINE
8
BLACK
6
CONTINUOUS
10
226.087
20
-126.634
11
226.045
21
-126.597
0
LINE
8
BLACK
6
CONTINUOUS
10
351.524
20
-111.509
11
351.689
21
-111.565
0
LINE
8
BLACK
6
CONTINUOUS
10
42.0294
20
-201.001
11
42.0818
21
-200.983
0
LINE
8
BLACK
6
CONTINUOUS
10
55.075
20
-115.889
11
55.1001
21
-115.839
0
LINE
8
BLACK
6
CONTINUOUS
10
212.97
20
-166.929
11
212.986
21
-166.924
0
LINE
8
BLACK
6
CONTINUOUS
10
226.37
20
-126.974
11
226.34
21
-126.927
0
LINE
8
BLACK
6
CONTINUOUS
10
349.35
20
-114.232
11
349.326
21
-114.282
0
LINE
8
BLACK
6
CONTINUOUS
10
350.508
20
-111.294
11
350.68
21
-111.315
0
LINE
8
BLACK
6
CONTINUOUS
10
105.544
20
-203.499
11
104.677
21
-203.423
0
LINE
8
BLACK
6
CONTINUOUS
10
352.007
20
-115.978
11
352.042
21
-115.935
0
LINE
8
BLACK
6
CONTINUOUS
10
226.496
20
-127.222
11
226.474
21
-127.17
0
LINE
8
BLACK
6
CONTINUOUS
10
54.4198
20
-116.549
11
54.4682
21
-116.522
0
LINE
8
BLACK
6
CONTINUOUS
10
184.44
20
-212.274
11
184.441
21
-212.218
0
LINE
8
BLACK
6
CONTINUOUS
10
181.413
20
-211.495
11
181.389
21
-211.545
0
LINE
8
BLACK
6
CONTINUOUS
10
41.4273
20
-197.886
11
41.3719
21
-197.89
0
LINE
8
BLACK
6
CONTINUOUS
10
192.717
20
-166.942
11
192.733
21
-166.946
0
LINE
8
BLACK
6
CONTINUOUS
10
224.563
20
-212.762
11
224.581
21
-212.71
0
LINE
8
BLACK
6
CONTINUOUS
10
361.844
20
-200.004
11
361.863
21
-200.056
0
LINE
8
BLACK
6
CONTINUOUS
10
181.04
20
-129.608
11
181.095
21
-129.603
0
LINE
8
BLACK
6
CONTINUOUS
10
105.636
20
-111.329
11
105.78
21
-111.352
0
LINE
8
BLACK
6
CONTINUOUS
10
223.637
20
-126.998
11
223.609
21
-127.046
0
LINE
8
BLACK
6
CONTINUOUS
10
363.648
20
-197.912
11
363.593
21
-197.903
0
LINE
8
BLACK
6
CONTINUOUS
10
223.184
20
-213.813
11
223.239
21
-213.808
0
LINE
8
BLACK
6
CONTINUOUS
10
183.917
20
-213.402
11
183.957
21
-213.364
0
LINE
8
BLACK
6
CONTINUOUS
10
234.551
20
-169.27
11
248.337
21
-166.84
0
LINE
8
BLACK
6
CONTINUOUS
10
364.434
20
-200.67
11
364.475
21
-200.632
0
LINE
8
BLACK
6
CONTINUOUS
10
361.957
20
-200.257
11
361.984
21
-200.306
0
LINE
8
BLACK
6
CONTINUOUS
10
364.897
20
-199.047
11
364.881
21
-198.994
0
LINE
8
BLACK
6
CONTINUOUS
10
294.819
20
-197.331
11
292.388
21
-183.545
0
LINE
8
BLACK
6
CONTINUOUS
10
55.1989
20
-114.703
11
55.1828
21
-114.649
0
LINE
8
BLACK
6
CONTINUOUS
10
223.818
20
-210.81
11
223.769
21
-210.784
0
LINE
8
BLACK
6
CONTINUOUS
10
226.533
20
-127.326
11
226.515
21
-127.273
0
LINE
8
BLACK
6
CONTINUOUS
10
123.145
20
-127.41
11
109.359
21
-124.979
0
LINE
8
BLACK
6
CONTINUOUS
10
225.463
20
-129.353
11
225.516
21
-129.336
0
LINE
8
BLACK
6
CONTINUOUS
10
365.771
20
-202.022
11
365.643
21
-202.141
0
LINE
8
BLACK
6
CONTINUOUS
10
179.779
20
-129.14
11
179.818
21
-129.179
0
LINE
8
BLACK
6
CONTINUOUS
10
52.524
20
-116.268
11
52.5637
21
-116.306
0
LINE
8
BLACK
6
CONTINUOUS
10
182.419
20
-127.469
11
182.4
21
-127.417
0
LINE
8
BLACK
6
CONTINUOUS
10
353.445
20
-112.655
11
353.568
21
-112.777
0
LINE
8
BLACK
6
CONTINUOUS
10
184.363
20
-212.71
11
184.38
21
-212.657
0
LINE
8
BLACK
6
CONTINUOUS
10
180.873
20
-126.414
11
180.818
21
-126.416
0
LINE
8
BLACK
6
CONTINUOUS
10
364.35
20
-200.741
11
364.393
21
-200.706
0
LINE
8
BLACK
6
CONTINUOUS
10
225.516
20
-126.3
11
225.463
21
-126.283
0
LINE
8
BLACK
6
CONTINUOUS
10
361.957
20
-198.714
11
361.931
21
-198.763
0
LINE
8
BLACK
6
CONTINUOUS
10
53.2887
20
-116.697
11
53.343
21
-116.709
0
LINE
8
BLACK
6
CONTINUOUS
10
223.128
20
-210.62
11
223.073
21
-210.618
0
LINE
8
BLACK
6
CONTINUOUS
10
128.169
20
-181.198
11
130.6
21
-167.412
0
LINE
8
BLACK
6
CONTINUOUS
10
299.299
20
-111.286
11
299.445
21
-111.275
0
LINE
8
BLACK
6
CONTINUOUS
10
142.798
20
-202.982
11
143.75
21
-197.583
0
LINE
8
BLACK
6
CONTINUOUS
10
184.256
20
-212.965
11
184.281
21
-212.916
0
LINE
8
BLACK
6
CONTINUOUS
10
49.8473
20
-114.844
11
49.8998
21
-114.679
0
LINE
8
BLACK
6
CONTINUOUS
10
350.143
20
-116.423
11
350.194
21
-116.444
0
LINE
8
BLACK
6
CONTINUOUS
10
40.6456
20
-198.146
11
40.5997
21
-198.177
0
LINE
8
BLACK
6
CONTINUOUS
10
221.471
20
-212.024
11
221.465
21
-212.079
0
LINE
8
BLACK
6
CONTINUOUS
10
352.166
20
-115.75
11
352.192
21
-115.702
0
LINE
8
BLACK
6
CONTINUOUS
10
352.374
20
-114.843
11
352.369
21
-114.788
0
LINE
8
BLACK
6
CONTINUOUS
10
363.593
20
-197.903
11
363.538
21
-197.896
0
LINE
8
BLACK
6
CONTINUOUS
10
52.7815
20
-116.478
11
52.8284
21
-116.508
0
LINE
8
BLACK
6
CONTINUOUS
10
182.145
20
-126.99
11
182.108
21
-126.948
0
LINE
8
BLACK
6
CONTINUOUS
10
351.23
20
-116.489
11
351.283
21
-116.473
0
LINE
8
BLACK
6
CONTINUOUS
10
183.239
20
-210.669
11
183.185
21
-210.656
0
LINE
8
BLACK
6
CONTINUOUS
10
179.634
20
-128.972
11
179.668
21
-129.016
0
LINE
8
BLACK
6
CONTINUOUS
10
365.894
20
-201.898
11
365.771
21
-202.022
0
LINE
8
BLACK
6
CONTINUOUS
10
50.8326
20
-113.035
11
50.9471
21
-112.905
0
LINE
8
BLACK
6
CONTINUOUS
10
304.619
20
-156.916
11
302.188
21
-143.129
0
LINE
8
BLACK
6
CONTINUOUS
10
224.643
20
-212.44
11
224.65
21
-212.384
0
LINE
8
BLACK
6
CONTINUOUS
10
183.185
20
-210.656
11
183.131
21
-210.645
0
LINE
8
BLACK
6
CONTINUOUS
10
224.093
20
-210.997
11
224.05
21
-210.962
0
LINE
8
BLACK
6
CONTINUOUS
10
192.635
20
-166.918
11
192.651
21
-166.924
0
LINE
8
BLACK
6
CONTINUOUS
10
328.228
20
-138.061
11
342.227
21
-138.061
0
LINE
8
BLACK
6
CONTINUOUS
10
351.176
20
-113.405
11
351.122
21
-113.392
0
LINE
8
BLACK
6
CONTINUOUS
10
182.454
20
-128.452
11
182.468
21
-128.398
0
LINE
8
BLACK
6
CONTINUOUS
10
52.975
20
-113.695
11
52.9252
21
-113.72
0
LINE
8
BLACK
6
CONTINUOUS
10
223.128
20
-213.817
11
223.184
21
-213.813
0
LINE
8
BLACK
6
CONTINUOUS
10
139.475
20
-144.504
11
141.906
21
-130.718
0
LINE
8
BLACK
6
CONTINUOUS
10
181.906
20
-126.757
11
181.862
21
-126.724
0
LINE
8
BLACK
6
CONTINUOUS
10
53.0256
20
-113.672
11
52.975
21
-113.695
0
LINE
8
BLACK
6
CONTINUOUS
10
366.865
20
-200.459
11
366.792
21
-200.617
0
LINE
8
BLACK
6
CONTINUOUS
10
180.984
20
-129.612
11
181.04
21
-129.608
0
LINE
8
BLACK
6
CONTINUOUS
10
361.787
20
-199.789
11
361.799
21
-199.844
0
LINE
8
BLACK
6
CONTINUOUS
10
192.323
20
-166.521
11
192.326
21
-166.538
0
LINE
8
BLACK
6
CONTINUOUS
10
225.409
20
-126.268
11
225.355
21
-126.255
0
LINE
8
BLACK
6
CONTINUOUS
10
363.372
20
-201.085
11
363.428
21
-201.084
0
LINE
8
BLACK
6
CONTINUOUS
10
52.1653
20
-114.571
11
52.1465
21
-114.623
0
LINE
8
BLACK
6
CONTINUOUS
10
192.318
20
-128.318
11
192.318
21
-166.453
0
LINE
8
BLACK
6
CONTINUOUS
10
223.799
20
-128.863
11
223.836
21
-128.904
0
LINE
8
BLACK
6
CONTINUOUS
10
223.349
20
-210.645
11
223.294
21
-210.636
0
LINE
8
BLACK
6
CONTINUOUS
10
364.746
20
-198.69
11
364.718
21
-198.642
0
LINE
8
BLACK
6
CONTINUOUS
10
363.648
20
-201.059
11
363.703
21
-201.048
0
LINE
8
BLACK
6
CONTINUOUS
10
54.0047
20
-116.704
11
54.0587
21
-116.691
0
LINE
8
BLACK
6
CONTINUOUS
10
192.221
20
-127.7
11
192.241
21
-127.767
0
LINE
8
BLACK
6
CONTINUOUS
10
42.8221
20
-200.419
11
42.8538
21
-200.373
0
LINE
8
BLACK
6
CONTINUOUS
10
53.6186
20
-116.741
11
53.6741
21
-116.741
0
LINE
8
BLACK
6
CONTINUOUS
10
362.994
20
-203.376
11
362.82
21
-203.398
0
LINE
8
BLACK
6
CONTINUOUS
10
192.431
20
-166.768
11
192.442
21
-166.781
0
LINE
8
BLACK
6
CONTINUOUS
10
320.214
20
-158.581
11
320.855
21
-157.111
0
LINE
8
BLACK
6
CONTINUOUS
10
180.707
20
-129.6
11
180.762
21
-129.606
0
LINE
8
BLACK
6
CONTINUOUS
10
212.903
20
-166.946
11
212.92
21
-166.942
0
LINE
8
BLACK
6
CONTINUOUS
10
351.23
20
-113.42
11
351.176
21
-113.405
0
LINE
8
BLACK
6
CONTINUOUS
10
182.799
20
-210.619
11
182.744
21
-210.621
0
LINE
8
BLACK
6
CONTINUOUS
10
167.131
20
-202.633
11
165.628
21
-202.368
0
LINE
8
BLACK
6
CONTINUOUS
10
239.834
20
-173.468
11
226.048
21
-175.899
0
LINE
8
BLACK
6
CONTINUOUS
10
223.998
20
-126.579
11
223.955
21
-126.615
0
LINE
8
BLACK
6
CONTINUOUS
10
40.5997
20
-200.789
11
40.6456
21
-200.82
0
LINE
8
BLACK
6
CONTINUOUS
10
362.673
20
-200.931
11
362.724
21
-200.954
0
LINE
8
BLACK
6
CONTINUOUS
10
40.469
20
-198.28
11
40.4279
21
-198.318
0
LINE
8
BLACK
6
CONTINUOUS
10
179.487
20
-127.291
11
179.463
21
-127.341
0
LINE
8
BLACK
6
CONTINUOUS
10
174.035
20
-202.923
11
173.083
21
-208.322
0
LINE
8
BLACK
6
CONTINUOUS
10
52.7815
20
-113.804
11
52.7356
21
-113.835
0
LINE
8
BLACK
6
CONTINUOUS
10
362.014
20
-200.353
11
362.045
21
-200.399
0
LINE
8
BLACK
6
CONTINUOUS
10
68.8531
20
-182.749
11
54.8541
21
-182.749
0
LINE
8
BLACK
6
CONTINUOUS
10
222.046
20
-210.98
11
222.003
21
-211.016
0
LINE
8
BLACK
6
CONTINUOUS
10
54.8536
20
-116.207
11
54.8899
21
-116.165
0
LINE
8
BLACK
6
CONTINUOUS
10
192.084
20
-127.379
11
192.116
21
-127.441
0
LINE
8
BLACK
6
CONTINUOUS
10
52.0663
20
-115.003
11
52.0624
21
-115.058
0
LINE
8
BLACK
6
CONTINUOUS
10
52.2863
20
-115.961
11
52.3156
21
-116.008
0
LINE
8
BLACK
6
CONTINUOUS
10
37.8196
20
-199.934
11
37.7707
21
-199.77
0
LINE
8
BLACK
6
CONTINUOUS
10
42.9124
20
-200.279
11
42.9391
21
-200.23
0
LINE
8
BLACK
6
CONTINUOUS
10
182.303
20
-128.809
11
182.33
21
-128.761
0
LINE
8
BLACK
6
CONTINUOUS
10
37.8739
20
-200.096
11
37.8196
21
-199.934
0
LINE
8
BLACK
6
CONTINUOUS
10
222.134
20
-213.524
11
222.18
21
-213.555
0
LINE
8
BLACK
6
CONTINUOUS
10
224.376
20
-126.349
11
224.326
21
-126.372
0
LINE
8
BLACK
6
CONTINUOUS
10
179.601
20
-128.927
11
179.634
21
-128.972
0
LINE
8
BLACK
6
CONTINUOUS
10
42.9876
20
-200.13
11
43.0092
21
-200.079
0
LINE
8
BLACK
6
CONTINUOUS
10
102.191
20
-144.649
11
88.1916
21
-144.649
0
LINE
8
BLACK
6
CONTINUOUS
10
182.145
20
-129.037
11
182.179
21
-128.994
0
LINE
8
BLACK
6
CONTINUOUS
10
41.5682
20
-203.318
11
41.4017
21
-203.281
0
LINE
8
BLACK
6
CONTINUOUS
10
182.744
20
-213.815
11
182.799
21
-213.818
0
LINE
8
BLACK
6
CONTINUOUS
10
51.7213
20
-112.218
11
51.8635
21
-112.119
0
LINE
8
BLACK
6
CONTINUOUS
10
221.607
20
-211.545
11
221.585
21
-211.596
0
LINE
8
BLACK
6
CONTINUOUS
10
222.58
20
-213.745
11
222.634
21
-213.761
0
LINE
8
BLACK
6
CONTINUOUS
10
40.3497
20
-200.569
11
40.3881
21
-200.609
0
LINE
8
BLACK
6
CONTINUOUS
10
221.513
20
-212.63
11
221.528
21
-212.683
0
LINE
8
BLACK
6
CONTINUOUS
10
364.688
20
-200.376
11
364.718
21
-200.329
0
LINE
8
BLACK
6
CONTINUOUS
10
173.083
20
-208.322
11
172.012
21
-208.141
0
LINE
8
BLACK
6
CONTINUOUS
10
223.417
20
-127.679
11
223.413
21
-127.735
0
LINE
8
BLACK
6
CONTINUOUS
10
54.8541
20
-196.748
11
68.8531
21
-196.748
0
LINE
8
BLACK
6
CONTINUOUS
10
364.957
20
-199.541
11
364.958
21
-199.486
0
LINE
8
BLACK
6
CONTINUOUS
10
221.962
20
-211.053
11
221.923
21
-211.092
0
LINE
8
BLACK
6
CONTINUOUS
10
184.071
20
-213.242
11
184.105
21
-213.199
0
LINE
8
BLACK
6
CONTINUOUS
10
224.132
20
-129.155
11
224.179
21
-129.185
0
LINE
8
BLACK
6
CONTINUOUS
10
362.82
20
-203.398
11
362.646
21
-203.413
0
LINE
8
BLACK
6
CONTINUOUS
10
184.345
20
-211.674
11
184.326
21
-211.622
0
LINE
8
BLACK
6
CONTINUOUS
10
232.083
20
-198.689
11
233.41
21
-197.808
0
LINE
8
BLACK
6
CONTINUOUS
10
299.009
20
-111.32
11
299.154
21
-111.301
0
LINE
8
BLACK
6
CONTINUOUS
10
159.618
20
-167.4
11
162.049
21
-153.614
0
LINE
8
BLACK
6
CONTINUOUS
10
127.071
20
-161.661
11
140.857
21
-164.092
0
LINE
8
BLACK
6
CONTINUOUS
10
213.184
20
-166.794
11
213.195
21
-166.781
0
LINE
8
BLACK
6
CONTINUOUS
10
41.3719
20
-197.89
11
41.3167
21
-197.897
0
LINE
8
BLACK
6
CONTINUOUS
10
363.538
20
-201.075
11
363.593
21
-201.068
0
LINE
8
BLACK
6
CONTINUOUS
10
349.765
20
-116.193
11
349.808
21
-116.227
0
LINE
8
BLACK
6
CONTINUOUS
10
351.68
20
-116.276
11
351.725
21
-116.244
0
LINE
8
BLACK
6
CONTINUOUS
10
182.578
20
-210.64
11
182.524
21
-210.65
0
LINE
8
BLACK
6
CONTINUOUS
10
362.111
20
-200.488
11
362.147
21
-200.53
0
LINE
8
BLACK
6
CONTINUOUS
10
55.2516
20
-114.975
11
55.2448
21
-114.92
0
LINE
8
BLACK
6
CONTINUOUS
10
142.997
20
-193.452
11
144.545
21
-193.078
0
LINE
8
BLACK
6
CONTINUOUS
10
40.0502
20
-198.861
11
40.0295
21
-198.913
0
LINE
8
BLACK
6
CONTINUOUS
10
223.668
20
-210.739
11
223.616
21
-210.718
0
LINE
8
BLACK
6
CONTINUOUS
10
39.9936
20
-199.948
11
40.0106
21
-200.001
0
LINE
8
BLACK
6
CONTINUOUS
10
213.237
20
-166.727
11
213.246
21
-166.713
0
LINE
8
BLACK
6
CONTINUOUS
10
191.068
20
-126.464
11
191.132
21
-126.491
0
LINE
8
BLACK
6
CONTINUOUS
10
222.906
20
-210.625
11
222.851
21
-210.632
0
LINE
8
BLACK
6
CONTINUOUS
10
55.0197
20
-114.298
11
54.9896
21
-114.251
0
LINE
8
BLACK
6
CONTINUOUS
10
148.576
20
-204.001
11
147.55
21
-205.546
0
LINE
8
BLACK
6
CONTINUOUS
10
54.3705
20
-113.707
11
54.3203
21
-113.684
0
LINE
8
BLACK
6
CONTINUOUS
10
40.7405
20
-200.878
11
40.7894
21
-200.904
0
LINE
8
BLACK
6
CONTINUOUS
10
43.1244
20
-199.483
11
43.1234
21
-199.427
0
LINE
8
BLACK
6
CONTINUOUS
10
225.355
20
-129.38
11
225.409
21
-129.367
0
LINE
8
BLACK
6
CONTINUOUS
10
353.051
20
-112.315
11
353.186
21
-112.423
0
LINE
8
BLACK
6
CONTINUOUS
10
52.009
20
-112.026
11
52.1577
21
-111.938
0
LINE
8
BLACK
6
CONTINUOUS
10
181.916
20
-210.912
11
181.872
21
-210.945
0
LINE
8
BLACK
6
CONTINUOUS
10
212.835
20
-166.953
11
212.853
21
-166.952
0
LINE
8
BLACK
6
CONTINUOUS
10
223.719
20
-213.676
11
223.769
21
-213.652
0
LINE
8
BLACK
6
CONTINUOUS
10
184.406
20
-212.549
11
184.417
21
-212.494
0
LINE
8
BLACK
6
CONTINUOUS
10
363.483
20
-201.081
11
363.538
21
-201.075
0
LINE
8
BLACK
6
CONTINUOUS
10
226.045
20
-129.038
11
226.087
21
-129.002
0
LINE
8
BLACK
6
CONTINUOUS
10
53.0769
20
-116.631
11
53.129
21
-116.65
0
LINE
8
BLACK
6
CONTINUOUS
10
225.671
20
-129.275
11
225.721
21
-129.251
0
LINE
8
BLACK
6
CONTINUOUS
10
304.415
20
-124.062
11
304.415
21
-138.061
0
LINE
8
BLACK
6
CONTINUOUS
10
349.197
20
-115.203
11
349.207
21
-115.258
0
LINE
8
BLACK
6
CONTINUOUS
10
212.818
20
-166.953
11
212.835
21
-166.953
0
LINE
8
BLACK
6
CONTINUOUS
10
222.962
20
-210.621
11
222.906
21
-210.625
0
LINE
8
BLACK
6
CONTINUOUS
10
351.586
20
-116.335
11
351.633
21
-116.307
0
LINE
8
BLACK
6
CONTINUOUS
10
223.451
20
-128.176
11
223.465
21
-128.23
0
LINE
8
BLACK
6
CONTINUOUS
10
351.854
20
-116.138
11
351.894
21
-116.1
0
LINE
8
BLACK
6
CONTINUOUS
10
144.969
20
-190.673
11
151.715
21
-191.862
0
LINE
8
BLACK
6
CONTINUOUS
10
221.465
20
-212.079
11
221.461
21
-212.135
0
LINE
8
BLACK
6
CONTINUOUS
10
41.8144
20
-201.056
11
41.8688
21
-201.045
0
LINE
8
BLACK
6
CONTINUOUS
10
352.323
20
-111.845
11
352.475
21
-111.929
0
LINE
8
BLACK
6
CONTINUOUS
10
40.4279
20
-200.648
11
40.469
21
-200.686
0
LINE
8
BLACK
6
CONTINUOUS
10
294.19
20
-125.196
11
280.403
21
-127.627
0
LINE
8
BLACK
6
CONTINUOUS
10
41.9228
20
-201.033
11
41.9764
21
-201.018
0
LINE
8
BLACK
6
CONTINUOUS
10
223.564
20
-210.7
11
223.511
21
-210.683
0
LINE
8
BLACK
6
CONTINUOUS
10
264.489
20
-196.972
11
265.441
21
-202.372
0
LINE
8
BLACK
6
CONTINUOUS
10
52.072
20
-115.335
11
52.0797
21
-115.39
0
LINE
8
BLACK
6
CONTINUOUS
10
213.311
20
-166.538
11
213.314
21
-166.521
0
LINE
8
BLACK
6
CONTINUOUS
10
42.5588
20
-198.262
11
42.5158
21
-198.227
0
LINE
8
BLACK
6
CONTINUOUS
10
154.335
20
-171.597
11
151.904
21
-185.384
0
LINE
8
BLACK
6
CONTINUOUS
10
78.6666
20
-182.749
11
78.6666
21
-196.748
0
LINE
8
BLACK
6
CONTINUOUS
10
223.697
20
-126.904
11
223.666
21
-126.951
0
LINE
8
BLACK
6
CONTINUOUS
10
361.827
20
-199.02
11
361.812
21
-199.074
0
LINE
8
BLACK
6
CONTINUOUS
10
181.666
20
-211.132
11
181.629
21
-211.173
0
LINE
8
BLACK
6
CONTINUOUS
10
180.28
20
-129.482
11
180.332
21
-129.503
0
LINE
8
BLACK
6
CONTINUOUS
10
128.12
20
-128.287
11
125.689
21
-142.073
0
LINE
8
BLACK
6
CONTINUOUS
10
213.396
20
-127.76
11
213.416
21
-127.694
0
LINE
8
BLACK
6
CONTINUOUS
10
364.924
20
-199.155
11
364.911
21
-199.101
0
LINE
8
BLACK
6
CONTINUOUS
10
41.2365
20
-203.238
11
41.0728
21
-203.189
0
LINE
8
BLACK
6
CONTINUOUS
10
52.1465
20
-115.659
11
52.1653
21
-115.712
0
LINE
8
BLACK
6
CONTINUOUS
10
191.757
20
-126.929
11
191.805
21
-126.98
0
LINE
8
BLACK
6
CONTINUOUS
10
110.741
20
-144.567
11
108.31
21
-158.353
0
LINE
8
BLACK
6
CONTINUOUS
10
226.474
20
-128.465
11
226.496
21
-128.414
0
LINE
8
BLACK
6
CONTINUOUS
10
364.171
20
-203.061
11
364.008
21
-203.123
0
LINE
8
BLACK
6
CONTINUOUS
10
43.1004
20
-199.207
11
43.0898
21
-199.152
0
LINE
8
BLACK
6
CONTINUOUS
10
222.528
20
-210.709
11
222.475
21
-210.728
0
LINE
8
BLACK
6
CONTINUOUS
10
180.28
20
-126.545
11
180.23
21
-126.568
0
LINE
8
BLACK
6
CONTINUOUS
10
223.44
20
-128.121
11
223.451
21
-128.176
0
LINE
8
BLACK
6
CONTINUOUS
10
54.6074
20
-113.852
11
54.5621
21
-113.82
0
LINE
8
BLACK
6
CONTINUOUS
10
37.6118
20
-198.932
11
37.5973
21
-198.762
0
LINE
8
BLACK
6
CONTINUOUS
10
42.754
20
-198.459
11
42.7178
21
-198.417
0
LINE
8
BLACK
6
CONTINUOUS
10
190.803
20
-126.378
11
190.87
21
-126.396
0
LINE
8
BLACK
6
CONTINUOUS
10
52.9417
20
-111.576
11
53.1053
21
-111.52
0
LINE
8
BLACK
6
CONTINUOUS
10
272.072
20
-162.654
11
285.858
21
-160.224
0
LINE
8
BLACK
6
CONTINUOUS
10
92.6656
20
-196.748
11
92.6656
21
-182.749
0
LINE
8
BLACK
6
CONTINUOUS
10
223.73
20
-126.859
11
223.697
21
-126.904
0
LINE
8
BLACK
6
CONTINUOUS
10
226.474
20
-127.17
11
226.451
21
-127.12
0
LINE
8
BLACK
6
CONTINUOUS
10
225.866
20
-129.17
11
225.913
21
-129.139
0
LINE
8
BLACK
6
CONTINUOUS
10
85.8099
20
-125.599
11
85.8099
21
-139.598
0
LINE
8
BLACK
6
CONTINUOUS
10
226.55
20
-128.256
11
226.564
21
-128.203
0
LINE
8
BLACK
6
CONTINUOUS
10
226.399
20
-127.022
11
226.37
21
-126.974
0
LINE
8
BLACK
6
CONTINUOUS
10
362.479
20
-200.823
11
362.526
21
-200.852
0
LINE
8
BLACK
6
CONTINUOUS
10
221.528
20
-211.753
11
221.513
21
-211.806
0
LINE
8
BLACK
6
CONTINUOUS
10
362.987
20
-197.929
11
362.933
21
-197.943
0
LINE
8
BLACK
6
CONTINUOUS
10
181.367
20
-212.84
11
181.389
21
-212.891
0
LINE
8
BLACK
6
CONTINUOUS
10
224.581
20
-211.726
11
224.563
21
-211.674
0
LINE
8
BLACK
6
CONTINUOUS
10
42.7888
20
-198.503
11
42.754
21
-198.459
0
LINE
8
BLACK
6
CONTINUOUS
10
181.723
20
-126.632
11
181.674
21
-126.605
0
LINE
8
BLACK
6
CONTINUOUS
10
352.218
20
-114.257
11
352.192
21
-114.207
0
LINE
8
BLACK
6
CONTINUOUS
10
364.798
20
-200.183
11
364.821
21
-200.133
0
LINE
8
BLACK
6
CONTINUOUS
10
224.499
20
-212.916
11
224.522
21
-212.866
0
LINE
8
BLACK
6
CONTINUOUS
10
225.025
20
-129.418
11
225.08
21
-129.416
0
LINE
8
BLACK
6
CONTINUOUS
10
192.801
20
-166.953
11
192.818
21
-166.953
0
LINE
8
BLACK
6
CONTINUOUS
10
363.916
20
-197.986
11
363.863
21
-197.967
0
LINE
8
BLACK
6
CONTINUOUS
10
350.903
20
-116.55
11
350.958
21
-116.544
0
LINE
8
BLACK
6
CONTINUOUS
10
40.2107
20
-198.57
11
40.1798
21
-198.616
0
LINE
8
BLACK
6
CONTINUOUS
10
40.1505
20
-198.663
11
40.1229
21
-198.711
0
LINE
8
BLACK
6
CONTINUOUS
10
170.991
20
-209.679
11
167.741
21
-209.106
0
LINE
8
BLACK
6
CONTINUOUS
10
351.438
20
-116.412
11
351.488
21
-116.388
0
LINE
8
BLACK
6
CONTINUOUS
10
38.313
20
-201.02
11
38.2268
21
-200.872
0
LINE
8
BLACK
6
CONTINUOUS
10
37.69
20
-199.439
11
37.6582
21
-199.271
0
LINE
8
BLACK
6
CONTINUOUS
10
181.205
20
-126.44
11
181.15
21
-126.431
0
LINE
8
BLACK
6
CONTINUOUS
10
41.9228
20
-197.933
11
41.8688
21
-197.92
0
LINE
8
BLACK
6
CONTINUOUS
10
41.4273
20
-201.08
11
41.4828
21
-201.082
0
LINE
8
BLACK
6
CONTINUOUS
10
364.881
20
-199.977
11
364.897
21
-199.924
0
LINE
8
BLACK
6
CONTINUOUS
10
144.545
20
-193.078
11
144.969
21
-190.673
0
LINE
8
BLACK
6
CONTINUOUS
10
181.872
20
-213.491
11
181.916
21
-213.524
0
LINE
8
BLACK
6
CONTINUOUS
10
362.646
20
-203.413
11
362.472
21
-203.422
0
LINE
8
BLACK
6
CONTINUOUS
10
180.23
20
-129.459
11
180.28
21
-129.482
0
LINE
8
BLACK
6
CONTINUOUS
10
183.45
20
-210.739
11
183.398
21
-210.718
0
LINE
8
BLACK
6
CONTINUOUS
10
226.607
20
-127.707
11
226.602
21
-127.651
0
LINE
8
BLACK
6
CONTINUOUS
10
222.089
20
-213.491
11
222.134
21
-213.524
0
LINE
8
BLACK
6
CONTINUOUS
10
363.041
20
-201.054
11
363.096
21
-201.064
0
LINE
8
BLACK
6
CONTINUOUS
10
354.117
20
-113.447
11
354.213
21
-113.592
0
LINE
8
BLACK
6
CONTINUOUS
10
225.819
20
-129.199
11
225.866
21
-129.17
0
LINE
8
BLACK
6
CONTINUOUS
10
184.2
20
-213.062
11
184.229
21
-213.014
0
LINE
8
BLACK
6
CONTINUOUS
10
53.235
20
-113.599
11
53.1817
21
-113.614
0
LINE
8
BLACK
6
CONTINUOUS
10
179.703
20
-129.058
11
179.74
21
-129.1
0
LINE
8
BLACK
6
CONTINUOUS
10
213.741
20
-127.081
11
213.785
21
-127.027
0
LINE
8
BLACK
6
CONTINUOUS
10
349.376
20
-114.183
11
349.35
21
-114.232
0
LINE
8
BLACK
6
CONTINUOUS
10
225.301
20
-129.391
11
225.355
21
-129.38
0
LINE
8
BLACK
6
CONTINUOUS
10
54.8159
20
-116.248
11
54.8536
21
-116.207
0
LINE
8
BLACK
6
CONTINUOUS
10
174.962
20
-215.718
11
105.544
21
-203.499
0
LINE
8
BLACK
6
CONTINUOUS
10
181.828
20
-210.98
11
181.786
21
-211.016
0
LINE
8
BLACK
6
CONTINUOUS
10
367.295
20
-198.6
11
367.285
21
-198.774
0
LINE
8
BLACK
6
CONTINUOUS
10
223.537
20
-128.44
11
223.559
21
-128.49
0
LINE
8
BLACK
6
CONTINUOUS
10
180.49
20
-129.556
11
180.543
21
-129.57
0
LINE
8
BLACK
6
CONTINUOUS
10
61.9979
20
-158.648
11
75.9969
21
-158.648
0
LINE
8
BLACK
6
CONTINUOUS
10
40.1505
20
-200.303
11
40.1798
21
-200.35
0
LINE
8
BLACK
6
CONTINUOUS
10
179.945
20
-129.286
11
179.99
21
-129.319
0
LINE
8
BLACK
6
CONTINUOUS
10
40.9932
20
-200.992
11
41.0459
21
-201.01
0
LINE
8
BLACK
6
CONTINUOUS
10
213.172
20
-166.806
11
213.184
21
-166.794
0
LINE
8
BLACK
6
CONTINUOUS
10
54.6946
20
-116.362
11
54.7363
21
-116.325
0
LINE
8
BLACK
6
CONTINUOUS
10
354.784
20
-114.852
11
354.83
21
-115.019
0
LINE
8
BLACK
6
CONTINUOUS
10
149.36
20
-170.72
11
135.574
21
-168.289
0
LINE
8
BLACK
6
CONTINUOUS
10
362.014
20
-198.618
11
361.984
21
-198.666
0
LINE
8
BLACK
6
CONTINUOUS
10
340.074
20
-157.111
11
340.716
21
-158.581
0
LINE
8
BLACK
6
CONTINUOUS
10
224.447
20
-211.422
11
224.418
21
-211.374
0
LINE
8
BLACK
6
CONTINUOUS
10
367.053
20
-199.97
11
366.996
21
-200.135
0
LINE
8
BLACK
6
CONTINUOUS
10
225.62
20
-126.338
11
225.568
21
-126.318
0
LINE
8
BLACK
6
CONTINUOUS
10
182.156
20
-210.772
11
182.106
21
-210.797
0
LINE
8
BLACK
6
CONTINUOUS
10
54.3203
20
-113.684
11
54.2693
21
-113.662
0
LINE
8
BLACK
6
CONTINUOUS
10
363.863
20
-197.967
11
363.81
21
-197.951
0
LINE
8
BLACK
6
CONTINUOUS
10
224.006
20
-213.508
11
224.05
21
-213.474
0
LINE
8
BLACK
6
CONTINUOUS
10
350.46
20
-116.523
11
350.515
21
-116.533
0
LINE
8
BLACK
6
CONTINUOUS
10
226.275
20
-126.837
11
226.24
21
-126.794
0
LINE
8
BLACK
6
CONTINUOUS
10
179.99
20
-129.319
11
180.036
21
-129.35
0
LINE
8
BLACK
6
CONTINUOUS
10
226.127
20
-126.672
11
226.087
21
-126.634
0
LINE
8
BLACK
6
CONTINUOUS
10
182.514
20
-127.958
11
182.511
21
-127.902
0
LINE
8
BLACK
6
CONTINUOUS
10
192.342
20
-166.604
11
192.347
21
-166.62
0
LINE
8
BLACK
6
CONTINUOUS
10
181.575
20
-126.556
11
181.524
21
-126.534
0
LINE
8
BLACK
6
CONTINUOUS
10
183.131
20
-213.792
11
183.185
21
-213.781
0
LINE
8
BLACK
6
CONTINUOUS
10
42.8221
20
-198.547
11
42.7888
21
-198.503
0
LINE
8
BLACK
6
CONTINUOUS
10
364.489
20
-202.919
11
364.331
21
-202.993
0
LINE
8
BLACK
6
CONTINUOUS
10
350.625
20
-116.547
11
350.681
21
-116.551
0
LINE
8
BLACK
6
CONTINUOUS
10
183.649
20
-213.599
11
183.696
21
-213.57
0
LINE
8
BLACK
6
CONTINUOUS
10
40.1798
20
-198.616
11
40.1505
21
-198.663
0
LINE
8
BLACK
6
CONTINUOUS
10
190.87
20
-126.396
11
190.937
21
-126.416
0
LINE
8
BLACK
6
CONTINUOUS
10
182.108
20
-129.079
11
182.145
21
-129.037
0
LINE
8
BLACK
6
CONTINUOUS
10
223.666
20
-128.685
11
223.697
21
-128.731
0
LINE
8
BLACK
6
CONTINUOUS
10
42.9391
20
-198.736
11
42.9124
21
-198.687
0
LINE
8
BLACK
6
CONTINUOUS
10
39.9362
20
-199.677
11
39.9439
21
-199.732
0
LINE
8
BLACK
6
CONTINUOUS
10
54.5157
20
-113.789
11
54.4682
21
-113.76
0
LINE
8
BLACK
6
CONTINUOUS
10
364.552
20
-200.551
11
364.588
21
-200.509
0
LINE
8
BLACK
6
CONTINUOUS
10
39.0495
20
-201.958
11
38.9309
21
-201.835
0
LINE
8
BLACK
6
CONTINUOUS
10
52.0605
20
-115.113
11
52.0605
21
-115.169
0
LINE
8
BLACK
6
CONTINUOUS
10
224.544
20
-211.622
11
224.522
21
-211.571
0
LINE
8
BLACK
6
CONTINUOUS
10
364.588
20
-200.509
11
364.623
21
-200.466
0
LINE
8
BLACK
6
CONTINUOUS
10
43.1206
20
-199.372
11
43.1157
21
-199.317
0
LINE
8
BLACK
6
CONTINUOUS
10
84.9296
20
-179.167
11
85.5709
21
-177.698
0
LINE
8
BLACK
6
CONTINUOUS
10
352.107
20
-114.064
11
352.075
21
-114.018
0
LINE
8
BLACK
6
CONTINUOUS
10
181.705
20
-213.345
11
181.744
21
-213.383
0
LINE
8
BLACK
6
CONTINUOUS
10
40.5997
20
-198.177
11
40.555
21
-198.21
0
LINE
8
BLACK
6
CONTINUOUS
10
182.524
20
-213.786
11
182.578
21
-213.796
0
LINE
8
BLACK
6
CONTINUOUS
10
181.472
20
-129.513
11
181.524
21
-129.493
0
LINE
8
BLACK
6
CONTINUOUS
10
180.332
20
-126.523
11
180.28
21
-126.545
0
LINE
8
BLACK
6
CONTINUOUS
10
181.524
20
-129.493
11
181.575
21
-129.471
0
LINE
8
BLACK
6
CONTINUOUS
10
53.1817
20
-116.668
11
53.235
21
-116.684
0
LINE
8
BLACK
6
CONTINUOUS
10
349.946
20
-113.588
11
349.899
21
-113.617
0
LINE
8
BLACK
6
CONTINUOUS
10
167.243
20
-193.209
11
166.427
21
-197.838
0
LINE
8
BLACK
6
CONTINUOUS
10
183.788
20
-210.929
11
183.743
21
-210.897
0
LINE
8
BLACK
6
CONTINUOUS
10
213.439
20
-127.628
11
213.464
21
-127.563
0
LINE
8
BLACK
6
CONTINUOUS
10
52.8284
20
-113.774
11
52.7815
21
-113.804
0
LINE
8
BLACK
6
CONTINUOUS
10
182.057
20
-213.613
11
182.106
21
-213.639
0
LINE
8
BLACK
6
CONTINUOUS
10
275.429
20
-128.504
11
261.643
21
-130.935
0
LINE
8
BLACK
6
CONTINUOUS
10
214.696
20
-126.41
11
214.763
21
-126.389
0
LINE
8
BLACK
6
CONTINUOUS
10
364.95
20
-199.652
11
364.954
21
-199.597
0
LINE
8
BLACK
6
CONTINUOUS
10
352.374
20
-115.065
11
352.377
21
-115.01
0
LINE
8
BLACK
6
CONTINUOUS
10
181.259
20
-129.576
11
181.313
21
-129.563
0
LINE
8
BLACK
6
CONTINUOUS
10
257.901
20
-199.061
11
256.398
21
-199.326
0
LINE
8
BLACK
6
CONTINUOUS
10
53.7296
20
-116.74
11
53.7851
21
-116.736
0
LINE
8
BLACK
6
CONTINUOUS
10
354.732
20
-114.687
11
354.784
21
-114.852
0
LINE
8
BLACK
6
CONTINUOUS
10
361.76
20
-199.402
11
361.758
21
-199.458
0
LINE
8
BLACK
6
CONTINUOUS
10
213.134
20
-166.841
11
213.147
21
-166.83
0
LINE
8
BLACK
6
CONTINUOUS
10
182.511
20
-128.124
11
182.514
21
-128.069
0
LINE
8
BLACK
6
CONTINUOUS
10
226.587
20
-128.094
11
226.595
21
-128.039
0
LINE
8
BLACK
6
CONTINUOUS
10
43.0631
20
-199.044
11
43.047
21
-198.991
0
LINE
8
BLACK
6
CONTINUOUS
10
191.437
20
-126.66
11
191.494
21
-126.7
0
LINE
8
BLACK
6
CONTINUOUS
10
179.74
20
-126.927
11
179.703
21
-126.968
0
LINE
8
BLACK
6
CONTINUOUS
10
330.609
20
-176.161
11
344.608
21
-176.161
0
LINE
8
BLACK
6
CONTINUOUS
10
349.189
20
-114.761
11
349.184
21
-114.816
0
LINE
8
BLACK
6
CONTINUOUS
10
54.7768
20
-116.287
11
54.8159
21
-116.248
0
LINE
8
BLACK
6
CONTINUOUS
10
213.002
20
-166.918
11
213.018
21
-166.911
0
LINE
8
BLACK
6
CONTINUOUS
10
221.657
20
-211.446
11
221.631
21
-211.495
0
LINE
8
BLACK
6
CONTINUOUS
10
351.068
20
-116.528
11
351.122
21
-116.517
0
LINE
8
BLACK
6
CONTINUOUS
10
42.8538
20
-200.373
11
42.8839
21
-200.327
0
LINE
8
BLACK
6
CONTINUOUS
10
352.282
20
-114.41
11
352.262
21
-114.358
0
LINE
8
BLACK
6
CONTINUOUS
10
349.178
20
-114.927
11
349.178
21
-114.982
0
LINE
8
BLACK
6
CONTINUOUS
10
225.301
20
-126.244
11
225.246
21
-126.235
0
LINE
8
BLACK
6
CONTINUOUS
10
55.2132
20
-115.526
11
55.2257
21
-115.472
0
LINE
8
BLACK
6
CONTINUOUS
10
182.206
20
-210.749
11
182.156
21
-210.772
0
LINE
8
BLACK
6
CONTINUOUS
10
182.274
20
-127.17
11
182.244
21
-127.123
0
LINE
8
BLACK
6
CONTINUOUS
10
146.88
20
-131.595
11
144.449
21
-145.381
0
LINE
8
BLACK
6
CONTINUOUS
10
223.914
20
-210.866
11
223.867
21
-210.837
0
LINE
8
BLACK
6
CONTINUOUS
10
361.812
20
-199.897
11
361.827
21
-199.951
0
LINE
8
BLACK
6
CONTINUOUS
10
42.7888
20
-200.463
11
42.8221
21
-200.419
0
LINE
8
BLACK
6
CONTINUOUS
10
182.468
20
-127.628
11
182.454
21
-127.575
0
LINE
8
BLACK
6
CONTINUOUS
10
212.87
20
-166.95
11
212.886
21
-166.948
0
LINE
8
BLACK
6
CONTINUOUS
10
223.697
20
-128.731
11
223.73
21
-128.776
0
LINE
8
BLACK
6
CONTINUOUS
10
350.246
20
-116.464
11
350.299
21
-116.481
0
LINE
8
BLACK
6
CONTINUOUS
10
49.7596
20
-115.179
11
49.8006
21
-115.011
0
LINE
8
BLACK
6
CONTINUOUS
10
224.635
20
-212.494
11
224.643
21
-212.44
0
LINE
8
BLACK
6
CONTINUOUS
10
225.62
20
-129.297
11
225.671
21
-129.275
0
LINE
8
BLACK
6
CONTINUOUS
10
225.516
20
-129.336
11
225.568
21
-129.318
0
LINE
8
BLACK
6
CONTINUOUS
10
37.5886
20
-198.592
11
37.5858
21
-198.421
0
LINE
8
BLACK
6
CONTINUOUS
10
342.227
20
-138.061
11
342.227
21
-124.062
0
LINE
8
BLACK
6
CONTINUOUS
10
349.433
20
-115.822
11
349.464
21
-115.868
0
LINE
8
BLACK
6
CONTINUOUS
10
40.6926
20
-200.85
11
40.7405
21
-200.878
0
LINE
8
BLACK
6
CONTINUOUS
10
54.8536
20
-114.075
11
54.8159
21
-114.035
0
LINE
8
BLACK
6
CONTINUOUS
10
179.779
20
-126.887
11
179.74
21
-126.927
0
LINE
8
BLACK
6
CONTINUOUS
10
350.406
20
-113.398
11
350.352
21
-113.412
0
LINE
8
BLACK
6
CONTINUOUS
10
181.413
20
-212.941
11
181.439
21
-212.99
0
LINE
8
BLACK
6
CONTINUOUS
10
40.8391
20
-198.037
11
40.7894
21
-198.062
0
LINE
8
BLACK
6
CONTINUOUS
10
40.4378
20
-202.938
11
40.2849
21
-202.862
0
LINE
8
BLACK
6
CONTINUOUS
10
223.497
20
-127.3
11
223.48
21
-127.352
0
LINE
8
BLACK
6
CONTINUOUS
10
42.3799
20
-200.835
11
42.4263
21
-200.805
0
LINE
8
BLACK
6
CONTINUOUS
10
43.0092
20
-198.887
11
42.9876
21
-198.836
0
LINE
8
BLACK
6
CONTINUOUS
10
184.345
20
-212.762
11
184.363
21
-212.71
0
LINE
8
BLACK
6
CONTINUOUS
10
183.743
20
-213.54
11
183.788
21
-213.508
0
LINE
8
BLACK
6
CONTINUOUS
10
54.8541
20
-163.699
11
54.8541
21
-177.698
0
LINE
8
BLACK
6
CONTINUOUS
10
179.42
20
-127.443
11
179.401
21
-127.495
0
LINE
8
BLACK
6
CONTINUOUS
10
364.26
20
-200.807
11
364.305
21
-200.775
0
LINE
8
BLACK
6
CONTINUOUS
10
349.197
20
-114.706
11
349.189
21
-114.761
0
LINE
8
BLACK
6
CONTINUOUS
10
351.358
20
-111.458
11
351.524
21
-111.509
0
LINE
8
BLACK
6
CONTINUOUS
10
351.971
20
-113.889
11
351.933
21
-113.848
0
LINE
8
BLACK
6
CONTINUOUS
10
52.6048
20
-116.344
11
52.6472
21
-116.38
0
LINE
8
BLACK
6
CONTINUOUS
10
192.442
20
-166.781
11
192.453
21
-166.794
0
LINE
8
BLACK
6
CONTINUOUS
10
352.282
20
-115.499
11
352.3
21
-115.446
0
LINE
8
BLACK
6
CONTINUOUS
10
42.2347
20
-198.049
11
42.1845
21
-198.025
0
LINE
8
BLACK
6
CONTINUOUS
10
180.873
20
-129.613
11
180.929
21
-129.613
0
LINE
8
BLACK
6
CONTINUOUS
10
364.773
20
-198.738
11
364.746
21
-198.69
0
LINE
8
BLACK
6
CONTINUOUS
10
50.3311
20
-113.738
11
50.4215
21
-113.591
0
LINE
8
BLACK
6
CONTINUOUS
10
54.0587
20
-113.592
11
54.0047
21
-113.579
0
LINE
8
BLACK
6
CONTINUOUS
10
183.076
20
-210.636
11
183.021
21
-210.628
0
LINE
8
BLACK
6
CONTINUOUS
10
192.288
20
-127.971
11
192.299
21
-128.04
0
LINE
8
BLACK
6
CONTINUOUS
10
181.786
20
-211.016
11
181.744
21
-211.053
0
LINE
8
BLACK
6
CONTINUOUS
10
296.621
20
-138.982
11
294.19
21
-125.196
0
LINE
8
BLACK
6
CONTINUOUS
10
224.041
20
-126.545
11
223.998
21
-126.579
0
LINE
8
BLACK
6
CONTINUOUS
10
223.294
20
-213.801
11
223.349
21
-213.792
0
LINE
8
BLACK
6
CONTINUOUS
10
222.227
20
-213.585
11
222.275
21
-213.613
0
LINE
8
BLACK
6
CONTINUOUS
10
224.658
20
-212.163
11
224.655
21
-212.107
0
LINE
8
BLACK
6
CONTINUOUS
10
349.247
20
-114.489
11
349.232
21
-114.543
0
LINE
8
BLACK
6
CONTINUOUS
10
226.24
20
-126.794
11
226.204
21
-126.752
0
LINE
8
BLACK
6
CONTINUOUS
10
37.6582
20
-199.271
11
37.6321
21
-199.102
0
LINE
8
BLACK
6
CONTINUOUS
10
174.83
20
-198.418
11
176.157
21
-199.299
0
LINE
8
BLACK
6
CONTINUOUS
10
181.872
20
-210.945
11
181.828
21
-210.98
0
LINE
8
BLACK
6
CONTINUOUS
10
352.011
20
-111.694
11
352.168
21
-111.767
0
LINE
8
BLACK
6
CONTINUOUS
10
224.132
20
-126.481
11
224.086
21
-126.512
0
LINE
8
BLACK
6
CONTINUOUS
10
364.746
20
-200.282
11
364.773
21
-200.233
0
LINE
8
BLACK
6
CONTINUOUS
10
51.4476
20
-112.429
11
51.5826
21
-112.321
0
LINE
8
BLACK
6
CONTINUOUS
10
361.984
20
-198.666
11
361.957
21
-198.714
0
LINE
8
BLACK
6
CONTINUOUS
10
182.688
20
-213.811
11
182.744
21
-213.815
0
LINE
8
BLACK
6
CONTINUOUS
10
223.43
20
-127.569
11
223.423
21
-127.624
0
LINE
8
BLACK
6
CONTINUOUS
10
362.775
20
-197.996
11
362.724
21
-198.017
0
LINE
8
BLACK
6
CONTINUOUS
10
354.87
20
-115.188
11
354.905
21
-115.358
0
LINE
8
BLACK
6
CONTINUOUS
10
225.671
20
-126.36
11
225.62
21
-126.338
0
LINE
8
BLACK
6
CONTINUOUS
10
226.002
20
-129.074
11
226.045
21
-129.038
0
LINE
8
BLACK
6
CONTINUOUS
10
180.652
20
-129.592
11
180.707
21
-129.6
0
LINE
8
BLACK
6
CONTINUOUS
10
229.918
20
-215.718
11
174.962
21
-215.718
0
LINE
8
BLACK
6
CONTINUOUS
10
182.106
20
-213.639
11
182.156
21
-213.664
0
LINE
8
BLACK
6
CONTINUOUS
10
192.383
20
-166.698
11
192.391
21
-166.713
0
LINE
8
BLACK
6
CONTINUOUS
10
362.184
20
-198.399
11
362.147
21
-198.441
0
LINE
8
BLACK
6
CONTINUOUS
10
221.812
20
-213.22
11
221.847
21
-213.263
0
LINE
8
BLACK
6
CONTINUOUS
10
182.179
20
-127.033
11
182.145
21
-126.99
0
LINE
8
BLACK
6
CONTINUOUS
10
349.376
20
-115.726
11
349.404
21
-115.774
0
LINE
8
BLACK
6
CONTINUOUS
10
192.32
20
-166.487
11
192.321
21
-166.504
0
LINE
8
BLACK
6
CONTINUOUS
10
364.881
20
-198.994
11
364.863
21
-198.941
0
LINE
8
BLACK
6
CONTINUOUS
10
41.5938
20
-197.884
11
41.5383
21
-197.883
0
LINE
8
BLACK
6
CONTINUOUS
10
226.166
20
-126.711
11
226.127
21
-126.672
0
LINE
8
BLACK
6
CONTINUOUS
10
184.426
20
-212.44
11
184.432
21
-212.384
0
LINE
8
BLACK
6
CONTINUOUS
10
179.441
20
-128.635
11
179.463
21
-128.686
0
LINE
8
BLACK
6
CONTINUOUS
10
352.362
20
-115.176
11
352.369
21
-115.121
0
LINE
8
BLACK
6
CONTINUOUS
10
349.899
20
-116.291
11
349.946
21
-116.321
0
LINE
8
BLACK
6
CONTINUOUS
10
266
20
-183.069
11
279.786
21
-180.638
0
LINE
8
BLACK
6
CONTINUOUS
10
99.8089
20
-139.598
11
99.8089
21
-125.599
0
LINE
8
BLACK
6
CONTINUOUS
10
352.192
20
-115.702
11
352.218
21
-115.652
0
LINE
8
BLACK
6
CONTINUOUS
10
41.1529
20
-197.927
11
41.0991
21
-197.941
0
LINE
8
BLACK
6
CONTINUOUS
10
224.326
20
-129.264
11
224.376
21
-129.287
0
LINE
8
BLACK
6
CONTINUOUS
10
362.933
20
-197.943
11
362.88
21
-197.959
0
LINE
8
BLACK
6
CONTINUOUS
10
192.307
20
-128.109
11
192.314
21
-128.178
0
LINE
8
BLACK
6
CONTINUOUS
10
221.631
20
-211.495
11
221.607
21
-211.545
0
LINE
8
BLACK
6
CONTINUOUS
10
184.139
20
-211.282
11
184.105
21
-211.238
0
LINE
8
BLACK
6
CONTINUOUS
10
192.321
20
-166.504
11
192.323
21
-166.521
0
LINE
8
BLACK
6
CONTINUOUS
10
364.018
20
-198.028
11
363.967
21
-198.006
0
LINE
8
BLACK
6
CONTINUOUS
10
265.816
20
-196.091
11
264.489
21
-196.972
0
LINE
8
BLACK
6
CONTINUOUS
10
43.0092
20
-200.079
11
43.029
21
-200.027
0
LINE
8
BLACK
6
CONTINUOUS
10
184.38
20
-211.779
11
184.363
21
-211.726
0
LINE
8
BLACK
6
CONTINUOUS
10
183.696
20
-210.866
11
183.649
21
-210.837
0
LINE
8
BLACK
6
CONTINUOUS
10
361.884
20
-200.107
11
361.907
21
-200.158
0
LINE
8
BLACK
6
CONTINUOUS
10
224.093
20
-213.439
11
224.135
21
-213.402
0
LINE
8
BLACK
6
CONTINUOUS
10
53.9502
20
-116.715
11
54.0047
21
-116.704
0
LINE
8
BLACK
6
CONTINUOUS
10
364.514
20
-198.379
11
364.475
21
-198.34
0
LINE
8
BLACK
6
CONTINUOUS
10
55.2257
20
-115.472
11
55.2362
21
-115.417
0
LINE
8
BLACK
6
CONTINUOUS
10
213.699
20
-127.137
11
213.741
21
-127.081
0
LINE
8
BLACK
6
CONTINUOUS
10
43.1157
20
-199.649
11
43.1206
21
-199.594
0
LINE
8
BLACK
6
CONTINUOUS
10
340.716
20
-158.581
11
344.016
21
-158.581
0
LINE
8
BLACK
6
CONTINUOUS
10
362.775
20
-200.975
11
362.827
21
-200.995
0
LINE
8
BLACK
6
CONTINUOUS
10
41.736
20
-203.35
11
41.5682
21
-203.318
0
LINE
8
BLACK
6
CONTINUOUS
10
180.707
20
-126.427
11
180.652
21
-126.435
0
LINE
8
BLACK
6
CONTINUOUS
10
224.522
20
-211.571
11
224.499
21
-211.52
0
LINE
8
BLACK
6
CONTINUOUS
10
43.109
20
-199.704
11
43.1157
21
-199.649
0
LINE
8
BLACK
6
CONTINUOUS
10
352.075
20
-115.89
11
352.107
21
-115.845
0
LINE
8
BLACK
6
CONTINUOUS
10
225.958
20
-126.528
11
225.913
21
-126.496
0
LINE
8
BLACK
6
CONTINUOUS
10
182.506
20
-127.847
11
182.5
21
-127.792
0
LINE
8
BLACK
6
CONTINUOUS
10
158.236
20
-147.812
11
160.666
21
-134.026
0
LINE
8
BLACK
6
CONTINUOUS
10
49.958
20
-114.517
11
50.0218
21
-114.356
0
LINE
8
BLACK
6
CONTINUOUS
10
250.88
20
-152.176
11
253.311
21
-165.962
0
LINE
8
BLACK
6
CONTINUOUS
10
192.333
20
-166.571
11
192.337
21
-166.588
0
LINE
8
BLACK
6
CONTINUOUS
10
181.327
20
-212.736
11
181.346
21
-212.788
0
LINE
8
BLACK
6
CONTINUOUS
10
50.0218
20
-114.356
11
50.091
21
-114.198
0
LINE
8
BLACK
6
CONTINUOUS
10
225.409
20
-129.367
11
225.463
21
-129.353
0
LINE
8
BLACK
6
CONTINUOUS
10
181.439
20
-212.99
11
181.467
21
-213.038
0
LINE
8
BLACK
6
CONTINUOUS
10
183.131
20
-210.645
11
183.076
21
-210.636
0
LINE
8
BLACK
6
CONTINUOUS
10
75.9969
20
-139.598
11
75.9969
21
-125.599
0
LINE
8
BLACK
6
CONTINUOUS
10
54.2176
20
-113.641
11
54.1652
21
-113.623
0
LINE
8
BLACK
6
CONTINUOUS
10
179.384
20
-128.479
11
179.401
21
-128.531
0
LINE
8
BLACK
6
CONTINUOUS
10
39.9304
20
-199.344
11
39.9266
21
-199.4
0
LINE
8
BLACK
6
CONTINUOUS
10
40.0106
20
-200.001
11
40.0295
21
-200.053
0
LINE
8
BLACK
6
CONTINUOUS
10
182.258
20
-210.728
11
182.206
21
-210.749
0
LINE
8
BLACK
6
CONTINUOUS
10
192.319
20
-166.47
11
192.32
21
-166.487
0
LINE
8
BLACK
6
CONTINUOUS
10
179.369
20
-128.425
11
179.384
21
-128.479
0
LINE
8
BLACK
6
CONTINUOUS
10
367.298
20
-198.425
11
367.295
21
-198.6
0
LINE
8
BLACK
6
CONTINUOUS
10
55.2448
20
-114.92
11
55.2362
21
-114.865
0
LINE
8
BLACK
6
CONTINUOUS
10
226.308
20
-128.754
11
226.34
21
-128.708
0
LINE
8
BLACK
6
CONTINUOUS
10
362.623
20
-198.064
11
362.574
21
-198.091
0
LINE
8
BLACK
6
CONTINUOUS
10
179.86
20
-129.216
11
179.902
21
-129.252
0
LINE
8
BLACK
6
CONTINUOUS
10
224.086
20
-126.512
11
224.041
21
-126.545
0
LINE
8
BLACK
6
CONTINUOUS
10
52.3465
20
-116.054
11
52.379
21
-116.1
0
LINE
8
BLACK
6
CONTINUOUS
10
351.438
20
-113.497
11
351.387
21
-113.475
0
LINE
8
BLACK
6
CONTINUOUS
10
181.31
20
-212.683
11
181.327
21
-212.736
0
LINE
8
BLACK
6
CONTINUOUS
10
180.036
20
-126.676
11
179.99
21
-126.708
0
LINE
8
BLACK
6
CONTINUOUS
10
182.91
20
-210.62
11
182.855
21
-210.618
0
LINE
8
BLACK
6
CONTINUOUS
10
173.095
20
-174.905
11
170.664
21
-188.692
0
LINE
8
BLACK
6
CONTINUOUS
10
42.6801
20
-198.376
11
42.641
21
-198.337
0
LINE
8
BLACK
6
CONTINUOUS
10
367.222
20
-199.293
11
367.188
21
-199.465
0
LINE
8
BLACK
6
CONTINUOUS
10
224.214
20
-213.325
11
224.252
21
-213.284
0
LINE
8
BLACK
6
CONTINUOUS
10
182.179
20
-128.994
11
182.213
21
-128.949
0
LINE
8
BLACK
6
CONTINUOUS
10
183.832
20
-210.962
11
183.788
21
-210.929
0
LINE
8
BLACK
6
CONTINUOUS
10
183.021
20
-210.628
11
182.966
21
-210.623
0
LINE
8
BLACK
6
CONTINUOUS
10
264.667
20
-149.745
11
250.88
21
-152.176
0
LINE
8
BLACK
6
CONTINUOUS
10
224.323
20
-213.199
11
224.356
21
-213.154
0
LINE
8
BLACK
6
CONTINUOUS
10
365.237
20
-202.47
11
365.094
21
-202.57
0
LINE
8
BLACK
6
CONTINUOUS
10
214.565
20
-126.458
11
214.63
21
-126.433
0
LINE
8
BLACK
6
CONTINUOUS
10
366.996
20
-200.135
11
366.934
21
-200.298
0
LINE
8
BLACK
6
CONTINUOUS
10
225.721
20
-129.251
11
225.77
21
-129.226
0
LINE
8
BLACK
6
CONTINUOUS
10
42.0818
20
-197.983
11
42.0294
21
-197.965
0
LINE
8
BLACK
6
CONTINUOUS
10
130.6
20
-167.412
11
116.814
21
-164.981
0
LINE
8
BLACK
6
CONTINUOUS
10
192.544
20
-166.871
11
192.559
21
-166.88
0
LINE
8
BLACK
6
CONTINUOUS
10
263.27
20
-190.062
11
263.694
21
-192.468
0
LINE
8
BLACK
6
CONTINUOUS
10
52.2863
20
-114.321
11
52.2587
21
-114.369
0
LINE
8
BLACK
6
CONTINUOUS
10
184.139
20
-213.154
11
184.17
21
-213.108
0
LINE
8
BLACK
6
CONTINUOUS
10
311.559
20
-143.112
11
311.559
21
-157.111
0
LINE
8
BLACK
6
CONTINUOUS
10
352.624
20
-112.018
11
352.77
21
-112.112
0
LINE
8
BLACK
6
CONTINUOUS
10
42.0743
20
-203.397
11
41.9048
21
-203.376
0
LINE
8
BLACK
6
CONTINUOUS
10
364.166
20
-200.867
11
364.214
21
-200.838
0
LINE
8
BLACK
6
CONTINUOUS
10
366.712
20
-200.772
11
366.628
21
-200.925
0
LINE
8
BLACK
6
CONTINUOUS
10
226.515
20
-128.362
11
226.533
21
-128.31
0
LINE
8
BLACK
6
CONTINUOUS
10
363.317
20
-201.085
11
363.372
21
-201.085
0
LINE
8
BLACK
6
CONTINUOUS
10
179.513
20
-127.242
11
179.487
21
-127.291
0
LINE
8
BLACK
6
CONTINUOUS
10
264.372
20
-202.567
11
263.939
21
-204.363
0
LINE
8
BLACK
6
CONTINUOUS
10
364.958
20
-199.486
11
364.957
21
-199.43
0
LINE
8
BLACK
6
CONTINUOUS
10
364.947
20
-202.665
11
364.798
21
-202.755
0
LINE
8
BLACK
6
CONTINUOUS
10
53.9502
20
-113.568
11
53.8954
21
-113.559
0
LINE
8
BLACK
6
CONTINUOUS
10
362.345
20
-200.724
11
362.389
21
-200.758
0
LINE
8
BLACK
6
CONTINUOUS
10
362.303
20
-200.688
11
362.345
21
-200.724
0
LINE
8
BLACK
6
CONTINUOUS
10
225.246
20
-129.4
11
225.301
21
-129.391
0
LINE
8
BLACK
6
CONTINUOUS
10
42.9391
20
-200.23
11
42.9642
21
-200.181
0
LINE
8
BLACK
6
CONTINUOUS
10
224.427
20
-129.308
11
224.48
21
-129.327
0
LINE
8
BLACK
6
CONTINUOUS
10
52.1142
20
-115.553
11
52.1294
21
-115.606
0
LINE
8
BLACK
6
CONTINUOUS
10
105.201
20
-111.284
11
105.346
21
-111.295
0
LINE
8
BLACK
6
CONTINUOUS
10
361.931
20
-200.208
11
361.957
21
-200.257
0
LINE
8
BLACK
6
CONTINUOUS
10
182.506
20
-128.18
11
182.511
21
-128.124
0
LINE
8
BLACK
6
CONTINUOUS
10
226.496
20
-128.414
11
226.515
21
-128.362
0
LINE
8
BLACK
6
CONTINUOUS
10
364.943
20
-199.707
11
364.95
21
-199.652
0
LINE
8
BLACK
6
CONTINUOUS
10
226.34
20
-126.927
11
226.308
21
-126.882
0
LINE
8
BLACK
6
CONTINUOUS
10
349.18
20
-115.038
11
349.184
21
-115.093
0
LINE
8
BLACK
6
CONTINUOUS
10
114.383
20
-178.768
11
128.169
21
-181.198
0
LINE
8
BLACK
6
CONTINUOUS
10
176.996
20
-151.12
11
179.427
21
-137.334
0
LINE
8
BLACK
6
CONTINUOUS
10
223.998
20
-129.056
11
224.041
21
-129.091
0
LINE
8
BLACK
6
CONTINUOUS
10
225.025
20
-126.218
11
224.969
21
-126.218
0
LINE
8
BLACK
6
CONTINUOUS
10
221.499
20
-211.86
11
221.488
21
-211.914
0
LINE
8
BLACK
6
CONTINUOUS
10
362.077
20
-198.527
11
362.045
21
-198.572
0
LINE
8
BLACK
6
CONTINUOUS
10
224.544
20
-212.814
11
224.563
21
-212.762
0
LINE
8
BLACK
6
CONTINUOUS
10
318.414
20
-138.061
11
318.414
21
-124.062
0
LINE
8
BLACK
6
CONTINUOUS
10
39.9873
20
-202.695
11
39.8429
21
-202.604
0
LINE
8
BLACK
6
CONTINUOUS
10
179.86
20
-126.811
11
179.818
21
-126.848
0
LINE
8
BLACK
6
CONTINUOUS
10
182.469
20
-213.774
11
182.524
21
-213.786
0
LINE
8
BLACK
6
CONTINUOUS
10
181.095
20
-129.603
11
181.15
21
-129.596
0
LINE
8
BLACK
6
CONTINUOUS
10
352.241
20
-115.602
11
352.262
21
-115.551
0
LINE
8
BLACK
6
CONTINUOUS
10
160.666
20
-134.026
11
146.88
21
-131.595
0
LINE
8
BLACK
6
CONTINUOUS
10
259.1
20
-145.598
11
256.669
21
-131.812
0
LINE
8
BLACK
6
CONTINUOUS
10
181.817
20
-126.692
11
181.77
21
-126.661
0
LINE
8
BLACK
6
CONTINUOUS
10
213.27
20
-166.668
11
213.277
21
-166.652
0
LINE
8
BLACK
6
CONTINUOUS
10
354.388
20
-113.891
11
354.468
21
-114.046
0
LINE
8
BLACK
6
CONTINUOUS
10
226.55
20
-127.379
11
226.533
21
-127.326
0
LINE
8
BLACK
6
CONTINUOUS
10
224.356
20
-211.282
11
224.323
21
-211.238
0
LINE
8
BLACK
6
CONTINUOUS
10
184.105
20
-213.199
11
184.139
21
-213.154
0
LINE
8
BLACK
6
CONTINUOUS
10
181.524
20
-126.534
11
181.472
21
-126.514
0
LINE
8
BLACK
6
CONTINUOUS
10
41.8688
20
-201.045
11
41.9228
21
-201.033
0
LINE
8
BLACK
6
CONTINUOUS
10
362.111
20
-198.483
11
362.077
21
-198.527
0
LINE
8
BLACK
6
CONTINUOUS
10
39.9439
20
-199.234
11
39.9362
21
-199.289
0
LINE
8
BLACK
6
CONTINUOUS
10
363.757
20
-201.035
11
363.81
21
-201.02
0
LINE
8
BLACK
6
CONTINUOUS
10
224.598
20
-212.657
11
224.612
21
-212.603
0
LINE
8
BLACK
6
CONTINUOUS
10
224.65
20
-212.052
11
224.643
21
-211.997
0
LINE
8
BLACK
6
CONTINUOUS
10
349.218
20
-114.596
11
349.207
21
-114.651
0
LINE
8
BLACK
6
CONTINUOUS
10
182.5
20
-127.792
11
182.491
21
-127.737
0
LINE
8
BLACK
6
CONTINUOUS
10
223.867
20
-210.837
11
223.818
21
-210.81
0
LINE
8
BLACK
6
CONTINUOUS
10
224.65
20
-212.384
11
224.655
21
-212.329
0
LINE
8
BLACK
6
CONTINUOUS
10
151.024
20
-204.565
11
151.841
21
-199.937
0
LINE
8
BLACK
6
CONTINUOUS
10
182.009
20
-210.851
11
181.962
21
-210.881
0
LINE
8
BLACK
6
CONTINUOUS
10
52.379
20
-114.183
11
52.3465
21
-114.228
0
LINE
8
BLACK
6
CONTINUOUS
10
43.0898
20
-199.814
11
43.1004
21
-199.759
0
LINE
8
BLACK
6
CONTINUOUS
10
183.45
20
-213.698
11
183.501
21
-213.676
0
LINE
8
BLACK
6
CONTINUOUS
10
54.6365
20
-111.28
11
104.91
21
-111.276
0
LINE
8
BLACK
6
CONTINUOUS
10
192.41
20
-166.741
11
192.42
21
-166.755
0
LINE
8
BLACK
6
CONTINUOUS
10
40.469
20
-200.686
11
40.5114
21
-200.721
0
LINE
8
BLACK
6
CONTINUOUS
10
350.043
20
-116.376
11
350.092
21
-116.4
0
LINE
8
BLACK
6
CONTINUOUS
10
52.524
20
-114.015
11
52.4856
21
-114.055
0
LINE
8
BLACK
6
CONTINUOUS
10
349.722
20
-113.752
11
349.681
21
-113.789
0
LINE
8
BLACK
6
CONTINUOUS
10
226.37
20
-128.661
11
226.399
21
-128.614
0
LINE
8
BLACK
6
CONTINUOUS
10
213.308
20
-166.555
11
213.311
21
-166.538
0
LINE
8
BLACK
6
CONTINUOUS
10
226.166
20
-128.924
11
226.204
21
-128.884
0
LINE
8
BLACK
6
CONTINUOUS
10
240.339
20
-148.906
11
237.908
21
-135.12
0
LINE
8
BLACK
6
CONTINUOUS
10
223.875
20
-126.691
11
223.836
21
-126.731
0
LINE
8
BLACK
6
CONTINUOUS
10
109.359
20
-124.979
11
106.928
21
-138.765
0
LINE
8
BLACK
6
CONTINUOUS
10
222.424
20
-210.749
11
222.374
21
-210.772
0
LINE
8
BLACK
6
CONTINUOUS
10
52.1142
20
-114.729
11
52.1008
21
-114.783
0
LINE
8
BLACK
6
CONTINUOUS
10
41.7045
20
-201.073
11
41.7596
21
-201.066
0
LINE
8
BLACK
6
CONTINUOUS
10
181.42
20
-126.495
11
181.367
21
-126.479
0
LINE
8
BLACK
6
CONTINUOUS
10
183.501
20
-213.676
11
183.551
21
-213.652
0
LINE
8
BLACK
6
CONTINUOUS
10
183.551
20
-213.652
11
183.601
21
-213.626
0
LINE
8
BLACK
6
CONTINUOUS
10
363.151
20
-201.072
11
363.206
21
-201.078
0
LINE
8
BLACK
6
CONTINUOUS
10
75.9969
20
-158.648
11
75.9969
21
-144.649
0
LINE
8
BLACK
6
CONTINUOUS
10
145.831
20
-164.969
11
159.618
21
-167.4
0
LINE
8
BLACK
6
CONTINUOUS
10
106.928
20
-138.765
11
120.714
21
-141.196
0
LINE
8
BLACK
6
CONTINUOUS
10
213.318
20
-166.453
11
213.318
21
-128.311
0
LINE
8
BLACK
6
CONTINUOUS
10
362.827
20
-200.995
11
362.88
21
-201.012
0
LINE
8
BLACK
6
CONTINUOUS
10
349.603
20
-113.868
11
349.566
21
-113.91
0
LINE
8
BLACK
6
CONTINUOUS
10
181.786
20
-213.421
11
181.828
21
-213.457
0
LINE
8
BLACK
6
CONTINUOUS
10
223.073
20
-210.618
11
223.017
21
-210.619
0
LINE
8
BLACK
6
CONTINUOUS
10
180.036
20
-129.35
11
180.083
21
-129.38
0
LINE
8
BLACK
6
CONTINUOUS
10
213.033
20
-166.904
11
213.048
21
-166.897
0
LINE
8
BLACK
6
CONTINUOUS
10
350.736
20
-113.355
11
350.681
21
-113.357
0
LINE
8
BLACK
6
CONTINUOUS
10
152.639
20
-195.407
11
153.456
21
-190.778
0
LINE
8
BLACK
6
CONTINUOUS
10
105.055
20
-111.278
11
105.201
21
-111.284
0
LINE
8
BLACK
6
CONTINUOUS
10
223.349
20
-213.792
11
223.403
21
-213.781
0
LINE
8
BLACK
6
CONTINUOUS
10
364.305
20
-198.196
11
364.26
21
-198.164
0
LINE
8
BLACK
6
CONTINUOUS
10
181.56
20
-211.26
11
181.527
21
-211.305
0
LINE
8
BLACK
6
CONTINUOUS
10
226.553
20
-151.337
11
240.339
21
-148.906
0
LINE
8
BLACK
6
CONTINUOUS
10
181.666
20
-213.304
11
181.705
21
-213.345
0
LINE
8
BLACK
6
CONTINUOUS
10
222.742
20
-213.786
11
222.796
21
-213.796
0
LINE
8
BLACK
6
CONTINUOUS
10
192.49
20
-166.83
11
192.503
21
-166.841
0
LINE
8
BLACK
6
CONTINUOUS
10
183.957
20
-211.072
11
183.917
21
-211.034
0
LINE
8
BLACK
6
CONTINUOUS
10
181.389
20
-211.545
11
181.367
21
-211.596
0
LINE
8
BLACK
6
CONTINUOUS
10
224.639
20
-126.262
11
224.586
21
-126.275
0
LINE
8
BLACK
6
CONTINUOUS
10
320.855
20
-157.111
11
340.074
21
-157.111
0
LINE
8
BLACK
6
CONTINUOUS
10
52.6207
20
-111.704
11
52.7801
21
-111.637
0
LINE
8
BLACK
6
CONTINUOUS
10
181.77
20
-129.365
11
181.817
21
-129.335
0
LINE
8
BLACK
6
CONTINUOUS
10
351.013
20
-113.372
11
350.958
21
-113.365
0
LINE
8
BLACK
6
CONTINUOUS
10
183.788
20
-213.508
11
183.832
21
-213.474
0
LINE
8
BLACK
6
CONTINUOUS
10
365.643
20
-202.141
11
365.512
21
-202.255
0
LINE
8
BLACK
6
CONTINUOUS
10
226.002
20
-126.562
11
225.958
21
-126.528
0
LINE
8
BLACK
6
CONTINUOUS
10
40.0295
20
-198.913
11
40.0106
21
-198.965
0
LINE
8
BLACK
6
CONTINUOUS
10
298.547
20
-177.33
11
296.116
21
-163.544
0
LINE
8
BLACK
6
CONTINUOUS
10
53.5077
20
-116.734
11
53.5631
21
-116.738
0
LINE
8
BLACK
6
CONTINUOUS
10
335.371
20
-181.212
11
335.371
21
-195.211
0
LINE
8
BLACK
6
CONTINUOUS
10
222.374
20
-213.664
11
222.424
21
-213.687
0
LINE
8
BLACK
6
CONTINUOUS
10
361.907
20
-198.813
11
361.884
21
-198.864
0
LINE
8
BLACK
6
CONTINUOUS
10
351.769
20
-113.699
11
351.725
21
-113.665
0
LINE
8
BLACK
6
CONTINUOUS
10
361.778
20
-199.734
11
361.787
21
-199.789
0
LINE
8
BLACK
6
CONTINUOUS
10
350.625
20
-113.362
11
350.57
21
-113.368
0
LINE
8
BLACK
6
CONTINUOUS
10
352.378
20
-114.954
11
352.377
21
-114.899
0
LINE
8
BLACK
6
CONTINUOUS
10
39.965
20
-199.841
11
39.9783
21
-199.895
0
LINE
8
BLACK
6
CONTINUOUS
10
52.4486
20
-116.186
11
52.4856
21
-116.228
0
LINE
8
BLACK
6
CONTINUOUS
10
350.143
20
-113.486
11
350.092
21
-113.509
0
LINE
8
BLACK
6
CONTINUOUS
10
349.232
20
-114.543
11
349.218
21
-114.596
0
LINE
8
BLACK
6
CONTINUOUS
10
50.9471
20
-112.905
11
51.0659
21
-112.78
0
LINE
8
BLACK
6
CONTINUOUS
10
364.957
20
-199.43
11
364.954
21
-199.375
0
LINE
8
BLACK
6
CONTINUOUS
10
40.911
20
-203.134
11
40.7511
21
-203.074
0
LINE
8
BLACK
6
CONTINUOUS
10
213.491
20
-127.499
11
213.52
21
-127.435
0
LINE
8
BLACK
6
CONTINUOUS
10
224.135
20
-213.402
11
224.175
21
-213.364
0
LINE
8
BLACK
6
CONTINUOUS
10
53.8404
20
-116.731
11
53.8954
21
-116.724
0
LINE
8
BLACK
6
CONTINUOUS
10
182.48
20
-127.682
11
182.468
21
-127.628
0
LINE
8
BLACK
6
CONTINUOUS
10
213.048
20
-166.897
11
213.063
21
-166.889
0
LINE
8
BLACK
6
CONTINUOUS
10
224.694
20
-129.386
11
224.748
21
-129.396
0
LINE
8
BLACK
6
CONTINUOUS
10
191.805
20
-126.98
11
191.851
21
-127.033
0
LINE
8
BLACK
6
CONTINUOUS
10
213.83
20
-126.974
11
213.878
21
-126.923
0
LINE
8
BLACK
6
CONTINUOUS
10
364.718
20
-198.642
11
364.688
21
-198.595
0
LINE
8
BLACK
6
CONTINUOUS
10
181.313
20
-129.563
11
181.367
21
-129.548
0
LINE
8
BLACK
6
CONTINUOUS
10
38.1457
20
-200.722
11
38.0698
21
-200.569
0
LINE
8
BLACK
6
CONTINUOUS
10
224.388
20
-213.108
11
224.418
21
-213.062
0
LINE
8
BLACK
6
CONTINUOUS
10
52.2587
20
-115.913
11
52.2863
21
-115.961
0
LINE
8
BLACK
6
CONTINUOUS
10
52.3156
20
-114.274
11
52.2863
21
-114.321
0
LINE
8
BLACK
6
CONTINUOUS
10
52.379
20
-116.1
11
52.413
21
-116.143
0
LINE
8
BLACK
6
CONTINUOUS
10
283.427
20
-146.437
11
269.641
21
-148.868
0
LINE
8
BLACK
6
CONTINUOUS
10
282.329
20
-165.975
11
284.76
21
-179.761
0
LINE
8
BLACK
6
CONTINUOUS
10
226.587
20
-127.541
11
226.576
21
-127.487
0
LINE
8
BLACK
6
CONTINUOUS
10
222.906
20
-213.811
11
222.962
21
-213.815
0
LINE
8
BLACK
6
CONTINUOUS
10
40.6926
20
-198.116
11
40.6456
21
-198.146
0
LINE
8
BLACK
6
CONTINUOUS
10
184.417
20
-211.942
11
184.406
21
-211.887
0
LINE
8
BLACK
6
CONTINUOUS
10
43.1206
20
-199.594
11
43.1234
21
-199.538
0
LINE
8
BLACK
6
CONTINUOUS
10
223.457
20
-210.669
11
223.403
21
-210.656
0
LINE
8
BLACK
6
CONTINUOUS
10
352.343
20
-115.285
11
352.354
21
-115.231
0
LINE
8
BLACK
6
CONTINUOUS
10
40.7511
20
-203.074
11
40.5933
21
-203.009
0
LINE
8
BLACK
6
CONTINUOUS
10
213.878
20
-126.923
11
213.927
21
-126.874
0
LINE
8
BLACK
6
CONTINUOUS
10
182.057
20
-210.823
11
182.009
21
-210.851
0
LINE
8
BLACK
6
CONTINUOUS
10
214.966
20
-126.342
11
298.865
21
-111.344
0
LINE
8
BLACK
6
CONTINUOUS
10
184.38
20
-212.657
11
184.394
21
-212.603
0
LINE
8
BLACK
6
CONTINUOUS
10
182.799
20
-213.818
11
182.855
21
-213.818
0
LINE
8
BLACK
6
CONTINUOUS
10
144.449
20
-145.381
11
158.236
21
-147.812
0
LINE
8
BLACK
6
CONTINUOUS
10
364.26
20
-198.164
11
364.214
21
-198.133
0
LINE
8
BLACK
6
CONTINUOUS
10
55.075
20
-114.394
11
55.0482
21
-114.345
0
LINE
8
BLACK
6
CONTINUOUS
10
49.6952
20
-115.518
11
49.7244
21
-115.348
0
LINE
8
BLACK
6
CONTINUOUS
10
184.437
20
-212.329
11
184.44
21
-212.274
0
LINE
8
BLACK
6
CONTINUOUS
10
330.609
20
-162.162
11
330.609
21
-176.161
0
LINE
8
BLACK
6
CONTINUOUS
10
192.784
20
-166.952
11
192.801
21
-166.953
0
LINE
8
BLACK
6
CONTINUOUS
10
361.884
20
-198.864
11
361.863
21
-198.915
0
LINE
8
BLACK
6
CONTINUOUS
10
182.31
20
-213.727
11
182.362
21
-213.745
0
LINE
8
BLACK
6
CONTINUOUS
10
181.247
20
-212.357
11
181.253
21
-212.412
0
LINE
8
BLACK
6
CONTINUOUS
10
223.668
20
-213.698
11
223.719
21
-213.676
0
LINE
8
BLACK
6
CONTINUOUS
10
40.7405
20
-198.088
11
40.6926
21
-198.116
0
LINE
8
BLACK
6
CONTINUOUS
10
352.007
20
-113.931
11
351.971
21
-113.889
0
LINE
8
BLACK
6
CONTINUOUS
10
42.0294
20
-197.965
11
41.9764
21
-197.948
0
LINE
8
BLACK
6
CONTINUOUS
10
226.61
20
-127.762
11
226.607
21
-127.707
0
LINE
8
BLACK
6
CONTINUOUS
10
52.3093
20
-111.855
11
52.4637
21
-111.777
0
LINE
8
BLACK
6
CONTINUOUS
10
52.0663
20
-115.28
11
52.072
21
-115.335
0
LINE
8
BLACK
6
CONTINUOUS
10
52.2327
20
-115.864
11
52.2587
21
-115.913
0
LINE
8
BLACK
6
CONTINUOUS
10
180.929
20
-126.413
11
180.873
21
-126.414
0
LINE
8
BLACK
6
CONTINUOUS
10
52.6472
20
-116.38
11
52.6908
21
-116.414
0
LINE
8
BLACK
6
CONTINUOUS
10
284.76
20
-179.761
11
298.547
21
-177.33
0
LINE
8
BLACK
6
CONTINUOUS
10
41.3167
20
-197.897
11
41.2618
21
-197.905
0
LINE
8
BLACK
6
CONTINUOUS
10
352.362
20
-114.733
11
352.354
21
-114.678
0
LINE
8
BLACK
6
CONTINUOUS
10
213.316
20
-166.504
11
213.317
21
-166.487
0
LINE
8
BLACK
6
CONTINUOUS
10
55.1828
20
-115.633
11
55.1989
21
-115.58
0
LINE
8
BLACK
6
CONTINUOUS
10
182.4
20
-127.417
11
182.378
21
-127.366
0
LINE
8
BLACK
6
CONTINUOUS
10
181.862
20
-129.303
11
181.906
21
-129.269
0
LINE
8
BLACK
6
CONTINUOUS
10
316.272
20
-157.111
11
316.914
21
-158.581
0
LINE
8
BLACK
6
CONTINUOUS
10
364.305
20
-200.775
11
364.35
21
-200.741
0
LINE
8
BLACK
6
CONTINUOUS
10
55.1648
20
-115.686
11
55.1828
21
-115.633
0
LINE
8
BLACK
6
CONTINUOUS
10
146.93
20
-184.506
11
149.36
21
-170.72
0
LINE
8
BLACK
6
CONTINUOUS
10
181.723
20
-129.394
11
181.77
21
-129.365
0
LINE
8
BLACK
6
CONTINUOUS
10
361.984
20
-200.306
11
362.014
21
-200.353
0
LINE
8
BLACK
6
CONTINUOUS
10
213.621
20
-127.252
11
213.659
21
-127.194
0
LINE
8
BLACK
6
CONTINUOUS
10
350.958
20
-113.365
11
350.903
21
-113.359
0
LINE
8
BLACK
6
CONTINUOUS
10
221.461
20
-212.301
11
221.465
21
-212.357
0
LINE
8
BLACK
6
CONTINUOUS
10
52.6908
20
-116.414
11
52.7356
21
-116.447
0
LINE
8
BLACK
6
CONTINUOUS
10
181.247
20
-212.079
11
181.243
21
-212.135
0
LINE
8
BLACK
6
CONTINUOUS
10
221.459
20
-212.19
11
221.459
21
-212.246
0
LINE
8
BLACK
6
CONTINUOUS
10
40.0969
20
-200.206
11
40.1229
21
-200.255
0
LINE
8
BLACK
6
CONTINUOUS
10
349.53
20
-113.952
11
349.496
21
-113.996
0
LINE
8
BLACK
6
CONTINUOUS
10
223.403
20
-213.781
11
223.457
21
-213.768
0
LINE
8
BLACK
6
CONTINUOUS
10
53.0769
20
-113.651
11
53.0256
21
-113.672
0
LINE
8
BLACK
6
CONTINUOUS
10
53.6186
20
-113.542
11
53.5631
21
-113.544
0
LINE
8
BLACK
6
CONTINUOUS
10
221.459
20
-212.246
11
221.461
21
-212.301
0
LINE
8
BLACK
6
CONTINUOUS
10
349.18
20
-114.871
11
349.178
21
-114.927
0
LINE
8
BLACK
6
CONTINUOUS
10
182.454
20
-127.575
11
182.437
21
-127.522
0
LINE
8
BLACK
6
CONTINUOUS
10
52.0797
20
-114.892
11
52.072
21
-114.947
0
LINE
8
BLACK
6
CONTINUOUS
10
52.186
20
-114.519
11
52.1653
21
-114.571
0
LINE
8
BLACK
6
CONTINUOUS
10
349.53
20
-115.957
11
349.566
21
-115.999
0
LINE
8
BLACK
6
CONTINUOUS
10
225.246
20
-126.235
11
225.191
21
-126.228
0
LINE
8
BLACK
6
CONTINUOUS
10
351.335
20
-116.454
11
351.387
21
-116.434
0
LINE
8
BLACK
6
CONTINUOUS
10
166.337
20
-207.132
11
167.131
21
-202.633
0
LINE
8
BLACK
6
CONTINUOUS
10
226.426
20
-127.07
11
226.399
21
-127.022
0
LINE
8
BLACK
6
CONTINUOUS
10
349.566
20
-113.91
11
349.53
21
-113.952
0
LINE
8
BLACK
6
CONTINUOUS
10
223.73
20
-128.776
11
223.764
21
-128.82
0
LINE
8
BLACK
6
CONTINUOUS
10
95.3354
20
-163.699
11
95.3354
21
-177.698
0
LINE
8
BLACK
6
CONTINUOUS
10
364.214
20
-200.838
11
364.26
21
-200.807
0
LINE
8
BLACK
6
CONTINUOUS
10
257.103
20
-194.531
11
256.524
21
-191.252
0
LINE
8
BLACK
6
CONTINUOUS
10
213.093
20
-166.871
11
213.107
21
-166.861
0
LINE
8
BLACK
6
CONTINUOUS
10
350.406
20
-116.511
11
350.46
21
-116.523
0
LINE
8
BLACK
6
CONTINUOUS
10
55.2362
20
-114.865
11
55.2257
21
-114.81
0
LINE
8
BLACK
6
CONTINUOUS
10
181.253
20
-212.024
11
181.247
21
-212.079
0
LINE
8
BLACK
6
CONTINUOUS
10
222.003
20
-213.421
11
222.046
21
-213.457
0
LINE
8
BLACK
6
CONTINUOUS
10
52.4856
20
-114.055
11
52.4486
21
-114.096
0
LINE
8
BLACK
6
CONTINUOUS
10
184.441
20
-212.218
11
184.44
21
-212.163
0
LINE
8
BLACK
6
CONTINUOUS
10
364.475
20
-200.632
11
364.514
21
-200.592
0
LINE
8
BLACK
6
CONTINUOUS
10
224.227
20
-129.213
11
224.276
21
-129.239
0
LINE
8
BLACK
6
CONTINUOUS
10
99.8089
20
-125.599
11
85.8099
21
-125.599
0
LINE
8
BLACK
6
CONTINUOUS
10
224.376
20
-129.287
11
224.427
21
-129.308
0
LINE
8
BLACK
6
CONTINUOUS
10
42.3324
20
-200.864
11
42.3799
21
-200.835
0
LINE
8
BLACK
6
CONTINUOUS
10
49.8998
20
-114.679
11
49.958
21
-114.517
0
LINE
8
BLACK
6
CONTINUOUS
10
290.833
20
-159.346
11
304.619
21
-156.916
0
LINE
8
BLACK
6
CONTINUOUS
10
192.604
20
-166.904
11
192.619
21
-166.911
0
LINE
8
BLACK
6
CONTINUOUS
10
350.515
20
-116.533
11
350.57
21
-116.541
0
LINE
8
BLACK
6
CONTINUOUS
10
179.315
20
-128.041
11
179.317
21
-128.097
0
LINE
8
BLACK
6
CONTINUOUS
10
180.083
20
-129.38
11
180.131
21
-129.408
0
LINE
8
BLACK
6
CONTINUOUS
10
351.122
20
-116.517
11
351.176
21
-116.504
0
LINE
8
BLACK
6
CONTINUOUS
10
184.034
20
-213.284
11
184.071
21
-213.242
0
LINE
8
BLACK
6
CONTINUOUS
10
213.29
20
-166.62
11
213.295
21
-166.604
0
LINE
8
BLACK
6
CONTINUOUS
10
224.05
20
-213.474
11
224.093
21
-213.439
0
LINE
8
BLACK
6
CONTINUOUS
10
182.031
20
-126.867
11
181.991
21
-126.829
0
LINE
8
BLACK
6
CONTINUOUS
10
42.1845
20
-200.94
11
42.2347
21
-200.917
0
LINE
8
BLACK
6
CONTINUOUS
10
223.073
20
-213.818
11
223.128
21
-213.817
0
LINE
8
BLACK
6
CONTINUOUS
10
351.812
20
-113.734
11
351.769
21
-113.699
0
LINE
8
BLACK
6
CONTINUOUS
10
54.2693
20
-113.662
11
54.2176
21
-113.641
0
LINE
8
BLACK
6
CONTINUOUS
10
180.18
20
-126.592
11
180.131
21
-126.619
0
LINE
8
BLACK
6
CONTINUOUS
10
364.911
20
-199.101
11
364.897
21
-199.047
0
LINE
8
BLACK
6
CONTINUOUS
10
223.48
20
-127.352
11
223.465
21
-127.406
0
LINE
8
BLACK
6
CONTINUOUS
10
53.4525
20
-116.728
11
53.5077
21
-116.734
0
LINE
8
BLACK
6
CONTINUOUS
10
350.162
20
-111.27
11
350.335
21
-111.279
0
LINE
8
BLACK
6
CONTINUOUS
10
224.175
20
-211.072
11
224.135
21
-211.034
0
LINE
8
BLACK
6
CONTINUOUS
10
223.818
20
-213.626
11
223.867
21
-213.599
0
LINE
8
BLACK
6
CONTINUOUS
10
223.423
20
-128.012
11
223.43
21
-128.067
0
LINE
8
BLACK
6
CONTINUOUS
10
224.48
20
-129.327
11
224.532
21
-129.345
0
LINE
8
BLACK
6
CONTINUOUS
10
224.323
20
-211.238
11
224.288
21
-211.194
0
LINE
8
BLACK
6
CONTINUOUS
10
224.288
20
-213.242
11
224.323
21
-213.199
0
LINE
8
BLACK
6
CONTINUOUS
10
179.945
20
-126.74
11
179.902
21
-126.775
0
LINE
8
BLACK
6
CONTINUOUS
10
191.937
20
-127.143
11
191.977
21
-127.2
0
LINE
8
BLACK
6
CONTINUOUS
10
179.703
20
-126.968
11
179.668
21
-127.011
0
LINE
8
BLACK
6
CONTINUOUS
10
181.467
20
-211.398
11
181.439
21
-211.446
0
LINE
8
BLACK
6
CONTINUOUS
10
42.9642
20
-198.785
11
42.9391
21
-198.736
0
LINE
8
BLACK
6
CONTINUOUS
10
151.904
20
-185.384
11
165.69
21
-187.814
0
LINE
8
BLACK
6
CONTINUOUS
10
353.912
20
-113.168
11
354.017
21
-113.306
0
LINE
8
BLACK
6
CONTINUOUS
10
362.724
20
-200.954
11
362.775
21
-200.975
0
LINE
8
BLACK
6
CONTINUOUS
10
182.303
20
-127.217
11
182.274
21
-127.17
0
LINE
8
BLACK
6
CONTINUOUS
10
42.2445
20
-203.411
11
42.0743
21
-203.397
0
LINE
8
BLACK
6
CONTINUOUS
10
42.6005
20
-200.667
11
42.641
21
-200.629
0
LINE
8
BLACK
6
CONTINUOUS
10
182.633
20
-213.805
11
182.688
21
-213.811
0
LINE
8
BLACK
6
CONTINUOUS
10
362.184
20
-200.572
11
362.222
21
-200.612
0
LINE
8
BLACK
6
CONTINUOUS
10
342.227
20
-124.062
11
328.228
21
-124.062
0
LINE
8
BLACK
6
CONTINUOUS
10
181.629
20
-213.263
11
181.666
21
-213.304
0
LINE
8
BLACK
6
CONTINUOUS
10
52.6908
20
-113.868
11
52.6472
21
-113.903
0
LINE
8
BLACK
6
CONTINUOUS
10
179.902
20
-126.775
11
179.86
21
-126.811
0
LINE
8
BLACK
6
CONTINUOUS
10
364.552
20
-198.42
11
364.514
21
-198.379
0
LINE
8
BLACK
6
CONTINUOUS
10
54.9247
20
-114.161
11
54.8899
21
-114.117
0
LINE
8
BLACK
6
CONTINUOUS
10
55.1001
20
-115.839
11
55.1234
21
-115.789
0
LINE
8
BLACK
6
CONTINUOUS
10
181.313
20
-126.464
11
181.259
21
-126.451
0
LINE
8
BLACK
6
CONTINUOUS
10
52.975
20
-116.587
11
53.0256
21
-116.61
0
LINE
8
BLACK
6
CONTINUOUS
10
182.469
20
-210.662
11
182.416
21
-210.676
0
LINE
8
BLACK
6
CONTINUOUS
10
61.9979
20
-139.598
11
75.9969
21
-139.598
0
LINE
8
BLACK
6
CONTINUOUS
10
214.376
20
-126.547
11
214.438
21
-126.515
0
LINE
8
BLACK
6
CONTINUOUS
10
53.3976
20
-116.719
11
53.4525
21
-116.728
0
LINE
8
BLACK
6
CONTINUOUS
10
181.527
20
-213.131
11
181.56
21
-213.176
0
LINE
8
BLACK
6
CONTINUOUS
10
223.914
20
-213.57
11
223.961
21
-213.54
0
LINE
8
BLACK
6
CONTINUOUS
10
349.326
20
-115.627
11
349.35
21
-115.677
0
LINE
8
BLACK
6
CONTINUOUS
10
255.6
20
-194.796
11
257.103
21
-194.531
0
LINE
8
BLACK
6
CONTINUOUS
10
108.31
20
-158.353
11
122.097
21
-160.784
0
LINE
8
BLACK
6
CONTINUOUS
10
40.1347
20
-202.781
11
39.9873
21
-202.695
0
LINE
8
BLACK
6
CONTINUOUS
10
37.7275
20
-199.605
11
37.69
21
-199.439
0
LINE
8
BLACK
6
CONTINUOUS
10
223.43
20
-128.067
11
223.44
21
-128.121
0
LINE
8
BLACK
6
CONTINUOUS
10
241.812
20
-197.227
11
240.996
21
-192.599
0
LINE
8
BLACK
6
CONTINUOUS
10
351.387
20
-113.475
11
351.335
21
-113.455
0
LINE
8
BLACK
6
CONTINUOUS
10
221.745
20
-211.305
11
221.714
21
-211.351
0
LINE
8
BLACK
6
CONTINUOUS
10
221.488
20
-211.914
11
221.478
21
-211.969
0
LINE
8
BLACK
6
CONTINUOUS
10
181.439
20
-211.446
11
181.413
21
-211.495
0
LINE
8
BLACK
6
CONTINUOUS
10
361.907
20
-200.158
11
361.931
21
-200.208
0
LINE
8
BLACK
6
CONTINUOUS
10
179.902
20
-129.252
11
179.945
21
-129.286
0
LINE
8
BLACK
6
CONTINUOUS
10
85.5709
20
-177.698
11
90.2844
21
-177.698
0
LINE
8
BLACK
6
CONTINUOUS
10
55.2448
20
-115.363
11
55.2516
21
-115.308
0
LINE
8
BLACK
6
CONTINUOUS
10
179.427
20
-137.334
11
165.641
21
-134.903
0
LINE
8
BLACK
6
CONTINUOUS
10
350.681
20
-116.551
11
350.736
21
-116.554
0
LINE
8
BLACK
6
CONTINUOUS
10
192.667
20
-166.929
11
192.684
21
-166.934
0
LINE
8
BLACK
6
CONTINUOUS
10
41.6493
20
-201.078
11
41.7045
21
-201.073
0
LINE
8
BLACK
6
CONTINUOUS
10
364.166
20
-198.105
11
364.118
21
-198.077
0
LINE
8
BLACK
6
CONTINUOUS
10
184.44
20
-212.163
11
184.437
21
-212.107
0
LINE
8
BLACK
6
CONTINUOUS
10
223.616
20
-210.718
11
223.564
21
-210.7
0
LINE
8
BLACK
6
CONTINUOUS
10
153.456
20
-190.778
11
167.243
21
-193.209
0
LINE
8
BLACK
6
CONTINUOUS
10
43.1157
20
-199.317
11
43.109
21
-199.262
0
LINE
8
BLACK
6
CONTINUOUS
10
191.319
20
-126.586
11
191.379
21
-126.622
0
LINE
8
BLACK
6
CONTINUOUS
10
41.9764
20
-197.948
11
41.9228
21
-197.933
0
LINE
8
BLACK
6
CONTINUOUS
10
364.934
20
-199.762
11
364.943
21
-199.707
0
LINE
8
BLACK
6
CONTINUOUS
10
363.593
20
-201.068
11
363.648
21
-201.059
0
LINE
8
BLACK
6
CONTINUOUS
10
75.9969
20
-144.649
11
61.9979
21
-144.649
0
LINE
8
BLACK
6
CONTINUOUS
10
37.9338
20
-200.256
11
37.8739
21
-200.096
0
LINE
8
BLACK
6
CONTINUOUS
10
50.6175
20
-113.306
11
50.7227
21
-113.169
0
LINE
8
BLACK
6
CONTINUOUS
10
350.903
20
-113.359
11
350.847
21
-113.356
0
LINE
8
BLACK
6
CONTINUOUS
10
61.1276
20
-179.167
11
61.7689
21
-177.698
0
LINE
8
BLACK
6
CONTINUOUS
10
364.645
20
-202.84
11
364.489
21
-202.919
0
LINE
8
BLACK
6
CONTINUOUS
10
223.537
20
-127.196
11
223.516
21
-127.247
0
LINE
8
BLACK
6
CONTINUOUS
10
42.0818
20
-200.983
11
42.1335
21
-200.962
0
LINE
8
BLACK
6
CONTINUOUS
10
352.107
20
-115.845
11
352.137
21
-115.798
0
LINE
8
BLACK
6
CONTINUOUS
10
213.227
20
-166.741
11
213.237
21
-166.727
0
LINE
8
BLACK
6
CONTINUOUS
10
366.443
20
-201.221
11
366.343
21
-201.364
0
LINE
8
BLACK
6
CONTINUOUS
10
182.274
20
-128.857
11
182.303
21
-128.809
0
LINE
8
BLACK
6
CONTINUOUS
10
363.096
20
-197.907
11
363.041
21
-197.917
0
LINE
8
BLACK
6
CONTINUOUS
10
182.514
20
-128.069
11
182.515
21
-128.013
0
LINE
8
BLACK
6
CONTINUOUS
10
182.491
20
-127.737
11
182.48
21
-127.682
0
LINE
8
BLACK
6
CONTINUOUS
10
364.393
20
-198.265
11
364.35
21
-198.23
0
LINE
8
BLACK
6
CONTINUOUS
10
311.559
20
-181.212
11
311.559
21
-195.211
0
LINE
8
BLACK
6
CONTINUOUS
10
90.2844
20
-177.698
11
90.2844
21
-163.699
0
LINE
8
BLACK
6
CONTINUOUS
10
222.742
20
-210.65
11
222.687
21
-210.662
0
LINE
8
BLACK
6
CONTINUOUS
10
52.8284
20
-116.508
11
52.8763
21
-116.536
0
LINE
8
BLACK
6
CONTINUOUS
10
190.666
20
-126.348
11
190.735
21
-126.362
0
LINE
8
BLACK
6
CONTINUOUS
10
224.748
20
-126.239
11
224.694
21
-126.25
0
LINE
8
BLACK
6
CONTINUOUS
10
363.843
20
-203.18
11
363.676
21
-203.231
0
LINE
8
BLACK
6
CONTINUOUS
10
129.502
20
-147.875
11
127.071
21
-161.661
0
LINE
8
BLACK
6
CONTINUOUS
10
282.834
20
-141.413
11
296.621
21
-138.982
0
LINE
8
BLACK
6
CONTINUOUS
10
191.003
20
-126.439
11
191.068
21
-126.464
0
LINE
8
BLACK
6
CONTINUOUS
10
213.206
20
-166.768
11
213.217
21
-166.755
0
LINE
8
BLACK
6
CONTINUOUS
10
164.592
20
-168.277
11
178.378
21
-170.708
0
LINE
8
BLACK
6
CONTINUOUS
10
180.809
20
-156.922
11
167.023
21
-154.491
0
LINE
8
BLACK
6
CONTINUOUS
10
52.4486
20
-114.096
11
52.413
21
-114.139
0
LINE
8
BLACK
6
CONTINUOUS
10
362.472
20
-203.422
11
362.298
21
-203.425
0
LINE
8
BLACK
6
CONTINUOUS
10
42.6801
20
-200.59
11
42.7178
21
-200.549
0
LINE
8
BLACK
6
CONTINUOUS
10
179.327
20
-128.207
11
179.334
21
-128.262
0
LINE
8
BLACK
6
CONTINUOUS
10
192.314
20
-128.178
11
192.317
21
-128.248
0
LINE
8
BLACK
6
CONTINUOUS
10
183.696
20
-213.57
11
183.743
21
-213.54
0
LINE
8
BLACK
6
CONTINUOUS
10
180.543
20
-126.457
11
180.49
21
-126.471
0
LINE
8
BLACK
6
CONTINUOUS
10
364.656
20
-200.422
11
364.688
21
-200.376
0
LINE
8
BLACK
6
CONTINUOUS
10
361.863
20
-200.056
11
361.884
21
-200.107
0
LINE
8
BLACK
6
CONTINUOUS
10
225.568
20
-126.318
11
225.516
21
-126.3
0
LINE
8
BLACK
6
CONTINUOUS
10
222.324
20
-210.797
11
222.275
21
-210.823
0
LINE
8
BLACK
6
CONTINUOUS
10
43.029
20
-198.939
11
43.0092
21
-198.887
0
LINE
8
BLACK
6
CONTINUOUS
10
54.1122
20
-113.606
11
54.0587
21
-113.592
0
LINE
8
BLACK
6
CONTINUOUS
10
349.603
20
-116.041
11
349.641
21
-116.081
0
LINE
8
BLACK
6
CONTINUOUS
10
364.018
20
-200.943
11
364.068
21
-200.919
0
LINE
8
BLACK
6
CONTINUOUS
10
222.796
20
-213.796
11
222.851
21
-213.805
0
LINE
8
BLACK
6
CONTINUOUS
10
224.858
20
-129.411
11
224.914
21
-129.415
0
LINE
8
BLACK
6
CONTINUOUS
10
353.687
20
-112.903
11
353.802
21
-113.033
0
LINE
8
BLACK
6
CONTINUOUS
10
214.14
20
-126.695
11
214.197
21
-126.654
0
LINE
8
BLACK
6
CONTINUOUS
10
222.046
20
-213.457
11
222.089
21
-213.491
0
LINE
8
BLACK
6
CONTINUOUS
10
192.36
20
-166.652
11
192.367
21
-166.668
0
LINE
8
BLACK
6
CONTINUOUS
10
361.812
20
-199.074
11
361.799
21
-199.128
0
LINE
8
BLACK
6
CONTINUOUS
10
364.35
20
-198.23
11
364.305
21
-198.196
0
LINE
8
BLACK
6
CONTINUOUS
10
223.764
20
-128.82
11
223.799
21
-128.863
0
LINE
8
BLACK
6
CONTINUOUS
10
363.261
20
-197.888
11
363.206
21
-197.893
0
LINE
8
BLACK
6
CONTINUOUS
10
316.914
20
-158.581
11
320.214
21
-158.581
0
LINE
8
BLACK
6
CONTINUOUS
10
213.3
20
-166.588
11
213.304
21
-166.571
0
LINE
8
BLACK
6
CONTINUOUS
10
52.1294
20
-114.676
11
52.1142
21
-114.729
0
LINE
8
BLACK
6
CONTINUOUS
10
223.411
20
-127.846
11
223.413
21
-127.901
0
LINE
8
BLACK
6
CONTINUOUS
10
191.494
20
-126.7
11
191.55
21
-126.742
0
LINE
8
BLACK
6
CONTINUOUS
10
42.3324
20
-198.102
11
42.284
21
-198.075
0
LINE
8
BLACK
6
CONTINUOUS
10
226.533
20
-128.31
11
226.55
21
-128.256
0
LINE
8
BLACK
6
CONTINUOUS
10
364.514
20
-200.592
11
364.552
21
-200.551
0
LINE
8
BLACK
6
CONTINUOUS
10
351.488
20
-113.521
11
351.438
21
-113.497
0
LINE
8
BLACK
6
CONTINUOUS
10
181.594
20
-211.216
11
181.56
21
-211.26
0
LINE
8
BLACK
6
CONTINUOUS
10
179.818
20
-129.179
11
179.86
21
-129.216
0
LINE
8
BLACK
6
CONTINUOUS
10
222.851
20
-210.632
11
222.796
21
-210.64
0
LINE
8
BLACK
6
CONTINUOUS
10
181.26
20
-211.969
11
181.253
21
-212.024
0
LINE
8
BLACK
6
CONTINUOUS
10
181.467
20
-213.038
11
181.496
21
-213.085
0
LINE
8
BLACK
6
CONTINUOUS
10
55.0197
20
-115.985
11
55.0482
21
-115.937
0
LINE
8
BLACK
6
CONTINUOUS
10
351.191
20
-111.414
11
351.358
21
-111.458
0
LINE
8
BLACK
6
CONTINUOUS
10
362.222
20
-198.359
11
362.184
21
-198.399
0
LINE
8
BLACK
6
CONTINUOUS
10
213.147
20
-166.83
11
213.16
21
-166.818
0
LINE
8
BLACK
6
CONTINUOUS
10
352.137
20
-114.111
11
352.107
21
-114.064
0
LINE
8
BLACK
6
CONTINUOUS
10
363.676
20
-203.231
11
363.507
21
-203.276
0
LINE
8
BLACK
6
CONTINUOUS
10
88.1916
20
-158.648
11
102.191
21
-158.648
0
LINE
8
BLACK
6
CONTINUOUS
10
362.303
20
-198.283
11
362.262
21
-198.32
0
LINE
8
BLACK
6
CONTINUOUS
10
37.7707
20
-199.77
11
37.7275
21
-199.605
0
LINE
8
BLACK
6
CONTINUOUS
10
52.3465
20
-114.228
11
52.3156
21
-114.274
0
LINE
8
BLACK
6
CONTINUOUS
10
299.445
20
-111.275
11
299.591
21
-111.269
0
LINE
8
BLACK
6
CONTINUOUS
10
42.4716
20
-200.772
11
42.5158
21
-200.739
0
LINE
8
BLACK
6
CONTINUOUS
10
181.496
20
-211.351
11
181.467
21
-211.398
0
LINE
8
BLACK
6
CONTINUOUS
10
42.641
20
-198.337
11
42.6005
21
-198.299
0
LINE
8
BLACK
6
CONTINUOUS
10
42.9124
20
-198.687
11
42.8839
21
-198.639
0
LINE
8
BLACK
6
CONTINUOUS
10
40.8391
20
-200.929
11
40.8897
21
-200.952
0
LINE
8
BLACK
6
CONTINUOUS
10
183.501
20
-210.761
11
183.45
21
-210.739
0
LINE
8
BLACK
6
CONTINUOUS
10
267.098
20
-163.532
11
264.667
21
-149.745
0
LINE
8
BLACK
6
CONTINUOUS
10
363.428
20
-197.887
11
363.372
21
-197.886
0
LINE
8
BLACK
6
CONTINUOUS
10
38.4042
20
-201.164
11
38.313
21
-201.02
0
LINE
8
BLACK
6
CONTINUOUS
10
299.591
20
-111.269
11
299.737
21
-111.267
0
LINE
8
BLACK
6
CONTINUOUS
10
213.254
20
-166.698
11
213.262
21
-166.683
0
LINE
8
BLACK
6
CONTINUOUS
10
37.5973
20
-198.762
11
37.5886
21
-198.592
0
LINE
8
BLACK
6
CONTINUOUS
10
349.899
20
-113.617
11
349.853
21
-113.649
0
LINE
8
BLACK
6
CONTINUOUS
10
364.331
20
-202.993
11
364.171
21
-203.061
0
LINE
8
BLACK
6
CONTINUOUS
10
349.404
20
-114.134
11
349.376
21
-114.183
0
LINE
8
BLACK
6
CONTINUOUS
10
182.437
20
-127.522
11
182.419
21
-127.469
0
LINE
8
BLACK
6
CONTINUOUS
10
213.338
20
-128.033
11
213.349
21
-127.964
0
LINE
8
BLACK
6
CONTINUOUS
10
256.669
20
-131.812
11
242.882
21
-134.243
0
LINE
8
BLACK
6
CONTINUOUS
10
361.77
20
-199.292
11
361.764
21
-199.347
0
LINE
8
BLACK
6
CONTINUOUS
10
223.666
20
-126.951
11
223.637
21
-126.998
0
LINE
8
BLACK
6
CONTINUOUS
10
223.961
20
-210.897
11
223.914
21
-210.866
0
LINE
8
BLACK
6
CONTINUOUS
10
182.416
20
-213.761
11
182.469
21
-213.774
0
LINE
8
BLACK
6
CONTINUOUS
10
41.4828
20
-197.884
11
41.4273
21
-197.886
0
LINE
8
BLACK
6
CONTINUOUS
10
213.277
20
-166.652
11
213.284
21
-166.636
0
LINE
8
BLACK
6
CONTINUOUS
10
181.095
20
-126.424
11
181.04
21
-126.418
0
LINE
8
BLACK
6
CONTINUOUS
10
223.961
20
-213.54
11
224.006
21
-213.508
0
LINE
8
BLACK
6
CONTINUOUS
10
363.261
20
-201.083
11
363.317
21
-201.085
0
LINE
8
BLACK
6
CONTINUOUS
10
43.047
20
-198.991
11
43.029
21
-198.939
0
LINE
8
BLACK
6
CONTINUOUS
10
55.2564
20
-115.252
11
55.2593
21
-115.197
0
LINE
8
BLACK
6
CONTINUOUS
10
224.474
20
-212.965
11
224.499
21
-212.916
0
LINE
8
BLACK
6
CONTINUOUS
10
226.127
20
-128.964
11
226.166
21
-128.924
0
LINE
8
BLACK
6
CONTINUOUS
10
192.453
20
-166.794
11
192.465
21
-166.806
0
LINE
8
BLACK
6
CONTINUOUS
10
167.93
20
-198.103
11
168.508
21
-194.823
0
LINE
8
BLACK
6
CONTINUOUS
10
181.625
20
-126.58
11
181.575
21
-126.556
0
LINE
8
BLACK
6
CONTINUOUS
10
222.18
20
-213.555
11
222.227
21
-213.585
0
LINE
8
BLACK
6
CONTINUOUS
10
42.8839
20
-200.327
11
42.9124
21
-200.279
0
LINE
8
BLACK
6
CONTINUOUS
10
179.42
20
-128.584
11
179.441
21
-128.635
0
LINE
8
BLACK
6
CONTINUOUS
10
349.35
20
-115.677
11
349.376
21
-115.726
0
LINE
8
BLACK
6
CONTINUOUS
10
224.624
20
-212.549
11
224.635
21
-212.494
0
LINE
8
BLACK
6
CONTINUOUS
10
354.213
20
-113.592
11
354.303
21
-113.74
0
LINE
8
BLACK
6
CONTINUOUS
10
214.085
20
-126.737
11
214.14
21
-126.695
0
LINE
8
BLACK
6
CONTINUOUS
10
192.116
20
-127.441
11
192.146
21
-127.505
0
LINE
8
BLACK
6
CONTINUOUS
10
367.149
20
-199.635
11
367.104
21
-199.803
0
LINE
8
BLACK
6
CONTINUOUS
10
180.384
20
-126.504
11
180.332
21
-126.523
0
LINE
8
BLACK
6
CONTINUOUS
10
213.318
20
-128.311
11
213.32
21
-128.241
0
LINE
8
BLACK
6
CONTINUOUS
10
192.347
20
-166.62
11
192.353
21
-166.636
0
LINE
8
BLACK
6
CONTINUOUS
10
42.1335
20
-200.962
11
42.1845
21
-200.94
0
LINE
8
BLACK
6
CONTINUOUS
10
223.411
20
-127.79
11
223.411
21
-127.846
0
LINE
8
BLACK
6
CONTINUOUS
10
362.389
20
-200.758
11
362.434
21
-200.791
0
LINE
8
BLACK
6
CONTINUOUS
10
223.609
20
-128.59
11
223.637
21
-128.638
0
LINE
8
BLACK
6
CONTINUOUS
10
225.191
20
-129.408
11
225.246
21
-129.4
0
LINE
8
BLACK
6
CONTINUOUS
10
222.227
20
-210.851
11
222.18
21
-210.881
0
LINE
8
BLACK
6
CONTINUOUS
10
223.465
20
-128.23
11
223.48
21
-128.283
0
LINE
8
BLACK
6
CONTINUOUS
10
366.792
20
-200.617
11
366.712
21
-200.772
0
LINE
8
BLACK
6
CONTINUOUS
10
41.5383
20
-201.083
11
41.5938
21
-201.081
0
LINE
8
BLACK
6
CONTINUOUS
10
224.252
20
-211.152
11
224.214
21
-211.112
0
LINE
8
BLACK
6
CONTINUOUS
10
192.573
20
-166.889
11
192.588
21
-166.897
0
LINE
8
BLACK
6
CONTINUOUS
10
224.635
20
-211.942
11
224.624
21
-211.887
0
LINE
8
BLACK
6
CONTINUOUS
10
184.105
20
-211.238
11
184.071
21
-211.194
0
LINE
8
BLACK
6
CONTINUOUS
10
226.576
20
-128.149
11
226.587
21
-128.094
0
LINE
8
BLACK
6
CONTINUOUS
10
242.611
20
-201.757
11
241.108
21
-202.022
0
LINE
8
BLACK
6
CONTINUOUS
10
349.641
20
-113.828
11
349.603
21
-113.868
0
LINE
8
BLACK
6
CONTINUOUS
10
243.427
20
-206.386
11
242.611
21
-201.757
0
LINE
8
BLACK
6
CONTINUOUS
10
224.276
20
-126.397
11
224.227
21
-126.423
0
LINE
8
BLACK
6
CONTINUOUS
10
179.334
20
-127.764
11
179.327
21
-127.819
0
LINE
8
BLACK
6
CONTINUOUS
10
226.602
20
-127.984
11
226.607
21
-127.929
0
LINE
8
BLACK
6
CONTINUOUS
10
232.985
20
-195.402
11
239.731
21
-194.213
0
LINE
8
BLACK
6
CONTINUOUS
10
285.858
20
-160.224
11
283.427
21
-146.437
0
LINE
8
BLACK
6
CONTINUOUS
10
182.416
20
-210.676
11
182.362
21
-210.691
0
LINE
8
BLACK
6
CONTINUOUS
10
349.464
20
-114.041
11
349.433
21
-114.087
0
LINE
8
BLACK
6
CONTINUOUS
10
183.875
20
-213.439
11
183.917
21
-213.402
0
LINE
8
BLACK
6
CONTINUOUS
10
179.355
20
-128.371
11
179.369
21
-128.425
0
LINE
8
BLACK
6
CONTINUOUS
10
192.477
20
-166.818
11
192.49
21
-166.83
0
LINE
8
BLACK
6
CONTINUOUS
10
39.7017
20
-202.507
11
39.5639
21
-202.407
0
LINE
8
BLACK
6
CONTINUOUS
10
179.344
20
-127.71
11
179.334
21
-127.764
0
LINE
8
BLACK
6
CONTINUOUS
10
39.965
20
-199.125
11
39.9535
21
-199.179
0
LINE
8
BLACK
6
CONTINUOUS
10
186.882
20
-177.336
11
173.095
21
-174.905
0
LINE
8
BLACK
6
CONTINUOUS
10
39.8429
20
-202.604
11
39.7017
21
-202.507
0
LINE
8
BLACK
6
CONTINUOUS
10
181.962
20
-210.881
11
181.916
21
-210.912
0
LINE
8
BLACK
6
CONTINUOUS
10
184.406
20
-211.887
11
184.394
21
-211.833
0
LINE
8
BLACK
6
CONTINUOUS
10
54.3705
20
-116.575
11
54.4198
21
-116.549
0
LINE
8
BLACK
6
CONTINUOUS
10
361.787
20
-199.182
11
361.778
21
-199.237
0
LINE
8
BLACK
6
CONTINUOUS
10
181.594
20
-213.22
11
181.629
21
-213.263
0
LINE
8
BLACK
6
CONTINUOUS
10
214.197
20
-126.654
11
214.256
21
-126.616
0
LINE
8
BLACK
6
CONTINUOUS
10
181.962
20
-213.555
11
182.009
21
-213.585
0
LINE
8
BLACK
6
CONTINUOUS
10
353.186
20
-112.423
11
353.318
21
-112.537
0
LINE
8
BLACK
6
CONTINUOUS
10
179.369
20
-127.601
11
179.355
21
-127.655
0
LINE
8
BLACK
6
CONTINUOUS
10
221.585
20
-212.84
11
221.607
21
-212.891
0
LINE
8
BLACK
6
CONTINUOUS
10
42.4716
20
-198.193
11
42.4263
21
-198.161
0
LINE
8
BLACK
6
CONTINUOUS
10
364.911
20
-199.871
11
364.924
21
-199.816
0
LINE
8
BLACK
6
CONTINUOUS
10
181.828
20
-213.457
11
181.872
21
-213.491
0
LINE
8
BLACK
6
CONTINUOUS
10
351.283
20
-113.436
11
351.23
21
-113.42
0
LINE
8
BLACK
6
CONTINUOUS
10
241.902
20
-206.522
11
240.934
21
-206.693
0
LINE
8
BLACK
6
CONTINUOUS
10
53.343
20
-116.709
11
53.3976
21
-116.719
0
LINE
8
BLACK
6
CONTINUOUS
10
354.83
20
-115.019
11
354.87
21
-115.188
0
LINE
8
BLACK
6
CONTINUOUS
10
350.958
20
-116.544
11
351.013
21
-116.537
0
LINE
8
BLACK
6
CONTINUOUS
10
122.097
20
-160.784
11
124.527
21
-146.998
0
LINE
8
BLACK
6
CONTINUOUS
10
184.229
20
-211.422
11
184.2
21
-211.374
0
LINE
8
BLACK
6
CONTINUOUS
10
352.77
20
-112.112
11
352.912
21
-112.211
0
LINE
8
BLACK
6
CONTINUOUS
10
179.355
20
-127.655
11
179.344
21
-127.71
0
LINE
8
BLACK
6
CONTINUOUS
10
41.7596
20
-201.066
11
41.8144
21
-201.056
0
LINE
8
BLACK
6
CONTINUOUS
10
226.611
20
-127.818
11
226.61
21
-127.762
0
LINE
8
BLACK
6
CONTINUOUS
10
365.512
20
-202.255
11
365.376
21
-202.365
0
LINE
8
BLACK
6
CONTINUOUS
10
226.564
20
-128.203
11
226.576
21
-128.149
0
LINE
8
BLACK
6
CONTINUOUS
10
260.689
20
-204.936
11
259.663
21
-203.39
0
LINE
8
BLACK
6
CONTINUOUS
10
41.8688
20
-197.92
11
41.8144
21
-197.909
0
LINE
8
BLACK
6
CONTINUOUS
10
68.8531
20
-196.748
11
68.8531
21
-182.749
0
LINE
8
BLACK
6
CONTINUOUS
10
223.017
20
-213.818
11
223.073
21
-213.818
0
LINE
8
BLACK
6
CONTINUOUS
10
39.9246
20
-199.511
11
39.9266
21
-199.566
0
LINE
8
BLACK
6
CONTINUOUS
10
181.367
20
-211.596
11
181.346
21
-211.648
0
LINE
8
BLACK
6
CONTINUOUS
10
41.2072
20
-201.051
11
41.2618
21
-201.061
0
LINE
8
BLACK
6
CONTINUOUS
10
362.298
20
-203.425
11
300.202
21
-203.425
0
LINE
8
BLACK
6
CONTINUOUS
10
351.933
20
-113.848
11
351.894
21
-113.808
0
LINE
8
BLACK
6
CONTINUOUS
10
179.321
20
-127.875
11
179.317
21
-127.93
0
LINE
8
BLACK
6
CONTINUOUS
10
179.74
20
-129.1
11
179.779
21
-129.14
0
LINE
8
BLACK
6
CONTINUOUS
10
224.214
20
-211.112
11
224.175
21
-211.072
0
LINE
8
BLACK
6
CONTINUOUS
10
364.393
20
-200.706
11
364.434
21
-200.67
0
LINE
8
BLACK
6
CONTINUOUS
10
213.16
20
-166.818
11
213.172
21
-166.806
0
LINE
8
BLACK
6
CONTINUOUS
10
53.129
20
-116.65
11
53.1817
21
-116.668
0
LINE
8
BLACK
6
CONTINUOUS
10
38.7065
20
-201.578
11
38.601
21
-201.443
0
LINE
8
BLACK
6
CONTINUOUS
10
223.609
20
-127.046
11
223.583
21
-127.095
0
LINE
8
BLACK
6
CONTINUOUS
10
302.188
20
-143.129
11
288.402
21
-145.56
0
LINE
8
BLACK
6
CONTINUOUS
10
214.763
20
-126.389
11
214.83
21
-126.371
0
LINE
8
BLACK
6
CONTINUOUS
10
240.934
20
-206.693
11
240.498
21
-208.496
0
LINE
8
BLACK
6
CONTINUOUS
10
221.545
20
-212.736
11
221.564
21
-212.788
0
LINE
8
BLACK
6
CONTINUOUS
10
181.27
20
-211.914
11
181.26
21
-211.969
0
LINE
8
BLACK
6
CONTINUOUS
10
349.326
20
-114.282
11
349.303
21
-114.333
0
LINE
8
BLACK
6
CONTINUOUS
10
40.0619
20
-218.923
11
40.0619
21
-216.923
0
LINE
8
BLACK
6
CONTINUOUS
10
40.0619
20
-216.923
11
40.5381
21
-216.923
0
LINE
8
BLACK
6
CONTINUOUS
10
40.5381
20
-216.923
11
40.8238
21
-217.018
0
LINE
8
BLACK
6
CONTINUOUS
10
40.8238
20
-217.018
11
41.0143
21
-217.209
0
LINE
8
BLACK
6
CONTINUOUS
10
41.0143
20
-217.209
11
41.1096
21
-217.399
0
LINE
8
BLACK
6
CONTINUOUS
10
41.1096
20
-217.399
11
41.2048
21
-217.78
0
LINE
8
BLACK
6
CONTINUOUS
10
41.2048
20
-217.78
11
41.2048
21
-218.066
0
LINE
8
BLACK
6
CONTINUOUS
10
41.2048
20
-218.066
11
41.1096
21
-218.447
0
LINE
8
BLACK
6
CONTINUOUS
10
41.1096
20
-218.447
11
41.0143
21
-218.637
0
LINE
8
BLACK
6
CONTINUOUS
10
41.0143
20
-218.637
11
40.8238
21
-218.828
0
LINE
8
BLACK
6
CONTINUOUS
10
40.8238
20
-218.828
11
40.5381
21
-218.923
0
LINE
8
BLACK
6
CONTINUOUS
10
40.5381
20
-218.923
11
40.0619
21
-218.923
0
LINE
8
BLACK
6
CONTINUOUS
10
42.0619
20
-218.923
11
42.0619
21
-217.59
0
LINE
8
BLACK
6
CONTINUOUS
10
42.0619
20
-217.971
11
42.1572
21
-217.78
0
LINE
8
BLACK
6
CONTINUOUS
10
42.1572
20
-217.78
11
42.2524
21
-217.685
0
LINE
8
BLACK
6
CONTINUOUS
10
42.2524
20
-217.685
11
42.4429
21
-217.59
0
LINE
8
BLACK
6
CONTINUOUS
10
42.4429
20
-217.59
11
42.6334
21
-217.59
0
LINE
8
BLACK
6
CONTINUOUS
10
43.3
20
-218.923
11
43.3
21
-217.59
0
LINE
8
BLACK
6
CONTINUOUS
10
43.3
20
-216.923
11
43.2048
21
-217.018
0
LINE
8
BLACK
6
CONTINUOUS
10
43.2048
20
-217.018
11
43.3
21
-217.113
0
LINE
8
BLACK
6
CONTINUOUS
10
43.3
20
-217.113
11
43.3953
21
-217.018
0
LINE
8
BLACK
6
CONTINUOUS
10
43.3953
20
-217.018
11
43.3
21
-216.923
0
LINE
8
BLACK
6
CONTINUOUS
10
43.3
20
-216.923
11
43.3
21
-217.113
0
LINE
8
BLACK
6
CONTINUOUS
10
44.5381
20
-218.923
11
44.3477
21
-218.828
0
LINE
8
BLACK
6
CONTINUOUS
10
44.3477
20
-218.828
11
44.2524
21
-218.637
0
LINE
8
BLACK
6
CONTINUOUS
10
44.2524
20
-218.637
11
44.2524
21
-216.923
0
LINE
8
BLACK
6
CONTINUOUS
10
45.5858
20
-218.923
11
45.3953
21
-218.828
0
LINE
8
BLACK
6
CONTINUOUS
10
45.3953
20
-218.828
11
45.3
21
-218.637
0
LINE
8
BLACK
6
CONTINUOUS
10
45.3
20
-218.637
11
45.3
21
-216.923
0
LINE
8
BLACK
6
CONTINUOUS
10
47.8715
20
-218.923
11
47.8715
21
-216.923
0
LINE
8
BLACK
6
CONTINUOUS
10
47.8715
20
-216.923
11
48.5381
21
-218.351
0
LINE
8
BLACK
6
CONTINUOUS
10
48.5381
20
-218.351
11
49.2048
21
-216.923
0
LINE
8
BLACK
6
CONTINUOUS
10
49.2048
20
-216.923
11
49.2048
21
-218.923
0
LINE
8
BLACK
6
CONTINUOUS
10
51.0143
20
-218.923
11
51.0143
21
-217.875
0
LINE
8
BLACK
6
CONTINUOUS
10
51.0143
20
-217.875
11
50.9191
21
-217.685
0
LINE
8
BLACK
6
CONTINUOUS
10
50.9191
20
-217.685
11
50.7286
21
-217.59
0
LINE
8
BLACK
6
CONTINUOUS
10
50.7286
20
-217.59
11
50.3477
21
-217.59
0
LINE
8
BLACK
6
CONTINUOUS
10
50.3477
20
-217.59
11
50.1572
21
-217.685
0
LINE
8
BLACK
6
CONTINUOUS
10
51.0143
20
-218.828
11
50.8238
21
-218.923
0
LINE
8
BLACK
6
CONTINUOUS
10
50.8238
20
-218.923
11
50.3477
21
-218.923
0
LINE
8
BLACK
6
CONTINUOUS
10
50.3477
20
-218.923
11
50.1572
21
-218.828
0
LINE
8
BLACK
6
CONTINUOUS
10
50.1572
20
-218.828
11
50.0619
21
-218.637
0
LINE
8
BLACK
6
CONTINUOUS
10
50.0619
20
-218.637
11
50.0619
21
-218.447
0
LINE
8
BLACK
6
CONTINUOUS
10
50.0619
20
-218.447
11
50.1572
21
-218.256
0
LINE
8
BLACK
6
CONTINUOUS
10
50.1572
20
-218.256
11
50.3477
21
-218.161
0
LINE
8
BLACK
6
CONTINUOUS
10
50.3477
20
-218.161
11
50.8238
21
-218.161
0
LINE
8
BLACK
6
CONTINUOUS
10
50.8238
20
-218.161
11
51.0143
21
-218.066
0
LINE
8
BLACK
6
CONTINUOUS
10
51.9667
20
-217.59
11
51.9667
21
-219.59
0
LINE
8
BLACK
6
CONTINUOUS
10
51.9667
20
-217.685
11
52.1572
21
-217.59
0
LINE
8
BLACK
6
CONTINUOUS
10
52.1572
20
-217.59
11
52.5381
21
-217.59
0
LINE
8
BLACK
6
CONTINUOUS
10
52.5381
20
-217.59
11
52.7286
21
-217.685
0
LINE
8
BLACK
6
CONTINUOUS
10
52.7286
20
-217.685
11
52.8238
21
-217.78
0
LINE
8
BLACK
6
CONTINUOUS
10
52.8238
20
-217.78
11
52.9191
21
-217.971
0
LINE
8
BLACK
6
CONTINUOUS
10
52.9191
20
-217.971
11
52.9191
21
-218.542
0
LINE
8
BLACK
6
CONTINUOUS
10
52.9191
20
-218.542
11
52.8238
21
-218.732
0
LINE
8
BLACK
6
CONTINUOUS
10
52.8238
20
-218.732
11
52.7286
21
-218.828
0
LINE
8
BLACK
6
CONTINUOUS
10
52.7286
20
-218.828
11
52.5381
21
-218.923
0
LINE
8
BLACK
6
CONTINUOUS
10
52.5381
20
-218.923
11
52.1572
21
-218.923
0
LINE
8
BLACK
6
CONTINUOUS
10
52.1572
20
-218.923
11
51.9667
21
-218.828
0
LINE
8
BLACK
6
CONTINUOUS
10
53.7762
20
-218.732
11
53.8715
21
-218.828
0
LINE
8
BLACK
6
CONTINUOUS
10
53.8715
20
-218.828
11
53.7762
21
-218.923
0
LINE
8
BLACK
6
CONTINUOUS
10
53.7762
20
-218.923
11
53.681
21
-218.828
0
LINE
8
BLACK
6
CONTINUOUS
10
53.681
20
-218.828
11
53.7762
21
-218.732
0
LINE
8
BLACK
6
CONTINUOUS
10
53.7762
20
-218.732
11
53.7762
21
-218.923
0
LINE
8
BLACK
6
CONTINUOUS
10
53.7762
20
-217.685
11
53.8715
21
-217.78
0
LINE
8
BLACK
6
CONTINUOUS
10
53.8715
20
-217.78
11
53.7762
21
-217.875
0
LINE
8
BLACK
6
CONTINUOUS
10
53.7762
20
-217.875
11
53.681
21
-217.78
0
LINE
8
BLACK
6
CONTINUOUS
10
53.681
20
-217.78
11
53.7762
21
-217.685
0
LINE
8
BLACK
6
CONTINUOUS
10
53.7762
20
-217.685
11
53.7762
21
-217.875
  0
ENDSEC
  0
EOF
