G04 #@! TF.GenerationSoftware,KiCad,Pcbnew,(6.0.6-69-g6d26e8e3e8)*
G04 #@! TF.CreationDate,2022-07-20T16:25:23-04:00*
G04 #@! TF.ProjectId,plate,706c6174-652e-46b6-9963-61645f706362,rev?*
G04 #@! TF.SameCoordinates,Original*
G04 #@! TF.FileFunction,Legend,Top*
G04 #@! TF.FilePolarity,Positive*
%FSLAX46Y46*%
G04 Gerber Fmt 4.6, Leading zero omitted, Abs format (unit mm)*
G04 Created by KiCad (PCBNEW (6.0.6-69-g6d26e8e3e8)) date 2022-07-20 16:25:23*
%MOMM*%
%LPD*%
G01*
G04 APERTURE LIST*
%ADD10C,1.000000*%
G04 APERTURE END LIST*
D10*
X307123222Y-117261645D02*
X309980365Y-117261645D01*
X306337508Y-118975930D02*
X309087508Y-112975930D01*
X310337508Y-118975930D01*
X313194651Y-118975930D02*
X312658936Y-118690216D01*
X312444651Y-118118787D01*
X313087508Y-112975930D01*
X315480365Y-118975930D02*
X315980365Y-114975930D01*
X316230365Y-112975930D02*
X315908936Y-113261645D01*
X316158936Y-113547359D01*
X316480365Y-113261645D01*
X316230365Y-112975930D01*
X316158936Y-113547359D01*
X318087508Y-118690216D02*
X318623222Y-118975930D01*
X319766079Y-118975930D01*
X320373222Y-118690216D01*
X320730365Y-118118787D01*
X320766079Y-117833073D01*
X320551793Y-117261645D01*
X320016079Y-116975930D01*
X319158936Y-116975930D01*
X318623222Y-116690216D01*
X318408936Y-116118787D01*
X318444651Y-115833073D01*
X318801793Y-115261645D01*
X319408936Y-114975930D01*
X320266079Y-114975930D01*
X320801793Y-115261645D01*
X323194651Y-118975930D02*
X323944651Y-112975930D01*
X325766079Y-118975930D02*
X326158936Y-115833073D01*
X325944651Y-115261645D01*
X325408936Y-114975930D01*
X324551793Y-114975930D01*
X323944651Y-115261645D01*
X323623222Y-115547359D01*
X336266079Y-114975930D02*
X335766079Y-118975930D01*
X335123222Y-112690216D02*
X333158936Y-116975930D01*
X336873222Y-116975930D01*
X340801793Y-112975930D02*
X341373222Y-112975930D01*
X341908936Y-113261645D01*
X342158936Y-113547359D01*
X342373222Y-114118787D01*
X342516079Y-115261645D01*
X342337508Y-116690216D01*
X341908936Y-117833073D01*
X341551793Y-118404502D01*
X341230365Y-118690216D01*
X340623222Y-118975930D01*
X340051793Y-118975930D01*
X339516079Y-118690216D01*
X339266079Y-118404502D01*
X339051793Y-117833073D01*
X338908936Y-116690216D01*
X339087508Y-115261645D01*
X339516079Y-114118787D01*
X339873222Y-113547359D01*
X340194651Y-113261645D01*
X340801793Y-112975930D01*
%LPC*%
M02*
